<svg id="Слой_1" data-name="Слой 1" xmlns="http://www.w3.org/2000/svg" viewBox="0 0 300 300">
  <defs>
    <style>
      .cls-1 {
        fill: #92e8db;
      }

      .cls-2 {
        fill: #060606;
      }
    </style>
  </defs>
  <title>arrow1</title>
  <g>
    <path class="cls-1" d="M168.63,148.93c40.36,24.54,82.09,40.71,124.72,57.41.5-12.9.65-24.92-.07-36.94-.87-14.52-2.88-29-3.22-43.51-.2-8.6-5.25-14.29-5.51-22.89-.15-5-.86-10.22-1.13-15C260.91,98,225.55,124,168.63,148.93Z"/>
    <path class="cls-2" d="M277.65,216.63c-2.62-18.94.05-38.09-2-57-2.11-19.49-2.48-39.08-4.4-58.58-.61-6.19-.27-12.49,0-18.73.18-4.44-.46-8.26-4.42-11a9.84,9.84,0,0,1-2.27-2.67c-5.56-8.09-8.32-8.88-16.89-5-45.08,20.26-87.56,45.39-130.84,69-9.9,5.42-13.61,17-2.71,27.15,7.24,6.73,15.89,11.5,24.53,16.16,32.51,17.55,66.57,31.65,101,44.93,6.41,2.47,13,4.7,18.87,8.28C269.55,236,279.1,227.48,277.65,216.63ZM141.94,142c32.71-18,63.81-36.59,97.3-52a7.06,7.06,0,0,1,8.82,2.47c1.33,2,2.77,3.93,2.85,6.68.25,8.6,1.36,17.17,1.56,25.77.34,14.56,2.35,29,3.22,43.51.53,8.85.59,17.69.38,26.89a7.05,7.05,0,0,1-9.63,6.4c-35.61-14-70.57-28-104.59-47.4A7.05,7.05,0,0,1,141.94,142Z"/>
    <path class="cls-2" d="M28.47,153.72c1.58-3.32,4.48-4.5,6.87-6.13,35.62-24.25,71-48.94,108.11-70.84a62.37,62.37,0,0,0,8.19-5.36c4-3.27,4.91-8,2.88-12-2.18-4.28-7.1-6.31-12.23-4.61-2.5.83-4.75,2.41-7.08,3.71C104.55,72,84.13,91.12,58.58,107.41,43,117.32,28.24,128.34,12.92,138.56c-11.24,7.5-11.47,18.15-2.22,26.68A263.78,263.78,0,0,0,46.64,193c23,14.78,46.17,29.28,69.35,43.79a100.24,100.24,0,0,0,12.6,6.65c5,5.52,12.17,1,14.63-4.08s.39-10.46-5.57-14.12c-25.54-15.73-51.13-31.41-76.6-47.26A284.51,284.51,0,0,1,28.47,153.72Z"/>
  </g>
</svg>
