<svg id="Слой_2" data-name="Слой 2" xmlns="http://www.w3.org/2000/svg" viewBox="0 0 300 300">
  <defs>
    <style>
      .cls-1 {
        fill: #29abe2;
      }

      .cls-2 {
        fill: #a64521;
      }

      .cls-3 {
        fill: #722d11;
      }

      .cls-4, .cls-7 {
        stroke: #000;
      }

      .cls-11, .cls-4, .cls-6, .cls-7 {
        stroke-linecap: round;
      }

      .cls-11, .cls-22, .cls-24, .cls-4, .cls-6, .cls-7 {
        stroke-miterlimit: 10;
      }

      .cls-11, .cls-4, .cls-7 {
        stroke-width: 0.75px;
      }

      .cls-4 {
        opacity: 0.2;
      }

      .cls-5 {
        fill: #603813;
      }

      .cls-11, .cls-6 {
        fill: none;
      }

      .cls-6 {
        stroke: #603813;
        stroke-width: 2px;
      }

      .cls-7 {
        opacity: 0.11;
      }

      .cls-8 {
        fill: #fdbc67;
      }

      .cls-9 {
        fill: #cb812a;
      }

      .cls-10, .cls-23 {
        opacity: 0.1;
      }

      .cls-11 {
        stroke: #a07c52;
      }

      .cls-12, .cls-24 {
        fill: #a07c52;
      }

      .cls-13 {
        fill: #8c6239;
      }

      .cls-14 {
        fill: #42210b;
      }

      .cls-15 {
        fill: #8e3613;
      }

      .cls-16 {
        fill: #fff;
        opacity: 0.12;
      }

      .cls-17 {
        fill: #ffad58;
      }

      .cls-18 {
        opacity: 0.15;
      }

      .cls-19 {
        fill: #201600;
      }

      .cls-20 {
        fill: #fbb03b;
      }

      .cls-21 {
        opacity: 0.21;
      }

      .cls-22 {
        fill: #c69c6d;
      }

      .cls-22, .cls-24 {
        stroke: #8c6239;
        stroke-width: 0.15px;
      }

      .cls-25 {
        fill: #754c24;
      }
    </style>
  </defs>
  <title>board</title>
  <path class="cls-1" d="M245.69,160a7.06,7.06,0,0,1,.2-4q-.85,2.89.3-.28c-1.08,1.71-1,1.66.24-.12-1.42,1.3-1.39,1.34.1.1-.74.48-6.39,3-2.79,1.64-1.49.55-3,1.05-4.52,1.53-8.9,2.84-18,5.18-27.09,7.14q-7.31,1.56-14.66,2.79c-2.45.41-4.91.78-7.37,1.15a17.5,17.5,0,0,1-2.62.36c-9.6,1.14-19.22,2-28.88,2.54-18.77,1-37.59.87-56.37.06-9.39-.41-18.77-1-28.14-1.68-2-.15-4-.35-5.94-.47s-1.72-.17.89.14c-.86-.14-1.72-.32-2.57-.52S64.8,170,64,169.7c2.33,1.07,2.63,1.15.91.26,2,1.71,2.25,1.9.85.58q2.28,3.19.86.61c-4.17-8.47-16.87-11.46-24.63-6.46-8.68,5.6-10.91,15.57-6.46,24.63,8.59,17.47,30.34,17.45,47,18.55,17.2,1.14,34.44,1.83,51.69,1.73,35.77-.2,72-3.77,106.51-13.55,10.31-2.92,20.5-6.07,28.91-12.94a32.54,32.54,0,0,0,10.78-32.66c-2.14-9.17-13.15-15.48-22.15-12.57A18.39,18.39,0,0,0,245.69,160Z"/>
  <g>
    <path class="cls-2" d="M280.54,118.35c-6.16,2.49-16.21,6.52-26.32,10.48-12.82,5-25.76,9.93-31,11.44-11.82,3.39-50.71,9-66.64,10-9.28.6-29,.26-48.09-1.06-13.64-.93-26.93-2.36-35.82-4.29a186.79,186.79,0,0,1-24.31-7.08c-3.83-1.39-7-2.67-9.23-3.64l-.58-.25-.19-.08-.54-.23-.16-.07-.49-.22-.12-.06c-.47-.21-1.78.19-2.08.06,0,0,.79,10.32,3.13,17,2.51,7.16,14.07,27.45,14.07,27.45s18.54,7.65,36.94,9.58,41.17,3.41,58.75,2.83a428.9,428.9,0,0,0,52.05-5c15.76-2.54,31.71-5.37,31.71-5.37s18.83-14.7,28.06-26.17,26.41-36.76,26.81-37.36A48.08,48.08,0,0,0,280.54,118.35Z"/>
    <path class="cls-3" d="M220,97.74s-26.65,9.41-42.84,14.35-38.26,11.59-53.59,13.9-17.51,3.16-37.71,5.45a335.31,335.31,0,0,1-38.66,2s9.08,2.46,29.2,6.65,57.17,5.7,72.15,4.84,52.74-4.72,63.85-7.71c5.85-1.58,24.48-6.89,39-11.9,13.06-4.52,22.4-8.87,22.4-8.87Z"/>
  </g>
  <path class="cls-4" d="M261.07,113.06C245,106.3,227.73,97.77,220.3,98.76c-19.84,2.64-20.79,28.12-40,32.7-7.48,1.78-21.49,6.21-39.94,5-32.67-2.08-25.45-1-29-1.16-1-.07-29.37-4.61-33.14-3.8.23,0-30.11,1.81-29.9,1.9,18.26,7.92,85.23,12.34,100.21,11.48s52.74-4.72,63.85-7.71c5.85-1.58,24.48-6.89,39-11.9,11.11-3.85,19.52-7.57,21.79-8.59C269.06,114.9,263,113.88,261.07,113.06Z"/>
  <path class="cls-5" d="M218.58,114.51a224.05,224.05,0,0,1-34,12.72c-11.66,3.29-23.45,6-35.39,8.17a317.29,317.29,0,0,1-36.09,4.21q-9.06.55-18.13.74c-6,.06-12.1.07-18.15-.19,12.09-.31,24.14-1.11,36.17-2.1s24-2.52,35.85-4.62c5.94-1,11.85-2.22,17.73-3.53s11.77-2.67,17.6-4.18A301.53,301.53,0,0,0,218.58,114.51Z"/>
  <path class="cls-6" d="M220.38,97.86a194.83,194.83,0,0,1-3.25,25c-1,4.89-2.07,9.53-3.26,13.92"/>
  <path class="cls-5" d="M220.37,109.5l34.95,13.35-35.61-11.46a1,1,0,0,1,.61-1.91Z"/>
  <path class="cls-7" d="M280.66,118.36a112,112,0,0,0-9.33,12.6,204.24,204.24,0,0,1-27.59,29.94C229,174,220.52,177.57,217.82,178.65c-5.76,2.3-10.85,3.14-21,4.81-6,1-15.35,2.3-34.3,3.36-8.4.46-18.48,1-32.38,1-26.72,0-40.26-2-47.93-3.36-16.14-2.92-20.61-5.77-23.7-8.9a51.13,51.13,0,0,1-11.61-17.4c-1.54-4.15-5-11-8.6-18.45-2.86-6,.07-3.55-2.72-6,.05,1,.36,9.94,2.69,16.64,2.51,7.15,14.14,27.48,14.14,27.48s18.48,7.61,36.88,9.55,41.16,3.4,58.75,2.83a430.94,430.94,0,0,0,52-5c15.76-2.54,31.72-5.37,31.72-5.37s18.82-14.7,28-26.18,25.41-36.19,25.81-36.8A17.71,17.71,0,0,0,280.66,118.36Z"/>
  <polygon class="cls-8" points="137.98 145.14 118.63 144.7 103.96 129.2 118.78 126.88 137.98 145.14"/>
  <polygon class="cls-9" points="118.39 144.44 118.33 144.5 112.59 144.27 102.81 134.13 103.96 129.2 118.39 144.44"/>
  <polygon class="cls-8" points="171.58 113.97 188.75 108.45 240.87 128.77 215.72 136.72 171.58 113.97"/>
  <polygon class="cls-9" points="171.59 113.92 170.94 118.73 210.72 137.56 215.78 136.51 171.59 113.92"/>
  <path class="cls-10" d="M90.54,127c-1.29.2-2.6.39-4,.58a1.63,1.63,0,0,1,0-.31v-.87c0-.25,0-.54,0-.74v-.05l.09.05c.21.09.41.18.62.29A17.28,17.28,0,0,0,90.54,127Z"/>
  <g>
    <path class="cls-11" d="M35.06,133.31c0,.43.31,10.63,2.76,17.65s14.31,26.88,14.31,26.88,18.38,7.7,36.78,9.64,41.22,3.48,58.8,2.91a424.83,424.83,0,0,0,51.75-4.78c15.76-2.54,32.19-5.72,32.19-5.72s18.75-13.95,27.75-25.6c8.88-11.48,26.44-37.84,26.9-37.81"/>
    <path class="cls-12" d="M219.86,99.26l7,2.45,10.3,3.58,23.14,8,11.26,3.92c-3.27,1.44-10.95,4.72-20.61,8.06-13.36,4.62-30,10.37-38.86,11.87-11.51,1.95-49.07,6.84-63.77,7.7-2.69.16-6.05.24-10,.24-18.75,0-46-1.74-62-5.06-10.87-2.26-18.55-4-23.29-5.18,7-.08,19.45-.47,32.69-2,13.87-1.57,19.32-2.48,26.22-3.62,3.14-.51,6.7-1.1,11.51-1.83,14.65-2.21,35-8.31,51.34-13.22l2.36-.7c11.76-3.53,26.87-8.77,42.62-14.28m0-.8c-16.93,5.93-31.38,10.92-42.84,14.36-16.22,4.86-38.26,11.58-53.59,13.9s-17.5,3.15-37.71,5.45a339.83,339.83,0,0,1-36.16,2c-1.61,0-2.5,0-2.5,0s9.09,2.46,29.2,6.66c16.49,3.43,44.35,5.07,62.12,5.07,3.91,0,7.33-.08,10-.24,15-.88,52.45-5.78,63.84-7.71,8.67-1.46,24.48-6.89,39-11.9,13.05-4.51,22.39-8.86,22.39-8.86l-36.19-12.58-17.59-6.12Z"/>
  </g>
  <path class="cls-13" d="M86.67,127.25l0-.48v-.38a1.46,1.46,0,0,0,0-.3c0-.15,0-.32,0-.43l0-.19c0-.14,0-.28.06-.37l.13-.46a1.44,1.44,0,0,1,.76-.91,12.71,12.71,0,0,1,1.91-1,16.63,16.63,0,0,1,4.13-1.05l2.39-.33c2-.28,4.14-.58,6.23-.79,2.8-.3,5.66-.5,8.44-.7,3-.22,6.1-.45,9.12-.79,2.1-.21,4.31-.55,6.94-1l.12,0c2-.38,4.1-.79,6.09-1.2L137,116c4.73-1,9.1-1.88,13.46-2.8a.25.25,0,0,1,0-.12l0-.11c-4.37.93-8.75,1.83-13.51,2.81-1.32.26-2.63.54-3.93.81-2,.4-4,.82-6.07,1.19-2.68.51-4.92.84-7.06,1.07-3,.33-6.12.56-9.12.78-2.77.2-5.63.4-8.42.7-2.1.21-4.21.51-6.26.79l-2.39.34a16,16,0,0,0-4.17,1.06,13.17,13.17,0,0,0-2,1,1.66,1.66,0,0,0-.86,1l-.14.47c0,.1,0,.25-.07.39l0,.19c0,.13,0,.29,0,.46a2.64,2.64,0,0,1,0,.29v.4l0,.48c0,.11,0,.21,0,.32l.22,0C86.68,127.45,86.68,127.35,86.67,127.25Z"/>
  <path class="cls-13" d="M225.14,97.6a2.85,2.85,0,0,0-2.3-1.57,3.81,3.81,0,0,0-1.64.08c-5.37,1.51-11,3-16.75,4.43l-21.07,5.14L174,107.86l-3.41.76-4.33,1L161,110.75l-5.08,1.09-.26.17h0l-.23.15,6.05-1.31,4.84-1.06,4.28-1,3.18-.72c4.74-1.07,9.4-2.15,13.93-3.23,5.16-1.22,10.66-2.56,16.83-4.13,5.73-1.44,11.37-2.92,16.74-4.42a3.36,3.36,0,0,1,1.29-.13,1.38,1.38,0,0,1,.2,0h.06a2.67,2.67,0,0,1,2.13,1.47,1.8,1.8,0,0,1-.09,1.55,2.86,2.86,0,0,1-1.78,1.34l-.33.07c-5.76,1-11.52,2.19-17.1,3.37-4.64,1-10.75,2.24-17,3.65-5.31,1.19-10.67,2.41-16.17,3.71-.26.06-.52.13-.79.18l-4.84,1.15-2.18.53q-4.75,1.14-9.68,2.36l-2.09.52a.76.76,0,0,1,0,.11v0a.38.38,0,0,1,0,.1l2.19-.53q5-1.25,9.85-2.41l2-.48,5-1.18.59-.14c5.51-1.3,10.89-2.54,16.21-3.73,6.23-1.4,12.34-2.68,17-3.65,5.58-1.17,11.34-2.31,17.12-3.37.11,0,.22,0,.33-.08A3.05,3.05,0,0,0,225,99.36,2.13,2.13,0,0,0,225.14,97.6Z"/>
  <path class="cls-14" d="M166.77,114.73a.23.23,0,0,1-.22.2.17.17,0,0,1-.12-.05l-1.57-1.45-.1-.07h0l-.1-.09,0,0c-.34-.35-.7-.69-1.06-1h0a8.17,8.17,0,0,0-.72-.6,4.2,4.2,0,0,0-1.38-.74l-.22-.07h0a1.72,1.72,0,0,0-.24,0l-.23,0a7,7,0,0,0-2.41.23,7.88,7.88,0,0,0-2.44.9l-2,.44-3.42.73a6.93,6.93,0,0,1,.47-1.61,8.46,8.46,0,0,1,2.93-3.59,10.77,10.77,0,0,1,3.85-1.73,12.4,12.4,0,0,1,1.87-.26,9.19,9.19,0,0,1,2.27.19,6.76,6.76,0,0,1,2.22.94,8.39,8.39,0,0,1,.83.68,5.69,5.69,0,0,1,.61.72,7.52,7.52,0,0,1,.7,1.25s0,.05,0,.08a.84.84,0,0,1,0,.12,7.65,7.65,0,0,1,.39,1.42,2.51,2.51,0,0,1,0,.27,8,8,0,0,1,.13,1.24v.11h0v.1l0,.65c0,.3,0,.58-.06.91Z"/>
  <path class="cls-15" d="M37.91,147.25a284.6,284.6,0,0,0,28.52,7.6,280.63,280.63,0,0,0,29.1,4.67c19.53,2.14,39.27,2.12,58.89,1.29A431.6,431.6,0,0,0,213,154.26c9.67-1.74,19.25-4,28.76-6.53s18.92-5.44,28.25-8.61c-9.18,3.59-18.53,6.73-28,9.54s-19,5.16-28.73,7.1-19.46,3.4-29.26,4.58-19.64,2-29.51,2.46-19.74.47-29.6.29A273.14,273.14,0,0,1,95.35,161a274,274,0,0,1-29.14-5.24A256.88,256.88,0,0,1,37.91,147.25Z"/>
  <path class="cls-15" d="M48.66,170.62c8.21,1.58,16.42,3.09,24.68,4.2s16.52,2.18,24.82,2.85,16.6,1.22,24.91,1.44,16.64.22,25-.06a445.46,445.46,0,0,0,49.74-4q12.39-1.59,24.68-3.93,6.15-1.09,12.28-2.38t12.24-2.7a.1.1,0,0,1,.12.07.11.11,0,0,1-.07.13,415.76,415.76,0,0,1-49,10.35,419.36,419.36,0,0,1-49.91,4.41,380.83,380.83,0,0,1-99.46-10.23.11.11,0,0,1-.08-.12A.11.11,0,0,1,48.66,170.62Z"/>
  <path class="cls-16" d="M254.34,128.84a114.44,114.44,0,0,1-29,28.42c-35.35,23.46-71.56,14.53-79.54,13.79-21.73-2-68.56-18.39-77.69-26.5,19.06,1.31,79.37,6.35,88.65,5.75,15.93-1,54.82-6.63,66.65-10C228.58,138.77,241.51,133.86,254.34,128.84Z"/>
  <g>
    <path class="cls-17" d="M283.68,115.59,218.47,93.51s-8.93,4.21-20.1,8.67c-5.11,2-10.69,4.12-16.11,5.88-7.08,2.3-15,4.57-23.09,6.64l-.35.09c-2.63.68-5.26,1.33-7.87,1.94l-.3.08c-8.72,2.06-17.21,3.8-24.47,5l-6.71,1.11c-3.39.57-6.77,1.16-10.19,1.75-6,1-12.07,2-18.79,3-1.28.2-2.6.39-3.95.58-4,.58-8.24,1.15-12.79,1.72-21.6,2.66-38.69,3.07-38.69,3.07h0l0,0h0l.14.07.73.33h0c.3.15.7.32,1.15.52l.13.06.49.22.16.07.54.23.19.08.57.25c2.26,1,5.41,2.25,9.24,3.64a192.14,192.14,0,0,0,19.61,6c1.48.35,3,.71,4.52,1,21.33,4.62,68,6.38,83.91,5.35s54.82-6.63,66.64-10c8.61-2.48,38.15-14.21,53.66-20.45l4-1.61,5.68-2.3Zm-10.55,1.83c-2.26,1-10.68,4.74-21.78,8.59-14.51,5-33,11-39,11.9-11.25,1.77-48.86,6.83-63.85,7.71s-52-.64-72.15-4.84l-.7-.14c-19.63-4.1-28.5-6.51-28.5-6.51a335.31,335.31,0,0,0,38.66-2l1.85-.21c14-1.61,18.81-2.5,26.74-3.79,2.57-.42,5.48-.89,9.12-1.44,15.33-2.32,37.4-9,53.59-13.91,6.74-2.06,15.31-4.89,23-7.5C210.9,101.66,220,98.45,220,98.45l4.42,1.54,49.36,17.15Z"/>
    <path class="cls-13" d="M110.87,150.12c-14.42-.92-28.78-2.39-38.31-4.46-1.58-.34-3.16-.72-4.51-1a192.3,192.3,0,0,1-19.62-6c-4-1.47-7.26-2.79-9.24-3.64l-.53-.23,0,0-.18-.07h0l-.18-.08-.36-.16-.16-.07-.48-.2-.05,0s0,0-.08,0c-.55-.24-.89-.4-1.16-.53h0l-.73-.33-.12-.07h0l-.06,0,0,0,0-.1h.07c.17,0,17.34-.44,38.69-3.07,4.63-.57,8.81-1.14,12.79-1.71l.77-.11,3.18-.47c7.18-1.09,13.52-2.15,18.78-3l3.62-.63,6.57-1.12,6.71-1.11c7.09-1.15,15.55-2.88,24.47-5l.15,0,.15,0c2.75-.65,5.4-1.3,7.87-1.94l.35-.09c8.3-2.14,16.28-4.43,23.09-6.64,4.74-1.55,10.16-3.52,16.09-5.88,11-4.4,20-8.62,20.1-8.67h.06l68.2,23.1-.19.08-5.68,2.3-4,1.61c-13.13,5.28-44.65,17.85-53.66,20.45-11.69,3.36-50.88,9-66.67,10C147.94,151.57,129.36,151.3,110.87,150.12ZM36,133.45c.26.13.61.28,1.14.52a.18.18,0,0,1,.09,0h0l.5.22.16.07.35.15.18.08a.93.93,0,0,1,.2.09h0l.53.23c2,.85,5.19,2.17,9.24,3.64a190,190,0,0,0,19.59,6c1.36.33,2.93.7,4.52,1.05,21.73,4.71,68.68,6.33,83.89,5.35,15.78-1,54.95-6.68,66.63-10,9-2.6,40.52-15.16,53.65-20.45l4-1.61,5.5-2.22-2.63-.9L218.47,93.59c-.58.27-9.35,4.38-20.08,8.66-5.94,2.36-11.36,4.34-16.11,5.88-6.81,2.21-14.8,4.51-23.1,6.64l-.33.09c-2.49.64-5.14,1.29-7.89,2l-.15,0-.15,0c-8.92,2.11-17.39,3.83-24.48,5L119.47,123c-2.19.36-4.41.75-6.57,1.12l-3.62.62c-5.26.9-11.6,2-18.78,3-1,.17-2.09.32-3.19.48l-.76.11c-4,.57-8.17,1.13-12.8,1.71-19.82,2.44-36,3-38.4,3.06l.65.29S36,133.43,36,133.45ZM111.86,145c-13-.83-26.22-2.21-35.52-4.15l-.34-.07-.36-.08c-19.41-4.05-28.41-6.48-28.5-6.51l-.59-.16.62,0a339.91,339.91,0,0,0,38.65-2l1.85-.21c12.38-1.43,17.57-2.29,24.15-3.37l2.59-.43c2.57-.42,5.45-.88,9.12-1.44,15.87-2.39,39.47-9.59,53.58-13.9,6-1.83,14.14-4.49,23-7.5,10.64-3.6,19.74-6.82,19.83-6.85h0l4.44,1.55,49.53,17.21-.17.08-.61.28h0c-2.33,1.05-10.77,4.77-21.79,8.59-15.23,5.26-33.19,11-39,11.9-10.35,1.63-48.38,6.81-63.86,7.71C140.39,146.16,126.27,145.93,111.86,145Zm-64.09-10.8c2.28.6,11.27,2.88,27.91,6.36l.36.07.34.07c19.62,4.09,56.71,5.73,72.14,4.83s53.49-6.08,63.84-7.7c5.8-.92,23.75-6.64,39-11.9,11-3.82,19.46-7.54,21.78-8.59h0l.43-.19L220,98.53c-.54.19-9.44,3.33-19.81,6.84-8.86,3-17,5.67-23,7.51-14.11,4.3-37.72,11.5-53.61,13.9-3.66.56-6.54,1-9.11,1.44l-2.59.43c-6.58,1.08-11.77,1.94-24.16,3.37l-1.85.21A339.48,339.48,0,0,1,47.77,134.21Z"/>
  </g>
  <g class="cls-18">
    <path class="cls-19" d="M206.38,142.07a47,47,0,0,1-7.77,2.31,35.82,35.82,0,0,1-4,.69,17,17,0,0,1-4.1,0,1.58,1.58,0,0,1-1.35-1.78,1.62,1.62,0,0,1,.79-1.17,17.38,17.38,0,0,1,3.82-1.49,32.92,32.92,0,0,1,3.95-.81,46,46,0,0,1,8.07-.7,1.52,1.52,0,0,1,1.5,1.56A1.54,1.54,0,0,1,206.38,142.07Z"/>
  </g>
  <path class="cls-20" d="M150.68,116.06c-8.73,2.12-17.23,3.93-24.49,5.11-5.31.87-10.45,1.75-15.7,2.63-7.45,1.27-15.14,2.54-23.9,3.79a1.84,1.84,0,0,1,0-.33l0-.49v-.38c0-.25,0-.54,0-.74v-.06a4,4,0,0,1,.08-.52l.13-.46a1.5,1.5,0,0,1,.8-1,14,14,0,0,1,1.93-1,16.41,16.41,0,0,1,4.16-1.06c2.87-.38,5.73-.83,8.64-1.13,5.8-.62,11.75-.82,17.54-1.48,2.39-.25,4.74-.62,7.07-1.06,1.67-.3,3.34-.64,5-1l5-1,8.46-1.75,5-1.06a.25.25,0,0,0,0,.12,6,6,0,0,0,0,1.89v0A6.1,6.1,0,0,0,150.68,116.06Z"/>
  <g class="cls-21">
    <path class="cls-19" d="M124,123.15c-7.61.83-9.94-.44-9.94-.44s9-3,10.24-3.22h0l27.7-3.69-.28,0,51.56-12.67a.91.91,0,0,1,1.15.72,1.11,1.11,0,0,1-.81,1.2l-51.33,13.76"/>
  </g>
  <g>
    <path class="cls-12" d="M225.15,98.17a.8.8,0,0,0-.05-.26h0l-.09-.25L225,97.5a1.09,1.09,0,0,0-.08-.15,1.06,1.06,0,0,0-.2-.26,3,3,0,0,0-1.85-1,3.79,3.79,0,0,0-1.6.09q-8.34,2.32-16.74,4.43l-6.11,1.53-3.32.81-1.85.46-3.15.75-2.4.58-12.19,2.83-1.63.38c-1,.23-2,.45-3,.69l-.24,0-4.31,1c-1.68.38-3.34.76-5,1.11h0c-1.86.42-3.72.82-5.58,1.22l-10.21,2.17c-2.82.58-5.64,1.17-8.47,1.74-1.67.33-3.33.69-5,1s-3.33.69-5,1c0,0,0,.08-.12.14-1.2.9-11.92,4.17-16.35,5.73,5.25-.88,10.39-1.76,15.7-2.63,7.26-1.18,26.66-4.91,26.66-4.91l2.14-.54c1.27-.31,2.55-.63,3.83-.93l.35-.09,4.2-1h0l1.38-.33,2.08-.5h0l4.93-1.17h0l.69-.16,4.91-1.14,8.51-1.94a.8.8,0,0,1,.21-.05L188,108l.5-.12.12,0,.09,0,5.37-1.2,3.1-.66,3-.64c1.83-.4,3.67-.78,5.51-1.16,5.68-1.2,11.38-2.31,17.1-3.37a1.76,1.76,0,0,0,.33-.07,3.31,3.31,0,0,0,1.13-.55l.19-.16a1.75,1.75,0,0,0,.27-.28c.08-.09.12-.18.19-.27l.13-.24a1.63,1.63,0,0,0,.11-.31h0a1.76,1.76,0,0,0,.07-.4A.81.81,0,0,0,225.15,98.17Z"/>
    <path class="cls-13" d="M110.49,123.87l0-.14c1.41-.5,3.45-1.17,5.62-1.88,4.64-1.52,9.9-3.24,10.71-3.84a.36.36,0,0,0,.09-.08v-.06h0c1.48-.27,3.07-.59,5-1l1.9-.39c1-.21,2.06-.43,3.1-.63l8.46-1.75c1.65-.34,10.12-2.15,10.21-2.17,1.85-.39,3.73-.8,5.58-1.21h0l4.49-1,.51-.12,4.31-1,.12,0,.13,0,1.93-.44,1.1-.24L190,104.13l3.15-.75,1.85-.46,1.66-.41,1.66-.4c1.8-.44,3.62-.9,5.39-1.35l.71-.18c5.6-1.4,11.23-2.89,16.74-4.43a3.83,3.83,0,0,1,1.64-.09,3,3,0,0,1,1.89,1,1.05,1.05,0,0,1,.2.27.75.75,0,0,1,.09.15,1.12,1.12,0,0,1,0,.13l0,0,.09.25v0a.92.92,0,0,1,0,.25,1.8,1.8,0,0,1,0,.33,2.13,2.13,0,0,1-.08.41,1.51,1.51,0,0,1-.11.34l-.07.12-.07.12a.53.53,0,0,0-.06.1l-.13.18a2.57,2.57,0,0,1-.28.29l-.2.17a3.25,3.25,0,0,1-1.15.56,2.1,2.1,0,0,1-.24.06h-.1c-6.06,1.12-11.66,2.22-17.1,3.37-1.9.39-3.75.78-5.51,1.16l-1.49.32-1.5.32c-.91.19-1.9.4-3.1.67l-1.78.39-3.59.8h0l0,0h-.13l-.26.06L188,108c-.71.15-1.66.37-1.85.42a.53.53,0,0,0-.19,0c-2.72.62-5.62,1.27-8.53,2l-4.94,1.14c-.22,0-.44.11-.67.15h0l-2.82.67-2,.49h0l-.05,0-2.08.49-1.4.34-2.14.52-2,.49-.34.09c-.91.21-1.82.44-2.7.66l-1.14.28-2.13.53c-.2,0-19.5,3.75-26.67,4.91-3.79.62-7.57,1.26-11.22,1.88ZM127,118a.52.52,0,0,1-.13.13c-.83.62-6.1,2.34-10.75,3.87-1.77.57-3.46,1.13-4.79,1.58L115,123c3.65-.62,7.43-1.26,11.22-1.88,7.17-1.16,26.46-4.86,26.66-4.9l2.13-.54,1.13-.28,2.7-.65.35-.09,2.05-.5,2.15-.52h0l1.37-.34,2-.48.06,0,2.1-.5,2.83-.67h0l.64-.14h0l4.92-1.14,8.51-1.94a.71.71,0,0,1,.22,0l1.84-.42.23,0,.27-.06.09,0h.12l3.59-.8,1.78-.4,3.1-.67,1.5-.32,1.5-.31c1.75-.38,3.61-.77,5.5-1.16,5.45-1.15,11-2.25,17.1-3.37l.11,0,.22-.05a3.09,3.09,0,0,0,1.09-.54,1.57,1.57,0,0,0,.19-.15,1.73,1.73,0,0,0,.26-.28,1.67,1.67,0,0,0,.12-.16l.06-.1.07-.12a.41.41,0,0,0,.07-.11,1.66,1.66,0,0,0,.09-.29,2.36,2.36,0,0,0,.08-.4,1.5,1.5,0,0,0,0-.3h0a.93.93,0,0,0-.05-.24v0c0-.07-.05-.15-.08-.22l0,0a1.12,1.12,0,0,0-.05-.13l-.08-.13a1,1,0,0,0-.19-.26,2.94,2.94,0,0,0-1.81-.93,3.51,3.51,0,0,0-1.57.09c-5.52,1.54-11.15,3-16.74,4.43l-.71.18-5.4,1.34-1.66.41-1.66.41-1.85.45c-1.24.31-2.24.54-3.15.76l-2.4.57-13.82,3.22-1.1.24-1.94.44-.12,0-.12,0-4.31,1-.51.11c-1.48.33-3,.68-4.51,1h0c-1.84.41-3.72.82-5.58,1.21-.08,0-8.55,1.83-10.2,2.17L137,116l-3.09.62-1.9.4C130.05,117.42,128.48,117.73,127,118Z"/>
  </g>
  <path class="cls-12" d="M218.58,93.58l65.74,23c-9.18,3.82-50.55,21-60.94,24-11.86,3.41-51.51,8.65-66.93,9.64-2.87.19-6.85.28-11.52.28-19.21,0-54.3-1.74-72.19-5.61A190.4,190.4,0,0,1,38,133.6c5.81-.43,19.62-1.57,35.82-3.56,4.48-.56,8.67-1.12,12.83-1.71,8.33-1.19,15.59-2.37,23.92-3.79l4.48-.76c3.72-.63,7.43-1.25,11.22-1.87,6.91-1.12,15.39-2.89,24.54-5.12.55-.12,1.09-.26,1.64-.4l.82-.2c10-2.49,20.36-5.41,29.16-8.2,3.36-1.07,7.06-2.36,11-3.84,12.23-4.59,23.24-9.69,25.11-10.57m0-.81s-11.85,5.61-25.34,10.68c-3.6,1.35-7.32,2.66-11,3.82-8.81,2.8-19,5.68-29.12,8.19l-2.44.6c-8.73,2.12-17.23,3.93-24.49,5.11-5.31.87-10.45,1.75-15.7,2.63-7.45,1.27-15.14,2.54-23.9,3.79-4,.57-8.27,1.14-12.83,1.7-21.59,2.66-38.7,3.78-38.7,3.78a183.46,183.46,0,0,0,37.53,12.52c17.4,3.77,51.66,5.63,72.34,5.63,4.66,0,8.63-.09,11.57-.28,15.93-1,55.26-6.27,67.08-9.67s62.83-24.76,62.83-24.76L218.54,92.77Z"/>
  <path class="cls-10" d="M225.15,98.48a1.76,1.76,0,0,1-.07.4h0a1.63,1.63,0,0,1-.11.31l-.13.24c-.07.09-.11.18-.19.27a2.41,2.41,0,0,1-.46.44,3.31,3.31,0,0,1-1.13.55,1.76,1.76,0,0,1-.33.07c-5.72,1.06-11.42,2.17-17.1,3.37-2.83.59-5.67,1.19-8.5,1.8l-3.1.66-3,.68-2.37.53-.08,0-.12,0-.5.12-1.85.41a.8.8,0,0,0-.21.05l-8.51,1.94-4.92,1.15-.69.16-4.92,1.17h0l-2.08.5-1.38.33h0c-2.8.68-5.6,1.35-8.38,2l-2.14.53a.76.76,0,0,0,0-.11c.05-.14.09-.28.14-.43a9.83,9.83,0,0,1,.52-1.26c3.18-.7,6.38-1.42,10-2.25h0l3.16-.71,4.26-1,1.76-.41,5-1.19c1.86-.44,4.08-1,7.28-1.69,14.47-3.3,24.41-5.55,24.63-5.57,3.31-.2,5.59-1.07,9.91-2.87a8,8,0,0,0,3.14-2.53l.09-.11a3,3,0,0,1,1.85,1,1.06,1.06,0,0,1,.2.26,1.09,1.09,0,0,1,.08.15l.08.16a2.25,2.25,0,0,1,.08.24h0a1.17,1.17,0,0,1,0,.26A.81.81,0,0,1,225.15,98.48Z"/>
  <path class="cls-10" d="M151,116.73c-8.72,2.07-17.47,3.17-24.72,4.35l-6.72,1.11c.88-.27,1.81-.55,2.82-.84,2.76-.81,1.62-.38,22.76-5l5.36-1.18v0C150.51,115.5,150.85,116.44,151,116.73Z"/>
  <path class="cls-14" d="M151.9,116.49l-.94.25h0C151.27,116.64,151.58,116.56,151.9,116.49Z"/>
  <path class="cls-14" d="M205.1,136.31l-4,1.06a5.76,5.76,0,0,0-4.29-.61,8.24,8.24,0,0,0-4.53,2.38,7.34,7.34,0,0,0-.56.69.64.64,0,0,0-.1.13,1.1,1.1,0,0,0-.09.14,6,6,0,0,0-.66,1.19,5.48,5.48,0,0,0-.3.8,6.06,6.06,0,0,0-.22,1.33s0,.07,0,.11v.25a.24.24,0,0,1-.21.23.23.23,0,0,1-.14,0l-.15-.11-.08-.07-.1-.09h0a.6.6,0,0,1-.08-.08c-.13-.13-.25-.27-.38-.42a4.56,4.56,0,0,1-.37-.65.5.5,0,0,1-.08-.14,5.33,5.33,0,0,1-.38-1.5s0-.07,0-.11,0-.07,0-.11v-.15a7.57,7.57,0,0,1,1.12-3.95,10.36,10.36,0,0,1,6.88-4.74,10.85,10.85,0,0,1,2.14-.16,8.72,8.72,0,0,1,2.16.36,7,7,0,0,1,3.4,2.24A6.32,6.32,0,0,1,205.1,136.31Z"/>
  <path class="cls-14" d="M151.37,117.5a5.85,5.85,0,0,0,.54.69l.13.14a.16.16,0,0,0,.12.06.23.23,0,0,0,.25-.19c.11-.62.57-2.34.62-2.49a9.83,9.83,0,0,1,.52-1.26,7,7,0,0,1,.6-1,5.3,5.3,0,0,1,1.24-1.26l.23-.15h0l.26-.17-2,.44-3.42.73,0,.11a.25.25,0,0,0,0,.12,6,6,0,0,0,0,1.89v0a6.77,6.77,0,0,0,.5,1.56"/>
  <g>
    <path class="cls-20" d="M240.55,131.23l-.34.08q-8.51,1.81-17,3.86c-5.63,1.35-11.26,2.72-16.86,4.16q-16.8,4.28-33.47,8.93-8.34,2.31-16.66,4.71c-3,.88-6,1.7-9,2.61-2.55.77-5.06,1.6-7.52,2.58-5.36,2.08-10.56,4.62-15.9,6.74-2.68,1.08-5.4,2-8.1,3a16.54,16.54,0,0,1-4.23,1,19.06,19.06,0,0,1-2.28.06,2.08,2.08,0,0,1-1.31-.45l-.4-.34a6.16,6.16,0,0,1-.45-.44c-.15-.16-.34-.41-.51-.61l-.26-.32-.29-.41a8.93,8.93,0,0,1-1.64-4.49l0-.49V161c0-.25,0-.55,0-.75v-.06a3.85,3.85,0,0,1,.07-.52l.11-.47a1.53,1.53,0,0,1,.79-1,13.64,13.64,0,0,1,1.91-1,16.51,16.51,0,0,1,4.16-1.18c2.89-.48,5.76-1,8.68-1.4,5.83-.8,11.8-1.19,17.62-2,2.39-.32,4.74-.77,7.07-1.28,3.35-.71,6.66-1.55,10-2.3,5.64-1.34,11.27-2.68,16.89-4.06q16.86-4.14,33.59-8.61,8.37-2.24,16.69-4.61t16.58-4.91a3.62,3.62,0,0,1,1.59-.14,2.72,2.72,0,0,1,2.24,1.46C243,129.35,242.12,130.73,240.55,131.23Z"/>
    <path class="cls-22" d="M240.55,131.23l-.34.08q-8.52,1.83-17,3.86c-5.62,1.34-11.25,2.72-16.85,4.16q-8.06,2.05-16.09,4.19l-.68.18h0q-8.37,2.25-16.69,4.55T156.27,153c-3,.88-6,1.7-9,2.61-1-.4-9.76,1.32-15.58,2.33h0c-2.87.49-5,.82-5.15.64-.3-.4,18.26-6.44,18.29-7.25,3.35-.72,6.66-1.54,10-2.31,5.64-1.33,11.27-2.66,16.89-4.05s11.08-2.74,16.6-4.15l3.26-.84c3.21-.84,6.42-1.67,9.61-2.52.08,0,.15.1.23.15a7.07,7.07,0,0,1,1.36,1.26l1.71-.45,1-.25a6.29,6.29,0,0,0-.33-1.76l.18,0c5.58-1.48,11.14-3,16.69-4.61s11.08-3.2,16.58-4.91a3.78,3.78,0,0,1,1.59-.14,2.74,2.74,0,0,1,2.24,1.46C243,129.35,242.11,130.73,240.55,131.23Z"/>
    <g class="cls-23">
      <path d="M203.13,139.28a6,6,0,0,1,.53.75c-4.46,1.15-8.91,2.3-13.35,3.49l-.69.18q-8.37,2.25-16.69,4.55T156.27,153c-3,.88-6,1.7-9,2.61-2.54.76-5.05,1.59-7.51,2.57-5.36,2.1-10.56,4.62-15.91,6.75-2.67,1.08-5.39,2-8.09,3a16.65,16.65,0,0,1-4.23,1,19.1,19.1,0,0,1-2.28,0,2,2,0,0,1-1.31-.44l-.41-.34c-.13-.11-.3-.3-.44-.44s-.34-.41-.51-.61l-.26-.32-.29-.42a8.77,8.77,0,0,1-1.64-4.48l0-.49V161c0-.25,0-.55,0-.75v-.05l.72.31c4.69,1.88,9.52,1.38,13.81.88,5.46-.63,8.2-1.76,12.74-3.5h0c2.24-.85,4.91-1.86,8.55-3,2.76-.89,1.63-.44,22.72-5.74,6.31-1.58,11.66-2.92,18.4-4.67,3.24-.83,5.51-1.42,7.38-1.92l1.75-.46c3.39-.91,5.9-1.59,12.25-3.24Z"/>
    </g>
    <g class="cls-23">
      <path d="M240.55,131.23l-.34.08q-8.52,1.83-17,3.86c-5.62,1.34-11.25,2.72-16.85,4.16l-1.05.28a7.24,7.24,0,0,0,.11-1.46c14.35-3.71,21.54-5.57,21.76-5.6,3.29-.29,5.54-1.22,9.8-3.15a8.1,8.1,0,0,0,3.15-2.72,2.74,2.74,0,0,1,2.24,1.46C243,129.35,242.11,130.73,240.55,131.23Z"/>
    </g>
    <path class="cls-13" d="M242.52,128.08a2.85,2.85,0,0,0-2.33-1.51,3.79,3.79,0,0,0-1.63.14c-5.31,1.66-10.88,3.31-16.58,4.91-6.1,1.74-11.56,3.25-16.68,4.62a1.17,1.17,0,0,0-.2.06l0,.09-3.94,1.05-.12-.07-9.38,2.45-3.39.86c-5.42,1.4-11,2.79-16.59,4.16s-10.91,2.64-16.89,4.06l-3.91.92c-2,.47-4,1-6.08,1.38-2.69.59-4.93,1-7.06,1.28-3,.44-6.15.75-9.16,1.06-2.78.29-5.66.58-8.46,1-2.12.28-4.23.64-6.29,1l-2.39.41a16.56,16.56,0,0,0-4.19,1.19,16.33,16.33,0,0,0-1.93,1,1.76,1.76,0,0,0-.85,1.08l-.11.48a2.25,2.25,0,0,0-.06.4l0,.19c0,.13,0,.29,0,.46v.68l0,.49a9.06,9.06,0,0,0,1.67,4.55l.29.42.26.32.18.2a3.91,3.91,0,0,0,.33.41l.15.14c.11.11.21.23.31.31l.42.33a2.08,2.08,0,0,0,1.16.47h.2a19.17,19.17,0,0,0,2.29-.05,16.57,16.57,0,0,0,4.26-1l2.19-.79c2-.69,4-1.41,5.91-2.2,2.55-1,5.1-2.14,7.58-3.22,2.71-1.19,5.52-2.42,8.32-3.53,2.15-.85,4.54-1.67,7.51-2.57,1.83-.56,3.71-1.09,5.52-1.61l3.43-1c6.7-1.93,11.84-3.38,16.66-4.72,5.77-1.6,11.34-3.12,16.77-4.57l.59-.16c5.48-1.46,10.82-2.85,16.11-4.2,6.18-1.59,12.25-3.05,16.85-4.15,5.53-1.34,11.25-2.64,17-3.86l.33-.09a3.1,3.1,0,0,0,1.89-1.5A2.07,2.07,0,0,0,242.52,128.08Zm-.26,1.67a2.87,2.87,0,0,1-1.74,1.38,3,3,0,0,0-.32.08c-5.72,1.21-11.42,2.51-17,3.86-4.6,1.09-10.67,2.56-16.85,4.15-5.28,1.34-10.61,2.73-16.07,4.19l-.79.2c-5.38,1.44-10.91,2.95-16.63,4.54-4.81,1.33-10,2.79-16.65,4.72-1.14.34-2.29.66-3.44,1-1.81.52-3.68,1-5.52,1.62-3,.9-5.37,1.71-7.52,2.57-2.81,1.1-5.61,2.33-8.34,3.53-2.46,1.09-5,2.21-7.57,3.22-1.94.78-4,1.5-5.9,2.2l-2.18.79a16.59,16.59,0,0,1-4.2,1,18.9,18.9,0,0,1-2.28.05,2,2,0,0,1-1.24-.42l-.41-.34a3.94,3.94,0,0,1-.29-.29,1.06,1.06,0,0,1-.15-.15,4.75,4.75,0,0,1-.33-.38l-.17-.21-.25-.32-.3-.41a8.87,8.87,0,0,1-1.62-4.45l0-.47V161c0-.09,0-.2,0-.31a2.94,2.94,0,0,1,0-.43l0-.19c0-.14,0-.28,0-.37l.12-.46a1.39,1.39,0,0,1,.73-.93,12.29,12.29,0,0,1,1.91-1,16.4,16.4,0,0,1,4.12-1.18l2.41-.4c2-.35,4.16-.71,6.26-1,2.8-.38,5.68-.67,8.47-1,3-.31,6.13-.62,9.15-1.06,2.15-.29,4.4-.7,7.08-1.27,2-.45,4.1-.93,6.08-1.4l3.92-.92c6-1.42,11.37-2.69,16.89-4.05s11.16-2.77,16.59-4.15l3.16-.82q7.08-1.82,13.84-3.64c5.13-1.37,10.59-2.88,16.69-4.62,5.7-1.6,11.27-3.25,16.58-4.9a3.35,3.35,0,0,1,1.29-.16l.26,0a2.66,2.66,0,0,1,2.16,1.4A1.82,1.82,0,0,1,242.26,129.75Z"/>
  </g>
  <g>
    <path class="cls-20" d="M240.5,131.15l-.33.08q-8.52,1.82-17,3.86c-5.63,1.35-11.25,2.72-16.85,4.16q-16.81,4.27-33.48,8.93-8.34,2.31-16.65,4.71c-3,.88-6,1.7-9,2.61-2.54.77-5.06,1.6-7.51,2.58-5.36,2.08-10.56,4.62-15.91,6.74-2.67,1.08-5.39,2-8.09,3a16.75,16.75,0,0,1-4.23,1,19.12,19.12,0,0,1-2.28.06,2.08,2.08,0,0,1-1.31-.45l-.41-.34c-.13-.11-.3-.3-.45-.44s-.33-.41-.5-.61l-.26-.32-.29-.41a8.86,8.86,0,0,1-1.65-4.49l0-.49V161c0-.25,0-.55,0-.75v-.06a3.92,3.92,0,0,1,.06-.52l.12-.47a1.55,1.55,0,0,1,.78-1,13.75,13.75,0,0,1,1.92-1,16.28,16.28,0,0,1,4.16-1.18c2.88-.48,5.75-1,8.67-1.4,5.84-.8,11.81-1.19,17.63-2,2.39-.32,4.74-.77,7.07-1.28,3.35-.71,6.65-1.55,10-2.3,5.64-1.34,11.26-2.68,16.89-4.06q16.86-4.14,33.59-8.61,8.37-2.23,16.69-4.61t16.58-4.91a3.72,3.72,0,0,1,1.58-.14,2.7,2.7,0,0,1,2.24,1.46C242.91,129.27,242.07,130.65,240.5,131.15Z"/>
    <path class="cls-24" d="M205.1,136.31l.17-.05c5.59-1.48,11.15-3,16.69-4.61s11.08-3.2,16.58-4.91a3.78,3.78,0,0,1,1.59-.14,2.74,2.74,0,0,1,2.24,1.46c.55,1.21-.29,2.6-1.86,3.09l-.33.08q-8.52,1.83-17,3.86t-16.86,4.16q-8.06,2.06-16.09,4.19l-.68.18h0q-8.36,2.25-16.69,4.55t-16.66,4.72c-3,.88-6,1.7-8.95,2.61-1-.4-9.77,1.32-15.59,2.33h0c-2.87.49-5,.82-5.15.64-.3-.4,18.26-6.44,18.29-7.24,3.35-.73,6.66-1.55,10-2.32,5.63-1.33,11.26-2.66,16.88-4s11.08-2.74,16.6-4.15l3.27-.84c3.2-.83,6.41-1.67,9.6-2.52"/>
    <g class="cls-23">
      <path d="M203.09,139.2c.19.25.37.49.53.75-4.46,1.15-8.92,2.3-13.36,3.49l-.69.18q-8.35,2.25-16.69,4.55t-16.65,4.72c-3,.88-6,1.7-9,2.61-2.54.76-5.06,1.59-7.52,2.57-5.36,2.1-10.56,4.63-15.9,6.75-2.68,1.08-5.4,2-8.1,3a16.57,16.57,0,0,1-4.22,1,19.14,19.14,0,0,1-2.28.05,2,2,0,0,1-1.31-.44l-.41-.34c-.13-.11-.3-.3-.45-.44s-.33-.41-.5-.61l-.26-.32-.29-.42a8.79,8.79,0,0,1-1.65-4.48l0-.49V161c0-.25,0-.55,0-.75v0l.72.31c4.69,1.88,9.52,1.38,13.82.88,5.45-.63,8.19-1.76,12.73-3.5h0c2.23-.85,4.91-1.86,8.55-3,2.75-.89,1.63-.44,22.71-5.74,6.31-1.58,11.66-2.92,18.41-4.67,3.24-.83,5.51-1.42,7.38-1.92l1.75-.46c3.39-.91,5.9-1.59,12.25-3.24Z"/>
    </g>
    <g class="cls-23">
      <path d="M240.5,131.15l-.33.08q-8.52,1.83-17,3.86t-16.86,4.16c-.34.09-.82.2-1.16.3a7.2,7.2,0,0,0,.06-1.46c14.35-3.72,21.71-5.59,21.93-5.62,3.29-.29,5.54-1.22,9.8-3.15a8,8,0,0,0,3.14-2.72,2.72,2.72,0,0,1,2.24,1.46C242.91,129.27,242.07,130.65,240.5,131.15Z"/>
    </g>
    <path class="cls-25" d="M201,137.29c-3.08.81-6.2,1.63-9.38,2.45l-3.38.86q-8.14,2.1-16.6,4.16c-5.51,1.36-10.9,2.64-16.89,4.06l-3.91.92c-2,.47-4,.95-6.08,1.38-2.68.59-4.92,1-7.06,1.28-3,.44-6.14.75-9.15,1.06-2.79.29-5.67.58-8.47,1-2.11.28-4.23.64-6.28,1l-2.4.41a16.56,16.56,0,0,0-4.19,1.19,15.46,15.46,0,0,0-1.92,1,1.73,1.73,0,0,0-.85,1.08l-.12.48a2.3,2.3,0,0,0,0,.4l0,.19c0,.13,0,.29,0,.46s0,.2,0,.29v.39l0,.49a9,9,0,0,0,1.66,4.55l.3.42.26.32c.05.06.11.14.17.2a3.89,3.89,0,0,0,.34.41,1.85,1.85,0,0,0,.14.14c.12.11.22.23.32.31l.41.33A2.11,2.11,0,0,0,109,169a.67.67,0,0,0,.2,0,19.22,19.22,0,0,0,2.29,0,16.57,16.57,0,0,0,4.26-1l2.18-.79c2-.69,4-1.41,5.91-2.2,2.56-1,5.11-2.14,7.58-3.22,2.72-1.19,5.53-2.42,8.33-3.52,2.14-.85,4.54-1.68,7.5-2.58,1.83-.56,3.71-1.09,5.53-1.61l3.43-1c6.7-1.93,11.83-3.38,16.65-4.72,5.78-1.6,11.34-3.12,16.78-4.57l.59-.16c5.47-1.46,10.82-2.85,16.11-4.2,6.18-1.59,12.25-3,16.84-4.15,5.54-1.34,11.25-2.64,17-3.86l.33-.09a3.15,3.15,0,0,0,1.89-1.5,2.06,2.06,0,0,0,.05-1.75,2.85,2.85,0,0,0-2.32-1.51,3.83,3.83,0,0,0-1.64.14c-5.31,1.66-10.87,3.31-16.58,4.91-6.09,1.74-11.56,3.25-16.68,4.62l-.2.06m37.17-6.55a2.9,2.9,0,0,1-1.74,1.38l-.33.08c-5.71,1.21-11.41,2.51-17,3.86-4.61,1.09-10.68,2.56-16.86,4.15-5.28,1.34-10.6,2.73-16.07,4.19l-.78.2c-5.39,1.44-10.91,2.95-16.63,4.54-4.81,1.33-10,2.79-16.66,4.72-1.14.34-2.28.66-3.43,1-1.81.52-3.68,1.05-5.52,1.62-3,.9-5.37,1.71-7.53,2.57-2.81,1.1-5.61,2.33-8.33,3.53-2.47,1.09-5,2.21-7.57,3.22-1.95.78-4,1.5-5.9,2.2l-2.19.79a16.49,16.49,0,0,1-4.2,1,16.94,16.94,0,0,1-2.27,0,2,2,0,0,1-1.25-.42l-.41-.34-.29-.29-.15-.15a4.84,4.84,0,0,1-.32-.38l-.17-.21-.26-.32-.29-.41a8.77,8.77,0,0,1-1.62-4.45l0-.47v-.68c0-.16,0-.33,0-.44l0-.19a2.78,2.78,0,0,1,0-.37l.11-.46a1.43,1.43,0,0,1,.74-.93,11.76,11.76,0,0,1,1.9-1,16.48,16.48,0,0,1,4.13-1.18l2.4-.4c2-.35,4.16-.71,6.26-1,2.81-.38,5.68-.67,8.47-1,3-.31,6.13-.62,9.16-1.06,2.14-.29,4.4-.7,7.08-1.27,2-.45,4.09-.93,6.08-1.4l3.92-.92c6-1.42,11.37-2.69,16.89-4.05s11.16-2.77,16.58-4.15l3.17-.82c4.71-1.21,9.34-2.42,13.84-3.64,5.13-1.37,10.58-2.88,16.69-4.62,5.69-1.6,11.27-3.25,16.58-4.9a3.35,3.35,0,0,1,1.29-.16l.25,0a2.65,2.65,0,0,1,2.16,1.4A1.85,1.85,0,0,1,242.22,129.67Z"/>
  </g>
  <path class="cls-14" d="M205.31,138a6.55,6.55,0,0,0-.24-1.82l-4.14,1.08a2.79,2.79,0,0,1,.34.18,6.72,6.72,0,0,1,1.36,1.25c.12.14.24.29.35.44a6.73,6.73,0,0,1,.53.75,10.58,10.58,0,0,1,.76,1.35.19.19,0,0,0,.12.1.22.22,0,0,0,.28-.14l.07-.19a8.28,8.28,0,0,0,.46-1.55A7.19,7.19,0,0,0,205.31,138Z"/>
</svg>
