<svg id="Слой_1" data-name="Слой 1" xmlns="http://www.w3.org/2000/svg" viewBox="0 0 96 100">
    <defs>
        <style>

            .cls-2,
            .cls-3 {
                fill: none;
                stroke: #734607;
                stroke-miterlimit: 10;
            }

            .cls-2 {
                stroke-linecap: round;
                stroke-width: 4.05px;
            }

            .cls-3 {
                stroke-width: 0.75px;
            }
        </style>
    </defs>
    <title>borderheaderbottom</title>
    <g>
        <g>
            <g>
                <line class="cls-1" x1="75.57" y1="75.03" x2="96.15" y2="57.7"/>
                <line class="cls-1" x1="48.35" y1="52.58" x2="75.57" y2="75.03"/>
                <line class="cls-1" x1="69.69" y1="57.62" x2="48.35" y2="75.03"/>
                <g>
                    <line class="cls-1" x1="62.61" y1="75.03" x2="76.29" y2="63.27"/>
                    <line class="cls-1" x1="51.37" y1="61.4" x2="59.69" y2="54.78"/>
                    <line class="cls-1" x1="88.59" y1="75.03" x2="82.38" y2="69.49"/>
                </g>
                <g>
                    <line class="cls-1" x1="96.15" y1="69.76" x2="75.57" y2="52.58"/>
                    <line class="cls-1" x1="81.89" y1="57.46" x2="86.91" y2="53.31"/>
                </g>
            </g>
            <g>
                <line class="cls-2" x1="75.57" y1="75.03" x2="96.15" y2="57.7"/>
                <line class="cls-2" x1="48.35" y1="52.58" x2="75.57" y2="75.03"/>
                <line class="cls-2" x1="69.69" y1="57.62" x2="48.35" y2="75.03"/>
                <g>
                    <line class="cls-2" x1="62.61" y1="75.03" x2="76.29" y2="63.27"/>
                    <line class="cls-2" x1="51.37" y1="61.4" x2="59.69" y2="54.78"/>
                    <line class="cls-2" x1="88.59" y1="75.03" x2="82.38" y2="69.49"/>
                </g>
                <g>
                    <line class="cls-2" x1="96.15" y1="69.76" x2="75.57" y2="52.58"/>
                    <line class="cls-2" x1="81.89" y1="57.46" x2="86.91" y2="53.31"/>
                </g>
            </g>
            <g>
                <line class="cls-3" x1="75.57" y1="75.03" x2="96.15" y2="57.7"/>
                <line class="cls-3" x1="48.35" y1="52.58" x2="75.57" y2="75.03"/>
                <line class="cls-3" x1="69.69" y1="57.62" x2="48.35" y2="75.03"/>
                <g>
                    <line class="cls-3" x1="62.61" y1="75.03" x2="76.29" y2="63.27"/>
                    <line class="cls-3" x1="51.37" y1="61.4" x2="59.69" y2="54.78"/>
                    <line class="cls-3" x1="88.59" y1="75.03" x2="82.38" y2="69.49"/>
                </g>
                <g>
                    <line class="cls-3" x1="96.15" y1="69.76" x2="75.57" y2="52.58"/>
                    <line class="cls-3" x1="81.89" y1="57.46" x2="86.91" y2="53.31"/>
                </g>
            </g>
        </g>
        <g>
            <g>
                <line class="cls-1" x1="75.57" y1="75.03" x2="96.15" y2="57.7"/>
                <line class="cls-1" x1="48.35" y1="52.58" x2="75.57" y2="75.03"/>
                <line class="cls-1" x1="69.69" y1="57.62" x2="48.35" y2="75.03"/>
                <g>
                    <line class="cls-1" x1="62.61" y1="75.03" x2="76.29" y2="63.27"/>
                    <line class="cls-1" x1="51.37" y1="61.4" x2="59.69" y2="54.78"/>
                    <line class="cls-1" x1="88.59" y1="75.03" x2="82.38" y2="69.49"/>
                </g>
                <g>
                    <line class="cls-1" x1="96.15" y1="69.76" x2="75.57" y2="52.58"/>
                    <line class="cls-1" x1="81.89" y1="57.46" x2="86.91" y2="53.31"/>
                </g>
            </g>
            <g>
                <line class="cls-2" x1="75.57" y1="75.03" x2="96.15" y2="57.7"/>
                <line class="cls-2" x1="48.35" y1="52.58" x2="75.57" y2="75.03"/>
                <line class="cls-2" x1="69.69" y1="57.62" x2="48.35" y2="75.03"/>
                <g>
                    <line class="cls-2" x1="62.61" y1="75.03" x2="76.29" y2="63.27"/>
                    <line class="cls-2" x1="51.37" y1="61.4" x2="59.69" y2="54.78"/>
                    <line class="cls-2" x1="88.59" y1="75.03" x2="82.38" y2="69.49"/>
                </g>
                <g>
                    <line class="cls-2" x1="96.15" y1="69.76" x2="75.57" y2="52.58"/>
                    <line class="cls-2" x1="81.89" y1="57.46" x2="86.91" y2="53.31"/>
                </g>
            </g>
            <g>
                <line class="cls-3" x1="75.57" y1="75.03" x2="96.15" y2="57.7"/>
                <line class="cls-3" x1="48.35" y1="52.58" x2="75.57" y2="75.03"/>
                <line class="cls-3" x1="69.69" y1="57.62" x2="48.35" y2="75.03"/>
                <g>
                    <line class="cls-3" x1="62.61" y1="75.03" x2="76.29" y2="63.27"/>
                    <line class="cls-3" x1="51.37" y1="61.4" x2="59.69" y2="54.78"/>
                    <line class="cls-3" x1="88.59" y1="75.03" x2="82.38" y2="69.49"/>
                </g>
                <g>
                    <line class="cls-3" x1="96.15" y1="69.76" x2="75.57" y2="52.58"/>
                    <line class="cls-3" x1="81.89" y1="57.46" x2="86.91" y2="53.31"/>
                </g>
            </g>
        </g>
        <g>
            <g>
                <line class="cls-1" x1="75.57" y1="75.03" x2="96.15" y2="92.36"/>
                <line class="cls-1" x1="48.35" y1="97.48" x2="75.57" y2="75.03"/>
                <line class="cls-1" x1="69.69" y1="92.44" x2="48.35" y2="75.03"/>
                <g>
                    <line class="cls-1" x1="62.61" y1="75.03" x2="76.29" y2="86.78"/>
                    <line class="cls-1" x1="51.37" y1="88.66" x2="59.69" y2="95.28"/>
                    <line class="cls-1" x1="88.59" y1="75.03" x2="82.38" y2="80.57"/>
                </g>
                <g>
                    <line class="cls-1" x1="96.15" y1="80.3" x2="75.57" y2="97.48"/>
                    <line class="cls-1" x1="81.89" y1="92.6" x2="86.91" y2="96.75"/>
                </g>
            </g>
            <g>
                <line class="cls-2" x1="75.57" y1="75.03" x2="96.15" y2="92.36"/>
                <line class="cls-2" x1="48.35" y1="97.48" x2="75.57" y2="75.03"/>
                <line class="cls-2" x1="69.69" y1="92.44" x2="48.35" y2="75.03"/>
                <g>
                    <line class="cls-2" x1="62.61" y1="75.03" x2="76.29" y2="86.78"/>
                    <line class="cls-2" x1="51.37" y1="88.66" x2="59.69" y2="95.28"/>
                    <line class="cls-2" x1="88.59" y1="75.03" x2="82.38" y2="80.57"/>
                </g>
                <g>
                    <line class="cls-2" x1="96.15" y1="80.3" x2="75.57" y2="97.48"/>
                    <line class="cls-2" x1="81.89" y1="92.6" x2="86.91" y2="96.75"/>
                </g>
            </g>
            <g>
                <line class="cls-3" x1="75.57" y1="75.03" x2="96.15" y2="92.36"/>
                <line class="cls-3" x1="48.35" y1="97.48" x2="75.57" y2="75.03"/>
                <line class="cls-3" x1="69.69" y1="92.44" x2="48.35" y2="75.03"/>
                <g>
                    <line class="cls-3" x1="62.61" y1="75.03" x2="76.29" y2="86.78"/>
                    <line class="cls-3" x1="51.37" y1="88.66" x2="59.69" y2="95.28"/>
                    <line class="cls-3" x1="88.59" y1="75.03" x2="82.38" y2="80.57"/>
                </g>
                <g>
                    <line class="cls-3" x1="96.15" y1="80.3" x2="75.57" y2="97.48"/>
                    <line class="cls-3" x1="81.89" y1="92.6" x2="86.91" y2="96.75"/>
                </g>
            </g>
        </g>
        <g>
            <g>
                <line class="cls-1" x1="75.57" y1="75.03" x2="96.15" y2="92.36"/>
                <line class="cls-1" x1="48.35" y1="97.48" x2="75.57" y2="75.03"/>
                <line class="cls-1" x1="69.69" y1="92.44" x2="48.35" y2="75.03"/>
                <g>
                    <line class="cls-1" x1="62.61" y1="75.03" x2="76.29" y2="86.78"/>
                    <line class="cls-1" x1="51.37" y1="88.66" x2="59.69" y2="95.28"/>
                    <line class="cls-1" x1="88.59" y1="75.03" x2="82.38" y2="80.57"/>
                </g>
                <g>
                    <line class="cls-1" x1="96.15" y1="80.3" x2="75.57" y2="97.48"/>
                    <line class="cls-1" x1="81.89" y1="92.6" x2="86.91" y2="96.75"/>
                </g>
            </g>
            <g>
                <line class="cls-2" x1="75.57" y1="75.03" x2="96.15" y2="92.36"/>
                <line class="cls-2" x1="48.35" y1="97.48" x2="75.57" y2="75.03"/>
                <line class="cls-2" x1="69.69" y1="92.44" x2="48.35" y2="75.03"/>
                <g>
                    <line class="cls-2" x1="62.61" y1="75.03" x2="76.29" y2="86.78"/>
                    <line class="cls-2" x1="51.37" y1="88.66" x2="59.69" y2="95.28"/>
                    <line class="cls-2" x1="88.59" y1="75.03" x2="82.38" y2="80.57"/>
                </g>
                <g>
                    <line class="cls-2" x1="96.15" y1="80.3" x2="75.57" y2="97.48"/>
                    <line class="cls-2" x1="81.89" y1="92.6" x2="86.91" y2="96.75"/>
                </g>
            </g>
            <g>
                <line class="cls-3" x1="75.57" y1="75.03" x2="96.15" y2="92.36"/>
                <line class="cls-3" x1="48.35" y1="97.48" x2="75.57" y2="75.03"/>
                <line class="cls-3" x1="69.69" y1="92.44" x2="48.35" y2="75.03"/>
                <g>
                    <line class="cls-3" x1="62.61" y1="75.03" x2="76.29" y2="86.78"/>
                    <line class="cls-3" x1="51.37" y1="88.66" x2="59.69" y2="95.28"/>
                    <line class="cls-3" x1="88.59" y1="75.03" x2="82.38" y2="80.57"/>
                </g>
                <g>
                    <line class="cls-3" x1="96.15" y1="80.3" x2="75.57" y2="97.48"/>
                    <line class="cls-3" x1="81.89" y1="92.6" x2="86.91" y2="96.75"/>
                </g>
            </g>
        </g>
        <g>
            <g>
                <line class="cls-1" x1="21.13" y1="75.03" x2="0.55" y2="57.7"/>
                <line class="cls-1" x1="48.35" y1="52.58" x2="21.13" y2="75.03"/>
                <line class="cls-1" x1="27.01" y1="57.62" x2="48.35" y2="75.03"/>
                <g>
                    <line class="cls-1" x1="34.09" y1="75.03" x2="20.41" y2="63.27"/>
                    <line class="cls-1" x1="45.33" y1="61.4" x2="37.01" y2="54.78"/>
                    <line class="cls-1" x1="8.11" y1="75.03" x2="14.32" y2="69.49"/>
                </g>
                <g>
                    <line class="cls-1" x1="0.55" y1="69.76" x2="21.13" y2="52.58"/>
                    <line class="cls-1" x1="14.81" y1="57.46" x2="9.79" y2="53.31"/>
                </g>
            </g>
            <g>
                <line class="cls-2" x1="21.13" y1="75.03" x2="0.55" y2="57.7"/>
                <line class="cls-2" x1="48.35" y1="52.58" x2="21.13" y2="75.03"/>
                <line class="cls-2" x1="27.01" y1="57.62" x2="48.35" y2="75.03"/>
                <g>
                    <line class="cls-2" x1="34.09" y1="75.03" x2="20.41" y2="63.27"/>
                    <line class="cls-2" x1="45.33" y1="61.4" x2="37.01" y2="54.78"/>
                    <line class="cls-2" x1="8.11" y1="75.03" x2="14.32" y2="69.49"/>
                </g>
                <g>
                    <line class="cls-2" x1="0.55" y1="69.76" x2="21.13" y2="52.58"/>
                    <line class="cls-2" x1="14.81" y1="57.46" x2="9.79" y2="53.31"/>
                </g>
            </g>
            <g>
                <line class="cls-3" x1="21.13" y1="75.03" x2="0.55" y2="57.7"/>
                <line class="cls-3" x1="48.35" y1="52.58" x2="21.13" y2="75.03"/>
                <line class="cls-3" x1="27.01" y1="57.62" x2="48.35" y2="75.03"/>
                <g>
                    <line class="cls-3" x1="34.09" y1="75.03" x2="20.41" y2="63.27"/>
                    <line class="cls-3" x1="45.33" y1="61.4" x2="37.01" y2="54.78"/>
                    <line class="cls-3" x1="8.11" y1="75.03" x2="14.32" y2="69.49"/>
                </g>
                <g>
                    <line class="cls-3" x1="0.55" y1="69.76" x2="21.13" y2="52.58"/>
                    <line class="cls-3" x1="14.81" y1="57.46" x2="9.79" y2="53.31"/>
                </g>
            </g>
        </g>
        <g>
            <g>
                <line class="cls-1" x1="21.13" y1="75.03" x2="0.55" y2="57.7"/>
                <line class="cls-1" x1="48.35" y1="52.58" x2="21.13" y2="75.03"/>
                <line class="cls-1" x1="27.01" y1="57.62" x2="48.35" y2="75.03"/>
                <g>
                    <line class="cls-1" x1="34.09" y1="75.03" x2="20.41" y2="63.27"/>
                    <line class="cls-1" x1="45.33" y1="61.4" x2="37.01" y2="54.78"/>
                    <line class="cls-1" x1="8.11" y1="75.03" x2="14.32" y2="69.49"/>
                </g>
                <g>
                    <line class="cls-1" x1="0.55" y1="69.76" x2="21.13" y2="52.58"/>
                    <line class="cls-1" x1="14.81" y1="57.46" x2="9.79" y2="53.31"/>
                </g>
            </g>
            <g>
                <line class="cls-2" x1="21.13" y1="75.03" x2="0.55" y2="57.7"/>
                <line class="cls-2" x1="48.35" y1="52.58" x2="21.13" y2="75.03"/>
                <line class="cls-2" x1="27.01" y1="57.62" x2="48.35" y2="75.03"/>
                <g>
                    <line class="cls-2" x1="34.09" y1="75.03" x2="20.41" y2="63.27"/>
                    <line class="cls-2" x1="45.33" y1="61.4" x2="37.01" y2="54.78"/>
                    <line class="cls-2" x1="8.11" y1="75.03" x2="14.32" y2="69.49"/>
                </g>
                <g>
                    <line class="cls-2" x1="0.55" y1="69.76" x2="21.13" y2="52.58"/>
                    <line class="cls-2" x1="14.81" y1="57.46" x2="9.79" y2="53.31"/>
                </g>
            </g>
            <g>
                <line class="cls-3" x1="21.13" y1="75.03" x2="0.55" y2="57.7"/>
                <line class="cls-3" x1="48.35" y1="52.58" x2="21.13" y2="75.03"/>
                <line class="cls-3" x1="27.01" y1="57.62" x2="48.35" y2="75.03"/>
                <g>
                    <line class="cls-3" x1="34.09" y1="75.03" x2="20.41" y2="63.27"/>
                    <line class="cls-3" x1="45.33" y1="61.4" x2="37.01" y2="54.78"/>
                    <line class="cls-3" x1="8.11" y1="75.03" x2="14.32" y2="69.49"/>
                </g>
                <g>
                    <line class="cls-3" x1="0.55" y1="69.76" x2="21.13" y2="52.58"/>
                    <line class="cls-3" x1="14.81" y1="57.46" x2="9.79" y2="53.31"/>
                </g>
            </g>
        </g>
        <g>
            <g>
                <line class="cls-1" x1="21.13" y1="75.03" x2="0.55" y2="92.36"/>
                <line class="cls-1" x1="48.35" y1="97.48" x2="21.13" y2="75.03"/>
                <line class="cls-1" x1="27.01" y1="92.44" x2="48.35" y2="75.03"/>
                <g>
                    <line class="cls-1" x1="34.09" y1="75.03" x2="20.41" y2="86.78"/>
                    <line class="cls-1" x1="45.33" y1="88.66" x2="37.01" y2="95.28"/>
                    <line class="cls-1" x1="8.11" y1="75.03" x2="14.32" y2="80.57"/>
                </g>
                <g>
                    <line class="cls-1" x1="0.55" y1="80.3" x2="21.13" y2="97.48"/>
                    <line class="cls-1" x1="14.81" y1="92.6" x2="9.79" y2="96.75"/>
                </g>
            </g>
            <g>
                <line class="cls-2" x1="21.13" y1="75.03" x2="0.55" y2="92.36"/>
                <line class="cls-2" x1="48.35" y1="97.48" x2="21.13" y2="75.03"/>
                <line class="cls-2" x1="27.01" y1="92.44" x2="48.35" y2="75.03"/>
                <g>
                    <line class="cls-2" x1="34.09" y1="75.03" x2="20.41" y2="86.78"/>
                    <line class="cls-2" x1="45.33" y1="88.66" x2="37.01" y2="95.28"/>
                    <line class="cls-2" x1="8.11" y1="75.03" x2="14.32" y2="80.57"/>
                </g>
                <g>
                    <line class="cls-2" x1="0.55" y1="80.3" x2="21.13" y2="97.48"/>
                    <line class="cls-2" x1="14.81" y1="92.6" x2="9.79" y2="96.75"/>
                </g>
            </g>
            <g>
                <line class="cls-3" x1="21.13" y1="75.03" x2="0.55" y2="92.36"/>
                <line class="cls-3" x1="48.35" y1="97.48" x2="21.13" y2="75.03"/>
                <line class="cls-3" x1="27.01" y1="92.44" x2="48.35" y2="75.03"/>
                <g>
                    <line class="cls-3" x1="34.09" y1="75.03" x2="20.41" y2="86.78"/>
                    <line class="cls-3" x1="45.33" y1="88.66" x2="37.01" y2="95.28"/>
                    <line class="cls-3" x1="8.11" y1="75.03" x2="14.32" y2="80.57"/>
                </g>
                <g>
                    <line class="cls-3" x1="0.55" y1="80.3" x2="21.13" y2="97.48"/>
                    <line class="cls-3" x1="14.81" y1="92.6" x2="9.79" y2="96.75"/>
                </g>
            </g>
        </g>
        <g>
            <g>
                <line class="cls-1" x1="21.13" y1="75.03" x2="0.55" y2="92.36"/>
                <line class="cls-1" x1="48.35" y1="97.48" x2="21.13" y2="75.03"/>
                <line class="cls-1" x1="27.01" y1="92.44" x2="48.35" y2="75.03"/>
                <g>
                    <line class="cls-1" x1="34.09" y1="75.03" x2="20.41" y2="86.78"/>
                    <line class="cls-1" x1="45.33" y1="88.66" x2="37.01" y2="95.28"/>
                    <line class="cls-1" x1="8.11" y1="75.03" x2="14.32" y2="80.57"/>
                </g>
                <g>
                    <line class="cls-1" x1="0.55" y1="80.3" x2="21.13" y2="97.48"/>
                    <line class="cls-1" x1="14.81" y1="92.6" x2="9.79" y2="96.75"/>
                </g>
            </g>
            <g>
                <line class="cls-2" x1="21.13" y1="75.03" x2="0.55" y2="92.36"/>
                <line class="cls-2" x1="48.35" y1="97.48" x2="21.13" y2="75.03"/>
                <line class="cls-2" x1="27.01" y1="92.44" x2="48.35" y2="75.03"/>
                <g>
                    <line class="cls-2" x1="34.09" y1="75.03" x2="20.41" y2="86.78"/>
                    <line class="cls-2" x1="45.33" y1="88.66" x2="37.01" y2="95.28"/>
                    <line class="cls-2" x1="8.11" y1="75.03" x2="14.32" y2="80.57"/>
                </g>
                <g>
                    <line class="cls-2" x1="0.55" y1="80.3" x2="21.13" y2="97.48"/>
                    <line class="cls-2" x1="14.81" y1="92.6" x2="9.79" y2="96.75"/>
                </g>
            </g>
            <g>
                <line class="cls-3" x1="21.13" y1="75.03" x2="0.55" y2="92.36"/>
                <line class="cls-3" x1="48.35" y1="97.48" x2="21.13" y2="75.03"/>
                <line class="cls-3" x1="27.01" y1="92.44" x2="48.35" y2="75.03"/>
                <g>
                    <line class="cls-3" x1="34.09" y1="75.03" x2="20.41" y2="86.78"/>
                    <line class="cls-3" x1="45.33" y1="88.66" x2="37.01" y2="95.28"/>
                    <line class="cls-3" x1="8.11" y1="75.03" x2="14.32" y2="80.57"/>
                </g>
                <g>
                    <line class="cls-3" x1="0.55" y1="80.3" x2="21.13" y2="97.48"/>
                    <line class="cls-3" x1="14.81" y1="92.6" x2="9.79" y2="96.75"/>
                </g>
            </g>
        </g>
    </g>
</svg>
