<svg xmlns="http://www.w3.org/2000/svg" viewBox="0 0 91.93 70.74">
  <defs>
    <style>
      .cls-1, .cls-2, .cls-3, .cls-4, .cls-7, .cls-8 {
        fill: #fff;
      }

      .cls-1, .cls-10, .cls-2, .cls-3, .cls-4, .cls-5, .cls-6, .cls-7 {
        stroke: #332518;
      }

      .cls-1, .cls-10, .cls-2, .cls-3, .cls-6, .cls-7 {
        stroke-miterlimit: 10;
      }

      .cls-1 {
        stroke-width: 1.49px;
      }

      .cls-2 {
        stroke-width: 1.56px;
      }

      .cls-3 {
        stroke-width: 1.48px;
      }

      .cls-4, .cls-5 {
        stroke-linejoin: round;
        stroke-width: 2.97px;
        stroke-dasharray: 0.74 2.95;
      }

      .cls-10, .cls-5, .cls-6 {
        fill: none;
      }

      .cls-6 {
        stroke-width: 1.35px;
      }

      .cls-7 {
        stroke-width: 0.37px;
      }

      .cls-9 {
        fill: #332518;
      }

      .cls-10 {
        stroke-width: 0.74px;
      }
    </style>
  </defs>
  <title>favicon</title>
  <g id="Слой_2" data-name="Слой 2">
    <g id="House">
      <rect class="cls-1" x="8.5" y="13.65" width="74.93" height="56.35" rx="3.35"/>
      <rect class="cls-1" x="40.18" y="20.06" width="11.58" height="13.75" rx="2.38"/>
      <rect class="cls-1" x="17.27" y="43.76" width="11.58" height="13.75" rx="2.38"/>
      <rect class="cls-1" x="64.16" y="43.88" width="11.58" height="13.75" rx="2.38"/>
      <rect class="cls-2" x="40.18" y="43.78" width="11.58" height="25.93" rx="3.28"/>
      <g>
        <rect class="cls-3" x="8.84" y="30.77" width="73.77" height="8.92"/>
        <line class="cls-4" x1="8.84" y1="32.78" x2="82.62" y2="32.78"/>
      </g>
      <g>
        <line class="cls-5" x1="57.41" y1="62.43" x2="82.62" y2="62.43"/>
        <line class="cls-5" x1="8.84" y1="62.43" x2="35.11" y2="62.43"/>
        <rect class="cls-6" x="8.87" y="61.01" width="26.43" height="8.95" rx="1.36"/>
        <rect class="cls-6" x="57.45" y="60.99" width="26.43" height="8.95" rx="1.36"/>
      </g>
      <g>
        <circle class="cls-1" cx="83.73" cy="26.6" r="3.52"/>
        <circle class="cls-1" cx="83.73" cy="34.39" r="3.52"/>
        <circle class="cls-1" cx="83.73" cy="42.18" r="3.52"/>
        <circle class="cls-1" cx="83.73" cy="49.96" r="3.52"/>
        <circle class="cls-1" cx="83.73" cy="57.75" r="3.52"/>
        <circle class="cls-1" cx="83.73" cy="65.54" r="3.52"/>
        <circle class="cls-7" cx="83.73" cy="34.39" r="1.49"/>
        <circle class="cls-7" cx="83.73" cy="42.18" r="1.49"/>
        <circle class="cls-7" cx="83.73" cy="49.96" r="1.49"/>
        <circle class="cls-7" cx="83.73" cy="57.67" r="1.49"/>
        <circle class="cls-7" cx="83.73" cy="65.51" r="1.49"/>
      </g>
      <g>
        <circle class="cls-1" cx="9.74" cy="26.6" r="3.52"/>
        <circle class="cls-1" cx="9.74" cy="34.39" r="3.52"/>
        <circle class="cls-1" cx="9.74" cy="42.18" r="3.52"/>
        <circle class="cls-1" cx="9.74" cy="49.96" r="3.52"/>
        <circle class="cls-1" cx="9.74" cy="57.75" r="3.52"/>
        <circle class="cls-1" cx="9.74" cy="65.54" r="3.52"/>
        <circle class="cls-7" cx="9.74" cy="34.39" r="1.49"/>
        <circle class="cls-7" cx="9.74" cy="42.18" r="1.49"/>
        <circle class="cls-7" cx="9.74" cy="49.96" r="1.49"/>
        <circle class="cls-7" cx="9.74" cy="57.75" r="1.49"/>
        <circle class="cls-7" cx="9.74" cy="65.63" r="1.49"/>
      </g>
      <path class="cls-1" d="M91.31,31.59H68.46A2.92,2.92,0,0,1,66.73,31L50.41,18.91a3.89,3.89,0,0,0-4.64,0l-16.05,12a3.41,3.41,0,0,1-2.07.69H5.13a2.16,2.16,0,0,1-1.94-3.1L12.53,9.2a6.82,6.82,0,0,1,6.15-3.85h59A6.82,6.82,0,0,1,83.82,9.2L93.2,28.57A2.1,2.1,0,0,1,91.31,31.59Z" transform="translate(-2.23 -4.59)"/>
      <g>
        <g>
          <path class="cls-8" d="M91.31,31.59H68.46A2.92,2.92,0,0,1,66.73,31L50.41,18.91a3.89,3.89,0,0,0-4.64,0l-16.05,12a3.41,3.41,0,0,1-2.07.69H5.13a2.16,2.16,0,0,1-1.94-3.1L12.53,9.2a6.82,6.82,0,0,1,6.15-3.85h59A6.82,6.82,0,0,1,83.82,9.2L93.2,28.57A2.1,2.1,0,0,1,91.31,31.59Z" transform="translate(-2.23 -4.59)"/>
          <path class="cls-9" d="M50.85,18.31a.29.29,0,0,0-.12-.07,4.52,4.52,0,0,0-5.28,0l-.14.09L40,22.3l-.54.4a1.54,1.54,0,0,0,.58.49h0l.68-.52h0c.42,0,.7-.28,1-.74,0,0,0,0,0,0l1.5-1.11,0,0a.84.84,0,0,1,.42-.32h0l.85-.64a1.71,1.71,0,0,1,.63.46l1-.74a3.12,3.12,0,0,1,3.76,0l.31.24a1.19,1.19,0,0,1,.33,0c1,0,1.52.89,1.95,1.66a.53.53,0,0,0,.06.1l1.56,1.16a1.17,1.17,0,0,0,.59-.47c.13-.18.25-.39.4-.64Zm0,0a.29.29,0,0,0-.12-.07,4.52,4.52,0,0,0-5.28,0l-.14.09L40,22.3l-.54.4a1.54,1.54,0,0,0,.58.49h0l.68-.52h0c.42,0,.7-.28,1-.74,0,0,0,0,0,0l1.5-1.11,0,0a.84.84,0,0,1,.42-.32h0l.85-.64,1.17-.88a4.53,4.53,0,0,1,.55-.34,3.26,3.26,0,0,1,.93-.34,3.75,3.75,0,0,1,1.7,0,3.16,3.16,0,0,1,.93.34,5.22,5.22,0,0,1,.54.33l4.35,3.24c.13-.18.25-.39.4-.64Zm0,0a.29.29,0,0,0-.12-.07,4.52,4.52,0,0,0-5.28,0l-.14.09L40,22.3l-.54.4a1.54,1.54,0,0,0,.58.49h0l.68-.52h0c.42,0,.7-.28,1-.74,0,0,0,0,0,0l1.5-1.11,0,0a.84.84,0,0,1,.42-.32h0l.85-.64,1.17-.88a4.53,4.53,0,0,1,.55-.34,3.26,3.26,0,0,1,.93-.34,3.75,3.75,0,0,1,1.7,0,3.16,3.16,0,0,1,.93.34,5.22,5.22,0,0,1,.54.33l4.35,3.24c.13-.18.25-.39.4-.64Zm4.31,3.2-4.31-3.2a.29.29,0,0,0-.12-.07,4.52,4.52,0,0,0-5.28,0l-.14.09L40,22.3l-.54.4-6.92,5.17a5.5,5.5,0,0,1,.28.48l.09.16L40,23.19h0l.68-.52h0l1-.74s0,0,0,0l1.5-1.11,0,0a.84.84,0,0,1,.42-.32h0l.85-.64,1.17-.88a4.53,4.53,0,0,1,.55-.34,3.26,3.26,0,0,1,.93-.34,3.75,3.75,0,0,1,1.7,0,3.16,3.16,0,0,1,.93.34,5.22,5.22,0,0,1,.54.33l4.35,3.24.56.4c.15-.19.27-.42.41-.62Zm38.71,6.73-3.81-7.86-.31-.64-1.68-3.43-.17-.37-.32-.66-3.1-6.41a7.47,7.47,0,0,0-1.62-2.2l-.52-.43a7.48,7.48,0,0,0-4.68-1.65h-59A7.62,7.62,0,0,0,13,7.17c-.16.19-.31.37-.46.58a6.31,6.31,0,0,0-.68,1.12L8.92,14.92s0,0,0,0l-.67,1.38L6.13,20.68l-.34.72L2.51,28.17a2.73,2.73,0,0,0-.27,1.38,2.87,2.87,0,0,0,2.88,2.78H27.65a4.29,4.29,0,0,0,2.51-.83l2.6-1.95.55-.4,7.84-5.86,1-.77,2.49-1.86.55-.4,1-.74a3.12,3.12,0,0,1,3.76,0l.31.24,2.34,1.72,1.56,1.16.6.46,7.06,5.24.56.41.58.43,1,.75h0l2.29,1.71a3.63,3.63,0,0,0,2.16.71H91.31a2.76,2.76,0,0,0,1.46-.42h0a2.75,2.75,0,0,0,.94-.92A2.83,2.83,0,0,0,93.87,28.24Zm-1.35,1.82a.22.22,0,0,1-.06.14,1.33,1.33,0,0,1-1.15.64H68.45a2.17,2.17,0,0,1-1.29-.43l-.1-.07L65.31,29l-2-1.5-.56-.43-5.45-4.05-.81-.57v0l-.72-.53-.57-.42-4.31-3.2a.29.29,0,0,0-.12-.07,4.52,4.52,0,0,0-5.28,0l-.14.09L40,22.3l-.54.4-6.92,5.17-.55.4-2.72,2a2.75,2.75,0,0,1-1.62.53H5.12a1.36,1.36,0,0,1-1.2-.67,1.38,1.38,0,0,1-.07-1.36l.75-1.56.26-.52,1.87-3.88.32-.67,3.39-7v0l.27-.54.59-1.23.31-.63,1.58-3.27A2.76,2.76,0,0,1,13.47,9a3.33,3.33,0,0,1,.39-.56,5.81,5.81,0,0,1,2.48-1.9,5.72,5.72,0,0,1,2.33-.48h59a1.14,1.14,0,0,1,.26,0,6,6,0,0,1,3.6,1.38A2.82,2.82,0,0,1,82,8a5.82,5.82,0,0,1,1.11,1.56l2.59,5.33,0,.08.36.76.31.64,2.12,4.39.35.71,3.62,7.48a.88.88,0,0,1,.1.35v0A1.1,1.1,0,0,1,92.52,30.06ZM50.85,18.31a.29.29,0,0,0-.12-.07,4.52,4.52,0,0,0-5.28,0l-.14.09L40,22.3l-.54.4a1.54,1.54,0,0,0,.58.49h0l.68-.52h0c.42,0,.7-.28,1-.74,0,0,0,0,0,0l1.5-1.11,0,0a.84.84,0,0,1,.42-.32h0l.85-.64,1.17-.88a4.53,4.53,0,0,1,.55-.34,3.26,3.26,0,0,1,.93-.34,3.75,3.75,0,0,1,1.7,0,3.16,3.16,0,0,1,.93.34,5.22,5.22,0,0,1,.54.33l4.35,3.24c.13-.18.25-.39.4-.64Zm0,0a.29.29,0,0,0-.12-.07,4.52,4.52,0,0,0-5.28,0l-.14.09L40,22.3l-.54.4a1.54,1.54,0,0,0,.58.49h0l.68-.52h0c.42,0,.7-.28,1-.74,0,0,0,0,0,0l1.5-1.11,0,0a.84.84,0,0,1,.42-.32h0l.85-.64,1.17-.88a4.53,4.53,0,0,1,.55-.34,3.26,3.26,0,0,1,.93-.34,3.75,3.75,0,0,1,1.7,0,3.16,3.16,0,0,1,.93.34,5.22,5.22,0,0,1,.54.33l4.35,3.24c.13-.18.25-.39.4-.64Zm0,0a.29.29,0,0,0-.12-.07,4.52,4.52,0,0,0-5.28,0l-.14.09L40,22.3l-.54.4a1.54,1.54,0,0,0,.58.49h0l.68-.52h0c.42,0,.7-.28,1-.74,0,0,0,0,0,0l1.5-1.11,0,0a.84.84,0,0,1,.42-.32h0l.85-.64a1.71,1.71,0,0,1,.63.46l1-.74a3.12,3.12,0,0,1,3.76,0l.31.24a1.19,1.19,0,0,1,.33,0c1,0,1.52.89,1.95,1.66a.53.53,0,0,0,.06.1l1.56,1.16a1.17,1.17,0,0,0,.59-.47c.13-.18.25-.39.4-.64Zm0,0a.29.29,0,0,0-.12-.07,4.52,4.52,0,0,0-5.28,0l-.14.09L40,22.3l-.54.4a1.54,1.54,0,0,0,.58.49h0l.68-.52h0c.42,0,.7-.28,1-.74,0,0,0,0,0,0l1.5-1.11,0,0a.84.84,0,0,1,.42-.32h0l.85-.64a1.71,1.71,0,0,1,.63.46l1-.74a3.12,3.12,0,0,1,3.76,0l.31.24a1.19,1.19,0,0,1,.33,0c1,0,1.52.89,1.95,1.66a.53.53,0,0,0,.06.1l1.56,1.16a1.17,1.17,0,0,0,.59-.47c.13-.18.25-.39.4-.64Z" transform="translate(-2.23 -4.59)"/>
        </g>
        <g>
          <path class="cls-9" d="M82.87,6.68a2.85,2.85,0,0,0-.46.61c-.08.13-.15.27-.24.43L82,8c-.4.71-.89,1.42-1.82,1.42s-1.51-.87-1.94-1.66-.77-1.31-1.35-1.31S76,6.9,75.59,7.72s-.92,1.66-2,1.66-1.51-.87-1.94-1.66-.77-1.31-1.35-1.31S69.46,6.9,69,7.72s-.92,1.66-1.94,1.66-1.52-.87-1.95-1.66-.77-1.31-1.35-1.31-.89.49-1.34,1.31-.92,1.66-1.94,1.66-1.52-.87-2-1.66-.77-1.31-1.35-1.31-.89.49-1.34,1.31-.92,1.66-1.94,1.66S52.39,8.51,52,7.72s-.77-1.31-1.35-1.31-.89.49-1.34,1.31-.92,1.66-1.94,1.66-1.52-.87-1.95-1.66S44.62,6.41,44,6.41s-.89.49-1.34,1.31-.92,1.66-1.94,1.66-1.5-.87-1.93-1.66S38,6.41,37.46,6.41s-.89.49-1.33,1.31-.92,1.66-2,1.66-1.51-.87-1.94-1.66-.78-1.31-1.36-1.31S30,6.9,29.55,7.72s-.92,1.66-1.95,1.66-1.5-.87-1.93-1.66-.76-1.31-1.34-1.31S23.44,6.9,23,7.72s-.92,1.66-1.93,1.66-1.51-.87-1.94-1.66-.78-1.31-1.36-1.31-.89.49-1.33,1.31-.92,1.66-2,1.66a1.49,1.49,0,0,1-1-.35A2.61,2.61,0,0,1,13,8.45a8.1,8.1,0,0,1-.42-.7c.15-.21.3-.39.46-.58a2.39,2.39,0,0,1,.12.22l.28.48a2.69,2.69,0,0,0,.46.59.92.92,0,0,0,.61.24c.58,0,.89-.49,1.35-1.31a5.5,5.5,0,0,1,.52-.83,1.68,1.68,0,0,1,1.41-.83,1.41,1.41,0,0,1,1,.36,4.22,4.22,0,0,1,1,1.3c.45.82.77,1.31,1.35,1.31s.89-.49,1.34-1.31a4.35,4.35,0,0,1,1-1.3,1.44,1.44,0,0,1,1-.36,1.4,1.4,0,0,1,1,.36,4,4,0,0,1,1,1.3c.45.82.78,1.31,1.34,1.31s.91-.49,1.35-1.31a4.22,4.22,0,0,1,1-1.3,1.36,1.36,0,0,1,1-.36,1.41,1.41,0,0,1,1,.36,4.22,4.22,0,0,1,1,1.3c.46.82.77,1.31,1.35,1.31s.89-.49,1.34-1.31a4.35,4.35,0,0,1,1-1.3,1.44,1.44,0,0,1,1-.36,1.42,1.42,0,0,1,1,.36,4.22,4.22,0,0,1,1,1.3c.45.82.76,1.31,1.34,1.31s.89-.49,1.35-1.31a4.35,4.35,0,0,1,1-1.3,1.42,1.42,0,0,1,1-.36,1.44,1.44,0,0,1,1,.36,4.19,4.19,0,0,1,1,1.3c.46.82.78,1.31,1.36,1.31s.89-.49,1.35-1.31a4,4,0,0,1,1-1.3,1.51,1.51,0,0,1,2,0,4.19,4.19,0,0,1,1,1.3c.45.82.78,1.31,1.36,1.31s.89-.49,1.33-1.31a4.22,4.22,0,0,1,1-1.3,1.51,1.51,0,0,1,2,0,4.19,4.19,0,0,1,1,1.3c.45.82.78,1.31,1.36,1.31s.89-.49,1.33-1.31a4.22,4.22,0,0,1,1-1.3,1.42,1.42,0,0,1,1-.36,1.44,1.44,0,0,1,1,.36,4.19,4.19,0,0,1,1,1.3c.46.82.78,1.31,1.36,1.31s.89-.49,1.35-1.31a4,4,0,0,1,1-1.3,1.42,1.42,0,0,1,1-.36,1.44,1.44,0,0,1,1,.36,4.19,4.19,0,0,1,1,1.3c.45.82.78,1.31,1.35,1.31s.9-.49,1.34-1.31a4.22,4.22,0,0,1,1-1.3,1.51,1.51,0,0,1,2,0,3.83,3.83,0,0,1,1,1.29c.46.82.78,1.31,1.35,1.31s.87-.46,1.31-1.22l0-.09c.1-.18.2-.37.32-.55a3.52,3.52,0,0,1,.45-.59C82.53,6.38,82.7,6.53,82.87,6.68Z" transform="translate(-2.23 -4.59)"/>
          <path class="cls-9" d="M87.9,15.94a1.4,1.4,0,0,1-.65.36,1,1,0,0,1-.43.07,1.5,1.5,0,0,1-.37,0c-.79-.18-1.21-.94-1.58-1.62s-.77-1.31-1.35-1.31-.9.5-1.35,1.31-.92,1.66-2,1.66-1.51-.88-1.94-1.66-.77-1.31-1.35-1.31-.89.5-1.34,1.31-.92,1.66-2,1.66-1.51-.88-1.94-1.66-.77-1.31-1.35-1.31-.89.5-1.34,1.31-.92,1.66-1.94,1.66-1.52-.88-1.95-1.66-.77-1.31-1.35-1.31-.89.5-1.34,1.31-.92,1.66-1.94,1.66-1.52-.88-2-1.66-.77-1.31-1.35-1.31-.89.5-1.34,1.31-.92,1.66-1.94,1.66-1.52-.88-1.95-1.66-.77-1.31-1.35-1.31-.89.5-1.34,1.31-.92,1.66-1.94,1.66-1.52-.88-1.95-1.66S44.62,13.4,44,13.4s-.89.5-1.34,1.31-.92,1.66-1.94,1.66-1.5-.88-1.93-1.66S38,13.4,37.46,13.4s-.89.5-1.33,1.31-.92,1.66-2,1.66-1.51-.88-1.94-1.66-.78-1.31-1.36-1.31-.89.5-1.33,1.31-.92,1.66-1.95,1.66-1.5-.88-1.93-1.66-.76-1.31-1.34-1.31-.89.5-1.35,1.31-.92,1.66-1.93,1.66-1.51-.88-1.94-1.66-.78-1.31-1.36-1.31-.89.5-1.33,1.31-.92,1.66-2,1.66-1.51-.88-1.94-1.66-.72-1.24-1.22-1.3h-.12c-.51,0-.82.38-1.19,1v0s0,0,0,0a2.36,2.36,0,0,0-.13.23c-.37.68-.8,1.44-1.59,1.62l.67-1.39h0c.11-.16.19-.34.31-.55.38-.67.79-1.43,1.56-1.61a1.27,1.27,0,0,1,.39-.06,1,1,0,0,1,.43.08c.74.19,1.13.94,1.5,1.59.46.82.77,1.31,1.35,1.31s.89-.49,1.35-1.31.91-1.67,1.93-1.67,1.52.9,1.95,1.67.77,1.31,1.35,1.31.89-.49,1.34-1.31.92-1.67,1.94-1.67,1.5.9,1.93,1.67.78,1.31,1.34,1.31.91-.49,1.35-1.31.92-1.67,1.93-1.67,1.52.9,1.95,1.67.77,1.31,1.35,1.31.89-.49,1.34-1.31.92-1.67,1.94-1.67,1.52.9,1.95,1.67.76,1.31,1.34,1.31.89-.49,1.35-1.31S43,12.71,44,12.71s1.51.9,1.94,1.67.78,1.31,1.36,1.31.89-.49,1.35-1.31.9-1.67,1.93-1.67,1.51.9,1.94,1.67.78,1.31,1.36,1.31.89-.49,1.33-1.31.92-1.67,1.95-1.67,1.51.9,1.94,1.67.78,1.31,1.36,1.31.89-.49,1.33-1.31.92-1.67,2-1.67,1.51.9,1.94,1.67.78,1.31,1.36,1.31.89-.49,1.35-1.31.9-1.67,1.93-1.67,1.51.9,1.94,1.67.78,1.31,1.35,1.31.9-.49,1.34-1.31.92-1.67,2-1.67,1.51.9,1.94,1.67.78,1.31,1.35,1.31.9-.49,1.36-1.31.92-1.67,1.94-1.67,1.52.9,2,1.67c.09.16.18.33.26.46l0,.09c.31.47.59.76,1,.76a.3.3,0,0,0,.13,0,1,1,0,0,0,.64-.38Z" transform="translate(-2.23 -4.59)"/>
          <g>
            <path class="cls-8" d="M36.13,28.69" transform="translate(-2.23 -4.59)"/>
            <path class="cls-8" d="M37.46,27.37" transform="translate(-2.23 -4.59)"/>
            <path class="cls-9" d="M45.23,20.27l-.55.4a.88.88,0,0,0-.65-.29.64.64,0,0,0-.28.06s0,0,0,0a.81.81,0,0,0-.42.31v0a4.31,4.31,0,0,0-.6.92,7.69,7.69,0,0,1-.5.81l-1,.78a1.49,1.49,0,0,1-1.11-.11,1.54,1.54,0,0,1-.58-.49,5,5,0,0,1-.65-1c-.47-.82-.78-1.33-1.36-1.33s-.89.51-1.33,1.33-.92,1.65-2,1.65-1.51-.88-1.94-1.65-.78-1.33-1.36-1.33-.89.51-1.33,1.33-.92,1.65-1.95,1.65-1.5-.88-1.93-1.67-.76-1.31-1.34-1.31-.89.51-1.35,1.33-.92,1.65-1.93,1.65-1.51-.88-1.94-1.65-.78-1.33-1.36-1.33-.89.51-1.33,1.33-.92,1.65-2,1.65-1.51-.88-1.94-1.65-.76-1.33-1.34-1.33-.91.51-1.35,1.33-.92,1.65-1.95,1.65a1.59,1.59,0,0,1-1.16-.51,3.3,3.3,0,0,1-.49-.67c-.1-.15-.19-.31-.28-.47a3,3,0,0,1-.16-.3l.34-.73a5.53,5.53,0,0,1,.42.69.43.43,0,0,1,0,.07,5.08,5.08,0,0,0,.46.74,1,1,0,0,0,.83.49c.58,0,.91-.49,1.35-1.3s.92-1.67,1.95-1.67,1.5.89,1.93,1.67.77,1.3,1.35,1.3.89-.49,1.35-1.3.91-1.67,1.93-1.67,1.52.89,1.95,1.67.77,1.3,1.35,1.3.89-.49,1.34-1.3.92-1.67,1.94-1.67,1.5.89,1.93,1.67.78,1.3,1.34,1.3.91-.49,1.35-1.3.92-1.67,1.93-1.67,1.52.89,1.95,1.67.77,1.3,1.35,1.3.89-.49,1.34-1.3.92-1.67,1.94-1.67,1.52.89,1.95,1.67a5.83,5.83,0,0,0,.59.93,1,1,0,0,0,.75.37c.43,0,.71-.28,1-.75.11-.17.21-.35.33-.55.43-.78.92-1.67,1.93-1.67a1.87,1.87,0,0,1,.56.1A1.78,1.78,0,0,1,45.23,20.27Z" transform="translate(-2.23 -4.59)"/>
            <path class="cls-9" d="M52.55,21.37a.33.33,0,0,1,.06.1l-2.33-1.72a1.2,1.2,0,0,1,.33-.05C51.63,19.7,52.12,20.59,52.55,21.37Z" transform="translate(-2.23 -4.59)"/>
            <path class="cls-9" d="M90.07,20.38a1,1,0,0,0-.67.35,5,5,0,0,0-.49.69c0,.09-.09.18-.15.29-.43.77-.92,1.65-1.94,1.65s-1.52-.88-1.95-1.65-.77-1.33-1.35-1.33-.9.51-1.35,1.33-.92,1.65-2,1.65-1.51-.88-1.94-1.65-.77-1.33-1.35-1.33-.89.51-1.34,1.33-.92,1.65-2,1.65-1.51-.88-1.94-1.65-.77-1.33-1.35-1.33-.89.51-1.34,1.33-.92,1.65-1.94,1.65-1.52-.88-1.95-1.65-.77-1.33-1.35-1.33-.89.51-1.34,1.33-.92,1.65-1.94,1.65-1.52-.88-2-1.65-.77-1.33-1.35-1.33-.89.51-1.34,1.33a2.39,2.39,0,0,1-.12.22,6.57,6.57,0,0,1-.4.62,2.56,2.56,0,0,1-.55.54l-.61-.46a1.17,1.17,0,0,0,.6-.48,7.42,7.42,0,0,0,.4-.64.46.46,0,0,1,.07-.14c.43-.78.92-1.67,1.95-1.67s1.51.89,1.94,1.67.78,1.3,1.36,1.3.89-.49,1.33-1.3.92-1.67,2-1.67,1.51.89,1.94,1.67.78,1.3,1.36,1.3.89-.49,1.35-1.3.9-1.67,1.93-1.67,1.51.89,1.94,1.67.78,1.3,1.35,1.3.9-.49,1.34-1.3.92-1.67,2-1.67,1.51.89,1.94,1.67.78,1.3,1.35,1.3.9-.49,1.36-1.3.92-1.67,1.94-1.67,1.52.89,2,1.67.76,1.3,1.35,1.3.89-.49,1.35-1.3a5.52,5.52,0,0,1,.4-.66,2.1,2.1,0,0,1,.52-.62,1.34,1.34,0,0,1,.67-.34Z" transform="translate(-2.23 -4.59)"/>
          </g>
          <g>
            <path class="cls-9" d="M32.92,28.51a6.83,6.83,0,0,0,.4.64l-.55.41a6.05,6.05,0,0,1-.4-.63l-.13-.24L32,28.28c-.34-.57-.64-.91-1.12-.91s-.89.51-1.33,1.32-.92,1.65-1.95,1.65-1.5-.87-1.93-1.65-.76-1.32-1.34-1.32-.89.51-1.35,1.32-.92,1.65-1.93,1.65-1.51-.87-1.94-1.65-.78-1.32-1.36-1.32-.89.51-1.33,1.32-.92,1.65-2,1.65-1.51-.87-1.94-1.65-.76-1.32-1.34-1.32-.91.51-1.35,1.32-.92,1.65-1.95,1.65S6.39,29.47,6,28.69s-.77-1.32-1.35-1.32V26.7a.66.66,0,0,1,.25,0c.86.12,1.29.91,1.7,1.62s.75,1.32,1.33,1.32.91-.5,1.35-1.32.92-1.65,1.95-1.65,1.5.88,1.93,1.65.77,1.32,1.35,1.32.89-.5,1.35-1.32.91-1.65,1.93-1.65,1.52.88,1.95,1.65.77,1.32,1.35,1.32.89-.5,1.34-1.32.92-1.65,1.94-1.65,1.5.88,1.93,1.65.78,1.32,1.34,1.32.91-.5,1.35-1.32.92-1.65,1.93-1.65a2,2,0,0,1,1.67,1.18,5.3,5.3,0,0,1,.28.47Z" transform="translate(-2.23 -4.59)"/>
            <path class="cls-9" d="M93.41,29.67v.67a.32.32,0,0,1-.17,0,1.23,1.23,0,0,1-.72-.25,3.69,3.69,0,0,1-1-1.37c-.46-.81-.77-1.32-1.35-1.32s-.91.51-1.36,1.32-.92,1.65-1.94,1.65-1.52-.87-1.95-1.65-.77-1.32-1.35-1.32-.9.51-1.35,1.32-.92,1.65-2,1.65-1.51-.87-1.94-1.65-.77-1.32-1.35-1.32-.89.51-1.34,1.32-.92,1.65-2,1.65-1.51-.87-1.94-1.65-.77-1.32-1.35-1.32-.89.51-1.34,1.32-.92,1.65-1.94,1.65A2.1,2.1,0,0,1,65.31,29l-.19-.35c-.45-.81-.77-1.32-1.35-1.32a.82.82,0,0,0-.49.16,2,2,0,0,0-.51.55l-.34.61a.13.13,0,0,1,0,0l-.56-.42.38-.64a3.07,3.07,0,0,1,.49-.58,1.61,1.61,0,0,1,1.06-.4c1,0,1.51.88,1.94,1.65s.78,1.32,1.36,1.32.89-.5,1.35-1.32.9-1.65,1.93-1.65,1.51.88,1.94,1.65.78,1.32,1.35,1.32.9-.5,1.34-1.32.92-1.65,2-1.65,1.51.88,1.94,1.65.78,1.32,1.35,1.32.9-.5,1.36-1.32.92-1.65,1.94-1.65,1.52.88,2,1.65.76,1.32,1.35,1.32.89-.5,1.35-1.32.92-1.65,2-1.65,1.51.88,1.94,1.65a6,6,0,0,0,.58.91h0a1,1,0,0,0,.76.4Z" transform="translate(-2.23 -4.59)"/>
          </g>
        </g>
        <g>
          <circle class="cls-10" cx="15.56" cy="3.58" r="0.74"/>
          <circle class="cls-10" cx="28.7" cy="3.58" r="0.74"/>
          <circle class="cls-10" cx="41.85" cy="3.58" r="0.74"/>
          <circle class="cls-10" cx="54.99" cy="3.58" r="0.74"/>
          <circle class="cls-10" cx="68.14" cy="3.58" r="0.74"/>
        </g>
        <g>
          <circle class="cls-10" cx="8.96" cy="10.61" r="0.74"/>
          <circle class="cls-10" cx="22.1" cy="10.61" r="0.74"/>
          <circle class="cls-10" cx="35.25" cy="10.61" r="0.74"/>
          <circle class="cls-10" cx="48.39" cy="10.61" r="0.74"/>
          <circle class="cls-10" cx="61.54" cy="10.61" r="0.74"/>
          <circle class="cls-10" cx="74.69" cy="10.61" r="0.74"/>
        </g>
        <g>
          <circle class="cls-10" cx="15.51" cy="17.73" r="0.74"/>
          <circle class="cls-10" cx="28.66" cy="17.73" r="0.74"/>
          <circle class="cls-10" cx="54.95" cy="17.73" r="0.74"/>
          <circle class="cls-10" cx="68.09" cy="17.73" r="0.74"/>
          <circle class="cls-10" cx="81.23" cy="17.73" r="0.74"/>
        </g>
        <g>
          <circle class="cls-10" cx="8.92" cy="24.63" r="0.74"/>
          <circle class="cls-10" cx="22.06" cy="24.63" r="0.74"/>
          <circle class="cls-10" cx="74.67" cy="24.63" r="0.74"/>
          <circle class="cls-10" cx="87.85" cy="24.63" r="0.74"/>
        </g>
      </g>
    </g>
  </g>
</svg>
