<svg id="Layer_1" data-name="Layer 1" xmlns="http://www.w3.org/2000/svg" viewBox="0 0 450 450">
  <defs>
    <style>
      .cls-1, .cls-2, .cls-3, .cls-4, .cls-5, .cls-6, .cls-7, .cls-8, .cls-9 {
        fill-rule: evenodd;
      }

      .cls-2 {
        fill: #2b251f;
      }

      .cls-3 {
        fill: #031e75;
      }

      .cls-4 {
        fill: #02bf64;
      }

      .cls-5 {
        fill: #057740;
      }

      .cls-6 {
        fill: #03441e;
      }

      .cls-7 {
        fill: #fff;
      }

      .cls-8 {
        fill: #b25e02;
      }

      .cls-9 {
        fill: #10c4aa;
      }
    </style>
  </defs>
  <title>fishingrow</title>
  <g>
    <path class="cls-1" d="M250.58,98.13c-.5.14-.75.54-.64,1.28,5,4.37,11.65,7.14,17.31,10.9s10.42,9.78,16.68,10.91C279.39,107.36,264,100.94,250.58,98.13Z"/>
    <path class="cls-1" d="M245.44,111c7.15,6.33,19.29,11.44,27.58,13.46-4.6-8.88-16.12-14.21-26.93-14.75C245.58,109.82,245.34,110.21,245.44,111Z"/>
    <path class="cls-1" d="M218.51,279.62c2.88,5.67,3.22,13.88,7.7,18,3.41-6.42-.43-16.08-3.21-20.52C220.4,276.81,218.53,277.29,218.51,279.62Z"/>
    <path class="cls-1" d="M200.56,323.23c-4.93,3.88-6.7,14.21-7.7,19.88C199.87,341.32,201.84,331.19,200.56,323.23Z"/>
    <path class="cls-1" d="M209.53,325.15a3.09,3.09,0,0,1-1.93-.63c-1.9,8.59-8.13,16.19-9,23.72C206,344.6,210.78,335.27,209.53,325.15Z"/>
    <path class="cls-1" d="M219.15,332.21C215.64,340.67,209,346,204.4,353.37c12.54.59,17.85-12.25,16.68-21.16Z"/>
    <path class="cls-1" d="M396.8,291.8A322.82,322.82,0,0,0,379.48,261c9-9.57-1.75-29.59-16.68-23.08-8.65-15.18-19-26.38-30.78-39.77-8.18-9.28-18.36-17.25-26.93-25.65-56.45-55.33-136.6-94-241.78-94.27-2.34.22-1,4.13-1.92,5.77.88,2.54,5.46,1.37,7,3.2-.85,3.73-2.73,8.17-3.2,12.83-4.49,43.83,31.4,48.35,65.41,55.16,21.31,4.26,45.94,13,60.28,25,6.72,5.61,11.28,15.33,15.4,24.37,4.54,9.95,8.56,18.37,7.7,32.71-1.35,22.06-13.42,38.13-32.72,44.89-7.71-4.66-27.39-4.45-35.91-.64-7.18-3.67-16.31-8.72-25.65-8.34-13.89.56-28.41,13.34-28.86,24.37-.3,7.28,5.52,11.64,7.69,17.95-3.18,9.91,2.55,17.76,3.21,27.58-4.12,11.05-24.36,10.36-25.65,22.45-.91,8.46,12.34,21.5,21.16,25.65,4.77,2.25,13,2.82,18.6,1.93,6-9.14,5.5-24.86,12.83-32.71,18.5,1.61,27-10.21,36.55-15.4,1.17,3.11,1.26,7.3,3.85,9,19.23,2.61,12-15.06,7.06-23.09,6-10.5,9.37-28.46,5.77-43,20.41-6.68,38.59-30.24,36.55-57.08-3.75-49.28-39.84-69.23-82.09-79.52-25-6.09-48.49-5.59-60.92-21.8-8.79-11.47-7.33-28.86-3.21-41.69,5.59,5.41,6.48,11.71,11.54,16.67,15.06,14.74,39.51,6.62,57.08-1.92,3.45,8.41,9,19.36,18,25,14.56,9.12,36.34,10.18,53.87,3.85,1,31.33,28.55,46.71,60.28,39.12,1.56,28.91,14.05,49.93,46.18,46.17.56,20,8.81,32.24,26.93,34.63,5.52,9.68-1.65,16.8-5.77,25.66-3.14,6.75-5.89,12.5-7.7,18.59-1.37-1.88-3.76-1.76-7.05-1.28-8.16,1.19-38.08,16.47-39.12,24.37-.77,5.86,5.11,16.26,10.26,17.32,7.35,1.51,19.1-6.23,25-9,8.67-4,16-7,19.88-14.11-.27-7.81,4.39-14.37,8.34-25,1.86-5,4.32-18.61,8.34-19.24,5.17-.81,8.39,10.77,10.26,14.75,3.15,6.69,5.6,11.37,8.34,16.67-.6,1.55-2.58,1.7-1.93,4.49,4.92,25.65,9.85,69.26,26.3,84,8.16,7.33,22.17,5.92,26.93-3.2,0-23.2-8.7-47-16-66.06C407.7,307.71,406.87,295.41,396.8,291.8ZM100.51,108.39c-11.64-1.78-17.89-12.94-23.73-19.88,18.7.76,36.56,7.91,54.51,11.54C123.12,105.13,112.38,110.2,100.51,108.39Zm44.89-4.49c23,5.23,42.89,13.55,62.85,21.8C183.13,137.68,151.46,126.26,145.4,103.9ZM216,129.56c9.25,4.14,19.85,11,29.49,16.67,9.43,5.55,19.26,11.33,24.38,19.24C240.19,172.07,216.79,157.92,216,129.56Zm60.92,41c14,12.47,30.12,26.31,39.76,41C289.79,213.87,278.12,196,276.87,170.6Zm46.18,46.81a144.58,144.58,0,0,1,23.08,26.94C331.3,245,324.35,232.39,323.05,217.41Z"/>
    <path class="cls-2" d="M82.55,84c123.93,7.65,206.54,67.43,265.51,143.65,3.49,4.51,9.3,9.62,8.34,16-4.41,1.25-6-5.82-8.34-9-12.59-16.9-28.27-34-43.61-49.38-6.1-6.1-11.67-13.17-18-18.6s-13.94-9.84-20.53-15.39c-19.81-16.72-42.91-26.38-69.25-38.48C163.9,97.8,124.61,90.07,82.55,84Z"/>
    <path class="cls-3" d="M371.78,256.53c-3.71,3.13-8.68,5-13.46,7.06.07-4.58-.7-11.69-5.13-9.62.68-3.39,10.55-3.12,12.82-7.06C369.53,248.53,368.51,254.68,371.78,256.53Z"/>
    <path class="cls-2" d="M389.1,296.93a6.14,6.14,0,0,0-5.13,1.93c-5.34-10.9-10.81-21.68-17.31-31.42,3.11-.74,4.8-2.89,8.33-3.21C378.69,276.14,385.07,285.36,389.1,296.93Z"/>
    <path class="cls-4" d="M135.79,284.75c-1.62,2.45-5.82,2.31-7.71,4.49-4.52-2.32-8.36-5.32-14.11-6.41C120.36,277.69,129,284.18,135.79,284.75Z"/>
    <path class="cls-4" d="M123,292.45c-6.6,1.48-10.66-4.59-17.32-5.13C109.72,281.84,119,289.68,123,292.45Z"/>
    <path class="cls-5" d="M169.13,286c-1,3.9-2,9.14.64,12.19,4.1-.81,2-7.82,5.13-9.62,3.17,12.74-.13,26.82-4.49,35.92-15.88-4.23-22.38-17.82-25-35.28C150.72,285.58,160,285.84,169.13,286Zm-16,7.06c.27,2.09,1.8,3.54,5.13,3.84C167.28,291,151.76,282.91,153.1,293.09Z"/>
    <path class="cls-4" d="M101.79,289.88c4.93,1.71,9.45,3.81,14.11,5.77-1.34,2.09-4.22,2.63-5.77,4.49-4.2-1.36-6.17-4.94-10.9-5.77C99.05,291.84,102,292.41,101.79,289.88Z"/>
    <path class="cls-6" d="M139.63,291.16c3.59,18.43,9.62,34.42,26.29,39.76-7.09,7.7-17.23,18.58-30.78,20.53-9,1.29-19.39-.79-26.3,2.56,1-17.25-3.47-38.51,5.78-48.74C121.43,297.73,131.33,297.39,139.63,291.16Zm-8.34,19.25c1.54.81,2.36,2.34,5.13,1.92,1.51-2.47.28-6.88-.63-9C130.85,302.27,131.05,306.31,131.29,310.41Zm.64,12.82c.09-4.15-1.62-6.5-2.56-9.62H126.8C125.17,317.76,127,323.53,131.93,323.23Zm12.83,2.57c-.86-3.42-1.84-6.72-6.41-6.42C137.5,324.23,141,327.68,144.76,325.8Zm-5.13,3.84c0-2.95-2.25-3.73-5.13-3.84A3.47,3.47,0,0,0,139.63,329.64Zm-8.34,1.93c-.78-3.07-2.77-4.93-6.41-5.14C124.4,330.52,128,333.33,131.29,331.57Z"/>
    <path class="cls-4" d="M97.3,297.58c2.86,2.06,6.12,3.71,9,5.77-1.49,1.72-2.11,4.31-4.49,5.13C100.81,304.33,97.36,302.64,97.3,297.58Z"/>
    <path class="cls-7" d="M399.36,303.35c-8.4-.86-12.17,6.15-17.32,6.41,1.23-2.24,7.79-7.52,11.55-8.33C395.22,301.08,399.28,299.28,399.36,303.35Z"/>
    <path class="cls-8" d="M325,302.71h1.28c2.2,2.61,6.16,6.51,5.77,9.62C327.43,311.36,326.26,307,325,302.71Z"/>
    <path class="cls-8" d="M325,314.9c-5.54,5.06-15.71,6-17.31-3.21,4.42-1.56,7.06-4.91,12.18-5.77C320.57,309.89,322,313.18,325,314.9Z"/>
    <path class="cls-8" d="M420.52,368.12c-6.73,1.82-9.86,7.25-19.23,6.42-7.05-18.19-11.52-38.93-16.68-59a53.13,53.13,0,0,0,16-7C409.46,326.17,413.82,348.32,420.52,368.12Z"/>
    <path class="cls-8" d="M303.16,313.61c1.52,3.61,4.78,5.49,6.42,9-4.73,1.4-7.66-3.64-9-7.69A2.82,2.82,0,0,0,303.16,313.61Z"/>
    <path class="cls-8" d="M294.83,318.1c2.23,2.47,3.27,6.13,6.41,7.7-1.05,1.3-2.14,2.56-4.49,2.56-1.5-3-3.58-5.4-4.49-9A2.85,2.85,0,0,0,294.83,318.1Z"/>
    <path class="cls-4" d="M171.7,337.34a12.6,12.6,0,0,1,3.84,8.34c-2-.46-1.88,1.1-3.84.64C171.55,343.22,169,339.49,171.7,337.34Z"/>
    <path class="cls-9" d="M98.58,353.37c5.52,8-5.23,14.22-7,22.45-4-1.36-5.21-5.47-7.7-8.34C87.05,361.07,93.87,358.27,98.58,353.37Z"/>
    <path class="cls-9" d="M120.39,361.07c-1.89,5.17-4.38,11.12-6.42,18-.84,2.85-.67,9-5.77,7.69,2.21-8.91,6.09-16.15,8.34-25C118.5,362.18,118.43,360.6,120.39,361.07Z"/>
    <path class="cls-9" d="M112.06,362.35c-2.1,7.53-4.1,15.14-5.78,23.09-2.35.42-2.46-1.39-4.49-1.28C103.83,375.5,105.79,366.77,112.06,362.35Z"/>
    <path class="cls-7" d="M424.37,379.67c-6.75.37-12,6.66-18.6,3.2,5.91-1.79,13-2.39,16-7.05C424.17,375.6,423.75,378.16,424.37,379.67Z"/>
    <path class="cls-3" d="M371.78,245.63c1.87-.77,4.27,3.41,4.49,6.42C374.45,250.24,374.08,247,371.78,245.63Z"/>
    <path class="cls-3" d="M337.8,302.06c-.93-9.68,5.89-17.18,9-25C346.66,283.18,340.47,294.24,337.8,302.06Z"/>
    <path class="cls-9" d="M105,362.35c-1,5-5.51,12-6.42,19.24-2.6.25-3-1.75-4.48-2.56C96.85,372.59,101.39,367.92,105,362.35Z"/>
  </g>
</svg>
