<?xml version="1.0" encoding="utf-8"?>
<!-- Generator: Adobe Illustrator 23.1.0, SVG Export Plug-In . SVG Version: 6.00 Build 0)  -->
<svg version="1.1" id="Outline" xmlns="http://www.w3.org/2000/svg" xmlns:xlink="http://www.w3.org/1999/xlink" x="0px" y="0px"
	 viewBox="0 0 512 512" style="enable-background:new 0 0 512 512;" xml:space="preserve">
<style type="text/css">
	.st0{fill:#45A049;}
</style>
<path class="st0" d="M448,85.3h-66.1C371.7,35.7,328,0.1,277.3,0h-42.7C184,0.1,140.3,35.7,130.1,85.3H64
	c-11.8,0-21.3,9.6-21.3,21.3S52.2,128,64,128h21.3v277.3C85.4,464.2,133.1,511.9,192,512h128c58.9-0.1,106.6-47.8,106.7-106.7V128
	H448c11.8,0,21.3-9.6,21.3-21.3S459.8,85.3,448,85.3z M234.7,42.7h42.7c27.1,0,51.3,17.1,60.4,42.7H174.3
	C183.4,59.8,207.6,42.7,234.7,42.7z M384,405.3c0,35.3-28.7,64-64,64H192c-35.3,0-64-28.7-64-64V128h256V405.3z"/>
<path class="st0" d="M213.3,384c11.8,0,21.3-9.6,21.3-21.3v-128c0-11.8-9.6-21.3-21.3-21.3c-11.8,0-21.3,9.6-21.3,21.3v128
	C192,374.4,201.6,384,213.3,384z"/>
<path class="st0" d="M298.7,384c11.8,0,21.3-9.6,21.3-21.3v-128c0-11.8-9.6-21.3-21.3-21.3c-11.8,0-21.3,9.6-21.3,21.3v128
	C277.3,374.4,286.9,384,298.7,384z"/>
</svg>
