<svg width="186" height="24" viewBox="0 0 186 24" fill="none" xmlns="http://www.w3.org/2000/svg">
<path d="M74.8443 13.2043C75.3569 11 77.0041 10.0402 78.8974 10.0402C80.7906 10.0402 82.6463 10.9932 82.8958 13.2043H74.8443ZM85.4349 20.1701L85.7049 17.1363C81.2554 19.5805 75.7602 19.9233 74.9263 15.6451H86.1629V14.291C86.0262 9.68365 82.5165 7.4074 78.8974 7.4074C75.1963 7.4074 71.5772 9.76592 71.5772 14.5618C71.5772 21.8225 79.3553 23.3103 85.4349 20.1701Z" fill="#191816"/>
<path d="M58.4987 13.2043C59.0113 11 60.6585 10.0402 62.5518 10.0402C64.4416 10.0402 66.3007 10.9932 66.5502 13.2043H58.4987ZM69.0859 20.1701L69.3559 17.1363C64.9064 19.5805 59.4112 19.9233 58.5773 15.6451H69.8138V14.291C69.6771 9.68365 66.1674 7.4074 62.5484 7.4074C58.8473 7.4074 55.2282 9.76592 55.2282 14.5618C55.2282 21.8225 63.0097 23.3103 69.0859 20.1701Z" fill="#191816"/>
<path d="M91.6718 1.77164H88.5653V21.3357H91.6718V15.3194C92.861 15.3194 93.7803 15.3194 94.7235 16.1867C96.0461 17.5408 97.0201 19.2754 97.912 21.3357H101.476C100.612 18.5727 97.8847 14.2636 94.9935 14.2636V13.8556C97.3721 13.8556 100.287 10.1156 101.07 7.78792H97.8027C97.0474 9.41283 96.0461 10.904 94.6689 12.1244C93.7496 12.9917 92.6423 12.9643 91.6718 12.9643V1.77164Z" fill="#191816"/>
<path d="M107.402 10.7395V5.70022H111.995C114.452 5.70022 115.399 6.94804 115.399 8.21986C115.399 9.46768 114.452 10.7395 111.995 10.7395H107.402ZM107.402 18.487V13.4477H112.751C115.208 13.4477 116.154 14.6955 116.154 15.9673C116.154 17.2151 115.156 18.487 112.696 18.487H107.402ZM112.669 2.85491H104.159V21.3323H113.478C117.449 21.3323 119.449 19.0834 119.449 16.3753C119.449 13.9893 117.719 12.2856 114.777 12.0936V11.6617C117.586 11.1474 118.639 9.38541 118.639 7.54453C118.639 5.04888 116.694 2.85491 112.669 2.85491Z" fill="#191816"/>
<path d="M121.837 7.78449V21.3323H124.944V12.2307C126.106 11.0652 127.616 10.6607 130.077 10.6607H131.321L131.078 7.54453H130.08C128.026 7.54453 126.082 8.43926 125.327 10.3076H124.947V7.78449H121.837Z" fill="#191816"/>
<path d="M135.107 14.5584C135.107 11.5794 136.792 10.0607 139.061 10.0607C140.897 10.0607 142.178 10.6298 143.313 11.7953V17.3214C142.178 18.487 140.897 19.056 139.061 19.056C136.796 19.056 135.107 17.5408 135.107 14.5584ZM143.316 7.78449V9.76249H142.964C141.747 8.16501 140.333 7.35255 138.251 7.35255C134.01 7.35255 131.892 10.7943 131.892 14.5584C131.892 18.3224 134.01 21.7642 138.251 21.7642C140.333 21.7642 141.747 20.9518 142.964 19.3543H143.316V21.3323H146.423V7.78449H143.316Z" fill="#191816"/>
<path d="M150.161 21.3323H153.268V7.78449H150.161V21.3323ZM151.73 6.05331C153.025 6.05331 153.89 5.18601 153.89 3.88676C153.89 2.58752 153.025 1.72021 151.73 1.72021C150.435 1.72021 149.57 2.58752 149.57 3.88676C149.567 5.18601 150.431 6.05331 151.73 6.05331Z" fill="#191816"/>
<path d="M160.116 7.78449H157.01V21.3323H160.116V11.7953C161.251 10.6846 162.505 10.0607 164.015 10.0607C165.663 10.0607 167.214 10.9829 167.214 13.7459V21.3323H170.321V13.0432C170.321 9.54653 168.687 7.35255 165.314 7.35255C163.479 7.35255 161.63 8.13758 160.414 9.87219H160.116V7.78449Z" fill="#191816"/>
<path d="M172.928 11.7165C172.928 14.1264 175.17 15.076 176.899 15.4565L180.87 16.2964C182.165 16.5672 182.76 16.9478 182.76 17.5957C182.76 18.5727 181.41 19.032 179.438 19.032C177.115 19.032 174.442 18.1373 172.955 17.3248L173.225 20.3861C174.955 21.2808 177.197 21.7676 179.274 21.7676C183.136 21.7676 186 20.4958 186 17.4585C186 14.9937 183.946 14.0716 181.543 13.5574L177.924 12.7998C176.79 12.5564 176.168 12.1759 176.168 11.528C176.168 10.6058 177.384 10.119 179.329 10.119C181.516 10.119 183.867 10.9315 185.108 11.6102L184.838 8.54895C183.351 7.79135 181.434 7.35598 179.49 7.35598C175.956 7.35255 172.928 8.60037 172.928 11.7165Z" fill="#191816"/>
<path d="M43.9199 11.1269V14.099H49.6817V17.4277C48.1268 18.3293 46.5206 18.7406 44.993 18.7406C41.3398 18.7406 38.018 16.3616 38.018 12.1244C38.018 7.88733 41.3432 5.50825 44.993 5.50825C47.3374 5.50825 49.8321 6.45782 52.0944 8.37069L51.7595 4.58952C49.5724 3.15315 47.1665 2.47439 44.6273 2.47439C39.549 2.47439 34.5801 5.88876 34.5801 12.121C34.5801 18.3533 39.549 21.7676 44.6273 21.7676C47.1665 21.7676 49.815 21.1986 52.8121 18.9772V11.1269H43.9199Z" fill="#191816"/>
<path d="M10.4082 2.19208L10.1891 0.203209C7.24861 -0.697091 4.11297 1.53825 2.20625 4.07142C1.11767 5.54339 0.217373 7.17625 1.14506 8.64823C-0.381686 10.0654 -0.381686 13.1976 1.14506 14.6422C0.217373 16.1142 1.11767 17.7471 2.20625 19.219C4.06162 21.67 6.43047 23.279 8.88147 23.279C11.4146 23.279 13.4583 21.1805 13.4583 18.62V16.6859C13.4583 15.3782 12.9688 14.6422 12.0137 13.6358L10.5691 12.0817C10.5965 11.9448 10.5965 11.8352 10.5965 11.7017C10.5965 10.6405 9.83312 9.87715 8.77193 9.87715C7.76551 9.87715 6.97475 10.6405 6.97475 11.7017C6.97475 12.6568 7.76551 13.4441 8.77193 13.4441C8.90886 13.4441 9.0184 13.4167 9.09713 13.4167L10.5965 14.9982C11.1682 15.6247 11.442 16.0868 11.442 16.8502V18.62C11.442 20.8279 9.64484 21.7522 7.65597 21.0162C6.32092 20.5267 4.95849 19.5169 3.70561 17.884C2.58964 16.3299 2.83269 15.5973 3.45914 15.1591C4.00342 14.8339 4.5751 14.8853 5.55755 16.1142C5.5062 16.2751 5.47882 16.4668 5.47882 16.6585C5.47882 17.6649 6.29696 18.4831 7.27599 18.4831C8.25503 18.4831 9.04578 17.6649 9.04578 16.6585C9.04578 15.6795 8.25503 14.8613 7.27599 14.8613H7.13907C5.96834 13.362 4.55113 12.3282 2.58964 13.362C1.88104 12.7355 1.99059 10.5002 2.58964 9.9285C4.55113 10.9623 5.96834 9.9285 7.13907 8.42914H7.27599C8.25503 8.42914 9.04578 7.611 9.04578 6.63197C9.04578 5.62555 8.25503 4.8074 7.27599 4.8074C6.29696 4.8074 5.47882 5.62555 5.47882 6.63197C5.47882 6.82366 5.5062 7.01194 5.56097 7.17625C4.58194 8.40175 4.00685 8.45653 3.46256 8.13132C2.83611 7.69658 2.58964 6.96059 3.70903 5.40646C5.25973 3.3902 7.92982 1.18567 10.4082 2.19208ZM13.5918 21.0984L13.8109 23.0873C16.7514 23.9876 19.887 21.7522 21.7938 19.219C22.8823 17.7471 23.7826 16.1142 22.8549 14.6422C24.3817 13.225 24.3817 10.0928 22.8549 8.64823C23.7826 7.17625 22.8823 5.54339 21.7938 4.07142C19.9384 1.62041 17.5695 0.0149335 15.1185 0.0149335C12.5854 0.0149335 10.5417 2.11335 10.5417 4.6739V6.608C10.5417 7.91566 11.0312 8.65165 11.9863 9.65807L13.4309 11.2122C13.4035 11.3491 13.4035 11.4587 13.4035 11.5922C13.4035 12.6534 14.1669 13.4167 15.2281 13.4167C16.2345 13.4167 17.0252 12.6534 17.0252 11.5922C17.0252 10.6371 16.2345 9.84977 15.2281 9.84977C15.0911 9.84977 14.9816 9.87715 14.9029 9.87715L13.4035 8.29564C12.8318 7.66919 12.558 7.20706 12.558 6.44369V4.6739C12.558 2.46594 14.3552 1.54168 16.344 2.27766C17.6791 2.76718 19.0415 3.77702 20.2944 5.40988C21.4104 6.96401 21.1673 7.69658 20.5409 8.13475C19.9966 8.45995 19.4249 8.4086 18.4424 7.17968C18.4972 7.01536 18.5246 6.82709 18.5246 6.63539C18.5246 5.62897 17.7065 4.81083 16.7274 4.81083C15.7484 4.81083 14.9576 5.62897 14.9576 6.63539C14.9576 7.61442 15.7484 8.43256 16.7274 8.43256H16.8644C18.0351 9.93192 19.4523 10.9657 21.4138 9.93192C22.1224 10.5584 22.0128 12.7937 21.4138 13.3654C19.4523 12.3316 18.0351 13.3654 16.8644 14.8647H16.7274C15.7484 14.8647 14.9576 15.6829 14.9576 16.6619C14.9576 17.6683 15.7484 18.4865 16.7274 18.4865C17.7065 18.4865 18.5246 17.6683 18.5246 16.6619C18.5246 16.4702 18.4972 16.2819 18.4424 16.1176C19.4215 14.8921 19.9966 14.8374 20.5409 15.1626C21.1673 15.5973 21.4138 16.3333 20.2944 17.8874C18.7403 19.9003 16.0702 22.1048 13.5918 21.0984Z" fill="#191816"/>
</svg>
