<?xml version="1.0" standalone="no"?>
<!DOCTYPE svg PUBLIC "-//W3C//DTD SVG 1.1//EN" "http://www.w3.org/Graphics/SVG/1.1/DTD/svg11.dtd" >
<svg>
<metadata>
Created by FontForge 20090914 at Mon Jul 13 09:47:53 2020
 By www-data
Copyright 2019 The Bellota Project Authors (https://github.com/kemie/Bellota-Font)
</metadata>
<defs>
<font id="Bellota-Regular" horiz-adv-x="0" >
  <font-face 
    font-family="Bellota"
    font-weight="400"
    font-stretch="normal"
    units-per-em="1000"
    panose-1="0 0 5 0 0 0 0 0 0 0"
    ascent="800"
    descent="-200"
    x-height="498"
    cap-height="686"
    bbox="-516 -316.997 1312 1147"
    underline-thickness="50"
    underline-position="0"
    unicode-range="U+000D-U+1F330"
  />
<missing-glyph horiz-adv-x="600" 
 />
    <glyph glyph-name="fi" unicode="fi" horiz-adv-x="536" 
d="M114 633c27.333 48 68.666 71.9961 123.999 71.9961c26 0 49 -4.66699 69 -14s36 -22.666 48 -39.999l-44 -41c-15.333 26.667 -39.666 40 -72.999 40c-36.667 0 -63.334 -18.667 -80.001 -56c-8.66699 -19.333 -14.167 -39.666 -16.5 -60.999s-3.5 -44.333 -3.5 -69v-14
h280v-369c0 -9.33301 3.16699 -17.166 9.5 -23.499s13.833 -9.5 22.5 -9.5c13.333 0 23 5.66699 29 17l44 -33c-5.33301 -11.333 -14.666 -20.833 -27.999 -28.5s-28.333 -11.5 -45 -11.5c-26.667 0 -48.667 8.33301 -66 25s-26 38.334 -26 65.001v313h-220v-654h-58v720
c0 76 11.333 133.333 34 172z" />
    <glyph glyph-name="fl" unicode="fl" horiz-adv-x="511" 
d="M107 631c26.667 48 71.667 71.999 135 71.999c35.333 0 65.5 -7.5 90.5 -22.5s42.167 -35.833 51.5 -62.5c5.33301 -16 8.66602 -33.333 9.99902 -52v-485c0 -9.33301 3.5 -17.5 10.5 -24.5s15.167 -10.5 24.5 -10.5c12 0 21.333 5 28 15l46 -30
c-8.66699 -12.667 -19.5 -22.5 -32.5 -29.5s-26.833 -10.5 -41.5 -10.5c-26 0 -47.5 8.83301 -64.5 26.5s-25.5 38.834 -25.5 63.501v484c-2 57.333 -33.667 86 -95 86c-20.667 0 -37.667 -3.16699 -51 -9.5s-24.666 -15.833 -33.999 -28.5
c-19.333 -26.667 -29 -63 -29 -109l-2 -253h148v-52h-148v-461h-55v722c0 73.333 11.333 130.333 34 171z" />
    <glyph glyph-name="f_f" unicode="ff" horiz-adv-x="683" 
d="M399 361l-0.00292969 -107.002h147v-56h-147v-459h-60v459h-186v-459h-60v752c0 68.667 13.833 122.334 41.5 161.001s71.167 58 130.5 58c49.333 0 92 -17 128 -51c12.667 14.667 27.334 25.167 44.001 31.5s37.334 9.5 62.001 9.5c46.667 0 82.667 -13.667 108 -41
s38 -63.666 38 -108.999c0 -58 -18.167 -104 -54.5 -138s-85.166 -51 -146.499 -51h-45zM338.997 458.998c0 34 1.33301 61.499 4 82.499s7.66699 40.5 15 58.5c-8 16.667 -20.333 29.834 -37 39.501s-35 14.5 -55 14.5c-75.333 0 -113 -64 -113 -192v-208h186v205z
M398.997 416.997l45 -0.000976562c44 0 78.333 12.333 103 37s37 57.334 37 98.001c0 30 -7.66699 52.833 -23 68.5s-36 23.5 -62 23.5c-38 0 -65 -17.667 -81 -53c-12.667 -27.333 -19 -70.333 -19 -129v-45z" />
    <glyph glyph-name="f_f_i" unicode="ffi" horiz-adv-x="792" 
d="M779 31c-5.33301 -11.333 -14.668 -20.833 -28.001 -28.5s-28.333 -11.5 -45 -11.5c-26.667 0 -48.667 8.33301 -66 25s-26 38.334 -26 65.001v315h-214v-656h-60v656h-200v-656h-60v722c0 76.667 13 133.667 39 171c16.667 23.333 37.834 41.166 63.501 53.499
s51.5 18.5 77.5 18.5c25.333 0 49.333 -5.5 72 -16.5s40 -25.833 52 -44.5c13.333 19.333 30 34.333 50 45s42 16 66 16s45.833 -5 65.5 -15s35.834 -22.667 48.501 -38l-38 -38c-6.66699 11.333 -16.834 20.333 -30.501 27s-28.167 10 -43.5 10
c-18 0 -34.167 -5.33301 -48.5 -16s-25.5 -24.667 -33.5 -42c-13.333 -28.667 -20 -71.334 -20 -128.001v-16l274 1v-370c0 -9.33301 3.16699 -17.166 9.5 -23.499s13.833 -9.5 22.5 -9.5c13.333 0 23 5.66699 29 17zM347.998 557
c1.33301 7.33301 4.00195 17.666 8.00195 30.999c-6.66699 18 -19.334 32.833 -38.001 44.5s-38.667 17.5 -60 17.5c-18.667 0 -37.334 -5 -56.001 -15s-32.667 -24.333 -42 -43c-13.333 -26 -20 -68.333 -20 -127v-16h200v13c0 32.667 2.66699 64.334 8 95.001z" />
    <glyph glyph-name="f_f_l" unicode="ffl" horiz-adv-x="773" 
d="M140 196l-0.000976562 -454.001h-60v718c0 73.333 10.333 130.333 31 171c24 47.333 66.333 71 127 71c24 0 46.167 -4.16699 66.5 -12.5s37.166 -20.833 50.499 -37.5l-47 -47c-13.333 24.667 -36 37 -68 37c-20.667 0 -37.834 -4 -51.501 -12s-24.167 -21 -31.5 -39
c-11.333 -27.333 -17 -73.333 -17 -138v-197h205v212c0 39.333 1.33301 71 4 95s11.334 48 26.001 72c26.667 43.333 68.667 65 126 65c47.333 0 84.833 -12.667 112.5 -38s41.5 -58.333 41.5 -99v-479c0 -9.33301 3.16699 -17.166 9.5 -23.499s13.833 -9.5 22.5 -9.5
c13.333 0 23 5.66699 29 17l44 -33c-5.33301 -11.333 -14.666 -20.833 -27.999 -28.5s-28.333 -11.5 -45 -11.5c-26.667 0 -48.667 8.33301 -66 25s-26 38.334 -26 65.001v477c-1.33301 25.333 -10.333 44.666 -27 57.999s-39 20 -67 20c-31.333 0 -55.166 -11 -71.499 -33
s-24.5 -50.667 -24.5 -86v-265h146v-60h-146v-456h-60v456h-205z" />
    <glyph glyph-name=".notdef" horiz-adv-x="600" 
 />
    <glyph glyph-name="NULL" 
 />
    <glyph glyph-name="nonmarkingreturn" unicode="&#xd;" horiz-adv-x="280" 
 />
    <glyph glyph-name="space" unicode=" " horiz-adv-x="280" 
 />
    <glyph glyph-name="exclam" unicode="!" horiz-adv-x="249" 
d="M88 704h70l-9 -565h-52zM92.5 -0.5c-8.33301 8.33301 -12.5 18.166 -12.5 29.499c0 12 4.16699 22.167 12.5 30.5s18.166 12.5 29.499 12.5c12 0 22.167 -4.16699 30.5 -12.5s12.5 -18.5 12.5 -30.5c0 -11.333 -4.16699 -21.166 -12.5 -29.499s-18.5 -12.5 -30.5 -12.5
c-11.333 0 -21.166 4.16699 -29.499 12.5z" />
    <glyph glyph-name="quotedbl" unicode="&#x22;" horiz-adv-x="362" 
d="M90 684h72l-10 -192h-52zM200 684h72l-10 -192h-52z" />
    <glyph glyph-name="numbersign" unicode="#" horiz-adv-x="605" 
d="M165 184h-116v52h114v176h-114v52h114v153h56v-153h167v153h56v-153h114v-52h-114v-176h114v-52h-114v-154h-54v154h-169v-154h-54v154zM386 236v176h-167v-176h167z" />
    <glyph glyph-name="dollar" unicode="$" horiz-adv-x="598" 
d="M65 58l33.001 48c52 -36.667 108.333 -58.334 169 -65.001v275c-26.667 8.66699 -49 17.334 -67 26.001s-34.333 20 -49 34c-34 32 -51 71 -51 117c0 42 15 77 45 105c16.667 15.333 35.667 27.666 57 36.999s43 15.333 65 18v91h58v-91
c19.333 -2 36.5 -5.16699 51.5 -9.5s33.5 -10.833 55.5 -19.5c34 -13.333 63.333 -29 88 -47l-33 -48c-24.667 15.333 -48.334 28 -71.001 38c-16 7.33301 -30.167 12.833 -42.5 16.5s-28.5 6.83398 -48.5 9.50098v-235c36 -11.333 63.167 -20.833 81.5 -28.5
s35.833 -18.167 52.5 -31.5c21.333 -17.333 37.166 -36.666 47.499 -57.999s15.5 -46.333 15.5 -75c0 -56 -20 -100 -60 -132c-34 -26.667 -79.667 -42.334 -137 -47.001v-78h-58v77c-79.333 6.66699 -146.666 31 -201.999 73zM187.501 562c-17 -18 -25.5 -40 -25.5 -66
c0 -28 10 -52 30 -72c16 -16 41 -31.333 75 -46v217c-36 -4 -62.5 -15 -79.5 -33zM420.001 71c26.667 20.667 39.999 51 39.999 91c0 38.667 -13.333 68.334 -40 89.001c-10.667 8.66699 -25 17.167 -43 25.5s-35.333 15.166 -52 20.499v-257
c38.667 2 70.334 12.333 95.001 31z" />
    <glyph glyph-name="percent" unicode="%" horiz-adv-x="778" 
d="M480 39.5c-24 24.333 -36.001 57.166 -36.001 98.499c0 44 13 77.167 39 99.5s57.667 33.5 95 33.5c39.333 0 71 -12.167 95 -36.5s36 -57.166 36 -98.499c0 -43.333 -13.167 -76.333 -39.5 -99s-58.166 -34 -95.499 -34c-38.667 0 -70 12.167 -94 36.5zM633.499 75.5
c14.333 15.667 21.5 36.168 21.5 61.501s-7 45.833 -21 61.5s-33 23.5 -57 23.5c-24.667 0 -44 -8.16699 -58 -24.5s-21 -36.833 -21 -61.5s7 -44.834 21 -60.501s33 -23.5 57 -23.5s43.167 7.83301 57.5 23.5zM472.999 511.001h58l-218 -500h-59zM104.999 282.501
c-24 24.333 -36.001 57.166 -36.001 98.499c0 44 13 77.167 39 99.5s57.667 33.5 95 33.5c39.333 0 71 -12.167 95 -36.5s36 -57.166 36 -98.499c0 -43.333 -13.167 -76.333 -39.5 -99s-58.166 -34 -95.499 -34c-38.667 0 -70 12.167 -94 36.5zM258.498 318.501
c14.333 15.667 21.5 36.168 21.5 61.501s-7 45.833 -21 61.5s-33 23.5 -57 23.5c-24.667 0 -44 -8.16699 -58 -24.5s-21 -36.833 -21 -61.5s7 -44.834 21 -60.501s33 -23.5 57 -23.5s43.167 7.83301 57.5 23.5z" />
    <glyph glyph-name="ampersand" unicode="&#x26;" horiz-adv-x="704" 
d="M99.5 275c19.667 33.333 46.834 58.999 81.501 76.999c-34 40 -51 82.333 -51 127c0 28 7.33301 53.833 22 77.5s34.5 42.5 59.5 56.5s52.167 21 81.5 21c40 0 75.833 -9.66699 107.5 -29s47.5 -46.333 47.5 -81c0 -22.667 -7 -41.667 -21 -57s-31.667 -23 -53 -23
c-13.333 0 -25.833 3.83301 -37.5 11.5s-21.167 18.5 -28.5 32.5l46 21c1.33301 -3.33301 3.83301 -6.16602 7.5 -8.49902s7.5 -3.5 11.5 -3.5c5.33301 0 9.83301 2.16699 13.5 6.5s5.5 10.5 5.5 18.5c0 19.333 -9 33.833 -27 43.5s-41.333 14.5 -70 14.5
c-27.333 0 -51.666 -10 -72.999 -30s-32 -43 -32 -69c0 -24 5.66699 -45.333 17 -64s33.666 -43 66.999 -73l201 -185c26.667 49.333 40 102 40 158v40h53v-42c0 -72.667 -17.667 -136.667 -53 -192l66 -59c1.33301 -1.33301 3.66602 -3.5 6.99902 -6.5
s6.33301 -5.16699 9 -6.5s5.66699 -2 9 -2c8.66699 0 15.334 2 20.001 6l27 -47c-14 -10.667 -29.333 -16 -46 -16c-12.667 0 -23.5 2.66699 -32.5 8s-17.333 11.333 -25 18s-12.834 11.334 -15.501 14.001l-53 47c-52 -59.333 -118.333 -89 -199 -89
c-40.667 0 -77 7.16699 -109 21.5s-57.167 34.666 -75.5 60.999s-27.5 56.833 -27.5 91.5c0 40.667 9.83301 77.667 29.5 111zM173 76.499c28.667 -23 65 -34.502 109 -34.502c30.667 0 59.667 6.33301 87 19s51.666 30.334 72.999 53.001l-222 200
c-31.333 -14.667 -54.166 -33.667 -68.499 -57s-21.5 -52.666 -21.5 -87.999c0 -38.667 14.333 -69.5 43 -92.5z" />
    <glyph glyph-name="quotesingle" unicode="'" horiz-adv-x="252" 
d="M90 684h72l-10 -192h-52z" />
    <glyph glyph-name="parenleft" unicode="(" horiz-adv-x="364" 
d="M113 36c-42 78 -62.999 163.667 -62.999 257c0 96 21 183 63 261c22 40 49.5 77 82.5 111s70.5 62.333 112.5 85l25 -43c-32 -18.667 -61.833 -43.167 -89.5 -73.5s-51.167 -63.5 -70.5 -99.5s-34.5 -75 -45.5 -117s-16.5 -83 -16.5 -123
c0 -41.333 5.66699 -82.833 17 -124.5s26.333 -79.834 45 -114.501c18.667 -35.333 41.667 -68 69 -98s57.666 -55 90.999 -75l-25 -43c-84.667 46.667 -149.667 112.334 -195 197.001z" />
    <glyph glyph-name="parenright" unicode=")" horiz-adv-x="364" 
d="M31 -118c33.333 20 63.667 45 91 75s50.333 62.667 69 98c18.667 34.667 33.667 72.834 45 114.501s17 83.167 17 124.5c0 40 -5.5 81 -16.5 123s-26.167 81 -45.5 117s-42.833 69.167 -70.5 99.5s-57.5 54.833 -89.5 73.5l25 43c42 -22.667 79.5 -51 112.5 -85
s60.5 -71 82.5 -111c42 -78 63 -165 63 -261c0 -93.333 -21 -179 -63 -257c-45.333 -84.667 -110.333 -150.334 -195 -197.001z" />
    <glyph glyph-name="asterisk" unicode="*" horiz-adv-x="399" 
d="M89 452l68 82l-106 28l19 57l105 -41l-6 116h60l-7 -117l107 42l17 -57l-104 -29l67 -81l-49 -34l-61 94l-62 -96z" />
    <glyph glyph-name="plus" unicode="+" horiz-adv-x="502" 
d="M223 268h-158v51h158v160h56v-160h158v-51h-158v-161h-56v161z" />
    <glyph glyph-name="comma" unicode="," horiz-adv-x="242" 
d="M99 -27c2 8 3.00098 17 3.00098 27c0 8 -0.5 17.333 -1.5 28s-1.83301 18.667 -2.5 24c0 10 3 18 9 24s14 9 24 9s17.833 -3.33301 23.5 -10s8.5 -14.334 8.5 -23.001c0 -22.667 -0.833008 -41.167 -2.5 -55.5s-4.83398 -27.166 -9.50098 -38.499
c-8 -20 -24.667 -39.333 -50 -58l-29 33c14 14 23 27.333 27 40z" />
    <glyph glyph-name="hyphen" unicode="-" horiz-adv-x="451" 
d="M77 334h297v-56h-297v56z" />
    <glyph glyph-name="period" unicode="." horiz-adv-x="247" 
d="M93.5 8.5c-8.33301 8.33301 -12.5 18.166 -12.5 29.499c0 12 4.16699 22.167 12.5 30.5s18.166 12.5 29.499 12.5c12 0 22.167 -4.16699 30.5 -12.5s12.5 -18.5 12.5 -30.5c0 -11.333 -4.16699 -21.166 -12.5 -29.499s-18.5 -12.5 -30.5 -12.5
c-11.333 0 -21.166 4.16699 -29.499 12.5z" />
    <glyph glyph-name="slash" unicode="/" horiz-adv-x="314" 
d="M235 750h63l-218 -820h-64z" />
    <glyph glyph-name="zero" unicode="0" horiz-adv-x="652" 
d="M180 36c-40.667 30.667 -71.666 71.3311 -92.999 121.998s-32 105.334 -32 164.001s10.667 113.334 32 164.001s52.5 91.167 93.5 121.5s89.5 45.5 145.5 45.5s104.5 -15.5 145.5 -46.5s72.167 -71.833 93.5 -122.5s32 -105.667 32 -165s-10.833 -114 -32.5 -164
s-53 -90 -94 -120s-89.167 -45 -144.5 -45c-56.667 0 -105.334 15.333 -146.001 46zM443.001 85.4971c31.333 26.333 54.834 60.667 70.501 103s23.5 87.166 23.5 134.499c0 48.667 -8.16699 93.834 -24.5 135.501s-40.333 75.167 -72 100.5s-69.5 38 -113.5 38
c-44.667 0 -83 -12.833 -115 -38.5s-56.167 -59.5 -72.5 -101.5s-24.5 -87 -24.5 -135s8.33301 -93.167 25 -135.5s41 -76.333 73 -102s70.333 -38.5 115 -38.5c45.333 0 83.666 13.167 114.999 39.5z" />
    <glyph glyph-name="one" unicode="1" horiz-adv-x="352" 
d="M122.5 521c-24.333 -10.667 -50.833 -16.001 -79.5 -16.001l-13 52c20 0 40.5 4.33301 61.5 13s41.5 19.334 61.5 32.001l95 63h8v-665h-60v569c-24.667 -21.333 -49.167 -37.333 -73.5 -48z" />
    <glyph glyph-name="two" unicode="2" horiz-adv-x="524" 
d="M89 145c28.667 38 71.999 79 129.999 123l33 24c30.667 22 55.334 41.167 74.001 57.5s34.5 35.5 47.5 57.5s19.5 46.667 19.5 74c0 37.333 -12.333 67.333 -37 90s-58 34 -100 34c-40 0 -74.167 -10.667 -102.5 -32s-48.166 -51.333 -59.499 -90l-47 24
c35.333 98.667 105.333 148 210 148c61.333 0 108.666 -15.5 141.999 -46.5s50 -73.833 50 -128.5c0 -36 -6.83301 -67.167 -20.5 -93.5s-31 -49 -52 -68s-50.5 -42.5 -88.5 -70.5c-26.667 -18.667 -50.667 -37 -72 -55c-31.333 -26 -55.333 -48.833 -72 -68.5
s-28 -42.167 -34 -67.5h372v-57h-436v13c0 50 14.333 94 43 132z" />
    <glyph glyph-name="three" unicode="3" horiz-adv-x="534" 
d="M126 15.5c-38.667 18.333 -71.6641 40.8281 -98.9971 67.4951l34 43c53.333 -54.667 116 -82 188 -82c49.333 0 90.833 12 124.5 36s50.5 58.667 50.5 104c0 30 -8 56 -24 78s-36.667 38.833 -62 50.5s-52 18.167 -80 19.5h-109v52h108c20.667 0 41.167 5.5 61.5 16.5
s37 25.833 50 44.5s19.5 38.667 19.5 60c0 30.667 -13.5 54.834 -40.5 72.501s-58.5 26.5 -94.5 26.5c-24 0 -48.833 -4.16699 -74.5 -12.5s-47.834 -20.166 -66.501 -35.499l-26 45c28.667 20.667 56 35.667 82 45s54 14 84 14c36 0 69 -6.16699 99 -18.5
s53.667 -30 71 -53s26 -49.833 26 -80.5c0 -34.667 -10.5 -66.167 -31.5 -94.5s-47.5 -46.166 -79.5 -53.499c43.333 -7.33301 78.666 -28 105.999 -62s41 -75 41 -123c0 -39.333 -10.333 -73.166 -31 -101.499s-48.334 -49.666 -83.001 -63.999s-72.667 -21.5 -114 -21.5
c-48 0 -91.333 9.16699 -130 27.5z" />
    <glyph glyph-name="four" unicode="4" horiz-adv-x="529" 
d="M353 126h-316v50l204 474h65l-200 -468h247v223h60v-223h84v-56h-84v-129h-60v129z" />
    <glyph glyph-name="five" unicode="5" horiz-adv-x="521" 
d="M141 12.5c-35.333 13.667 -65.333 32.166 -90 55.499l30 45c46 -44 99.333 -66 160 -66c52.667 0 94.834 16 126.501 48s47.5 74.667 47.5 128c0 50.667 -16.5 88.167 -49.5 112.5s-84.167 36.5 -153.5 36.5c-19.333 0 -43 -1.66699 -71 -5s-48.333 -7 -61 -11v285h333
v-56h-273v-165c38 5.33301 67.333 8 88 8c49.333 0 92.666 -8.66699 129.999 -26s66.166 -42 86.499 -74s30.5 -69.333 30.5 -112c0 -42 -9.83301 -80.167 -29.5 -114.5s-46.5 -61.166 -80.5 -80.499s-72.333 -29 -115 -29c-37.333 0 -73.666 6.83301 -108.999 20.5z" />
    <glyph glyph-name="six" unicode="6" horiz-adv-x="569" 
d="M168 16.5c-36.667 23.667 -65.332 56.5 -85.999 98.5s-31 89.333 -31 142c0 57.333 12.833 112.166 38.5 164.499s61.834 97.833 108.501 136.5c36 30 75.5 53 118.5 69s87.167 24 132.5 24l-1 -55c-39.333 0.666992 -77.833 -6 -115.5 -20s-72.167 -34.333 -103.5 -61
c-28 -24.667 -52 -53.5 -72 -86.5s-32.667 -65.167 -38 -96.5c16 30 40.5 54.5 73.5 73.5s67.5 28.5 103.5 28.5c40.667 0 78.667 -10.333 114 -31s63.333 -48.5 84 -83.5s31 -72.833 31 -113.5c0 -41.333 -10.333 -79.166 -31 -113.499s-48.834 -61.5 -84.501 -81.5
s-74.834 -30 -117.501 -30c-46 0 -87.333 11.833 -124 35.5zM379.502 60c26.333 15.333 47.1689 36 62.502 62s23 54.333 23 85s-7.66699 59 -23 85s-36 46.833 -62 62.5s-54.333 23.5 -85 23.5c-32.667 0 -62.334 -7.66699 -89.001 -23s-47.5 -36.166 -62.5 -62.499
s-22.5 -55.5 -22.5 -87.5c0 -30.667 7.83301 -58.834 23.5 -84.501s36.667 -46 63 -61s54.833 -22.5 85.5 -22.5c31.333 0 60.166 7.66699 86.499 23z" />
    <glyph glyph-name="seven" unicode="7" horiz-adv-x="481" 
d="M369 584l-338 1v56h417v-8l-254 -633h-64z" />
    <glyph glyph-name="eight" unicode="8" horiz-adv-x="548" 
d="M113 36.5c-41.333 35 -62 82.499 -62 142.499c0 39.333 10.333 73.833 31 103.5s49.334 57.834 86.001 84.501c-54 30 -81 73.333 -81 130c0 30 8 57 24 81s38.167 42.833 66.5 56.5s59.833 20.5 94.5 20.5s66.5 -6.83301 95.5 -20.5s51.833 -32.334 68.5 -56.001
s25 -49.5 25 -77.5c0 -32.667 -9 -61.167 -27 -85.5s-39.667 -44.166 -65 -59.499c39.333 -16.667 70.666 -40 93.999 -70s35 -66.333 35 -109c0 -60 -20.667 -107.167 -62 -141.5s-95 -51.5 -161 -51.5c-66.667 0 -120.667 17.5 -162 52.5zM378.5 432.999
c15 18 22.5 39.333 22.5 64c0 29.333 -12 54 -36 74s-54.333 30 -91 30s-67 -10 -91 -30s-36 -44.667 -36 -74c0 -46.667 29 -79 87 -97l66 -21l13 -4c28.667 20.667 50.5 40 65.5 58zM394.5 76.999c29 26 43.5 60.6709 43.5 104.004c0 31.333 -8.33301 56.666 -25 75.999
s-38 34.666 -64 45.999s-60.333 22.666 -103 33.999l-22 6l-21 -18c-33.333 -28 -57 -52.333 -71 -73s-21 -44 -21 -70c0 -44.667 14.667 -79.834 44 -105.501s69.333 -38.5 120 -38.5s90.5 13 119.5 39z" />
    <glyph glyph-name="nine" unicode="9" horiz-adv-x="566" 
d="M398 616.5c36.667 -23.667 65.332 -56.5 85.999 -98.5s31 -89.333 31 -142c0 -57.333 -12.833 -112.166 -38.5 -164.499s-61.834 -97.833 -108.501 -136.5c-36 -30 -75.5 -53 -118.5 -69s-87.167 -24 -132.5 -24l1 55c39.333 -0.666992 77.833 6 115.5 20
s72.167 34.333 103.5 61c28 24.667 52 53.5 72 86.5s32.667 65.167 38 96.5c-16 -30 -40.5 -54.5 -73.5 -73.5s-67.5 -28.5 -103.5 -28.5c-40.667 0 -78.667 10.333 -114 31s-63.333 48.5 -84 83.5s-31 72.833 -31 113.5c0 41.333 10.333 79.166 31 113.499
s48.834 61.5 84.501 81.5s74.834 30 117.501 30c46 0 87.333 -11.833 124 -35.5zM186.498 573c-26.333 -15.333 -47.1689 -36 -62.502 -62s-23 -54.333 -23 -85s7.66699 -59 23 -85s36 -46.833 62 -62.5s54.333 -23.5 85 -23.5c32.667 0 62.334 7.66699 89.001 23
s47.5 36.166 62.5 62.499s22.5 55.5 22.5 87.5c0 30.667 -7.83301 58.834 -23.5 84.501s-36.667 46 -63 61s-54.833 22.5 -85.5 22.5c-31.333 0 -60.166 -7.66699 -86.499 -23z" />
    <glyph glyph-name="colon" unicode=":" horiz-adv-x="238" 
d="M88.5 8.5c-8.33301 8.33301 -12.5 18.166 -12.5 29.499c0 12 4.16699 22.167 12.5 30.5s18.166 12.5 29.499 12.5c12 0 22.167 -4.16699 30.5 -12.5s12.5 -18.5 12.5 -30.5c0 -11.333 -4.16699 -21.166 -12.5 -29.499s-18.5 -12.5 -30.5 -12.5
c-11.333 0 -21.166 4.16699 -29.499 12.5zM88.5 402.5c-8.33301 8.33301 -12.5 18.166 -12.5 29.499c0 12 4.16699 22.167 12.5 30.5s18.166 12.5 29.499 12.5c12 0 22.167 -4.16699 30.5 -12.5s12.5 -18.5 12.5 -30.5c0 -11.333 -4.16699 -21.166 -12.5 -29.499
s-18.5 -12.5 -30.5 -12.5c-11.333 0 -21.166 4.16699 -29.499 12.5z" />
    <glyph glyph-name="semicolon" unicode=";" horiz-adv-x="237" 
d="M93.5 402.5c-8.33301 8.33301 -12.5 18.166 -12.5 29.499c0 12 4.16699 22.167 12.5 30.5s18.166 12.5 29.499 12.5c12 0 22.167 -4.16699 30.5 -12.5s12.5 -18.5 12.5 -30.5c0 -11.333 -4.16699 -21.166 -12.5 -29.499s-18.5 -12.5 -30.5 -12.5
c-11.333 0 -21.166 4.16699 -29.499 12.5zM90 -27c2 8 3.00098 17 3.00098 27c0 8 -0.5 17.333 -1.5 28s-1.83301 18.667 -2.5 24c0 10 3 18 9 24s14 9 24 9s17.833 -3.33301 23.5 -10s8.5 -14.334 8.5 -23.001c0 -22.667 -0.833008 -41.167 -2.5 -55.5
s-4.83398 -27.166 -9.50098 -38.499c-8 -20 -24.667 -39.333 -50 -58l-29 33c14 14 23 27.333 27 40z" />
    <glyph glyph-name="less" unicode="&#x3c;" horiz-adv-x="501" 
d="M70 233v72l344 152v-64l-287 -122l287 -131v-66z" />
    <glyph glyph-name="equal" unicode="=" horiz-adv-x="590" 
d="M119 399h352v-52h-352v52zM119 239h352v-52h-352v52z" />
    <glyph glyph-name="greater" unicode="&#x3e;" horiz-adv-x="504" 
d="M87 138l290 131l-290 122v64l347 -152v-72l-347 -159v66z" />
    <glyph glyph-name="question" unicode="?" horiz-adv-x="472" 
d="M114 185c0 35.333 7.6709 62.998 23.0039 82.998c13.333 18 28.166 32.333 44.499 43s36.833 22.334 61.5 35.001c86 42 129 95 129 159c0 43.333 -14.167 79.333 -42.5 108s-64.833 43 -109.5 43c-22 0 -42.833 -3.83301 -62.5 -11.5s-35.5 -17.667 -47.5 -30
s-18 -25.166 -18 -38.499c0 -17.333 10.667 -27.666 32 -30.999l-19 -55c-20.667 1.33301 -37.834 10 -51.501 26s-20.5 35.333 -20.5 58c0 25.333 8.5 48.5 25.5 69.5s40 37.667 69 50s60.5 18.5 94.5 18.5c40 0 76 -8.83301 108 -26.5s57 -42 75 -73s27 -65.5 27 -103.5
c0 -44.667 -10.333 -81.834 -31 -111.501s-56.334 -59.167 -107.001 -88.5l-26 -15c-22.667 -12.667 -38.334 -22.167 -47.001 -28.5s-17.667 -14.166 -27 -23.499c-15.333 -17.333 -23 -38 -23 -62c0 -12 1.33301 -24.333 4 -37l-56 -10
c-3.33301 15.333 -5 32.666 -5 51.999zM132.504 -0.501953c-8.33301 8.33301 -12.5 18.166 -12.5 29.499c0 12 4.16699 22.167 12.5 30.5s18.166 12.5 29.499 12.5c12 0 22.167 -4.16699 30.5 -12.5s12.5 -18.5 12.5 -30.5c0 -11.333 -4.16699 -21.166 -12.5 -29.499
s-18.5 -12.5 -30.5 -12.5c-11.333 0 -21.166 4.16699 -29.499 12.5z" />
    <glyph glyph-name="at" unicode="@" horiz-adv-x="749" 
d="M225 -25c-45.333 23.333 -80.998 57.3359 -106.998 102.003s-39 98.334 -39 161.001c0 60.667 12.333 114.667 37 162s59.5 84.166 104.5 110.499s97.5 39.5 157.5 39.5c57.333 0 108.666 -12.333 153.999 -37s80.666 -58.834 105.999 -102.501s38 -93.167 38 -148.5
c0 -52.667 -13 -95 -39 -127s-60.667 -48 -104 -48c-23.333 0 -44.666 6.33301 -63.999 19s-29 27.667 -29 45c-8.66699 -16.667 -21.334 -29.334 -38.001 -38.001s-34.334 -13 -53.001 -13c-37.333 0 -67.833 13.5 -91.5 40.5s-35.5 65.167 -35.5 114.5
c0 30.667 7 57.667 21 81s31.667 41.166 53 53.499s43.333 18.5 66 18.5c2.66699 0 14 -0.666992 34 -2l31 -3h48v-207c3.33301 -20 10.166 -34.833 20.499 -44.5s22.833 -14.5 37.5 -14.5c26.667 0 47.167 12 61.5 36s21.5 54 21.5 90c0 44.667 -9.83301 84.667 -29.5 120
s-47.5 63 -83.5 83s-77.333 30 -124 30c-48.667 0 -91.167 -11 -127.5 -33s-64.166 -52.333 -83.499 -91s-29 -83 -29 -133c0 -76.667 21.833 -136.667 65.5 -180s105.167 -65 184.5 -65c34 0 67.667 3.83301 101 11.5s61 18.5 83 32.5l15 -50
c-34.667 -18 -70.167 -30.5 -106.5 -37.5s-70.166 -10.5 -101.499 -10.5c-58 0 -109.667 11.667 -155 35zM413.002 202.003l5.99902 16v131c-24.667 3.33301 -43 5 -55 5c-26 0 -46.833 -9.16699 -62.5 -27.5s-23.5 -41.833 -23.5 -70.5c0 -68 23.333 -102 70 -102
c26.667 0 48.334 16 65.001 48z" />
    <glyph glyph-name="A" unicode="A" horiz-adv-x="748" 
d="M59.5 4c-15 11.333 -24.833 26.002 -29.5 44.002l46 25c3.33301 -8.66699 8.16602 -15.834 14.499 -21.501s13.833 -8.5 22.5 -8.5c8 0 14.5 2.66699 19.5 8s10.167 14.333 15.5 27l256 615h20l291 -693h-64l-95 227h-285l-75 -186
c-6.66699 -16.667 -17.667 -29.834 -33 -39.501s-31.666 -14.5 -48.999 -14.5c-21.333 0 -39.5 5.66699 -54.5 17zM532 283.002l-108 269l-11 40l-10 -40l-108 -269h237z" />
    <glyph glyph-name="B" unicode="B" horiz-adv-x="662" 
d="M120.5 636.5c-6.33301 -1.66699 -11.8359 -4.83398 -16.5029 -9.50098c-4 -4 -7.5 -9.5 -10.5 -16.5s-4.5 -13.5 -4.5 -19.5l-55 1c1.33301 31.333 11.333 56.333 30 75c10 9.33301 21.833 16.166 35.5 20.499s30.834 6.83301 51.501 7.5h220c38 0 72.333 -7.5 103 -22.5
s54.834 -36.167 72.501 -63.5s26.5 -59 26.5 -95c0 -33.333 -6.83301 -62.166 -20.5 -86.499s-32.167 -40.5 -55.5 -48.5c-0.666992 0 -2.5 -0.833008 -5.5 -2.5s-11.167 -4.5 -24.5 -8.5c4 -1.33301 8.83301 -2.66602 14.5 -3.99902s11.5 -3.33301 17.5 -6
c33.333 -15.333 59.333 -38.5 78 -69.5s28 -66.833 28 -107.5c0 -65.333 -24.167 -113.5 -72.5 -144.5s-116.833 -46.5 -205.5 -46.5c-56 0 -97.333 1.66699 -124 5l-53 6v638c-13.333 0 -23.166 -0.833008 -29.499 -2.5zM544.997 183c0 47.333 -16 84.5 -48 111.5
s-72 40.5 -120 40.5h-95v55h88c43.333 0 78 11 104 33s39 52.667 39 92c0 38.667 -11.5 68.5 -34.5 89.5s-54.167 32.5 -93.5 34.5h-175v-589l98 -4l36 -1c134 0 201 46 201 138z" />
    <glyph glyph-name="C" unicode="C" horiz-adv-x="715" 
d="M221.5 25.5c-51.667 32.333 -92.1699 76.002 -121.503 131.002s-44 114.833 -44 179.5c0 66.667 15.333 128.834 46 186.501s72.334 103.5 125.001 137.5s110.667 51 174 51c39.333 0 77.166 -5.83301 113.499 -17.5s66 -28.834 89 -51.501s34.5 -50 34.5 -82
c0 -26 -9.16699 -48.167 -27.5 -66.5s-40.166 -27.5 -65.499 -27.5c-20 0 -39 6.66699 -57 20l35 44c8.66699 -5.33301 16.334 -8 23.001 -8c8.66699 0 16 3.66699 22 11s9 16.666 9 27.999c0 19.333 -9.16699 36 -27.5 50s-41.166 24.667 -68.499 32s-53.666 11 -78.999 11
c-54 0 -102.833 -14.5 -146.5 -43.5s-77.834 -67.833 -102.501 -116.5s-37 -101.334 -37 -158.001c0 -54.667 11.833 -105.167 35.5 -151.5s56.667 -83 99 -110s90.833 -40.5 145.5 -40.5c48 0 92.833 10.833 134.5 32.5s75.5 51.5 101.5 89.5l46 -32
c-32.667 -48 -74 -84.5 -124 -109.5s-103 -37.5 -159 -37.5c-64 0 -121.833 16.167 -173.5 48.5z" />
    <glyph glyph-name="D" unicode="D" horiz-adv-x="787" 
d="M255.5 -7c-25 0.666992 -44.502 1.33398 -58.502 2.00098l-47 5v634c-13.333 0 -23.166 -0.833008 -29.499 -2.5s-11.833 -4.83398 -16.5 -9.50098c-4 -4 -7.5 -9.5 -10.5 -16.5s-4.5 -13.5 -4.5 -19.5l-55 1c1.33301 31.333 11.333 56.333 30 75
c10 9.33301 21.833 16.166 35.5 20.499s30.834 6.83301 51.501 7.5l262 -1c61.333 -1.33301 116 -17.166 164 -47.499s85.5 -71.833 112.5 -124.5s40.5 -112 40.5 -178c0 -114.667 -33.5 -201.167 -100.5 -259.5s-166.833 -87.5 -299.5 -87.5
c-24.667 0 -49.5 0.333008 -74.5 1zM583.498 122c57.667 49.333 86.498 121.333 86.498 216c0 58.667 -11.167 110.167 -33.5 154.5s-53.666 78.833 -93.999 103.5s-86.833 37 -139.5 37h-193v-580l30 -1c38.667 -2.66699 69.334 -4 92.001 -4
c110 0 193.833 24.667 251.5 74z" />
    <glyph glyph-name="E" unicode="E" horiz-adv-x="634" 
d="M120.5 625.5c-6.33301 -1.66699 -11.835 -4.83203 -16.502 -9.49902c-4 -4 -7.5 -9.5 -10.5 -16.5s-4.5 -13.5 -4.5 -19.5l-55 1c1.33301 31.333 11.333 56.333 30 75c10 9.33301 21.833 16.166 35.5 20.499s30.834 6.83301 51.501 7.5h437v-56h-378v-238h258v-56h-258
v-278h378v-56h-438v628c-13.333 0 -23.166 -0.833008 -29.499 -2.5z" />
    <glyph glyph-name="F" unicode="F" horiz-adv-x="622" 
d="M120.5 624.5c-6.33301 -1.66699 -11.835 -4.83203 -16.502 -9.49902c-4 -4 -7.5 -9.5 -10.5 -16.5s-4.5 -13.5 -4.5 -19.5l-55 1c1.33301 31.333 11.333 56.333 30 75c10 9.33301 21.833 16.166 35.5 20.499s30.834 6.83301 51.501 7.5h437v-56h-378v-238h258v-56h-258
v-334h-60v628c-13.333 0 -23.166 -0.833008 -29.499 -2.5z" />
    <glyph glyph-name="G" unicode="G" horiz-adv-x="728" 
d="M675 342v-80.9971c0 -54.667 -13.5 -103.5 -40.5 -146.5s-62.667 -76.333 -107 -100s-91.166 -35.5 -140.499 -35.5c-62.667 0 -119.334 15.833 -170.001 47.5s-90.167 74.167 -118.5 127.5s-42.5 111.666 -42.5 174.999c0 66 14.667 127.333 44 184
s70 101.834 122 135.501s110 50.5 174 50.5c32.667 0 66.667 -4.83301 102 -14.5s65.5 -25.334 90.5 -47.001s37.5 -49.167 37.5 -82.5c0 -28 -8.33301 -50.833 -25 -68.5s-37.667 -26.5 -63 -26.5c-9.33301 0 -18.5 1.83301 -27.5 5.5s-16.5 8.5 -22.5 14.5l28 41
c2 -2 5.5 -3.83301 10.5 -5.5s9.16699 -2.5 12.5 -2.5c9.33301 0 17.166 4.16699 23.499 12.5s9.5 18.166 9.5 29.499c0 29.333 -18.667 51.333 -56 66s-76 22 -116 22c-52.667 0 -100.667 -14.333 -144 -43s-77.5 -67.167 -102.5 -115.5s-37.5 -100.5 -37.5 -156.5
c0 -50.667 11.833 -98.5 35.5 -143.5s55.834 -81.167 96.501 -108.5s85.334 -41 134.001 -41c42 0 81.167 9.66699 117.5 29s65.166 45.666 86.499 78.999s32 70.333 32 111v32h-243v56h300z" />
    <glyph glyph-name="H" unicode="H" horiz-adv-x="724" 
d="M126.5 628c-6.33301 8.66699 -15.166 13 -26.499 13c-16.667 0 -30.334 -8.66699 -41.001 -26l-45 32c7.33301 14 18.333 26 33 36s32 15 52 15c29.333 0 52.833 -9.66699 70.5 -29s26.5 -44 26.5 -74v-211h369v300h60v-684h-60v328h-369v-328h-60v595
c0 13.333 -3.16699 24.333 -9.5 33z" />
    <glyph glyph-name="I" unicode="I" horiz-adv-x="261" 
d="M100 684h61v-684h-61v684z" />
    <glyph glyph-name="J" unicode="J" horiz-adv-x="516" 
d="M89.5 46c-29.667 35.333 -45.168 78.665 -46.501 129.998l57 -5c0 -37.333 11.333 -67 34 -89s55.334 -33 98.001 -33c48.667 0 83 13.833 103 41.5s30 61.167 30 100.5v427c-14 -8.66699 -32.333 -13 -55 -13c-16 0 -29.833 1.5 -41.5 4.5s-25.834 8.16699 -42.501 15.5
c-13.333 5.33301 -24 9.33301 -32 12s-16.333 4 -25 4c-11.333 0 -22.666 -2 -33.999 -6s-26.333 -10 -45 -18l-25 50c29.333 12 50.666 19.833 63.999 23.5s26.666 5.5 39.999 5.5c9.33301 0 22.5 -2.16699 39.5 -6.5s33.833 -10.166 50.5 -17.499
c18.667 -8 36.334 -12 53.001 -12c8.66699 0 19.834 3.5 33.501 10.5s20.5 12.5 20.5 16.5h59v-499c0 -55.333 -16 -101.666 -48 -138.999s-81.333 -56 -148 -56c-63.333 0 -109.833 17.667 -139.5 53z" />
    <glyph glyph-name="K" unicode="K" horiz-adv-x="694" 
d="M126.5 627c-6.33301 8.66699 -15.1611 13 -26.4941 13c-16.667 0 -30.334 -8.66699 -41.001 -26l-45 32c7.33301 14 18.333 26 33 36s32 15 52 15c29.333 0 52.833 -9.66699 70.5 -29s26.5 -44 26.5 -74v-222h44c22.667 0 44.667 4.66699 66 14
c21.333 10 38 22.333 50 37c20 25.333 43 61 69 107c15.333 28 40.666 79.333 75.999 154h69c-51.333 -98 -85.333 -161.333 -102 -190c-24 -42 -41.333 -70.333 -52 -85c-12 -16.667 -21.667 -29.167 -29 -37.5s-16 -16.5 -26 -24.5l201 -284
c7.33301 -10 16.666 -15 27.999 -15c12.667 0 22.334 4.66699 29.001 14l46 -32c-9.33301 -12 -20.833 -21.333 -34.5 -28s-27.834 -10 -42.501 -10c-14 0 -27.333 3.5 -40 10.5s-23.334 16.5 -32.001 28.5l-208 294c-14.667 -4.66699 -27.334 -7.66699 -38.001 -9
s-24.334 -2 -41.001 -2h-31v-313h-62v593c0 13.333 -3.16699 24.333 -9.5 33z" />
    <glyph glyph-name="L" unicode="L" horiz-adv-x="540" 
d="M100 684h60v-628h347v-56h-407v684z" />
    <glyph glyph-name="M" unicode="M" horiz-adv-x="1018" 
d="M62.5 -1.5c-15 10.333 -25.834 23.5 -32.501 39.5l52 21c4 -6.66699 8.33301 -11.667 13 -15s10.667 -5 18 -5c14.667 0 24.334 7.33301 29.001 22l131 623h59l209 -571l11 -39l11 39l211 571h60l140 -684h-60l-113 563l-6 38l-11 -39l-203 -562h-59l-202 561l-11 40
l-6 -40l-105 -507c-4 -20 -13.833 -36.833 -29.5 -50.5s-34.167 -20.5 -55.5 -20.5c-18.667 0 -35.5 5.16699 -50.5 15.5z" />
    <glyph glyph-name="N" unicode="N" horiz-adv-x="781" 
d="M63 -2c-14 7.33301 -25.334 17.334 -34.001 30.001l47 32c3.33301 -5.33301 8 -9.33301 14 -12s11.667 -4 17 -4c8.66699 0 16.334 3.66699 23.001 11s10 15.666 10 24.999v604h38l111 -125l320 -408l14 -22l-3 554h62v-683h-21l-451 563l-12 21l4 -505
c0 -26.667 -9.33301 -48.667 -28 -66s-40.667 -26 -66 -26c-16 0 -31 3.66699 -45 11z" />
    <glyph glyph-name="O" unicode="O" horiz-adv-x="798" 
d="M226.5 28.5c-52.333 30.333 -93.668 72 -124.001 125s-45.5 111.833 -45.5 176.5v19c0 65.333 15 124.833 45 178.5s71 95.834 123 126.501s109.667 46 173 46c64 0 122 -15.333 174 -46s93 -72.834 123 -126.501s45 -113.167 45 -178.5v-19
c0 -66 -14.667 -125.333 -44 -178s-69.666 -94 -120.999 -124s-109 -45 -173 -45c-64.667 0 -123.167 15.167 -175.5 45.5zM541.998 77c42.667 25.333 76.333 60.166 101 104.499s37 93.833 37 148.5v19c0 55.333 -12.5 105.5 -37.5 150.5s-59 80.333 -102 106
s-90.833 38.5 -143.5 38.5c-52 0 -99.333 -13 -142 -39s-76.334 -61.5 -101.001 -106.5s-37 -94.833 -37 -149.5v-19c0 -54.667 12.333 -104.167 37 -148.5s58.5 -79.166 101.5 -104.499s90.833 -38 143.5 -38s100.334 12.667 143.001 38z" />
    <glyph glyph-name="P" unicode="P" horiz-adv-x="607" 
d="M120.5 625.5c-6.33301 -1.66699 -11.835 -4.83301 -16.502 -9.5c-4 -4 -7.5 -9.5 -10.5 -16.5s-4.5 -13.5 -4.5 -19.5l-55 1c1.33301 31.333 11.333 56.333 30 75c10 9.33301 21.833 16.166 35.5 20.499s30.834 6.83301 51.501 7.5h215c60 0 107 -19.667 141 -59
s51 -90.333 51 -153c0 -47.333 -10 -87.166 -30 -119.499s-46.667 -56.333 -80 -72s-70.333 -23.5 -111 -23.5c-17.333 0 -42 1.66699 -74 5v54c31.333 -2 54.333 -3 69 -3c110.667 0 166 52.667 166 158c0 52 -13 91.167 -39 117.5s-61.667 39.5 -107 39.5h-142v-629h-60
v629c-13.333 0 -23.166 -0.833008 -29.499 -2.5z" />
    <glyph glyph-name="Q" unicode="Q" horiz-adv-x="779" 
d="M305 0c-80 18.667 -141.333 59.1709 -184 121.504s-64 135.833 -64 220.5c0 67.333 13.833 127.666 41.5 180.999s66.667 95.166 117 125.499s108.166 45.5 173.499 45.5c66 0 124.333 -15.333 175 -46s89.667 -72.834 117 -126.501s41 -113.834 41 -180.501
c0 -67.333 -13.833 -127.5 -41.5 -180.5s-66.667 -94.5 -117 -124.5s-108.166 -45 -173.499 -45h-28l-59 -85l80 -27c38.667 -13.333 75.667 -20 111 -20c16.667 0 32 2.33301 46 7s31 14 51 28l25 -44c-25.333 -18 -45.833 -29.667 -61.5 -35s-33.5 -8 -53.5 -8
c-44 0 -87.333 7.33301 -130 22l-99 33l-42 -61l-43 33zM535 83.5039c41.333 25.667 72.832 61.167 94.499 106.5s32.5 96.333 32.5 153s-11 107.5 -33 152.5s-53.5 80.167 -94.5 105.5s-89.167 38 -144.5 38s-103.666 -12.667 -144.999 -38s-73 -60.333 -95 -105
s-33 -95.667 -33 -153c0 -56.667 10.833 -107.5 32.5 -152.5s53 -80.5 94 -106.5s89.5 -39 145.5 -39s104.667 12.833 146 38.5z" />
    <glyph glyph-name="R" unicode="R" horiz-adv-x="705" 
d="M120.5 625.5c-6.33301 -1.66699 -11.835 -4.83008 -16.502 -9.49707c-4 -4 -7.5 -9.5 -10.5 -16.5s-4.5 -13.5 -4.5 -19.5l-55 1c1.33301 31.333 11.333 56.333 30 75c10 9.33301 21.833 16.166 35.5 20.499s30.834 6.83301 51.501 7.5h223c29.333 0 56 -5.66699 80 -17
c32.667 -16 58.834 -41.167 78.501 -75.5s29.5 -72.5 29.5 -114.5c0 -34.667 -6.83301 -66.167 -20.5 -94.5s-32.667 -50.833 -57 -67.5s-51.833 -25 -82.5 -25l-25 -1l13 -4c5.33301 -1.33301 12 -5 20 -11s14 -11.667 18 -17l145 -196c8 -10.667 16.667 -16 26 -16
c12.667 0 22.667 6 30 18l47 -34c-8 -12 -18.833 -21.5 -32.5 -28.5s-28.167 -10.5 -43.5 -10.5c-30 0 -54.667 13 -74 39l-119 164c-18.667 25.333 -37.167 44.666 -55.5 57.999s-44.833 21.666 -79.5 24.999v56h87c44 0 78.833 13 104.5 39s38.5 61.333 38.5 106
s-12.333 81 -37 109s-56.334 42 -95.001 42h-160v-628h-60v628c-13.333 0 -23.166 -0.833008 -29.499 -2.5z" />
    <glyph glyph-name="S" unicode="S" horiz-adv-x="560" 
d="M172.5 1.5c-35 15 -64.832 35.6699 -89.499 62.0029s-41 55.833 -49 88.5l50 21c10.667 -40.667 34.5 -74 71.5 -100s79.167 -39 126.5 -39c32 0 61 7 87 21s46.5 33.167 61.5 57.5s22.5 51.166 22.5 80.499c0 23.333 -5 43.5 -15 60.5s-27 33.333 -51 49
s-58.333 32.834 -103 51.501c-65.333 27.333 -111.666 55.166 -138.999 83.499s-41 62.5 -41 102.5c0 31.333 8 59.666 24 84.999s38.167 45.166 66.5 59.499s60.166 21.5 95.499 21.5c30.667 0 58.334 -5.16699 83.001 -15.5s44 -24.666 58 -42.999s21 -38.833 21 -61.5
c0 -26.667 -9.83301 -48.667 -29.5 -66s-43.834 -24.333 -72.501 -21l4 52c10.667 -1.33301 20 1.5 28 8.5s12 16.167 12 27.5c0 17.333 -10.333 32.333 -31 45s-44.667 19 -72 19c-22.667 0 -43.834 -4.83301 -63.501 -14.5s-35.167 -22.834 -46.5 -39.501
s-17 -34.667 -17 -54c0 -28 11.833 -52.833 35.5 -74.5s63.5 -44.5 119.5 -68.5c70 -30 119.833 -60.833 149.5 -92.5s44.5 -69.5 44.5 -113.5c0 -39.333 -10.333 -75.5 -31 -108.5s-48.667 -59 -84 -78s-74 -28.5 -116 -28.5c-38 0 -74.5 7.5 -109.5 22.5z" />
    <glyph glyph-name="T" unicode="T" horiz-adv-x="607" 
d="M124 628c-10.667 0 -19 -3.5 -25 -10.5s-9 -14.833 -9 -23.5h-57c0 24.667 8.66699 45.667 26 63c18 18 38.667 27 62 27h453v-56h-234v-628h-60v628h-156z" />
    <glyph glyph-name="U" unicode="U" horiz-adv-x="734" 
d="M255.5 27.5c-39 25 -68.667 58.4971 -89 100.497s-30.5 88.333 -30.5 139v328c0 13.333 -3.16699 24.333 -9.5 33s-15.166 13 -26.499 13c-16.667 0 -30.334 -8.66699 -41.001 -26l-45 32c7.33301 14 18.333 26 33 36s32 15 52 15c29.333 0 52.833 -9.66699 70.5 -29
s26.5 -44 26.5 -74v-328c0 -41.333 7.66699 -78.666 23 -111.999s37.833 -59.833 67.5 -79.5s65.167 -29.5 106.5 -29.5c44 0 80.667 10.667 110 32s51 48.833 65 82.5s21 69.167 21 106.5v417h60v-417c0 -47.333 -9.33301 -92.166 -28 -134.499
s-47.167 -76.666 -85.5 -102.999s-85.5 -39.5 -141.5 -39.5c-53.333 0 -99.5 12.5 -138.5 37.5z" />
    <glyph glyph-name="V" unicode="V" horiz-adv-x="669" 
d="M108.5 629c-5.66699 4.66699 -11.832 7.00098 -18.499 7.00098c-2 0 -5.66699 -0.666992 -11 -2c-8.66699 -2.66699 -14 -6.66699 -16 -12l-44 31c8 15.333 22.333 26.666 43 33.999c10.667 4 21.334 6 32.001 6c18.667 0 35.167 -5.5 49.5 -16.5
s25.166 -26.833 32.499 -47.5l182 -507l9 -38l9 39l197 562h60l-237 -685h-58l-217 610c-2.66699 8 -6.83398 14.333 -12.501 19z" />
    <glyph glyph-name="W" unicode="W" horiz-adv-x="1094" 
d="M116.5 633c-5.66699 4.66699 -12.168 6.99902 -19.501 6.99902c-4 0 -7 -0.333008 -9 -1c-9.33301 -4 -14.666 -8 -15.999 -12l-43 32c6.66699 14.667 21.334 26 44.001 34c8 2.66699 17.333 4 28 4c18.667 0 35.667 -5.83301 51 -17.5s26.333 -28.167 33 -49.5l171 -530
l4 -21l5 21l188 585h59l188 -585l6 -28l3 28l188 585h60l-223 -685h-59l-193 591l-192 -591h-59l-202 613c-2.66699 8.66699 -6.83398 15.334 -12.501 20.001z" />
    <glyph glyph-name="X" unicode="X" horiz-adv-x="621" 
d="M290 405l181.001 279.001h71l-218 -332l168 -287c6 -9.33301 14.667 -14 26 -14c10 0 18 3.66699 24 11l49 -34c-8.66699 -11.333 -19.834 -20 -33.501 -26s-28.167 -9 -43.5 -9c-20.667 0 -37.5 5.66699 -50.5 17s-26.5 29.666 -40.5 54.999l-135 244l-176 -309h-71
l211 363l-213 321h69z" />
    <glyph glyph-name="Y" unicode="Y" horiz-adv-x="601" 
d="M109.5 631c-5.66699 4 -11.832 6 -18.499 6c-4.66699 0 -9.33398 -1.33301 -14.001 -4c-7.33301 -4 -12 -8.66699 -14 -14l-48 24c4.66699 16 17 29.667 37 41c12.667 7.33301 27 11 43 11s30.833 -4.5 44.5 -13.5s25.167 -21.833 34.5 -38.5l154 -282l181 324h64
l-216 -386l2 -299h-61v297l-175 318c-3.33301 6.66699 -7.83301 12 -13.5 16z" />
    <glyph glyph-name="Z" unicode="Z" horiz-adv-x="578" 
d="M402 628l-329.002 -0.000976562v56h430l-350 -589l30 -7c12 -2.66699 34.333 -9 67 -19c32.667 -9.33301 57.667 -16.166 75 -20.499s34.333 -6.5 51 -6.5c22.667 0 45.334 4.5 68.001 13.5s42.667 21.833 60 38.5l41 -38c-48.667 -46.667 -105 -70 -169 -70
c-25.333 0 -49.833 2.83301 -73.5 8.5s-54.5 14.5 -92.5 26.5c-6 2 -18.167 5.83301 -36.5 11.5s-35.166 10.167 -50.499 13.5l-36 -62l-50 29z" />
    <glyph glyph-name="bracketleft" unicode="[" horiz-adv-x="368" 
d="M96 750h237v-56h-177v-812h177v-56h-237v924z" />
    <glyph glyph-name="backslash" unicode="\" horiz-adv-x="314" 
d="M16 750h63l219 -820h-64z" />
    <glyph glyph-name="bracketright" unicode="]" horiz-adv-x="368" 
d="M272 -174h-237v56h177v812h-177v56h237v-924z" />
    <glyph glyph-name="asciicircum" unicode="^" horiz-adv-x="497" 
d="M246 524l-135 -194l-48 33l175 252h20l175 -252l-50 -35z" />
    <glyph glyph-name="underscore" unicode="_" horiz-adv-x="594" 
d="M77 -78h440v-56h-440v56z" />
    <glyph glyph-name="grave" unicode="`" horiz-adv-x="233" 
d="M27 698l44 42l134 -150l-28 -30z" />
    <glyph glyph-name="a" unicode="a" horiz-adv-x="588" 
d="M142 25c-32.667 23.333 -57.3311 54.333 -73.998 93s-25 81.334 -25 128.001c0 51.333 10 96.833 30 136.5s48.667 70.5 86 92.5s81 33 131 33c15.333 0 34.666 -0.833008 57.999 -2.5s44 -3.83398 62 -6.50098h60v-413c0 -13.333 3.16699 -23.5 9.5 -30.5
s14.166 -10.5 23.499 -10.5c12 0 21.667 5.66699 29 17l43 -34c-10 -14 -21.167 -23.833 -33.5 -29.5s-26.5 -8.5 -42.5 -8.5c-23.333 0 -43.833 8 -61.5 24s-26.5 35.333 -26.5 58c-16 -26.667 -37 -47 -63 -61s-55.333 -21 -88 -21c-46 0 -85.333 11.667 -118 35z
M342.003 66c24 14.667 42.001 34.002 54.001 58.002c9.33301 19.333 14 40.666 14 63.999v262l-66 2l-58 2c-60.667 0 -106.334 -19 -137.001 -57s-46 -87.667 -46 -149c0 -56.667 13.5 -104.834 40.5 -144.501s66.167 -59.5 117.5 -59.5c30 0 57 7.33301 81 22z" />
    <glyph glyph-name="b" unicode="b" horiz-adv-x="548" 
d="M153 -4c-32.667 4 -57.334 8.66797 -74.001 14.001v716h60v-293c16.667 25.333 38.5 44.166 65.5 56.499s55.833 18.5 86.5 18.5c42 0 79.167 -11 111.5 -33s57.333 -52.667 75 -92s26.5 -84 26.5 -134c0 -75.333 -20.833 -137.333 -62.5 -186s-105.5 -73 -191.5 -73
c-33.333 0 -65.666 2 -96.999 6zM399 100.501c30 37.667 45.001 86.834 45.001 147.501c0 43.333 -6.83301 80.5 -20.5 111.5s-32.334 54.5 -56.001 70.5s-50.167 24 -79.5 24c-34 0 -65.667 -10.333 -95 -31c-32.667 -22.667 -50.667 -54.334 -54 -95.001v-275l53 -6
c17.333 -2 36.333 -3 57 -3c70 0 120 18.833 150 56.5z" />
    <glyph glyph-name="c" unicode="c" horiz-adv-x="495" 
d="M106 57.5c-41.333 42.333 -62.001 102.499 -62.001 180.499c0 54 9.66699 101.667 29 143s46.333 73.5 81 96.5s74.667 34.5 120 34.5c34 0 64.667 -6.66699 92 -20s48.833 -31.5 64.5 -54.5s23.5 -48.833 23.5 -77.5h-56c0 28.667 -11.333 52.167 -34 70.5
s-52 27.5 -88 27.5c-52.667 0 -94.5 -20 -125.5 -60s-46.5 -93.667 -46.5 -161c0 -61.333 15.333 -108.166 46 -140.499s74.667 -48.5 132 -48.5c24.667 0 49.334 3.5 74.001 10.5s52.667 18.833 84 35.5l26 -42c-56.667 -38.667 -118 -58 -184 -58
c-76 0 -134.667 21.167 -176 63.5z" />
    <glyph glyph-name="d" unicode="d" horiz-adv-x="586" 
d="M143 24.5c-32.667 23 -57.498 54 -74.498 93s-25.5 81.833 -25.5 128.5c0 50.667 10 95.834 30 135.501s48.5 70.667 85.5 93s80.5 33.5 130.5 33.5c15.333 0 34.666 -0.833008 57.999 -2.5s44 -3.83398 62 -6.50098v228h60l-1 -641c0 -13.333 3.16699 -23.5 9.5 -30.5
s14.166 -10.5 23.499 -10.5c12 0 21.667 5.66699 29 17l43 -34c-10 -14 -21.167 -23.833 -33.5 -29.5s-26.5 -8.5 -42.5 -8.5c-23.333 0 -43.833 8 -61.5 24s-26.5 35.333 -26.5 58c-16 -26.667 -36.833 -47 -62.5 -61s-54.5 -21 -86.5 -21
c-45.333 0 -84.333 11.5 -117 34.5zM341.502 65c23 14 40.832 33.667 53.499 59c9.33301 18.667 14 40 14 64v258l-21 3c-31.333 4.66699 -57.333 7 -78 7c-73.333 0 -126.166 -18.167 -158.499 -54.5s-48.5 -85.833 -48.5 -148.5c0 -60 14.167 -109.833 42.5 -149.5
s67.5 -59.5 117.5 -59.5c29.333 0 55.5 7 78.5 21z" />
    <glyph glyph-name="e" unicode="e" horiz-adv-x="499" 
d="M148 21c-34.667 20.667 -60.834 49.168 -78.501 85.501s-26.5 77.5 -26.5 123.5c0 45.333 8.5 89.333 25.5 132s42.667 77.667 77 105s76.166 41 125.499 41c32.667 0 63 -6.33301 91 -19s50.167 -30.667 66.5 -54s24.5 -50.333 24.5 -81c0 -49.333 -21 -87.5 -63 -114.5
s-100 -40.167 -174 -39.5l-110 1c6 -51.333 23.167 -90.333 51.5 -117s67.5 -40 117.5 -40c30 0 57.833 4.16699 83.5 12.5s50.5 21.166 74.5 38.499l30 -40c-25.333 -20 -54.166 -35.833 -86.499 -47.5s-66.166 -17.5 -101.499 -17.5c-50 0 -92.333 10.333 -127 31z
M393 355.001c0 33.333 -11.499 58.165 -34.499 74.498s-51.167 24.5 -84.5 24.5c-37.333 0 -68.833 -10.667 -94.5 -32s-44.834 -47.666 -57.501 -78.999s-19 -61.666 -19 -90.999h126c109.333 0 164 34.333 164 103z" />
    <glyph glyph-name="f" unicode="f" horiz-adv-x="387" 
d="M119.5 684.5c26.333 38.333 68.167 57.502 125.5 57.502c45.333 0 81 -13.333 107 -40s39 -63.334 39 -110.001c0 -56.667 -18.5 -101.167 -55.5 -133.5s-86.167 -46.833 -147.5 -43.5l-48 3v-166h148v-54h-148v-458h-60v762c0 83.333 13.167 144.166 39.5 182.499z
M293.001 500.502c25.333 22.333 38 53.168 38 92.501c0 30.667 -7.66699 54.167 -23 70.5s-37 24.5 -65 24.5c-35.333 0 -61.333 -14.833 -78 -44.5s-25 -75.834 -25 -138.501v-38h48c44.667 0 79.667 11.167 105 33.5z" />
    <glyph glyph-name="g" unicode="g" horiz-adv-x="544" 
d="M233 -259c-23.333 13.333 -41.668 31.5 -55.001 54.5s-20 48.5 -20 76.5c0 50.667 19 91.667 57 123c-51.333 12 -92.833 41.833 -124.5 89.5s-47.5 104.167 -47.5 169.5c0 51.333 10.333 96.333 31 135s49.834 68.667 87.501 90s81.167 32 130.5 32
c26 0 44.333 -1 55 -3l60 -7h57v-617c0 -48.667 -14.167 -88 -42.5 -118s-65.5 -45 -111.5 -45c-28 0 -53.667 6.66699 -77 20zM340.998 82c18.667 14.667 33.832 31 45.499 49s17.5 34.333 17.5 49v268l-91 5h-33c-33.333 0 -63.5 -8.83301 -90.5 -26.5
s-48.167 -42 -63.5 -73s-23 -65.833 -23 -104.5c0 -36.667 6.66699 -70.5 20 -101.5s31.333 -55.5 54 -73.5s47.334 -27 74.001 -27c30.667 0 60.667 11.667 90 35zM378.496 -193c15.667 18.667 24.1641 45.332 25.4971 79.999v194
c-1.33301 -1.33301 -6.16602 -8.16602 -14.499 -20.499s-18.166 -23.166 -29.499 -32.499c-12 -10.667 -31 -23.334 -57 -38.001c-18 -10.667 -28.333 -17 -31 -19c-34.667 -22 -52 -54.667 -52 -98c0 -26.667 9.16699 -49 27.5 -67s40.833 -27 67.5 -27
s47.834 9.33301 63.501 28z" />
    <glyph glyph-name="h" unicode="h" horiz-adv-x="587" 
d="M478.5 60.5c6.33301 -6.33301 13.8311 -9.50195 22.498 -9.50195c13.333 0 23 5.66699 29 17l44 -33c-5.33301 -11.333 -14.666 -20.833 -27.999 -28.5s-28.333 -11.5 -45 -11.5c-26.667 0 -48.667 8.33301 -66 25s-26 38.334 -26 65.001v262
c0 36.667 -9.5 64.5 -28.5 83.5s-46.833 28.5 -83.5 28.5c-32 0 -59.833 -8.5 -83.5 -25.5s-48.167 -42.5 -73.5 -76.5v-354h-60v726h60v-302c42 57.333 96.667 86 164 86c54.667 0 95.834 -14 123.501 -42s41.5 -68.333 41.5 -121v-266
c0 -9.33301 3.16699 -17.166 9.5 -23.499z" />
    <glyph glyph-name="i" unicode="i" horiz-adv-x="253" 
d="M144.5 60.5c6.33301 -6.33301 13.832 -9.50195 22.499 -9.50195c13.333 0 23 5.66699 29 17l44 -33c-5.33301 -11.333 -14.666 -20.833 -27.999 -28.5s-28.333 -11.5 -45 -11.5c-26.667 0 -48.667 8.33301 -66 25s-26 38.334 -26 65.001v415h60v-416
c0 -9.33301 3.16699 -17.166 9.5 -23.499zM72.499 577.498c-8.33301 8.33301 -12.5 18.166 -12.5 29.499c0 12 4.16699 22.167 12.5 30.5s18.166 12.5 29.499 12.5c12 0 22.167 -4.16699 30.5 -12.5s12.5 -18.5 12.5 -30.5c0 -11.333 -4.16699 -21.166 -12.5 -29.499
s-18.5 -12.5 -30.5 -12.5c-11.333 0 -21.166 4.16699 -29.499 12.5z" />
    <glyph glyph-name="j" unicode="j" horiz-adv-x="220" 
d="M-5 -247.5c-14.667 8.33301 -26.667 19.499 -36 33.499l46 33c4.66699 -6.66699 9.83398 -12.167 15.501 -16.5s13.167 -6.5 22.5 -6.5c24.667 0 37 16.333 37 49v656h60v-656c0 -33.333 -8.66699 -59.166 -26 -77.499s-40.333 -27.5 -69 -27.5
c-18.667 0 -35.334 4.16699 -50.001 12.5zM77.5 577.499c-8.33301 8.33301 -12.5 18.166 -12.5 29.499c0 12 4.16699 22.167 12.5 30.5s18.166 12.5 29.499 12.5c12 0 22.167 -4.16699 30.5 -12.5s12.5 -18.5 12.5 -30.5c0 -11.333 -4.16699 -21.166 -12.5 -29.499
s-18.5 -12.5 -30.5 -12.5c-11.333 0 -21.166 4.16699 -29.499 12.5z" />
    <glyph glyph-name="k" unicode="k" horiz-adv-x="555" 
d="M140 726l-0.000976562 -310.998c16 30.667 38.167 54.5 66.5 71.5s59.5 25.5 93.5 25.5c44.667 0 81.5 -14.333 110.5 -43s43.5 -65.334 43.5 -110.001c0 -36 -9.16699 -66.333 -27.5 -91s-40.5 -42.334 -66.5 -53.001l90 -151c6 -11.333 14.667 -17 26 -17
c8.66699 0 15.334 3.33301 20.001 10l43 -34c-17.333 -21.333 -38.333 -32 -63 -32c-16 0 -31.167 3.66699 -45.5 11s-25.5 18 -33.5 32l-95 165h-162v-199h-60v726h60zM330.999 268.002c44 18.667 66 49.667 66 93c0 28 -9.16699 50.833 -27.5 68.5
s-43.166 26.5 -74.499 26.5c-34 0 -63 -11 -87 -33s-42.333 -54 -55 -96c-6.66699 -22 -10.334 -46 -11.001 -72h113c30 0 55.333 4.33301 76 13z" />
    <glyph glyph-name="l" unicode="l" horiz-adv-x="253" 
d="M144.5 60.5c6.33301 -6.33301 13.832 -9.50195 22.499 -9.50195c13.333 0 23 5.66699 29 17l44 -33c-5.33301 -11.333 -14.666 -20.833 -27.999 -28.5s-28.333 -11.5 -45 -11.5c-26.667 0 -48.667 8.33301 -66 25s-26 38.334 -26 65.001v641h60v-642
c0 -9.33301 3.16699 -17.166 9.5 -23.499z" />
    <glyph glyph-name="m" unicode="m" horiz-adv-x="860" 
d="M847 35c-5.33301 -11.333 -14.668 -20.8359 -28.001 -28.5029s-28.333 -11.5 -45 -11.5c-26.667 0 -48.667 8.33301 -66 25s-26 38.334 -26 65.001v265c-2 36 -11 62.5 -27 79.5s-39.333 25.5 -70 25.5c-60 0 -107.333 -33 -142 -99v-356h-60v336
c0 37.333 -8 66.5 -24 87.5s-40 31.5 -72 31.5c-30.667 0 -59.167 -9.33301 -85.5 -28s-45.166 -41.667 -56.499 -69v-358h-60v350c0 52.667 -14 91.334 -42 116.001l40 40c11.333 -8 22.333 -19 33 -33s18.667 -29.667 24 -47c18 26.667 39.833 47.167 65.5 61.5
s54.5 21.5 86.5 21.5c32.667 0 60.834 -7.66699 84.501 -23s41.5 -38 53.5 -68c18.667 29.333 41.167 51.833 67.5 67.5s55.833 23.5 88.5 23.5c47.333 0 85.166 -14.5 113.499 -43.5s42.5 -67.167 42.5 -114.5v-267c0 -9.33301 3.16699 -17.166 9.5 -23.499
s13.833 -9.5 22.5 -9.5c13.333 0 23 5.66699 29 17z" />
    <glyph glyph-name="n" unicode="n" horiz-adv-x="592" 
d="M579 35c-5.33301 -11.333 -14.6699 -20.8379 -28.0029 -28.5049s-28.333 -11.5 -45 -11.5c-26.667 0 -48.667 8.33301 -66 25s-26 38.334 -26 65.001v251c0 80 -36 120 -108 120c-34 0 -63 -8.5 -87 -25.5s-48.667 -42.5 -74 -76.5v-354h-60v351
c0 52.667 -14 91.334 -42 116.001l40 40c12 -7.33301 23.5 -18.666 34.5 -33.999s18.833 -32 23.5 -50c22.667 30.667 47.834 52.834 75.501 66.501s59.167 20.5 94.5 20.5c48.667 0 87.334 -12.5 116.001 -37.5s44.334 -61.833 47.001 -110.5v-278
c0 -9.33301 3.16699 -17.166 9.5 -23.499s13.833 -9.5 22.5 -9.5c13.333 0 23 5.66699 29 17z" />
    <glyph glyph-name="o" unicode="o" horiz-adv-x="581" 
d="M163.5 23c-37 22 -65.833 52.665 -86.5 91.998s-31 84 -31 134s10.5 94.833 31.5 134.5s50 70.667 87 93s79.167 33.5 126.5 33.5c46.667 0 88.5 -11.167 125.5 -33.5s66 -53.166 87 -92.499s31.5 -84 31.5 -134s-10.5 -94.667 -31.5 -134s-50 -70.166 -87 -92.499
s-79.167 -33.5 -126.5 -33.5s-89.5 11 -126.5 33zM424.5 100.998c33.667 38 50.5 87.667 50.5 149c0 40.667 -7.66699 76.5 -23 107.5s-37 55.167 -65 72.5s-60 26 -96 26c-36.667 0 -69 -8.66699 -97 -26s-49.667 -41.833 -65 -73.5s-23 -67.5 -23 -107.5
s7.66699 -75.5 23 -106.5s37 -55.167 65 -72.5s60.333 -26 97 -26c55.333 0 99.833 19 133.5 57z" />
    <glyph glyph-name="p" unicode="p" horiz-adv-x="550" 
d="M408.5 473.5c32.333 -23 56.668 -53.8359 73.001 -92.5029s24.5 -81.667 24.5 -129c0 -51.333 -9.66699 -96.666 -29 -135.999s-47.333 -70.166 -84 -92.499s-80.334 -33.5 -131.001 -33.5c-16.667 0 -56.334 4.33301 -119.001 13v-263h-57v612
c0 52.667 -14 91.334 -42 116.001l40 40c11.333 -8 22.333 -19 33 -33s18.334 -29.333 23.001 -46c28.667 52.667 79 79 151 79c46 0 85.167 -11.5 117.5 -34.5zM398.502 98.4971c31.667 36.333 47.5 85.833 47.5 148.5c0 59.333 -13.5 108.666 -40.5 147.999
s-64.5 59 -112.5 59c-38 0 -71.833 -11.667 -101.5 -35s-45.834 -53.666 -48.501 -90.999v-275c61.333 -6 99.333 -9 114 -9c62.667 0 109.834 18.167 141.501 54.5z" />
    <glyph glyph-name="q" unicode="q" horiz-adv-x="548" 
d="M346.5 8.5c-26.333 -12.333 -55.498 -18.5 -87.498 -18.5c-44.667 0 -83.334 11.5 -116.001 34.5s-57.5 54 -74.5 93s-25.5 82.5 -25.5 130.5c0 78.667 22.5 141.667 67.5 189s109.833 71 194.5 71c23.333 0 50.666 -1.66699 81.999 -5s58.666 -8.33301 81.999 -15v-749
h-60v325c-15.333 -24.667 -36.166 -43.167 -62.499 -55.5zM359.502 79c29 23.333 45.5 53.668 49.5 91.001v276c-36 6 -69.333 9 -100 9c-137.333 0 -206 -67 -206 -201c0 -62.667 13.5 -113.334 40.5 -152.001s65.167 -58 114.5 -58c38.667 0 72.5 11.667 101.5 35z" />
    <glyph glyph-name="r" unicode="r" horiz-adv-x="367" 
d="M343 501l-0.00292969 -56c-19.333 4.66699 -38.666 7 -57.999 7c-34 0 -61.667 -8.33301 -83 -25s-40.333 -40.334 -57 -71.001v-356h-60v350c0 52.667 -14 91.334 -42 116.001l40 40c12 -7.33301 23.333 -18.333 34 -33s18.334 -31 23.001 -49
c18.667 30.667 37.334 51.667 56.001 63c23.333 15.333 52.333 23 87 23c20 0 40 -3 60 -9z" />
    <glyph glyph-name="s" unicode="s" horiz-adv-x="425" 
d="M30 66l32.999 39.998c25.333 -20.667 50.5 -36.5 75.5 -47.5s51.833 -16.5 80.5 -16.5c36 0 64.167 8.5 84.5 25.5s30.5 40.167 30.5 69.5c0 18.667 -4.5 33.834 -13.5 45.501s-21 21.167 -36 28.5s-41.833 19 -80.5 35c-35.333 14.667 -62.666 27.334 -81.999 38.001
s-34.666 23.834 -45.999 39.501s-17 35.5 -17 59.5c0 39.333 14 70.833 42 94.5s65.333 35.5 112 35.5c24 0 47.833 -3.33301 71.5 -10s43.834 -16.334 60.501 -29.001l-25 -43c-30.667 18.667 -65.334 28 -104.001 28c-30.667 0 -54.334 -6 -71.001 -18s-25 -29 -25 -51
c0 -16.667 4.5 -30.334 13.5 -41.001s20.667 -19.5 35 -26.5s38.166 -17.167 71.499 -30.5c38 -15.333 67.5 -29.166 88.5 -41.499s37.333 -27.333 49 -45s17.5 -39.5 17.5 -65.5c0 -46 -16.167 -82.833 -48.5 -110.5s-75.166 -41.5 -128.499 -41.5
c-67.333 0 -130 26 -188 78z" />
    <glyph glyph-name="t" unicode="t" horiz-adv-x="356" 
d="M104 28.5c-21.333 25.667 -32.002 64.167 -32.002 115.5v481h60v-127h157v-54h-157v-300c0 -66.667 24 -100 72 -100c38 0 67.333 20.333 88 61l45 -31c-15.333 -28 -33.666 -49 -54.999 -63s-47.333 -21 -78 -21c-45.333 0 -78.666 12.833 -99.999 38.5z" />
    <glyph glyph-name="u" unicode="u" horiz-adv-x="588" 
d="M575 28c-10 -14 -21.165 -23.833 -33.498 -29.5s-26.5 -8.5 -42.5 -8.5c-23.333 0 -43.833 8 -61.5 24s-26.5 35.333 -26.5 58c-46 -53.333 -101.667 -80 -167 -80c-50 0 -89 12.167 -117 36.5s-43.333 61.166 -46 110.499v214c0 52.667 -14 91.334 -42 116.001l40 40
c16 -10 30.333 -25.667 43 -47s19 -44.333 19 -69v-228c0 -38 8.5 -67.333 25.5 -88s44.833 -31 83.5 -31c36.667 0 68.167 8 94.5 24s48.166 41.333 65.499 76l1 354h60l-1 -414c0 -13.333 3.16699 -23.5 9.5 -30.5s14.166 -10.5 23.499 -10.5c12 0 21.667 5.66699 29 17z
" />
    <glyph glyph-name="v" unicode="v" horiz-adv-x="489" 
d="M43.5 447.5c-9 10.333 -18.5 18.168 -28.5 23.501l33 45c34 -20.667 60.333 -56.667 79 -108l126 -331l156 422h60l-186 -499h-62l-157 415c-4.66699 11.333 -11.5 22.166 -20.5 32.499z" />
    <glyph glyph-name="w" unicode="w" horiz-adv-x="765" 
d="M43 450.5c-9.33301 11 -18.667 19.167 -28 24.5l28 42c36.667 -24.667 62.667 -61 78 -109l106 -321l135 413h56l135 -413l135 413h56l-163 -499h-56l-135 413l-135 -413h-57l-135 415c-4 12 -10.667 23.5 -20 34.5z" />
    <glyph glyph-name="x" unicode="x" horiz-adv-x="485" 
d="M221 294l125.001 206h66l-153 -248l116 -189c6.66699 -10.667 16 -16 28 -16c10.667 0 18.667 4.33301 24 13l48 -31c-8.66699 -12 -19.334 -21.5 -32.001 -28.5s-26 -10.5 -40 -10.5c-32 0 -57 14.333 -75 43l-107 173l-129 -206h-65l158 250l-160 250h67z" />
    <glyph glyph-name="y" unicode="y" horiz-adv-x="548" 
d="M469 500l-1.00098 -361.999v-252c0 -51.333 -13.667 -92.5 -41 -123.5s-63.666 -46.5 -108.999 -46.5c-28 0 -53.5 6.83301 -76.5 20.5s-41 32.5 -54 56.5s-19.5 51 -19.5 81c0 27.333 5.16699 51.666 15.5 72.999s24.5 36.666 42.5 45.999
c-44.667 3.33301 -80.334 18.166 -107.001 44.499s-40 60.166 -40 101.499v217c0 52.667 -14 91.334 -42 116.001l40 40c15.333 -10 29.333 -25.333 42 -46s19.334 -43 20.001 -67v-234c0 -39.333 8.83301 -68.666 26.5 -87.999s44.5 -29 80.5 -29
c29.333 0 55.5 6.33301 78.5 19s46.167 33.334 69.5 62.001c5.33301 7.33301 9 13.833 11 19.5s3 13.5 3 23.5l1 328h60zM409.999 78.001c-8.66699 -14 -16.666 -24.833 -23.999 -32.5s-16 -15.5 -26 -23.5c-18 -12.667 -38 -25 -60 -37
c-26.667 -14 -45.667 -29.333 -57 -46s-17 -37.667 -17 -63c0 -31.333 8.16699 -56.166 24.5 -74.499s38.5 -27.5 66.5 -27.5c27.333 0 49.166 9.66699 65.499 29s24.833 45.666 25.5 78.999z" />
    <glyph glyph-name="z" unicode="z" horiz-adv-x="472" 
d="M316 444h-257v54h358v-13l-271 -395l73 -28c33.333 -12.667 70 -19 110 -19c16.667 0 31.667 2.16699 45 6.5s30.333 13.5 51 27.5l27 -46c-21.333 -15.333 -41 -26.5 -59 -33.5s-38.667 -10.5 -62 -10.5c-36.667 0 -78 7.33301 -124 22l-97 32l-39 -61l-50 33z" />
    <glyph glyph-name="braceleft" unicode="{" horiz-adv-x="314" 
d="M202.5 -157.5c-15.667 4.33301 -31.835 11.5039 -48.502 21.5039s-30.667 23.667 -42 41c-10.667 16.667 -16 39 -16 67c0 12 2.66699 42 8 90c6.66699 58.667 10 100.334 10 125.001c0 20 -2 33 -6 39c-14 19.333 -39 31 -75 35v55c18.667 2 34 5.5 46 10.5
s21.667 12.5 29 22.5c4.66699 6.66699 7 20.667 7 42c0 20 -3.66699 61.667 -11 125c-5.33301 44 -8 70.667 -8 80c0 34 5.33301 59.333 16 76c13.333 20.667 32.5 36.667 57.5 48s57.833 21.333 98.5 30l14 -46c-64 -12.667 -103 -32.334 -117 -59.001
c-5.33301 -10.667 -8 -24.334 -8 -41.001c0 -6.66699 2.33301 -33.334 7 -80.001c8.66699 -84 13 -133 13 -147c0 -21.333 -6.16699 -40 -18.5 -56s-28.166 -27 -47.499 -33c24 -5.33301 40.833 -17 50.5 -35s14.5 -41.667 14.5 -71c0 -7.33301 -0.666992 -20.333 -2 -39
c-1.33301 -15.333 -3.33301 -32.333 -6 -51c-7.33301 -63.333 -11 -104 -11 -122c0 -14.667 2.66699 -27.334 8 -38.001c8.66699 -16.667 23.334 -29.334 44.001 -38.001s45 -15.667 73 -21l-14 -46c-28 6 -49.833 11.167 -65.5 15.5z" />
    <glyph glyph-name="bar" unicode="|" horiz-adv-x="300" 
d="M120 750h60v-820h-60v820z" />
    <glyph glyph-name="braceright" unicode="}" horiz-adv-x="314" 
d="M105 -106c20.667 8.66699 35.333 21.3301 44 37.9971c5.33301 10.667 8 23.334 8 38.001c0 18 -3.66699 58.667 -11 122c-2.66699 18.667 -4.66699 35.667 -6 51c-1.33301 18.667 -2 31.667 -2 39c0 29.333 4.83301 53 14.5 71s26.5 29.667 50.5 35
c-19.333 6 -35.166 17 -47.499 33s-18.5 34.667 -18.5 56c0 14 4.33301 63 13 147c4.66699 46.667 7 73.334 7 80.001c0 16.667 -2.66699 30.334 -8 41.001c-14 26.667 -53 46.334 -117 59.001l14 46c40.667 -8.66699 73.5 -18.667 98.5 -30s44.167 -27.333 57.5 -48
c10.667 -16.667 16 -42 16 -76c0 -9.33301 -2.66699 -36 -8 -80c-7.33301 -63.333 -11 -105 -11 -125c0 -21.333 2.33301 -35.333 7 -42c7.33301 -10 17 -17.5 29 -22.5s27.333 -8.5 46 -10.5v-55c-36 -4 -61 -15.667 -75 -35c-4 -6 -6 -19 -6 -39
c0 -24.667 3.33301 -66.334 10 -125.001c5.33301 -48 8 -78 8 -90c0 -28 -5.33301 -50.333 -16 -67c-11.333 -17.333 -25.333 -31 -42 -41s-32.834 -17.167 -48.501 -21.5s-37.5 -9.5 -65.5 -15.5l-14 46c28 5.33301 52.333 12.333 73 21z" />
    <glyph glyph-name="asciitilde" unicode="~" horiz-adv-x="573" 
d="M149 326c17.333 6.66699 37.668 10.001 61.001 10.001c18 0 33.5 -1.5 46.5 -4.5s26.833 -7.5 41.5 -13.5c12.667 -4.66699 23.667 -8.33398 33 -11.001s20 -4 32 -4c15.333 0 29.666 2.5 42.999 7.5s26.666 13.167 39.999 24.5l34 -41c-19.333 -16 -37 -27 -53 -33
s-36.667 -9.66699 -62 -11c-14.667 0 -28.167 1.5 -40.5 4.5s-27.166 7.5 -44.499 13.5c-14.667 5.33301 -27 9.33301 -37 12s-20.667 4 -32 4c-28.667 0 -56 -10.667 -82 -32l-34 41c18.667 15.333 36.667 26.333 54 33z" />
    <glyph glyph-name="uni00A0" unicode="&#xa0;" horiz-adv-x="280" 
 />
    <glyph glyph-name="exclamdown" unicode="&#xa1;" horiz-adv-x="253" 
d="M156.5 510.5c8.33301 -8.33301 12.5 -18.166 12.5 -29.499c0 -12 -4.16699 -22.167 -12.5 -30.5s-18.5 -12.5 -30.5 -12.5c-11.333 0 -21.166 4.16699 -29.499 12.5s-12.5 18.5 -12.5 30.5c0 11.333 4.16699 21.166 12.5 29.499s18.166 12.5 29.499 12.5
c12 0 22.167 -4.16699 30.5 -12.5zM101 371h52l9 -565h-70z" />
    <glyph glyph-name="cent" unicode="&#xa2;" horiz-adv-x="559" 
d="M125 145c-30 43.333 -45.002 100.001 -45.002 170.001c0 69.333 16.667 127.666 50 174.999c16.667 24 36.5 43.667 59.5 59s47.833 25.333 74.5 30v104h61v-103c22 -2.66699 42.5 -8.16699 61.5 -16.5s34.833 -18.5 47.5 -30.5c29.333 -27.333 44 -61.666 44 -102.999
h-57c0 28 -8.66699 50.667 -26 68c-7.33301 7.33301 -17.166 14.166 -29.499 20.499s-25.833 10.5 -40.5 12.5v-415c24.667 2 45.834 6.33301 63.501 13s33.334 13.5 47.001 20.5l28.5 14.5l26 -42c-22.667 -16 -47.334 -29 -74.001 -39c-30.667 -10.667 -61 -17 -91 -19
v-115h-61v117c-62.667 8.66699 -109 35 -139 79zM207.998 498.001c-16.667 -15.333 -30 -32.667 -40 -52c-21.333 -40.667 -32 -88.334 -32 -143.001c0 -50.667 12 -92 36 -124c22.667 -30 53.334 -49.667 92.001 -59v409c-20.667 -5.33301 -39.334 -15.666 -56.001 -30.999
z" />
    <glyph glyph-name="sterling" unicode="&#xa3;" horiz-adv-x="551" 
d="M524 30c-40.667 -29.333 -87.334 -44.0029 -140.001 -44.0029c-22 0 -43.333 2.33301 -64 7c-20 4 -68.333 17.333 -145 40c-10 -25.333 -18.333 -40.666 -25 -45.999l-50 23c11.333 20.667 19.333 39.334 24 56.001s7 36 7 58v160h-49v54h49v117c0 64 19 113 57 147
s88.667 51 152 51c30 0 59.833 -3.66699 89.5 -11s54.5 -18.666 74.5 -33.999l-20 -42c-39.333 23.333 -89.666 35 -150.999 35c-44.667 0 -79.5 -12.5 -104.5 -37.5s-37.5 -61.167 -37.5 -108.5v-117h175v-54h-175v-178l-2 -17c62 -20 108.333 -33.333 139 -40
c18 -4 35.667 -6 53 -6c44 0 83.333 12 118 36z" />
    <glyph glyph-name="currency" unicode="&#xa4;" horiz-adv-x="719" 
d="M178 136c-31.333 39.333 -46.999 89.666 -46.999 150.999c0 32.667 4.33301 61 13 85c8 24 19.667 46 35 66l-103 104l43 44l106 -106c19.333 12 39.333 22 60 30c22 7.33301 46.667 11 74 11c26.667 0 51.667 -3.66699 75 -11c21.333 -8 41.666 -18 60.999 -30l106 106
l43 -44l-103 -104c30.667 -38.667 46 -88.667 46 -150c0 -32 -4 -60 -12 -84s-19.667 -46 -35 -66l104 -104l-43 -44l-107 107c-18.667 -12 -38.667 -22 -60 -30c-22 -8 -47 -12 -75 -12c-27.333 0 -52 3.66699 -74 11c-20 6.66699 -40.333 16.334 -61 29.001l-105 -105
l-43 44zM429.001 122c20 8.66699 37.3311 21.0039 51.998 37.0039c14.667 15.333 26 34.666 34 57.999c7.33301 23.333 11 47.666 11 72.999c0 54 -15 97 -45 129s-70.333 48 -121 48c-17.333 0 -30.166 -0.833008 -38.499 -2.5s-18.166 -5.16699 -29.499 -10.5
c-20 -8.66699 -37.667 -20.667 -53 -36c-14.667 -14.667 -25.667 -33.334 -33 -56.001c-8 -22.667 -12 -47.334 -12 -74.001c0 -27.333 4 -52 12 -74c8.66699 -23.333 20 -42 34 -56c14 -16 31.333 -28.333 52 -37c19.333 -8.66699 42 -13 68 -13c24 0 47 4.66699 69 14z
" />
    <glyph glyph-name="yen" unicode="&#xa5;" horiz-adv-x="650" 
d="M297 169h-194v53h192v79l-10 17h-183v54h153l-183 268h69l185 -272l182 272h70l-181 -268h150v-54h-180l-10 -17v-79h191v-53h-191v-169h-60v169z" />
    <glyph glyph-name="brokenbar" unicode="&#xa6;" horiz-adv-x="301" 
d="M120 750h61v-370h-61v370zM120 300h61v-370h-61v370z" />
    <glyph glyph-name="section" unicode="&#xa7;" horiz-adv-x="429" 
d="M226 21c24 13.333 35.9971 32.335 35.9971 57.002c0 16.667 -4.33301 31 -13 43s-20.667 24 -36 36c-5.33301 4.66699 -17.666 13.334 -36.999 26.001c-26 17.333 -44.333 31 -55 41c-17.333 16 -29.833 32 -37.5 48s-11.5 35 -11.5 57
c0 33.333 8.66699 61.666 26 84.999c10.667 14.667 22.334 24 35.001 28c-20.667 24.667 -31 53 -31 85c0 40.667 17.667 72.667 53 96s85.333 40 150 50l13 -53c-53.333 -10.667 -91.666 -22.334 -114.999 -35.001c-24 -12.667 -36 -31.667 -36 -57
c0 -16 4.33301 -30.167 13 -42.5s20.667 -24.5 36 -36.5c8.66699 -6.66699 21 -15.334 37 -26.001c26 -17.333 44.333 -31 55 -41c16.667 -15.333 29 -31 37 -47s12 -34.333 12 -55c0 -16 -2.16699 -32 -6.5 -48s-10.833 -29.333 -19.5 -40
c-6.66699 -8.66699 -18.667 -18 -36 -28c21.333 -25.333 32 -54 32 -86c0 -40 -17.667 -71.667 -53 -95c-34.667 -23.333 -84.667 -40 -150 -50l-13 53c54.667 11.333 93 23 115 35zM284.497 235.502c7 13.667 10.499 27.502 10.499 41.502
c0 14.667 -3.33301 27.167 -10 37.5s-16.334 20.833 -29.001 31.5c-14 11.333 -28 21.333 -42 30c-22.667 16 -35 24.667 -37 26c-13.333 -7.33301 -23.833 -17.5 -31.5 -30.5s-11.5 -27.167 -11.5 -42.5c0 -14.667 3.33301 -27.334 10 -38.001
s16.334 -21.334 29.001 -32.001c12 -10 26.667 -20.333 44 -31c20.667 -13.333 32.334 -21.333 35.001 -24c14.667 7.33301 25.5 17.833 32.5 31.5z" />
    <glyph glyph-name="dieresis" unicode="&#xa8;" horiz-adv-x="428" 
d="M61.5 579.5c-8.33301 8.33301 -12.5 18.166 -12.5 29.499c0 12 4.16699 22.167 12.5 30.5s18.166 12.5 29.499 12.5c12 0 22.167 -4.16699 30.5 -12.5s12.5 -18.5 12.5 -30.5c0 -11.333 -4.16699 -21.166 -12.5 -29.499s-18.5 -12.5 -30.5 -12.5
c-11.333 0 -21.166 4.16699 -29.499 12.5zM283.5 579.5c-8.33301 8.33301 -12.5 18.166 -12.5 29.499c0 12 4.16699 22.167 12.5 30.5s18.166 12.5 29.499 12.5c12 0 22.167 -4.16699 30.5 -12.5s12.5 -18.5 12.5 -30.5c0 -11.333 -4.16699 -21.166 -12.5 -29.499
s-18.5 -12.5 -30.5 -12.5c-11.333 0 -21.166 4.16699 -29.499 12.5z" />
    <glyph glyph-name="copyright" unicode="&#xa9;" horiz-adv-x="762" 
d="M162 35c-27.333 27.333 -48.167 59.8311 -62.5 97.498s-21.5 77.834 -21.5 120.501c0 43.333 7.33301 84 22 122s35.334 70.667 62.001 98c28 28.667 61 50.167 99 64.5s78.333 21.5 121 21.5c44 0 84.5 -7.33301 121.5 -22s69.167 -36 96.5 -64
s48.166 -60.833 62.499 -98.5s21.5 -77.5 21.5 -119.5c0 -44.667 -7.5 -85.667 -22.5 -123s-35.5 -69 -61.5 -95c-26.667 -27.333 -58.667 -48.666 -96 -63.999s-78.666 -23 -123.999 -23c-88.667 0 -161.334 28.333 -218.001 85zM482.999 16.998
c30.667 13.333 56.668 30.998 78.001 52.998c22 23.333 39 51.333 51 84s18 67.334 18 104.001c0 36 -5.83301 70 -17.5 102s-28.834 59.333 -51.501 82s-49.334 39.834 -80.001 51.501s-63.667 17.5 -99 17.5s-68.666 -6 -99.999 -18s-58.333 -29.667 -81 -53
c-46 -46.667 -69 -108.334 -69 -185.001c0 -77.333 23 -139.666 69 -186.999c22.667 -23.333 49.5 -41 80.5 -53s64.167 -18 99.5 -18c37.333 0 71.333 6.66699 102 20zM280.5 131.996c-27 31.333 -40.501 71.335 -40.501 120.002c0 49.333 14 90.333 42 123
s65.333 49 112 49c26 0 47.833 -4.83301 65.5 -14.5s29.167 -18.834 34.5 -27.501l-33 -38c-10 10.667 -19.833 18.167 -29.5 22.5s-22.167 6.5 -37.5 6.5c-32 0 -56.5 -12.333 -73.5 -37s-25.5 -53.334 -25.5 -86.001c0 -34 8.66699 -61.333 26 -82s41 -31 71 -31
c18 0 34.833 3.16699 50.5 9.5s32.834 15.5 51.501 27.5l23 -45c-18.667 -14 -39.167 -24.833 -61.5 -32.5s-44.5 -11.5 -66.5 -11.5c-45.333 0 -81.5 15.667 -108.5 47z" />
    <glyph glyph-name="ordfeminine" unicode="&#xaa;" horiz-adv-x="430" 
d="M114.5 391c-21.667 14.667 -38.168 34.1699 -49.501 58.5029s-17 50.166 -17 77.499c0 30.667 6.83301 58.167 20.5 82.5s32.834 43.666 57.501 57.999s53.334 21.5 86.001 21.5c22 0 47 -2 75 -6h46v-249c0 -2.66699 1.5 -5.16699 4.5 -7.5s6.5 -3.5 10.5 -3.5
c3.33301 0 6.5 1 9.5 3s5.16699 4.33301 6.5 7l40 -25c-5.33301 -12.667 -13.833 -22.334 -25.5 -29.001s-23.5 -10 -35.5 -10s-24.333 4.5 -37 13.5s-19 17.5 -19 25.5c-7.33301 -10 -20.333 -19 -39 -27s-37 -12 -55 -12c-30.667 0 -56.834 7.33301 -78.501 22z
M236.499 434.003c13 7.33301 22.832 17 29.499 29c4.66699 8.66699 7 19 7 31v137c-33.333 3.33301 -55.666 5 -66.999 5c-30 0 -53.833 -10.167 -71.5 -30.5s-26.5 -46.166 -26.5 -77.499c0 -28.667 7.5 -53.334 22.5 -74.001s35.833 -31 62.5 -31
c16 0 30.5 3.66699 43.5 11z" />
    <glyph glyph-name="guillemotleft" unicode="&#xab;" horiz-adv-x="564" 
d="M243 252c0 12.667 10.667 28.667 32 48l207 185l39 -43l-220 -190l220 -191l-39 -43l-207 184c-21.333 19.333 -32 36 -32 50zM35 252c0 12.667 10.667 28.667 32 48l207 185l39 -43l-220 -190l220 -191l-39 -43l-207 184c-21.333 19.333 -32 36 -32 50z" />
    <glyph glyph-name="logicalnot" unicode="&#xac;" horiz-adv-x="563" 
d="M382 264h-298v58h360v-175h-62v117z" />
    <glyph glyph-name="uni00AD" unicode="&#xad;" horiz-adv-x="451" 
d="M77 334h297v-56h-297v56z" />
    <glyph glyph-name="registered" unicode="&#xae;" horiz-adv-x="762" 
d="M662.5 537.5c14.333 -37.667 21.499 -77.502 21.499 -119.502c0 -44.667 -7.5 -85.667 -22.5 -123s-35.5 -69 -61.5 -95c-26.667 -27.333 -58.667 -48.666 -96 -63.999s-78.666 -23 -123.999 -23c-88.667 0 -161.334 28.333 -218.001 85
c-27.333 27.333 -48.166 59.833 -62.499 97.5s-21.5 77.834 -21.5 120.501c0 43.333 7.33301 84 22 122s35.334 70.667 62.001 98c28 28.667 61 50.167 99 64.5s78.333 21.5 121 21.5c44 0 84.5 -7.33301 121.5 -22s69.167 -36 96.5 -64s48.166 -60.833 62.499 -98.5z
M611.999 316.998c12 32.667 18.001 67.332 18.001 103.999c0 36 -5.83301 70 -17.5 102s-28.834 59.333 -51.501 82s-49.334 39.834 -80.001 51.501s-63.667 17.5 -99 17.5s-68.666 -6 -99.999 -18s-58.333 -29.667 -81 -53c-46 -46.667 -69 -108.334 -69 -185.001
c0 -77.333 23 -139.666 69 -186.999c22.667 -23.333 49.5 -41 80.5 -53s64.167 -18 99.5 -18c37.333 0 71.333 6.66699 102 20s56.667 31 78 53c22 23.333 39 51.333 51 84zM525 294.996l22.002 -36.999c-2.66699 -4.66699 -7.5 -8.33398 -14.5 -11.001s-14.5 -4 -22.5 -4
s-16.5 1.83301 -25.5 5.5s-16.5 9.5 -22.5 17.5l-59 78c-0.666992 0.666992 -4.33398 6.5 -11.001 17.5s-24.334 16.833 -53.001 17.5v-130h-55v345h114c18 0 34.833 -5 50.5 -15s28 -22.833 37 -38.5s13.5 -31.5 13.5 -47.5c0 -17.333 -4.16699 -34.5 -12.5 -51.5
s-21.833 -28.5 -40.5 -34.5c-11.333 -4 -28 -6 -50 -6c9.33301 0 17.333 -2.16699 24 -6.5s14 -11.5 22 -21.5l54 -68c6.66699 -9.33301 12.667 -14 18 -14c4 0 7.66699 1.33301 11 4zM428.502 448.997c9.66699 12 14.5 26.667 14.5 44c0 16.667 -4.33301 29.667 -13 39
s-20 14 -34 14h-57v-115h51c16 0 28.833 6 38.5 18z" />
    <glyph glyph-name="macron" unicode="&#xaf;" horiz-adv-x="428" 
d="M66 623h296v-54h-296v54z" />
    <glyph glyph-name="degree" unicode="&#xb0;" horiz-adv-x="447" 
d="M127 432.5c-24 24.333 -36.001 57.166 -36.001 98.499c0 44 13 77.167 39 99.5s57.667 33.5 95 33.5c39.333 0 71 -12.167 95 -36.5s36 -57.166 36 -98.499c0 -43.333 -13.167 -76.333 -39.5 -99s-58.166 -34 -95.499 -34c-38.667 0 -70 12.167 -94 36.5zM280.499 468.5
c14.333 15.667 21.5 36.168 21.5 61.501s-7 45.833 -21 61.5s-33 23.5 -57 23.5c-24.667 0 -44 -8.16699 -58 -24.5s-21 -36.833 -21 -61.5s7 -44.834 21 -60.501s33 -23.5 57 -23.5s43.167 7.83301 57.5 23.5z" />
    <glyph glyph-name="plusminus" unicode="&#xb1;" horiz-adv-x="526" 
d="M235 268h-158v51h158v160h56v-160h158v-51h-158v-161h-56v161zM77 52h372v-52h-372v52z" />
    <glyph glyph-name="uni00B2" unicode="&#xb2;" horiz-adv-x="309" 
d="M52 279.5c10.667 20.333 35.6689 44.501 75.002 72.501l28 19.5c14.667 10.333 25.667 20.666 33 30.999s11 21.166 11 32.499c0 12 -4 21.667 -12 29s-19.333 11 -34 11c-18.667 0 -33.334 -4.5 -44.001 -13.5s-18.334 -23.167 -23.001 -42.5l-53 21
c8 28 22.5 50.167 43.5 66.5s46.833 24.5 77.5 24.5c32 0 57.833 -9.16699 77.5 -27.5s29.5 -42.166 29.5 -71.499c0 -25.333 -7.16699 -46.333 -21.5 -63s-35.833 -35 -64.5 -55l-30 -22c-10 -8 -18 -14.833 -24 -20.5s-11.667 -12.167 -17 -19.5h173v-53h-241v23
c0 18 5.33301 37.167 16 57.5z" />
    <glyph glyph-name="uni00B3" unicode="&#xb3;" horiz-adv-x="307" 
d="M66.5 208.5c-22.333 11 -39.167 24.5 -50.5 40.5l34 39c14.667 -14 28.5 -24.5 41.5 -31.5s28.5 -10.5 46.5 -10.5c22 0 39.833 4.66699 53.5 14s20.5 22 20.5 38c0 15.333 -6.33301 28.333 -19 39s-27.667 15.334 -45 14.001h-52v55h51c13.333 0 24.833 3.66699 34.5 11
s14.5 16.666 14.5 27.999c0 22.667 -17.667 34 -53 34c-31.333 0 -55.333 -8.33301 -72 -25l-28 42c28.667 24.667 61.667 37 99 37c31.333 0 57.833 -8 79.5 -24s32.5 -37.667 32.5 -65c0 -14.667 -3.16699 -28.667 -9.5 -42s-14.5 -21.666 -24.5 -24.999
c34 -16 51 -42.667 51 -80c0 -32.667 -12.333 -58.334 -37 -77.001s-55 -28 -91 -28c-28.667 0 -54.167 5.5 -76.5 16.5z" />
    <glyph glyph-name="acute" unicode="&#xb4;" horiz-adv-x="225" 
d="M30 593l120 161l48 -38l-138 -151z" />
    <glyph glyph-name="uni00B5" unicode="&#xb5;" horiz-adv-x="610" 
d="M175 498l0.000976562 -336.001h1c0 -41.333 8.66699 -71.666 26 -90.999s44.666 -29 81.999 -29c36 0 65.667 9.33301 89 28c24.667 18.667 48.334 43.667 71.001 75v353h55v-354c0 -51.333 13 -91 39 -119l-34 -33c-16.667 12 -29 26.333 -37 43
c-9.33301 16 -15.333 33.333 -18 52c-42 -64.667 -97 -97 -165 -97c-25.333 0 -46 2.33301 -62 7c-18.667 5.33301 -34.334 12.333 -47.001 21v-268h-55v748h55z" />
    <glyph glyph-name="paragraph" unicode="&#xb6;" horiz-adv-x="648" 
d="M113 303c-29.333 29.333 -44 71.999 -44 127.999c0 68 20.667 116 62 144s115 42 221 42h96l80 -3v-613h-58v556h-132v-556h-59v249c-80 6.66699 -135.333 24.334 -166 53.001z" />
    <glyph glyph-name="periodcentered" unicode="&#xb7;" horiz-adv-x="275" 
d="M95.5 284.5c-11.667 11.667 -17.5 25.834 -17.5 42.501c0 16 5.83301 29.833 17.5 41.5s25.834 17.5 42.501 17.5c16 0 29.833 -5.83301 41.5 -17.5s17.5 -25.5 17.5 -41.5c0 -16.667 -5.83301 -30.834 -17.5 -42.501s-25.5 -17.5 -41.5 -17.5
c-16.667 0 -30.834 5.83301 -42.501 17.5z" />
    <glyph glyph-name="cedilla" unicode="&#xb8;" horiz-adv-x="237" 
d="M122 -163c8.66699 10.667 12.999 23 12.999 37c0 13.333 -4 23.5 -12 30.5s-20 10.5 -36 10.5h-31l10 96h61l-10 -50c23.333 -2.66699 41 -12.5 53 -29.5s18 -36.5 18 -58.5c0 -18 -4.16699 -35.5 -12.5 -52.5s-20.833 -30.5 -37.5 -40.5s-37 -14 -61 -12l10 53
c14.667 0 26.334 5.33301 35.001 16z" />
    <glyph glyph-name="uni00B9" unicode="&#xb9;" horiz-adv-x="217" 
d="M22 435l-13 51c29.333 0 69.333 16.667 120 50h24v-336h-59v252c-22.667 -12 -46.667 -17.667 -72 -17z" />
    <glyph glyph-name="ordmasculine" unicode="&#xba;" horiz-adv-x="454" 
d="M144.5 390c-24.333 14 -43.5 33.1699 -57.5 57.5029s-21 51.166 -21 80.499s7 56.166 21 80.499s33.167 43.666 57.5 57.999s51.833 21.5 82.5 21.5c30 0 57.167 -7 81.5 -21s43.5 -33.333 57.5 -58s21 -51.667 21 -81c0 -30 -7 -57.167 -21 -81.5
s-33.333 -43.333 -58 -57s-52 -20.5 -82 -20.5s-57.167 7 -81.5 21zM300 453.003c18 20 27 45.999 27 77.999c0 30.667 -9.16699 55.5 -27.5 74.5s-42.5 28.5 -72.5 28.5c-31.333 0 -56 -10 -74 -30s-27 -45.333 -27 -76c0 -31.333 9.16699 -56.666 27.5 -75.999
s42.833 -29 73.5 -29s55 10 73 30z" />
    <glyph glyph-name="guillemotright" unicode="&#xbb;" horiz-adv-x="560" 
d="M466 251l-216 191.001l37 41l206 -184c7.33301 -6.66699 15.333 -15 24 -25c5.33301 -8.66699 8 -16.334 8 -23.001c0 -12.667 -10.667 -28.667 -32 -48l-206 -184l-37 41zM258 251.001l-216 191.001l37 41l206 -184c7.33301 -6.66699 15.333 -15 24 -25
c5.33301 -8.66699 8 -16.334 8 -23.001c0 -12.667 -10.667 -28.667 -32 -48l-206 -184l-37 41z" />
    <glyph glyph-name="onequarter" unicode="&#xbc;" horiz-adv-x="711" 
d="M22 434l-13 51c29.333 0 69.333 16.667 120 50h24v-336h-59v252c-22.667 -12 -46.667 -17.667 -72 -17zM396 500h58l-218 -500h-59zM590 51h-154v39l104 231h63l-98 -216h85v103h59v-103h40v-54h-40v-60h-59v60z" />
    <glyph glyph-name="onehalf" unicode="&#xbd;" horiz-adv-x="723" 
d="M22 434l-13 51c29.333 0 69.333 16.667 120 50h24v-336h-59v252c-22.667 -12 -46.667 -17.667 -72 -17zM396 500h58l-218 -500h-59zM466 72.5c10.667 20.333 35.6689 44.501 75.002 72.501l28 19.5c14.667 10.333 25.667 20.666 33 30.999s11 21.166 11 32.499
c0 12 -4 21.667 -12 29s-19.333 11 -34 11c-18.667 0 -33.334 -4.5 -44.001 -13.5s-18.334 -23.167 -23.001 -42.5l-53 21c8 28 22.5 50.167 43.5 66.5s46.833 24.5 77.5 24.5c32 0 57.833 -9.16699 77.5 -27.5s29.5 -42.166 29.5 -71.499
c0 -25.333 -7.16699 -46.333 -21.5 -63s-35.833 -35 -64.5 -55l-30 -22c-10 -8 -18 -14.833 -24 -20.5s-11.667 -12.167 -17 -19.5h173v-53h-241v23c0 18 5.33301 37.167 16 57.5z" />
    <glyph glyph-name="threequarters" unicode="&#xbe;" horiz-adv-x="801" 
d="M66.5 210.5c-22.333 11 -39.167 24.5 -50.5 40.5l34 39c14.667 -14 28.5 -24.5 41.5 -31.5s28.5 -10.5 46.5 -10.5c22 0 39.833 4.66699 53.5 14s20.5 22 20.5 38c0 15.333 -6.33301 28.333 -19 39s-27.667 15.334 -45 14.001h-52v55h51c13.333 0 24.833 3.66699 34.5 11
s14.5 16.666 14.5 27.999c0 22.667 -17.667 34 -53 34c-31.333 0 -55.333 -8.33301 -72 -25l-28 42c28.667 24.667 61.667 37 99 37c31.333 0 57.833 -8 79.5 -24s32.5 -37.667 32.5 -65c0 -14.667 -3.16699 -28.667 -9.5 -42s-14.5 -21.666 -24.5 -24.999
c34 -16 51 -42.667 51 -80c0 -32.667 -12.333 -58.334 -37 -77.001s-55 -28 -91 -28c-28.667 0 -54.167 5.5 -76.5 16.5zM485.999 500h58l-218 -500h-59zM679.999 51h-154v39l104 231h63l-98 -216h85v103h59v-103h40v-54h-40v-60h-59v60z" />
    <glyph glyph-name="questiondown" unicode="&#xbf;" horiz-adv-x="472" 
d="M339.5 550.5c8.33301 -8.33301 12.5 -18.166 12.5 -29.499c0 -12 -4.16699 -22.167 -12.5 -30.5s-18.166 -12.5 -29.499 -12.5c-12 0 -22.167 4.16699 -30.5 12.5s-12.5 18.5 -12.5 30.5c0 11.333 4.16699 21.166 12.5 29.499s18.5 12.5 30.5 12.5
c11.333 0 21.166 -4.16699 29.499 -12.5zM358 365c0 -35.333 -7.6709 -62.9971 -23.0039 -82.9971c-13.333 -18 -28.166 -32.333 -44.499 -43s-36.833 -22.334 -61.5 -35.001c-86 -42 -129 -95 -129 -159c0 -43.333 14.167 -79.333 42.5 -108s64.833 -43 109.5 -43
c22 0 42.833 3.83301 62.5 11.5s35.5 17.667 47.5 30s18 25.166 18 38.499c0 17.333 -10.667 27.666 -32 30.999l19 55c20.667 -1.33301 37.834 -10 51.501 -26s20.5 -35.333 20.5 -58c0 -25.333 -8.5 -48.5 -25.5 -69.5s-40 -37.667 -69 -50s-60.5 -18.5 -94.5 -18.5
c-40 0 -76 8.83301 -108 26.5s-57 42 -75 73s-27 65.5 -27 103.5c0 44.667 10.333 81.834 31 111.501s56.334 59.167 107.001 88.5l26 15c22.667 12.667 38.334 22.167 47.001 28.5s17.667 14.166 27 23.499c15.333 17.333 23 38 23 62c0 12 -1.33301 24.333 -4 37l56 10
c3.33301 -14.667 5 -32 5 -52z" />
    <glyph glyph-name="Agrave" unicode="&#xc0;" horiz-adv-x="748" 
d="M59.5 4c-15 11.333 -24.833 26.002 -29.5 44.002l46 25c3.33301 -8.66699 8.16602 -15.834 14.499 -21.501s13.833 -8.5 22.5 -8.5c8 0 14.5 2.66699 19.5 8s10.167 14.333 15.5 27l256 615h20l291 -693h-64l-95 227h-285l-75 -186
c-6.66699 -16.667 -17.667 -29.834 -33 -39.501s-31.666 -14.5 -48.999 -14.5c-21.333 0 -39.5 5.66699 -54.5 17zM532 283.002l-108 269l-11 40l-10 -40l-108 -269h237zM233 826.002l33 51l165 -115l-21 -36z" />
    <glyph glyph-name="Aacute" unicode="&#xc1;" horiz-adv-x="748" 
d="M59.5 4c-15 11.333 -24.833 26.002 -29.5 44.002l46 25c3.33301 -8.66699 8.16602 -15.834 14.499 -21.501s13.833 -8.5 22.5 -8.5c8 0 14.5 2.66699 19.5 8s10.167 14.333 15.5 27l256 615h20l291 -693h-64l-95 227h-285l-75 -186
c-6.66699 -16.667 -17.667 -29.834 -33 -39.501s-31.666 -14.5 -48.999 -14.5c-21.333 0 -39.5 5.66699 -54.5 17zM532 283.002l-108 269l-11 40l-10 -40l-108 -269h237zM387 774.002l169 110l31 -52l-181 -94z" />
    <glyph glyph-name="Acircumflex" unicode="&#xc2;" horiz-adv-x="748" 
d="M59.5 4c-15 11.333 -24.833 26.002 -29.5 44.002l46 25c3.33301 -8.66699 8.16602 -15.834 14.499 -21.501s13.833 -8.5 22.5 -8.5c8 0 14.5 2.66699 19.5 8s10.167 14.333 15.5 27l256 615h20l291 -693h-64l-95 227h-285l-75 -186
c-6.66699 -16.667 -17.667 -29.834 -33 -39.501s-31.666 -14.5 -48.999 -14.5c-21.333 0 -39.5 5.66699 -54.5 17zM532 283.002l-108 269l-11 40l-10 -40l-108 -269h237zM389 855.002h49l130 -122h-74l-80 69l-81 -69h-71z" />
    <glyph glyph-name="Atilde" unicode="&#xc3;" horiz-adv-x="748" 
d="M59.5 4c-15 11.333 -24.833 26.002 -29.5 44.002l46 25c3.33301 -8.66699 8.16602 -15.834 14.499 -21.501s13.833 -8.5 22.5 -8.5c8 0 14.5 2.66699 19.5 8s10.167 14.333 15.5 27l256 615h20l291 -693h-64l-95 227h-285l-75 -186
c-6.66699 -16.667 -17.667 -29.834 -33 -39.501s-31.666 -14.5 -48.999 -14.5c-21.333 0 -39.5 5.66699 -54.5 17zM532 283.002l-108 269l-11 40l-10 -40l-108 -269h237zM314.5 813.502c17 6.33301 33.833 9.5 50.5 9.5c12.667 0 23.667 -1.66699 33 -5s20 -8.33301 32 -15
c17.333 -10 32.333 -15 45 -15c22 0 46.333 11 73 33l34 -41c-20 -16 -37 -27.167 -51 -33.5s-33.333 -9.5 -58 -9.5c-12 0 -21.833 1.33301 -29.5 4s-16.5 7 -26.5 13c-9.33301 5.33301 -17.5 9.33301 -24.5 12s-15.833 4 -26.5 4c-12 0 -23.5 -2.16699 -34.5 -6.5
s-24.5 -13.166 -40.5 -26.499l-33 41c20.667 17.333 39.5 29.166 56.5 35.499z" />
    <glyph glyph-name="Adieresis" unicode="&#xc4;" horiz-adv-x="748" 
d="M59.5 4c-15 11.333 -24.833 26.002 -29.5 44.002l46 25c3.33301 -8.66699 8.16602 -15.834 14.499 -21.501s13.833 -8.5 22.5 -8.5c8 0 14.5 2.66699 19.5 8s10.167 14.333 15.5 27l256 615h20l291 -693h-64l-95 227h-285l-75 -186
c-6.66699 -16.667 -17.667 -29.834 -33 -39.501s-31.666 -14.5 -48.999 -14.5c-21.333 0 -39.5 5.66699 -54.5 17zM532 283.002l-108 269l-11 40l-10 -40l-108 -269h237zM271.5 746.502c-8.33301 8.33301 -12.5 18.166 -12.5 29.499c0 12 4.16699 22.167 12.5 30.5
s18.166 12.5 29.499 12.5c12 0 22.167 -4.16699 30.5 -12.5s12.5 -18.5 12.5 -30.5c0 -11.333 -4.16699 -21.166 -12.5 -29.499s-18.5 -12.5 -30.5 -12.5c-11.333 0 -21.166 4.16699 -29.499 12.5zM493.5 746.502c-8.33301 8.33301 -12.5 18.166 -12.5 29.499
c0 12 4.16699 22.167 12.5 30.5s18.166 12.5 29.499 12.5c12 0 22.167 -4.16699 30.5 -12.5s12.5 -18.5 12.5 -30.5c0 -11.333 -4.16699 -21.166 -12.5 -29.499s-18.5 -12.5 -30.5 -12.5c-11.333 0 -21.166 4.16699 -29.499 12.5z" />
    <glyph glyph-name="Aring" unicode="&#xc5;" horiz-adv-x="748" 
d="M59.5 4c-15 11.333 -24.833 26.002 -29.5 44.002l46 25c3.33301 -8.66699 8.16602 -15.834 14.499 -21.501s13.833 -8.5 22.5 -8.5c8 0 14.5 2.66699 19.5 8s10.167 14.333 15.5 27l256 615h20l291 -693h-64l-95 227h-285l-75 -186
c-6.66699 -16.667 -17.667 -29.834 -33 -39.501s-31.666 -14.5 -48.999 -14.5c-21.333 0 -39.5 5.66699 -54.5 17zM532 283.002l-108 269l-11 40l-10 -40l-108 -269h237zM340 763.502c-18 18.333 -27 41.498 -27 69.498c0 28.667 9.33301 52.334 28 71.001s43 28 73 28
s54.333 -9.16699 73 -27.5s28 -41.5 28 -69.5c0 -29.333 -9.66699 -53.166 -29 -71.499s-44 -27.5 -74 -27.5s-54 9.16699 -72 27.5zM451.5 795.5c10.333 11 15.5 24.167 15.5 39.5s-5.16699 28 -15.5 38s-22.833 15 -37.5 15c-15.333 0 -27.833 -5.16699 -37.5 -15.5
s-14.5 -23.5 -14.5 -39.5s4.83301 -29 14.5 -39s21.834 -15 36.501 -15c15.333 0 28.166 5.5 38.499 16.5z" />
    <glyph glyph-name="AE" unicode="&#xc6;" horiz-adv-x="963" 
d="M18 24l39.998 40.002c6 -8.66699 11.667 -14.334 17 -17.001s12 -4 20 -4c12 0 21.667 6.33301 29 19l341 622h437v-56h-347v-238h247v-56h-247v-278h367v-56h-428v227h-222l-99 -196c-7.33301 -14.667 -18.166 -25.834 -32.499 -33.501s-30.833 -11.5 -49.5 -11.5
c-27.333 0 -51.666 12.667 -72.999 38zM493.998 283.002l1 347l-18 -38l-170 -309h187z" />
    <glyph glyph-name="Ccedilla" unicode="&#xc7;" horiz-adv-x="715" 
d="M559 16.5c-48 -25 -99.3369 -38.1641 -154.004 -39.4971l-7 -37c23.333 -2.66699 41 -12.5 53 -29.5s18 -36.5 18 -58.5c0 -18 -4.16699 -35.5 -12.5 -52.5s-20.833 -30.5 -37.5 -40.5s-37 -14 -61 -12l10 53c14.667 0 26.334 5.33301 35.001 16s13 23 13 37
c0 13.333 -4 23.5 -12 30.5s-20 10.5 -36 10.5h-31l9 86c-56 8 -106 28.833 -150 62.5s-78.333 76.167 -103 127.5s-37 106.666 -37 165.999c0 66.667 15.333 128.834 46 186.501s72.334 103.5 125.001 137.5s110.667 51 174 51c39.333 0 77.166 -5.83301 113.499 -17.5
s66 -28.834 89 -51.501s34.5 -50 34.5 -82c0 -26 -9.16699 -48.167 -27.5 -66.5s-40.166 -27.5 -65.499 -27.5c-20 0 -39 6.66699 -57 20l35 44c8.66699 -5.33301 16.334 -8 23.001 -8c8.66699 0 16 3.66699 22 11s9 16.666 9 27.999c0 19.333 -9.16699 36 -27.5 50
s-41.166 24.667 -68.499 32s-53.666 11 -78.999 11c-54 0 -102.833 -14.5 -146.5 -43.5s-77.834 -67.833 -102.501 -116.5s-37 -101.334 -37 -158.001c0 -54.667 11.833 -105.167 35.5 -151.5s56.667 -83 99 -110s90.833 -40.5 145.5 -40.5c48 0 92.833 10.833 134.5 32.5
s75.5 51.5 101.5 89.5l46 -32c-31.333 -46.667 -71 -82.5 -119 -107.5z" />
    <glyph glyph-name="Egrave" unicode="&#xc8;" horiz-adv-x="634" 
d="M120.5 625.5c-6.33301 -1.66699 -11.835 -4.83203 -16.502 -9.49902c-4 -4 -7.5 -9.5 -10.5 -16.5s-4.5 -13.5 -4.5 -19.5l-55 1c1.33301 31.333 11.333 56.333 30 75c10 9.33301 21.833 16.166 35.5 20.499s30.834 6.83301 51.501 7.5h437v-56h-378v-238h258v-56h-258
v-278h378v-56h-438v628c-13.333 0 -23.166 -0.833008 -29.499 -2.5zM187.998 826.002l33 51l165 -115l-21 -36z" />
    <glyph glyph-name="Eacute" unicode="&#xc9;" horiz-adv-x="634" 
d="M120.5 625.5c-6.33301 -1.66699 -11.835 -4.83203 -16.502 -9.49902c-4 -4 -7.5 -9.5 -10.5 -16.5s-4.5 -13.5 -4.5 -19.5l-55 1c1.33301 31.333 11.333 56.333 30 75c10 9.33301 21.833 16.166 35.5 20.499s30.834 6.83301 51.501 7.5h437v-56h-378v-238h258v-56h-258
v-278h378v-56h-438v628c-13.333 0 -23.166 -0.833008 -29.499 -2.5zM341.998 774.002l169 110l31 -52l-181 -94z" />
    <glyph glyph-name="Ecircumflex" unicode="&#xca;" horiz-adv-x="634" 
d="M120.5 625.5c-6.33301 -1.66699 -11.835 -4.83203 -16.502 -9.49902c-4 -4 -7.5 -9.5 -10.5 -16.5s-4.5 -13.5 -4.5 -19.5l-55 1c1.33301 31.333 11.333 56.333 30 75c10 9.33301 21.833 16.166 35.5 20.499s30.834 6.83301 51.501 7.5h437v-56h-378v-238h258v-56h-258
v-278h378v-56h-438v628c-13.333 0 -23.166 -0.833008 -29.499 -2.5zM343.998 855.002h49l130 -122h-74l-80 69l-81 -69h-71z" />
    <glyph glyph-name="Edieresis" unicode="&#xcb;" horiz-adv-x="634" 
d="M120.5 625.5c-6.33301 -1.66699 -11.835 -4.83203 -16.502 -9.49902c-4 -4 -7.5 -9.5 -10.5 -16.5s-4.5 -13.5 -4.5 -19.5l-55 1c1.33301 31.333 11.333 56.333 30 75c10 9.33301 21.833 16.166 35.5 20.499s30.834 6.83301 51.501 7.5h437v-56h-378v-238h258v-56h-258
v-278h378v-56h-438v628c-13.333 0 -23.166 -0.833008 -29.499 -2.5zM226.498 746.502c-8.33301 8.33301 -12.5 18.166 -12.5 29.499c0 12 4.16699 22.167 12.5 30.5s18.166 12.5 29.499 12.5c12 0 22.167 -4.16699 30.5 -12.5s12.5 -18.5 12.5 -30.5
c0 -11.333 -4.16699 -21.166 -12.5 -29.499s-18.5 -12.5 -30.5 -12.5c-11.333 0 -21.166 4.16699 -29.499 12.5zM448.498 746.502c-8.33301 8.33301 -12.5 18.166 -12.5 29.499c0 12 4.16699 22.167 12.5 30.5s18.166 12.5 29.499 12.5c12 0 22.167 -4.16699 30.5 -12.5
s12.5 -18.5 12.5 -30.5c0 -11.333 -4.16699 -21.166 -12.5 -29.499s-18.5 -12.5 -30.5 -12.5c-11.333 0 -21.166 4.16699 -29.499 12.5z" />
    <glyph glyph-name="Igrave" unicode="&#xcc;" horiz-adv-x="261" 
d="M100 684h61v-684h-61v684zM-26 867l44 42l134 -150l-28 -30z" />
    <glyph glyph-name="Iacute" unicode="&#xcd;" horiz-adv-x="261" 
d="M100 684h61v-684h-61v684zM109 753l90 180l54 -29l-110 -173z" />
    <glyph glyph-name="Icircumflex" unicode="&#xce;" horiz-adv-x="261" 
d="M100 684h61v-684h-61v684zM103 881h49l104 -142h-68l-60 89l-61 -89h-67z" />
    <glyph glyph-name="Idieresis" unicode="&#xcf;" horiz-adv-x="261" 
d="M100 684h61v-684h-61v684zM1.5 750.5c-8.33301 8.33301 -12.5 18.166 -12.5 29.499c0 12 4.16699 22.167 12.5 30.5s18.166 12.5 29.499 12.5c12 0 22.167 -4.16699 30.5 -12.5s12.5 -18.5 12.5 -30.5c0 -11.333 -4.16699 -21.166 -12.5 -29.499s-18.5 -12.5 -30.5 -12.5
c-11.333 0 -21.166 4.16699 -29.499 12.5zM186.5 750.5c-8.33301 8.33301 -12.5 18.166 -12.5 29.499c0 12 4.16699 22.167 12.5 30.5s18.166 12.5 29.499 12.5c12 0 22.167 -4.16699 30.5 -12.5s12.5 -18.5 12.5 -30.5c0 -11.333 -4.16699 -21.166 -12.5 -29.499
s-18.5 -12.5 -30.5 -12.5c-11.333 0 -21.166 4.16699 -29.499 12.5z" />
    <glyph glyph-name="Eth" unicode="&#xd0;" horiz-adv-x="787" 
d="M577 641.5c48 -30.333 85.498 -71.833 112.498 -124.5s40.5 -112 40.5 -178c0 -114.667 -33.5 -201.167 -100.5 -259.5s-166.833 -87.5 -299.5 -87.5c-24.667 0 -49.5 0.333008 -74.5 1s-44.5 1.33398 -58.5 2.00098l-47 5v340h-79v54h79v240
c-13.333 0 -23.166 -0.833008 -29.499 -2.5s-11.833 -4.83398 -16.5 -9.50098c-4 -4 -7.5 -9.5 -10.5 -16.5s-4.5 -13.5 -4.5 -19.5l-55 1c1.33301 31.333 11.333 56.333 30 75c10 9.33301 21.833 16.166 35.5 20.499s30.834 6.83301 51.501 7.5l262 -1
c61.333 -1.33301 116 -17.166 164 -47.499zM583.498 122c57.667 49.333 86.498 121.333 86.498 216c0 58.667 -11.167 110.167 -33.5 154.5s-53.666 78.833 -93.999 103.5s-86.833 37 -139.5 37h-193v-239h145v-54h-145v-287l30 -1c38.667 -2.66699 69.334 -4 92.001 -4
c110 0 193.833 24.667 251.5 74z" />
    <glyph glyph-name="Ntilde" unicode="&#xd1;" horiz-adv-x="781" 
d="M63 -2c-14 7.33301 -25.334 17.334 -34.001 30.001l47 32c3.33301 -5.33301 8 -9.33301 14 -12s11.667 -4 17 -4c8.66699 0 16.334 3.66699 23.001 11s10 15.666 10 24.999v604h38l111 -125l320 -408l14 -22l-3 554h62v-683h-21l-451 563l-12 21l4 -505
c0 -26.667 -9.33301 -48.667 -28 -66s-40.667 -26 -66 -26c-16 0 -31 3.66699 -45 11zM321.499 813.501c17 6.33301 33.833 9.5 50.5 9.5c12.667 0 23.667 -1.66699 33 -5s20 -8.33301 32 -15c17.333 -10 32.333 -15 45 -15c22 0 46.333 11 73 33l34 -41
c-20 -16 -37 -27.167 -51 -33.5s-33.333 -9.5 -58 -9.5c-12 0 -21.833 1.33301 -29.5 4s-16.5 7 -26.5 13c-9.33301 5.33301 -17.5 9.33301 -24.5 12s-15.833 4 -26.5 4c-12 0 -23.5 -2.16699 -34.5 -6.5s-24.5 -13.166 -40.5 -26.499l-33 41
c20.667 17.333 39.5 29.166 56.5 35.499z" />
    <glyph glyph-name="Ograve" unicode="&#xd2;" horiz-adv-x="798" 
d="M226.5 28.5c-52.333 30.333 -93.668 72 -124.001 125s-45.5 111.833 -45.5 176.5v19c0 65.333 15 124.833 45 178.5s71 95.834 123 126.501s109.667 46 173 46c64 0 122 -15.333 174 -46s93 -72.834 123 -126.501s45 -113.167 45 -178.5v-19
c0 -66 -14.667 -125.333 -44 -178s-69.666 -94 -120.999 -124s-109 -45 -173 -45c-64.667 0 -123.167 15.167 -175.5 45.5zM541.998 77c42.667 25.333 76.333 60.166 101 104.499s37 93.833 37 148.5v19c0 55.333 -12.5 105.5 -37.5 150.5s-59 80.333 -102 106
s-90.833 38.5 -143.5 38.5c-52 0 -99.333 -13 -142 -39s-76.334 -61.5 -101.001 -106.5s-37 -94.833 -37 -149.5v-19c0 -54.667 12.333 -104.167 37 -148.5s58.5 -79.166 101.5 -104.499s90.833 -38 143.5 -38s100.334 12.667 143.001 38zM215.997 826l33 51l165 -115
l-21 -36z" />
    <glyph glyph-name="Oacute" unicode="&#xd3;" horiz-adv-x="798" 
d="M226.5 28.5c-52.333 30.333 -93.668 72 -124.001 125s-45.5 111.833 -45.5 176.5v19c0 65.333 15 124.833 45 178.5s71 95.834 123 126.501s109.667 46 173 46c64 0 122 -15.333 174 -46s93 -72.834 123 -126.501s45 -113.167 45 -178.5v-19
c0 -66 -14.667 -125.333 -44 -178s-69.666 -94 -120.999 -124s-109 -45 -173 -45c-64.667 0 -123.167 15.167 -175.5 45.5zM541.998 77c42.667 25.333 76.333 60.166 101 104.499s37 93.833 37 148.5v19c0 55.333 -12.5 105.5 -37.5 150.5s-59 80.333 -102 106
s-90.833 38.5 -143.5 38.5c-52 0 -99.333 -13 -142 -39s-76.334 -61.5 -101.001 -106.5s-37 -94.833 -37 -149.5v-19c0 -54.667 12.333 -104.167 37 -148.5s58.5 -79.166 101.5 -104.499s90.833 -38 143.5 -38s100.334 12.667 143.001 38zM369.997 774l169 110l31 -52
l-181 -94z" />
    <glyph glyph-name="Ocircumflex" unicode="&#xd4;" horiz-adv-x="798" 
d="M226.5 28.5c-52.333 30.333 -93.668 72 -124.001 125s-45.5 111.833 -45.5 176.5v19c0 65.333 15 124.833 45 178.5s71 95.834 123 126.501s109.667 46 173 46c64 0 122 -15.333 174 -46s93 -72.834 123 -126.501s45 -113.167 45 -178.5v-19
c0 -66 -14.667 -125.333 -44 -178s-69.666 -94 -120.999 -124s-109 -45 -173 -45c-64.667 0 -123.167 15.167 -175.5 45.5zM541.998 77c42.667 25.333 76.333 60.166 101 104.499s37 93.833 37 148.5v19c0 55.333 -12.5 105.5 -37.5 150.5s-59 80.333 -102 106
s-90.833 38.5 -143.5 38.5c-52 0 -99.333 -13 -142 -39s-76.334 -61.5 -101.001 -106.5s-37 -94.833 -37 -149.5v-19c0 -54.667 12.333 -104.167 37 -148.5s58.5 -79.166 101.5 -104.499s90.833 -38 143.5 -38s100.334 12.667 143.001 38zM371.997 855h49l130 -122h-74
l-80 69l-81 -69h-71z" />
    <glyph glyph-name="Otilde" unicode="&#xd5;" horiz-adv-x="798" 
d="M226.5 28.5c-52.333 30.333 -93.668 72 -124.001 125s-45.5 111.833 -45.5 176.5v19c0 65.333 15 124.833 45 178.5s71 95.834 123 126.501s109.667 46 173 46c64 0 122 -15.333 174 -46s93 -72.834 123 -126.501s45 -113.167 45 -178.5v-19
c0 -66 -14.667 -125.333 -44 -178s-69.666 -94 -120.999 -124s-109 -45 -173 -45c-64.667 0 -123.167 15.167 -175.5 45.5zM541.998 77c42.667 25.333 76.333 60.166 101 104.499s37 93.833 37 148.5v19c0 55.333 -12.5 105.5 -37.5 150.5s-59 80.333 -102 106
s-90.833 38.5 -143.5 38.5c-52 0 -99.333 -13 -142 -39s-76.334 -61.5 -101.001 -106.5s-37 -94.833 -37 -149.5v-19c0 -54.667 12.333 -104.167 37 -148.5s58.5 -79.166 101.5 -104.499s90.833 -38 143.5 -38s100.334 12.667 143.001 38zM297.497 813.5
c17 6.33301 33.833 9.5 50.5 9.5c12.667 0 23.667 -1.66699 33 -5s20 -8.33301 32 -15c17.333 -10 32.333 -15 45 -15c22 0 46.333 11 73 33l34 -41c-20 -16 -37 -27.167 -51 -33.5s-33.333 -9.5 -58 -9.5c-12 0 -21.833 1.33301 -29.5 4s-16.5 7 -26.5 13
c-9.33301 5.33301 -17.5 9.33301 -24.5 12s-15.833 4 -26.5 4c-12 0 -23.5 -2.16699 -34.5 -6.5s-24.5 -13.166 -40.5 -26.499l-33 41c20.667 17.333 39.5 29.166 56.5 35.499z" />
    <glyph glyph-name="Odieresis" unicode="&#xd6;" horiz-adv-x="798" 
d="M226.5 28.5c-52.333 30.333 -93.668 72 -124.001 125s-45.5 111.833 -45.5 176.5v19c0 65.333 15 124.833 45 178.5s71 95.834 123 126.501s109.667 46 173 46c64 0 122 -15.333 174 -46s93 -72.834 123 -126.501s45 -113.167 45 -178.5v-19
c0 -66 -14.667 -125.333 -44 -178s-69.666 -94 -120.999 -124s-109 -45 -173 -45c-64.667 0 -123.167 15.167 -175.5 45.5zM541.998 77c42.667 25.333 76.333 60.166 101 104.499s37 93.833 37 148.5v19c0 55.333 -12.5 105.5 -37.5 150.5s-59 80.333 -102 106
s-90.833 38.5 -143.5 38.5c-52 0 -99.333 -13 -142 -39s-76.334 -61.5 -101.001 -106.5s-37 -94.833 -37 -149.5v-19c0 -54.667 12.333 -104.167 37 -148.5s58.5 -79.166 101.5 -104.499s90.833 -38 143.5 -38s100.334 12.667 143.001 38zM254.497 746.5
c-8.33301 8.33301 -12.5 18.166 -12.5 29.499c0 12 4.16699 22.167 12.5 30.5s18.166 12.5 29.499 12.5c12 0 22.167 -4.16699 30.5 -12.5s12.5 -18.5 12.5 -30.5c0 -11.333 -4.16699 -21.166 -12.5 -29.499s-18.5 -12.5 -30.5 -12.5
c-11.333 0 -21.166 4.16699 -29.499 12.5zM476.497 746.5c-8.33301 8.33301 -12.5 18.166 -12.5 29.499c0 12 4.16699 22.167 12.5 30.5s18.166 12.5 29.499 12.5c12 0 22.167 -4.16699 30.5 -12.5s12.5 -18.5 12.5 -30.5c0 -11.333 -4.16699 -21.166 -12.5 -29.499
s-18.5 -12.5 -30.5 -12.5c-11.333 0 -21.166 4.16699 -29.499 12.5z" />
    <glyph glyph-name="multiply" unicode="&#xd7;" horiz-adv-x="520" 
d="M69 116l149 149l-142 143l43 43l142 -143l142 143l41 -41l-142 -142l149 -149l-43 -43l-149 149l-149 -150z" />
    <glyph glyph-name="Oslash" unicode="&#xd8;" horiz-adv-x="798" 
d="M694.5 528.5c30.333 -53.667 45.498 -113.5 45.498 -179.5v-19c0 -66 -14.667 -125.333 -44 -178s-69.666 -94 -120.999 -124s-109 -45 -173 -45c-36 0 -70.667 5 -104 15l-28 -67h-71l38 92c-55.333 28.667 -99.166 70.167 -131.499 124.5s-48.5 115.166 -48.5 182.499
v19c0 65.333 15 124.833 45 178.5s71 95.834 123 126.501s109.667 46 173 46c40 0 78.333 -6.33301 115 -19l29 68h69l-40 -95c52 -30 93.167 -71.833 123.5 -125.5zM155.498 179c25.667 -44.667 60.168 -79.333 103.501 -104l232 553c-30.667 10.667 -62 16 -94 16
c-52 0 -99.333 -13 -142 -39s-76.334 -61.5 -101.001 -106.5s-37 -94.833 -37 -149.5v-19c0 -56 12.833 -106.333 38.5 -151zM679.999 349.001c0 54 -11.6689 102.834 -35.002 146.501s-55.333 78.5 -96 104.5l-230 -550c27.333 -7.33301 54 -11 80 -11
c52.667 0 100.334 12.667 143.001 38s76.334 60.166 101.001 104.499s37 93.833 37 148.5v19z" />
    <glyph glyph-name="Ugrave" unicode="&#xd9;" horiz-adv-x="734" 
d="M255.5 27.5c-39 25 -68.667 58.4971 -89 100.497s-30.5 88.333 -30.5 139v328c0 13.333 -3.16699 24.333 -9.5 33s-15.166 13 -26.499 13c-16.667 0 -30.334 -8.66699 -41.001 -26l-45 32c7.33301 14 18.333 26 33 36s32 15 52 15c29.333 0 52.833 -9.66699 70.5 -29
s26.5 -44 26.5 -74v-328c0 -41.333 7.66699 -78.666 23 -111.999s37.833 -59.833 67.5 -79.5s65.167 -29.5 106.5 -29.5c44 0 80.667 10.667 110 32s51 48.833 65 82.5s21 69.167 21 106.5v417h60v-417c0 -47.333 -9.33301 -92.166 -28 -134.499
s-47.167 -76.666 -85.5 -102.999s-85.5 -39.5 -141.5 -39.5c-53.333 0 -99.5 12.5 -138.5 37.5zM211 825.997l33 51l165 -115l-21 -36z" />
    <glyph glyph-name="Uacute" unicode="&#xda;" horiz-adv-x="734" 
d="M255.5 27.5c-39 25 -68.667 58.4971 -89 100.497s-30.5 88.333 -30.5 139v328c0 13.333 -3.16699 24.333 -9.5 33s-15.166 13 -26.499 13c-16.667 0 -30.334 -8.66699 -41.001 -26l-45 32c7.33301 14 18.333 26 33 36s32 15 52 15c29.333 0 52.833 -9.66699 70.5 -29
s26.5 -44 26.5 -74v-328c0 -41.333 7.66699 -78.666 23 -111.999s37.833 -59.833 67.5 -79.5s65.167 -29.5 106.5 -29.5c44 0 80.667 10.667 110 32s51 48.833 65 82.5s21 69.167 21 106.5v417h60v-417c0 -47.333 -9.33301 -92.166 -28 -134.499
s-47.167 -76.666 -85.5 -102.999s-85.5 -39.5 -141.5 -39.5c-53.333 0 -99.5 12.5 -138.5 37.5zM365 773.997l169 110l31 -52l-181 -94z" />
    <glyph glyph-name="Ucircumflex" unicode="&#xdb;" horiz-adv-x="734" 
d="M255.5 27.5c-39 25 -68.667 58.4971 -89 100.497s-30.5 88.333 -30.5 139v328c0 13.333 -3.16699 24.333 -9.5 33s-15.166 13 -26.499 13c-16.667 0 -30.334 -8.66699 -41.001 -26l-45 32c7.33301 14 18.333 26 33 36s32 15 52 15c29.333 0 52.833 -9.66699 70.5 -29
s26.5 -44 26.5 -74v-328c0 -41.333 7.66699 -78.666 23 -111.999s37.833 -59.833 67.5 -79.5s65.167 -29.5 106.5 -29.5c44 0 80.667 10.667 110 32s51 48.833 65 82.5s21 69.167 21 106.5v417h60v-417c0 -47.333 -9.33301 -92.166 -28 -134.499
s-47.167 -76.666 -85.5 -102.999s-85.5 -39.5 -141.5 -39.5c-53.333 0 -99.5 12.5 -138.5 37.5zM367 854.997h49l130 -122h-74l-80 69l-81 -69h-71z" />
    <glyph glyph-name="Udieresis" unicode="&#xdc;" horiz-adv-x="734" 
d="M255.5 27.5c-39 25 -68.667 58.4971 -89 100.497s-30.5 88.333 -30.5 139v328c0 13.333 -3.16699 24.333 -9.5 33s-15.166 13 -26.499 13c-16.667 0 -30.334 -8.66699 -41.001 -26l-45 32c7.33301 14 18.333 26 33 36s32 15 52 15c29.333 0 52.833 -9.66699 70.5 -29
s26.5 -44 26.5 -74v-328c0 -41.333 7.66699 -78.666 23 -111.999s37.833 -59.833 67.5 -79.5s65.167 -29.5 106.5 -29.5c44 0 80.667 10.667 110 32s51 48.833 65 82.5s21 69.167 21 106.5v417h60v-417c0 -47.333 -9.33301 -92.166 -28 -134.499
s-47.167 -76.666 -85.5 -102.999s-85.5 -39.5 -141.5 -39.5c-53.333 0 -99.5 12.5 -138.5 37.5zM249.5 746.497c-8.33301 8.33301 -12.5 18.166 -12.5 29.499c0 12 4.16699 22.167 12.5 30.5s18.166 12.5 29.499 12.5c12 0 22.167 -4.16699 30.5 -12.5
s12.5 -18.5 12.5 -30.5c0 -11.333 -4.16699 -21.166 -12.5 -29.499s-18.5 -12.5 -30.5 -12.5c-11.333 0 -21.166 4.16699 -29.499 12.5zM471.5 746.497c-8.33301 8.33301 -12.5 18.166 -12.5 29.499c0 12 4.16699 22.167 12.5 30.5s18.166 12.5 29.499 12.5
c12 0 22.167 -4.16699 30.5 -12.5s12.5 -18.5 12.5 -30.5c0 -11.333 -4.16699 -21.166 -12.5 -29.499s-18.5 -12.5 -30.5 -12.5c-11.333 0 -21.166 4.16699 -29.499 12.5z" />
    <glyph glyph-name="Yacute" unicode="&#xdd;" horiz-adv-x="601" 
d="M109.5 631c-5.66699 4 -11.832 6 -18.499 6c-4.66699 0 -9.33398 -1.33301 -14.001 -4c-7.33301 -4 -12 -8.66699 -14 -14l-48 24c4.66699 16 17 29.667 37 41c12.667 7.33301 27 11 43 11s30.833 -4.5 44.5 -13.5s25.167 -21.833 34.5 -38.5l154 -282l181 324h64
l-216 -386l2 -299h-61v297l-175 318c-3.33301 6.66699 -7.83301 12 -13.5 16zM296.002 774l169 110l31 -52l-181 -94z" />
    <glyph glyph-name="Thorn" unicode="&#xde;" horiz-adv-x="558" 
d="M160 684v-121h157c60 -3.33301 107.167 -23.833 141.5 -61.5s51.5 -87.5 51.5 -149.5c0 -72 -22.333 -125.833 -67 -161.5s-103 -53.5 -175 -53.5c-18.667 0 -36.667 1.33301 -54 4v57c22 -3.33301 41 -5 57 -5c54 0 97.333 13.5 130 40.5s49 67.833 49 122.5
c0 49.333 -13.5 86.833 -40.5 112.5s-64.167 38.5 -111.5 38.5h-138v-507h-60v684h60z" />
    <glyph glyph-name="germandbls" unicode="&#xdf;" horiz-adv-x="548" 
d="M262.5 7.5c-21 13.667 -35.502 25.832 -43.502 36.499l38 39c8 -9.33301 20.667 -18.5 38 -27.5s35.333 -13.5 54 -13.5c32.667 0 58.5 13.333 77.5 40s28.5 60 28.5 100c0 22.667 -3.33301 41.334 -10 56.001s-16.167 27.334 -28.5 38.001s-30.5 24 -54.5 40
c-18.667 12 -32.5 21.5 -41.5 28.5s-16.667 15.833 -23 26.5s-9.5 23.334 -9.5 38.001c0 23.333 8.33301 47.333 25 72c7.33301 10 14.833 23.667 22.5 41s11.5 36.666 11.5 57.999c0 29.333 -9.33301 53.166 -28 71.499s-43.334 27.5 -74.001 27.5
c-37.333 0 -64.166 -11.667 -80.499 -35s-24.5 -57.666 -24.5 -102.999v-541h-60v539c0 68.667 13.667 118.5 41 149.5s67.333 46.5 120 46.5c46 0 84.667 -13 116 -39s47 -64.667 47 -116c0 -28.667 -4.16699 -53.667 -12.5 -75s-17.166 -38.333 -26.499 -51
c-12.667 -18 -19 -32 -19 -42c0 -7.33301 3.83301 -14.833 11.5 -22.5s18.834 -15.834 33.501 -24.501c25.333 -16 45.833 -30.5 61.5 -43.5s29.667 -31.667 42 -56s18.5 -54.5 18.5 -90.5c0 -33.333 -6.33301 -64.333 -19 -93s-31.5 -51.667 -56.5 -69
s-55.167 -26 -90.5 -26s-63.5 6.83301 -84.5 20.5z" />
    <glyph glyph-name="agrave" unicode="&#xe0;" horiz-adv-x="588" 
d="M142 25c-32.667 23.333 -57.3311 54.333 -73.998 93s-25 81.334 -25 128.001c0 51.333 10 96.833 30 136.5s48.667 70.5 86 92.5s81 33 131 33c15.333 0 34.666 -0.833008 57.999 -2.5s44 -3.83398 62 -6.50098h60v-413c0 -13.333 3.16699 -23.5 9.5 -30.5
s14.166 -10.5 23.499 -10.5c12 0 21.667 5.66699 29 17l43 -34c-10 -14 -21.167 -23.833 -33.5 -29.5s-26.5 -8.5 -42.5 -8.5c-23.333 0 -43.833 8 -61.5 24s-26.5 35.333 -26.5 58c-16 -26.667 -37 -47 -63 -61s-55.333 -21 -88 -21c-46 0 -85.333 11.667 -118 35z
M342.003 66c24 14.667 42.001 34.002 54.001 58.002c9.33301 19.333 14 40.666 14 63.999v262l-66 2l-58 2c-60.667 0 -106.334 -19 -137.001 -57s-46 -87.667 -46 -149c0 -56.667 13.5 -104.834 40.5 -144.501s66.167 -59.5 117.5 -59.5c30 0 57 7.33301 81 22z
M136.004 698.002l44 42l134 -150l-28 -30z" />
    <glyph glyph-name="aacute" unicode="&#xe1;" horiz-adv-x="588" 
d="M142 25c-32.667 23.333 -57.3311 54.333 -73.998 93s-25 81.334 -25 128.001c0 51.333 10 96.833 30 136.5s48.667 70.5 86 92.5s81 33 131 33c15.333 0 34.666 -0.833008 57.999 -2.5s44 -3.83398 62 -6.50098h60v-413c0 -13.333 3.16699 -23.5 9.5 -30.5
s14.166 -10.5 23.499 -10.5c12 0 21.667 5.66699 29 17l43 -34c-10 -14 -21.167 -23.833 -33.5 -29.5s-26.5 -8.5 -42.5 -8.5c-23.333 0 -43.833 8 -61.5 24s-26.5 35.333 -26.5 58c-16 -26.667 -37 -47 -63 -61s-55.333 -21 -88 -21c-46 0 -85.333 11.667 -118 35z
M342.003 66c24 14.667 42.001 34.002 54.001 58.002c9.33301 19.333 14 40.666 14 63.999v262l-66 2l-58 2c-60.667 0 -106.334 -19 -137.001 -57s-46 -87.667 -46 -149c0 -56.667 13.5 -104.834 40.5 -144.501s66.167 -59.5 117.5 -59.5c30 0 57 7.33301 81 22z
M266.004 593.002l120 161l48 -38l-138 -151z" />
    <glyph glyph-name="acircumflex" unicode="&#xe2;" horiz-adv-x="588" 
d="M142 25c-32.667 23.333 -57.3311 54.333 -73.998 93s-25 81.334 -25 128.001c0 51.333 10 96.833 30 136.5s48.667 70.5 86 92.5s81 33 131 33c15.333 0 34.666 -0.833008 57.999 -2.5s44 -3.83398 62 -6.50098h60v-413c0 -13.333 3.16699 -23.5 9.5 -30.5
s14.166 -10.5 23.499 -10.5c12 0 21.667 5.66699 29 17l43 -34c-10 -14 -21.167 -23.833 -33.5 -29.5s-26.5 -8.5 -42.5 -8.5c-23.333 0 -43.833 8 -61.5 24s-26.5 35.333 -26.5 58c-16 -26.667 -37 -47 -63 -61s-55.333 -21 -88 -21c-46 0 -85.333 11.667 -118 35z
M342.003 66c24 14.667 42.001 34.002 54.001 58.002c9.33301 19.333 14 40.666 14 63.999v262l-66 2l-58 2c-60.667 0 -106.334 -19 -137.001 -57s-46 -87.667 -46 -149c0 -56.667 13.5 -104.834 40.5 -144.501s66.167 -59.5 117.5 -59.5c30 0 57 7.33301 81 22z
M266.004 707.002h49l124 -142h-68l-80 89l-81 -89h-67z" />
    <glyph glyph-name="atilde" unicode="&#xe3;" horiz-adv-x="588" 
d="M142 25c-32.667 23.333 -57.3311 54.333 -73.998 93s-25 81.334 -25 128.001c0 51.333 10 96.833 30 136.5s48.667 70.5 86 92.5s81 33 131 33c15.333 0 34.666 -0.833008 57.999 -2.5s44 -3.83398 62 -6.50098h60v-413c0 -13.333 3.16699 -23.5 9.5 -30.5
s14.166 -10.5 23.499 -10.5c12 0 21.667 5.66699 29 17l43 -34c-10 -14 -21.167 -23.833 -33.5 -29.5s-26.5 -8.5 -42.5 -8.5c-23.333 0 -43.833 8 -61.5 24s-26.5 35.333 -26.5 58c-16 -26.667 -37 -47 -63 -61s-55.333 -21 -88 -21c-46 0 -85.333 11.667 -118 35z
M342.003 66c24 14.667 42.001 34.002 54.001 58.002c9.33301 19.333 14 40.666 14 63.999v262l-66 2l-58 2c-60.667 0 -106.334 -19 -137.001 -57s-46 -87.667 -46 -149c0 -56.667 13.5 -104.834 40.5 -144.501s66.167 -59.5 117.5 -59.5c30 0 57 7.33301 81 22z
M184.504 639.502c17 6.33301 33.833 9.5 50.5 9.5c12.667 0 23.667 -1.66699 33 -5s20 -8.33301 32 -15c17.333 -10 32.333 -15 45 -15c22 0 46.333 11 73 33l34 -41c-20 -16 -37 -27.167 -51 -33.5s-33.333 -9.5 -58 -9.5c-12 0 -21.833 1.33301 -29.5 4s-16.5 7 -26.5 13
c-9.33301 5.33301 -17.5 9.33301 -24.5 12s-15.833 4 -26.5 4c-12 0 -23.5 -2.16699 -34.5 -6.5s-24.5 -13.166 -40.5 -26.499l-33 41c20.667 17.333 39.5 29.166 56.5 35.499z" />
    <glyph glyph-name="adieresis" unicode="&#xe4;" horiz-adv-x="588" 
d="M142 25c-32.667 23.333 -57.3311 54.333 -73.998 93s-25 81.334 -25 128.001c0 51.333 10 96.833 30 136.5s48.667 70.5 86 92.5s81 33 131 33c15.333 0 34.666 -0.833008 57.999 -2.5s44 -3.83398 62 -6.50098h60v-413c0 -13.333 3.16699 -23.5 9.5 -30.5
s14.166 -10.5 23.499 -10.5c12 0 21.667 5.66699 29 17l43 -34c-10 -14 -21.167 -23.833 -33.5 -29.5s-26.5 -8.5 -42.5 -8.5c-23.333 0 -43.833 8 -61.5 24s-26.5 35.333 -26.5 58c-16 -26.667 -37 -47 -63 -61s-55.333 -21 -88 -21c-46 0 -85.333 11.667 -118 35z
M342.003 66c24 14.667 42.001 34.002 54.001 58.002c9.33301 19.333 14 40.666 14 63.999v262l-66 2l-58 2c-60.667 0 -106.334 -19 -137.001 -57s-46 -87.667 -46 -149c0 -56.667 13.5 -104.834 40.5 -144.501s66.167 -59.5 117.5 -59.5c30 0 57 7.33301 81 22z
M148.504 579.502c-8.33301 8.33301 -12.5 18.166 -12.5 29.499c0 12 4.16699 22.167 12.5 30.5s18.166 12.5 29.499 12.5c12 0 22.167 -4.16699 30.5 -12.5s12.5 -18.5 12.5 -30.5c0 -11.333 -4.16699 -21.166 -12.5 -29.499s-18.5 -12.5 -30.5 -12.5
c-11.333 0 -21.166 4.16699 -29.499 12.5zM370.504 579.502c-8.33301 8.33301 -12.5 18.166 -12.5 29.499c0 12 4.16699 22.167 12.5 30.5s18.166 12.5 29.499 12.5c12 0 22.167 -4.16699 30.5 -12.5s12.5 -18.5 12.5 -30.5c0 -11.333 -4.16699 -21.166 -12.5 -29.499
s-18.5 -12.5 -30.5 -12.5c-11.333 0 -21.166 4.16699 -29.499 12.5z" />
    <glyph glyph-name="aring" unicode="&#xe5;" horiz-adv-x="588" 
d="M142 25c-32.667 23.333 -57.3311 54.333 -73.998 93s-25 81.334 -25 128.001c0 51.333 10 96.833 30 136.5s48.667 70.5 86 92.5s81 33 131 33c15.333 0 34.666 -0.833008 57.999 -2.5s44 -3.83398 62 -6.50098h60v-413c0 -13.333 3.16699 -23.5 9.5 -30.5
s14.166 -10.5 23.499 -10.5c12 0 21.667 5.66699 29 17l43 -34c-10 -14 -21.167 -23.833 -33.5 -29.5s-26.5 -8.5 -42.5 -8.5c-23.333 0 -43.833 8 -61.5 24s-26.5 35.333 -26.5 58c-16 -26.667 -37 -47 -63 -61s-55.333 -21 -88 -21c-46 0 -85.333 11.667 -118 35z
M342.003 66c24 14.667 42.001 34.002 54.001 58.002c9.33301 19.333 14 40.666 14 63.999v262l-66 2l-58 2c-60.667 0 -106.334 -19 -137.001 -57s-46 -87.667 -46 -149c0 -56.667 13.5 -104.834 40.5 -144.501s66.167 -59.5 117.5 -59.5c30 0 57 7.33301 81 22z
M226.004 585.002c-18 18.667 -27 43.334 -27 74.001c0 31.333 9.16699 56.5 27.5 75.5s42.833 28.5 73.5 28.5s55.167 -9.33301 73.5 -28s27.5 -43.334 27.5 -74.001c0 -31.333 -9.5 -56.5 -28.5 -75.5s-43.833 -28.5 -74.5 -28.5c-30 0 -54 9.33301 -72 28z
M338.004 617.502c10 11.667 14.999 26.167 14.999 43.5s-5 31.333 -15 42s-22.667 16 -38 16c-16 0 -28.667 -5.5 -38 -16.5s-14 -25.5 -14 -43.5c0 -18.667 4.83301 -33.167 14.5 -43.5s21.834 -15.5 36.501 -15.5c16 0 29 5.83301 39 17.5z" />
    <glyph glyph-name="ae" unicode="&#xe6;" horiz-adv-x="791" 
d="M79 26.5c-30 24.333 -45.002 59.1689 -45.002 104.502c0 52.667 19.167 91.167 57.5 115.5s87.5 36.5 147.5 36.5h105v53c0 38 -8 67.333 -24 88c-16 20 -41.667 30 -77 30c-26 0 -52.167 -4.83301 -78.5 -14.5s-50.5 -22.834 -72.5 -39.501l-27 44
c23.333 20 50.5 35.667 81.5 47s62.167 17 93.5 17c38.667 0 69.667 -8 93 -24c26.667 -17.333 45 -45.333 55 -84c18.667 34 41.334 59.667 68.001 77c30 20.667 64.333 31 103 31c52.667 0 96.5 -14.167 131.5 -42.5s52.5 -65.5 52.5 -111.5c0 -52 -21 -90.667 -63 -116
s-95 -38 -159 -38h-117c6 -52.667 22.5 -91.834 49.5 -117.501s65.833 -38.5 116.5 -38.5c26 0 50.833 4 74.5 12s51.167 20 82.5 36l26 -44c-57.333 -38.667 -118.666 -58 -183.999 -58c-56 0 -101.333 13.333 -136 40c-26.667 20.667 -47 48.667 -61 84
c-3.33301 -16.667 -8.66602 -32.5 -15.999 -47.5s-20.333 -29.167 -39 -42.5c-32.667 -22.667 -72.334 -34 -119.001 -34c-49.333 0 -89 12.167 -119 36.5zM639.998 277.003c28.667 15.333 42.999 41.3311 42.999 77.998c0 34.667 -11.167 59.834 -33.5 75.501
s-50.5 23.5 -84.5 23.5c-50 0 -90.333 -21.333 -121 -64c-29.333 -41.333 -44 -86.666 -44 -135.999h121c50.667 0 90.334 7.66699 119.001 23zM302.997 79.501c27.333 23.667 41.001 56.167 41.001 97.5v52h-97c-50.667 0 -88.834 -7.33301 -114.501 -22
s-38.5 -40.667 -38.5 -78c0 -56.667 32.667 -85 98 -85c46.667 0 83.667 11.833 111 35.5z" />
    <glyph glyph-name="ccedilla" unicode="&#xe7;" horiz-adv-x="495" 
d="M348 -68.5c12 -17 17.998 -36.502 17.998 -58.502c0 -18 -4.16699 -35.5 -12.5 -52.5s-20.833 -30.5 -37.5 -40.5s-37 -14 -61 -12l10 53c14.667 0 26.334 5.33301 35.001 16s13 23 13 37c0 13.333 -4 23.5 -12 30.5s-20 10.5 -36 10.5h-31l8 81
c-63.333 7.33301 -112.166 31.833 -146.499 73.5s-51.5 97.834 -51.5 168.501c0 54 9.66699 101.667 29 143s46.333 73.5 81 96.5s74.667 34.5 120 34.5c34 0 64.667 -6.66699 92 -20s48.833 -31.5 64.5 -54.5s23.5 -48.833 23.5 -77.5h-56
c0 28.667 -11.333 52.167 -34 70.5s-52 27.5 -88 27.5c-52.667 0 -94.5 -20 -125.5 -60s-46.5 -93.667 -46.5 -161c0 -61.333 15.333 -108.166 46 -140.499s74.667 -48.5 132 -48.5c24.667 0 49.334 3.5 74.001 10.5s52.667 18.833 84 35.5l26 -42
c-50.667 -34.667 -105.334 -53.667 -164.001 -57l-7 -34c23.333 -2.66699 41 -12.5 53 -29.5z" />
    <glyph glyph-name="egrave" unicode="&#xe8;" horiz-adv-x="499" 
d="M148 21c-34.667 20.667 -60.834 49.168 -78.501 85.501s-26.5 77.5 -26.5 123.5c0 45.333 8.5 89.333 25.5 132s42.667 77.667 77 105s76.166 41 125.499 41c32.667 0 63 -6.33301 91 -19s50.167 -30.667 66.5 -54s24.5 -50.333 24.5 -81c0 -49.333 -21 -87.5 -63 -114.5
s-100 -40.167 -174 -39.5l-110 1c6 -51.333 23.167 -90.333 51.5 -117s67.5 -40 117.5 -40c30 0 57.833 4.16699 83.5 12.5s50.5 21.166 74.5 38.499l30 -40c-25.333 -20 -54.166 -35.833 -86.499 -47.5s-66.166 -17.5 -101.499 -17.5c-50 0 -92.333 10.333 -127 31z
M393 355.001c0 33.333 -11.499 58.165 -34.499 74.498s-51.167 24.5 -84.5 24.5c-37.333 0 -68.833 -10.667 -94.5 -32s-44.834 -47.666 -57.501 -78.999s-19 -61.666 -19 -90.999h126c109.333 0 164 34.333 164 103zM114.001 706l44 42l134 -150l-28 -30z" />
    <glyph glyph-name="eacute" unicode="&#xe9;" horiz-adv-x="499" 
d="M148 21c-34.667 20.667 -60.834 49.168 -78.501 85.501s-26.5 77.5 -26.5 123.5c0 45.333 8.5 89.333 25.5 132s42.667 77.667 77 105s76.166 41 125.499 41c32.667 0 63 -6.33301 91 -19s50.167 -30.667 66.5 -54s24.5 -50.333 24.5 -81c0 -49.333 -21 -87.5 -63 -114.5
s-100 -40.167 -174 -39.5l-110 1c6 -51.333 23.167 -90.333 51.5 -117s67.5 -40 117.5 -40c30 0 57.833 4.16699 83.5 12.5s50.5 21.166 74.5 38.499l30 -40c-25.333 -20 -54.166 -35.833 -86.499 -47.5s-66.166 -17.5 -101.499 -17.5c-50 0 -92.333 10.333 -127 31z
M393 355.001c0 33.333 -11.499 58.165 -34.499 74.498s-51.167 24.5 -84.5 24.5c-37.333 0 -68.833 -10.667 -94.5 -32s-44.834 -47.666 -57.501 -78.999s-19 -61.666 -19 -90.999h126c109.333 0 164 34.333 164 103zM244.001 601l120 161l48 -38l-138 -151z" />
    <glyph glyph-name="ecircumflex" unicode="&#xea;" horiz-adv-x="499" 
d="M148 21c-34.667 20.667 -60.834 49.168 -78.501 85.501s-26.5 77.5 -26.5 123.5c0 45.333 8.5 89.333 25.5 132s42.667 77.667 77 105s76.166 41 125.499 41c32.667 0 63 -6.33301 91 -19s50.167 -30.667 66.5 -54s24.5 -50.333 24.5 -81c0 -49.333 -21 -87.5 -63 -114.5
s-100 -40.167 -174 -39.5l-110 1c6 -51.333 23.167 -90.333 51.5 -117s67.5 -40 117.5 -40c30 0 57.833 4.16699 83.5 12.5s50.5 21.166 74.5 38.499l30 -40c-25.333 -20 -54.166 -35.833 -86.499 -47.5s-66.166 -17.5 -101.499 -17.5c-50 0 -92.333 10.333 -127 31z
M393 355.001c0 33.333 -11.499 58.165 -34.499 74.498s-51.167 24.5 -84.5 24.5c-37.333 0 -68.833 -10.667 -94.5 -32s-44.834 -47.666 -57.501 -78.999s-19 -61.666 -19 -90.999h126c109.333 0 164 34.333 164 103zM244.001 715h49l124 -142h-68l-80 89l-81 -89h-67z" />
    <glyph glyph-name="edieresis" unicode="&#xeb;" horiz-adv-x="499" 
d="M148 21c-34.667 20.667 -60.834 49.168 -78.501 85.501s-26.5 77.5 -26.5 123.5c0 45.333 8.5 89.333 25.5 132s42.667 77.667 77 105s76.166 41 125.499 41c32.667 0 63 -6.33301 91 -19s50.167 -30.667 66.5 -54s24.5 -50.333 24.5 -81c0 -49.333 -21 -87.5 -63 -114.5
s-100 -40.167 -174 -39.5l-110 1c6 -51.333 23.167 -90.333 51.5 -117s67.5 -40 117.5 -40c30 0 57.833 4.16699 83.5 12.5s50.5 21.166 74.5 38.499l30 -40c-25.333 -20 -54.166 -35.833 -86.499 -47.5s-66.166 -17.5 -101.499 -17.5c-50 0 -92.333 10.333 -127 31z
M393 355.001c0 33.333 -11.499 58.165 -34.499 74.498s-51.167 24.5 -84.5 24.5c-37.333 0 -68.833 -10.667 -94.5 -32s-44.834 -47.666 -57.501 -78.999s-19 -61.666 -19 -90.999h126c109.333 0 164 34.333 164 103zM126.501 587.5
c-8.33301 8.33301 -12.5 18.166 -12.5 29.499c0 12 4.16699 22.167 12.5 30.5s18.166 12.5 29.499 12.5c12 0 22.167 -4.16699 30.5 -12.5s12.5 -18.5 12.5 -30.5c0 -11.333 -4.16699 -21.166 -12.5 -29.499s-18.5 -12.5 -30.5 -12.5
c-11.333 0 -21.166 4.16699 -29.499 12.5zM348.501 587.5c-8.33301 8.33301 -12.5 18.166 -12.5 29.499c0 12 4.16699 22.167 12.5 30.5s18.166 12.5 29.499 12.5c12 0 22.167 -4.16699 30.5 -12.5s12.5 -18.5 12.5 -30.5c0 -11.333 -4.16699 -21.166 -12.5 -29.499
s-18.5 -12.5 -30.5 -12.5c-11.333 0 -21.166 4.16699 -29.499 12.5z" />
    <glyph glyph-name="igrave" unicode="&#xec;" horiz-adv-x="253" 
d="M144.5 60.5c6.33301 -6.33301 13.832 -9.50195 22.499 -9.50195c13.333 0 23 5.66699 29 17l44 -33c-5.33301 -11.333 -14.666 -20.833 -27.999 -28.5s-28.333 -11.5 -45 -11.5c-26.667 0 -48.667 8.33301 -66 25s-26 38.334 -26 65.001v415h60v-416
c0 -9.33301 3.16699 -17.166 9.5 -23.499zM-50.001 692.998l44 42l134 -150l-28 -30z" />
    <glyph glyph-name="iacute" unicode="&#xed;" horiz-adv-x="253" 
d="M144.5 60.5c6.33301 -6.33301 13.832 -9.50195 22.499 -9.50195c13.333 0 23 5.66699 29 17l44 -33c-5.33301 -11.333 -14.666 -20.833 -27.999 -28.5s-28.333 -11.5 -45 -11.5c-26.667 0 -48.667 8.33301 -66 25s-26 38.334 -26 65.001v415h60v-416
c0 -9.33301 3.16699 -17.166 9.5 -23.499zM84.999 578.998l90 180l54 -29l-110 -173z" />
    <glyph glyph-name="icircumflex" unicode="&#xee;" horiz-adv-x="253" 
d="M144.5 60.5c6.33301 -6.33301 13.832 -9.50195 22.499 -9.50195c13.333 0 23 5.66699 29 17l44 -33c-5.33301 -11.333 -14.666 -20.833 -27.999 -28.5s-28.333 -11.5 -45 -11.5c-26.667 0 -48.667 8.33301 -66 25s-26 38.334 -26 65.001v415h60v-416
c0 -9.33301 3.16699 -17.166 9.5 -23.499zM78.999 706.998h49l104 -142h-68l-60 89l-61 -89h-67z" />
    <glyph glyph-name="idieresis" unicode="&#xef;" horiz-adv-x="253" 
d="M144.5 60.5c6.33301 -6.33301 13.832 -9.50195 22.499 -9.50195c13.333 0 23 5.66699 29 17l44 -33c-5.33301 -11.333 -14.666 -20.833 -27.999 -28.5s-28.333 -11.5 -45 -11.5c-26.667 0 -48.667 8.33301 -66 25s-26 38.334 -26 65.001v415h60v-416
c0 -9.33301 3.16699 -17.166 9.5 -23.499zM-22.501 576.498c-8.33301 8.33301 -12.5 18.166 -12.5 29.499c0 12 4.16699 22.167 12.5 30.5s18.166 12.5 29.499 12.5c12 0 22.167 -4.16699 30.5 -12.5s12.5 -18.5 12.5 -30.5c0 -11.333 -4.16699 -21.166 -12.5 -29.499
s-18.5 -12.5 -30.5 -12.5c-11.333 0 -21.166 4.16699 -29.499 12.5zM162.499 576.498c-8.33301 8.33301 -12.5 18.166 -12.5 29.499c0 12 4.16699 22.167 12.5 30.5s18.166 12.5 29.499 12.5c12 0 22.167 -4.16699 30.5 -12.5s12.5 -18.5 12.5 -30.5
c0 -11.333 -4.16699 -21.166 -12.5 -29.499s-18.5 -12.5 -30.5 -12.5c-11.333 0 -21.166 4.16699 -29.499 12.5z" />
    <glyph glyph-name="eth" unicode="&#xf0;" horiz-adv-x="526" 
d="M143 23.5c-32.667 21.667 -57.833 51.002 -75.5 88.002s-26.5 77.833 -26.5 122.5c0 45.333 8.83301 86.5 26.5 123.5s43 66.333 76 88s71.167 32.5 114.5 32.5c31.333 0 60 -7.33301 86 -22s45.667 -32 59 -52c-5.33301 26 -15.166 56.167 -29.499 90.5
s-28.833 62.166 -43.5 83.499l-106 -61l-27 48l97 56c-29.333 31.333 -62.333 55.333 -99 72l24 52c48 -22.667 90 -54.334 126 -95.001l108 63l28 -48l-102 -58c28.667 -42 52 -93.167 70 -153.5s27 -119.5 27 -177.5c0 -54.667 -8.33301 -103.5 -25 -146.5
s-41.5 -76.833 -74.5 -101.5s-73.167 -37 -120.5 -37c-42.667 0 -80.334 10.833 -113.001 32.5zM378.001 109.502c25.333 43 38 99.167 38 168.5c0 22.667 -3 42.167 -9 58.5s-17.667 31.833 -35 46.5c-15.333 13.333 -33 23.5 -53 30.5s-40.333 10.5 -61 10.5
c-33.333 0 -61.833 -8.5 -85.5 -25.5s-41.5 -39.833 -53.5 -68.5s-18 -60 -18 -94c0 -32.667 5.83301 -63.667 17.5 -93s29 -53 52 -71s50.5 -27 82.5 -27c58 0 99.667 21.5 125 64.5z" />
    <glyph glyph-name="ntilde" unicode="&#xf1;" horiz-adv-x="592" 
d="M579 35c-5.33301 -11.333 -14.6699 -20.8379 -28.0029 -28.5049s-28.333 -11.5 -45 -11.5c-26.667 0 -48.667 8.33301 -66 25s-26 38.334 -26 65.001v251c0 80 -36 120 -108 120c-34 0 -63 -8.5 -87 -25.5s-48.667 -42.5 -74 -76.5v-354h-60v351
c0 52.667 -14 91.334 -42 116.001l40 40c12 -7.33301 23.5 -18.666 34.5 -33.999s18.833 -32 23.5 -50c22.667 30.667 47.834 52.834 75.501 66.501s59.167 20.5 94.5 20.5c48.667 0 87.334 -12.5 116.001 -37.5s44.334 -61.833 47.001 -110.5v-278
c0 -9.33301 3.16699 -17.166 9.5 -23.499s13.833 -9.5 22.5 -9.5c13.333 0 23 5.66699 29 17zM196.496 643.495c17 6.33301 33.833 9.5 50.5 9.5c12.667 0 23.667 -1.66699 33 -5s20 -8.33301 32 -15c17.333 -10 32.333 -15 45 -15c22 0 46.333 11 73 33l34 -41
c-20 -16 -37 -27.167 -51 -33.5s-33.333 -9.5 -58 -9.5c-12 0 -21.833 1.33301 -29.5 4s-16.5 7 -26.5 13c-9.33301 5.33301 -17.5 9.33301 -24.5 12s-15.833 4 -26.5 4c-12 0 -23.5 -2.16699 -34.5 -6.5s-24.5 -13.166 -40.5 -26.499l-33 41
c20.667 17.333 39.5 29.166 56.5 35.499z" />
    <glyph glyph-name="ograve" unicode="&#xf2;" horiz-adv-x="581" 
d="M163.5 23c-37 22 -65.833 52.665 -86.5 91.998s-31 84 -31 134s10.5 94.833 31.5 134.5s50 70.667 87 93s79.167 33.5 126.5 33.5c46.667 0 88.5 -11.167 125.5 -33.5s66 -53.166 87 -92.499s31.5 -84 31.5 -134s-10.5 -94.667 -31.5 -134s-50 -70.166 -87 -92.499
s-79.167 -33.5 -126.5 -33.5s-89.5 11 -126.5 33zM424.5 100.998c33.667 38 50.5 87.667 50.5 149c0 40.667 -7.66699 76.5 -23 107.5s-37 55.167 -65 72.5s-60 26 -96 26c-36.667 0 -69 -8.66699 -97 -26s-49.667 -41.833 -65 -73.5s-23 -67.5 -23 -107.5
s7.66699 -75.5 23 -106.5s37 -55.167 65 -72.5s60.333 -26 97 -26c55.333 0 99.833 19 133.5 57zM137 704.998l44 42l134 -150l-28 -30z" />
    <glyph glyph-name="oacute" unicode="&#xf3;" horiz-adv-x="581" 
d="M163.5 23c-37 22 -65.833 52.665 -86.5 91.998s-31 84 -31 134s10.5 94.833 31.5 134.5s50 70.667 87 93s79.167 33.5 126.5 33.5c46.667 0 88.5 -11.167 125.5 -33.5s66 -53.166 87 -92.499s31.5 -84 31.5 -134s-10.5 -94.667 -31.5 -134s-50 -70.166 -87 -92.499
s-79.167 -33.5 -126.5 -33.5s-89.5 11 -126.5 33zM424.5 100.998c33.667 38 50.5 87.667 50.5 149c0 40.667 -7.66699 76.5 -23 107.5s-37 55.167 -65 72.5s-60 26 -96 26c-36.667 0 -69 -8.66699 -97 -26s-49.667 -41.833 -65 -73.5s-23 -67.5 -23 -107.5
s7.66699 -75.5 23 -106.5s37 -55.167 65 -72.5s60.333 -26 97 -26c55.333 0 99.833 19 133.5 57zM267 599.998l120 161l48 -38l-138 -151z" />
    <glyph glyph-name="ocircumflex" unicode="&#xf4;" horiz-adv-x="581" 
d="M163.5 23c-37 22 -65.833 52.665 -86.5 91.998s-31 84 -31 134s10.5 94.833 31.5 134.5s50 70.667 87 93s79.167 33.5 126.5 33.5c46.667 0 88.5 -11.167 125.5 -33.5s66 -53.166 87 -92.499s31.5 -84 31.5 -134s-10.5 -94.667 -31.5 -134s-50 -70.166 -87 -92.499
s-79.167 -33.5 -126.5 -33.5s-89.5 11 -126.5 33zM424.5 100.998c33.667 38 50.5 87.667 50.5 149c0 40.667 -7.66699 76.5 -23 107.5s-37 55.167 -65 72.5s-60 26 -96 26c-36.667 0 -69 -8.66699 -97 -26s-49.667 -41.833 -65 -73.5s-23 -67.5 -23 -107.5
s7.66699 -75.5 23 -106.5s37 -55.167 65 -72.5s60.333 -26 97 -26c55.333 0 99.833 19 133.5 57zM267 713.998h49l124 -142h-68l-80 89l-81 -89h-67z" />
    <glyph glyph-name="otilde" unicode="&#xf5;" horiz-adv-x="581" 
d="M163.5 23c-37 22 -65.833 52.665 -86.5 91.998s-31 84 -31 134s10.5 94.833 31.5 134.5s50 70.667 87 93s79.167 33.5 126.5 33.5c46.667 0 88.5 -11.167 125.5 -33.5s66 -53.166 87 -92.499s31.5 -84 31.5 -134s-10.5 -94.667 -31.5 -134s-50 -70.166 -87 -92.499
s-79.167 -33.5 -126.5 -33.5s-89.5 11 -126.5 33zM424.5 100.998c33.667 38 50.5 87.667 50.5 149c0 40.667 -7.66699 76.5 -23 107.5s-37 55.167 -65 72.5s-60 26 -96 26c-36.667 0 -69 -8.66699 -97 -26s-49.667 -41.833 -65 -73.5s-23 -67.5 -23 -107.5
s7.66699 -75.5 23 -106.5s37 -55.167 65 -72.5s60.333 -26 97 -26c55.333 0 99.833 19 133.5 57zM185.5 646.498c17 6.33301 33.833 9.5 50.5 9.5c12.667 0 23.667 -1.66699 33 -5s20 -8.33301 32 -15c17.333 -10 32.333 -15 45 -15c22 0 46.333 11 73 33l34 -41
c-20 -16 -37 -27.167 -51 -33.5s-33.333 -9.5 -58 -9.5c-12 0 -21.833 1.33301 -29.5 4s-16.5 7 -26.5 13c-9.33301 5.33301 -17.5 9.33301 -24.5 12s-15.833 4 -26.5 4c-12 0 -23.5 -2.16699 -34.5 -6.5s-24.5 -13.166 -40.5 -26.499l-33 41
c20.667 17.333 39.5 29.166 56.5 35.499z" />
    <glyph glyph-name="odieresis" unicode="&#xf6;" horiz-adv-x="581" 
d="M163.5 23c-37 22 -65.833 52.665 -86.5 91.998s-31 84 -31 134s10.5 94.833 31.5 134.5s50 70.667 87 93s79.167 33.5 126.5 33.5c46.667 0 88.5 -11.167 125.5 -33.5s66 -53.166 87 -92.499s31.5 -84 31.5 -134s-10.5 -94.667 -31.5 -134s-50 -70.166 -87 -92.499
s-79.167 -33.5 -126.5 -33.5s-89.5 11 -126.5 33zM424.5 100.998c33.667 38 50.5 87.667 50.5 149c0 40.667 -7.66699 76.5 -23 107.5s-37 55.167 -65 72.5s-60 26 -96 26c-36.667 0 -69 -8.66699 -97 -26s-49.667 -41.833 -65 -73.5s-23 -67.5 -23 -107.5
s7.66699 -75.5 23 -106.5s37 -55.167 65 -72.5s60.333 -26 97 -26c55.333 0 99.833 19 133.5 57zM149.5 586.498c-8.33301 8.33301 -12.5 18.166 -12.5 29.499c0 12 4.16699 22.167 12.5 30.5s18.166 12.5 29.499 12.5c12 0 22.167 -4.16699 30.5 -12.5
s12.5 -18.5 12.5 -30.5c0 -11.333 -4.16699 -21.166 -12.5 -29.499s-18.5 -12.5 -30.5 -12.5c-11.333 0 -21.166 4.16699 -29.499 12.5zM371.5 586.498c-8.33301 8.33301 -12.5 18.166 -12.5 29.499c0 12 4.16699 22.167 12.5 30.5s18.166 12.5 29.499 12.5
c12 0 22.167 -4.16699 30.5 -12.5s12.5 -18.5 12.5 -30.5c0 -11.333 -4.16699 -21.166 -12.5 -29.499s-18.5 -12.5 -30.5 -12.5c-11.333 0 -21.166 4.16699 -29.499 12.5z" />
    <glyph glyph-name="divide" unicode="&#xf7;" horiz-adv-x="476" 
d="M196.5 113.5c-8.33301 8.33301 -12.5 18.166 -12.5 29.499c0 12 4.16699 22.167 12.5 30.5s18.166 12.5 29.499 12.5c12 0 22.167 -4.16699 30.5 -12.5s12.5 -18.5 12.5 -30.5c0 -11.333 -4.16699 -21.166 -12.5 -29.499s-18.5 -12.5 -30.5 -12.5
c-11.333 0 -21.166 4.16699 -29.499 12.5zM196.5 412.5c-8.33301 8.33301 -12.5 18.166 -12.5 29.499c0 12 4.16699 22.167 12.5 30.5s18.166 12.5 29.499 12.5c12 0 22.167 -4.16699 30.5 -12.5s12.5 -18.5 12.5 -30.5c0 -11.333 -4.16699 -21.166 -12.5 -29.499
s-18.5 -12.5 -30.5 -12.5c-11.333 0 -21.166 4.16699 -29.499 12.5zM67 326h342v-57h-342v57z" />
    <glyph glyph-name="oslash" unicode="&#xf8;" horiz-adv-x="581" 
d="M127 46c-28 22.667 -49.1689 51.667 -63.502 87s-21.5 73 -21.5 113c0 49.333 10.333 93.833 31 133.5s49.834 71 87.501 94s80.834 34.5 129.501 34.5c44.667 0 84 -9 118 -27l23 38l49 -30l-27 -38c28.667 -24 50.167 -53 64.5 -87s21.5 -71.667 21.5 -113
c0 -55.333 -11.833 -102.833 -35.5 -142.5s-54.667 -69.5 -93 -89.5s-78.833 -30 -121.5 -30s-81.667 9.33301 -117 28l-22 -38l-49 30zM298.998 456c-61.333 0 -110 -19 -146 -57s-54 -89.333 -54 -154c0 -66 18.333 -117.333 55 -154l225 343
c-19.333 14.667 -46 22 -80 22zM385.998 66c29.333 16.667 52.668 41.333 70.001 74s26 71.667 26 117c0 65.333 -18.333 115.333 -55 150l-225 -348c29.333 -12 58.666 -18 87.999 -18c34.667 0 66.667 8.33301 96 25z" />
    <glyph glyph-name="ugrave" unicode="&#xf9;" horiz-adv-x="588" 
d="M575 28c-10 -14 -21.165 -23.833 -33.498 -29.5s-26.5 -8.5 -42.5 -8.5c-23.333 0 -43.833 8 -61.5 24s-26.5 35.333 -26.5 58c-46 -53.333 -101.667 -80 -167 -80c-50 0 -89 12.167 -117 36.5s-43.333 61.166 -46 110.499v214c0 52.667 -14 91.334 -42 116.001l40 40
c16 -10 30.333 -25.667 43 -47s19 -44.333 19 -69v-228c0 -38 8.5 -67.333 25.5 -88s44.833 -31 83.5 -31c36.667 0 68.167 8 94.5 24s48.166 41.333 65.499 76l1 354h60l-1 -414c0 -13.333 3.16699 -23.5 9.5 -30.5s14.166 -10.5 23.499 -10.5c12 0 21.667 5.66699 29 17z
M117.002 698l44 42l134 -150l-28 -30z" />
    <glyph glyph-name="uacute" unicode="&#xfa;" horiz-adv-x="588" 
d="M575 28c-10 -14 -21.165 -23.833 -33.498 -29.5s-26.5 -8.5 -42.5 -8.5c-23.333 0 -43.833 8 -61.5 24s-26.5 35.333 -26.5 58c-46 -53.333 -101.667 -80 -167 -80c-50 0 -89 12.167 -117 36.5s-43.333 61.166 -46 110.499v214c0 52.667 -14 91.334 -42 116.001l40 40
c16 -10 30.333 -25.667 43 -47s19 -44.333 19 -69v-228c0 -38 8.5 -67.333 25.5 -88s44.833 -31 83.5 -31c36.667 0 68.167 8 94.5 24s48.166 41.333 65.499 76l1 354h60l-1 -414c0 -13.333 3.16699 -23.5 9.5 -30.5s14.166 -10.5 23.499 -10.5c12 0 21.667 5.66699 29 17z
M247.002 593l120 161l48 -38l-138 -151z" />
    <glyph glyph-name="ucircumflex" unicode="&#xfb;" horiz-adv-x="588" 
d="M575 28c-10 -14 -21.165 -23.833 -33.498 -29.5s-26.5 -8.5 -42.5 -8.5c-23.333 0 -43.833 8 -61.5 24s-26.5 35.333 -26.5 58c-46 -53.333 -101.667 -80 -167 -80c-50 0 -89 12.167 -117 36.5s-43.333 61.166 -46 110.499v214c0 52.667 -14 91.334 -42 116.001l40 40
c16 -10 30.333 -25.667 43 -47s19 -44.333 19 -69v-228c0 -38 8.5 -67.333 25.5 -88s44.833 -31 83.5 -31c36.667 0 68.167 8 94.5 24s48.166 41.333 65.499 76l1 354h60l-1 -414c0 -13.333 3.16699 -23.5 9.5 -30.5s14.166 -10.5 23.499 -10.5c12 0 21.667 5.66699 29 17z
M247.002 707h49l124 -142h-68l-80 89l-81 -89h-67z" />
    <glyph glyph-name="udieresis" unicode="&#xfc;" horiz-adv-x="588" 
d="M575 28c-10 -14 -21.165 -23.833 -33.498 -29.5s-26.5 -8.5 -42.5 -8.5c-23.333 0 -43.833 8 -61.5 24s-26.5 35.333 -26.5 58c-46 -53.333 -101.667 -80 -167 -80c-50 0 -89 12.167 -117 36.5s-43.333 61.166 -46 110.499v214c0 52.667 -14 91.334 -42 116.001l40 40
c16 -10 30.333 -25.667 43 -47s19 -44.333 19 -69v-228c0 -38 8.5 -67.333 25.5 -88s44.833 -31 83.5 -31c36.667 0 68.167 8 94.5 24s48.166 41.333 65.499 76l1 354h60l-1 -414c0 -13.333 3.16699 -23.5 9.5 -30.5s14.166 -10.5 23.499 -10.5c12 0 21.667 5.66699 29 17z
M129.502 579.5c-8.33301 8.33301 -12.5 18.166 -12.5 29.499c0 12 4.16699 22.167 12.5 30.5s18.166 12.5 29.499 12.5c12 0 22.167 -4.16699 30.5 -12.5s12.5 -18.5 12.5 -30.5c0 -11.333 -4.16699 -21.166 -12.5 -29.499s-18.5 -12.5 -30.5 -12.5
c-11.333 0 -21.166 4.16699 -29.499 12.5zM351.502 579.5c-8.33301 8.33301 -12.5 18.166 -12.5 29.499c0 12 4.16699 22.167 12.5 30.5s18.166 12.5 29.499 12.5c12 0 22.167 -4.16699 30.5 -12.5s12.5 -18.5 12.5 -30.5c0 -11.333 -4.16699 -21.166 -12.5 -29.499
s-18.5 -12.5 -30.5 -12.5c-11.333 0 -21.166 4.16699 -29.499 12.5z" />
    <glyph glyph-name="yacute" unicode="&#xfd;" horiz-adv-x="548" 
d="M469 500l-1.00098 -361.999v-252c0 -51.333 -13.667 -92.5 -41 -123.5s-63.666 -46.5 -108.999 -46.5c-28 0 -53.5 6.83301 -76.5 20.5s-41 32.5 -54 56.5s-19.5 51 -19.5 81c0 27.333 5.16699 51.666 15.5 72.999s24.5 36.666 42.5 45.999
c-44.667 3.33301 -80.334 18.166 -107.001 44.499s-40 60.166 -40 101.499v217c0 52.667 -14 91.334 -42 116.001l40 40c15.333 -10 29.333 -25.333 42 -46s19.334 -43 20.001 -67v-234c0 -39.333 8.83301 -68.666 26.5 -87.999s44.5 -29 80.5 -29
c29.333 0 55.5 6.33301 78.5 19s46.167 33.334 69.5 62.001c5.33301 7.33301 9 13.833 11 19.5s3 13.5 3 23.5l1 328h60zM409.999 78.001c-8.66699 -14 -16.666 -24.833 -23.999 -32.5s-16 -15.5 -26 -23.5c-18 -12.667 -38 -25 -60 -37
c-26.667 -14 -45.667 -29.333 -57 -46s-17 -37.667 -17 -63c0 -31.333 8.16699 -56.166 24.5 -74.499s38.5 -27.5 66.5 -27.5c27.333 0 49.166 9.66699 65.499 29s24.833 45.666 25.5 78.999zM244 593.001l120 161l48 -38l-138 -151z" />
    <glyph glyph-name="thorn" unicode="&#xfe;" horiz-adv-x="543" 
d="M137 726c0 -112 -1.66406 -211.335 -4.99707 -298.002c17.333 28.667 39.666 49.334 66.999 62.001s56.666 19 87.999 19c45.333 0 84 -11.667 116 -35s56.167 -54.5 72.5 -93.5s24.5 -81.833 24.5 -128.5c0 -50.667 -9.66699 -95.667 -29 -135
s-47.333 -70.166 -84 -92.499s-80.334 -33.5 -131.001 -33.5c-36 0 -75.667 3 -119 9v-260h-57v986h57zM393.003 97.998c31.333 36.667 47 86 47 148c0 58.667 -13.167 108.5 -39.5 149.5s-64.166 61.5 -113.499 61.5c-37.333 0 -70.5 -11.667 -99.5 -35
s-45.833 -54.333 -50.5 -93v-277c61.333 -6 99.333 -9 114 -9c63.333 0 110.666 18.333 141.999 55z" />
    <glyph glyph-name="ydieresis" unicode="&#xff;" horiz-adv-x="548" 
d="M469 500l-1.00098 -361.999v-252c0 -51.333 -13.667 -92.5 -41 -123.5s-63.666 -46.5 -108.999 -46.5c-28 0 -53.5 6.83301 -76.5 20.5s-41 32.5 -54 56.5s-19.5 51 -19.5 81c0 27.333 5.16699 51.666 15.5 72.999s24.5 36.666 42.5 45.999
c-44.667 3.33301 -80.334 18.166 -107.001 44.499s-40 60.166 -40 101.499v217c0 52.667 -14 91.334 -42 116.001l40 40c15.333 -10 29.333 -25.333 42 -46s19.334 -43 20.001 -67v-234c0 -39.333 8.83301 -68.666 26.5 -87.999s44.5 -29 80.5 -29
c29.333 0 55.5 6.33301 78.5 19s46.167 33.334 69.5 62.001c5.33301 7.33301 9 13.833 11 19.5s3 13.5 3 23.5l1 328h60zM409.999 78.001c-8.66699 -14 -16.666 -24.833 -23.999 -32.5s-16 -15.5 -26 -23.5c-18 -12.667 -38 -25 -60 -37
c-26.667 -14 -45.667 -29.333 -57 -46s-17 -37.667 -17 -63c0 -31.333 8.16699 -56.166 24.5 -74.499s38.5 -27.5 66.5 -27.5c27.333 0 49.166 9.66699 65.499 29s24.833 45.666 25.5 78.999zM126.5 579.501c-8.33301 8.33301 -12.5 18.166 -12.5 29.499
c0 12 4.16699 22.167 12.5 30.5s18.166 12.5 29.499 12.5c12 0 22.167 -4.16699 30.5 -12.5s12.5 -18.5 12.5 -30.5c0 -11.333 -4.16699 -21.166 -12.5 -29.499s-18.5 -12.5 -30.5 -12.5c-11.333 0 -21.166 4.16699 -29.499 12.5zM348.5 579.501
c-8.33301 8.33301 -12.5 18.166 -12.5 29.499c0 12 4.16699 22.167 12.5 30.5s18.166 12.5 29.499 12.5c12 0 22.167 -4.16699 30.5 -12.5s12.5 -18.5 12.5 -30.5c0 -11.333 -4.16699 -21.166 -12.5 -29.499s-18.5 -12.5 -30.5 -12.5
c-11.333 0 -21.166 4.16699 -29.499 12.5z" />
    <glyph glyph-name="Amacron" unicode="&#x100;" horiz-adv-x="748" 
d="M59.5 4c-15 11.333 -24.833 26.002 -29.5 44.002l46 25c3.33301 -8.66699 8.16602 -15.834 14.499 -21.501s13.833 -8.5 22.5 -8.5c8 0 14.5 2.66699 19.5 8s10.167 14.333 15.5 27l256 615h20l291 -693h-64l-95 227h-285l-75 -186
c-6.66699 -16.667 -17.667 -29.834 -33 -39.501s-31.666 -14.5 -48.999 -14.5c-21.333 0 -39.5 5.66699 -54.5 17zM532 283.002l-108 269l-11 40l-10 -40l-108 -269h237zM266 799.002h296v-54h-296v54z" />
    <glyph glyph-name="amacron" unicode="&#x101;" horiz-adv-x="588" 
d="M142 25c-32.667 23.333 -57.3311 54.333 -73.998 93s-25 81.334 -25 128.001c0 51.333 10 96.833 30 136.5s48.667 70.5 86 92.5s81 33 131 33c15.333 0 34.666 -0.833008 57.999 -2.5s44 -3.83398 62 -6.50098h60v-413c0 -13.333 3.16699 -23.5 9.5 -30.5
s14.166 -10.5 23.499 -10.5c12 0 21.667 5.66699 29 17l43 -34c-10 -14 -21.167 -23.833 -33.5 -29.5s-26.5 -8.5 -42.5 -8.5c-23.333 0 -43.833 8 -61.5 24s-26.5 35.333 -26.5 58c-16 -26.667 -37 -47 -63 -61s-55.333 -21 -88 -21c-46 0 -85.333 11.667 -118 35z
M342.003 66c24 14.667 42.001 34.002 54.001 58.002c9.33301 19.333 14 40.666 14 63.999v262l-66 2l-58 2c-60.667 0 -106.334 -19 -137.001 -57s-46 -87.667 -46 -149c0 -56.667 13.5 -104.834 40.5 -144.501s66.167 -59.5 117.5 -59.5c30 0 57 7.33301 81 22z
M142.004 623.002h296v-54h-296v54z" />
    <glyph glyph-name="Abreve" unicode="&#x102;" horiz-adv-x="748" 
d="M59.5 4c-15 11.333 -24.833 26.002 -29.5 44.002l46 25c3.33301 -8.66699 8.16602 -15.834 14.499 -21.501s13.833 -8.5 22.5 -8.5c8 0 14.5 2.66699 19.5 8s10.167 14.333 15.5 27l256 615h20l291 -693h-64l-95 227h-285l-75 -186
c-6.66699 -16.667 -17.667 -29.834 -33 -39.501s-31.666 -14.5 -48.999 -14.5c-21.333 0 -39.5 5.66699 -54.5 17zM532 283.002l-108 269l-11 40l-10 -40l-108 -269h237zM313.5 771.002c-23 23.333 -35.168 54 -36.501 92h55c1.33301 -22.667 8.83301 -41 22.5 -55
s33.834 -21 60.501 -21c26 0 45.5 6.83301 58.5 20.5s19.833 32.167 20.5 55.5h55c-1.33301 -40 -13.5 -71.167 -36.5 -93.5s-55.833 -33.5 -98.5 -33.5c-44 0 -77.5 11.667 -100.5 35z" />
    <glyph glyph-name="abreve" unicode="&#x103;" horiz-adv-x="588" 
d="M142 25c-32.667 23.333 -57.3311 54.333 -73.998 93s-25 81.334 -25 128.001c0 51.333 10 96.833 30 136.5s48.667 70.5 86 92.5s81 33 131 33c15.333 0 34.666 -0.833008 57.999 -2.5s44 -3.83398 62 -6.50098h60v-413c0 -13.333 3.16699 -23.5 9.5 -30.5
s14.166 -10.5 23.499 -10.5c12 0 21.667 5.66699 29 17l43 -34c-10 -14 -21.167 -23.833 -33.5 -29.5s-26.5 -8.5 -42.5 -8.5c-23.333 0 -43.833 8 -61.5 24s-26.5 35.333 -26.5 58c-16 -26.667 -37 -47 -63 -61s-55.333 -21 -88 -21c-46 0 -85.333 11.667 -118 35z
M342.003 66c24 14.667 42.001 34.002 54.001 58.002c9.33301 19.333 14 40.666 14 63.999v262l-66 2l-58 2c-60.667 0 -106.334 -19 -137.001 -57s-46 -87.667 -46 -149c0 -56.667 13.5 -104.834 40.5 -144.501s66.167 -59.5 117.5 -59.5c30 0 57 7.33301 81 22z
M189.504 595.002c-23.667 24.667 -36.165 58 -37.498 100h58c3.33301 -57.333 31 -86 83 -86c51.333 0 77.666 28.667 78.999 86h58c-1.33301 -44.667 -13.833 -78.667 -37.5 -102s-57.167 -35 -100.5 -35c-44.667 0 -78.834 12.333 -102.501 37z" />
    <glyph glyph-name="Aogonek" unicode="&#x104;" horiz-adv-x="748" 
d="M755 -176c-12 -8.66699 -26.332 -15.665 -42.999 -20.998s-32.334 -8 -47.001 -8c-26 0 -46.833 8.33301 -62.5 25s-23.5 38 -23.5 64c0 20.667 5.5 39 16.5 55s30.167 36.333 57.5 61h-2l-95 227h-285l-75 -186c-6.66699 -16.667 -17.667 -29.834 -33 -39.501
s-31.666 -14.5 -48.999 -14.5c-21.333 0 -39.5 5.66699 -54.5 17s-24.833 26 -29.5 44l46 25c3.33301 -8.66699 8.16602 -15.834 14.499 -21.501s13.833 -8.5 22.5 -8.5c8 0 14.5 2.66699 19.5 8s10.167 14.333 15.5 27l256 615h20l291 -693c-32 -34 -53.167 -58 -63.5 -72
s-15.5 -27.333 -15.5 -40c0 -13.333 4.5 -23.333 13.5 -30s18.833 -10 29.5 -10c15.333 0 32.333 7 51 21zM295.001 283.002h237l-108 269l-11 40l-10 -40z" />
    <glyph glyph-name="aogonek" unicode="&#x105;" horiz-adv-x="588" 
d="M596 -166c-12 -8.66699 -26.3271 -15.666 -42.9941 -20.999s-32.334 -8 -47.001 -8c-26 0 -46.833 8.33301 -62.5 25s-23.5 38 -23.5 64c0 18 4.33301 34.333 13 49s23 31.334 43 50.001c-18.667 5.33301 -34.167 15.166 -46.5 29.499s-18.5 30.833 -18.5 49.5
c-16 -26.667 -37 -47 -63 -61s-55.333 -21 -88 -21c-46 0 -85.333 11.667 -118 35s-57.334 54.333 -74.001 93s-25 81.334 -25 128.001c0 51.333 10 96.833 30 136.5s48.667 70.5 86 92.5s81 33 131 33c15.333 0 34.666 -0.833008 57.999 -2.5s44 -3.83398 62 -6.50098h60
v-413c0 -13.333 3.16699 -23.5 9.5 -30.5s14.166 -10.5 23.499 -10.5c12 0 21.667 5.66699 29 17l43 -34c-8.66699 -12 -17.334 -20.333 -26.001 -25c-28.667 -30.667 -47.834 -52.834 -57.501 -66.501s-14.5 -26.5 -14.5 -38.5c0 -13.333 4.5 -23.333 13.5 -30
s18.833 -10 29.5 -10c15.333 0 32.333 7 51 21zM410.006 450.001l-65.999 2.00195l-58 2c-60.667 0 -106.334 -19 -137.001 -57s-46 -87.667 -46 -149c0 -56.667 13.5 -104.834 40.5 -144.501s66.167 -59.5 117.5 -59.5c30 0 57 7.33301 81 22s42 34 54 58
c9.33301 19.333 14 40.666 14 63.999v262z" />
    <glyph glyph-name="Cacute" unicode="&#x106;" horiz-adv-x="715" 
d="M221.5 25.5c-51.667 32.333 -92.1699 76.002 -121.503 131.002s-44 114.833 -44 179.5c0 66.667 15.333 128.834 46 186.501s72.334 103.5 125.001 137.5s110.667 51 174 51c39.333 0 77.166 -5.83301 113.499 -17.5s66 -28.834 89 -51.501s34.5 -50 34.5 -82
c0 -26 -9.16699 -48.167 -27.5 -66.5s-40.166 -27.5 -65.499 -27.5c-20 0 -39 6.66699 -57 20l35 44c8.66699 -5.33301 16.334 -8 23.001 -8c8.66699 0 16 3.66699 22 11s9 16.666 9 27.999c0 19.333 -9.16699 36 -27.5 50s-41.166 24.667 -68.499 32s-53.666 11 -78.999 11
c-54 0 -102.833 -14.5 -146.5 -43.5s-77.834 -67.833 -102.501 -116.5s-37 -101.334 -37 -158.001c0 -54.667 11.833 -105.167 35.5 -151.5s56.667 -83 99 -110s90.833 -40.5 145.5 -40.5c48 0 92.833 10.833 134.5 32.5s75.5 51.5 101.5 89.5l46 -32
c-32.667 -48 -74 -84.5 -124 -109.5s-103 -37.5 -159 -37.5c-64 0 -121.833 16.167 -173.5 48.5zM350.997 803.002l169 110l31 -52l-181 -94z" />
    <glyph glyph-name="cacute" unicode="&#x107;" horiz-adv-x="495" 
d="M106 57.5c-41.333 42.333 -62.001 102.499 -62.001 180.499c0 54 9.66699 101.667 29 143s46.333 73.5 81 96.5s74.667 34.5 120 34.5c34 0 64.667 -6.66699 92 -20s48.833 -31.5 64.5 -54.5s23.5 -48.833 23.5 -77.5h-56c0 28.667 -11.333 52.167 -34 70.5
s-52 27.5 -88 27.5c-52.667 0 -94.5 -20 -125.5 -60s-46.5 -93.667 -46.5 -161c0 -61.333 15.333 -108.166 46 -140.499s74.667 -48.5 132 -48.5c24.667 0 49.334 3.5 74.001 10.5s52.667 18.833 84 35.5l26 -42c-56.667 -38.667 -118 -58 -184 -58
c-76 0 -134.667 21.167 -176 63.5zM248.999 592.999l120 161l48 -38l-138 -151z" />
    <glyph glyph-name="Ccircumflex" unicode="&#x108;" horiz-adv-x="715" 
d="M221.5 25.5c-51.667 32.333 -92.1699 76.002 -121.503 131.002s-44 114.833 -44 179.5c0 66.667 15.333 128.834 46 186.501s72.334 103.5 125.001 137.5s110.667 51 174 51c39.333 0 77.166 -5.83301 113.499 -17.5s66 -28.834 89 -51.501s34.5 -50 34.5 -82
c0 -26 -9.16699 -48.167 -27.5 -66.5s-40.166 -27.5 -65.499 -27.5c-20 0 -39 6.66699 -57 20l35 44c8.66699 -5.33301 16.334 -8 23.001 -8c8.66699 0 16 3.66699 22 11s9 16.666 9 27.999c0 19.333 -9.16699 36 -27.5 50s-41.166 24.667 -68.499 32s-53.666 11 -78.999 11
c-54 0 -102.833 -14.5 -146.5 -43.5s-77.834 -67.833 -102.501 -116.5s-37 -101.334 -37 -158.001c0 -54.667 11.833 -105.167 35.5 -151.5s56.667 -83 99 -110s90.833 -40.5 145.5 -40.5c48 0 92.833 10.833 134.5 32.5s75.5 51.5 101.5 89.5l46 -32
c-32.667 -48 -74 -84.5 -124 -109.5s-103 -37.5 -159 -37.5c-64 0 -121.833 16.167 -173.5 48.5zM352.997 884.002h49l130 -122h-74l-80 69l-81 -69h-71z" />
    <glyph glyph-name="ccircumflex" unicode="&#x109;" horiz-adv-x="495" 
d="M106 57.5c-41.333 42.333 -62.001 102.499 -62.001 180.499c0 54 9.66699 101.667 29 143s46.333 73.5 81 96.5s74.667 34.5 120 34.5c34 0 64.667 -6.66699 92 -20s48.833 -31.5 64.5 -54.5s23.5 -48.833 23.5 -77.5h-56c0 28.667 -11.333 52.167 -34 70.5
s-52 27.5 -88 27.5c-52.667 0 -94.5 -20 -125.5 -60s-46.5 -93.667 -46.5 -161c0 -61.333 15.333 -108.166 46 -140.499s74.667 -48.5 132 -48.5c24.667 0 49.334 3.5 74.001 10.5s52.667 18.833 84 35.5l26 -42c-56.667 -38.667 -118 -58 -184 -58
c-76 0 -134.667 21.167 -176 63.5zM248.999 706.999h49l124 -142h-68l-80 89l-81 -89h-67z" />
    <glyph glyph-name="Cdotaccent" unicode="&#x10a;" horiz-adv-x="715" 
d="M221.5 25.5c-51.667 32.333 -92.1699 76.002 -121.503 131.002s-44 114.833 -44 179.5c0 66.667 15.333 128.834 46 186.501s72.334 103.5 125.001 137.5s110.667 51 174 51c39.333 0 77.166 -5.83301 113.499 -17.5s66 -28.834 89 -51.501s34.5 -50 34.5 -82
c0 -26 -9.16699 -48.167 -27.5 -66.5s-40.166 -27.5 -65.499 -27.5c-20 0 -39 6.66699 -57 20l35 44c8.66699 -5.33301 16.334 -8 23.001 -8c8.66699 0 16 3.66699 22 11s9 16.666 9 27.999c0 19.333 -9.16699 36 -27.5 50s-41.166 24.667 -68.499 32s-53.666 11 -78.999 11
c-54 0 -102.833 -14.5 -146.5 -43.5s-77.834 -67.833 -102.501 -116.5s-37 -101.334 -37 -158.001c0 -54.667 11.833 -105.167 35.5 -151.5s56.667 -83 99 -110s90.833 -40.5 145.5 -40.5c48 0 92.833 10.833 134.5 32.5s75.5 51.5 101.5 89.5l46 -32
c-32.667 -48 -74 -84.5 -124 -109.5s-103 -37.5 -159 -37.5c-64 0 -121.833 16.167 -173.5 48.5zM348.497 780.502c-8.33301 8.33301 -12.5 18.166 -12.5 29.499c0 12 4.16699 22.167 12.5 30.5s18.166 12.5 29.499 12.5c12 0 22.167 -4.16699 30.5 -12.5
s12.5 -18.5 12.5 -30.5c0 -11.333 -4.16699 -21.166 -12.5 -29.499s-18.5 -12.5 -30.5 -12.5c-11.333 0 -21.166 4.16699 -29.499 12.5z" />
    <glyph glyph-name="cdotaccent" unicode="&#x10b;" horiz-adv-x="495" 
d="M106 57.5c-41.333 42.333 -62.001 102.499 -62.001 180.499c0 54 9.66699 101.667 29 143s46.333 73.5 81 96.5s74.667 34.5 120 34.5c34 0 64.667 -6.66699 92 -20s48.833 -31.5 64.5 -54.5s23.5 -48.833 23.5 -77.5h-56c0 28.667 -11.333 52.167 -34 70.5
s-52 27.5 -88 27.5c-52.667 0 -94.5 -20 -125.5 -60s-46.5 -93.667 -46.5 -161c0 -61.333 15.333 -108.166 46 -140.499s74.667 -48.5 132 -48.5c24.667 0 49.334 3.5 74.001 10.5s52.667 18.833 84 35.5l26 -42c-56.667 -38.667 -118 -58 -184 -58
c-76 0 -134.667 21.167 -176 63.5zM241.499 577.499c-8.33301 8.33301 -12.5 18.166 -12.5 29.499c0 12 4.16699 22.167 12.5 30.5s18.166 12.5 29.499 12.5c12 0 22.167 -4.16699 30.5 -12.5s12.5 -18.5 12.5 -30.5c0 -11.333 -4.16699 -21.166 -12.5 -29.499
s-18.5 -12.5 -30.5 -12.5c-11.333 0 -21.166 4.16699 -29.499 12.5z" />
    <glyph glyph-name="Ccaron" unicode="&#x10c;" horiz-adv-x="715" 
d="M221.5 25.5c-51.667 32.333 -92.1699 76.002 -121.503 131.002s-44 114.833 -44 179.5c0 66.667 15.333 128.834 46 186.501s72.334 103.5 125.001 137.5s110.667 51 174 51c39.333 0 77.166 -5.83301 113.499 -17.5s66 -28.834 89 -51.501s34.5 -50 34.5 -82
c0 -26 -9.16699 -48.167 -27.5 -66.5s-40.166 -27.5 -65.499 -27.5c-20 0 -39 6.66699 -57 20l35 44c8.66699 -5.33301 16.334 -8 23.001 -8c8.66699 0 16 3.66699 22 11s9 16.666 9 27.999c0 19.333 -9.16699 36 -27.5 50s-41.166 24.667 -68.499 32s-53.666 11 -78.999 11
c-54 0 -102.833 -14.5 -146.5 -43.5s-77.834 -67.833 -102.501 -116.5s-37 -101.334 -37 -158.001c0 -54.667 11.833 -105.167 35.5 -151.5s56.667 -83 99 -110s90.833 -40.5 145.5 -40.5c48 0 92.833 10.833 134.5 32.5s75.5 51.5 101.5 89.5l46 -32
c-32.667 -48 -74 -84.5 -124 -109.5s-103 -37.5 -159 -37.5c-64 0 -121.833 16.167 -173.5 48.5zM296.997 884.002l81 -69l80 69h74l-130 -122h-49l-127 122h71z" />
    <glyph glyph-name="ccaron" unicode="&#x10d;" horiz-adv-x="495" 
d="M106 57.5c-41.333 42.333 -62.001 102.499 -62.001 180.499c0 54 9.66699 101.667 29 143s46.333 73.5 81 96.5s74.667 34.5 120 34.5c34 0 64.667 -6.66699 92 -20s48.833 -31.5 64.5 -54.5s23.5 -48.833 23.5 -77.5h-56c0 28.667 -11.333 52.167 -34 70.5
s-52 27.5 -88 27.5c-52.667 0 -94.5 -20 -125.5 -60s-46.5 -93.667 -46.5 -161c0 -61.333 15.333 -108.166 46 -140.499s74.667 -48.5 132 -48.5c24.667 0 49.334 3.5 74.001 10.5s52.667 18.833 84 35.5l26 -42c-56.667 -38.667 -118 -58 -184 -58
c-76 0 -134.667 21.167 -176 63.5zM124.999 710.999h67l81 -89l80 89h68l-124 -142h-49z" />
    <glyph glyph-name="Dcaron" unicode="&#x10e;" horiz-adv-x="787" 
d="M255.5 -7c-25 0.666992 -44.502 1.33398 -58.502 2.00098l-47 5v634c-13.333 0 -23.166 -0.833008 -29.499 -2.5s-11.833 -4.83398 -16.5 -9.50098c-4 -4 -7.5 -9.5 -10.5 -16.5s-4.5 -13.5 -4.5 -19.5l-55 1c1.33301 31.333 11.333 56.333 30 75
c10 9.33301 21.833 16.166 35.5 20.499s30.834 6.83301 51.501 7.5l262 -1c61.333 -1.33301 116 -17.166 164 -47.499s85.5 -71.833 112.5 -124.5s40.5 -112 40.5 -178c0 -114.667 -33.5 -201.167 -100.5 -259.5s-166.833 -87.5 -299.5 -87.5
c-24.667 0 -49.5 0.333008 -74.5 1zM583.498 122c57.667 49.333 86.498 121.333 86.498 216c0 58.667 -11.167 110.167 -33.5 154.5s-53.666 78.833 -93.999 103.5s-86.833 37 -139.5 37h-193v-580l30 -1c38.667 -2.66699 69.334 -4 92.001 -4
c110 0 193.833 24.667 251.5 74zM332.996 855l81 -69l80 69h74l-130 -122h-49l-127 122h71z" />
    <glyph glyph-name="dcaron" unicode="&#x10f;" horiz-adv-x="586" 
d="M143 24.5c-32.667 23 -57.498 54 -74.498 93s-25.5 81.833 -25.5 128.5c0 50.667 10 95.834 30 135.501s48.5 70.667 85.5 93s80.5 33.5 130.5 33.5c15.333 0 34.666 -0.833008 57.999 -2.5s44 -3.83398 62 -6.50098v228h60l-1 -641c0 -13.333 3.16699 -23.5 9.5 -30.5
s14.166 -10.5 23.499 -10.5c12 0 21.667 5.66699 29 17l43 -34c-10 -14 -21.167 -23.833 -33.5 -29.5s-26.5 -8.5 -42.5 -8.5c-23.333 0 -43.833 8 -61.5 24s-26.5 35.333 -26.5 58c-16 -26.667 -36.833 -47 -62.5 -61s-54.5 -21 -86.5 -21
c-45.333 0 -84.333 11.5 -117 34.5zM341.502 65c23 14 40.832 33.667 53.499 59c9.33301 18.667 14 40 14 64v258l-21 3c-31.333 4.66699 -57.333 7 -78 7c-73.333 0 -126.166 -18.167 -158.499 -54.5s-48.5 -85.833 -48.5 -148.5c0 -60 14.167 -109.833 42.5 -149.5
s67.5 -59.5 117.5 -59.5c29.333 0 55.5 7 78.5 21zM641.001 760l56 -26l-101 -179l-35 20z" />
    <glyph glyph-name="Dcroat" unicode="&#x110;" horiz-adv-x="787" 
d="M577 641.5c48 -30.333 85.498 -71.833 112.498 -124.5s40.5 -112 40.5 -178c0 -114.667 -33.5 -201.167 -100.5 -259.5s-166.833 -87.5 -299.5 -87.5c-24.667 0 -49.5 0.333008 -74.5 1s-44.5 1.33398 -58.5 2.00098l-47 5v340h-79v54h79v240
c-13.333 0 -23.166 -0.833008 -29.499 -2.5s-11.833 -4.83398 -16.5 -9.50098c-4 -4 -7.5 -9.5 -10.5 -16.5s-4.5 -13.5 -4.5 -19.5l-55 1c1.33301 31.333 11.333 56.333 30 75c10 9.33301 21.833 16.166 35.5 20.499s30.834 6.83301 51.501 7.5l262 -1
c61.333 -1.33301 116 -17.166 164 -47.499zM583.498 122c57.667 49.333 86.498 121.333 86.498 216c0 58.667 -11.167 110.167 -33.5 154.5s-53.666 78.833 -93.999 103.5s-86.833 37 -139.5 37h-193v-239h145v-54h-145v-287l30 -1c38.667 -2.66699 69.334 -4 92.001 -4
c110 0 193.833 24.667 251.5 74z" />
    <glyph glyph-name="dcroat" unicode="&#x111;" horiz-adv-x="586" 
d="M573 28c-10 -14 -21.165 -23.833 -33.498 -29.5s-26.5 -8.5 -42.5 -8.5c-23.333 0 -43.833 8 -61.5 24s-26.5 35.333 -26.5 58c-16 -26.667 -36.833 -47 -62.5 -61s-54.5 -21 -86.5 -21c-45.333 0 -84.333 11.5 -117 34.5s-57.5 54 -74.5 93s-25.5 81.833 -25.5 128.5
c0 50.667 10 95.834 30 135.501s48.5 70.667 85.5 93s80.5 33.5 130.5 33.5c15.333 0 34.666 -0.833008 57.999 -2.5s44 -3.83398 62 -6.50098v75h-135v54h135v99h60v-99h89v-54h-89l-1 -488c0 -13.333 3.16699 -23.5 9.5 -30.5s14.166 -10.5 23.499 -10.5
c12 0 21.667 5.66699 29 17zM409.002 446l-21.001 3c-31.333 4.66699 -57.333 7 -78 7c-73.333 0 -126.166 -18.167 -158.499 -54.5s-48.5 -85.833 -48.5 -148.5c0 -60 14.167 -109.833 42.5 -149.5s67.5 -59.5 117.5 -59.5c29.333 0 55.5 7 78.5 21s40.833 33.667 53.5 59
c9.33301 18.667 14 40 14 64v258z" />
    <glyph glyph-name="Emacron" unicode="&#x112;" horiz-adv-x="634" 
d="M120.5 625.5c-6.33301 -1.66699 -11.835 -4.83203 -16.502 -9.49902c-4 -4 -7.5 -9.5 -10.5 -16.5s-4.5 -13.5 -4.5 -19.5l-55 1c1.33301 31.333 11.333 56.333 30 75c10 9.33301 21.833 16.166 35.5 20.499s30.834 6.83301 51.501 7.5h437v-56h-378v-238h258v-56h-258
v-278h378v-56h-438v628c-13.333 0 -23.166 -0.833008 -29.499 -2.5zM220.998 799.002h296v-54h-296v54z" />
    <glyph glyph-name="emacron" unicode="&#x113;" horiz-adv-x="499" 
d="M148 21c-34.667 20.667 -60.834 49.168 -78.501 85.501s-26.5 77.5 -26.5 123.5c0 45.333 8.5 89.333 25.5 132s42.667 77.667 77 105s76.166 41 125.499 41c32.667 0 63 -6.33301 91 -19s50.167 -30.667 66.5 -54s24.5 -50.333 24.5 -81c0 -49.333 -21 -87.5 -63 -114.5
s-100 -40.167 -174 -39.5l-110 1c6 -51.333 23.167 -90.333 51.5 -117s67.5 -40 117.5 -40c30 0 57.833 4.16699 83.5 12.5s50.5 21.166 74.5 38.499l30 -40c-25.333 -20 -54.166 -35.833 -86.499 -47.5s-66.166 -17.5 -101.499 -17.5c-50 0 -92.333 10.333 -127 31z
M393 355.001c0 33.333 -11.499 58.165 -34.499 74.498s-51.167 24.5 -84.5 24.5c-37.333 0 -68.833 -10.667 -94.5 -32s-44.834 -47.666 -57.501 -78.999s-19 -61.666 -19 -90.999h126c109.333 0 164 34.333 164 103zM120.001 631h296v-54h-296v54z" />
    <glyph glyph-name="Ebreve" unicode="&#x114;" horiz-adv-x="634" 
d="M120.5 625.5c-6.33301 -1.66699 -11.835 -4.83203 -16.502 -9.49902c-4 -4 -7.5 -9.5 -10.5 -16.5s-4.5 -13.5 -4.5 -19.5l-55 1c1.33301 31.333 11.333 56.333 30 75c10 9.33301 21.833 16.166 35.5 20.499s30.834 6.83301 51.501 7.5h437v-56h-378v-238h258v-56h-258
v-278h378v-56h-438v628c-13.333 0 -23.166 -0.833008 -29.499 -2.5zM268.498 771.002c-23 23.333 -35.168 54 -36.501 92h55c1.33301 -22.667 8.83301 -41 22.5 -55s33.834 -21 60.501 -21c26 0 45.5 6.83301 58.5 20.5s19.833 32.167 20.5 55.5h55
c-1.33301 -40 -13.5 -71.167 -36.5 -93.5s-55.833 -33.5 -98.5 -33.5c-44 0 -77.5 11.667 -100.5 35z" />
    <glyph glyph-name="ebreve" unicode="&#x115;" horiz-adv-x="499" 
d="M148 21c-34.667 20.667 -60.834 49.168 -78.501 85.501s-26.5 77.5 -26.5 123.5c0 45.333 8.5 89.333 25.5 132s42.667 77.667 77 105s76.166 41 125.499 41c32.667 0 63 -6.33301 91 -19s50.167 -30.667 66.5 -54s24.5 -50.333 24.5 -81c0 -49.333 -21 -87.5 -63 -114.5
s-100 -40.167 -174 -39.5l-110 1c6 -51.333 23.167 -90.333 51.5 -117s67.5 -40 117.5 -40c30 0 57.833 4.16699 83.5 12.5s50.5 21.166 74.5 38.499l30 -40c-25.333 -20 -54.166 -35.833 -86.499 -47.5s-66.166 -17.5 -101.499 -17.5c-50 0 -92.333 10.333 -127 31z
M393 355.001c0 33.333 -11.499 58.165 -34.499 74.498s-51.167 24.5 -84.5 24.5c-37.333 0 -68.833 -10.667 -94.5 -32s-44.834 -47.666 -57.501 -78.999s-19 -61.666 -19 -90.999h126c109.333 0 164 34.333 164 103zM167.501 603c-23.667 24.667 -36.165 58 -37.498 100h58
c3.33301 -57.333 31 -86 83 -86c51.333 0 77.666 28.667 78.999 86h58c-1.33301 -44.667 -13.833 -78.667 -37.5 -102s-57.167 -35 -100.5 -35c-44.667 0 -78.834 12.333 -102.501 37z" />
    <glyph glyph-name="Edotaccent" unicode="&#x116;" horiz-adv-x="634" 
d="M120.5 625.5c-6.33301 -1.66699 -11.835 -4.83203 -16.502 -9.49902c-4 -4 -7.5 -9.5 -10.5 -16.5s-4.5 -13.5 -4.5 -19.5l-55 1c1.33301 31.333 11.333 56.333 30 75c10 9.33301 21.833 16.166 35.5 20.499s30.834 6.83301 51.501 7.5h437v-56h-378v-238h258v-56h-258
v-278h378v-56h-438v628c-13.333 0 -23.166 -0.833008 -29.499 -2.5zM339.498 751.502c-8.33301 8.33301 -12.5 18.166 -12.5 29.499c0 12 4.16699 22.167 12.5 30.5s18.166 12.5 29.499 12.5c12 0 22.167 -4.16699 30.5 -12.5s12.5 -18.5 12.5 -30.5
c0 -11.333 -4.16699 -21.166 -12.5 -29.499s-18.5 -12.5 -30.5 -12.5c-11.333 0 -21.166 4.16699 -29.499 12.5z" />
    <glyph glyph-name="edotaccent" unicode="&#x117;" horiz-adv-x="499" 
d="M148 21c-34.667 20.667 -60.834 49.168 -78.501 85.501s-26.5 77.5 -26.5 123.5c0 45.333 8.5 89.333 25.5 132s42.667 77.667 77 105s76.166 41 125.499 41c32.667 0 63 -6.33301 91 -19s50.167 -30.667 66.5 -54s24.5 -50.333 24.5 -81c0 -49.333 -21 -87.5 -63 -114.5
s-100 -40.167 -174 -39.5l-110 1c6 -51.333 23.167 -90.333 51.5 -117s67.5 -40 117.5 -40c30 0 57.833 4.16699 83.5 12.5s50.5 21.166 74.5 38.499l30 -40c-25.333 -20 -54.166 -35.833 -86.499 -47.5s-66.166 -17.5 -101.499 -17.5c-50 0 -92.333 10.333 -127 31z
M393 355.001c0 33.333 -11.499 58.165 -34.499 74.498s-51.167 24.5 -84.5 24.5c-37.333 0 -68.833 -10.667 -94.5 -32s-44.834 -47.666 -57.501 -78.999s-19 -61.666 -19 -90.999h126c109.333 0 164 34.333 164 103zM236.501 585.5
c-8.33301 8.33301 -12.5 18.166 -12.5 29.499c0 12 4.16699 22.167 12.5 30.5s18.166 12.5 29.499 12.5c12 0 22.167 -4.16699 30.5 -12.5s12.5 -18.5 12.5 -30.5c0 -11.333 -4.16699 -21.166 -12.5 -29.499s-18.5 -12.5 -30.5 -12.5
c-11.333 0 -21.166 4.16699 -29.499 12.5z" />
    <glyph glyph-name="Eogonek" unicode="&#x118;" horiz-adv-x="634" 
d="M628 -176c-12 -8.66699 -26.334 -15.665 -43.001 -20.998s-32.334 -8 -47.001 -8c-26 0 -46.833 8.33301 -62.5 25s-23.5 38 -23.5 64c0 20.667 5.5 39 16.5 55s30.167 36.333 57.5 61h-376v628c-13.333 0 -23.166 -0.833008 -29.499 -2.5
s-11.833 -4.83398 -16.5 -9.50098c-4 -4 -7.5 -9.5 -10.5 -16.5s-4.5 -13.5 -4.5 -19.5l-55 1c1.33301 31.333 11.333 56.333 30 75c10 9.33301 21.833 16.166 35.5 20.499s30.834 6.83301 51.501 7.5h437v-56h-378v-238h258v-56h-258v-278h378v-56
c-32 -34 -53.167 -58 -63.5 -72s-15.5 -27.333 -15.5 -40c0 -13.333 4.5 -23.333 13.5 -30s18.833 -10 29.5 -10c15.333 0 32.333 7 51 21z" />
    <glyph glyph-name="eogonek" unicode="&#x119;" horiz-adv-x="499" 
d="M503 -121c-12 -8.66699 -26.3301 -15.666 -42.9971 -20.999s-32.334 -8 -47.001 -8c-26 0 -46.833 8.33301 -62.5 25s-23.5 38 -23.5 64c0 20.667 6.66699 40.667 20 60c-22.667 -6 -46.667 -9 -72 -9c-50 0 -92.333 10.333 -127 31s-60.834 49.167 -78.501 85.5
s-26.5 77.5 -26.5 123.5c0 45.333 8.5 89.333 25.5 132s42.667 77.667 77 105s76.166 41 125.499 41c32.667 0 63 -6.33301 91 -19s50.167 -30.667 66.5 -54s24.5 -50.333 24.5 -81c0 -49.333 -21 -87.5 -63 -114.5s-100 -40.167 -174 -39.5l-110 1
c6 -51.333 23.167 -90.333 51.5 -117s67.5 -40 117.5 -40c30 0 57.833 4.16699 83.5 12.5s50.5 21.166 74.5 38.499l30 -40c-32 -34 -53.167 -58 -63.5 -72s-15.5 -27.333 -15.5 -40c0 -13.333 4.5 -23.333 13.5 -30s18.833 -10 29.5 -10c15.333 0 32.333 7 51 21z
M179.503 422.001c-25.667 -21.333 -44.833 -47.667 -57.5 -79s-19 -61.666 -19 -90.999h126c109.333 0 164 34.333 164 103c0 33.333 -11.5 58.166 -34.5 74.499s-51.167 24.5 -84.5 24.5c-37.333 0 -68.833 -10.667 -94.5 -32z" />
    <glyph glyph-name="Ecaron" unicode="&#x11a;" horiz-adv-x="634" 
d="M120.5 625.5c-6.33301 -1.66699 -11.835 -4.83203 -16.502 -9.49902c-4 -4 -7.5 -9.5 -10.5 -16.5s-4.5 -13.5 -4.5 -19.5l-55 1c1.33301 31.333 11.333 56.333 30 75c10 9.33301 21.833 16.166 35.5 20.499s30.834 6.83301 51.501 7.5h437v-56h-378v-238h258v-56h-258
v-278h378v-56h-438v628c-13.333 0 -23.166 -0.833008 -29.499 -2.5zM287.998 855.002l81 -69l80 69h74l-130 -122h-49l-127 122h71z" />
    <glyph glyph-name="ecaron" unicode="&#x11b;" horiz-adv-x="499" 
d="M148 21c-34.667 20.667 -60.834 49.168 -78.501 85.501s-26.5 77.5 -26.5 123.5c0 45.333 8.5 89.333 25.5 132s42.667 77.667 77 105s76.166 41 125.499 41c32.667 0 63 -6.33301 91 -19s50.167 -30.667 66.5 -54s24.5 -50.333 24.5 -81c0 -49.333 -21 -87.5 -63 -114.5
s-100 -40.167 -174 -39.5l-110 1c6 -51.333 23.167 -90.333 51.5 -117s67.5 -40 117.5 -40c30 0 57.833 4.16699 83.5 12.5s50.5 21.166 74.5 38.499l30 -40c-25.333 -20 -54.166 -35.833 -86.499 -47.5s-66.166 -17.5 -101.499 -17.5c-50 0 -92.333 10.333 -127 31z
M393 355.001c0 33.333 -11.499 58.165 -34.499 74.498s-51.167 24.5 -84.5 24.5c-37.333 0 -68.833 -10.667 -94.5 -32s-44.834 -47.666 -57.501 -78.999s-19 -61.666 -19 -90.999h126c109.333 0 164 34.333 164 103zM120.001 719h67l81 -89l80 89h68l-124 -142h-49z" />
    <glyph glyph-name="Gcircumflex" unicode="&#x11c;" horiz-adv-x="728" 
d="M675 342v-80.9971c0 -54.667 -13.5 -103.5 -40.5 -146.5s-62.667 -76.333 -107 -100s-91.166 -35.5 -140.499 -35.5c-62.667 0 -119.334 15.833 -170.001 47.5s-90.167 74.167 -118.5 127.5s-42.5 111.666 -42.5 174.999c0 66 14.667 127.333 44 184
s70 101.834 122 135.501s110 50.5 174 50.5c32.667 0 66.667 -4.83301 102 -14.5s65.5 -25.334 90.5 -47.001s37.5 -49.167 37.5 -82.5c0 -28 -8.33301 -50.833 -25 -68.5s-37.667 -26.5 -63 -26.5c-9.33301 0 -18.5 1.83301 -27.5 5.5s-16.5 8.5 -22.5 14.5l28 41
c2 -2 5.5 -3.83301 10.5 -5.5s9.16699 -2.5 12.5 -2.5c9.33301 0 17.166 4.16699 23.499 12.5s9.5 18.166 9.5 29.499c0 29.333 -18.667 51.333 -56 66s-76 22 -116 22c-52.667 0 -100.667 -14.333 -144 -43s-77.5 -67.167 -102.5 -115.5s-37.5 -100.5 -37.5 -156.5
c0 -50.667 11.833 -98.5 35.5 -143.5s55.834 -81.167 96.501 -108.5s85.334 -41 134.001 -41c42 0 81.167 9.66699 117.5 29s65.166 45.666 86.499 78.999s32 70.333 32 111v32h-243v56h300zM366 870.003h49l130 -122h-74l-80 69l-81 -69h-71z" />
    <glyph glyph-name="gcircumflex" unicode="&#x11d;" horiz-adv-x="544" 
d="M233 -259c-23.333 13.333 -41.668 31.5 -55.001 54.5s-20 48.5 -20 76.5c0 50.667 19 91.667 57 123c-51.333 12 -92.833 41.833 -124.5 89.5s-47.5 104.167 -47.5 169.5c0 51.333 10.333 96.333 31 135s49.834 68.667 87.501 90s81.167 32 130.5 32
c26 0 44.333 -1 55 -3l60 -7h57v-617c0 -48.667 -14.167 -88 -42.5 -118s-65.5 -45 -111.5 -45c-28 0 -53.667 6.66699 -77 20zM340.998 82c18.667 14.667 33.832 31 45.499 49s17.5 34.333 17.5 49v268l-91 5h-33c-33.333 0 -63.5 -8.83301 -90.5 -26.5
s-48.167 -42 -63.5 -73s-23 -65.833 -23 -104.5c0 -36.667 6.66699 -70.5 20 -101.5s31.333 -55.5 54 -73.5s47.334 -27 74.001 -27c30.667 0 60.667 11.667 90 35zM378.496 -193c15.667 18.667 24.1641 45.332 25.4971 79.999v194
c-1.33301 -1.33301 -6.16602 -8.16602 -14.499 -20.499s-18.166 -23.166 -29.499 -32.499c-12 -10.667 -31 -23.334 -57 -38.001c-18 -10.667 -28.333 -17 -31 -19c-34.667 -22 -52 -54.667 -52 -98c0 -26.667 9.16699 -49 27.5 -67s40.833 -27 67.5 -27
s47.834 9.33301 63.501 28zM255.993 714.998h49l124 -142h-68l-80 89l-81 -89h-67z" />
    <glyph glyph-name="Gbreve" unicode="&#x11e;" horiz-adv-x="728" 
d="M675 342v-80.9971c0 -54.667 -13.5 -103.5 -40.5 -146.5s-62.667 -76.333 -107 -100s-91.166 -35.5 -140.499 -35.5c-62.667 0 -119.334 15.833 -170.001 47.5s-90.167 74.167 -118.5 127.5s-42.5 111.666 -42.5 174.999c0 66 14.667 127.333 44 184
s70 101.834 122 135.501s110 50.5 174 50.5c32.667 0 66.667 -4.83301 102 -14.5s65.5 -25.334 90.5 -47.001s37.5 -49.167 37.5 -82.5c0 -28 -8.33301 -50.833 -25 -68.5s-37.667 -26.5 -63 -26.5c-9.33301 0 -18.5 1.83301 -27.5 5.5s-16.5 8.5 -22.5 14.5l28 41
c2 -2 5.5 -3.83301 10.5 -5.5s9.16699 -2.5 12.5 -2.5c9.33301 0 17.166 4.16699 23.499 12.5s9.5 18.166 9.5 29.499c0 29.333 -18.667 51.333 -56 66s-76 22 -116 22c-52.667 0 -100.667 -14.333 -144 -43s-77.5 -67.167 -102.5 -115.5s-37.5 -100.5 -37.5 -156.5
c0 -50.667 11.833 -98.5 35.5 -143.5s55.834 -81.167 96.501 -108.5s85.334 -41 134.001 -41c42 0 81.167 9.66699 117.5 29s65.166 45.666 86.499 78.999s32 70.333 32 111v32h-243v56h300zM290.5 786.003c-23 23.333 -35.168 54 -36.501 92h55
c1.33301 -22.667 8.83301 -41 22.5 -55s33.834 -21 60.501 -21c26 0 45.5 6.83301 58.5 20.5s19.833 32.167 20.5 55.5h55c-1.33301 -40 -13.5 -71.167 -36.5 -93.5s-55.833 -33.5 -98.5 -33.5c-44 0 -77.5 11.667 -100.5 35z" />
    <glyph glyph-name="gbreve" unicode="&#x11f;" horiz-adv-x="544" 
d="M233 -259c-23.333 13.333 -41.668 31.5 -55.001 54.5s-20 48.5 -20 76.5c0 50.667 19 91.667 57 123c-51.333 12 -92.833 41.833 -124.5 89.5s-47.5 104.167 -47.5 169.5c0 51.333 10.333 96.333 31 135s49.834 68.667 87.501 90s81.167 32 130.5 32
c26 0 44.333 -1 55 -3l60 -7h57v-617c0 -48.667 -14.167 -88 -42.5 -118s-65.5 -45 -111.5 -45c-28 0 -53.667 6.66699 -77 20zM340.998 82c18.667 14.667 33.832 31 45.499 49s17.5 34.333 17.5 49v268l-91 5h-33c-33.333 0 -63.5 -8.83301 -90.5 -26.5
s-48.167 -42 -63.5 -73s-23 -65.833 -23 -104.5c0 -36.667 6.66699 -70.5 20 -101.5s31.333 -55.5 54 -73.5s47.334 -27 74.001 -27c30.667 0 60.667 11.667 90 35zM378.496 -193c15.667 18.667 24.1641 45.332 25.4971 79.999v194
c-1.33301 -1.33301 -6.16602 -8.16602 -14.499 -20.499s-18.166 -23.166 -29.499 -32.499c-12 -10.667 -31 -23.334 -57 -38.001c-18 -10.667 -28.333 -17 -31 -19c-34.667 -22 -52 -54.667 -52 -98c0 -26.667 9.16699 -49 27.5 -67s40.833 -27 67.5 -27
s47.834 9.33301 63.501 28zM179.493 602.998c-23.667 24.667 -36.165 58 -37.498 100h58c3.33301 -57.333 31 -86 83 -86c51.333 0 77.666 28.667 78.999 86h58c-1.33301 -44.667 -13.833 -78.667 -37.5 -102s-57.167 -35 -100.5 -35c-44.667 0 -78.834 12.333 -102.501 37z
" />
    <glyph glyph-name="Gdotaccent" unicode="&#x120;" horiz-adv-x="728" 
d="M675 342v-80.9971c0 -54.667 -13.5 -103.5 -40.5 -146.5s-62.667 -76.333 -107 -100s-91.166 -35.5 -140.499 -35.5c-62.667 0 -119.334 15.833 -170.001 47.5s-90.167 74.167 -118.5 127.5s-42.5 111.666 -42.5 174.999c0 66 14.667 127.333 44 184
s70 101.834 122 135.501s110 50.5 174 50.5c32.667 0 66.667 -4.83301 102 -14.5s65.5 -25.334 90.5 -47.001s37.5 -49.167 37.5 -82.5c0 -28 -8.33301 -50.833 -25 -68.5s-37.667 -26.5 -63 -26.5c-9.33301 0 -18.5 1.83301 -27.5 5.5s-16.5 8.5 -22.5 14.5l28 41
c2 -2 5.5 -3.83301 10.5 -5.5s9.16699 -2.5 12.5 -2.5c9.33301 0 17.166 4.16699 23.499 12.5s9.5 18.166 9.5 29.499c0 29.333 -18.667 51.333 -56 66s-76 22 -116 22c-52.667 0 -100.667 -14.333 -144 -43s-77.5 -67.167 -102.5 -115.5s-37.5 -100.5 -37.5 -156.5
c0 -50.667 11.833 -98.5 35.5 -143.5s55.834 -81.167 96.501 -108.5s85.334 -41 134.001 -41c42 0 81.167 9.66699 117.5 29s65.166 45.666 86.499 78.999s32 70.333 32 111v32h-243v56h300zM361.5 766.503c-8.33301 8.33301 -12.5 18.166 -12.5 29.499
c0 12 4.16699 22.167 12.5 30.5s18.166 12.5 29.499 12.5c12 0 22.167 -4.16699 30.5 -12.5s12.5 -18.5 12.5 -30.5c0 -11.333 -4.16699 -21.166 -12.5 -29.499s-18.5 -12.5 -30.5 -12.5c-11.333 0 -21.166 4.16699 -29.499 12.5z" />
    <glyph glyph-name="gdotaccent" unicode="&#x121;" horiz-adv-x="544" 
d="M233 -259c-23.333 13.333 -41.668 31.5 -55.001 54.5s-20 48.5 -20 76.5c0 50.667 19 91.667 57 123c-51.333 12 -92.833 41.833 -124.5 89.5s-47.5 104.167 -47.5 169.5c0 51.333 10.333 96.333 31 135s49.834 68.667 87.501 90s81.167 32 130.5 32
c26 0 44.333 -1 55 -3l60 -7h57v-617c0 -48.667 -14.167 -88 -42.5 -118s-65.5 -45 -111.5 -45c-28 0 -53.667 6.66699 -77 20zM340.998 82c18.667 14.667 33.832 31 45.499 49s17.5 34.333 17.5 49v268l-91 5h-33c-33.333 0 -63.5 -8.83301 -90.5 -26.5
s-48.167 -42 -63.5 -73s-23 -65.833 -23 -104.5c0 -36.667 6.66699 -70.5 20 -101.5s31.333 -55.5 54 -73.5s47.334 -27 74.001 -27c30.667 0 60.667 11.667 90 35zM378.496 -193c15.667 18.667 24.1641 45.332 25.4971 79.999v194
c-1.33301 -1.33301 -6.16602 -8.16602 -14.499 -20.499s-18.166 -23.166 -29.499 -32.499c-12 -10.667 -31 -23.334 -57 -38.001c-18 -10.667 -28.333 -17 -31 -19c-34.667 -22 -52 -54.667 -52 -98c0 -26.667 9.16699 -49 27.5 -67s40.833 -27 67.5 -27
s47.834 9.33301 63.501 28zM248.493 585.498c-8.33301 8.33301 -12.5 18.166 -12.5 29.499c0 12 4.16699 22.167 12.5 30.5s18.166 12.5 29.499 12.5c12 0 22.167 -4.16699 30.5 -12.5s12.5 -18.5 12.5 -30.5c0 -11.333 -4.16699 -21.166 -12.5 -29.499
s-18.5 -12.5 -30.5 -12.5c-11.333 0 -21.166 4.16699 -29.499 12.5z" />
    <glyph glyph-name="uni0122" unicode="&#x122;" horiz-adv-x="728" 
d="M675 342v-80.9971c0 -54.667 -13.5 -103.5 -40.5 -146.5s-62.667 -76.333 -107 -100s-91.166 -35.5 -140.499 -35.5c-62.667 0 -119.334 15.833 -170.001 47.5s-90.167 74.167 -118.5 127.5s-42.5 111.666 -42.5 174.999c0 66 14.667 127.333 44 184
s70 101.834 122 135.501s110 50.5 174 50.5c32.667 0 66.667 -4.83301 102 -14.5s65.5 -25.334 90.5 -47.001s37.5 -49.167 37.5 -82.5c0 -28 -8.33301 -50.833 -25 -68.5s-37.667 -26.5 -63 -26.5c-9.33301 0 -18.5 1.83301 -27.5 5.5s-16.5 8.5 -22.5 14.5l28 41
c2 -2 5.5 -3.83301 10.5 -5.5s9.16699 -2.5 12.5 -2.5c9.33301 0 17.166 4.16699 23.499 12.5s9.5 18.166 9.5 29.499c0 29.333 -18.667 51.333 -56 66s-76 22 -116 22c-52.667 0 -100.667 -14.333 -144 -43s-77.5 -67.167 -102.5 -115.5s-37.5 -100.5 -37.5 -156.5
c0 -50.667 11.833 -98.5 35.5 -143.5s55.834 -81.167 96.501 -108.5s85.334 -41 134.001 -41c42 0 81.167 9.66699 117.5 29s65.166 45.666 86.499 78.999s32 70.333 32 111v32h-243v56h300zM352 -105.997h64l-50 -207h-54z" />
    <glyph glyph-name="uni0123" unicode="&#x123;" horiz-adv-x="544" 
d="M233 -259c-23.333 13.333 -41.668 31.5 -55.001 54.5s-20 48.5 -20 76.5c0 50.667 19 91.667 57 123c-51.333 12 -92.833 41.833 -124.5 89.5s-47.5 104.167 -47.5 169.5c0 51.333 10.333 96.333 31 135s49.834 68.667 87.501 90s81.167 32 130.5 32
c26 0 44.333 -1 55 -3l60 -7h57v-617c0 -48.667 -14.167 -88 -42.5 -118s-65.5 -45 -111.5 -45c-28 0 -53.667 6.66699 -77 20zM340.998 82c18.667 14.667 33.832 31 45.499 49s17.5 34.333 17.5 49v268l-91 5h-33c-33.333 0 -63.5 -8.83301 -90.5 -26.5
s-48.167 -42 -63.5 -73s-23 -65.833 -23 -104.5c0 -36.667 6.66699 -70.5 20 -101.5s31.333 -55.5 54 -73.5s47.334 -27 74.001 -27c30.667 0 60.667 11.667 90 35zM378.496 -193c15.667 18.667 24.1641 45.332 25.4971 79.999v194
c-1.33301 -1.33301 -6.16602 -8.16602 -14.499 -20.499s-18.166 -23.166 -29.499 -32.499c-12 -10.667 -31 -23.334 -57 -38.001c-18 -10.667 -28.333 -17 -31 -19c-34.667 -22 -52 -54.667 -52 -98c0 -26.667 9.16699 -49 27.5 -67s40.833 -27 67.5 -27
s47.834 9.33301 63.501 28zM304.993 673.998c-2 -8 -3.00098 -17 -3.00098 -27c0 -8 0.5 -17.333 1.5 -28s1.83301 -18.667 2.5 -24c0 -10 -3 -18 -9 -24s-14 -9 -24 -9s-17.833 3.33301 -23.5 10s-8.5 14.334 -8.5 23.001c0 22.667 0.833008 41.167 2.5 55.5
s4.83398 27.166 9.50098 38.499c8 20 24.667 39.333 50 58l29 -33c-14 -14 -23 -27.333 -27 -40z" />
    <glyph glyph-name="Hcircumflex" unicode="&#x124;" horiz-adv-x="724" 
d="M126.5 628c-6.33301 8.66699 -15.166 13 -26.499 13c-16.667 0 -30.334 -8.66699 -41.001 -26l-45 32c7.33301 14 18.333 26 33 36s32 15 52 15c29.333 0 52.833 -9.66699 70.5 -29s26.5 -44 26.5 -74v-211h369v300h60v-684h-60v328h-369v-328h-60v595
c0 13.333 -3.16699 24.333 -9.5 33zM364 855h49l130 -122h-74l-80 69l-81 -69h-71z" />
    <glyph glyph-name="hcircumflex" unicode="&#x125;" horiz-adv-x="587" 
d="M478.5 60.5c6.33301 -6.33301 13.8311 -9.50195 22.498 -9.50195c13.333 0 23 5.66699 29 17l44 -33c-5.33301 -11.333 -14.666 -20.833 -27.999 -28.5s-28.333 -11.5 -45 -11.5c-26.667 0 -48.667 8.33301 -66 25s-26 38.334 -26 65.001v262
c0 36.667 -9.5 64.5 -28.5 83.5s-46.833 28.5 -83.5 28.5c-32 0 -59.833 -8.5 -83.5 -25.5s-48.167 -42.5 -73.5 -76.5v-354h-60v726h60v-302c42 57.333 96.667 86 164 86c54.667 0 95.834 -14 123.501 -42s41.5 -68.333 41.5 -121v-266
c0 -9.33301 3.16699 -17.166 9.5 -23.499zM85.998 899.998h49l130 -122h-74l-80 69l-81 -69h-71z" />
    <glyph glyph-name="Hbar" unicode="&#x126;" horiz-adv-x="724" 
d="M625 684v-684h-60v328h-369v-328h-60v595c0 13.333 -3.16699 24.333 -9.5 33s-15.166 13 -26.499 13c-16.667 0 -30.334 -8.66699 -41.001 -26l-45 32c7.33301 14 18.333 26 33 36s32 15 52 15c29.333 0 52.833 -9.66699 70.5 -29s26.5 -44 26.5 -74v-63l369 -2v154h60z
M196 384h369v89l-369 2v-91z" />
    <glyph glyph-name="hbar" unicode="&#x127;" horiz-adv-x="587" 
d="M574 35c-5.33301 -11.333 -14.668 -20.835 -28.001 -28.502s-28.333 -11.5 -45 -11.5c-26.667 0 -48.667 8.33301 -66 25s-26 38.334 -26 65.001v262c0 36.667 -9.5 64.5 -28.5 83.5s-46.833 28.5 -83.5 28.5c-32 0 -59.833 -8.5 -83.5 -25.5s-48.167 -42.5 -73.5 -76.5
v-354h-60v581h-81v54h81v91h60v-91h143v-54h-143v-157c42 57.333 96.667 86 164 86c54.667 0 95.834 -14 123.501 -42s41.5 -68.333 41.5 -121v-266c0 -9.33301 3.16699 -17.166 9.5 -23.499s13.833 -9.5 22.5 -9.5c13.333 0 23 5.66699 29 17z" />
    <glyph glyph-name="Itilde" unicode="&#x128;" horiz-adv-x="261" 
d="M100 684h61v-684h-61v684zM28.5 803.5c17 6.33301 33.833 9.5 50.5 9.5c12.667 0 23.667 -1.66699 33 -5s20 -8.33301 32 -15c17.333 -10 32.333 -15 45 -15c22 0 46.333 11 73 33l34 -41c-20 -16 -37 -27.167 -51 -33.5s-33.333 -9.5 -58 -9.5
c-12 0 -21.833 1.33301 -29.5 4s-16.5 7 -26.5 13c-9.33301 5.33301 -17.5 9.33301 -24.5 12s-15.833 4 -26.5 4c-12 0 -23.5 -2.16699 -34.5 -6.5s-24.5 -13.166 -40.5 -26.499l-33 41c20.667 17.333 39.5 29.166 56.5 35.499z" />
    <glyph glyph-name="itilde" unicode="&#x129;" horiz-adv-x="253" 
d="M144.5 60.5c6.33301 -6.33301 13.832 -9.50195 22.499 -9.50195c13.333 0 23 5.66699 29 17l44 -33c-5.33301 -11.333 -14.666 -20.833 -27.999 -28.5s-28.333 -11.5 -45 -11.5c-26.667 0 -48.667 8.33301 -66 25s-26 38.334 -26 65.001v415h60v-416
c0 -9.33301 3.16699 -17.166 9.5 -23.499zM14.999 639.998c14 6 28.668 9 44.001 9c9.33301 0 17.833 -1.5 25.5 -4.5s17.167 -7.83301 28.5 -14.5c6.66699 -4 13.667 -7.66699 21 -11s14 -5 20 -5c8 0 15.167 1.83301 21.5 5.5s13 8.5 20 14.5l15.5 13l34 -41l-23.5 -19.5
c-11 -9 -21.333 -15.167 -31 -18.5s-21.834 -5 -36.501 -5c-14 0 -25.167 1.66699 -33.5 5s-17.166 8.33301 -26.499 15c-7.33301 4.66699 -13.333 8 -18 10s-10 3 -16 3c-10.667 0 -19.834 -2 -27.501 -6s-20.167 -13 -37.5 -27l-33 41c21.333 18 39 30 53 36z" />
    <glyph glyph-name="Imacron" unicode="&#x12a;" horiz-adv-x="261" 
d="M100 684h61v-684h-61v684zM15 800h226v-57h-226v57z" />
    <glyph glyph-name="imacron" unicode="&#x12b;" horiz-adv-x="253" 
d="M144.5 60.5c6.33301 -6.33301 13.832 -9.50195 22.499 -9.50195c13.333 0 23 5.66699 29 17l44 -33c-5.33301 -11.333 -14.666 -20.833 -27.999 -28.5s-28.333 -11.5 -45 -11.5c-26.667 0 -48.667 8.33301 -66 25s-26 38.334 -26 65.001v415h60v-416
c0 -9.33301 3.16699 -17.166 9.5 -23.499zM-9.00098 625.998h226v-57h-226v57z" />
    <glyph glyph-name="Ibreve" unicode="&#x12c;" horiz-adv-x="261" 
d="M100 684h61v-684h-61v684zM40.5 773c-20.333 24.667 -31.168 58 -32.501 100h58c3.33301 -57.333 24.333 -86 63 -86c19.333 0 33.833 7.5 43.5 22.5s14.834 36.167 15.501 63.5h58c-1.33301 -44 -12.333 -77.833 -33 -101.5s-49 -35.5 -85 -35.5
c-38 0 -67.167 12.333 -87.5 37z" />
    <glyph glyph-name="ibreve" unicode="&#x12d;" horiz-adv-x="253" 
d="M144.5 60.5c6.33301 -6.33301 13.832 -9.50195 22.499 -9.50195c13.333 0 23 5.66699 29 17l44 -33c-5.33301 -11.333 -14.666 -20.833 -27.999 -28.5s-28.333 -11.5 -45 -11.5c-26.667 0 -48.667 8.33301 -66 25s-26 38.334 -26 65.001v415h60v-416
c0 -9.33301 3.16699 -17.166 9.5 -23.499zM16.499 598.998c-20.333 24.667 -31.168 58 -32.501 100h58c3.33301 -57.333 24.333 -86 63 -86c19.333 0 33.833 7.5 43.5 22.5s14.834 36.167 15.501 63.5h58c-1.33301 -44 -12.333 -77.833 -33 -101.5s-49 -35.5 -85 -35.5
c-38 0 -67.167 12.333 -87.5 37z" />
    <glyph glyph-name="Iogonek" unicode="&#x12e;" horiz-adv-x="261" 
d="M201 -176c-12 -8.66699 -26.332 -15.667 -42.999 -21s-32.334 -8 -47.001 -8c-26 0 -46.833 8.33301 -62.5 25s-23.5 38 -23.5 64c0 20.667 5.5 39 16.5 55s30.5 36.667 58.5 62v683h61v-684c-32 -34 -53.167 -58 -63.5 -72s-15.5 -27.333 -15.5 -40
c0 -13.333 4.5 -23.333 13.5 -30s18.833 -10 29.5 -10c15.333 0 32.333 7 51 21z" />
    <glyph glyph-name="iogonek" unicode="&#x12f;" horiz-adv-x="253" 
d="M132.5 577.5c-8.33301 -8.33301 -18.5 -12.5 -30.5 -12.5c-11.333 0 -21.166 4.16699 -29.499 12.5s-12.5 18.166 -12.5 29.499c0 12 4.16699 22.167 12.5 30.5s18.166 12.5 29.499 12.5c12 0 22.167 -4.16699 30.5 -12.5s12.5 -18.5 12.5 -30.5
c0 -11.333 -4.16699 -21.166 -12.5 -29.499zM274 -151c-12 -8.66699 -26.3311 -15.6689 -42.998 -21.002s-32.334 -8 -47.001 -8c-26 0 -46.833 8.33301 -62.5 25s-23.5 38 -23.5 64c0 16 3.66699 30.833 11 44.5s18.666 28.5 33.999 44.5
c-20 4.66699 -36.333 14.834 -49 30.501s-19 34.5 -19 56.5v415h60v-416c0 -9.33301 3.16699 -17.166 9.5 -23.499s13.833 -9.5 22.5 -9.5c13.333 0 23 5.66699 29 17l44 -33l-6 -10v0c-32 -34 -53.167 -58 -63.5 -72s-15.5 -27.333 -15.5 -40
c0 -13.333 4.5 -23.333 13.5 -30s18.833 -10 29.5 -10c15.333 0 32.333 7 51 21z" />
    <glyph glyph-name="Idotaccent" unicode="&#x130;" horiz-adv-x="261" 
d="M100 684h61v-684h-61v684zM98.5 741.5c-8.33301 8.33301 -12.5 18.166 -12.5 29.499c0 12 4.16699 22.167 12.5 30.5s18.166 12.5 29.499 12.5c12 0 22.167 -4.16699 30.5 -12.5s12.5 -18.5 12.5 -30.5c0 -11.333 -4.16699 -21.166 -12.5 -29.499
s-18.5 -12.5 -30.5 -12.5c-11.333 0 -21.166 4.16699 -29.499 12.5z" />
    <glyph glyph-name="dotlessi" unicode="&#x131;" horiz-adv-x="253" 
d="M144.5 60.5c6.33301 -6.33301 13.832 -9.50195 22.499 -9.50195c13.333 0 23 5.66699 29 17l44 -33c-5.33301 -11.333 -14.666 -20.833 -27.999 -28.5s-28.333 -11.5 -45 -11.5c-26.667 0 -48.667 8.33301 -66 25s-26 38.334 -26 65.001v415h60v-416
c0 -9.33301 3.16699 -17.166 9.5 -23.499z" />
    <glyph glyph-name="IJ" unicode="&#x132;" horiz-adv-x="777" 
d="M100 684h61v-684h-61v684zM350.5 46c-29.667 35.333 -45.168 78.665 -46.501 129.998l57 -5c0 -37.333 11.333 -67 34 -89s55.334 -33 98.001 -33c48.667 0 83 13.833 103 41.5s30 61.167 30 100.5v427c-14 -8.66699 -32.333 -13 -55 -13c-16 0 -29.833 1.5 -41.5 4.5
s-25.834 8.16699 -42.501 15.5c-13.333 5.33301 -24 9.33301 -32 12s-16.333 4 -25 4c-11.333 0 -22.666 -2 -33.999 -6s-26.333 -10 -45 -18l-25 50c29.333 12 50.666 19.833 63.999 23.5s26.666 5.5 39.999 5.5c9.33301 0 22.5 -2.16699 39.5 -6.5
s33.833 -10.166 50.5 -17.499c18.667 -8 36.334 -12 53.001 -12c8.66699 0 19.834 3.5 33.501 10.5s20.5 12.5 20.5 16.5h59v-499c0 -55.333 -16 -101.666 -48 -138.999s-81.333 -56 -148 -56c-63.333 0 -109.833 17.667 -139.5 53z" />
    <glyph glyph-name="ij" unicode="&#x133;" horiz-adv-x="473" 
d="M144.5 60.5c6.33301 -6.33301 13.832 -9.50195 22.499 -9.50195c13.333 0 23 5.66699 29 17l44 -33c-5.33301 -11.333 -14.666 -20.833 -27.999 -28.5s-28.333 -11.5 -45 -11.5c-26.667 0 -48.667 8.33301 -66 25s-26 38.334 -26 65.001v415h60v-416
c0 -9.33301 3.16699 -17.166 9.5 -23.499zM72.499 577.498c-8.33301 8.33301 -12.5 18.166 -12.5 29.499c0 12 4.16699 22.167 12.5 30.5s18.166 12.5 29.499 12.5c12 0 22.167 -4.16699 30.5 -12.5s12.5 -18.5 12.5 -30.5c0 -11.333 -4.16699 -21.166 -12.5 -29.499
s-18.5 -12.5 -30.5 -12.5c-11.333 0 -21.166 4.16699 -29.499 12.5zM247.999 -247.502c-14.667 8.33301 -26.667 19.499 -36 33.499l46 33c4.66699 -6.66699 9.83398 -12.167 15.501 -16.5s13.167 -6.5 22.5 -6.5c24.667 0 37 16.333 37 49v656h60v-656
c0 -33.333 -8.66699 -59.166 -26 -77.499s-40.333 -27.5 -69 -27.5c-18.667 0 -35.334 4.16699 -50.001 12.5zM330.499 577.497c-8.33301 8.33301 -12.5 18.166 -12.5 29.499c0 12 4.16699 22.167 12.5 30.5s18.166 12.5 29.499 12.5c12 0 22.167 -4.16699 30.5 -12.5
s12.5 -18.5 12.5 -30.5c0 -11.333 -4.16699 -21.166 -12.5 -29.499s-18.5 -12.5 -30.5 -12.5c-11.333 0 -21.166 4.16699 -29.499 12.5z" />
    <glyph glyph-name="Jcircumflex" unicode="&#x134;" horiz-adv-x="516" 
d="M89.5 46c-29.667 35.333 -45.168 78.665 -46.501 129.998l57 -5c0 -37.333 11.333 -67 34 -89s55.334 -33 98.001 -33c48.667 0 83 13.833 103 41.5s30 61.167 30 100.5v427c-14 -8.66699 -32.333 -13 -55 -13c-16 0 -29.833 1.5 -41.5 4.5s-25.834 8.16699 -42.501 15.5
c-13.333 5.33301 -24 9.33301 -32 12s-16.333 4 -25 4c-11.333 0 -22.666 -2 -33.999 -6s-26.333 -10 -45 -18l-25 50c29.333 12 50.666 19.833 63.999 23.5s26.666 5.5 39.999 5.5c9.33301 0 22.5 -2.16699 39.5 -6.5s33.833 -10.166 50.5 -17.499
c18.667 -8 36.334 -12 53.001 -12c8.66699 0 19.834 3.5 33.501 10.5s20.5 12.5 20.5 16.5h59v-499c0 -55.333 -16 -101.666 -48 -138.999s-81.333 -56 -148 -56c-63.333 0 -109.833 17.667 -139.5 53zM233.999 852.999h49l130 -122h-74l-80 69l-81 -69h-71z" />
    <glyph glyph-name="jcircumflex" unicode="&#x135;" horiz-adv-x="220" 
d="M-5 -247.5c-14.667 8.33301 -26.667 19.499 -36 33.499l46 33c4.66699 -6.66699 9.83398 -12.167 15.501 -16.5s13.167 -6.5 22.5 -6.5c24.667 0 37 16.333 37 49v656h60v-656c0 -33.333 -8.66699 -59.166 -26 -77.499s-40.333 -27.5 -69 -27.5
c-18.667 0 -35.334 4.16699 -50.001 12.5zM85 706.999h49l124 -142h-68l-80 89l-81 -89h-67z" />
    <glyph glyph-name="uni0136" unicode="&#x136;" horiz-adv-x="694" 
d="M126.5 627c-6.33301 8.66699 -15.1611 13 -26.4941 13c-16.667 0 -30.334 -8.66699 -41.001 -26l-45 32c7.33301 14 18.333 26 33 36s32 15 52 15c29.333 0 52.833 -9.66699 70.5 -29s26.5 -44 26.5 -74v-222h44c22.667 0 44.667 4.66699 66 14
c21.333 10 38 22.333 50 37c20 25.333 43 61 69 107c15.333 28 40.666 79.333 75.999 154h69c-51.333 -98 -85.333 -161.333 -102 -190c-24 -42 -41.333 -70.333 -52 -85c-12 -16.667 -21.667 -29.167 -29 -37.5s-16 -16.5 -26 -24.5l201 -284
c7.33301 -10 16.666 -15 27.999 -15c12.667 0 22.334 4.66699 29.001 14l46 -32c-9.33301 -12 -20.833 -21.333 -34.5 -28s-27.834 -10 -42.501 -10c-14 0 -27.333 3.5 -40 10.5s-23.334 16.5 -32.001 28.5l-208 294c-14.667 -4.66699 -27.334 -7.66699 -38.001 -9
s-24.334 -2 -41.001 -2h-31v-313h-62v593c0 13.333 -3.16699 24.333 -9.5 33zM296.005 -78h64l-50 -207h-54z" />
    <glyph glyph-name="uni0137" unicode="&#x137;" horiz-adv-x="555" 
d="M140 726l-0.000976562 -310.998c16 30.667 38.167 54.5 66.5 71.5s59.5 25.5 93.5 25.5c44.667 0 81.5 -14.333 110.5 -43s43.5 -65.334 43.5 -110.001c0 -36 -9.16699 -66.333 -27.5 -91s-40.5 -42.334 -66.5 -53.001l90 -151c6 -11.333 14.667 -17 26 -17
c8.66699 0 15.334 3.33301 20.001 10l43 -34c-17.333 -21.333 -38.333 -32 -63 -32c-16 0 -31.167 3.66699 -45.5 11s-25.5 18 -33.5 32l-95 165h-162v-199h-60v726h60zM330.999 268.002c44 18.667 66 49.667 66 93c0 28 -9.16699 50.833 -27.5 68.5
s-43.166 26.5 -74.499 26.5c-34 0 -63 -11 -87 -33s-42.333 -54 -55 -96c-6.66699 -22 -10.334 -46 -11.001 -72h113c30 0 55.333 4.33301 76 13zM267.999 -75.998h64l-50 -207h-54z" />
    <glyph glyph-name="kgreenlandic" unicode="&#x138;" horiz-adv-x="521" 
d="M139 500l-0.00488281 -215.997h31c14.667 0 25.834 0.5 33.501 1.5s15.834 2.5 24.501 4.5c20.667 4.66699 40.834 13 60.501 25s34.5 26.333 44.5 43l14 25c16.667 32.667 33 59.667 49 81c23.333 29.333 48.333 47.333 75 54l15 -53
c-17.333 -4.66699 -34.333 -18 -51 -40c-12.667 -16.667 -24.167 -35.334 -34.5 -56.001s-16.833 -33.334 -19.5 -38.001c-10 -19.333 -21 -33.666 -33 -42.999s-28.333 -18.333 -49 -27c28.667 -14.667 50.334 -30.334 65.001 -47.001s26.667 -34.334 36 -53.001
c18.667 -37.333 33.334 -64 44.001 -80c18.667 -26 36 -41 52 -45l-15 -53c-32.667 9.33301 -63 36 -91 80c-8 12 -15.5 24.833 -22.5 38.5l-13.5 26.5c-8 18 -15 31 -21 39c-12.667 16 -30 29.667 -52 41s-43 18 -63 20c-10.667 1.33301 -26 2 -46 2
c-15.333 0 -26.333 -0.333008 -33 -1v-229h-60v500h60z" />
    <glyph glyph-name="Lacute" unicode="&#x139;" horiz-adv-x="540" 
d="M100 684h60v-628h347v-56h-407v684zM274 774l169 110l31 -52l-181 -94z" />
    <glyph glyph-name="lacute" unicode="&#x13a;" horiz-adv-x="253" 
d="M144.5 60.5c6.33301 -6.33301 13.832 -9.50195 22.499 -9.50195c13.333 0 23 5.66699 29 17l44 -33c-5.33301 -11.333 -14.666 -20.833 -27.999 -28.5s-28.333 -11.5 -45 -11.5c-26.667 0 -48.667 8.33301 -66 25s-26 38.334 -26 65.001v641h60v-642
c0 -9.33301 3.16699 -17.166 9.5 -23.499zM76.999 815.998l169 110l31 -52l-181 -94z" />
    <glyph glyph-name="uni013B" unicode="&#x13b;" horiz-adv-x="540" 
d="M100 684h60v-628h347v-56h-407v684zM266 -78h64l-50 -207h-54z" />
    <glyph glyph-name="uni013C" unicode="&#x13c;" horiz-adv-x="253" 
d="M144.5 60.5c6.33301 -6.33301 13.832 -9.50195 22.499 -9.50195c13.333 0 23 5.66699 29 17l44 -33c-5.33301 -11.333 -14.666 -20.833 -27.999 -28.5s-28.333 -11.5 -45 -11.5c-26.667 0 -48.667 8.33301 -66 25s-26 38.334 -26 65.001v641h60v-642
c0 -9.33301 3.16699 -17.166 9.5 -23.499zM79.999 -78.002h64l-50 -207h-54z" />
    <glyph glyph-name="Lcaron" unicode="&#x13d;" horiz-adv-x="540" 
d="M100 684h60v-628h347v-56h-407v684zM446 760l56 -26l-101 -179l-35 20z" />
    <glyph glyph-name="lcaron" unicode="&#x13e;" horiz-adv-x="253" 
d="M144.5 60.5c6.33301 -6.33301 13.832 -9.50195 22.499 -9.50195c13.333 0 23 5.66699 29 17l44 -33c-5.33301 -11.333 -14.666 -20.833 -27.999 -28.5s-28.333 -11.5 -45 -11.5c-26.667 0 -48.667 8.33301 -66 25s-26 38.334 -26 65.001v641h60v-642
c0 -9.33301 3.16699 -17.166 9.5 -23.499zM303.999 777.998l56 -26l-101 -179l-35 20z" />
    <glyph glyph-name="Ldot" unicode="&#x13f;" horiz-adv-x="540" 
d="M100 684h60v-628h347v-56h-407v684zM291.5 344.5c-11.667 11.667 -17.5 25.834 -17.5 42.501c0 16 5.83301 29.833 17.5 41.5s25.834 17.5 42.501 17.5c16 0 29.833 -5.83301 41.5 -17.5s17.5 -25.5 17.5 -41.5c0 -16.667 -5.83301 -30.834 -17.5 -42.501
s-25.5 -17.5 -41.5 -17.5c-16.667 0 -30.834 5.83301 -42.501 17.5z" />
    <glyph glyph-name="ldot" unicode="&#x140;" horiz-adv-x="253" 
d="M144.5 60.5c6.33301 -6.33301 13.832 -9.50195 22.499 -9.50195c13.333 0 23 5.66699 29 17l44 -33c-5.33301 -11.333 -14.666 -20.833 -27.999 -28.5s-28.333 -11.5 -45 -11.5c-26.667 0 -48.667 8.33301 -66 25s-26 38.334 -26 65.001v641h60v-642
c0 -9.33301 3.16699 -17.166 9.5 -23.499zM208.499 402.498c-11.667 11.667 -17.5 25.834 -17.5 42.501c0 16 5.83301 29.833 17.5 41.5s25.834 17.5 42.501 17.5c16 0 29.833 -5.83301 41.5 -17.5s17.5 -25.5 17.5 -41.5c0 -16.667 -5.83301 -30.834 -17.5 -42.501
s-25.5 -17.5 -41.5 -17.5c-16.667 0 -30.834 5.83301 -42.501 17.5z" />
    <glyph glyph-name="Lslash" unicode="&#x141;" horiz-adv-x="540" 
d="M160 56h347v-56h-407v294l-72 -42l-28 50l100 58v324h60v-289l70 40l28 -50l-98 -57v-272z" />
    <glyph glyph-name="lslash" unicode="&#x142;" horiz-adv-x="278" 
d="M258 35c-5.33301 -11.333 -14.667 -20.835 -28 -28.502s-28.333 -11.5 -45 -11.5c-26.667 0 -48.667 8.33301 -66 25s-26 38.334 -26 65.001v272l-65 -40v63l65 41v305h60v-268l65 41v-64l-65 -40v-311c0 -9.33301 3.16699 -17.166 9.5 -23.499s13.833 -9.5 22.5 -9.5
c13.333 0 23 5.66699 29 17z" />
    <glyph glyph-name="Nacute" unicode="&#x143;" horiz-adv-x="781" 
d="M63 -2c-14 7.33301 -25.334 17.334 -34.001 30.001l47 32c3.33301 -5.33301 8 -9.33301 14 -12s11.667 -4 17 -4c8.66699 0 16.334 3.66699 23.001 11s10 15.666 10 24.999v604h38l111 -125l320 -408l14 -22l-3 554h62v-683h-21l-451 563l-12 21l4 -505
c0 -26.667 -9.33301 -48.667 -28 -66s-40.667 -26 -66 -26c-16 0 -31 3.66699 -45 11zM393.999 774.001l169 110l31 -52l-181 -94z" />
    <glyph glyph-name="nacute" unicode="&#x144;" horiz-adv-x="592" 
d="M579 35c-5.33301 -11.333 -14.6699 -20.8379 -28.0029 -28.5049s-28.333 -11.5 -45 -11.5c-26.667 0 -48.667 8.33301 -66 25s-26 38.334 -26 65.001v251c0 80 -36 120 -108 120c-34 0 -63 -8.5 -87 -25.5s-48.667 -42.5 -74 -76.5v-354h-60v351
c0 52.667 -14 91.334 -42 116.001l40 40c12 -7.33301 23.5 -18.666 34.5 -33.999s18.833 -32 23.5 -50c22.667 30.667 47.834 52.834 75.501 66.501s59.167 20.5 94.5 20.5c48.667 0 87.334 -12.5 116.001 -37.5s44.334 -61.833 47.001 -110.5v-278
c0 -9.33301 3.16699 -17.166 9.5 -23.499s13.833 -9.5 22.5 -9.5c13.333 0 23 5.66699 29 17zM277.996 596.995l120 161l48 -38l-138 -151z" />
    <glyph glyph-name="uni0145" unicode="&#x145;" horiz-adv-x="781" 
d="M63 -2c-14 7.33301 -25.334 17.334 -34.001 30.001l47 32c3.33301 -5.33301 8 -9.33301 14 -12s11.667 -4 17 -4c8.66699 0 16.334 3.66699 23.001 11s10 15.666 10 24.999v604h38l111 -125l320 -408l14 -22l-3 554h62v-683h-21l-451 563l-12 21l4 -505
c0 -26.667 -9.33301 -48.667 -28 -66s-40.667 -26 -66 -26c-16 0 -31 3.66699 -45 11zM386.999 -77.999h64l-50 -207h-54z" />
    <glyph glyph-name="uni0146" unicode="&#x146;" horiz-adv-x="592" 
d="M579 35c-5.33301 -11.333 -14.6699 -20.8379 -28.0029 -28.5049s-28.333 -11.5 -45 -11.5c-26.667 0 -48.667 8.33301 -66 25s-26 38.334 -26 65.001v251c0 80 -36 120 -108 120c-34 0 -63 -8.5 -87 -25.5s-48.667 -42.5 -74 -76.5v-354h-60v351
c0 52.667 -14 91.334 -42 116.001l40 40c12 -7.33301 23.5 -18.666 34.5 -33.999s18.833 -32 23.5 -50c22.667 30.667 47.834 52.834 75.501 66.501s59.167 20.5 94.5 20.5c48.667 0 87.334 -12.5 116.001 -37.5s44.334 -61.833 47.001 -110.5v-278
c0 -9.33301 3.16699 -17.166 9.5 -23.499s13.833 -9.5 22.5 -9.5c13.333 0 23 5.66699 29 17zM256.996 -78.0049h64l-50 -207h-54z" />
    <glyph glyph-name="Ncaron" unicode="&#x147;" horiz-adv-x="781" 
d="M63 -2c-14 7.33301 -25.334 17.334 -34.001 30.001l47 32c3.33301 -5.33301 8 -9.33301 14 -12s11.667 -4 17 -4c8.66699 0 16.334 3.66699 23.001 11s10 15.666 10 24.999v604h38l111 -125l320 -408l14 -22l-3 554h62v-683h-21l-451 563l-12 21l4 -505
c0 -26.667 -9.33301 -48.667 -28 -66s-40.667 -26 -66 -26c-16 0 -31 3.66699 -45 11zM339.999 855.001l81 -69l80 69h74l-130 -122h-49l-127 122h71z" />
    <glyph glyph-name="ncaron" unicode="&#x148;" horiz-adv-x="592" 
d="M579 35c-5.33301 -11.333 -14.6699 -20.8379 -28.0029 -28.5049s-28.333 -11.5 -45 -11.5c-26.667 0 -48.667 8.33301 -66 25s-26 38.334 -26 65.001v251c0 80 -36 120 -108 120c-34 0 -63 -8.5 -87 -25.5s-48.667 -42.5 -74 -76.5v-354h-60v351
c0 52.667 -14 91.334 -42 116.001l40 40c12 -7.33301 23.5 -18.666 34.5 -33.999s18.833 -32 23.5 -50c22.667 30.667 47.834 52.834 75.501 66.501s59.167 20.5 94.5 20.5c48.667 0 87.334 -12.5 116.001 -37.5s44.334 -61.833 47.001 -110.5v-278
c0 -9.33301 3.16699 -17.166 9.5 -23.499s13.833 -9.5 22.5 -9.5c13.333 0 23 5.66699 29 17zM153.996 714.995h67l81 -89l80 89h68l-124 -142h-49z" />
    <glyph glyph-name="Eng" unicode="&#x14a;" horiz-adv-x="781" 
d="M682 683v-741c0 -25.333 -8.83301 -46.666 -26.5 -63.999s-40.5 -26 -68.5 -26c-31.333 0 -56 13.333 -74 40l46 30c7.33301 -10 16.666 -15 27.999 -15c10.667 0 19.167 3.33301 25.5 10s9.5 15 9.5 25v107l-412 514l-12 21l4 -505c0 -26.667 -9.33301 -48.667 -28 -66
s-40.667 -26 -66 -26c-16 0 -31 3.66699 -45 11s-25.333 17.333 -34 30l47 32c3.33301 -5.33301 8 -9.33301 14 -12s11.667 -4 17 -4c8.66699 0 16.334 3.66699 23.001 11s10 15.666 10 24.999v604h38l111 -125l320 -408l13 -20v46h1l-3 506h62z" />
    <glyph glyph-name="eng" unicode="&#x14b;" horiz-adv-x="544" 
d="M135 413c23.333 33.333 49.502 57.501 78.502 72.501s61.5 22.5 97.5 22.5c101.333 0 155 -48.667 161 -146v-387c0 -24.667 -8.5 -45.834 -25.5 -63.501s-38.5 -26.5 -64.5 -26.5c-30.667 0 -55.334 13.333 -74.001 40l45 30c8 -10 17.333 -15 28 -15
c9.33301 0 17.666 3.16699 24.999 9.5s11 14.833 11 25.5v361c0 41.333 -9 71.666 -27 90.999s-46 29 -84 29c-34.667 0 -64.5 -8.5 -89.5 -25.5s-50.167 -42.167 -75.5 -75.5v-355h-55v353c0 52.667 -13.333 92.334 -40 119.001l34 33c28.667 -20 47 -50.667 55 -92z" />
    <glyph glyph-name="Omacron" unicode="&#x14c;" horiz-adv-x="798" 
d="M226.5 28.5c-52.333 30.333 -93.668 72 -124.001 125s-45.5 111.833 -45.5 176.5v19c0 65.333 15 124.833 45 178.5s71 95.834 123 126.501s109.667 46 173 46c64 0 122 -15.333 174 -46s93 -72.834 123 -126.501s45 -113.167 45 -178.5v-19
c0 -66 -14.667 -125.333 -44 -178s-69.666 -94 -120.999 -124s-109 -45 -173 -45c-64.667 0 -123.167 15.167 -175.5 45.5zM541.998 77c42.667 25.333 76.333 60.166 101 104.499s37 93.833 37 148.5v19c0 55.333 -12.5 105.5 -37.5 150.5s-59 80.333 -102 106
s-90.833 38.5 -143.5 38.5c-52 0 -99.333 -13 -142 -39s-76.334 -61.5 -101.001 -106.5s-37 -94.833 -37 -149.5v-19c0 -54.667 12.333 -104.167 37 -148.5s58.5 -79.166 101.5 -104.499s90.833 -38 143.5 -38s100.334 12.667 143.001 38zM248.997 799h296v-54h-296v54z" />
    <glyph glyph-name="omacron" unicode="&#x14d;" horiz-adv-x="581" 
d="M163.5 23c-37 22 -65.833 52.665 -86.5 91.998s-31 84 -31 134s10.5 94.833 31.5 134.5s50 70.667 87 93s79.167 33.5 126.5 33.5c46.667 0 88.5 -11.167 125.5 -33.5s66 -53.166 87 -92.499s31.5 -84 31.5 -134s-10.5 -94.667 -31.5 -134s-50 -70.166 -87 -92.499
s-79.167 -33.5 -126.5 -33.5s-89.5 11 -126.5 33zM424.5 100.998c33.667 38 50.5 87.667 50.5 149c0 40.667 -7.66699 76.5 -23 107.5s-37 55.167 -65 72.5s-60 26 -96 26c-36.667 0 -69 -8.66699 -97 -26s-49.667 -41.833 -65 -73.5s-23 -67.5 -23 -107.5
s7.66699 -75.5 23 -106.5s37 -55.167 65 -72.5s60.333 -26 97 -26c55.333 0 99.833 19 133.5 57zM143 629.998h296v-54h-296v54z" />
    <glyph glyph-name="Obreve" unicode="&#x14e;" horiz-adv-x="798" 
d="M226.5 28.5c-52.333 30.333 -93.668 72 -124.001 125s-45.5 111.833 -45.5 176.5v19c0 65.333 15 124.833 45 178.5s71 95.834 123 126.501s109.667 46 173 46c64 0 122 -15.333 174 -46s93 -72.834 123 -126.501s45 -113.167 45 -178.5v-19
c0 -66 -14.667 -125.333 -44 -178s-69.666 -94 -120.999 -124s-109 -45 -173 -45c-64.667 0 -123.167 15.167 -175.5 45.5zM541.998 77c42.667 25.333 76.333 60.166 101 104.499s37 93.833 37 148.5v19c0 55.333 -12.5 105.5 -37.5 150.5s-59 80.333 -102 106
s-90.833 38.5 -143.5 38.5c-52 0 -99.333 -13 -142 -39s-76.334 -61.5 -101.001 -106.5s-37 -94.833 -37 -149.5v-19c0 -54.667 12.333 -104.167 37 -148.5s58.5 -79.166 101.5 -104.499s90.833 -38 143.5 -38s100.334 12.667 143.001 38zM296.497 771
c-23 23.333 -35.168 54 -36.501 92h55c1.33301 -22.667 8.83301 -41 22.5 -55s33.834 -21 60.501 -21c26 0 45.5 6.83301 58.5 20.5s19.833 32.167 20.5 55.5h55c-1.33301 -40 -13.5 -71.167 -36.5 -93.5s-55.833 -33.5 -98.5 -33.5c-44 0 -77.5 11.667 -100.5 35z" />
    <glyph glyph-name="obreve" unicode="&#x14f;" horiz-adv-x="581" 
d="M163.5 23c-37 22 -65.833 52.665 -86.5 91.998s-31 84 -31 134s10.5 94.833 31.5 134.5s50 70.667 87 93s79.167 33.5 126.5 33.5c46.667 0 88.5 -11.167 125.5 -33.5s66 -53.166 87 -92.499s31.5 -84 31.5 -134s-10.5 -94.667 -31.5 -134s-50 -70.166 -87 -92.499
s-79.167 -33.5 -126.5 -33.5s-89.5 11 -126.5 33zM424.5 100.998c33.667 38 50.5 87.667 50.5 149c0 40.667 -7.66699 76.5 -23 107.5s-37 55.167 -65 72.5s-60 26 -96 26c-36.667 0 -69 -8.66699 -97 -26s-49.667 -41.833 -65 -73.5s-23 -67.5 -23 -107.5
s7.66699 -75.5 23 -106.5s37 -55.167 65 -72.5s60.333 -26 97 -26c55.333 0 99.833 19 133.5 57zM190.5 601.998c-23.667 24.667 -36.165 58 -37.498 100h58c3.33301 -57.333 31 -86 83 -86c51.333 0 77.666 28.667 78.999 86h58
c-1.33301 -44.667 -13.833 -78.667 -37.5 -102s-57.167 -35 -100.5 -35c-44.667 0 -78.834 12.333 -102.501 37z" />
    <glyph glyph-name="Ohungarumlaut" unicode="&#x150;" horiz-adv-x="798" 
d="M226.5 28.5c-52.333 30.333 -93.668 72 -124.001 125s-45.5 111.833 -45.5 176.5v19c0 65.333 15 124.833 45 178.5s71 95.834 123 126.501s109.667 46 173 46c64 0 122 -15.333 174 -46s93 -72.834 123 -126.501s45 -113.167 45 -178.5v-19
c0 -66 -14.667 -125.333 -44 -178s-69.666 -94 -120.999 -124s-109 -45 -173 -45c-64.667 0 -123.167 15.167 -175.5 45.5zM541.998 77c42.667 25.333 76.333 60.166 101 104.499s37 93.833 37 148.5v19c0 55.333 -12.5 105.5 -37.5 150.5s-59 80.333 -102 106
s-90.833 38.5 -143.5 38.5c-52 0 -99.333 -13 -142 -39s-76.334 -61.5 -101.001 -106.5s-37 -94.833 -37 -149.5v-19c0 -54.667 12.333 -104.167 37 -148.5s58.5 -79.166 101.5 -104.499s90.833 -38 143.5 -38s100.334 12.667 143.001 38zM284.997 773l169 110l31 -52
l-181 -94zM472.997 774l169 110l31 -52l-181 -94z" />
    <glyph glyph-name="ohungarumlaut" unicode="&#x151;" horiz-adv-x="581" 
d="M163.5 23c-37 22 -65.833 52.665 -86.5 91.998s-31 84 -31 134s10.5 94.833 31.5 134.5s50 70.667 87 93s79.167 33.5 126.5 33.5c46.667 0 88.5 -11.167 125.5 -33.5s66 -53.166 87 -92.499s31.5 -84 31.5 -134s-10.5 -94.667 -31.5 -134s-50 -70.166 -87 -92.499
s-79.167 -33.5 -126.5 -33.5s-89.5 11 -126.5 33zM424.5 100.998c33.667 38 50.5 87.667 50.5 149c0 40.667 -7.66699 76.5 -23 107.5s-37 55.167 -65 72.5s-60 26 -96 26c-36.667 0 -69 -8.66699 -97 -26s-49.667 -41.833 -65 -73.5s-23 -67.5 -23 -107.5
s7.66699 -75.5 23 -106.5s37 -55.167 65 -72.5s60.333 -26 97 -26c55.333 0 99.833 19 133.5 57zM174 595.998l120 161l48 -38l-138 -151zM362 596.998l120 161l48 -38l-138 -151z" />
    <glyph glyph-name="OE" unicode="&#x152;" horiz-adv-x="1213" 
d="M1161 56l-0.00292969 -56.001h-459v163c-28 -55.333 -68.5 -99.166 -121.5 -131.499s-112.5 -48.5 -178.5 -48.5c-64.667 0 -123.167 15.167 -175.5 45.5s-93.666 72 -123.999 125s-45.5 111.833 -45.5 176.5v19c0 65.333 15 124.833 45 178.5s71 95.834 123 126.501
s109.667 46 173 46c66.667 0 126.834 -16.833 180.501 -50.5s94.834 -78.834 123.501 -135.501v170h439v-56h-379v-238h279v-56h-279v-278h399zM679.997 348.999c0 55.333 -12.501 105.5 -37.501 150.5s-59 80.333 -102 106s-90.833 38.5 -143.5 38.5
c-52 0 -99.333 -13 -142 -39s-76.334 -61.5 -101.001 -106.5s-37 -94.833 -37 -149.5v-19c0 -54.667 12.333 -104.167 37 -148.5s58.5 -79.166 101.5 -104.499s90.833 -38 143.5 -38s100.334 12.667 143.001 38s76.334 60.166 101.001 104.499s37 93.833 37 148.5v19z" />
    <glyph glyph-name="oe" unicode="&#x153;" horiz-adv-x="922" 
d="M161 23c-38 22 -67.499 52.666 -88.499 91.999s-31.5 83.666 -31.5 132.999s10.5 93.833 31.5 133.5s50.5 70.834 88.5 93.501s81.667 34 131 34s92.5 -11.833 129.5 -35.5s64.833 -57.167 83.5 -100.5c16.667 42.667 41.167 76 73.5 100s71.166 36 116.499 36
c32.667 0 62.5 -6.16699 89.5 -18.5s48.5 -30.166 64.5 -53.499s24 -51 24 -83c0 -52.667 -21.167 -91.5 -63.5 -116.5s-94.833 -37.5 -157.5 -37.5h-114c12 -104 65.333 -156 160 -156c31.333 0 59.333 4 84 12s50 20.667 76 38l27 -45c-55.333 -39.333 -117 -59 -185 -59
c-50.667 0 -92.667 11 -126 33s-57.666 53.667 -72.999 95c-20 -42.667 -48.333 -74.667 -85 -96s-78.334 -32 -125.001 -32c-48.667 0 -92 11 -130 33zM813.001 355.999c0 33.333 -11.3311 58.167 -33.998 74.5s-49.667 24.5 -81 24.5c-34 0 -63.333 -9.66699 -88 -29
s-43.334 -44.5 -56.001 -75.5s-19.334 -63.167 -20.001 -96.5h118c107.333 0 161 34 161 102zM390.503 72c28.333 18 50.167 42.832 65.5 74.499s23 67.167 23 106.5c0 60 -17.167 108.5 -51.5 145.5s-79.833 55.5 -136.5 55.5c-38 0 -71.5 -8.66699 -100.5 -26
s-51.167 -41.333 -66.5 -72s-23 -65.667 -23 -105s7.66699 -74.666 23 -105.999s37.333 -55.833 66 -73.5s62 -26.5 100 -26.5c38.667 0 72.167 9 100.5 27z" />
    <glyph glyph-name="Racute" unicode="&#x154;" horiz-adv-x="705" 
d="M120.5 625.5c-6.33301 -1.66699 -11.835 -4.83008 -16.502 -9.49707c-4 -4 -7.5 -9.5 -10.5 -16.5s-4.5 -13.5 -4.5 -19.5l-55 1c1.33301 31.333 11.333 56.333 30 75c10 9.33301 21.833 16.166 35.5 20.499s30.834 6.83301 51.501 7.5h223c29.333 0 56 -5.66699 80 -17
c32.667 -16 58.834 -41.167 78.501 -75.5s29.5 -72.5 29.5 -114.5c0 -34.667 -6.83301 -66.167 -20.5 -94.5s-32.667 -50.833 -57 -67.5s-51.833 -25 -82.5 -25l-25 -1l13 -4c5.33301 -1.33301 12 -5 20 -11s14 -11.667 18 -17l145 -196c8 -10.667 16.667 -16 26 -16
c12.667 0 22.667 6 30 18l47 -34c-8 -12 -18.833 -21.5 -32.5 -28.5s-28.167 -10.5 -43.5 -10.5c-30 0 -54.667 13 -74 39l-119 164c-18.667 25.333 -37.167 44.666 -55.5 57.999s-44.833 21.666 -79.5 24.999v56h87c44 0 78.833 13 104.5 39s38.5 61.333 38.5 106
s-12.333 81 -37 109s-56.334 42 -95.001 42h-160v-628h-60v628c-13.333 0 -23.166 -0.833008 -29.499 -2.5zM282.998 774.004l169 110l31 -52l-181 -94z" />
    <glyph glyph-name="racute" unicode="&#x155;" horiz-adv-x="367" 
d="M343 501l-0.00292969 -56c-19.333 4.66699 -38.666 7 -57.999 7c-34 0 -61.667 -8.33301 -83 -25s-40.333 -40.334 -57 -71.001v-356h-60v350c0 52.667 -14 91.334 -42 116.001l40 40c12 -7.33301 23.333 -18.333 34 -33s18.334 -31 23.001 -49
c18.667 30.667 37.334 51.667 56.001 63c23.333 15.333 52.333 23 87 23c20 0 40 -3 60 -9zM195.997 593l120 161l48 -38l-138 -151z" />
    <glyph glyph-name="uni0156" unicode="&#x156;" horiz-adv-x="705" 
d="M120.5 625.5c-6.33301 -1.66699 -11.835 -4.83008 -16.502 -9.49707c-4 -4 -7.5 -9.5 -10.5 -16.5s-4.5 -13.5 -4.5 -19.5l-55 1c1.33301 31.333 11.333 56.333 30 75c10 9.33301 21.833 16.166 35.5 20.499s30.834 6.83301 51.501 7.5h223c29.333 0 56 -5.66699 80 -17
c32.667 -16 58.834 -41.167 78.501 -75.5s29.5 -72.5 29.5 -114.5c0 -34.667 -6.83301 -66.167 -20.5 -94.5s-32.667 -50.833 -57 -67.5s-51.833 -25 -82.5 -25l-25 -1l13 -4c5.33301 -1.33301 12 -5 20 -11s14 -11.667 18 -17l145 -196c8 -10.667 16.667 -16 26 -16
c12.667 0 22.667 6 30 18l47 -34c-8 -12 -18.833 -21.5 -32.5 -28.5s-28.167 -10.5 -43.5 -10.5c-30 0 -54.667 13 -74 39l-119 164c-18.667 25.333 -37.167 44.666 -55.5 57.999s-44.833 21.666 -79.5 24.999v56h87c44 0 78.833 13 104.5 39s38.5 61.333 38.5 106
s-12.333 81 -37 109s-56.334 42 -95.001 42h-160v-628h-60v628c-13.333 0 -23.166 -0.833008 -29.499 -2.5zM297.998 -77.9961h64l-50 -207h-54z" />
    <glyph glyph-name="uni0157" unicode="&#x157;" horiz-adv-x="367" 
d="M343 501l-0.00292969 -56c-19.333 4.66699 -38.666 7 -57.999 7c-34 0 -61.667 -8.33301 -83 -25s-40.333 -40.334 -57 -71.001v-356h-60v350c0 52.667 -14 91.334 -42 116.001l40 40c12 -7.33301 23.333 -18.333 34 -33s18.334 -31 23.001 -49
c18.667 30.667 37.334 51.667 56.001 63c23.333 15.333 52.333 23 87 23c20 0 40 -3 60 -9zM79.9971 -76h64l-50 -207h-54z" />
    <glyph glyph-name="Rcaron" unicode="&#x158;" horiz-adv-x="705" 
d="M120.5 625.5c-6.33301 -1.66699 -11.835 -4.83008 -16.502 -9.49707c-4 -4 -7.5 -9.5 -10.5 -16.5s-4.5 -13.5 -4.5 -19.5l-55 1c1.33301 31.333 11.333 56.333 30 75c10 9.33301 21.833 16.166 35.5 20.499s30.834 6.83301 51.501 7.5h223c29.333 0 56 -5.66699 80 -17
c32.667 -16 58.834 -41.167 78.501 -75.5s29.5 -72.5 29.5 -114.5c0 -34.667 -6.83301 -66.167 -20.5 -94.5s-32.667 -50.833 -57 -67.5s-51.833 -25 -82.5 -25l-25 -1l13 -4c5.33301 -1.33301 12 -5 20 -11s14 -11.667 18 -17l145 -196c8 -10.667 16.667 -16 26 -16
c12.667 0 22.667 6 30 18l47 -34c-8 -12 -18.833 -21.5 -32.5 -28.5s-28.167 -10.5 -43.5 -10.5c-30 0 -54.667 13 -74 39l-119 164c-18.667 25.333 -37.167 44.666 -55.5 57.999s-44.833 21.666 -79.5 24.999v56h87c44 0 78.833 13 104.5 39s38.5 61.333 38.5 106
s-12.333 81 -37 109s-56.334 42 -95.001 42h-160v-628h-60v628c-13.333 0 -23.166 -0.833008 -29.499 -2.5zM228.998 855.004l81 -69l80 69h74l-130 -122h-49l-127 122h71z" />
    <glyph glyph-name="rcaron" unicode="&#x159;" horiz-adv-x="367" 
d="M343 501l-0.00292969 -56c-19.333 4.66699 -38.666 7 -57.999 7c-34 0 -61.667 -8.33301 -83 -25s-40.333 -40.334 -57 -71.001v-356h-60v350c0 52.667 -14 91.334 -42 116.001l40 40c12 -7.33301 23.333 -18.333 34 -33s18.334 -31 23.001 -49
c18.667 30.667 37.334 51.667 56.001 63c23.333 15.333 52.333 23 87 23c20 0 40 -3 60 -9zM71.9971 711h67l81 -89l80 89h68l-124 -142h-49z" />
    <glyph glyph-name="Sacute" unicode="&#x15a;" horiz-adv-x="560" 
d="M172.5 1.5c-35 15 -64.832 35.6699 -89.499 62.0029s-41 55.833 -49 88.5l50 21c10.667 -40.667 34.5 -74 71.5 -100s79.167 -39 126.5 -39c32 0 61 7 87 21s46.5 33.167 61.5 57.5s22.5 51.166 22.5 80.499c0 23.333 -5 43.5 -15 60.5s-27 33.333 -51 49
s-58.333 32.834 -103 51.501c-65.333 27.333 -111.666 55.166 -138.999 83.499s-41 62.5 -41 102.5c0 31.333 8 59.666 24 84.999s38.167 45.166 66.5 59.499s60.166 21.5 95.499 21.5c30.667 0 58.334 -5.16699 83.001 -15.5s44 -24.666 58 -42.999s21 -38.833 21 -61.5
c0 -26.667 -9.83301 -48.667 -29.5 -66s-43.834 -24.333 -72.501 -21l4 52c10.667 -1.33301 20 1.5 28 8.5s12 16.167 12 27.5c0 17.333 -10.333 32.333 -31 45s-44.667 19 -72 19c-22.667 0 -43.834 -4.83301 -63.501 -14.5s-35.167 -22.834 -46.5 -39.501
s-17 -34.667 -17 -54c0 -28 11.833 -52.833 35.5 -74.5s63.5 -44.5 119.5 -68.5c70 -30 119.833 -60.833 149.5 -92.5s44.5 -69.5 44.5 -113.5c0 -39.333 -10.333 -75.5 -31 -108.5s-48.667 -59 -84 -78s-74 -28.5 -116 -28.5c-38 0 -74.5 7.5 -109.5 22.5zM260.001 774.003
l169 110l31 -52l-181 -94z" />
    <glyph glyph-name="sacute" unicode="&#x15b;" horiz-adv-x="425" 
d="M30 66l32.999 39.998c25.333 -20.667 50.5 -36.5 75.5 -47.5s51.833 -16.5 80.5 -16.5c36 0 64.167 8.5 84.5 25.5s30.5 40.167 30.5 69.5c0 18.667 -4.5 33.834 -13.5 45.501s-21 21.167 -36 28.5s-41.833 19 -80.5 35c-35.333 14.667 -62.666 27.334 -81.999 38.001
s-34.666 23.834 -45.999 39.501s-17 35.5 -17 59.5c0 39.333 14 70.833 42 94.5s65.333 35.5 112 35.5c24 0 47.833 -3.33301 71.5 -10s43.834 -16.334 60.501 -29.001l-25 -43c-30.667 18.667 -65.334 28 -104.001 28c-30.667 0 -54.334 -6 -71.001 -18s-25 -29 -25 -51
c0 -16.667 4.5 -30.334 13.5 -41.001s20.667 -19.5 35 -26.5s38.166 -17.167 71.499 -30.5c38 -15.333 67.5 -29.166 88.5 -41.499s37.333 -27.333 49 -45s17.5 -39.5 17.5 -65.5c0 -46 -16.167 -82.833 -48.5 -110.5s-75.166 -41.5 -128.499 -41.5
c-67.333 0 -130 26 -188 78zM185.999 605.998l120 161l48 -38l-138 -151z" />
    <glyph glyph-name="Scircumflex" unicode="&#x15c;" horiz-adv-x="560" 
d="M172.5 1.5c-35 15 -64.832 35.6699 -89.499 62.0029s-41 55.833 -49 88.5l50 21c10.667 -40.667 34.5 -74 71.5 -100s79.167 -39 126.5 -39c32 0 61 7 87 21s46.5 33.167 61.5 57.5s22.5 51.166 22.5 80.499c0 23.333 -5 43.5 -15 60.5s-27 33.333 -51 49
s-58.333 32.834 -103 51.501c-65.333 27.333 -111.666 55.166 -138.999 83.499s-41 62.5 -41 102.5c0 31.333 8 59.666 24 84.999s38.167 45.166 66.5 59.499s60.166 21.5 95.499 21.5c30.667 0 58.334 -5.16699 83.001 -15.5s44 -24.666 58 -42.999s21 -38.833 21 -61.5
c0 -26.667 -9.83301 -48.667 -29.5 -66s-43.834 -24.333 -72.501 -21l4 52c10.667 -1.33301 20 1.5 28 8.5s12 16.167 12 27.5c0 17.333 -10.333 32.333 -31 45s-44.667 19 -72 19c-22.667 0 -43.834 -4.83301 -63.501 -14.5s-35.167 -22.834 -46.5 -39.501
s-17 -34.667 -17 -54c0 -28 11.833 -52.833 35.5 -74.5s63.5 -44.5 119.5 -68.5c70 -30 119.833 -60.833 149.5 -92.5s44.5 -69.5 44.5 -113.5c0 -39.333 -10.333 -75.5 -31 -108.5s-48.667 -59 -84 -78s-74 -28.5 -116 -28.5c-38 0 -74.5 7.5 -109.5 22.5zM262.001 855.003
h49l130 -122h-74l-80 69l-81 -69h-71z" />
    <glyph glyph-name="scircumflex" unicode="&#x15d;" horiz-adv-x="425" 
d="M30 66l32.999 39.998c25.333 -20.667 50.5 -36.5 75.5 -47.5s51.833 -16.5 80.5 -16.5c36 0 64.167 8.5 84.5 25.5s30.5 40.167 30.5 69.5c0 18.667 -4.5 33.834 -13.5 45.501s-21 21.167 -36 28.5s-41.833 19 -80.5 35c-35.333 14.667 -62.666 27.334 -81.999 38.001
s-34.666 23.834 -45.999 39.501s-17 35.5 -17 59.5c0 39.333 14 70.833 42 94.5s65.333 35.5 112 35.5c24 0 47.833 -3.33301 71.5 -10s43.834 -16.334 60.501 -29.001l-25 -43c-30.667 18.667 -65.334 28 -104.001 28c-30.667 0 -54.334 -6 -71.001 -18s-25 -29 -25 -51
c0 -16.667 4.5 -30.334 13.5 -41.001s20.667 -19.5 35 -26.5s38.166 -17.167 71.499 -30.5c38 -15.333 67.5 -29.166 88.5 -41.499s37.333 -27.333 49 -45s17.5 -39.5 17.5 -65.5c0 -46 -16.167 -82.833 -48.5 -110.5s-75.166 -41.5 -128.499 -41.5
c-67.333 0 -130 26 -188 78zM185.999 719.998h49l124 -142h-68l-80 89l-81 -89h-67z" />
    <glyph glyph-name="Scedilla" unicode="&#x15e;" horiz-adv-x="560" 
d="M172.5 1.5c-35 15 -64.832 35.6699 -89.499 62.0029s-41 55.833 -49 88.5l50 21c10.667 -40.667 34.5 -74 71.5 -100s79.167 -39 126.5 -39c32 0 61 7 87 21s46.5 33.167 61.5 57.5s22.5 51.166 22.5 80.499c0 23.333 -5 43.5 -15 60.5s-27 33.333 -51 49
s-58.333 32.834 -103 51.501c-65.333 27.333 -111.666 55.166 -138.999 83.499s-41 62.5 -41 102.5c0 31.333 8 59.666 24 84.999s38.167 45.166 66.5 59.499s60.166 21.5 95.499 21.5c30.667 0 58.334 -5.16699 83.001 -15.5s44 -24.666 58 -42.999s21 -38.833 21 -61.5
c0 -26.667 -9.83301 -48.667 -29.5 -66s-43.834 -24.333 -72.501 -21l4 52c10.667 -1.33301 20 1.5 28 8.5s12 16.167 12 27.5c0 17.333 -10.333 32.333 -31 45s-44.667 19 -72 19c-22.667 0 -43.834 -4.83301 -63.501 -14.5s-35.167 -22.834 -46.5 -39.501
s-17 -34.667 -17 -54c0 -28 11.833 -52.833 35.5 -74.5s63.5 -44.5 119.5 -68.5c70 -30 119.833 -60.833 149.5 -92.5s44.5 -69.5 44.5 -113.5c0 -39.333 -10.333 -75.5 -31 -108.5s-48.667 -59 -84 -78s-74 -28.5 -116 -28.5c-38 0 -74.5 7.5 -109.5 22.5z
M311.001 -194.997c8.66699 10.667 12.999 23 12.999 37c0 13.333 -4 23.5 -12 30.5s-20 10.5 -36 10.5h-31l10 96h61l-10 -50c23.333 -2.66699 41 -12.5 53 -29.5s18 -36.5 18 -58.5c0 -18 -4.16699 -35.5 -12.5 -52.5s-20.833 -30.5 -37.5 -40.5s-37 -14 -61 -12l10 53
c14.667 0 26.334 5.33301 35.001 16z" />
    <glyph glyph-name="scedilla" unicode="&#x15f;" horiz-adv-x="425" 
d="M354.5 37c-27 -26.667 -63.501 -42.668 -109.501 -48.001l-6 -28c23.333 -2.66699 41 -12.5 53 -29.5s18 -36.5 18 -58.5c0 -18 -4.16699 -35.5 -12.5 -52.5s-20.833 -30.5 -37.5 -40.5s-37 -14 -61 -12l10 53c14.667 0 26.334 5.33301 35.001 16s13 23 13 37
c0 13.333 -4 23.5 -12 30.5s-20 10.5 -36 10.5h-31l8 75c-56 7.33301 -108 32.666 -156 75.999l33 40c25.333 -20.667 50.5 -36.5 75.5 -47.5s51.833 -16.5 80.5 -16.5c36 0 64.167 8.5 84.5 25.5s30.5 40.167 30.5 69.5c0 18.667 -4.5 33.834 -13.5 45.501
s-21 21.167 -36 28.5s-41.833 19 -80.5 35c-35.333 14.667 -62.666 27.334 -81.999 38.001s-34.666 23.834 -45.999 39.501s-17 35.5 -17 59.5c0 39.333 14 70.833 42 94.5s65.333 35.5 112 35.5c24 0 47.833 -3.33301 71.5 -10s43.834 -16.334 60.501 -29.001l-25 -43
c-30.667 18.667 -65.334 28 -104.001 28c-30.667 0 -54.334 -6 -71.001 -18s-25 -29 -25 -51c0 -16.667 4.5 -30.334 13.5 -41.001s20.667 -19.5 35 -26.5s38.166 -17.167 71.499 -30.5c38 -15.333 67.5 -29.166 88.5 -41.499s37.333 -27.333 49 -45s17.5 -39.5 17.5 -65.5
c0 -42 -13.5 -76.333 -40.5 -103z" />
    <glyph glyph-name="Scaron" unicode="&#x160;" horiz-adv-x="560" 
d="M172.5 1.5c-35 15 -64.832 35.6699 -89.499 62.0029s-41 55.833 -49 88.5l50 21c10.667 -40.667 34.5 -74 71.5 -100s79.167 -39 126.5 -39c32 0 61 7 87 21s46.5 33.167 61.5 57.5s22.5 51.166 22.5 80.499c0 23.333 -5 43.5 -15 60.5s-27 33.333 -51 49
s-58.333 32.834 -103 51.501c-65.333 27.333 -111.666 55.166 -138.999 83.499s-41 62.5 -41 102.5c0 31.333 8 59.666 24 84.999s38.167 45.166 66.5 59.499s60.166 21.5 95.499 21.5c30.667 0 58.334 -5.16699 83.001 -15.5s44 -24.666 58 -42.999s21 -38.833 21 -61.5
c0 -26.667 -9.83301 -48.667 -29.5 -66s-43.834 -24.333 -72.501 -21l4 52c10.667 -1.33301 20 1.5 28 8.5s12 16.167 12 27.5c0 17.333 -10.333 32.333 -31 45s-44.667 19 -72 19c-22.667 0 -43.834 -4.83301 -63.501 -14.5s-35.167 -22.834 -46.5 -39.501
s-17 -34.667 -17 -54c0 -28 11.833 -52.833 35.5 -74.5s63.5 -44.5 119.5 -68.5c70 -30 119.833 -60.833 149.5 -92.5s44.5 -69.5 44.5 -113.5c0 -39.333 -10.333 -75.5 -31 -108.5s-48.667 -59 -84 -78s-74 -28.5 -116 -28.5c-38 0 -74.5 7.5 -109.5 22.5zM206.001 855.003
l81 -69l80 69h74l-130 -122h-49l-127 122h71z" />
    <glyph glyph-name="scaron" unicode="&#x161;" horiz-adv-x="425" 
d="M30 66l32.999 39.998c25.333 -20.667 50.5 -36.5 75.5 -47.5s51.833 -16.5 80.5 -16.5c36 0 64.167 8.5 84.5 25.5s30.5 40.167 30.5 69.5c0 18.667 -4.5 33.834 -13.5 45.501s-21 21.167 -36 28.5s-41.833 19 -80.5 35c-35.333 14.667 -62.666 27.334 -81.999 38.001
s-34.666 23.834 -45.999 39.501s-17 35.5 -17 59.5c0 39.333 14 70.833 42 94.5s65.333 35.5 112 35.5c24 0 47.833 -3.33301 71.5 -10s43.834 -16.334 60.501 -29.001l-25 -43c-30.667 18.667 -65.334 28 -104.001 28c-30.667 0 -54.334 -6 -71.001 -18s-25 -29 -25 -51
c0 -16.667 4.5 -30.334 13.5 -41.001s20.667 -19.5 35 -26.5s38.166 -17.167 71.499 -30.5c38 -15.333 67.5 -29.166 88.5 -41.499s37.333 -27.333 49 -45s17.5 -39.5 17.5 -65.5c0 -46 -16.167 -82.833 -48.5 -110.5s-75.166 -41.5 -128.499 -41.5
c-67.333 0 -130 26 -188 78zM61.999 723.998h67l81 -89l80 89h68l-124 -142h-49z" />
    <glyph glyph-name="uni0162" unicode="&#x162;" horiz-adv-x="607" 
d="M340 628l-0.000976562 -617h1l-1 -5v-6h-1l-8 -39c23.333 -2.66699 41 -12.5 53 -29.5s18 -36.5 18 -58.5c0 -18 -4.16699 -35.5 -12.5 -52.5s-20.833 -30.5 -37.5 -40.5s-37 -14 -61 -12l10 53c14.667 0 26.334 5.33301 35.001 16s13 23 13 37
c0 13.333 -4 23.5 -12 30.5s-20 10.5 -36 10.5h-31l10 96v617h-156c-10.667 0 -19 -3.5 -25 -10.5s-9 -14.833 -9 -23.5h-57c0 24.667 8.66699 45.667 26 63c18 18 38.667 27 62 27h453v-56h-234z" />
    <glyph glyph-name="uni0163" unicode="&#x163;" horiz-adv-x="356" 
d="M291.5 18c-17 -13.333 -37.168 -22 -60.501 -26l-6 -29c23.333 -2.66699 41 -12.5 53 -29.5s18 -36.5 18 -58.5c0 -18 -4.16699 -35.5 -12.5 -52.5s-20.833 -30.5 -37.5 -40.5s-37 -14 -61 -12l10 53c14.667 0 26.334 5.33301 35.001 16s13 23 13 37
c0 13.333 -4 23.5 -12 30.5s-20 10.5 -36 10.5h-31l8 75c-34.667 6 -60 21.667 -76 47s-24 60.333 -24 105v481h60v-127h157v-54h-157v-300c0 -66.667 24 -100 72 -100c38 0 67.333 20.333 88 61l45 -31c-13.333 -24 -28.5 -42.667 -45.5 -56z" />
    <glyph glyph-name="Tcaron" unicode="&#x164;" horiz-adv-x="607" 
d="M124 628c-10.667 0 -19 -3.5 -25 -10.5s-9 -14.833 -9 -23.5h-57c0 24.667 8.66699 45.667 26 63c18 18 38.667 27 62 27h453v-56h-234v-628h-60v628h-156zM229 855l81 -69l80 69h74l-130 -122h-49l-127 122h71z" />
    <glyph glyph-name="tcaron" unicode="&#x165;" horiz-adv-x="356" 
d="M104 28.5c-21.333 25.667 -32.002 64.167 -32.002 115.5v481h60v-127h157v-54h-157v-300c0 -66.667 24 -100 72 -100c38 0 67.333 20.333 88 61l45 -31c-15.333 -28 -33.666 -49 -54.999 -63s-47.333 -21 -78 -21c-45.333 0 -78.666 12.833 -99.999 38.5zM410.998 760
l56 -26l-101 -179l-35 20z" />
    <glyph glyph-name="Tbar" unicode="&#x166;" horiz-adv-x="607" 
d="M340 628v-249h119v-54h-119v-325h-60v325h-105v54h105v249h-156c-10.667 0 -19 -3.5 -25 -10.5s-9 -14.833 -9 -23.5h-57c0 24.667 8.66699 45.667 26 63c18 18 38.667 27 62 27h453v-56h-234z" />
    <glyph glyph-name="tbar" unicode="&#x167;" horiz-adv-x="356" 
d="M337 74c-15.333 -28 -33.668 -49 -55.001 -63s-47.333 -21 -78 -21c-45.333 0 -78.666 12.833 -99.999 38.5s-32 64.167 -32 115.5v140h-83v54h83v287h60v-127h157v-54h-157v-106h141v-54h-141v-140c0 -66.667 24 -100 72 -100c38 0 67.333 20.333 88 61z" />
    <glyph glyph-name="Utilde" unicode="&#x168;" horiz-adv-x="734" 
d="M255.5 27.5c-39 25 -68.667 58.4971 -89 100.497s-30.5 88.333 -30.5 139v328c0 13.333 -3.16699 24.333 -9.5 33s-15.166 13 -26.499 13c-16.667 0 -30.334 -8.66699 -41.001 -26l-45 32c7.33301 14 18.333 26 33 36s32 15 52 15c29.333 0 52.833 -9.66699 70.5 -29
s26.5 -44 26.5 -74v-328c0 -41.333 7.66699 -78.666 23 -111.999s37.833 -59.833 67.5 -79.5s65.167 -29.5 106.5 -29.5c44 0 80.667 10.667 110 32s51 48.833 65 82.5s21 69.167 21 106.5v417h60v-417c0 -47.333 -9.33301 -92.166 -28 -134.499
s-47.167 -76.666 -85.5 -102.999s-85.5 -39.5 -141.5 -39.5c-53.333 0 -99.5 12.5 -138.5 37.5zM292.5 813.497c17 6.33301 33.833 9.5 50.5 9.5c12.667 0 23.667 -1.66699 33 -5s20 -8.33301 32 -15c17.333 -10 32.333 -15 45 -15c22 0 46.333 11 73 33l34 -41
c-20 -16 -37 -27.167 -51 -33.5s-33.333 -9.5 -58 -9.5c-12 0 -21.833 1.33301 -29.5 4s-16.5 7 -26.5 13c-9.33301 5.33301 -17.5 9.33301 -24.5 12s-15.833 4 -26.5 4c-12 0 -23.5 -2.16699 -34.5 -6.5s-24.5 -13.166 -40.5 -26.499l-33 41
c20.667 17.333 39.5 29.166 56.5 35.499z" />
    <glyph glyph-name="utilde" unicode="&#x169;" horiz-adv-x="588" 
d="M575 28c-10 -14 -21.165 -23.833 -33.498 -29.5s-26.5 -8.5 -42.5 -8.5c-23.333 0 -43.833 8 -61.5 24s-26.5 35.333 -26.5 58c-46 -53.333 -101.667 -80 -167 -80c-50 0 -89 12.167 -117 36.5s-43.333 61.166 -46 110.499v214c0 52.667 -14 91.334 -42 116.001l40 40
c16 -10 30.333 -25.667 43 -47s19 -44.333 19 -69v-228c0 -38 8.5 -67.333 25.5 -88s44.833 -31 83.5 -31c36.667 0 68.167 8 94.5 24s48.166 41.333 65.499 76l1 354h60l-1 -414c0 -13.333 3.16699 -23.5 9.5 -30.5s14.166 -10.5 23.499 -10.5c12 0 21.667 5.66699 29 17z
M165.502 639.5c17 6.33301 33.833 9.5 50.5 9.5c12.667 0 23.667 -1.66699 33 -5s20 -8.33301 32 -15c17.333 -10 32.333 -15 45 -15c22 0 46.333 11 73 33l34 -41c-20 -16 -37 -27.167 -51 -33.5s-33.333 -9.5 -58 -9.5c-12 0 -21.833 1.33301 -29.5 4s-16.5 7 -26.5 13
c-9.33301 5.33301 -17.5 9.33301 -24.5 12s-15.833 4 -26.5 4c-12 0 -23.5 -2.16699 -34.5 -6.5s-24.5 -13.166 -40.5 -26.499l-33 41c20.667 17.333 39.5 29.166 56.5 35.499z" />
    <glyph glyph-name="Umacron" unicode="&#x16a;" horiz-adv-x="734" 
d="M255.5 27.5c-39 25 -68.667 58.4971 -89 100.497s-30.5 88.333 -30.5 139v328c0 13.333 -3.16699 24.333 -9.5 33s-15.166 13 -26.499 13c-16.667 0 -30.334 -8.66699 -41.001 -26l-45 32c7.33301 14 18.333 26 33 36s32 15 52 15c29.333 0 52.833 -9.66699 70.5 -29
s26.5 -44 26.5 -74v-328c0 -41.333 7.66699 -78.666 23 -111.999s37.833 -59.833 67.5 -79.5s65.167 -29.5 106.5 -29.5c44 0 80.667 10.667 110 32s51 48.833 65 82.5s21 69.167 21 106.5v417h60v-417c0 -47.333 -9.33301 -92.166 -28 -134.499
s-47.167 -76.666 -85.5 -102.999s-85.5 -39.5 -141.5 -39.5c-53.333 0 -99.5 12.5 -138.5 37.5zM244 798.997h296v-54h-296v54z" />
    <glyph glyph-name="umacron" unicode="&#x16b;" horiz-adv-x="588" 
d="M575 28c-10 -14 -21.165 -23.833 -33.498 -29.5s-26.5 -8.5 -42.5 -8.5c-23.333 0 -43.833 8 -61.5 24s-26.5 35.333 -26.5 58c-46 -53.333 -101.667 -80 -167 -80c-50 0 -89 12.167 -117 36.5s-43.333 61.166 -46 110.499v214c0 52.667 -14 91.334 -42 116.001l40 40
c16 -10 30.333 -25.667 43 -47s19 -44.333 19 -69v-228c0 -38 8.5 -67.333 25.5 -88s44.833 -31 83.5 -31c36.667 0 68.167 8 94.5 24s48.166 41.333 65.499 76l1 354h60l-1 -414c0 -13.333 3.16699 -23.5 9.5 -30.5s14.166 -10.5 23.499 -10.5c12 0 21.667 5.66699 29 17z
M123.002 623h296v-54h-296v54z" />
    <glyph glyph-name="Ubreve" unicode="&#x16c;" horiz-adv-x="734" 
d="M255.5 27.5c-39 25 -68.667 58.4971 -89 100.497s-30.5 88.333 -30.5 139v328c0 13.333 -3.16699 24.333 -9.5 33s-15.166 13 -26.499 13c-16.667 0 -30.334 -8.66699 -41.001 -26l-45 32c7.33301 14 18.333 26 33 36s32 15 52 15c29.333 0 52.833 -9.66699 70.5 -29
s26.5 -44 26.5 -74v-328c0 -41.333 7.66699 -78.666 23 -111.999s37.833 -59.833 67.5 -79.5s65.167 -29.5 106.5 -29.5c44 0 80.667 10.667 110 32s51 48.833 65 82.5s21 69.167 21 106.5v417h60v-417c0 -47.333 -9.33301 -92.166 -28 -134.499
s-47.167 -76.666 -85.5 -102.999s-85.5 -39.5 -141.5 -39.5c-53.333 0 -99.5 12.5 -138.5 37.5zM291.5 770.997c-23 23.333 -35.168 54 -36.501 92h55c1.33301 -22.667 8.83301 -41 22.5 -55s33.834 -21 60.501 -21c26 0 45.5 6.83301 58.5 20.5s19.833 32.167 20.5 55.5h55
c-1.33301 -40 -13.5 -71.167 -36.5 -93.5s-55.833 -33.5 -98.5 -33.5c-44 0 -77.5 11.667 -100.5 35z" />
    </font>
</defs>
</svg>
