<svg xmlns="http://www.w3.org/2000/svg" viewBox="0 0 102 102">
  <path fill="#FFFFFF" d="M92.8,27.3L76.4,10.8C70,4.5,61.6,1,52.6,1s-17.4,3.5-23.7,9.8L12.5,27.3C6.1,33.6,2.6,42,2.6,51    s3.5,17.4,9.8,23.7l16.4,16.4c6.3,6.3,14.8,9.8,23.7,9.8c8.7,0,17-3.3,23.3-9.4l0,0l0,0l16.8-16.8c6.3-6.3,9.8-14.8,9.8-23.7    C102.6,42,99.2,33.6,92.8,27.3z"/>
  <path fill="#222222" d="M64.7,79.9c-3.1,3-7.4,4.9-12,4.9c-4.8,0-9.1-1.9-12.3-5.1l8.1-8.1c1.1,1.1,2.5,1.7,4.2,1.7    c1.6,0,3.1-0.7,4.2-1.7l16.4-16.4c1.1-1.1,1.7-2.5,1.7-4.2c0-1.6-0.7-3.1-1.7-4.2c-1.1-1.1-2.5-1.7-4.2-1.7s-3.1,0.7-4.2,1.7    L48.5,63.3c-3.1,3.1-7.5,5.1-12.3,5.1c-4.8,0-9.1-2-12.3-5.1c-3.1-3.1-5.1-7.5-5.1-12.3c0-4.8,1.9-9.1,5.1-12.3l16.4-16.4    c3.1-3.1,7.5-5.1,12.3-5.1s9.1,1.9,12.3,5.1l-8.1,8.1c-1.1-1.1-2.5-1.7-4.2-1.7s-3.1,0.7-4.2,1.7L32,46.8    c-1.1,1.1-1.7,2.5-1.7,4.2c0,1.6,0.7,3.1,1.7,4.2c1.1,1.1,2.5,1.7,4.2,1.7c1.6,0,3.1-0.7,4.2-1.7l16.4-16.4    c3.1-3.1,7.5-5.1,12.3-5.1s9.1,1.9,12.3,5.1c3.1,3.1,5.1,7.5,5.1,12.3c0,4.8-1.9,9.1-5.1,12.3L64.7,79.9z"/>
</svg>
