<svg id="Слой_1" data-name="Слой 1" xmlns="http://www.w3.org/2000/svg" viewBox="0 0 300 300">
  <defs>
    <style>
      .cls-1 {
        fill: #92e8db;
      }

      .cls-2 {
        fill: #060606;
      }
    </style>
  </defs>
  <title>arrow</title>
  <g>
    <path class="cls-1" d="M129.92,148.93C89.56,173.47,47.83,189.64,5.2,206.34c-.5-12.9-.65-24.92.07-36.94.87-14.52,2.88-29,3.22-43.51.2-8.6,5.25-14.29,5.51-22.89.15-5,.85-10.22,1.13-15C37.64,98,73,124,129.92,148.93Z"/>
    <path class="cls-2" d="M20.9,216.63c2.61-18.94,0-38.09,2-57,2.11-19.49,2.48-39.08,4.4-58.58.61-6.19.27-12.49,0-18.73-.17-4.44.47-8.26,4.43-11A9.84,9.84,0,0,0,34,68.71c5.56-8.09,8.32-8.88,16.89-5,45.08,20.26,87.56,45.39,130.84,69,9.9,5.42,13.6,17,2.71,27.15-7.24,6.73-15.89,11.5-24.53,16.16-32.51,17.55-66.57,31.65-101,44.93-6.41,2.47-13,4.7-18.87,8.28C29,236,19.45,227.48,20.9,216.63ZM156.61,142c-32.71-18-63.81-36.59-97.3-52a7.06,7.06,0,0,0-8.82,2.47c-1.33,2-2.77,3.93-2.85,6.68-.26,8.6-1.36,17.17-1.56,25.77-.34,14.56-2.35,29-3.22,43.51-.53,8.85-.59,17.69-.39,26.89a7.06,7.06,0,0,0,9.64,6.4c35.61-14,70.56-28,104.59-47.4A7.06,7.06,0,0,0,156.61,142Z"/>
    <path class="cls-2" d="M270.08,153.72c-1.58-3.32-4.48-4.5-6.87-6.13-35.62-24.25-70.95-48.94-108.11-70.84a62.48,62.48,0,0,1-8.2-5.36c-4-3.27-4.9-8-2.87-12,2.18-4.28,7.1-6.31,12.23-4.61,2.49.83,4.75,2.41,7.08,3.71C194,72,214.41,91.12,240,107.41c15.55,9.91,30.34,20.93,45.66,31.15,11.24,7.5,11.47,18.15,2.21,26.68A263.08,263.08,0,0,1,251.91,193c-23,14.78-46.18,29.28-69.35,43.79a100.94,100.94,0,0,1-12.6,6.65c-5,5.52-12.17,1-14.63-4.08s-.39-10.46,5.57-14.12C186.44,209.55,212,193.87,237.49,178A284.62,284.62,0,0,0,270.08,153.72Z"/>
  </g>
</svg>
