<svg id="Слой_1" data-name="Слой 1" xmlns="http://www.w3.org/2000/svg" viewBox="0 0 96 100">
    <defs>
        <style>

            .cls-2,
            .cls-3 {
                fill: none;
                stroke: #e34234;
                stroke-miterlimit: 10;
            }

            .cls-2 {
                stroke-linecap: round;
                stroke-width: 4.05px;
            }

            .cls-3 {
                stroke-width: 0.75px;
            }
        </style>
    </defs>
    <title>borderheadertop</title>
    <g>
        <g>
            <g>
                <line class="cls-1" x1="75.57" y1="25.03" x2="96.15" y2="7.7"/>
                <line class="cls-1" x1="48.35" y1="2.58" x2="75.57" y2="25.03"/>
                <line class="cls-1" x1="69.69" y1="7.62" x2="48.35" y2="25.03"/>
                <g>
                    <line class="cls-1" x1="62.61" y1="25.03" x2="76.29" y2="13.27"/>
                    <line class="cls-1" x1="51.37" y1="11.4" x2="59.69" y2="4.78"/>
                    <line class="cls-1" x1="88.59" y1="25.03" x2="82.38" y2="19.49"/>
                </g>
                <g>
                    <line class="cls-1" x1="96.15" y1="19.76" x2="75.57" y2="2.58"/>
                    <line class="cls-1" x1="81.89" y1="7.46" x2="86.91" y2="3.31"/>
                </g>
            </g>
            <g>
                <line class="cls-2" x1="75.57" y1="25.03" x2="96.15" y2="7.7"/>
                <line class="cls-2" x1="48.35" y1="2.58" x2="75.57" y2="25.03"/>
                <line class="cls-2" x1="69.69" y1="7.62" x2="48.35" y2="25.03"/>
                <g>
                    <line class="cls-2" x1="62.61" y1="25.03" x2="76.29" y2="13.27"/>
                    <line class="cls-2" x1="51.37" y1="11.4" x2="59.69" y2="4.78"/>
                    <line class="cls-2" x1="88.59" y1="25.03" x2="82.38" y2="19.49"/>
                </g>
                <g>
                    <line class="cls-2" x1="96.15" y1="19.76" x2="75.57" y2="2.58"/>
                    <line class="cls-2" x1="81.89" y1="7.46" x2="86.91" y2="3.31"/>
                </g>
            </g>
            <g>
                <line class="cls-3" x1="75.57" y1="25.03" x2="96.15" y2="7.7"/>
                <line class="cls-3" x1="48.35" y1="2.58" x2="75.57" y2="25.03"/>
                <line class="cls-3" x1="69.69" y1="7.62" x2="48.35" y2="25.03"/>
                <g>
                    <line class="cls-3" x1="62.61" y1="25.03" x2="76.29" y2="13.27"/>
                    <line class="cls-3" x1="51.37" y1="11.4" x2="59.69" y2="4.78"/>
                    <line class="cls-3" x1="88.59" y1="25.03" x2="82.38" y2="19.49"/>
                </g>
                <g>
                    <line class="cls-3" x1="96.15" y1="19.76" x2="75.57" y2="2.58"/>
                    <line class="cls-3" x1="81.89" y1="7.46" x2="86.91" y2="3.31"/>
                </g>
            </g>
        </g>
        <g>
            <g>
                <line class="cls-1" x1="75.57" y1="25.03" x2="96.15" y2="7.7"/>
                <line class="cls-1" x1="48.35" y1="2.58" x2="75.57" y2="25.03"/>
                <line class="cls-1" x1="69.69" y1="7.62" x2="48.35" y2="25.03"/>
                <g>
                    <line class="cls-1" x1="62.61" y1="25.03" x2="76.29" y2="13.27"/>
                    <line class="cls-1" x1="51.37" y1="11.4" x2="59.69" y2="4.78"/>
                    <line class="cls-1" x1="88.59" y1="25.03" x2="82.38" y2="19.49"/>
                </g>
                <g>
                    <line class="cls-1" x1="96.15" y1="19.76" x2="75.57" y2="2.58"/>
                    <line class="cls-1" x1="81.89" y1="7.46" x2="86.91" y2="3.31"/>
                </g>
            </g>
            <g>
                <line class="cls-2" x1="75.57" y1="25.03" x2="96.15" y2="7.7"/>
                <line class="cls-2" x1="48.35" y1="2.58" x2="75.57" y2="25.03"/>
                <line class="cls-2" x1="69.69" y1="7.62" x2="48.35" y2="25.03"/>
                <g>
                    <line class="cls-2" x1="62.61" y1="25.03" x2="76.29" y2="13.27"/>
                    <line class="cls-2" x1="51.37" y1="11.4" x2="59.69" y2="4.78"/>
                    <line class="cls-2" x1="88.59" y1="25.03" x2="82.38" y2="19.49"/>
                </g>
                <g>
                    <line class="cls-2" x1="96.15" y1="19.76" x2="75.57" y2="2.58"/>
                    <line class="cls-2" x1="81.89" y1="7.46" x2="86.91" y2="3.31"/>
                </g>
            </g>
            <g>
                <line class="cls-3" x1="75.57" y1="25.03" x2="96.15" y2="7.7"/>
                <line class="cls-3" x1="48.35" y1="2.58" x2="75.57" y2="25.03"/>
                <line class="cls-3" x1="69.69" y1="7.62" x2="48.35" y2="25.03"/>
                <g>
                    <line class="cls-3" x1="62.61" y1="25.03" x2="76.29" y2="13.27"/>
                    <line class="cls-3" x1="51.37" y1="11.4" x2="59.69" y2="4.78"/>
                    <line class="cls-3" x1="88.59" y1="25.03" x2="82.38" y2="19.49"/>
                </g>
                <g>
                    <line class="cls-3" x1="96.15" y1="19.76" x2="75.57" y2="2.58"/>
                    <line class="cls-3" x1="81.89" y1="7.46" x2="86.91" y2="3.31"/>
                </g>
            </g>
        </g>
        <g>
            <g>
                <line class="cls-1" x1="75.57" y1="25.03" x2="96.15" y2="42.36"/>
                <line class="cls-1" x1="48.35" y1="47.48" x2="75.57" y2="25.03"/>
                <line class="cls-1" x1="69.69" y1="42.44" x2="48.35" y2="25.03"/>
                <g>
                    <line class="cls-1" x1="62.61" y1="25.03" x2="76.29" y2="36.78"/>
                    <line class="cls-1" x1="51.37" y1="38.66" x2="59.69" y2="45.28"/>
                    <line class="cls-1" x1="88.59" y1="25.03" x2="82.38" y2="30.57"/>
                </g>
                <g>
                    <line class="cls-1" x1="96.15" y1="30.3" x2="75.57" y2="47.48"/>
                    <line class="cls-1" x1="81.89" y1="42.6" x2="86.91" y2="46.75"/>
                </g>
            </g>
            <g>
                <line class="cls-2" x1="75.57" y1="25.03" x2="96.15" y2="42.36"/>
                <line class="cls-2" x1="48.35" y1="47.48" x2="75.57" y2="25.03"/>
                <line class="cls-2" x1="69.69" y1="42.44" x2="48.35" y2="25.03"/>
                <g>
                    <line class="cls-2" x1="62.61" y1="25.03" x2="76.29" y2="36.78"/>
                    <line class="cls-2" x1="51.37" y1="38.66" x2="59.69" y2="45.28"/>
                    <line class="cls-2" x1="88.59" y1="25.03" x2="82.38" y2="30.57"/>
                </g>
                <g>
                    <line class="cls-2" x1="96.15" y1="30.3" x2="75.57" y2="47.48"/>
                    <line class="cls-2" x1="81.89" y1="42.6" x2="86.91" y2="46.75"/>
                </g>
            </g>
            <g>
                <line class="cls-3" x1="75.57" y1="25.03" x2="96.15" y2="42.36"/>
                <line class="cls-3" x1="48.35" y1="47.48" x2="75.57" y2="25.03"/>
                <line class="cls-3" x1="69.69" y1="42.44" x2="48.35" y2="25.03"/>
                <g>
                    <line class="cls-3" x1="62.61" y1="25.03" x2="76.29" y2="36.78"/>
                    <line class="cls-3" x1="51.37" y1="38.66" x2="59.69" y2="45.28"/>
                    <line class="cls-3" x1="88.59" y1="25.03" x2="82.38" y2="30.57"/>
                </g>
                <g>
                    <line class="cls-3" x1="96.15" y1="30.3" x2="75.57" y2="47.48"/>
                    <line class="cls-3" x1="81.89" y1="42.6" x2="86.91" y2="46.75"/>
                </g>
            </g>
        </g>
        <g>
            <g>
                <line class="cls-1" x1="75.57" y1="25.03" x2="96.15" y2="42.36"/>
                <line class="cls-1" x1="48.35" y1="47.48" x2="75.57" y2="25.03"/>
                <line class="cls-1" x1="69.69" y1="42.44" x2="48.35" y2="25.03"/>
                <g>
                    <line class="cls-1" x1="62.61" y1="25.03" x2="76.29" y2="36.78"/>
                    <line class="cls-1" x1="51.37" y1="38.66" x2="59.69" y2="45.28"/>
                    <line class="cls-1" x1="88.59" y1="25.03" x2="82.38" y2="30.57"/>
                </g>
                <g>
                    <line class="cls-1" x1="96.15" y1="30.3" x2="75.57" y2="47.48"/>
                    <line class="cls-1" x1="81.89" y1="42.6" x2="86.91" y2="46.75"/>
                </g>
            </g>
            <g>
                <line class="cls-2" x1="75.57" y1="25.03" x2="96.15" y2="42.36"/>
                <line class="cls-2" x1="48.35" y1="47.48" x2="75.57" y2="25.03"/>
                <line class="cls-2" x1="69.69" y1="42.44" x2="48.35" y2="25.03"/>
                <g>
                    <line class="cls-2" x1="62.61" y1="25.03" x2="76.29" y2="36.78"/>
                    <line class="cls-2" x1="51.37" y1="38.66" x2="59.69" y2="45.28"/>
                    <line class="cls-2" x1="88.59" y1="25.03" x2="82.38" y2="30.57"/>
                </g>
                <g>
                    <line class="cls-2" x1="96.15" y1="30.3" x2="75.57" y2="47.48"/>
                    <line class="cls-2" x1="81.89" y1="42.6" x2="86.91" y2="46.75"/>
                </g>
            </g>
            <g>
                <line class="cls-3" x1="75.57" y1="25.03" x2="96.15" y2="42.36"/>
                <line class="cls-3" x1="48.35" y1="47.48" x2="75.57" y2="25.03"/>
                <line class="cls-3" x1="69.69" y1="42.44" x2="48.35" y2="25.03"/>
                <g>
                    <line class="cls-3" x1="62.61" y1="25.03" x2="76.29" y2="36.78"/>
                    <line class="cls-3" x1="51.37" y1="38.66" x2="59.69" y2="45.28"/>
                    <line class="cls-3" x1="88.59" y1="25.03" x2="82.38" y2="30.57"/>
                </g>
                <g>
                    <line class="cls-3" x1="96.15" y1="30.3" x2="75.57" y2="47.48"/>
                    <line class="cls-3" x1="81.89" y1="42.6" x2="86.91" y2="46.75"/>
                </g>
            </g>
        </g>
        <g>
            <g>
                <line class="cls-1" x1="21.13" y1="25.03" x2="0.55" y2="7.7"/>
                <line class="cls-1" x1="48.35" y1="2.58" x2="21.13" y2="25.03"/>
                <line class="cls-1" x1="27.01" y1="7.62" x2="48.35" y2="25.03"/>
                <g>
                    <line class="cls-1" x1="34.09" y1="25.03" x2="20.41" y2="13.27"/>
                    <line class="cls-1" x1="45.33" y1="11.4" x2="37.01" y2="4.78"/>
                    <line class="cls-1" x1="8.11" y1="25.03" x2="14.32" y2="19.49"/>
                </g>
                <g>
                    <line class="cls-1" x1="0.55" y1="19.76" x2="21.13" y2="2.58"/>
                    <line class="cls-1" x1="14.81" y1="7.46" x2="9.79" y2="3.31"/>
                </g>
            </g>
            <g>
                <line class="cls-2" x1="21.13" y1="25.03" x2="0.55" y2="7.7"/>
                <line class="cls-2" x1="48.35" y1="2.58" x2="21.13" y2="25.03"/>
                <line class="cls-2" x1="27.01" y1="7.62" x2="48.35" y2="25.03"/>
                <g>
                    <line class="cls-2" x1="34.09" y1="25.03" x2="20.41" y2="13.27"/>
                    <line class="cls-2" x1="45.33" y1="11.4" x2="37.01" y2="4.78"/>
                    <line class="cls-2" x1="8.11" y1="25.03" x2="14.32" y2="19.49"/>
                </g>
                <g>
                    <line class="cls-2" x1="0.55" y1="19.76" x2="21.13" y2="2.58"/>
                    <line class="cls-2" x1="14.81" y1="7.46" x2="9.79" y2="3.31"/>
                </g>
            </g>
            <g>
                <line class="cls-3" x1="21.13" y1="25.03" x2="0.55" y2="7.7"/>
                <line class="cls-3" x1="48.35" y1="2.58" x2="21.13" y2="25.03"/>
                <line class="cls-3" x1="27.01" y1="7.62" x2="48.35" y2="25.03"/>
                <g>
                    <line class="cls-3" x1="34.09" y1="25.03" x2="20.41" y2="13.27"/>
                    <line class="cls-3" x1="45.33" y1="11.4" x2="37.01" y2="4.78"/>
                    <line class="cls-3" x1="8.11" y1="25.03" x2="14.32" y2="19.49"/>
                </g>
                <g>
                    <line class="cls-3" x1="0.55" y1="19.76" x2="21.13" y2="2.58"/>
                    <line class="cls-3" x1="14.81" y1="7.46" x2="9.79" y2="3.31"/>
                </g>
            </g>
        </g>
        <g>
            <g>
                <line class="cls-1" x1="21.13" y1="25.03" x2="0.55" y2="7.7"/>
                <line class="cls-1" x1="48.35" y1="2.58" x2="21.13" y2="25.03"/>
                <line class="cls-1" x1="27.01" y1="7.62" x2="48.35" y2="25.03"/>
                <g>
                    <line class="cls-1" x1="34.09" y1="25.03" x2="20.41" y2="13.27"/>
                    <line class="cls-1" x1="45.33" y1="11.4" x2="37.01" y2="4.78"/>
                    <line class="cls-1" x1="8.11" y1="25.03" x2="14.32" y2="19.49"/>
                </g>
                <g>
                    <line class="cls-1" x1="0.55" y1="19.76" x2="21.13" y2="2.58"/>
                    <line class="cls-1" x1="14.81" y1="7.46" x2="9.79" y2="3.31"/>
                </g>
            </g>
            <g>
                <line class="cls-2" x1="21.13" y1="25.03" x2="0.55" y2="7.7"/>
                <line class="cls-2" x1="48.35" y1="2.58" x2="21.13" y2="25.03"/>
                <line class="cls-2" x1="27.01" y1="7.62" x2="48.35" y2="25.03"/>
                <g>
                    <line class="cls-2" x1="34.09" y1="25.03" x2="20.41" y2="13.27"/>
                    <line class="cls-2" x1="45.33" y1="11.4" x2="37.01" y2="4.78"/>
                    <line class="cls-2" x1="8.11" y1="25.03" x2="14.32" y2="19.49"/>
                </g>
                <g>
                    <line class="cls-2" x1="0.55" y1="19.76" x2="21.13" y2="2.58"/>
                    <line class="cls-2" x1="14.81" y1="7.46" x2="9.79" y2="3.31"/>
                </g>
            </g>
            <g>
                <line class="cls-3" x1="21.13" y1="25.03" x2="0.55" y2="7.7"/>
                <line class="cls-3" x1="48.35" y1="2.58" x2="21.13" y2="25.03"/>
                <line class="cls-3" x1="27.01" y1="7.62" x2="48.35" y2="25.03"/>
                <g>
                    <line class="cls-3" x1="34.09" y1="25.03" x2="20.41" y2="13.27"/>
                    <line class="cls-3" x1="45.33" y1="11.4" x2="37.01" y2="4.78"/>
                    <line class="cls-3" x1="8.11" y1="25.03" x2="14.32" y2="19.49"/>
                </g>
                <g>
                    <line class="cls-3" x1="0.55" y1="19.76" x2="21.13" y2="2.58"/>
                    <line class="cls-3" x1="14.81" y1="7.46" x2="9.79" y2="3.31"/>
                </g>
            </g>
        </g>
        <g>
            <g>
                <line class="cls-1" x1="21.13" y1="25.03" x2="0.55" y2="42.36"/>
                <line class="cls-1" x1="48.35" y1="47.48" x2="21.13" y2="25.03"/>
                <line class="cls-1" x1="27.01" y1="42.44" x2="48.35" y2="25.03"/>
                <g>
                    <line class="cls-1" x1="34.09" y1="25.03" x2="20.41" y2="36.78"/>
                    <line class="cls-1" x1="45.33" y1="38.66" x2="37.01" y2="45.28"/>
                    <line class="cls-1" x1="8.11" y1="25.03" x2="14.32" y2="30.57"/>
                </g>
                <g>
                    <line class="cls-1" x1="0.55" y1="30.3" x2="21.13" y2="47.48"/>
                    <line class="cls-1" x1="14.81" y1="42.6" x2="9.79" y2="46.75"/>
                </g>
            </g>
            <g>
                <line class="cls-2" x1="21.13" y1="25.03" x2="0.55" y2="42.36"/>
                <line class="cls-2" x1="48.35" y1="47.48" x2="21.13" y2="25.03"/>
                <line class="cls-2" x1="27.01" y1="42.44" x2="48.35" y2="25.03"/>
                <g>
                    <line class="cls-2" x1="34.09" y1="25.03" x2="20.41" y2="36.78"/>
                    <line class="cls-2" x1="45.33" y1="38.66" x2="37.01" y2="45.28"/>
                    <line class="cls-2" x1="8.11" y1="25.03" x2="14.32" y2="30.57"/>
                </g>
                <g>
                    <line class="cls-2" x1="0.55" y1="30.3" x2="21.13" y2="47.48"/>
                    <line class="cls-2" x1="14.81" y1="42.6" x2="9.79" y2="46.75"/>
                </g>
            </g>
            <g>
                <line class="cls-3" x1="21.13" y1="25.03" x2="0.55" y2="42.36"/>
                <line class="cls-3" x1="48.35" y1="47.48" x2="21.13" y2="25.03"/>
                <line class="cls-3" x1="27.01" y1="42.44" x2="48.35" y2="25.03"/>
                <g>
                    <line class="cls-3" x1="34.09" y1="25.03" x2="20.41" y2="36.78"/>
                    <line class="cls-3" x1="45.33" y1="38.66" x2="37.01" y2="45.28"/>
                    <line class="cls-3" x1="8.11" y1="25.03" x2="14.32" y2="30.57"/>
                </g>
                <g>
                    <line class="cls-3" x1="0.55" y1="30.3" x2="21.13" y2="47.48"/>
                    <line class="cls-3" x1="14.81" y1="42.6" x2="9.79" y2="46.75"/>
                </g>
            </g>
        </g>
        <g>
            <g>
                <line class="cls-1" x1="21.13" y1="25.03" x2="0.55" y2="42.36"/>
                <line class="cls-1" x1="48.35" y1="47.48" x2="21.13" y2="25.03"/>
                <line class="cls-1" x1="27.01" y1="42.44" x2="48.35" y2="25.03"/>
                <g>
                    <line class="cls-1" x1="34.09" y1="25.03" x2="20.41" y2="36.78"/>
                    <line class="cls-1" x1="45.33" y1="38.66" x2="37.01" y2="45.28"/>
                    <line class="cls-1" x1="8.11" y1="25.03" x2="14.32" y2="30.57"/>
                </g>
                <g>
                    <line class="cls-1" x1="0.55" y1="30.3" x2="21.13" y2="47.48"/>
                    <line class="cls-1" x1="14.81" y1="42.6" x2="9.79" y2="46.75"/>
                </g>
            </g>
            <g>
                <line class="cls-2" x1="21.13" y1="25.03" x2="0.55" y2="42.36"/>
                <line class="cls-2" x1="48.35" y1="47.48" x2="21.13" y2="25.03"/>
                <line class="cls-2" x1="27.01" y1="42.44" x2="48.35" y2="25.03"/>
                <g>
                    <line class="cls-2" x1="34.09" y1="25.03" x2="20.41" y2="36.78"/>
                    <line class="cls-2" x1="45.33" y1="38.66" x2="37.01" y2="45.28"/>
                    <line class="cls-2" x1="8.11" y1="25.03" x2="14.32" y2="30.57"/>
                </g>
                <g>
                    <line class="cls-2" x1="0.55" y1="30.3" x2="21.13" y2="47.48"/>
                    <line class="cls-2" x1="14.81" y1="42.6" x2="9.79" y2="46.75"/>
                </g>
            </g>
            <g>
                <line class="cls-3" x1="21.13" y1="25.03" x2="0.55" y2="42.36"/>
                <line class="cls-3" x1="48.35" y1="47.48" x2="21.13" y2="25.03"/>
                <line class="cls-3" x1="27.01" y1="42.44" x2="48.35" y2="25.03"/>
                <g>
                    <line class="cls-3" x1="34.09" y1="25.03" x2="20.41" y2="36.78"/>
                    <line class="cls-3" x1="45.33" y1="38.66" x2="37.01" y2="45.28"/>
                    <line class="cls-3" x1="8.11" y1="25.03" x2="14.32" y2="30.57"/>
                </g>
                <g>
                    <line class="cls-3" x1="0.55" y1="30.3" x2="21.13" y2="47.48"/>
                    <line class="cls-3" x1="14.81" y1="42.6" x2="9.79" y2="46.75"/>
                </g>
            </g>
        </g>
    </g>
</svg>
