<?xml version="1.0" encoding="utf-8"?>
<!-- Generator: Adobe Illustrator 23.1.0, SVG Export Plug-In . SVG Version: 6.00 Build 0)  -->
<svg version="1.1" id="Слой_1" xmlns="http://www.w3.org/2000/svg" xmlns:xlink="http://www.w3.org/1999/xlink" x="0px" y="0px"
	 viewBox="0 0 1000 1000" style="enable-background:new 0 0 1000 1000;" xml:space="preserve">
<style type="text/css">
	.st0{fill:#CCDAE7;}
</style>
<g>
	<path class="st0" d="M683.7,867.5c0,33.8-27.4,61.2-61.2,61.2h-490c-33.8,0-61.2-27.4-61.2-61.2v-490c0-33.8,27.5-61.2,61.2-61.2
		h61.2V255h-61.2C64.8,255,10,309.9,10,377.5v490C10,935.3,64.8,990,132.5,990h490c67.7,0,122.5-54.8,122.5-122.5v-61.2h-61.2
		L683.7,867.5L683.7,867.5z M867.5,10h-490C309.8,10,255,64.8,255,132.4v490c0,67.6,54.8,122.5,122.5,122.5h490
		C935.3,745,990,690,990,622.5v-490C990,64.8,935.2,10,867.5,10z M928.8,622.5c0,33.9-27.4,61.2-61.2,61.2h-490
		c-33.8,0-61.2-27.3-61.2-61.2v-490c0-33.8,27.5-61.2,61.2-61.2h490c33.8,0,61.2,27.4,61.2,61.2V622.5z"/>
</g>
</svg>
