<svg id="Слой_1" data-name="Слой 1" xmlns="http://www.w3.org/2000/svg" viewBox="0 0 399 72">
  <title>hr</title>
  <g>
    <g>
      <path d="M6.5,31.47a4.66,4.66,0,1,0,0,9.32,4.66,4.66,0,1,0,0-9.32Z"/>
      <ellipse cx="83.42" cy="36.13" rx="4.81" ry="4.66"/>
      <path d="M160.34,31.47a4.66,4.66,0,1,0,4.8,4.66A4.73,4.73,0,0,0,160.34,31.47Z"/>
      <path d="M71.1,33.89l1.72,2.24L71.1,38.36A130.18,130.18,0,0,1,47.26,61.47L45,63.13l-2.3-1.67a130.14,130.14,0,0,1-23.84-23.1L17.1,36.13l1.72-2.24a130.14,130.14,0,0,1,23.84-23.1L45,9.12l2.3,1.67A129.8,129.8,0,0,1,71.1,33.89Zm-7.95,2.24A129.62,129.62,0,0,0,45,18.5,128.54,128.54,0,0,0,26.77,36.13,129.65,129.65,0,0,0,45,53.76,130.18,130.18,0,0,0,63.15,36.13Z"/>
      <path d="M148,33.89l1.72,2.24L148,38.36a130.82,130.82,0,0,1-23.84,23.11l-2.3,1.66-2.31-1.67a130.45,130.45,0,0,1-23.84-23.1L94,36.13l1.71-2.24a130.45,130.45,0,0,1,23.84-23.1l2.31-1.67,2.3,1.67A130.43,130.43,0,0,1,148,33.89Zm-8,2.24A129.62,129.62,0,0,0,121.88,18.5a128.54,128.54,0,0,0-18.19,17.63,129.65,129.65,0,0,0,18.19,17.63A130.18,130.18,0,0,0,140.07,36.13Z"/>
      <path d="M189.84,16.11a130.21,130.21,0,0,0-17.19,17.78l-1.72,2.24,1.72,2.23a130.21,130.21,0,0,0,17.19,17.78V45.91a121.57,121.57,0,0,1-9.24-9.78,121.63,121.63,0,0,1,9.24-9.79Z"/>
    </g>
    <g>
      <ellipse cx="237.25" cy="36.13" rx="4.81" ry="4.66"/>
      <path d="M314.17,31.47A4.66,4.66,0,1,0,319,36.13,4.73,4.73,0,0,0,314.17,31.47Z"/>
      <ellipse cx="391.09" cy="36.13" rx="4.81" ry="4.66"/>
      <path d="M201.09,10.79l-2.3-1.67-2.3,1.67c-2.13,1.54-4.38,3.36-6.65,5.32V26.34c3-2.85,6.06-5.58,8.95-7.84A129.15,129.15,0,0,1,217,36.13a129.71,129.71,0,0,1-18.2,17.63c-2.89-2.27-6-5-8.95-7.85V56.14c2.27,2,4.52,3.78,6.65,5.32l2.3,1.67,2.3-1.66a130.55,130.55,0,0,0,23.85-23.11l1.72-2.23-1.72-2.24A130.17,130.17,0,0,0,201.09,10.79Z"/>
      <path d="M301.85,33.89l1.72,2.24-1.72,2.23A130.5,130.5,0,0,1,278,61.47l-2.3,1.66-2.3-1.67a130.14,130.14,0,0,1-23.84-23.1l-1.72-2.23,1.72-2.24a130.14,130.14,0,0,1,23.84-23.1l2.3-1.67,2.3,1.67A130.12,130.12,0,0,1,301.85,33.89Zm-8,2.24A129.62,129.62,0,0,0,275.71,18.5a128.54,128.54,0,0,0-18.19,17.63,129.65,129.65,0,0,0,18.19,17.63A130.18,130.18,0,0,0,293.9,36.13Z"/>
      <path d="M378.77,33.89l1.72,2.24-1.72,2.23a130.82,130.82,0,0,1-23.84,23.11l-2.3,1.66-2.31-1.67a130.45,130.45,0,0,1-23.84-23.1l-1.71-2.23,1.71-2.24a130.45,130.45,0,0,1,23.84-23.1l2.31-1.67,2.3,1.67A130.43,130.43,0,0,1,378.77,33.89Zm-7.95,2.24A129.62,129.62,0,0,0,352.63,18.5a128.54,128.54,0,0,0-18.19,17.63,129.65,129.65,0,0,0,18.19,17.63A130.18,130.18,0,0,0,370.82,36.13Z"/>
    </g>
  </g>
</svg>
