<svg xmlns="http://www.w3.org/2000/svg" viewBox="0 0 294.57 65.34">
  <defs>
    <style>
      .cls-1 {
        fill: #ccdae7;
      }

      .cls-2 {
        fill: none;
      }
    </style>
  </defs>
  <title>Logo</title>
  <g id="Слой_2" data-name="Слой 2">
    <g>
      <g>
        <g>
          <path class="cls-1" d="M23.78,32a43.34,43.34,0,0,0-4.45,1.89,33.53,33.53,0,0,0-7.4,4.8,1.91,1.91,0,0,0-.32.27,2.61,2.61,0,0,0-.31.28c-.33.29-.66.6-1,.94a2.64,2.64,0,0,0-.29.29,1.79,1.79,0,0,0-.23.25c-.34.34-.66.7-1,1.06A16.73,16.73,0,0,0,4.7,53.87,17.33,17.33,0,0,1,10.2,43a32.26,32.26,0,0,1,10.33-6.46c.91-.36,1.83-.7,2.76-1,.56-.19.09-1.1.43-1.48.52-.57,1.69-.7,1.66-1.26,0-.36-.79-.18-1.05-.34S24.3,31.82,23.78,32Z"/>
          <path class="cls-1" d="M84.76,54a18.27,18.27,0,0,0-5.48-10.89,25.45,25.45,0,0,0-3.4-2.82,3.29,3.29,0,0,0-.33-.23l-.33-.22c-.29-.2-.58-.38-.87-.56L74,39.07a3.37,3.37,0,0,0-.32-.19q-.66-.41-1.35-.75h0c-.3-.17-.63-.33-.94-.47l0,0Q70.21,37,69,36.55c-1.16-.46-2.33-.89-3.52-1.27-.55-.18,0-.63-.32-1.05s-1.45-.9-1.46-1.38.49-.36.71-.57.25-.69.78-.51a40.32,40.32,0,0,1,4.21,1.71l.34.16.36.17.12.06c.16.08.32.16.47.25h0a1.78,1.78,0,0,1,.36.19h0a2.91,2.91,0,0,1,.35.18l0,0c.18.09.37.19.55.3h0c.6.33,1.17.68,1.75,1l.32.2.31.2h0c.26.17.5.34.75.53h0a3.19,3.19,0,0,1,.32.23l.33.23,0,0c.16.13.32.25.48.39a2.33,2.33,0,0,1,.32.25,3.4,3.4,0,0,1,.31.25,6.69,6.69,0,0,1,.58.5,2.67,2.67,0,0,1,.32.28,2.89,2.89,0,0,1,.32.29c.32.28.62.58.91.89a1.7,1.7,0,0,1,.23.24,2.49,2.49,0,0,1,.23.23c.38.4.75.82,1.1,1.25A17.38,17.38,0,0,1,84.76,54Z"/>
        </g>
        <g>
          <g>
            <g>
              <path class="cls-1" d="M18.12,22.44c-.25-.78-.56-1.62-.92-2.48l-.27-.62c-.26-.58-.53-1.17-.8-1.71-.93-1.87-1.8-3.33-2.13-3.87l-.2-.31L13.54,13l-.27.41a.79.79,0,0,0-.1.14l-.09.15c-.91,1.48-3.95,6.67-4.76,11.18A11.3,11.3,0,0,0,8.11,27c0,.56,0,1.06.07,1.5a7.79,7.79,0,0,0,.72,2.81,4.16,4.16,0,0,0,3.6,2.28,1.12,1.12,0,0,0,.31,0h0l.33,0,0-1.71-.16,0h-.15l-.17,0a.76.76,0,0,1-.16,0,2.56,2.56,0,0,1-2.12-1.63l0-.08-.12-.35A9.59,9.59,0,0,1,10,27.34v0a1.55,1.55,0,0,1,0-.22c0-.12,0-.22,0-.36a13.79,13.79,0,0,1,.65-3.32,1.56,1.56,0,0,0,.05-.16c.09-.29.19-.59.3-.88a36.25,36.25,0,0,1,1.86-4.21,2.91,2.91,0,0,0,.18-.35l.16-.27a0,0,0,0,0,0,0v0c.05-.11.11-.2.16-.3l.21-.39.3.55c.05.08.1.13.15.21h0v0a1.82,1.82,0,0,0,.16.31c0,.11.11.23.17.34l.29.58c.39.77.74,1.54,1,2.28.17.42.33.83.47,1.23.08.21.15.41.21.62l.09.26a3.38,3.38,0,0,1,.11.34,13,13,0,0,1,.57,3.12,2.36,2.36,0,0,1,0,.37v.23a8.81,8.81,0,0,1-.33,2.46,2.72,2.72,0,0,1-.15.43,3.63,3.63,0,0,1-.27.52,2.48,2.48,0,0,1-1.78,1.1l-.16,0h-.31l-.17,0,0,1.73.32,0h0l.3,0a4.61,4.61,0,0,0,2.18-.72C18.26,31.94,19,30,19,27A15.2,15.2,0,0,0,18.12,22.44ZM14.62,33v-.44a3.22,3.22,0,0,0,2.3-1.42,7.34,7.34,0,0,0,.86-4,13.14,13.14,0,0,0-.62-3.66c-.07-.22-.13-.43-.21-.66-.2-.59-.43-1.21-.69-1.87s-.67-1.53-1.07-2.33C14.44,17.07,13.82,16,13.81,16l-.28-.45-.27.45A38.86,38.86,0,0,0,10,23.23,13.31,13.31,0,0,0,9.3,27.1v.26a8.59,8.59,0,0,0,.5,3,3.18,3.18,0,0,0,2.73,2.13V33a3.49,3.49,0,0,1-3-1.94,7.35,7.35,0,0,1-.65-2.57c0-.43-.06-.9-.06-1.44A10.82,10.82,0,0,1,9,25c.77-4.26,3.59-9.16,4.58-10.81.38.62,1.18,2,2,3.69.27.53.53,1.1.79,1.68l.26.6c.36.85.66,1.68.91,2.43A14.9,14.9,0,0,1,18.32,27c0,2.77-.61,4.52-1.86,5.33A4.17,4.17,0,0,1,14.62,33Z"/>
              <g>
                <path class="cls-2" d="M17.45,27.1c0,3.91-1.36,4.93-3.17,5.12l-.12-6-.07-3.31L14,19.59l0-2.27c0-.37-.14-.67-.31-.67h-.2c-.17,0-.31.3-.31.67l-.07,3.21L13,24,13,27.4l-.1,4.83a3,3,0,0,1-2.76-2,8.28,8.28,0,0,1-.47-2.9,2.17,2.17,0,0,1,0-.26,13.19,13.19,0,0,1,.68-3.77,37.25,37.25,0,0,1,3.24-7.14s.62,1,1.36,2.54c.34.68.7,1.47,1,2.31a25.12,25.12,0,0,1,.89,2.48A12.8,12.8,0,0,1,17.45,27.1Z"/>
                <path class="cls-1" d="M17,23.47l-.09-.28a0,0,0,0,0,0,0c-.22-.7-.49-1.42-.8-2.18s-.66-1.53-1.06-2.33c-.27-.55-.53-1-.73-1.43s-.38-.67-.49-.86a2.2,2.2,0,0,1-.14-.25l-.13-.22-.14.22-.16.28c-.1.16-.23.4-.4.7h0a35.82,35.82,0,0,0-2.64,6,.49.49,0,0,1,0,.07.19.19,0,0,1,0,.08,13.24,13.24,0,0,0-.68,3.81v.27a8.58,8.58,0,0,0,.48,3,3,3,0,0,0,2.58,2l.31.05H13v-.48l.08-4.37.07-3.44.07-3.43.07-3.35a.34.34,0,0,1,0-.1.53.53,0,0,1,.15-.42h.2s.16.18.16.52v.06l.07,3.22v.14L14,24v.16L14,27.47v.16l.08,4.27v.48h.17l.3-.05c2.07-.35,3-2,3-5.24A13.33,13.33,0,0,0,17,23.47Zm-.06,6.47c-.05.14-.11.28-.16.41A2.71,2.71,0,0,1,14.59,32l-.16,0v-.16l-.08-3.94v-.6l-.06-2.85V23.9l-.06-2.85v-.59l0-2.5v-.38c0,.11.11.2.17.31.14.28.29.58.44.9.4.79.75,1.57,1.06,2.3.22.54.42,1.07.59,1.58.09.27.18.52.25.77a.5.5,0,0,1,0,.13,12.2,12.2,0,0,1,.59,3.34,1.09,1.09,0,0,1,0,.18c0,.14,0,.27,0,.4A8.58,8.58,0,0,1,16.93,29.94Zm-4-9.56V21l-.06,2.84v.59l-.06,2.85v.59l-.09,4v.17l-.16,0a2.67,2.67,0,0,1-2.24-1.68c0-.05,0-.08-.06-.14a2.31,2.31,0,0,1-.1-.28,8.54,8.54,0,0,1-.36-2.43v-.58a13.27,13.27,0,0,1,.64-3.46.14.14,0,0,1,0-.07c.08-.25.16-.5.25-.74a34.51,34.51,0,0,1,2.13-4.85l.18-.33v.36Z"/>
              </g>
            </g>
            <g>
              <path class="cls-2" d="M14.39,37.84a.65.65,0,0,1-.62.66h-.4a.65.65,0,0,1-.62-.66l.09-4.53,0-1.08L13,27.4,13,24l.06-3.43.07-3.21c0-.37.14-.67.31-.67h.2c.17,0,.31.3.31.67l0,2.27.06,3.3.07,3.31.12,6,0,1.09Z"/>
              <path class="cls-1" d="M14.52,28.1l0-.59-.05-2.85,0-.59,0-2.85v-.59l0-2.33c-.06-.11-.12-.23-.17-.34a1.82,1.82,0,0,1-.16-.31v-.33c0-.37-.14-.67-.31-.67h-.2c-.17,0-.31.3-.31.67v.22a0,0,0,0,1,0,0l-.16.27a2.91,2.91,0,0,1-.18.35l-.05,2.4v.59L12.7,24l0,.6,0,2.85V28l-.08,3.83a.76.76,0,0,0,.16,0l.17,0H13l.16,0,.3-14.62a.81.81,0,0,1,.06-.35h.05a.81.81,0,0,1,.07.35L14,31.92l.17,0h.31l.16,0Zm0,0,0-.59-.05-2.85,0-.59,0-2.85v-.59l0-2.33c-.06-.11-.12-.23-.17-.34a1.82,1.82,0,0,1-.16-.31v-.33c0-.37-.14-.67-.31-.67h-.2c-.17,0-.31.3-.31.67v.22a0,0,0,0,1,0,0l-.16.27a2.91,2.91,0,0,1-.18.35l-.05,2.4v.59L12.7,24l0,.6,0,2.85V28l-.08,3.83a.76.76,0,0,0,.16,0l.17,0H13l.16,0,.3-14.62a.81.81,0,0,1,.06-.35h.05a.81.81,0,0,1,.07.35L14,31.92l.17,0h.31l.16,0Zm0,0,0-.59-.05-2.85,0-.59,0-2.85v-.59l0-2.33c-.06-.11-.12-.23-.17-.34a1.82,1.82,0,0,1-.16-.31v-.33c0-.37-.14-.67-.31-.67h-.2c-.17,0-.31.3-.31.67v.22a0,0,0,0,1,0,0l-.16.27a2.91,2.91,0,0,1-.18.35l-.05,2.4v.59L12.7,24l0,.6,0,2.85V28l-.08,3.83a.76.76,0,0,0,.16,0l.17,0H13l.16,0,.3-14.62a.81.81,0,0,1,.06-.35h.05a.81.81,0,0,1,.07.35L14,31.92l.17,0h.31l.16,0Zm0,0,0-.59-.05-2.85,0-.59,0-2.85v-.59l0-2.33c-.06-.11-.12-.23-.17-.34a1.82,1.82,0,0,1-.16-.31v0h0v-.27c0-.37-.14-.67-.31-.67h-.2c-.17,0-.31.3-.31.67v.22a0,0,0,0,1,0,0l-.16.27a2.91,2.91,0,0,1-.18.35l-.05,2.4v.59L12.7,24l0,.6,0,2.85V28l-.08,3.83a.76.76,0,0,0,.16,0l.17,0H13l.16,0,.3-14.62a.81.81,0,0,1,.06-.35h.05a.81.81,0,0,1,.07.35L14,31.92l.17,0h.31l.16,0Zm0,0,0-.59-.05-2.85,0-.59,0-2.85v-.59l0-2.33c-.06-.11-.12-.23-.17-.34a1.82,1.82,0,0,1-.16-.31v0h0v-.27c0-.37-.14-.67-.31-.67h-.2c-.17,0-.31.3-.31.67v.22a0,0,0,0,1,0,0l-.16.27a2.91,2.91,0,0,1-.18.35l-.05,2.4v.59L12.7,24l0,.6,0,2.85V28l-.08,3.83a.76.76,0,0,0,.16,0l.17,0H13l.16,0,.3-14.62a.81.81,0,0,1,.06-.35h.05a.81.81,0,0,1,.07.35L14,31.92l.17,0h.31l.16,0Zm.16,8.18,0-2.68v-.32l0-1v-.49l-.07-3.74,0-.59-.05-2.85,0-.59,0-2.85v-.59l0-2.33V17.22c0-.45-.21-.78-.49-.86a.32.32,0,0,0-.14,0h-.22a.39.39,0,0,0-.21.06,1,1,0,0,0-.4.7h0a1.27,1.27,0,0,0,0,.2v.87l-.05,2.4v.59L12.7,24l0,.6,0,2.85V28l-.08,3.83V33l0,.64-.08,4.23a1,1,0,0,0,.13.49,1,1,0,0,0,.82.5h.4a1,1,0,0,0,.94-1Zm-.61,1.55a.32.32,0,0,1-.3.34h-.4a.31.31,0,0,1-.3-.33v-.07l.08-4.12,0-1.71.3-14.62a.81.81,0,0,1,.06-.35h.05a.81.81,0,0,1,.07.35L14,31.92l0,1.73.06,3.18Zm.45-9.73,0-.59-.05-2.85,0-.59,0-2.85v-.59l0-2.33c-.06-.11-.12-.23-.17-.34a1.82,1.82,0,0,1-.16-.31v0h0v-.27c0-.37-.14-.67-.31-.67h-.2c-.17,0-.31.3-.31.67v.22a0,0,0,0,1,0,0l-.16.27a2.91,2.91,0,0,1-.18.35l-.05,2.4v.59L12.7,24l0,.6,0,2.85V28l-.08,3.83a.76.76,0,0,0,.16,0l.17,0H13l.16,0,.3-14.62a.81.81,0,0,1,.06-.35h.05a.81.81,0,0,1,.07.35L14,31.92l.17,0h.31l.16,0Zm0,0,0-.59-.05-2.85,0-.59,0-2.85v-.59l0-2.33c-.06-.11-.12-.23-.17-.34a1.82,1.82,0,0,1-.16-.31v0h0v-.27c0-.37-.14-.67-.31-.67h-.2c-.17,0-.31.3-.31.67v.22a0,0,0,0,1,0,0l-.16.27a2.91,2.91,0,0,1-.18.35l-.05,2.4v.59L12.7,24l0,.6,0,2.85V28l-.08,3.83a.76.76,0,0,0,.16,0l.17,0H13l.16,0,.3-14.62a.81.81,0,0,1,.06-.35h.05a.81.81,0,0,1,.07.35L14,31.92l.17,0h.31l.16,0Zm0,0,0-.59-.05-2.85,0-.59,0-2.85v-.59l0-2.33c-.06-.11-.12-.23-.17-.34a1.82,1.82,0,0,1-.16-.31v-.33c0-.37-.14-.67-.31-.67h-.2c-.17,0-.31.3-.31.67v.22a0,0,0,0,1,0,0l-.16.27a2.91,2.91,0,0,1-.18.35l-.05,2.4v.59L12.7,24l0,.6,0,2.85V28l-.08,3.83a.76.76,0,0,0,.16,0l.17,0H13l.16,0,.3-14.62a.81.81,0,0,1,.06-.35h.05a.81.81,0,0,1,.07.35L14,31.92l.17,0h.31l.16,0Zm0,0,0-.59-.05-2.85,0-.59,0-2.85v-.59l0-2.33c-.06-.11-.12-.23-.17-.34a1.82,1.82,0,0,1-.16-.31v-.33c0-.37-.14-.67-.31-.67h-.2c-.17,0-.31.3-.31.67v.22a0,0,0,0,1,0,0l-.16.27a2.91,2.91,0,0,1-.18.35l-.05,2.4v.59L12.7,24l0,.6,0,2.85V28l-.08,3.83a.76.76,0,0,0,.16,0l.17,0H13l.16,0,.3-14.62a.81.81,0,0,1,.06-.35h.05a.81.81,0,0,1,.07.35L14,31.92l.17,0h.31l.16,0Zm0,0,0-.59-.05-2.85,0-.59,0-2.85v-.59l0-2.33c-.06-.11-.12-.23-.17-.34a1.82,1.82,0,0,1-.16-.31v-.33c0-.37-.14-.67-.31-.67h-.2c-.17,0-.31.3-.31.67v.22a0,0,0,0,1,0,0l-.16.27a2.91,2.91,0,0,1-.18.35l-.05,2.4v.59L12.7,24l0,.6,0,2.85V28l-.08,3.83a.76.76,0,0,0,.16,0l.17,0H13l.16,0,.3-14.62a.81.81,0,0,1,.06-.35h.05a.81.81,0,0,1,.07.35L14,31.92l.17,0h.31l.16,0Z"/>
            </g>
            <g>
              <rect class="cls-1" x="15.17" y="19.95" width="0.41" height="3.95" transform="translate(-11 17.29) rotate(-44.99)"/>
              <rect class="cls-1" x="15.53" y="23.26" width="0.41" height="4.81" transform="translate(-13.54 18.64) rotate(-45)"/>
              <rect class="cls-1" x="15.33" y="26.81" width="0.41" height="4.04" transform="translate(-15.84 19.43) rotate(-45)"/>
            </g>
            <g>
              <rect class="cls-1" x="9.72" y="21.72" width="3.95" height="0.41" transform="translate(-12.08 14.69) rotate(-45)"/>
              <rect class="cls-1" x="8.92" y="25.46" width="4.81" height="0.41" transform="translate(-14.83 15.53) rotate(-45)"/>
              <rect class="cls-1" x="9.51" y="28.63" width="4.04" height="0.41" transform="translate(-17.01 16.6) rotate(-45)"/>
            </g>
          </g>
          <g>
            <g>
              <path class="cls-1" d="M79.87,22.44c-.25-.78-.56-1.62-.92-2.48l-.27-.62c-.26-.58-.53-1.17-.8-1.71-.93-1.87-1.8-3.33-2.13-3.87l-.2-.31L75.29,13l-.27.41a.79.79,0,0,0-.1.14l-.09.15c-.91,1.48-4,6.67-4.76,11.18A11.3,11.3,0,0,0,69.86,27c0,.56,0,1.06.07,1.5a7.79,7.79,0,0,0,.72,2.81,4.16,4.16,0,0,0,3.6,2.28,1.12,1.12,0,0,0,.31,0h0l.33,0,0-1.71-.16,0h-.15l-.17,0a.76.76,0,0,1-.16,0,2.56,2.56,0,0,1-2.12-1.63l0-.08L72,29.79a9.59,9.59,0,0,1-.32-2.45v0a1.55,1.55,0,0,1,0-.22c0-.12,0-.22,0-.36a13.79,13.79,0,0,1,.65-3.32,1.56,1.56,0,0,0,.05-.16c.09-.29.19-.59.3-.88a36.25,36.25,0,0,1,1.86-4.21,2.91,2.91,0,0,0,.18-.35l.16-.27a0,0,0,0,0,0,0v0c0-.11.11-.2.16-.3l.21-.39.3.55c0,.08.1.13.15.21h0v0a1.82,1.82,0,0,0,.16.31l.17.34c.09.18.19.37.29.58.39.77.74,1.54,1,2.28.17.42.33.83.47,1.23.08.21.15.41.21.62l.09.26a3.38,3.38,0,0,1,.11.34,13,13,0,0,1,.57,3.12,2.36,2.36,0,0,1,0,.37v.23a8.81,8.81,0,0,1-.33,2.46,2.72,2.72,0,0,1-.15.43,3.63,3.63,0,0,1-.27.52,2.48,2.48,0,0,1-1.78,1.1l-.16,0h-.31l-.17,0,0,1.73.32,0h0l.3,0a4.61,4.61,0,0,0,2.18-.72C80,31.94,80.71,30,80.71,27A15.2,15.2,0,0,0,79.87,22.44ZM76.37,33v-.44a3.22,3.22,0,0,0,2.3-1.42,7.34,7.34,0,0,0,.86-4,13.14,13.14,0,0,0-.62-3.66c-.07-.22-.13-.43-.21-.66-.2-.59-.43-1.21-.69-1.87s-.67-1.53-1.07-2.33C76.19,17.07,75.57,16,75.56,16l-.28-.45L75,16a38.86,38.86,0,0,0-3.27,7.21,13.31,13.31,0,0,0-.69,3.87v.26a8.59,8.59,0,0,0,.5,3,3.18,3.18,0,0,0,2.73,2.13V33a3.49,3.49,0,0,1-3-1.94,7.35,7.35,0,0,1-.65-2.57c0-.43-.06-.9-.06-1.44a10.82,10.82,0,0,1,.19-2c.77-4.26,3.59-9.16,4.58-10.81.38.62,1.18,2,2,3.69.27.53.53,1.1.79,1.68l.26.6c.36.85.66,1.68.91,2.43A14.9,14.9,0,0,1,80.07,27c0,2.77-.61,4.52-1.86,5.33A4.17,4.17,0,0,1,76.37,33Z"/>
              <g>
                <path class="cls-2" d="M79.2,27.1C79.2,31,77.84,32,76,32.22l-.12-6-.07-3.31-.06-3.3,0-2.27c0-.37-.14-.67-.31-.67h-.2c-.17,0-.31.3-.31.67l-.07,3.21L74.78,24l-.07,3.44-.1,4.83a3,3,0,0,1-2.76-2,8.28,8.28,0,0,1-.47-2.9,2.17,2.17,0,0,1,0-.26,13.19,13.19,0,0,1,.68-3.77,37.25,37.25,0,0,1,3.24-7.14s.61,1,1.36,2.54c.34.68.7,1.47,1,2.31s.63,1.64.89,2.48A12.8,12.8,0,0,1,79.2,27.1Z"/>
                <path class="cls-1" d="M78.74,23.47l-.09-.28a0,0,0,0,0,0,0c-.22-.7-.49-1.42-.8-2.18s-.66-1.53-1.06-2.33c-.27-.55-.53-1-.73-1.43s-.38-.67-.49-.86a2.2,2.2,0,0,1-.14-.25l-.13-.22-.14.22-.16.28c-.1.16-.23.4-.4.7h0a35.82,35.82,0,0,0-2.64,6,.49.49,0,0,1,0,.07.19.19,0,0,1,0,.08,13.24,13.24,0,0,0-.68,3.81v.27a8.58,8.58,0,0,0,.48,3,3,3,0,0,0,2.58,2l.31.05h.17v-.48l.08-4.37.07-3.44L75,20.67l.07-3.35a.34.34,0,0,1,0-.1.53.53,0,0,1,.15-.42h.2s.16.18.16.52v.06l.07,3.22v.14L75.71,24v.16l.06,3.28v.16l.08,4.27v.48h.17l.3-.05c2.07-.35,3-2,3-5.24A13.33,13.33,0,0,0,78.74,23.47Zm-.06,6.47c-.05.14-.11.28-.16.41A2.71,2.71,0,0,1,76.34,32l-.16,0v-.16l-.08-3.94v-.6L76,24.49V23.9L76,21.05v-.59l0-2.5v-.38c0,.11.11.2.17.31.14.28.29.58.44.9.4.79.75,1.57,1.06,2.3.22.54.42,1.07.59,1.58.09.27.18.52.25.77a.5.5,0,0,1,0,.13A12.2,12.2,0,0,1,79,26.91a1.09,1.09,0,0,1,0,.18c0,.14,0,.27,0,.4A8.58,8.58,0,0,1,78.68,29.94Zm-4-9.56V21l-.06,2.84v.59l-.06,2.85v.59l-.09,4v.17l-.16,0a2.67,2.67,0,0,1-2.24-1.68c0-.05,0-.08-.06-.14a2.31,2.31,0,0,1-.1-.28,8.54,8.54,0,0,1-.36-2.43v-.58a13.27,13.27,0,0,1,.64-3.46.14.14,0,0,1,0-.07c.08-.25.16-.5.25-.74a34.51,34.51,0,0,1,2.13-4.85l.18-.33v.36Z"/>
              </g>
            </g>
            <g>
              <path class="cls-2" d="M76.14,37.84a.65.65,0,0,1-.62.66h-.4a.65.65,0,0,1-.62-.66l.09-4.53,0-1.08.1-4.83L74.78,24l.06-3.43.07-3.21c0-.37.14-.67.31-.67h.2c.17,0,.31.3.31.67l0,2.27.06,3.3.07,3.31.12,6,0,1.09Z"/>
              <path class="cls-1" d="M76.27,28.1l0-.59,0-2.85,0-.59-.05-2.85v-.59l-.05-2.33L75.9,18a1.82,1.82,0,0,1-.16-.31v-.33c0-.37-.14-.67-.31-.67h-.2c-.17,0-.31.3-.31.67v.22a0,0,0,0,1,0,0l-.16.27a2.91,2.91,0,0,1-.18.35l0,2.4v.59l0,2.83,0,.6-.05,2.85V28l-.08,3.83a.76.76,0,0,0,.16,0l.17,0h.15l.16,0,.3-14.62a.81.81,0,0,1,.06-.35h0a.81.81,0,0,1,.07.35l.29,14.6.17,0h.31l.16,0Zm0,0,0-.59,0-2.85,0-.59-.05-2.85v-.59l-.05-2.33L75.9,18a1.82,1.82,0,0,1-.16-.31v-.33c0-.37-.14-.67-.31-.67h-.2c-.17,0-.31.3-.31.67v.22a0,0,0,0,1,0,0l-.16.27a2.91,2.91,0,0,1-.18.35l0,2.4v.59l0,2.83,0,.6-.05,2.85V28l-.08,3.83a.76.76,0,0,0,.16,0l.17,0h.15l.16,0,.3-14.62a.81.81,0,0,1,.06-.35h0a.81.81,0,0,1,.07.35l.29,14.6.17,0h.31l.16,0Zm0,0,0-.59,0-2.85,0-.59-.05-2.85v-.59l-.05-2.33L75.9,18a1.82,1.82,0,0,1-.16-.31v-.33c0-.37-.14-.67-.31-.67h-.2c-.17,0-.31.3-.31.67v.22a0,0,0,0,1,0,0l-.16.27a2.91,2.91,0,0,1-.18.35l0,2.4v.59l0,2.83,0,.6-.05,2.85V28l-.08,3.83a.76.76,0,0,0,.16,0l.17,0h.15l.16,0,.3-14.62a.81.81,0,0,1,.06-.35h0a.81.81,0,0,1,.07.35l.29,14.6.17,0h.31l.16,0Zm0,0,0-.59,0-2.85,0-.59-.05-2.85v-.59l-.05-2.33L75.9,18a1.82,1.82,0,0,1-.16-.31v0h0v-.27c0-.37-.14-.67-.31-.67h-.2c-.17,0-.31.3-.31.67v.22a0,0,0,0,1,0,0l-.16.27a2.91,2.91,0,0,1-.18.35l0,2.4v.59l0,2.83,0,.6-.05,2.85V28l-.08,3.83a.76.76,0,0,0,.16,0l.17,0h.15l.16,0,.3-14.62a.81.81,0,0,1,.06-.35h0a.81.81,0,0,1,.07.35l.29,14.6.17,0h.31l.16,0Zm0,0,0-.59,0-2.85,0-.59-.05-2.85v-.59l-.05-2.33L75.9,18a1.82,1.82,0,0,1-.16-.31v0h0v-.27c0-.37-.14-.67-.31-.67h-.2c-.17,0-.31.3-.31.67v.22a0,0,0,0,1,0,0l-.16.27a2.91,2.91,0,0,1-.18.35l0,2.4v.59l0,2.83,0,.6-.05,2.85V28l-.08,3.83a.76.76,0,0,0,.16,0l.17,0h.15l.16,0,.3-14.62a.81.81,0,0,1,.06-.35h0a.81.81,0,0,1,.07.35l.29,14.6.17,0h.31l.16,0Zm.16,8.18-.05-2.68v-.32l0-1v-.49l-.07-3.74,0-.59,0-2.85,0-.59-.05-2.85v-.59l-.05-2.33V17.22c0-.45-.21-.78-.49-.86a.32.32,0,0,0-.14,0H75.2a.39.39,0,0,0-.21.06,1,1,0,0,0-.4.7h0a1.27,1.27,0,0,0,0,.2v.87l0,2.4v.59l0,2.83,0,.6-.05,2.85V28l-.08,3.83V33l0,.64-.08,4.23a1,1,0,0,0,.13.49,1,1,0,0,0,.82.5h.4a1,1,0,0,0,.94-1Zm-.61,1.55a.32.32,0,0,1-.3.34h-.4a.31.31,0,0,1-.3-.33v-.07l.08-4.12,0-1.71.3-14.62a.81.81,0,0,1,.06-.35h0a.81.81,0,0,1,.07.35l.29,14.6,0,1.73.06,3.18Zm.45-9.73,0-.59,0-2.85,0-.59-.05-2.85v-.59l-.05-2.33L75.9,18a1.82,1.82,0,0,1-.16-.31v0h0v-.27c0-.37-.14-.67-.31-.67h-.2c-.17,0-.31.3-.31.67v.22a0,0,0,0,1,0,0l-.16.27a2.91,2.91,0,0,1-.18.35l0,2.4v.59l0,2.83,0,.6-.05,2.85V28l-.08,3.83a.76.76,0,0,0,.16,0l.17,0h.15l.16,0,.3-14.62a.81.81,0,0,1,.06-.35h0a.81.81,0,0,1,.07.35l.29,14.6.17,0h.31l.16,0Zm0,0,0-.59,0-2.85,0-.59-.05-2.85v-.59l-.05-2.33L75.9,18a1.82,1.82,0,0,1-.16-.31v0h0v-.27c0-.37-.14-.67-.31-.67h-.2c-.17,0-.31.3-.31.67v.22a0,0,0,0,1,0,0l-.16.27a2.91,2.91,0,0,1-.18.35l0,2.4v.59l0,2.83,0,.6-.05,2.85V28l-.08,3.83a.76.76,0,0,0,.16,0l.17,0h.15l.16,0,.3-14.62a.81.81,0,0,1,.06-.35h0a.81.81,0,0,1,.07.35l.29,14.6.17,0h.31l.16,0Zm0,0,0-.59,0-2.85,0-.59-.05-2.85v-.59l-.05-2.33L75.9,18a1.82,1.82,0,0,1-.16-.31v-.33c0-.37-.14-.67-.31-.67h-.2c-.17,0-.31.3-.31.67v.22a0,0,0,0,1,0,0l-.16.27a2.91,2.91,0,0,1-.18.35l0,2.4v.59l0,2.83,0,.6-.05,2.85V28l-.08,3.83a.76.76,0,0,0,.16,0l.17,0h.15l.16,0,.3-14.62a.81.81,0,0,1,.06-.35h0a.81.81,0,0,1,.07.35l.29,14.6.17,0h.31l.16,0Zm0,0,0-.59,0-2.85,0-.59-.05-2.85v-.59l-.05-2.33L75.9,18a1.82,1.82,0,0,1-.16-.31v-.33c0-.37-.14-.67-.31-.67h-.2c-.17,0-.31.3-.31.67v.22a0,0,0,0,1,0,0l-.16.27a2.91,2.91,0,0,1-.18.35l0,2.4v.59l0,2.83,0,.6-.05,2.85V28l-.08,3.83a.76.76,0,0,0,.16,0l.17,0h.15l.16,0,.3-14.62a.81.81,0,0,1,.06-.35h0a.81.81,0,0,1,.07.35l.29,14.6.17,0h.31l.16,0Zm0,0,0-.59,0-2.85,0-.59-.05-2.85v-.59l-.05-2.33L75.9,18a1.82,1.82,0,0,1-.16-.31v-.33c0-.37-.14-.67-.31-.67h-.2c-.17,0-.31.3-.31.67v.22a0,0,0,0,1,0,0l-.16.27a2.91,2.91,0,0,1-.18.35l0,2.4v.59l0,2.83,0,.6-.05,2.85V28l-.08,3.83a.76.76,0,0,0,.16,0l.17,0h.15l.16,0,.3-14.62a.81.81,0,0,1,.06-.35h0a.81.81,0,0,1,.07.35l.29,14.6.17,0h.31l.16,0Z"/>
            </g>
            <g>
              <rect class="cls-1" x="76.91" y="19.95" width="0.41" height="3.95" transform="translate(7.08 60.94) rotate(-44.99)"/>
              <rect class="cls-1" x="77.28" y="23.26" width="0.41" height="4.81" transform="translate(4.55 62.3) rotate(-45)"/>
              <rect class="cls-1" x="77.08" y="26.81" width="0.41" height="4.04" transform="translate(2.25 63.1) rotate(-45)"/>
            </g>
            <g>
              <rect class="cls-1" x="71.47" y="21.72" width="3.95" height="0.41" transform="translate(6.01 58.36) rotate(-45)"/>
              <rect class="cls-1" x="70.67" y="25.46" width="4.81" height="0.41" transform="translate(3.26 59.19) rotate(-45)"/>
              <rect class="cls-1" x="71.26" y="28.63" width="4.04" height="0.41" transform="translate(1.07 60.26) rotate(-45)"/>
            </g>
          </g>
        </g>
        <g id="House">
          <rect class="cls-1" x="37.53" y="37.2" width="15.03" height="0.69"/>
          <path class="cls-1" d="M46.3,11H42.49a1.44,1.44,0,0,0-1.44,1.45v4.86h6.68V12.48A1.44,1.44,0,0,0,46.3,11Zm.75,5.61H41.74V12.48a.76.76,0,0,1,.75-.76H46.3a.75.75,0,0,1,.75.76Z"/>
          <path class="cls-1" d="M35.89,24.78a1.6,1.6,0,0,0-1.58-1.35H30.79a1.62,1.62,0,0,0-1.63,1.63v4.7a1.59,1.59,0,0,0,.71,1.35,1.56,1.56,0,0,0,.92.3h3.52a1.6,1.6,0,0,0,1.41-.87,1.49,1.49,0,0,0,.2-.78v-4.7A2.4,2.4,0,0,0,35.89,24.78Zm-6,.28a.86.86,0,0,1,.86-.86h3.52a.86.86,0,0,1,.81.64.73.73,0,0,1,0,.22v4.7a.86.86,0,0,1-.84.87H30.79a.86.86,0,0,1-.86-.87Z"/>
          <path class="cls-1" d="M58.55,23.47H55a1.61,1.61,0,0,0-1.55,1.21,1.56,1.56,0,0,0-.06.44v4.7a2,2,0,0,0,.11.61,1.63,1.63,0,0,0,1.5,1h3.52A1.54,1.54,0,0,0,59.68,31a1.6,1.6,0,0,0,.49-1.18v-4.7A1.63,1.63,0,0,0,58.55,23.47Zm.86,6.35a.86.86,0,0,1-.86.87H55a.84.84,0,0,1-.54-.2.88.88,0,0,1-.3-.67v-4.7a1.23,1.23,0,0,1,.07-.39h0a.85.85,0,0,1,.75-.47h3.52a.85.85,0,0,1,.86.86Z"/>
          <path class="cls-1" d="M47.44,24.36a2.05,2.05,0,0,0-1.75-.95h-2.6a2,2,0,0,0-1.76,1A2,2,0,0,0,41,25.54V35.71a2.2,2.2,0,0,0,.58,1.48,2.16,2.16,0,0,0,1.52.65h2.6a2.09,2.09,0,0,0,1.52-.65,2.2,2.2,0,0,0,.58-1.48V25.54A2.07,2.07,0,0,0,47.44,24.36ZM47,35.71A1.3,1.3,0,0,1,45.69,37h-2.6a1.31,1.31,0,0,1-1.29-1.31V25.54a1.29,1.29,0,0,1,.75-1.18,1.26,1.26,0,0,1,.54-.13h2.6a1,1,0,0,1,.45.1A1.27,1.27,0,0,1,47,25.54Z"/>
          <g>
            <path class="cls-1" d="M42.75,17.34v0h3.44v0Zm0,0v0h3.44v0Zm0,0v0h3.44v0Zm0,0v0h3.44v0Zm0,0v0h3.44v0Zm0,0v0h3.44v0Zm0,0v0h3.44v0Zm-15.89-.73a1.77,1.77,0,0,1,.16.77H61.88l.27-.77ZM62,21.28H26.73c.09.24.33.48.33.75l34.87,0A1.76,1.76,0,0,0,62,21.28ZM42.75,17.34v0h3.44v0Zm0,0v0h3.44v0Zm0,0v0h3.44v0Zm0,0v0h3.44v0Zm0,0v0h3.44v0Zm0,0v0h3.44v0Z"/>
            <path class="cls-1" d="M59.56,17.26v1.57H60V17.26Zm-1.91,0v1.57H58V17.26Zm-1.92,0v1.57h.39V17.26Zm-1.9,0v1.57h.37V17.26Zm-1.91,0v1.57h.38V17.26Zm-1.91,0v1.57h.38V17.26Zm-1.92,0v1.57h.38V17.26Zm-1.9,0v1.57h.39V17.26Zm-1.91,0v1.57h.38V17.26Zm-1.92,0v1.57h.39V17.26Zm-1.9,0v1.57h.39V17.26Zm-1.91,0v1.57h.38V17.26Zm-1.91,0v1.57H37V17.26Zm-1.9,0v1.57h.38V17.26Zm-1.92,0v1.57h.39V17.26Zm-1.91,0v1.57h.38V17.26Zm-1.9,0v1.57h.37V17.26Z"/>
          </g>
          <g>
            <path class="cls-1" d="M59.64,32.82v1.57H60V32.82Zm-1.9,0v1.57h.38V32.82Zm-1.91,0v1.57h.38V32.82Zm-1.92,0v1.57h.38V32.82Zm-1.9,0v1.57h.38V32.82Z"/>
            <path class="cls-1" d="M36.42,32.82v1.57h.38V32.82Zm-1.9,0v1.57h.39V32.82Zm-1.91,0v1.57H33V32.82Zm-1.92,0v1.57h.39V32.82Zm-1.89,0v1.57h.36V32.82Z"/>
            <path class="cls-1" d="M38,32.5H26a3.18,3.18,0,0,1-.73.09.12.12,0,0,0-.08,0c-.2.09-.19.75-.16.71s.54-.14.67-.14H38a.36.36,0,0,1,.36.36v3.27a.36.36,0,0,1-.28.35H25.69a.36.36,0,0,1-.36-.36h-.7a.92.92,0,0,0,.14.5,1,1,0,0,0,.92.56H38a1,1,0,0,0,1-.71,1,1,0,0,0,.06-.35V33.57A1.06,1.06,0,0,0,38,32.5Zm-11.61.69a0,0,0,0,0,0,0h.08S26.36,33.19,26.34,33.19Z"/>
            <path class="cls-1" d="M64.13,33.33A1.41,1.41,0,0,0,64,33s0,0-.05-.07a1,1,0,0,0-.43-.36v0a2.06,2.06,0,0,0-.32-.07H50.82a1.07,1.07,0,0,0-1.06,1v3.28a1.09,1.09,0,0,0,.06.36,1,1,0,0,0,1,.71H63.08a1.06,1.06,0,0,0,.88-.47,1,1,0,0,0,.18-.6v-.2a1.51,1.51,0,0,1-.38.06h0c-.09,0-.07.11-.16.09l-.11,0a.36.36,0,0,1-.36.36H50.82a.35.35,0,0,1-.35-.36V33.55a.15.15,0,0,1,0-.06.34.34,0,0,1,.34-.3H63.08a.16.16,0,0,1,.1,0,.32.32,0,0,1,.18.14.3.3,0,0,1,.08.2v.25l.27,0a.58.58,0,0,1,.23,0,.49.49,0,0,1,.2.05v-.3A1.62,1.62,0,0,0,64.13,33.33Z"/>
          </g>
          <g>
            <g>
              <g>
                <path class="cls-1" d="M25.19,33.84a1.44,1.44,0,1,1-1.41,1.44,1.43,1.43,0,0,1,1.41-1.44m0-.77a2.22,2.22,0,1,0,2.18,2.21,2.19,2.19,0,0,0-2.18-2.21Z"/>
                <path class="cls-1" d="M25.19,34.6a.69.69,0,1,1-.67.68.68.68,0,0,1,.67-.68m0-.17a.84.84,0,0,0-.84.85.84.84,0,1,0,.84-.85Z"/>
              </g>
              <g>
                <path class="cls-1" d="M25.19,29.42a1.45,1.45,0,1,1-1.41,1.44,1.43,1.43,0,0,1,1.41-1.44m0-.77a2.22,2.22,0,1,0,2.18,2.21,2.19,2.19,0,0,0-2.18-2.21Z"/>
                <path class="cls-1" d="M25.19,30.18a.69.69,0,1,1-.67.68.68.68,0,0,1,.67-.68m0-.17a.86.86,0,0,0,0,1.71.86.86,0,0,0,0-1.71Z"/>
              </g>
              <g>
                <path class="cls-1" d="M25.19,25a1.45,1.45,0,1,1-1.41,1.45A1.43,1.43,0,0,1,25.19,25m0-.77a2.22,2.22,0,1,0,2.18,2.22,2.19,2.19,0,0,0-2.18-2.22Z"/>
                <path class="cls-1" d="M25.19,25.76a.69.69,0,1,1-.67.69.68.68,0,0,1,.67-.69m0-.17a.86.86,0,1,0,.84.86.84.84,0,0,0-.84-.86Z"/>
              </g>
              <g>
                <path class="cls-1" d="M25.19,20.59A1.44,1.44,0,1,1,23.78,22a1.43,1.43,0,0,1,1.41-1.44m0-.77A2.21,2.21,0,1,0,27.37,22a2.19,2.19,0,0,0-2.18-2.21Z"/>
                <path class="cls-1" d="M25.19,21.35a.68.68,0,1,1-.67.68.68.68,0,0,1,.67-.68m0-.17a.84.84,0,0,0-.84.85.84.84,0,1,0,.84-.85Z"/>
              </g>
              <g>
                <path class="cls-1" d="M25.19,16.15a1.45,1.45,0,1,1-1.41,1.45,1.43,1.43,0,0,1,1.41-1.45m0-.77a2.22,2.22,0,1,0,2.18,2.22,2.19,2.19,0,0,0-2.18-2.22Z"/>
                <path class="cls-1" d="M25.19,16.91a.69.69,0,1,1-.67.69.68.68,0,0,1,.67-.69m0-.17a.86.86,0,1,0,.84.86.84.84,0,0,0-.84-.86Z"/>
              </g>
            </g>
            <g>
              <g>
                <path class="cls-1" d="M63.58,33.84a1.44,1.44,0,1,1-1.41,1.44,1.43,1.43,0,0,1,1.41-1.44m0-.77a2.22,2.22,0,1,0,2.18,2.21,2.2,2.2,0,0,0-2.18-2.21Z"/>
                <path class="cls-1" d="M63.58,34.6a.69.69,0,1,1-.67.68.68.68,0,0,1,.67-.68m0-.17a.85.85,0,0,0-.84.85.84.84,0,1,0,1.68,0,.84.84,0,0,0-.84-.85Z"/>
              </g>
              <g>
                <path class="cls-1" d="M63.58,29.42a1.45,1.45,0,1,1-1.41,1.44,1.43,1.43,0,0,1,1.41-1.44m0-.77a2.22,2.22,0,1,0,2.18,2.21,2.2,2.2,0,0,0-2.18-2.21Z"/>
                <path class="cls-1" d="M63.58,30.18a.69.69,0,1,1-.67.68.68.68,0,0,1,.67-.68m0-.17a.86.86,0,1,0,.84.85.85.85,0,0,0-.84-.85Z"/>
              </g>
              <g>
                <path class="cls-1" d="M63.58,25a1.45,1.45,0,1,1-1.41,1.45A1.43,1.43,0,0,1,63.58,25m0-.77a2.22,2.22,0,1,0,2.18,2.22,2.2,2.2,0,0,0-2.18-2.22Z"/>
                <path class="cls-1" d="M63.58,25.76a.69.69,0,1,1-.67.69.68.68,0,0,1,.67-.69m0-.17a.86.86,0,0,0,0,1.71.86.86,0,0,0,0-1.71Z"/>
              </g>
              <g>
                <path class="cls-1" d="M63.58,20.59A1.44,1.44,0,1,1,62.17,22a1.43,1.43,0,0,1,1.41-1.44m0-.77A2.21,2.21,0,1,0,65.76,22a2.2,2.2,0,0,0-2.18-2.21Z"/>
                <path class="cls-1" d="M63.58,21.35a.68.68,0,1,1-.67.68.68.68,0,0,1,.67-.68m0-.17a.85.85,0,0,0-.84.85.84.84,0,1,0,1.68,0,.84.84,0,0,0-.84-.85Z"/>
              </g>
              <g>
                <path class="cls-1" d="M63.58,16.15a1.45,1.45,0,1,1-1.41,1.45,1.43,1.43,0,0,1,1.41-1.45m0-.77a2.22,2.22,0,1,0,2.18,2.22,2.2,2.2,0,0,0-2.18-2.22Z"/>
                <path class="cls-1" d="M63.58,16.91a.69.69,0,1,1-.67.69.68.68,0,0,1,.67-.69m0-.17a.86.86,0,0,0,0,1.71.86.86,0,0,0,0-1.71Z"/>
              </g>
            </g>
          </g>
          <path class="cls-1" d="M44.8,7.62a.11.11,0,0,1,.08,0v0Zm-.46,0a1.58,1.58,0,0,0-.43,0h.86A1.58,1.58,0,0,0,44.34,7.57Zm.46,0a.11.11,0,0,1,.08,0v0Zm-.46,0a1.58,1.58,0,0,0-.43,0h.86A1.58,1.58,0,0,0,44.34,7.57Zm.46,0a.11.11,0,0,1,.08,0v0Zm-.46,0a1.58,1.58,0,0,0-.43,0h.86A1.58,1.58,0,0,0,44.34,7.57Zm.46,0a.11.11,0,0,1,.08,0v0Zm-.46,0a1.58,1.58,0,0,0-.43,0h.86A1.58,1.58,0,0,0,44.34,7.57Zm.46,0a.11.11,0,0,1,.08,0v0Zm-.46,0a1.58,1.58,0,0,0-.43,0h.86A1.58,1.58,0,0,0,44.34,7.57Zm.46,0a.11.11,0,0,1,.08,0v0Zm-.46,0a1.58,1.58,0,0,0-.43,0h.86A1.58,1.58,0,0,0,44.34,7.57Zm.46,0a.11.11,0,0,1,.08,0v0Zm-.46,0a1.58,1.58,0,0,0-.43,0h.86A1.58,1.58,0,0,0,44.34,7.57Zm.46,0a.11.11,0,0,1,.08,0v0Zm-.46,0a1.58,1.58,0,0,0-.43,0h.86A1.58,1.58,0,0,0,44.34,7.57Zm.46,0a.11.11,0,0,1,.08,0v0Zm-.46,0a1.58,1.58,0,0,0-.43,0h.86A1.58,1.58,0,0,0,44.34,7.57Zm.46,0a.11.11,0,0,1,.08,0v0Zm-.46,0a1.58,1.58,0,0,0-.43,0h.86A1.58,1.58,0,0,0,44.34,7.57Zm.46,0a.11.11,0,0,1,.08,0v0Zm-.46,0a1.58,1.58,0,0,0-.43,0h.86A1.58,1.58,0,0,0,44.34,7.57Zm.46,0a.11.11,0,0,1,.08,0v0Zm-.46,0a1.58,1.58,0,0,0-.43,0h.86A1.58,1.58,0,0,0,44.34,7.57Zm.46,0a.11.11,0,0,1,.08,0v0Zm-.89,0h.86a1.87,1.87,0,0,0-.86,0ZM68,13.25l-2-4.11-.17-.34L65,7l-.09-.18-.17-.36L63.16,3.1a3.59,3.59,0,0,0-.6-.91L62.35,2l0,0h0a2.84,2.84,0,0,0-.26-.24.52.52,0,0,0-.12-.07,1.26,1.26,0,0,0-.31-.22l-.28-.16a1.69,1.69,0,0,0-.27-.12l-.28-.09A.21.21,0,0,0,60.62,1a3.57,3.57,0,0,0-1-.14H29.12A4.41,4.41,0,0,0,28,1a3.62,3.62,0,0,0-1,.45s0,0,0,0a2.45,2.45,0,0,0-.41.31,4.73,4.73,0,0,0-.4.37l0,0c-.08.11-.16.21-.23.32l-.08.1a2.32,2.32,0,0,0-.28.49l-1.5,3.13s0,0,0,0a0,0,0,0,0,0,0L23.73,7,22.64,9.29h0l-.17.38-1.69,3.55a1.33,1.33,0,0,0-.11.3,1.19,1.19,0,0,0,0,.42,1,1,0,0,0,.06.38,1.61,1.61,0,0,0,.15.36,1.49,1.49,0,0,0,1.27.72H33.76a2.17,2.17,0,0,0,1.3-.44l1.35-1h0l.06,0,.23-.17,4-3.06h0l.52-.4,0,0,1.25-.94h0l.26-.22.52-.39a1.5,1.5,0,0,1,.6-.28,1.63,1.63,0,0,1,.76,0,1.56,1.56,0,0,1,.58.28l.17.13.88.65.3.23,0,0,.8.6v0h0l.31.23,3.65,2.73.29.22v0l.3.21.52.39,1.18.9a1.88,1.88,0,0,0,1.14.38H66.7a1.09,1.09,0,0,0,.4-.07,1.54,1.54,0,0,0,.35-.15h0a1.38,1.38,0,0,0,.48-.48A1.5,1.5,0,0,0,68,13.25Zm-.62.69a.47.47,0,0,1,0,.17l0,.09v0s0,0,0,.06a.35.35,0,0,1-.13.14.6.6,0,0,1-.47.2H54.88a1.12,1.12,0,0,1-.68-.23l0,0-.89-.67a0,0,0,0,1,0,0h0l-1-.79-.3-.22-2.63-2-.2-.14-.41-.31-.19-.14-.18-.14L48,9.73,46.22,8.39l-.46-.34s0,0-.06-.05a2.11,2.11,0,0,0-.78-.35l0,0s0,0,0,0v0h-.11a1.87,1.87,0,0,0-.86,0h0a1.64,1.64,0,0,0-.6.2A1.45,1.45,0,0,0,43,8l-.08.05-.44.34h0l-2.28,1.74h0l-.26.2v0h0l-3.57,2.7v0h0l-.27.2L34.6,14.34a1.33,1.33,0,0,1-.84.28H22.1a.67.67,0,0,1-.61-.36.75.75,0,0,1,0-.71l.4-.84.12-.25,1-2h0l.15-.36h0L24.48,7.2l.26-.52.12-.26v0L25,6.12l.12-.26,0,0,.16-.37.17-.32.81-1.73.16-.23a.09.09,0,0,1,0,0s0-.08.06-.09a.55.55,0,0,1,.13-.17v0a.28.28,0,0,1,.07-.09,3.28,3.28,0,0,1,.75-.65A1.69,1.69,0,0,1,27.75,2l.16-.07c.12,0,.23-.09.35-.12a3.08,3.08,0,0,1,.86-.12H59.79a.66.66,0,0,1,.14,0,1.81,1.81,0,0,1,.23,0l.31.06s0,0,.07,0a1.4,1.4,0,0,1,.37.14,1.77,1.77,0,0,1,.31.15,3.91,3.91,0,0,1,.41.3h0a1.29,1.29,0,0,1,.24.23h0v0a1.73,1.73,0,0,1,.21.25.52.52,0,0,1,.12.17,1.54,1.54,0,0,1,.23.37v0L63.68,6l.09.18,0,.06s0,0,0,0l.19.41.15.32,0,0,1.08,2.3.19.37,1.87,3.91c0,.07,0,.13.06.19v0A.61.61,0,0,1,67.4,13.94ZM44.34,7.57a1.58,1.58,0,0,0-.43,0h.86A1.58,1.58,0,0,0,44.34,7.57Zm.46,0a.11.11,0,0,1,.08,0v0Zm-.46,0a1.58,1.58,0,0,0-.43,0h.86A1.58,1.58,0,0,0,44.34,7.57Zm.46,0a.11.11,0,0,1,.08,0v0Zm-.46,0a1.58,1.58,0,0,0-.43,0h.86A1.58,1.58,0,0,0,44.34,7.57Zm.46,0a.11.11,0,0,1,.08,0v0Zm-.46,0a1.58,1.58,0,0,0-.43,0h.86A1.58,1.58,0,0,0,44.34,7.57Zm.46,0a.11.11,0,0,1,.08,0v0Zm-.46,0a1.58,1.58,0,0,0-.43,0h.86A1.58,1.58,0,0,0,44.34,7.57Zm.46,0a.11.11,0,0,1,.08,0v0Zm-.46,0a1.58,1.58,0,0,0-.43,0h.86A1.58,1.58,0,0,0,44.34,7.57Zm.46,0a.11.11,0,0,1,.08,0v0Zm-.46,0a1.58,1.58,0,0,0-.43,0h.86A1.58,1.58,0,0,0,44.34,7.57Zm.46,0a.11.11,0,0,1,.08,0v0Zm-.46,0a1.58,1.58,0,0,0-.43,0h.86A1.58,1.58,0,0,0,44.34,7.57Zm.46,0a.11.11,0,0,1,.08,0v0Zm-.46,0a1.58,1.58,0,0,0-.43,0h.86A1.58,1.58,0,0,0,44.34,7.57Zm.46,0a.11.11,0,0,1,.08,0v0Zm-.46,0a1.58,1.58,0,0,0-.43,0h.86A1.58,1.58,0,0,0,44.34,7.57Zm.46,0a.11.11,0,0,1,.08,0v0Zm-.46,0a1.58,1.58,0,0,0-.43,0h.86A1.58,1.58,0,0,0,44.34,7.57Zm.46,0a.11.11,0,0,1,.08,0v0Zm-.46,0a1.58,1.58,0,0,0-.43,0h.86A1.58,1.58,0,0,0,44.34,7.57Zm.46,0a.11.11,0,0,1,.08,0v0Zm-.46,0a1.58,1.58,0,0,0-.43,0h.86A1.58,1.58,0,0,0,44.34,7.57Zm.46,0a.11.11,0,0,1,.08,0v0Z"/>
          <g>
            <path class="cls-1" d="M68.06,13.25,63.21,3.1a4.22,4.22,0,0,0-.6-.91c-.06-.07-.14-.13-.22-.21V2h0a2.84,2.84,0,0,0-.26-.24A.29.29,0,0,0,62,1.64a1.1,1.1,0,0,0-.31-.22l-.27-.16a1.81,1.81,0,0,0-.28-.12l-.27-.09A.23.23,0,0,0,60.66,1a2.88,2.88,0,0,0-1-.16H29.16A4.06,4.06,0,0,0,28.07,1a3.62,3.62,0,0,0-1,.45s0,0,0,0a2.45,2.45,0,0,0-.41.31,4.73,4.73,0,0,0-.4.37l0,0L26,2.51l-.08.1a2.84,2.84,0,0,0-.27.49L20.8,13.22a1.33,1.33,0,0,0-.11.3,1.49,1.49,0,0,0,0,.42,1.26,1.26,0,0,0,.06.38,1.28,1.28,0,0,0,.16.36,1.48,1.48,0,0,0,1.27.72H33.8A2.12,2.12,0,0,0,35.1,15l7.79-5.9v0l.5-.41a1.64,1.64,0,0,1,.6-.28,1.67,1.67,0,0,1,.77,0,1.63,1.63,0,0,1,.58.28l.17.13L53.79,15a1.85,1.85,0,0,0,1.13.38H66.74a1.05,1.05,0,0,0,.4-.07,1.37,1.37,0,0,0,.35-.15h0A1.44,1.44,0,0,0,68,14.7,1.47,1.47,0,0,0,68.06,13.25Zm-.64.86,0,.09v0a.07.07,0,0,1,0,.06.42.42,0,0,1-.12.14.53.53,0,0,1-.14.11.67.67,0,0,1-.34.09H54.92a1.09,1.09,0,0,1-.67-.23l0,0-.89-.67s0,0,0,0h0l-1-.79L52,12.65h0L45.75,8l-.26-.14A1.78,1.78,0,0,0,45,7.65l0,0s0,0,0,0a.11.11,0,0,0-.08,0h0a3,3,0,0,0-.43,0,1.63,1.63,0,0,0-.43,0h0c-.06,0-.11,0-.17,0l-.32.11-.11,0-.08,0L43,8l-.08.05-.44.34h0L40.2,10.13h0l-.26.2h0l-5.27,4a1.31,1.31,0,0,1-.84.28H22.15a.69.69,0,0,1-.62-.36.75.75,0,0,1,0-.71l.4-.81.12-.28,1-2v0l.17-.34v0L24.52,7.2l.26-.52.12-.26v0L25,6.12l.12-.26,0,0,.17-.37.17-.32.81-1.73a.79.79,0,0,1,.14-.25l0,0s0-.08.06-.09a.69.69,0,0,1,.1-.17h0v0l.08-.09a2.91,2.91,0,0,1,.75-.65A1.38,1.38,0,0,1,27.8,2L28,1.88c.12,0,.23-.09.35-.12a2.72,2.72,0,0,1,.86-.14H59.68a.3.3,0,0,1,.13,0H60a1.6,1.6,0,0,1,.23,0,1.13,1.13,0,0,1,.31.06s.05,0,.08,0a1.34,1.34,0,0,1,.36.14,1.48,1.48,0,0,1,.31.15,3.08,3.08,0,0,1,.41.3h0a1,1,0,0,1,.24.23l0,0a1.27,1.27,0,0,1,.21.25.55.55,0,0,1,.13.17,1.93,1.93,0,0,1,.23.37v0L63.73,6l.09.18,0,.06s0,0,0,0l.18.41.16.32V7l1.09,2.3.18.37,1.87,3.91a.82.82,0,0,1,.06.19v0a.32.32,0,0,1,0,.14A.86.86,0,0,1,67.42,14.11Z"/>
            <g>
              <path class="cls-1" d="M62.33,1.94a1.77,1.77,0,0,0-.24.32,2.42,2.42,0,0,0-.12.23l-.07.12c-.21.38-.46.75-.94.75s-.78-.46-1-.87-.39-.69-.69-.69-.47.26-.7.69-.47.87-1,.87-.79-.46-1-.87-.4-.69-.7-.69-.46.26-.69.69-.48.87-1,.87-.78-.46-1-.87-.4-.69-.7-.69-.46.26-.69.69-.48.87-1,.87-.78-.46-1-.87-.4-.69-.7-.69-.46.26-.69.69-.47.87-1,.87-.79-.46-1-.87-.4-.69-.7-.69-.46.26-.69.69-.48.87-1,.87-.78-.46-1-.87-.39-.69-.69-.69-.47.26-.7.69-.47.87-1,.87-.78-.46-1-.87-.4-.69-.7-.69-.46.26-.69.69-.48.87-1,.87-.78-.46-1-.87-.4-.69-.7-.69-.46.26-.69.69-.47.87-1,.87-.78-.46-1-.87-.39-.69-.69-.69-.47.26-.7.69-.48.87-1,.87-.79-.46-1-.87-.4-.69-.7-.69-.46.26-.69.69-.48.87-1,.87a.76.76,0,0,1-.51-.19,1.12,1.12,0,0,1-.27-.3c-.08-.12-.15-.24-.22-.37s.16-.2.24-.3a.67.67,0,0,1,.06.12c.06.09.1.17.15.25a1.33,1.33,0,0,0,.24.31.45.45,0,0,0,.31.12c.3,0,.46-.25.7-.68a2.47,2.47,0,0,1,.27-.44.86.86,0,0,1,.73-.44.75.75,0,0,1,.51.19,2.35,2.35,0,0,1,.5.69c.23.43.4.68.7.68s.46-.25.69-.68a2.19,2.19,0,0,1,.5-.69.77.77,0,0,1,1,0,2.16,2.16,0,0,1,.49.69c.24.43.4.68.7.68s.47-.25.7-.68a2,2,0,0,1,.5-.69.7.7,0,0,1,.49-.19.75.75,0,0,1,.51.19,2.19,2.19,0,0,1,.5.69c.24.43.4.68.7.68s.46-.25.69-.68a2.35,2.35,0,0,1,.5-.69.78.78,0,0,1,1,0,2.35,2.35,0,0,1,.5.69c.23.43.39.68.69.68s.46-.25.7-.68a2,2,0,0,1,.5-.69.72.72,0,0,1,.5-.19.74.74,0,0,1,.5.19,2.19,2.19,0,0,1,.5.69c.24.43.4.68.7.68s.46-.25.7-.68a2.33,2.33,0,0,1,.49-.69.78.78,0,0,1,1,0,2.35,2.35,0,0,1,.5.69c.23.43.4.68.7.68s.46-.25.69-.68a2.19,2.19,0,0,1,.5-.69.72.72,0,0,1,.5-.19.75.75,0,0,1,.51.19,2.19,2.19,0,0,1,.5.69c.23.43.4.68.7.68s.46-.25.69-.68a2.35,2.35,0,0,1,.5-.69.75.75,0,0,1,.51-.19.72.72,0,0,1,.5.19,2,2,0,0,1,.5.69c.24.43.4.68.7.68s.46-.25.7-.68a2.33,2.33,0,0,1,.49-.69.78.78,0,0,1,1,0,2.35,2.35,0,0,1,.5.69c.23.43.4.68.7.68s.46-.25.69-.68a2.19,2.19,0,0,1,.5-.69.75.75,0,0,1,.51-.19.73.73,0,0,1,.51.2,1.89,1.89,0,0,1,.49.68c.24.43.4.68.7.68s.45-.24.68-.64l0,0A2.75,2.75,0,0,1,61.83,2a1.56,1.56,0,0,1,.23-.31Z"/>
              <path class="cls-1" d="M64.93,6.8A.73.73,0,0,1,64.6,7a.65.65,0,0,1-.42,0c-.41-.09-.62-.49-.81-.85s-.4-.68-.7-.68-.47.26-.7.68S61.49,7,61,7s-.78-.46-1-.88-.39-.68-.69-.68-.47.26-.7.68-.47.88-1,.88-.79-.46-1-.88-.4-.68-.7-.68-.46.26-.69.68-.48.88-1,.88-.78-.46-1-.88-.4-.68-.7-.68-.46.26-.69.68-.48.88-1,.88-.78-.46-1-.88-.4-.68-.7-.68-.46.26-.69.68-.47.88-1,.88-.79-.46-1-.88-.4-.68-.7-.68-.46.26-.69.68-.48.88-1,.88-.78-.46-1-.88-.39-.68-.69-.68-.47.26-.7.68-.47.88-1,.88-.78-.46-1-.88-.4-.68-.7-.68-.46.26-.69.68-.48.88-1,.88-.78-.46-1-.88-.4-.68-.7-.68-.46.26-.69.68-.47.88-1,.88-.78-.46-1-.88-.39-.68-.69-.68-.47.26-.7.68-.48.88-1,.88-.79-.46-1-.88-.4-.68-.7-.68-.46.26-.69.68-.48.88-1,.88-.78-.46-1-.88-.37-.64-.63-.68h-.06c-.27,0-.43.2-.62.54h0V6a.41.41,0,0,0-.07.11c-.2.36-.42.76-.83.85l.35-.72a0,0,0,0,1,0,0L24.24,6c.19-.35.41-.75.81-.84a.64.64,0,0,1,.2,0,.57.57,0,0,1,.22,0c.38.1.58.49.77.83s.4.69.7.69.46-.26.7-.69.47-.87,1-.87.79.47,1,.87.4.69.7.69.46-.26.69-.69.48-.87,1-.87.77.47,1,.87.4.69.7.69.47-.26.7-.69.47-.87,1-.87.79.47,1,.87.4.69.7.69.46-.26.69-.69.48-.87,1-.87.78.47,1,.87.39.69.69.69.46-.26.7-.69.47-.87,1-.87.78.47,1,.87.4.69.7.69.46-.26.7-.69.47-.87,1-.87.78.47,1,.87.4.69.7.69.46-.26.69-.69.47-.87,1-.87.79.47,1,.87.4.69.7.69.46-.26.69-.69.48-.87,1-.87.78.47,1,.87.4.69.7.69.46-.26.7-.69.47-.87,1-.87.79.47,1,.87.4.69.7.69.46-.26.69-.69.48-.87,1-.87.78.47,1,.87.4.69.7.69.46-.26.7-.69.48-.87,1-.87.78.47,1,.87l.14.24,0,0c.16.25.3.4.53.4h.07a.55.55,0,0,0,.33-.2Z"/>
              <g>
                <path class="cls-1" d="M42.85,9.08l-.27.2h0a.39.39,0,0,0-.32-.14.24.24,0,0,0-.15,0h0a.47.47,0,0,0-.21.17h0s0,0,0,0a1.78,1.78,0,0,0-.27.43c-.08.12-.14.28-.23.4l0,0-.52.4h0a.44.44,0,0,1-.19,0,.87.87,0,0,1-.37-.08h0L40,10.49s0-.05-.07-.06,0,0-.06-.08v0a3.26,3.26,0,0,1-.35-.51c-.23-.42-.4-.68-.69-.68s-.46.26-.69.68-.47.87-1,.87-.78-.47-1-.87-.4-.68-.69-.68-.47.26-.7.68-.48.87-1,.87-.78-.47-1-.87-.38-.68-.69-.68-.46.26-.69.68-.49.87-1,.87-.78-.47-1-.87-.4-.68-.71-.68-.46.26-.69.68-.47.87-1,.87-.78-.47-1-.87a1.47,1.47,0,0,0-.43-.59.37.37,0,0,0-.26-.09c-.26,0-.41.2-.6.53h0a1.1,1.1,0,0,0-.09.14c-.23.4-.49.87-1,.87a.8.8,0,0,1-.59-.26h0v0a2.3,2.3,0,0,1-.25-.34c0-.08-.09-.16-.13-.25l-.1-.15.19-.38a2.6,2.6,0,0,1,.21.36s0,0,0,0c.09.16.17.28.23.37v0s0,0,0,0a.52.52,0,0,0,.43.26c.29,0,.46-.26.69-.68a2.16,2.16,0,0,1,.57-.73.72.72,0,0,1,.44-.14.73.73,0,0,1,.45.14,2.1,2.1,0,0,1,.55.73c.24.42.41.68.7.68s.46-.26.71-.68.46-.87,1-.87.78.47,1,.87.4.68.69.68.46-.26.71-.68.47-.87,1-.87.78.47,1,.87.41.68.7.68.46-.26.69-.68.48-.87,1-.87.78.47,1,.87.4.68.7.68.46-.26.69-.68.48-.87,1-.87.78.47,1,.87a2.22,2.22,0,0,0,.31.48.43.43,0,0,0,.37.2h0a.5.5,0,0,0,.4-.23A.28.28,0,0,0,41,10h0s0,0,0,0a2.29,2.29,0,0,0,.17-.28c.23-.4.48-.87,1-.87a.82.82,0,0,1,.28.05h0a1.19,1.19,0,0,1,.31.23Z"/>
                <path class="cls-1" d="M66.06,9.14a.49.49,0,0,0-.36.17,4,4,0,0,0-.24.37l-.08.14c-.23.4-.47.87-1,.87a1.18,1.18,0,0,1-.21,0c-.37-.09-.59-.47-.77-.79a.13.13,0,0,0,0,0c-.23-.42-.4-.68-.69-.68s-.47.26-.7.68-.48.87-1,.87-.79-.47-1-.87-.4-.68-.7-.68-.46.26-.69.68-.48.87-1,.87-.79-.47-1-.87-.4-.68-.69-.68-.46.26-.69.68-.49.87-1,.87-.78-.47-1-.87-.4-.68-.71-.68-.46.26-.69.68-.47.87-1,.87-.8-.47-1-.87-.4-.68-.71-.68-.46.26-.69.68l-.06.12c-.08.11-.14.22-.21.33a1.24,1.24,0,0,1-.28.28l-.31-.23a.46.46,0,0,0,.16-.11.73.73,0,0,0,.14-.16c.07-.09.13-.2.21-.32a.19.19,0,0,1,0-.08c.23-.4.49-.87,1-.87s.78.47,1,.87.4.68.71.68.46-.26.69-.68.47-.87,1-.87.8.47,1,.87.4.68.71.68.46-.26.69-.68.47-.87,1-.87.78.47,1,.87.42.68.71.68.46-.26.69-.68.47-.87,1-.87.78.47,1,.87.39.68.69.68.46-.26.7-.68.48-.87,1-.87a.82.82,0,0,1,.35.08l0,0a2,2,0,0,1,.61.76c.17.31.29.53.48.62a.31.31,0,0,0,.21.06c.31,0,.46-.26.71-.68a3.72,3.72,0,0,1,.19-.34A1.14,1.14,0,0,1,65.55,9a.59.59,0,0,1,.34-.18h0Z"/>
              </g>
              <g>
                <path class="cls-1" d="M36.7,13.72h0l-.29.22h0a2.9,2.9,0,0,1-.2-.33l-.08-.12c-.05-.08-.08-.16-.12-.22-.17-.3-.32-.47-.57-.47s-.47.27-.7.69-.48.87-1,.87-.78-.45-1-.87-.38-.69-.69-.69-.46.27-.69.69-.49.87-1,.87-.78-.45-1-.87-.4-.69-.71-.69-.46.27-.69.69a4,4,0,0,1-.26.45,1,1,0,0,1-.69.42h-.06c-.53,0-.78-.45-1-.87a.91.91,0,0,0-.08-.13c-.15-.28-.27-.46-.45-.53a.76.76,0,0,0-.16,0c-.26,0-.43.22-.61.56l-.08.13c-.23.42-.49.87-1,.87h0c-.51,0-.74-.47-.95-.87s-.42-.69-.71-.69v-.35H22c.46.06.68.48.89.85s.39.7.69.7h.06c.26,0,.42-.3.63-.69.08-.13.17-.29.26-.41h0a.94.94,0,0,1,.12-.18.85.85,0,0,1,.61-.27h.16a.6.6,0,0,1,.26.11h0a2.1,2.1,0,0,1,.57.74l.14.24c.15.23.27.4.46.43a.12.12,0,0,0,.1,0c.23,0,.39-.17.55-.43l.16-.27c.21-.4.46-.86,1-.86s.78.46,1,.86.4.7.69.7.46-.28.71-.7.47-.86,1-.86.78.46,1,.86.41.7.7.7.46-.28.69-.7.48-.86,1-.86.64.27.86.6v0a2.55,2.55,0,0,1,.14.24s0,0,0,.08S36.64,13.63,36.7,13.72Z"/>
                <path class="cls-1" d="M67.79,14v.35a.18.18,0,0,1-.1,0,.58.58,0,0,1-.36-.12,2.2,2.2,0,0,1-.55-.73c-.23-.42-.4-.69-.69-.69s-.4.17-.57.45l-.14.24c-.09.15-.17.32-.27.46a.92.92,0,0,1-.74.41.65.65,0,0,1-.21,0c-.37-.09-.59-.45-.77-.79,0,0,0,0,0,0a0,0,0,0,0,0,0,1.35,1.35,0,0,0-.47-.62.42.42,0,0,0-.2,0c-.31,0-.47.27-.7.69s-.48.87-1,.87-.79-.45-1-.87-.4-.69-.7-.69-.46.27-.69.69-.48.87-1,.87-.79-.45-1-.87-.4-.69-.69-.69-.46.27-.69.69-.49.87-1,.87a1,1,0,0,1-.89-.67,0,0,0,0,1,0,0,1.62,1.62,0,0,1-.1-.18c-.23-.42-.4-.69-.71-.69a.41.41,0,0,0-.24.08.88.88,0,0,0-.26.3,3.54,3.54,0,0,0-.19.31h0v0l-.29-.22v0l.19-.32a1.52,1.52,0,0,1,.26-.3h0a.83.83,0,0,1,.52-.2c.54,0,.8.46,1,.86s.4.7.71.7.46-.28.69-.7.47-.86,1-.86.78.46,1,.86.42.7.71.7.46-.28.69-.7.47-.86,1-.86.78.46,1,.86.39.7.69.7.46-.28.7-.7.48-.86,1-.86a.8.8,0,0,1,.57.24h0a1.77,1.77,0,0,1,.14.17,4.3,4.3,0,0,1,.29.45s0,0,0,0a1.48,1.48,0,0,0,.45.59.31.31,0,0,0,.21.06.59.59,0,0,0,.48-.32l.23-.38c0-.09.1-.2.16-.31a1,1,0,0,1,.85-.55c.52,0,.78.46,1,.86a2.39,2.39,0,0,0,.31.47v0a.47.47,0,0,0,.38.21Z"/>
              </g>
            </g>
            <g>
              <path class="cls-1" d="M28.66,2.15a.58.58,0,1,0,.58.57A.58.58,0,0,0,28.66,2.15Zm0,.77a.2.2,0,0,1-.2-.2.18.18,0,0,1,.2-.18.17.17,0,0,1,.18.18A.19.19,0,0,1,28.66,2.92Z"/>
              <path class="cls-1" d="M35.46,2.15a.58.58,0,1,0,.58.57A.58.58,0,0,0,35.46,2.15Zm0,.77a.2.2,0,0,1-.2-.2.18.18,0,0,1,.2-.18.19.19,0,0,1,.2.18A.21.21,0,0,1,35.46,2.92Z"/>
              <path class="cls-1" d="M42.26,2.15a.58.58,0,1,0,.58.57A.58.58,0,0,0,42.26,2.15Zm0,.77a.2.2,0,0,1-.2-.2.18.18,0,0,1,.2-.18.19.19,0,0,1,.2.18A.21.21,0,0,1,42.26,2.92Z"/>
              <path class="cls-1" d="M49.06,2.15a.56.56,0,0,0-.57.57.57.57,0,0,0,.57.59.58.58,0,1,0,0-1.16Zm0,.77a.19.19,0,0,1-.19-.2.18.18,0,0,1,.19-.18.19.19,0,0,1,.2.18A.21.21,0,0,1,49.06,2.92Z"/>
              <path class="cls-1" d="M55.86,2.15a.56.56,0,0,0-.57.57.57.57,0,0,0,.57.59.58.58,0,1,0,0-1.16Zm0,.77a.19.19,0,0,1-.19-.2.18.18,0,0,1,.19-.18.19.19,0,0,1,.2.18A.21.21,0,0,1,55.86,2.92Z"/>
            </g>
            <g>
              <path class="cls-1" d="M25.24,5.83h-.1l0,0a.57.57,0,0,0-.46.56.4.4,0,0,0,.08.26.51.51,0,0,0,.5.31.57.57,0,0,0,.58-.57A.58.58,0,0,0,25.24,5.83Zm0,.78a.2.2,0,0,1-.2-.19.21.21,0,0,1,.2-.2.2.2,0,0,1,.2.2A.19.19,0,0,1,25.24,6.61Z"/>
              <path class="cls-1" d="M32,5.83a.58.58,0,0,0-.58.59.58.58,0,0,0,1.16,0A.58.58,0,0,0,32,5.83Zm0,.78a.19.19,0,0,1-.2-.19.2.2,0,0,1,.4,0A.19.19,0,0,1,32,6.61Z"/>
              <path class="cls-1" d="M38.84,5.83a.57.57,0,0,0-.57.59.56.56,0,0,0,.57.57.57.57,0,0,0,.58-.57A.58.58,0,0,0,38.84,5.83Zm0,.78a.18.18,0,0,1-.18-.19.18.18,0,0,1,.18-.2.2.2,0,0,1,.2.2A.19.19,0,0,1,38.84,6.61Z"/>
              <path class="cls-1" d="M45.64,5.83a.57.57,0,0,0-.57.59.56.56,0,0,0,.57.57.57.57,0,0,0,.58-.57A.58.58,0,0,0,45.64,5.83Zm0,.78a.18.18,0,0,1-.18-.19.18.18,0,0,1,.18-.2.2.2,0,0,1,.2.2A.19.19,0,0,1,45.64,6.61Z"/>
              <path class="cls-1" d="M52.44,5.83a.58.58,0,0,0-.57.59.58.58,0,0,0,1.15,0A.58.58,0,0,0,52.44,5.83Zm0,.78a.18.18,0,0,1-.18-.19.18.18,0,0,1,.18-.2.2.2,0,0,1,.2.2A.19.19,0,0,1,52.44,6.61Z"/>
              <path class="cls-1" d="M59.26,5.83a.58.58,0,0,0-.59.59.57.57,0,0,0,.59.57.56.56,0,0,0,.56-.57A.58.58,0,0,0,59.26,5.83Zm0,.78a.19.19,0,0,1-.2-.19.2.2,0,0,1,.2-.2.19.19,0,0,1,.18.2A.18.18,0,0,1,59.26,6.61Z"/>
            </g>
            <g>
              <path class="cls-1" d="M28.64,9.57a.57.57,0,0,0-.58.58.58.58,0,1,0,1.15,0A.57.57,0,0,0,28.64,9.57Zm0,.78a.2.2,0,0,1-.2-.2.19.19,0,0,1,.2-.19.2.2,0,0,1,.19.19A.21.21,0,0,1,28.64,10.35Z"/>
              <path class="cls-1" d="M35.44,9.57a.57.57,0,0,0-.58.58.58.58,0,1,0,1.15,0A.57.57,0,0,0,35.44,9.57Zm0,.78a.2.2,0,0,1-.2-.2.19.19,0,0,1,.2-.19.2.2,0,0,1,.19.19A.21.21,0,0,1,35.44,10.35Z"/>
              <path class="cls-1" d="M49,9.57a.55.55,0,0,0-.57.51.17.17,0,0,0,0,.07.59.59,0,0,0,.58.59.37.37,0,0,0,.23-.07A.58.58,0,0,0,49,9.57ZM49,10a.18.18,0,0,1,.18.19.18.18,0,0,1-.18.2.2.2,0,0,1-.2-.2A.19.19,0,0,1,49,10Z"/>
              <path class="cls-1" d="M55.84,9.57a.57.57,0,0,0-.58.58.58.58,0,1,0,1.15,0A.57.57,0,0,0,55.84,9.57Zm0,.78a.2.2,0,0,1-.2-.2.19.19,0,0,1,.2-.19.18.18,0,0,1,.18.19A.18.18,0,0,1,55.84,10.35Z"/>
              <path class="cls-1" d="M62.63,9.57a.57.57,0,0,0-.57.58.58.58,0,1,0,1.15,0A.57.57,0,0,0,62.63,9.57Zm0,.78a.2.2,0,0,1-.19-.2.19.19,0,0,1,.38,0A.2.2,0,0,1,62.63,10.35Z"/>
            </g>
            <g>
              <path class="cls-1" d="M25.61,13.35a.42.42,0,0,0-.21-.13.86.86,0,0,0-.17,0,.59.59,0,0,0-.59.58.6.6,0,0,0,.59.59.47.47,0,0,0,.17,0,.56.56,0,0,0,.39-.55A.58.58,0,0,0,25.61,13.35Zm-.21.49a.2.2,0,0,1-.17.13.21.21,0,0,1-.2-.2.19.19,0,0,1,.2-.19.16.16,0,0,1,.17.14.07.07,0,0,1,0,0A.17.17,0,0,1,25.4,13.84Z"/>
              <path class="cls-1" d="M32,13.19a.59.59,0,0,0-.59.58.6.6,0,0,0,.59.59.59.59,0,0,0,.56-.59A.58.58,0,0,0,32,13.19ZM32,14a.21.21,0,0,1-.2-.2.19.19,0,0,1,.2-.19.18.18,0,0,1,.18.19A.2.2,0,0,1,32,14Z"/>
              <path class="cls-1" d="M59.24,13.19a.58.58,0,0,0-.58.58.58.58,0,1,0,1.16,0A.58.58,0,0,0,59.24,13.19Zm0,.78a.21.21,0,0,1-.2-.2.2.2,0,0,1,.4,0A.21.21,0,0,1,59.24,14Z"/>
              <path class="cls-1" d="M66.06,13.19a.55.55,0,0,0-.43.2.55.55,0,0,0-.16.38.59.59,0,0,0,.59.59h0a.6.6,0,0,0,.55-.59A.58.58,0,0,0,66.06,13.19Zm0,.78a.29.29,0,0,1-.1,0,.19.19,0,0,1-.1-.17v0a.2.2,0,0,1,.39,0A.21.21,0,0,1,66.06,14Z"/>
            </g>
          </g>
        </g>
      </g>
      <g>
        <g>
          <path class="cls-1" d="M29.73,49.2a.73.73,0,0,1,.62.73c0,.25-.15.48-.54.56a7.64,7.64,0,0,1-1.57.31l-.37,0A3.82,3.82,0,0,1,26.19,50a14.44,14.44,0,0,1-2.36-2.46c-1,1.27-2,2.52-3,3.73s-2.95,2.08-3.73,3.27a.65.65,0,0,1-.54.32.69.69,0,0,1-.66-.66.7.7,0,0,1,.39-.59A19.43,19.43,0,0,0,19.56,51c.67-.78,1.33-1.56,2-2.36s1-1.33,1.54-2c-.79-1-2.27-2.69-3.33-2.69a.93.93,0,0,0-.82.54.41.41,0,0,1-.37.24.48.48,0,0,1-.46-.47.65.65,0,0,1,.06-.26,1.82,1.82,0,0,1,1.56-1.16c1.18,0,2.6,1.42,4,3,.28-.35.57-.7.88-1a5.56,5.56,0,0,1,3.69-2.15,2.68,2.68,0,0,1,2.12,1.11.46.46,0,0,1,.12.3.63.63,0,0,1-.6.59.45.45,0,0,1-.35-.17,1.82,1.82,0,0,0-1.41-.76c-1.35,0-2.73,1.71-3.68,3,1.45,1.63,2.86,3.15,4,3.15a1.12,1.12,0,0,0,.87-.41A.57.57,0,0,1,29.73,49.2Z"/>
          <path class="cls-1" d="M38.58,42.78a.59.59,0,0,1,.61.58c0,2.1.15,4.3.15,6.49v.68a30.06,30.06,0,0,1-.52,5.88c-1.07,5.53-3.37,6.24-4.49,6.24a2.6,2.6,0,0,1-.59-.06h0c-1-.05-4-.78-4-3.68A4.61,4.61,0,0,1,30,57.39a1.17,1.17,0,0,1,.05-.11c1-2.55,3.77-4.63,6.09-6a.79.79,0,0,1,.31-.08.62.62,0,0,1,.55.61.39.39,0,0,1-.18.4l-.1.07A15.24,15.24,0,0,0,31.49,57a3.36,3.36,0,0,0-.56,1.67,2.24,2.24,0,0,0,1.3,2,4.67,4.67,0,0,0,2.1.59,2,2,0,0,0,1.92-1.1c1.63-3.23,1.91-6.91,1.91-10.52,0-1,0-2,0-2.95,0,0,0-.06,0-.05s0,0,0,0c-.83,1.66-2,3.18-3.47,3.18-.11,0-.1,0-.25,0h-.2c-1.68-.33-2-2.16-2-3.93,0-.87.08-1.72.09-2.34a.55.55,0,0,1,.58-.56.53.53,0,0,1,.57.54c0,.24-.09.87-.09,1.63,0,1.5.14,3.54,1.12,3.54h0a1.08,1.08,0,0,0,.62-.25c1.66-1.11,2.66-3.38,3.06-5.26A.51.51,0,0,1,38.58,42.78Z"/>
          <path class="cls-1" d="M53.77,42.27a.62.62,0,0,1,.31-.08.68.68,0,0,1,.59.37,1,1,0,0,1,.06.28.64.64,0,0,1-.4.59,5.4,5.4,0,0,1-.77.36.4.4,0,0,1-.17.28,3.81,3.81,0,0,0-1,2.87c0,.16,0,.48,0,.86,0,.74,0,1.69.32,1.87a.6.6,0,0,1,.31.47c0,.39-.5.64-.85.64h-.11a.43.43,0,0,1-.36-.44,1,1,0,0,1,0-.17V50c0-.49-.31-1.17-.34-1.67,0-.34,0-.69,0-1.05s0-.62,0-.92A6,6,0,0,1,52,44.33a12.43,12.43,0,0,1-3.54.62,4.85,4.85,0,0,0-.56,1.84v.58c0,.36,0,.8,0,1.21a1.44,1.44,0,0,0,.39,1.19.46.46,0,0,1,.17.17.61.61,0,0,1,.09.31.71.71,0,0,1-.34.57.76.76,0,0,1-.35.11.58.58,0,0,1-.53-.33,6.73,6.73,0,0,1-.56-3.42V47a5.49,5.49,0,0,1,.6-2,12.38,12.38,0,0,1-3.08-.36,3.39,3.39,0,0,0-.8,2.47,5.09,5.09,0,0,0,0,.54,5.11,5.11,0,0,0,.48,2.27.59.59,0,0,1,.07.31.74.74,0,0,1-.76.59h0a.51.51,0,0,1-.5-.56V50a16.1,16.1,0,0,0-.36-1.89,9,9,0,0,1-.11-1.28,5.46,5.46,0,0,1,0-.56c.12-.87.35-1.5.45-2.2a2.42,2.42,0,0,1-.21-.47c0-.27.34-.51.62-.51l.92.17a2.83,2.83,0,0,0,.4.08l.16.06a12,12,0,0,0,3.09.3h.17a.47.47,0,0,1,.28,0c.32,0,.62,0,.93,0a13,13,0,0,0,4.55-1.29Z"/>
          <path class="cls-1" d="M61.47,49.71a3.74,3.74,0,0,1-2.79,1.45,2.61,2.61,0,0,1-1.94-.86,3.37,3.37,0,0,1-1-2.39,6.89,6.89,0,0,1,.88-3l0-.08a0,0,0,0,1,0,0,1.3,1.3,0,0,0,.08-.17,3.16,3.16,0,0,1,2.1-1.22c0-.23,0-.42,0-.47a.31.31,0,0,0,0-.1v-.16a.39.39,0,0,1,.35-.46,1.35,1.35,0,0,1,.24,0,1.27,1.27,0,0,1,.34.05.7.7,0,0,1,.36.68.57.57,0,0,1,0,.13c0,.07,0,.24-.06.44a2.64,2.64,0,0,1,1.51,1A4.12,4.12,0,0,1,62.55,47,4.22,4.22,0,0,1,61.47,49.71Zm-.79-4.56a1.89,1.89,0,0,0-.79-.42,7.83,7.83,0,0,1-.45,2,.45.45,0,0,1-.18,0c-.25,0-.59-.13-.59-.45v0c0-.18.11-1.08.14-1.62a1.18,1.18,0,0,0-1,.53,1,1,0,0,0,0,.1s0,.05-.07.1a.6.6,0,0,0-.08.13A6.12,6.12,0,0,0,57,47.94a1.62,1.62,0,0,0,.36,1.23,2.36,2.36,0,0,0,1.51.73,2.24,2.24,0,0,0,1.77-1A3.28,3.28,0,0,0,61.36,47,2.64,2.64,0,0,0,60.68,45.15Z"/>
          <path class="cls-1" d="M70.4,44a2.91,2.91,0,0,1,.68,2.05,6.05,6.05,0,0,1-.93,3.15,5.07,5.07,0,0,1-.51.65,3.27,3.27,0,0,1-2.38,1,5.6,5.6,0,0,1-1.61-.27l-.07.06a31.26,31.26,0,0,0,1.68,10.23.89.89,0,0,1,0,.22.47.47,0,0,1-.11.31.65.65,0,0,1-.45.16.58.58,0,0,1-.38-.13.59.59,0,0,1-.13-.23,37.37,37.37,0,0,1-1.85-10.87c0-2.51.44-4.79,1.63-6a3.24,3.24,0,0,1,2.38-.91c.2,0,.39,0,.59,0A2.3,2.3,0,0,1,70.4,44Zm-3.34,5.62a2.51,2.51,0,0,0,1.86-.73l.06,0a3.41,3.41,0,0,0,.63-1,7.26,7.26,0,0,0,.26-1.69,1.73,1.73,0,0,0-.4-1.27l-.07-.06a1,1,0,0,0-.74-.3,2.76,2.76,0,0,0-1.79.89l0,0,0,0a2.76,2.76,0,0,0-.76,1.27l-.2.73c-.11.61-.2,1.18-.25,1.79l.06.06A4.59,4.59,0,0,0,67.06,49.63Z"/>
        </g>
        <g>
          <path class="cls-1" d="M89.44,57.3A2.85,2.85,0,0,1,89,55.69l.13-11.45q.21-8.33.21-12.89,0-15.88-1.77-24.34a3,3,0,0,1,2.59-1.57,9.52,9.52,0,0,1,4.6,1.13,10,10,0,0,1,3.44,3,15.49,15.49,0,0,1,2.66,8.87,18.9,18.9,0,0,1-2.18,9.13,15.39,15.39,0,0,1-6.34,6.27l.14,6.89.13,3.62c0,.77.07,1.88.07,3.34.14,3,.2,5.52.2,7.43a3.43,3.43,0,0,1-.54,2,2,2,0,0,1-1.71.75A1.37,1.37,0,0,1,89.44,57.3Zm6.68-32a14.86,14.86,0,0,0,1.26-6.24V19a28.49,28.49,0,0,0-.34-4,5,5,0,0,0-.75-1.64c-.36-.55-.57-.86-.61-.95a11.84,11.84,0,0,0-2.52-2.12L91.38,9.06q0,3.48.41,10.77L92.2,30.6A17.08,17.08,0,0,0,96.12,25.32Z"/>
          <path class="cls-1" d="M119.85,57.19a1.63,1.63,0,0,1-.51-1.36V46.9A9.74,9.74,0,0,0,116,45.81a35.78,35.78,0,0,0-4.64-.62,11.78,11.78,0,0,0-1.09,3.48L110,50c0,.32-.18,1-.41,2.12a25.19,25.19,0,0,1-.75,2.83,10.07,10.07,0,0,1-.82,1.87c-1.73,0-2.73-.45-3-1.36.5-.73,1.07-2.86,1.71-6.41L109,36.6c1-5.91,1.92-11,2.76-15.13A86.58,86.58,0,0,1,114.43,11q1.57-4.71,3-4.71a3.64,3.64,0,0,1,2.18.55q0,2.73,1.3,13.16a127.28,127.28,0,0,1,1.36,14A101.21,101.21,0,0,0,123,44.31q.67,6.88.68,11a2,2,0,0,1-2.25,2.32A2.51,2.51,0,0,1,119.85,57.19Zm-.58-14.45c-.14-2-.36-4.48-.68-7.43Q117,19.89,117,16.42v-.54c-.45.45-1.08,2.51-1.87,6.17s-1.54,7.57-2.22,11.76a81.68,81.68,0,0,0-1.09,8.31,21.82,21.82,0,0,0,6.07.82A6.1,6.1,0,0,0,119.27,42.74Z"/>
          <path class="cls-1" d="M142.42,58a2.75,2.75,0,0,1-.45-1.61q0-14.23-.54-24.06a16.9,16.9,0,0,0-2.32-.28,12.06,12.06,0,0,0-4,.48q0,3.83.61,11.52.56,8.19.55,11.59a2.18,2.18,0,0,1-.41,1.27,1.22,1.22,0,0,1-1,.58c-.6,0-1.14-1-1.64-3.14q-1.1-4.63-1.77-19.43-.48-10-.48-21.55-.08-2.12-.07-6c0-.82.39-1.22,1.16-1.22a3.23,3.23,0,0,1,1.4.34,2.92,2.92,0,0,1,1.06.75,40.05,40.05,0,0,0-.28,5.11q0,2.87.28,7,.2,4.71.2,7.09V27.6a9.88,9.88,0,0,0-.07,1.3,15.32,15.32,0,0,0,.14,1.77c.27,0,.72,0,1.36-.07s1.27-.11,1.91-.2c1.5-.14,2.61-.21,3.34-.21,0-4,0-7.61-.14-11l-.13-11.39V6a3.73,3.73,0,0,1,1.57.31,2.44,2.44,0,0,1,1,.78,4.71,4.71,0,0,1,.75,2.59v1.57q0,5.87.68,22.43.62,15,.61,22.5a2.75,2.75,0,0,1-.57,1.71,1.76,1.76,0,0,1-1.4.75A1.51,1.51,0,0,1,142.42,58Z"/>
          <path class="cls-1" d="M157.83,57.09a4.69,4.69,0,0,1-.58-2.42q0-2.25.27-5.52l.14-1.78.13-3.61c0-1.59-.16-5.13-.47-10.64s-.48-9-.48-10.63c0-.14,0-.4,0-.79s0-1,0-1.8.07-2,.07-3.34q0-5-.69-6.34a14.56,14.56,0,0,0-1.77.2l-1.91.14a2.57,2.57,0,0,1-1.57-.51,1.6,1.6,0,0,1-.68-1.33c0-.55.55-1,1.64-1.44a34.24,34.24,0,0,1,8.11-1.15c1.55-.1,2.48-.14,2.8-.14a2.38,2.38,0,0,1,1.5.54,1.76,1.76,0,0,1,.1,2.7,2.16,2.16,0,0,1-1.47.51l-1.22-.07a11.36,11.36,0,0,0-1.23-.07h-.68q.47,4.64.47,8.39l-.06,4.36c0,1.32-.07,2.8-.07,4.43,0,2.19.09,4.8.27,7.85q.34,5.65.34,7.84c0,1.72.09,3.77.27,6.13s.28,4.46.28,6.14c0,2.23-.66,3.34-2,3.34A1.77,1.77,0,0,1,157.83,57.09Z"/>
          <path class="cls-1" d="M184.08,57.19a1.63,1.63,0,0,1-.51-1.36V46.9a9.81,9.81,0,0,0-3.35-1.09,35.64,35.64,0,0,0-4.63-.62,11.49,11.49,0,0,0-1.09,3.48L174.22,50c0,.32-.18,1-.4,2.12a25.19,25.19,0,0,1-.75,2.83,10.79,10.79,0,0,1-.82,1.87c-1.73,0-2.73-.45-3-1.36.5-.73,1.06-2.86,1.7-6.41L173.2,36.6q1.5-8.87,2.76-15.13a84.58,84.58,0,0,1,2.7-10.5q1.56-4.71,3-4.71a3.64,3.64,0,0,1,2.18.55q0,2.73,1.29,13.16a128.11,128.11,0,0,1,1.37,14,101.21,101.21,0,0,0,.75,10.37q.67,6.88.68,11a2,2,0,0,1-2.25,2.32A2.49,2.49,0,0,1,184.08,57.19Zm-.58-14.45q-.21-3-.68-7.43-1.57-15.42-1.57-18.89v-.54c-.46.45-1.08,2.51-1.88,6.17s-1.53,7.57-2.21,11.76a82.76,82.76,0,0,0-1.1,8.31,21.87,21.87,0,0,0,6.07.82A6.17,6.17,0,0,0,183.5,42.74Z"/>
          <path class="cls-1" d="M214.59,58.69a3.78,3.78,0,0,1-.41-2l-.07-10.1c-.05-.86-.07-2.29-.07-4.29Q213.9,36,213.91,28V24.53c-.41,2.19-1.12,5.25-2.12,9.21s-1.7,7.45-2.11,10.09v.41l-.21,1.29a13,13,0,0,1-.68,3.07,2.25,2.25,0,0,1-2.11,1.64q-2.46,0-2.46-6.41a44.53,44.53,0,0,0-.71-7.6q-.72-4.06-2.29-10l-2-7.64L199,26.78q0,3.69.34,14l.14,4.64.14,9.34a3.84,3.84,0,0,1-1,2.59,2.52,2.52,0,0,1-2.35-1.06,6,6,0,0,1-.65-3.1l.14-5.59c.14-2.46.2-4.3.2-5.53L195.84,29l-.14-13.23q0-2.94.14-8.8l1.84-1.09a1.79,1.79,0,0,1,1.09.79A12,12,0,0,1,200,8.92q1.69,4.23,4.43,16.91a28.48,28.48,0,0,1,.54,2.93c.55,2.64.93,4.64,1.16,6l1,5.25.47-2.25,1.3-5.59c.72-3.27,1.33-6.14,1.81-8.59s.94-5.11,1.39-8q.75-5.11,1-8.52V6.67a2.05,2.05,0,0,1,.82-1.4,2.62,2.62,0,0,1,1.63-.51,1.41,1.41,0,0,1,1.09.55,1.72,1.72,0,0,1,.48,1.16q0,8.18.61,24.47.34,8,.48,15.62.13,3.48.14,8.79a5,5,0,0,1-.82,2.8,2.27,2.27,0,0,1-1.84,1.22A1.21,1.21,0,0,1,214.59,58.69Z"/>
          <path class="cls-1" d="M238.52,56.37a37.07,37.07,0,0,1-.34-4.9q-.21-5.25-.31-10.95t-.1-8.28a5.66,5.66,0,0,0-2.35,1.87,15,15,0,0,0-1.61,3,19.22,19.22,0,0,0-1.22,6.61v1.71c0,.27,0,1.11-.07,2.52s-.18,2.95-.41,4.64a6.48,6.48,0,0,1-3.41,5.11,2.49,2.49,0,0,1-1.23.27,2.35,2.35,0,0,1-1.46-.44,1.12,1.12,0,0,1-.38-1.26,1.29,1.29,0,0,1,.41-.69,3.36,3.36,0,0,1,.79-.4,3.9,3.9,0,0,0,.78-.41,3.38,3.38,0,0,0,1-2.59l.07-5.73c.09-2.23.2-3.94.34-5.15a20.83,20.83,0,0,1,1-4.19,20.29,20.29,0,0,1,1.3-2.83,14.94,14.94,0,0,1,1.5-2.49,10.68,10.68,0,0,1-5-4.43c-.93-1.77-1.4-4.37-1.4-7.78a22.77,22.77,0,0,1,1.43-7.9,7.37,7.37,0,0,1,4.71-4.84l3-1A3.34,3.34,0,0,1,237,5.58a6.1,6.1,0,0,1,3.27,1.23,2.38,2.38,0,0,1,1.16,2.25q-.4,5.71-.41,8.66V32.85q0,7.23.14,10.91c0,1.87.11,3.52.2,5s.16,2.66.21,3.61l.2,3.75v.41a1.73,1.73,0,0,1-.27,1.16,1.58,1.58,0,0,1-1.09.27A1.69,1.69,0,0,1,238.52,56.37Zm-1-47.93c-.23.1-.74.28-1.54.55a10.57,10.57,0,0,0-2.08.95A4.5,4.5,0,0,0,232,12a15.24,15.24,0,0,0-1.33,3.24,8,8,0,0,0-.41,2.59l.14,3c0,1.41,0,2.53.06,3.34a5.09,5.09,0,0,0,1.13,3.18,5.39,5.39,0,0,0,3,1.73c.5.14,1.08.33,1.74.58s1.15.45,1.47.58Z"/>
          <path class="cls-1" d="M259.42,57.4a5.25,5.25,0,0,1-1.4-3.34,83.55,83.55,0,0,1-.55-9.21l-.13-4.23a6.29,6.29,0,0,0-1.09-3.44,4.06,4.06,0,0,0-2.8-1.94q.48,14.17.48,21c0,1.27-.46,1.91-1.37,1.91a2.47,2.47,0,0,1-1.09-.27,1.73,1.73,0,0,1-1.09-2,59.91,59.91,0,0,0,.55-8q0-2.87-.21-6c0-1-.07-2.52-.07-4.57q-.06-.95-.06-3-.28-11.18-.62-16.84c-.13-2.27-.48-5.18-1-8.73a3.3,3.3,0,0,1-.07-.81,2.16,2.16,0,0,1,1.77-2.46,1.6,1.6,0,0,1,1.67.58,3.32,3.32,0,0,1,.72,2c0,.59.09,1.29.14,2.08s.06,1.42.06,1.88l.07,2.25c.09,2.63.14,4.56.14,5.79V32.24a43.5,43.5,0,0,0,1.5-4.43q.88-3,1.36-5.12c.14-.72.29-1.61.45-2.66s.28-1.84.37-2.38a45.11,45.11,0,0,1,1.23-7,7.3,7.3,0,0,1,3.34-4.56,3.54,3.54,0,0,1,1.7-.62,3.83,3.83,0,0,1,1.3.34,2,2,0,0,1,1.09,2.05c0,.77-.48,1.27-1.43,1.5a4.37,4.37,0,0,0-3.55,3.61c-.32,1.28-.61,2.66-.88,4.16a24.22,24.22,0,0,1-.82,3.89,24,24,0,0,0-1.3,5.73A18.79,18.79,0,0,1,257.2,30a5.77,5.77,0,0,1-1.3,2.36,4.3,4.3,0,0,1,2.94,2.38,13.73,13.73,0,0,1,1.56,5.53c.19,1.59.48,5,.89,10.36l.14,1.5A1.88,1.88,0,0,0,263.06,54a3.63,3.63,0,0,1,1.57.85,2,2,0,0,1,.48,1.4,2.36,2.36,0,0,1-.75,1.8,2.65,2.65,0,0,1-1.91.72A4,4,0,0,1,259.42,57.4Z"/>
          <path class="cls-1" d="M272.68,57.4a2.56,2.56,0,0,1-.75-2q.19-3.48.2-7.09c0-2.09,0-5.27-.14-9.55q-.06-2.93-.47-8.79c0-.77-.12-1.9-.21-3.38s-.16-2.78-.2-3.92c-.05-.77-.07-1.93-.07-3.47l.07-7a14.81,14.81,0,0,0-.14-1.7L270.9,9a2.42,2.42,0,0,1,.58-1.71A2.06,2.06,0,0,1,273,6.67a2,2,0,0,1,2.25,1.84,25.71,25.71,0,0,1,.27,3.07,15.47,15.47,0,0,1-.2,2.45A34.1,34.1,0,0,0,275,18.6l.06,2c.18,4.18.28,8,.28,11.52v8.11c0,1.41,0,3.53.13,6.34l.41.07L276.7,44q2-6.89,3.89-12.54a62.68,62.68,0,0,0,2-8.25c.32-1.64.62-3,.89-4L286.93,7a3.47,3.47,0,0,1,1.16-1.33,2.06,2.06,0,0,1,1.36-.37A3,3,0,0,1,291,6.43a2.58,2.58,0,0,1,.68,1.81,49.57,49.57,0,0,1-.41,5q-.62,8.52-.68,10.7-.27,9.13-.27,13.7c0,1.46.11,3.74.34,6.86s.36,5.17.41,6.17l.27,3.41a3,3,0,0,1-.68,2.25,2.57,2.57,0,0,1-2,.81,1.85,1.85,0,0,1-1.3-.51,2.07,2.07,0,0,1-.61-1.39V54.6l.07-13.7V38.44q-.14-3.54-.27-10.91V20.24s-.16-.07-.35-.07-.67,1.08-1.19,3.1-1,4.05-1.46,6.07-.75,3.31-.89,3.85c-.41,2-.66,3.07-.75,3.34Q280,43,278.88,47.34T277,56.1a2.31,2.31,0,0,1-2.45,2.18A2.45,2.45,0,0,1,272.68,57.4Z"/>
        </g>
      </g>
    </g>
  </g>
</svg>
