<svg xmlns="http://www.w3.org/2000/svg" viewBox="0 0 277.99 65.34">
  <defs>
    <style>
      .cls-1 {
        fill: #ccdae7;
      }

      .cls-2 {
        fill: none;
      }
    </style>
  </defs>
  <title>Logo</title>
  <g id="Слой_2" data-name="Слой 2">
    <g>
      <g>
        <g>
          <path class="cls-1" d="M30.52,30.32a59.16,59.16,0,0,0-6.68,2.83,50.18,50.18,0,0,0-11.1,7.2,2.49,2.49,0,0,0-.48.4,4.44,4.44,0,0,0-.47.42c-.49.44-1,.91-1.47,1.42a4.36,4.36,0,0,0-.43.43,2.08,2.08,0,0,0-.35.38c-.51.51-1,1.05-1.44,1.59A25.1,25.1,0,0,0,1.89,63.13a26,26,0,0,1,8.25-16.27,48.42,48.42,0,0,1,15.5-9.69c1.37-.54,2.75-1.05,4.14-1.52.85-.29.15-1.64.65-2.21.78-.87,2.54-1.06,2.49-1.89,0-.54-1.19-.28-1.58-.52S31.29,30,30.52,30.32Z"/>
          <path class="cls-1" d="M122,63.3A27.39,27.39,0,0,0,113.8,47a38.81,38.81,0,0,0-5.1-4.23,5.05,5.05,0,0,0-.5-.35c-.16-.12-.33-.22-.49-.33-.44-.3-.87-.57-1.31-.84l-.48-.28a3.82,3.82,0,0,0-.48-.29c-.66-.41-1.33-.78-2-1.13h0a15.49,15.49,0,0,0-1.41-.71l0,0c-1.18-.58-2.36-1.12-3.56-1.62q-2.61-1-5.29-1.91c-.82-.26,0-.95-.47-1.58s-2.18-1.35-2.19-2.06.73-.54,1.07-.86.37-1,1.16-.77A62.94,62.94,0,0,1,99,32.54a4.74,4.74,0,0,1,.51.24c.18.07.36.16.54.25l.18.09a7.8,7.8,0,0,1,.7.38h0a2.31,2.31,0,0,1,.54.28h0c.18.08.34.17.52.27,0,0,0,0,0,0,.27.14.55.29.82.45h0c.9.5,1.75,1,2.62,1.58a4.8,4.8,0,0,1,.48.3,5.4,5.4,0,0,1,.47.3h0c.39.26.75.51,1.13.8h0a3.82,3.82,0,0,1,.48.34l.5.35.06,0c.24.2.48.38.72.59a3.65,3.65,0,0,1,.48.37,5.13,5.13,0,0,1,.46.38,8.64,8.64,0,0,1,.87.75,3.07,3.07,0,0,1,.48.42,4,4,0,0,1,.48.44c.48.42.93.87,1.37,1.33a2.81,2.81,0,0,1,.34.36,3.85,3.85,0,0,1,.35.35c.57.6,1.13,1.23,1.65,1.87A26.11,26.11,0,0,1,122,63.3Z"/>
        </g>
        <g>
          <g>
            <g>
              <path class="cls-1" d="M22,16c-.38-1.17-.84-2.43-1.38-3.72-.14-.31-.27-.63-.41-.93-.39-.88-.79-1.75-1.2-2.56-1.39-2.83-2.7-5-3.19-5.81-.18-.3-.3-.47-.3-.47l-.39-.61-.41.61a1.19,1.19,0,0,0-.15.21l-.13.23c-1.37,2.22-5.93,10-7.15,16.77A17,17,0,0,0,7,22.82c0,.85,0,1.6.1,2.26a11.59,11.59,0,0,0,1.08,4.2,6.27,6.27,0,0,0,5.41,3.44,3.73,3.73,0,0,0,.46,0h0l.49,0,0-2.58-.24,0h-.23l-.25,0-.24-.05a3.86,3.86,0,0,1-3.18-2.44s0-.08-.05-.12L10.25,27a14.09,14.09,0,0,1-.48-3.67v0a1.88,1.88,0,0,1,0-.33,5,5,0,0,1,0-.54,20.3,20.3,0,0,1,1-5c0-.07,0-.16.07-.24.14-.43.29-.88.45-1.32a56,56,0,0,1,2.79-6.31A3.79,3.79,0,0,0,14.33,9c.09-.16.17-.27.24-.4a0,0,0,0,0,0,0v0a4.76,4.76,0,0,1,.24-.45l.31-.59c.12.23.27.5.45.82.08.13.15.21.23.33h0v.08a3.38,3.38,0,0,0,.24.46c.08.17.17.33.26.51l.43.86c.59,1.17,1.11,2.32,1.56,3.43.26.63.5,1.25.71,1.85.12.31.22.61.31.91l.14.41a3.8,3.8,0,0,1,.16.51,19.64,19.64,0,0,1,.86,4.68,3.63,3.63,0,0,1,0,.56v.34A13,13,0,0,1,20,27a4.13,4.13,0,0,1-.22.65,5.74,5.74,0,0,1-.41.78,3.73,3.73,0,0,1-2.67,1.65l-.24,0a1.57,1.57,0,0,1-.24,0h0l-.19,0-.26,0,.06,2.59.48,0h0l.45,0a7.14,7.14,0,0,0,3.27-1.08c2.18-1.41,3.23-4.31,3.23-8.82A22.84,22.84,0,0,0,22,16ZM16.78,31.74l0-.67A4.77,4.77,0,0,0,20.21,29c.87-1.33,1.29-3.3,1.29-6a19.62,19.62,0,0,0-.93-5.51c-.1-.32-.19-.63-.31-1-.3-.88-.65-1.83-1-2.8s-1-2.3-1.6-3.5c-1.11-2.27-2-3.83-2.06-3.84l-.42-.68-.4.68A57.73,57.73,0,0,0,9.83,17.16a20,20,0,0,0-1,5.81v.39a13,13,0,0,0,.75,4.53,4.84,4.84,0,0,0,4.1,3.19v.68a5.27,5.27,0,0,1-4.58-2.91,11,11,0,0,1-1-3.86C8,24.35,8,23.64,8,22.82a15.89,15.89,0,0,1,.29-2.95c1.15-6.39,5.39-13.76,6.87-16.22.57.93,1.77,3,3,5.54.41.8.8,1.65,1.19,2.52.13.3.27.6.39.9.54,1.28,1,2.51,1.36,3.65a22.18,22.18,0,0,1,1.22,6.56c0,4.17-.92,6.79-2.79,8A6.21,6.21,0,0,1,16.78,31.74Z"/>
              <g>
                <path class="cls-2" d="M21,23c0,5.87-2.05,7.4-4.75,7.68l-.19-9-.1-5-.1-4.95-.06-3.42c0-.55-.21-1-.47-1h-.3c-.26,0-.47.45-.47,1l-.1,4.82-.1,5.15-.1,5.16-.15,7.24A4.46,4.46,0,0,1,10,27.7a12.62,12.62,0,0,1-.71-4.35V23a20,20,0,0,1,1-5.67,56.15,56.15,0,0,1,4.86-10.7s.93,1.53,2,3.8c.51,1,1.06,2.21,1.58,3.47s.95,2.46,1.34,3.73A19.32,19.32,0,0,1,21,23Z"/>
                <path class="cls-1" d="M20.33,17.52c0-.14-.09-.27-.13-.42a.06.06,0,0,0,0-.05c-.33-1.05-.73-2.13-1.2-3.27s-1-2.29-1.59-3.49c-.4-.83-.79-1.55-1.09-2.15s-.57-1-.74-1.29-.21-.36-.21-.38l-.19-.33L15,6.47l-.24.42c-.15.24-.35.6-.6,1.05V8a53.62,53.62,0,0,0-4,9.05.47.47,0,0,0-.05.1.42.42,0,0,1,0,.12,19.78,19.78,0,0,0-1,5.72v.41a12.69,12.69,0,0,0,.72,4.42,4.56,4.56,0,0,0,3.87,3,3.35,3.35,0,0,0,.47.06h0l.22,0,0-.72.12-6.55.1-5.17.11-5.14.1-5a.34.34,0,0,1,0-.14c0-.41.16-.62.22-.63h.3c.06,0,.24.27.24.77v.09l.11,4.84v.21l.09,4.94v.22l.09,4.94,0,.23L16,30.17v.72l.23,0h0a3.25,3.25,0,0,0,.45-.06c3.1-.52,4.5-3,4.5-7.86A19.93,19.93,0,0,0,20.33,17.52Zm-.09,9.69a6.42,6.42,0,0,1-.24.63,4.07,4.07,0,0,1-3.27,2.51,1.05,1.05,0,0,0-.24,0v-.26l-.12-5.91v-.88l-.09-4.28,0-.89-.09-4.27V13l-.08-3.75V8.68c.07.15.16.3.25.47.21.42.44.87.66,1.35.6,1.18,1.13,2.35,1.59,3.45.33.81.63,1.6.89,2.37.13.39.27.78.37,1.15a.64.64,0,0,1,.06.18,18.75,18.75,0,0,1,.89,5,2.44,2.44,0,0,1,0,.27c0,.21,0,.41,0,.6A12.7,12.7,0,0,1,20.24,27.21Zm-6-14.33,0,.9L14.15,18v.89l-.09,4.28,0,.88-.13,6.05v.25l-.24,0a4,4,0,0,1-3.36-2.52l-.09-.21a3,3,0,0,1-.15-.42,12.65,12.65,0,0,1-.55-3.65v-.87a19.45,19.45,0,0,1,1-5.19.24.24,0,0,1,0-.12c.12-.36.24-.74.37-1.1A51.89,51.89,0,0,1,14.08,9c.1-.18.18-.35.27-.5l0,.54Z"/>
              </g>
            </g>
            <g>
              <path class="cls-2" d="M16.43,39.07a1,1,0,0,1-.93,1h-.6a1,1,0,0,1-.94-1l.14-6.79,0-1.63.15-7.24.1-5.16.1-5.15.1-4.82c0-.55.21-1,.47-1h.3c.26,0,.47.45.47,1l.06,3.42.1,4.95.1,5,.19,9,0,1.64Z"/>
              <path class="cls-1" d="M16.63,24.47l0-.9-.08-4.27,0-.9-.07-4.26,0-.88-.07-3.5c-.09-.18-.18-.34-.26-.51a3.38,3.38,0,0,1-.24-.46V8.28c0-.55-.21-1-.47-1h-.3c-.25,0-.46.45-.46,1v.34a0,0,0,0,1,0,0c-.07.13-.15.24-.24.4a3.79,3.79,0,0,1-.27.53L14,13.15l0,.9L13.9,18.3l0,.9-.08,4.26v.89l-.12,5.74.24.05.25,0h.23l.24,0,.45-21.93a1.14,1.14,0,0,1,.09-.52h.07a1.17,1.17,0,0,1,.11.53l.43,21.91.26,0,.19,0h0a1.57,1.57,0,0,0,.24,0l.24,0Zm0,0,0-.9-.08-4.27,0-.9-.07-4.26,0-.88-.07-3.5c-.09-.18-.18-.34-.26-.51a3.38,3.38,0,0,1-.24-.46V8.28c0-.55-.21-1-.47-1h-.3c-.25,0-.46.45-.46,1v.34a0,0,0,0,1,0,0c-.07.13-.15.24-.24.4a3.79,3.79,0,0,1-.27.53L14,13.15l0,.9L13.9,18.3l0,.9-.08,4.26v.89l-.12,5.74.24.05.25,0h.23l.24,0,.45-21.93a1.14,1.14,0,0,1,.09-.52h.07a1.17,1.17,0,0,1,.11.53l.43,21.91.26,0,.19,0h0a1.57,1.57,0,0,0,.24,0l.24,0Zm0,0,0-.9-.08-4.27,0-.9-.07-4.26,0-.88-.07-3.5c-.09-.18-.18-.34-.26-.51a3.38,3.38,0,0,1-.24-.46V8.28c0-.55-.21-1-.47-1h-.3c-.25,0-.46.45-.46,1v.34a0,0,0,0,1,0,0c-.07.13-.15.24-.24.4a3.79,3.79,0,0,1-.27.53L14,13.15l0,.9L13.9,18.3l0,.9-.08,4.26v.89l-.12,5.74.24.05.25,0h.23l.24,0,.45-21.93a1.14,1.14,0,0,1,.09-.52h.07a1.17,1.17,0,0,1,.11.53l.43,21.91.26,0,.19,0h0a1.57,1.57,0,0,0,.24,0l.24,0Zm0,0,0-.9-.08-4.27,0-.9-.07-4.26,0-.88-.07-3.5c-.09-.18-.18-.34-.26-.51a3.38,3.38,0,0,1-.24-.46V8.71h0V8.28c0-.55-.21-1-.47-1h-.3c-.25,0-.46.45-.46,1v.34a0,0,0,0,1,0,0c-.07.13-.15.24-.24.4a3.79,3.79,0,0,1-.27.53L14,13.15l0,.9L13.9,18.3l0,.9-.08,4.26v.89l-.12,5.74.24.05.25,0h.23l.24,0,.45-21.93a1.14,1.14,0,0,1,.09-.52h.07a1.17,1.17,0,0,1,.11.53l.43,21.91.26,0,.19,0h0a1.57,1.57,0,0,0,.24,0l.24,0Zm0,0,0-.9-.08-4.27,0-.9-.07-4.26,0-.88-.07-3.5c-.09-.18-.18-.34-.26-.51a3.38,3.38,0,0,1-.24-.46V8.71h0V8.28c0-.55-.21-1-.47-1h-.3c-.25,0-.46.45-.46,1v.34a0,0,0,0,1,0,0c-.07.13-.15.24-.24.4a3.79,3.79,0,0,1-.27.53L14,13.15l0,.9L13.9,18.3l0,.9-.08,4.26v.89l-.12,5.74.24.05.25,0h.23l.24,0,.45-21.93a1.14,1.14,0,0,1,.09-.52h.07a1.17,1.17,0,0,1,.11.53l.43,21.91.26,0,.19,0h0a1.57,1.57,0,0,0,.24,0l.24,0Zm.24,12.27-.08-4v-.48l0-1.43v-.25l0-.21v-.27l-.1-5.61,0-.9-.08-4.27,0-.9-.07-4.26,0-.88-.07-3.5,0-.61v-1c0-.68-.32-1.17-.74-1.29a.46.46,0,0,0-.21,0H15a.56.56,0,0,0-.31.09,1.38,1.38,0,0,0-.6,1.05V8a1.46,1.46,0,0,0,0,.3V9l0,.57L14,13.15l0,.9L13.9,18.3l0,.9-.08,4.26v.89l-.12,5.74v.26l0,.24v1.17l0,1-.12,6.35a1.49,1.49,0,0,0,.19.72,1.41,1.41,0,0,0,1.23.76h.6a1.45,1.45,0,0,0,1.41-1.48ZM16,39.07a.49.49,0,0,1-.45.51h-.6a.48.48,0,0,1-.45-.5V39l.12-6.19,0-2.58.45-21.93a1.14,1.14,0,0,1,.09-.52h.07a1.17,1.17,0,0,1,.11.53l.43,21.91.06,2.59.09,4.78Zm.68-14.6,0-.9-.08-4.27,0-.9-.07-4.26,0-.88-.07-3.5c-.09-.18-.18-.34-.26-.51a3.38,3.38,0,0,1-.24-.46V8.71h0V8.28c0-.55-.21-1-.47-1h-.3c-.25,0-.46.45-.46,1v.34a0,0,0,0,1,0,0c-.07.13-.15.24-.24.4a3.79,3.79,0,0,1-.27.53L14,13.15l0,.9L13.9,18.3l0,.9-.08,4.26v.89l-.12,5.74.24.05.25,0h.23l.24,0,.45-21.93a1.14,1.14,0,0,1,.09-.52h.07a1.17,1.17,0,0,1,.11.53l.43,21.91.26,0,.19,0h0a1.57,1.57,0,0,0,.24,0l.24,0Zm0,0,0-.9-.08-4.27,0-.9-.07-4.26,0-.88-.07-3.5c-.09-.18-.18-.34-.26-.51a3.38,3.38,0,0,1-.24-.46V8.71h0V8.28c0-.55-.21-1-.47-1h-.3c-.25,0-.46.45-.46,1v.34a0,0,0,0,1,0,0c-.07.13-.15.24-.24.4a3.79,3.79,0,0,1-.27.53L14,13.15l0,.9L13.9,18.3l0,.9-.08,4.26v.89l-.12,5.74.24.05.25,0h.23l.24,0,.45-21.93a1.14,1.14,0,0,1,.09-.52h.07a1.17,1.17,0,0,1,.11.53l.43,21.91.26,0,.19,0h0a1.57,1.57,0,0,0,.24,0l.24,0Zm0,0,0-.9-.08-4.27,0-.9-.07-4.26,0-.88-.07-3.5c-.09-.18-.18-.34-.26-.51a3.38,3.38,0,0,1-.24-.46V8.28c0-.55-.21-1-.47-1h-.3c-.25,0-.46.45-.46,1v.34a0,0,0,0,1,0,0c-.07.13-.15.24-.24.4a3.79,3.79,0,0,1-.27.53L14,13.15l0,.9L13.9,18.3l0,.9-.08,4.26v.89l-.12,5.74.24.05.25,0h.23l.24,0,.45-21.93a1.14,1.14,0,0,1,.09-.52h.07a1.17,1.17,0,0,1,.11.53l.43,21.91.26,0,.19,0h0a1.57,1.57,0,0,0,.24,0l.24,0Zm0,0,0-.9-.08-4.27,0-.9-.07-4.26,0-.88-.07-3.5c-.09-.18-.18-.34-.26-.51a3.38,3.38,0,0,1-.24-.46V8.28c0-.55-.21-1-.47-1h-.3c-.25,0-.46.45-.46,1v.34a0,0,0,0,1,0,0c-.07.13-.15.24-.24.4a3.79,3.79,0,0,1-.27.53L14,13.15l0,.9L13.9,18.3l0,.9-.08,4.26v.89l-.12,5.74.24.05.25,0h.23l.24,0,.45-21.93a1.14,1.14,0,0,1,.09-.52h.07a1.17,1.17,0,0,1,.11.53l.43,21.91.26,0,.19,0h0a1.57,1.57,0,0,0,.24,0l.24,0Zm0,0,0-.9-.08-4.27,0-.9-.07-4.26,0-.88-.07-3.5c-.09-.18-.18-.34-.26-.51a3.38,3.38,0,0,1-.24-.46V8.28c0-.55-.21-1-.47-1h-.3c-.25,0-.46.45-.46,1v.34a0,0,0,0,1,0,0c-.07.13-.15.24-.24.4a3.79,3.79,0,0,1-.27.53L14,13.15l0,.9L13.9,18.3l0,.9-.08,4.26v.89l-.12,5.74.24.05.25,0h.23l.24,0,.45-21.93a1.14,1.14,0,0,1,.09-.52h.07a1.17,1.17,0,0,1,.11.53l.43,21.91.26,0,.19,0h0a1.57,1.57,0,0,0,.24,0l.24,0Z"/>
            </g>
            <g>
              <rect class="cls-1" x="17.59" y="12.23" width="0.62" height="5.93" transform="translate(-5.5 17.1) rotate(-44.99)"/>
              <rect class="cls-1" x="18.14" y="17.2" width="0.62" height="7.21" transform="translate(-9.31 19.14) rotate(-45)"/>
              <rect class="cls-1" x="17.84" y="22.52" width="0.62" height="6.07" transform="translate(-12.76 20.32) rotate(-45)"/>
            </g>
            <g>
              <rect class="cls-1" x="9.42" y="14.89" width="5.93" height="0.62" transform="translate(-7.12 13.21) rotate(-45)"/>
              <rect class="cls-1" x="8.23" y="20.49" width="7.21" height="0.62" transform="translate(-11.24 14.46) rotate(-45)"/>
              <rect class="cls-1" x="9.1" y="25.25" width="6.07" height="0.62" transform="translate(-14.52 16.07) rotate(-45)"/>
            </g>
          </g>
          <g>
            <g>
              <path class="cls-1" d="M114.69,16c-.38-1.17-.84-2.43-1.38-3.72-.14-.31-.27-.63-.41-.93-.39-.88-.79-1.75-1.2-2.56-1.39-2.83-2.7-5-3.19-5.81-.18-.3-.3-.47-.3-.47l-.39-.61-.41.61a1.19,1.19,0,0,0-.15.21l-.13.23c-1.37,2.22-5.93,10-7.15,16.77a17,17,0,0,0-.31,3.13c0,.85,0,1.6.1,2.26a11.59,11.59,0,0,0,1.08,4.2,6.27,6.27,0,0,0,5.41,3.44,3.73,3.73,0,0,0,.46,0h0l.49,0,0-2.58-.24,0h-.23l-.25,0-.24-.05a3.88,3.88,0,0,1-3.19-2.44s0-.08,0-.12l-.18-.53a14.09,14.09,0,0,1-.48-3.67v0a1.88,1.88,0,0,1,0-.33,5,5,0,0,1,0-.54,20.72,20.72,0,0,1,1-5c0-.07,0-.16.08-.24.13-.43.28-.88.45-1.32a56,56,0,0,1,2.79-6.31A3.79,3.79,0,0,0,107,9c.09-.16.17-.27.24-.4a0,0,0,0,0,0,0v0a4.76,4.76,0,0,1,.24-.45l.31-.59c.12.23.27.5.45.82.08.13.15.21.23.33h0v.08a3.38,3.38,0,0,0,.24.46c.08.17.17.33.26.51l.43.86c.59,1.17,1.11,2.32,1.56,3.43.26.63.5,1.25.71,1.85.12.31.22.61.31.91l.14.41a3.8,3.8,0,0,1,.16.51,19.64,19.64,0,0,1,.86,4.68,3.63,3.63,0,0,1,0,.56v.34a13,13,0,0,1-.5,3.69,4.13,4.13,0,0,1-.22.65,5.74,5.74,0,0,1-.41.78,3.73,3.73,0,0,1-2.67,1.65l-.24,0a1.57,1.57,0,0,1-.24,0h0l-.19,0-.26,0,.06,2.59.48,0h0l.45,0a7.14,7.14,0,0,0,3.27-1.08c2.18-1.41,3.23-4.31,3.23-8.82A22.84,22.84,0,0,0,114.69,16Zm-5.25,15.77,0-.67A4.77,4.77,0,0,0,112.87,29c.87-1.33,1.29-3.3,1.29-6a19.62,19.62,0,0,0-.93-5.51c-.1-.32-.19-.63-.31-1-.3-.88-.65-1.83-1-2.8s-1-2.3-1.6-3.5c-1.11-2.27-2-3.83-2.06-3.84l-.42-.68-.4.68a57.73,57.73,0,0,0-4.91,10.82,20,20,0,0,0-1,5.81v.39a13,13,0,0,0,.75,4.53,4.82,4.82,0,0,0,4.1,3.19v.68a5.26,5.26,0,0,1-4.58-2.91,11,11,0,0,1-1-3.86c-.06-.64-.09-1.35-.09-2.17a15.89,15.89,0,0,1,.29-2.95c1.15-6.39,5.39-13.76,6.87-16.22.57.93,1.77,3,3,5.54.41.8.8,1.65,1.19,2.52.13.3.27.6.39.9.54,1.28,1,2.51,1.36,3.65A22.18,22.18,0,0,1,115,22.82c0,4.17-.92,6.79-2.79,8A6.21,6.21,0,0,1,109.44,31.74Z"/>
              <g>
                <path class="cls-2" d="M113.68,23c0,5.87-2.05,7.4-4.75,7.68l-.19-9-.1-5-.1-4.95-.06-3.42c0-.55-.21-1-.47-1h-.3c-.26,0-.47.45-.47,1l-.1,4.82-.1,5.15-.1,5.16-.15,7.24a4.46,4.46,0,0,1-4.14-2.95,12.38,12.38,0,0,1-.71-4.35V23a20.3,20.3,0,0,1,1-5.67,56.56,56.56,0,0,1,4.87-10.7s.93,1.53,2,3.8c.51,1,1.06,2.21,1.58,3.47s.95,2.46,1.33,3.73A19.34,19.34,0,0,1,113.68,23Z"/>
                <path class="cls-1" d="M113,17.52c0-.14-.09-.27-.13-.42a.06.06,0,0,0,0-.05c-.33-1.05-.73-2.13-1.2-3.27s-1-2.29-1.59-3.49c-.4-.83-.79-1.55-1.09-2.15s-.57-1-.74-1.29-.21-.36-.21-.38l-.19-.33-.21.33-.24.42c-.15.24-.35.6-.6,1.05V8a53.54,53.54,0,0,0-4,9.05l0,.1a.42.42,0,0,1,0,.12,19.78,19.78,0,0,0-1,5.72v.41a12.69,12.69,0,0,0,.72,4.42,4.54,4.54,0,0,0,3.87,3,3.35,3.35,0,0,0,.47.06h0l.22,0,0-.72.12-6.55.1-5.17.11-5.14.1-5a.34.34,0,0,1,0-.14c0-.41.16-.62.22-.63h.3c.06,0,.24.27.24.77v.09l.11,4.84v.21l.09,4.94v.22l.09,4.94,0,.23.12,6.42v.72l.23,0h0a3.25,3.25,0,0,0,.45-.06c3.1-.52,4.5-3,4.5-7.86A19.93,19.93,0,0,0,113,17.52Zm-.09,9.69a6.42,6.42,0,0,1-.24.63,4.07,4.07,0,0,1-3.27,2.51,1.05,1.05,0,0,0-.24,0v-.26L109,24.21v-.88l-.09-4.28,0-.89-.09-4.27V13l-.08-3.75V8.68c.07.15.16.3.25.47.21.42.44.87.66,1.35.6,1.18,1.13,2.35,1.59,3.45.33.81.63,1.6.89,2.37.13.39.27.78.37,1.15a.64.64,0,0,1,.06.18,18.75,18.75,0,0,1,.89,5,2.44,2.44,0,0,1,0,.27c0,.21,0,.41,0,.6A12.7,12.7,0,0,1,112.9,27.21Zm-6-14.33,0,.9L106.81,18v.89l-.09,4.28,0,.88-.13,6.05v.25l-.24,0A4,4,0,0,1,103,27.83l-.09-.21c-.06-.14-.1-.27-.15-.42a13,13,0,0,1-.54-3.65v-.87a19.8,19.8,0,0,1,1-5.19.42.42,0,0,1,0-.12c.12-.36.24-.74.38-1.1A51.89,51.89,0,0,1,106.74,9c.1-.18.18-.35.27-.5L107,9Z"/>
              </g>
            </g>
            <g>
              <path class="cls-2" d="M109.09,39.07a1,1,0,0,1-.94,1h-.59a1,1,0,0,1-.94-1l.14-6.79,0-1.63.15-7.24.1-5.16.1-5.15.1-4.82c0-.55.21-1,.47-1h.3c.26,0,.47.45.47,1l.06,3.42.1,4.95.1,5,.19,9,0,1.64Z"/>
              <path class="cls-1" d="M109.29,24.47l0-.9-.08-4.27,0-.9-.07-4.26,0-.88L109,9.76c-.09-.18-.18-.34-.26-.51a3.38,3.38,0,0,1-.24-.46V8.28c0-.55-.21-1-.47-1h-.3c-.25,0-.46.45-.46,1v.34a0,0,0,0,1,0,0c-.07.13-.15.24-.24.4a3.79,3.79,0,0,1-.27.53l-.07,3.58,0,.9-.07,4.25,0,.9-.08,4.26v.89l-.12,5.74.24.05.25,0H107l.24,0,.45-21.93a1.14,1.14,0,0,1,.09-.52h.07a1.17,1.17,0,0,1,.11.53l.43,21.91.26,0,.19,0h0a1.57,1.57,0,0,0,.24,0l.24,0Zm0,0,0-.9-.08-4.27,0-.9-.07-4.26,0-.88L109,9.76c-.09-.18-.18-.34-.26-.51a3.38,3.38,0,0,1-.24-.46V8.28c0-.55-.21-1-.47-1h-.3c-.25,0-.46.45-.46,1v.34a0,0,0,0,1,0,0c-.07.13-.15.24-.24.4a3.79,3.79,0,0,1-.27.53l-.07,3.58,0,.9-.07,4.25,0,.9-.08,4.26v.89l-.12,5.74.24.05.25,0H107l.24,0,.45-21.93a1.14,1.14,0,0,1,.09-.52h.07a1.17,1.17,0,0,1,.11.53l.43,21.91.26,0,.19,0h0a1.57,1.57,0,0,0,.24,0l.24,0Zm0,0,0-.9-.08-4.27,0-.9-.07-4.26,0-.88L109,9.76c-.09-.18-.18-.34-.26-.51a3.38,3.38,0,0,1-.24-.46V8.28c0-.55-.21-1-.47-1h-.3c-.25,0-.46.45-.46,1v.34a0,0,0,0,1,0,0c-.07.13-.15.24-.24.4a3.79,3.79,0,0,1-.27.53l-.07,3.58,0,.9-.07,4.25,0,.9-.08,4.26v.89l-.12,5.74.24.05.25,0H107l.24,0,.45-21.93a1.14,1.14,0,0,1,.09-.52h.07a1.17,1.17,0,0,1,.11.53l.43,21.91.26,0,.19,0h0a1.57,1.57,0,0,0,.24,0l.24,0Zm0,0,0-.9-.08-4.27,0-.9-.07-4.26,0-.88L109,9.76c-.09-.18-.18-.34-.26-.51a3.38,3.38,0,0,1-.24-.46V8.71h0V8.28c0-.55-.21-1-.47-1h-.3c-.25,0-.46.45-.46,1v.34a0,0,0,0,1,0,0c-.07.13-.15.24-.24.4a3.79,3.79,0,0,1-.27.53l-.07,3.58,0,.9-.07,4.25,0,.9-.08,4.26v.89l-.12,5.74.24.05.25,0H107l.24,0,.45-21.93a1.14,1.14,0,0,1,.09-.52h.07a1.17,1.17,0,0,1,.11.53l.43,21.91.26,0,.19,0h0a1.57,1.57,0,0,0,.24,0l.24,0Zm0,0,0-.9-.08-4.27,0-.9-.07-4.26,0-.88L109,9.76c-.09-.18-.18-.34-.26-.51a3.38,3.38,0,0,1-.24-.46V8.71h0V8.28c0-.55-.21-1-.47-1h-.3c-.25,0-.46.45-.46,1v.34a0,0,0,0,1,0,0c-.07.13-.15.24-.24.4a3.79,3.79,0,0,1-.27.53l-.07,3.58,0,.9-.07,4.25,0,.9-.08,4.26v.89l-.12,5.74.24.05.25,0H107l.24,0,.45-21.93a1.14,1.14,0,0,1,.09-.52h.07a1.17,1.17,0,0,1,.11.53l.43,21.91.26,0,.19,0h0a1.57,1.57,0,0,0,.24,0l.24,0Zm.24,12.27-.08-4v-.48l0-1.43v-.25l0-.21v-.27l-.1-5.61,0-.9-.08-4.27,0-.9-.07-4.26,0-.88L109,9.76l0-.61v-1c0-.68-.32-1.17-.74-1.29a.46.46,0,0,0-.21,0h-.33a.56.56,0,0,0-.31.09,1.38,1.38,0,0,0-.6,1.05V8a1.46,1.46,0,0,0,0,.3V9l0,.57-.07,3.58,0,.9-.07,4.25,0,.9-.08,4.26v.89l-.12,5.74v.26l0,.24v1.17l0,1-.12,6.35a1.49,1.49,0,0,0,.19.72,1.41,1.41,0,0,0,1.23.76h.6a1.45,1.45,0,0,0,1.41-1.48Zm-.92,2.33a.49.49,0,0,1-.45.51h-.6a.48.48,0,0,1-.45-.5V39l.12-6.19,0-2.58.45-21.93a1.14,1.14,0,0,1,.09-.52h.07a1.17,1.17,0,0,1,.11.53l.43,21.91.06,2.59.09,4.78Zm.68-14.6,0-.9-.08-4.27,0-.9-.07-4.26,0-.88L109,9.76c-.09-.18-.18-.34-.26-.51a3.38,3.38,0,0,1-.24-.46V8.71h0V8.28c0-.55-.21-1-.47-1h-.3c-.25,0-.46.45-.46,1v.34a0,0,0,0,1,0,0c-.07.13-.15.24-.24.4a3.79,3.79,0,0,1-.27.53l-.07,3.58,0,.9-.07,4.25,0,.9-.08,4.26v.89l-.12,5.74.24.05.25,0H107l.24,0,.45-21.93a1.14,1.14,0,0,1,.09-.52h.07a1.17,1.17,0,0,1,.11.53l.43,21.91.26,0,.19,0h0a1.57,1.57,0,0,0,.24,0l.24,0Zm0,0,0-.9-.08-4.27,0-.9-.07-4.26,0-.88L109,9.76c-.09-.18-.18-.34-.26-.51a3.38,3.38,0,0,1-.24-.46V8.71h0V8.28c0-.55-.21-1-.47-1h-.3c-.25,0-.46.45-.46,1v.34a0,0,0,0,1,0,0c-.07.13-.15.24-.24.4a3.79,3.79,0,0,1-.27.53l-.07,3.58,0,.9-.07,4.25,0,.9-.08,4.26v.89l-.12,5.74.24.05.25,0H107l.24,0,.45-21.93a1.14,1.14,0,0,1,.09-.52h.07a1.17,1.17,0,0,1,.11.53l.43,21.91.26,0,.19,0h0a1.57,1.57,0,0,0,.24,0l.24,0Zm0,0,0-.9-.08-4.27,0-.9-.07-4.26,0-.88L109,9.76c-.09-.18-.18-.34-.26-.51a3.38,3.38,0,0,1-.24-.46V8.28c0-.55-.21-1-.47-1h-.3c-.25,0-.46.45-.46,1v.34a0,0,0,0,1,0,0c-.07.13-.15.24-.24.4a3.79,3.79,0,0,1-.27.53l-.07,3.58,0,.9-.07,4.25,0,.9-.08,4.26v.89l-.12,5.74.24.05.25,0H107l.24,0,.45-21.93a1.14,1.14,0,0,1,.09-.52h.07a1.17,1.17,0,0,1,.11.53l.43,21.91.26,0,.19,0h0a1.57,1.57,0,0,0,.24,0l.24,0Zm0,0,0-.9-.08-4.27,0-.9-.07-4.26,0-.88L109,9.76c-.09-.18-.18-.34-.26-.51a3.38,3.38,0,0,1-.24-.46V8.28c0-.55-.21-1-.47-1h-.3c-.25,0-.46.45-.46,1v.34a0,0,0,0,1,0,0c-.07.13-.15.24-.24.4a3.79,3.79,0,0,1-.27.53l-.07,3.58,0,.9-.07,4.25,0,.9-.08,4.26v.89l-.12,5.74.24.05.25,0H107l.24,0,.45-21.93a1.14,1.14,0,0,1,.09-.52h.07a1.17,1.17,0,0,1,.11.53l.43,21.91.26,0,.19,0h0a1.57,1.57,0,0,0,.24,0l.24,0Zm0,0,0-.9-.08-4.27,0-.9-.07-4.26,0-.88L109,9.76c-.09-.18-.18-.34-.26-.51a3.38,3.38,0,0,1-.24-.46V8.28c0-.55-.21-1-.47-1h-.3c-.25,0-.46.45-.46,1v.34a0,0,0,0,1,0,0c-.07.13-.15.24-.24.4a3.79,3.79,0,0,1-.27.53l-.07,3.58,0,.9-.07,4.25,0,.9-.08,4.26v.89l-.12,5.74.24.05.25,0H107l.24,0,.45-21.93a1.14,1.14,0,0,1,.09-.52h.07a1.17,1.17,0,0,1,.11.53l.43,21.91.26,0,.19,0h0a1.57,1.57,0,0,0,.24,0l.24,0Z"/>
            </g>
            <g>
              <rect class="cls-1" x="110.25" y="12.23" width="0.62" height="5.93" transform="translate(21.62 82.61) rotate(-44.99)"/>
              <rect class="cls-1" x="110.8" y="17.2" width="0.62" height="7.21" transform="translate(17.83 84.65) rotate(-45)"/>
              <rect class="cls-1" x="110.5" y="22.52" width="0.62" height="6.07" transform="translate(14.38 85.84) rotate(-45)"/>
            </g>
            <g>
              <rect class="cls-1" x="102.08" y="14.89" width="5.93" height="0.62" transform="translate(20.02 78.73) rotate(-45)"/>
              <rect class="cls-1" x="100.89" y="20.49" width="7.21" height="0.62" transform="translate(15.9 79.98) rotate(-45)"/>
              <rect class="cls-1" x="101.76" y="25.25" width="6.07" height="0.62" transform="translate(12.62 81.59) rotate(-45)"/>
            </g>
          </g>
        </g>
        <g id="House">
          <rect class="cls-1" x="51.15" y="57.35" width="22.56" height="1.04"/>
          <path class="cls-1" d="M64.32,18.08H58.6a2.16,2.16,0,0,0-2.16,2.16v7.3h10v-7.3A2.16,2.16,0,0,0,64.32,18.08Zm1.12,8.41h-8V20.24A1.14,1.14,0,0,1,58.6,19.1h5.72a1.13,1.13,0,0,1,1.12,1.14Z"/>
          <path class="cls-1" d="M48.68,38.7a2.39,2.39,0,0,0-2.36-2H41a2.44,2.44,0,0,0-2.43,2.45v7.06A2.45,2.45,0,0,0,41,48.65h5.29a2.37,2.37,0,0,0,2.11-1.3,2.24,2.24,0,0,0,.3-1.17V39.12A2,2,0,0,0,48.68,38.7Zm-8.93.42A1.28,1.28,0,0,1,41,37.84h5.29a1.3,1.3,0,0,1,1.22.95,1.66,1.66,0,0,1,0,.33v7.06a1.29,1.29,0,0,1-1.26,1.31H41a1.3,1.3,0,0,1-1.28-1.31Z"/>
          <path class="cls-1" d="M82.7,36.74H77.41a2.43,2.43,0,0,0-2.32,1.82,2,2,0,0,0-.09.65v7.07a2.93,2.93,0,0,0,.16.9,2.46,2.46,0,0,0,2.25,1.57H82.7a2.39,2.39,0,0,0,1.7-.7,2.46,2.46,0,0,0,.73-1.77V39.21A2.45,2.45,0,0,0,82.7,36.74ZM84,46.28a1.29,1.29,0,0,1-1.28,1.3H77.41a1.3,1.3,0,0,1-.8-.3,1.33,1.33,0,0,1-.46-1V39.21a1.62,1.62,0,0,1,.11-.58h0a1.27,1.27,0,0,1,1.13-.7H82.7A1.27,1.27,0,0,1,84,39.21Z"/>
          <path class="cls-1" d="M66,38.07a3.1,3.1,0,0,0-2.62-1.42H59.49a3.06,3.06,0,0,0-2.64,1.52,3,3,0,0,0-.51,1.67V55.11a3.28,3.28,0,0,0,.88,2.21,3.18,3.18,0,0,0,2.27,1H63.4a3.08,3.08,0,0,0,2.27-1,3.28,3.28,0,0,0,.88-2.21V39.84A3.18,3.18,0,0,0,66,38.07Zm-.69,17a1.94,1.94,0,0,1-1.93,2H59.49a2,2,0,0,1-1.93-2V39.84a1.93,1.93,0,0,1,1.13-1.77,2,2,0,0,1,.8-.18H63.4a1.55,1.55,0,0,1,.67.14,1.91,1.91,0,0,1,1.26,1.81Z"/>
          <g>
            <path class="cls-1" d="M59,27.54v.07h5.17v-.07Zm0,0v.07h5.17v-.07Zm0,0v.07h5.17v-.07Zm0,0v.07h5.17v-.07Zm0,0v.07h5.17v-.07Zm0,0v.07h5.17v-.07Zm0,0v.07h5.17v-.07Zm-23.83-1.1a3,3,0,0,1,.23,1.17H87.7l.39-1.17Zm52.77,7H35c.14.35.49.72.49,1.12,0,0,52.32,0,52.32,0A2.65,2.65,0,0,0,87.92,33.46ZM59,27.54v.07h5.17v-.07Zm0,0v.07h5.17v-.07Zm0,0v.07h5.17v-.07Zm0,0v.07h5.17v-.07Zm0,0v.07h5.17v-.07Zm0,0v.07h5.17v-.07Z"/>
            <path class="cls-1" d="M84.21,27.42v2.36h.58V27.42Zm-2.87,0v2.36h.57V27.42Zm-2.87,0v2.36H79V27.42Zm-2.85,0v2.36h.55V27.42Zm-2.87,0v2.36h.57V27.42Zm-2.88,0v2.36h.58V27.42Zm-2.87,0v2.36h.57V27.42Zm-2.85,0v2.36h.58V27.42Zm-2.87,0v2.36h.57V27.42Zm-2.87,0v2.36H59V27.42Zm-2.85,0v2.36h.57V27.42Zm-2.88,0v2.36h.58V27.42Zm-2.87,0v2.36h.58V27.42Zm-2.85,0v2.36h.58V27.42Zm-2.87,0v2.36h.57V27.42Zm-2.87,0v2.36h.57V27.42Zm-2.85,0v2.36h.55V27.42Z"/>
          </g>
          <g>
            <path class="cls-1" d="M84.33,50.77v2.36h.57V50.77Zm-2.85,0v2.36h.57V50.77Zm-2.87,0v2.36h.57V50.77Zm-2.88,0v2.36h.58V50.77Zm-2.85,0v2.36h.58V50.77Z"/>
            <path class="cls-1" d="M49.49,50.77v2.36h.57V50.77Zm-2.85,0v2.36h.57V50.77Zm-2.87,0v2.36h.57V50.77Zm-2.88,0v2.36h.58V50.77Zm-2.85,0v2.36h.56V50.77Z"/>
            <path class="cls-1" d="M51.79,50.28H33.84a3.74,3.74,0,0,1-1.1.14.75.75,0,0,0-.12.07c-.3.14-.29,1.13-.24,1.08s.82-.21,1-.21H51.79a.53.53,0,0,1,.53.53v4.92a.52.52,0,0,1-.42.51s-.07,0-.11,0H33.38a.54.54,0,0,1-.53-.54H31.79a1.34,1.34,0,0,0,.21.75,1.57,1.57,0,0,0,1.38.83H51.79a1.57,1.57,0,0,0,1.49-1.07,1.22,1.22,0,0,0,.09-.51V51.89A1.6,1.6,0,0,0,51.79,50.28Zm-17.42,1s0,0-.07,0h.11S34.39,51.33,34.37,51.33Z"/>
            <path class="cls-1" d="M91.06,51.54a1.37,1.37,0,0,0-.21-.46s0-.07-.06-.12a1.78,1.78,0,0,0-.65-.54l0,0-.48-.12H71.09a1.6,1.6,0,0,0-1.58,1.59v4.92a1.34,1.34,0,0,0,.09.53,1.56,1.56,0,0,0,1.49,1.07H89.5a1.59,1.59,0,0,0,1.31-.69,1.62,1.62,0,0,0,.27-.91v-.31a2.06,2.06,0,0,1-.57.1h-.07c-.14,0-.11.16-.25.13l-.16.08a.53.53,0,0,1-.53.53H71.09a.52.52,0,0,1-.53-.53V51.87s0-.07,0-.09a.5.5,0,0,1,.5-.45H89.5a.25.25,0,0,1,.14,0,.39.39,0,0,1,.27.21.47.47,0,0,1,.12.3v.37a2.71,2.71,0,0,1,.41,0,1,1,0,0,1,.35,0,.62.62,0,0,1,.29.07v-.44A1.83,1.83,0,0,0,91.06,51.54Z"/>
          </g>
          <g>
            <g>
              <g>
                <path class="cls-1" d="M32.63,52.3a2.17,2.17,0,1,1-2.11,2.17,2.14,2.14,0,0,1,2.11-2.17m0-1.16a3.33,3.33,0,1,0,3.28,3.33,3.3,3.3,0,0,0-3.28-3.33Z"/>
                <path class="cls-1" d="M32.63,53.44a1,1,0,1,1-1,1,1,1,0,0,1,1-1m0-.26a1.29,1.29,0,1,0,1.27,1.29,1.27,1.27,0,0,0-1.27-1.29Z"/>
              </g>
              <g>
                <path class="cls-1" d="M32.63,45.67a2.17,2.17,0,1,1-2.11,2.17,2.14,2.14,0,0,1,2.11-2.17m0-1.15a3.32,3.32,0,1,0,3.28,3.32,3.29,3.29,0,0,0-3.28-3.32Z"/>
                <path class="cls-1" d="M32.63,46.81a1,1,0,1,1-1,1,1,1,0,0,1,1-1m0-.26a1.29,1.29,0,1,0,1.27,1.29,1.27,1.27,0,0,0-1.27-1.29Z"/>
              </g>
              <g>
                <path class="cls-1" d="M32.63,39a2.17,2.17,0,1,1-2.11,2.17A2.14,2.14,0,0,1,32.63,39m0-1.15a3.32,3.32,0,1,0,3.28,3.32,3.29,3.29,0,0,0-3.28-3.32Z"/>
                <path class="cls-1" d="M32.63,40.18a1,1,0,1,1-1,1,1,1,0,0,1,1-1m0-.26a1.29,1.29,0,1,0,1.27,1.29,1.27,1.27,0,0,0-1.27-1.29Z"/>
              </g>
              <g>
                <path class="cls-1" d="M32.63,32.42a2.17,2.17,0,1,1-2.11,2.16,2.14,2.14,0,0,1,2.11-2.16m0-1.16a3.32,3.32,0,1,0,3.28,3.32,3.29,3.29,0,0,0-3.28-3.32Z"/>
                <path class="cls-1" d="M32.63,33.56a1,1,0,1,1-1,1,1,1,0,0,1,1-1m0-.26a1.28,1.28,0,1,0,1.27,1.28,1.27,1.27,0,0,0-1.27-1.28Z"/>
              </g>
              <g>
                <path class="cls-1" d="M32.63,25.76a2.17,2.17,0,1,1-2.11,2.16,2.14,2.14,0,0,1,2.11-2.16m0-1.16a3.33,3.33,0,1,0,3.28,3.32,3.29,3.29,0,0,0-3.28-3.32Z"/>
                <path class="cls-1" d="M32.63,26.9a1,1,0,1,1-1,1,1,1,0,0,1,1-1m0-.26a1.29,1.29,0,1,0,1.27,1.28,1.27,1.27,0,0,0-1.27-1.28Z"/>
              </g>
            </g>
            <g>
              <g>
                <path class="cls-1" d="M90.25,52.3a2.17,2.17,0,1,1-2.12,2.17,2.14,2.14,0,0,1,2.12-2.17m0-1.16a3.33,3.33,0,1,0,3.27,3.33,3.31,3.31,0,0,0-3.27-3.33Z"/>
                <path class="cls-1" d="M90.25,53.44a1,1,0,1,1-1,1,1,1,0,0,1,1-1m0-.26a1.29,1.29,0,1,0,1.26,1.29,1.28,1.28,0,0,0-1.26-1.29Z"/>
              </g>
              <g>
                <path class="cls-1" d="M90.25,45.67a2.17,2.17,0,1,1-2.12,2.17,2.14,2.14,0,0,1,2.12-2.17m0-1.15a3.32,3.32,0,1,0,3.27,3.32,3.3,3.3,0,0,0-3.27-3.32Z"/>
                <path class="cls-1" d="M90.25,46.81a1,1,0,1,1-1,1,1,1,0,0,1,1-1m0-.26a1.29,1.29,0,1,0,1.26,1.29,1.28,1.28,0,0,0-1.26-1.29Z"/>
              </g>
              <g>
                <path class="cls-1" d="M90.25,39a2.17,2.17,0,1,1-2.12,2.17A2.14,2.14,0,0,1,90.25,39m0-1.15a3.32,3.32,0,1,0,3.27,3.32,3.3,3.3,0,0,0-3.27-3.32Z"/>
                <path class="cls-1" d="M90.25,40.18a1,1,0,1,1-1,1,1,1,0,0,1,1-1m0-.26a1.29,1.29,0,1,0,1.26,1.29,1.28,1.28,0,0,0-1.26-1.29Z"/>
              </g>
              <g>
                <path class="cls-1" d="M90.25,32.42a2.17,2.17,0,1,1-2.12,2.16,2.14,2.14,0,0,1,2.12-2.16m0-1.16a3.32,3.32,0,1,0,3.27,3.32,3.3,3.3,0,0,0-3.27-3.32Z"/>
                <path class="cls-1" d="M90.25,33.56a1,1,0,1,1-1,1,1,1,0,0,1,1-1m0-.26a1.28,1.28,0,1,0,1.26,1.28,1.27,1.27,0,0,0-1.26-1.28Z"/>
              </g>
              <g>
                <path class="cls-1" d="M90.25,25.76a2.17,2.17,0,1,1-2.12,2.16,2.14,2.14,0,0,1,2.12-2.16m0-1.16a3.33,3.33,0,1,0,3.27,3.32,3.3,3.3,0,0,0-3.27-3.32Z"/>
                <path class="cls-1" d="M90.25,26.9a1,1,0,1,1-1,1,1,1,0,0,1,1-1m0-.26a1.29,1.29,0,1,0,1.26,1.28,1.28,1.28,0,0,0-1.26-1.28Z"/>
              </g>
            </g>
          </g>
          <path class="cls-1" d="M62.06,13a.13.13,0,0,1,.11.05v0Zm-.69-.07a2.73,2.73,0,0,0-.64.07H62A2.73,2.73,0,0,0,61.37,12.88Zm.69.07a.13.13,0,0,1,.11.05v0Zm-.69-.07a2.73,2.73,0,0,0-.64.07H62A2.73,2.73,0,0,0,61.37,12.88Zm.69.07a.13.13,0,0,1,.11.05v0Zm-.69-.07a2.73,2.73,0,0,0-.64.07H62A2.73,2.73,0,0,0,61.37,12.88Zm.69.07a.13.13,0,0,1,.11.05v0Zm-.69-.07a2.73,2.73,0,0,0-.64.07H62A2.73,2.73,0,0,0,61.37,12.88Zm.69.07a.13.13,0,0,1,.11.05v0Zm-.69-.07a2.73,2.73,0,0,0-.64.07H62A2.73,2.73,0,0,0,61.37,12.88Zm.69.07a.13.13,0,0,1,.11.05v0Zm-.69-.07a2.73,2.73,0,0,0-.64.07H62A2.73,2.73,0,0,0,61.37,12.88Zm.69.07a.13.13,0,0,1,.11.05v0Zm-.69-.07a2.73,2.73,0,0,0-.64.07H62A2.73,2.73,0,0,0,61.37,12.88Zm.69.07a.13.13,0,0,1,.11.05v0Zm-.69-.07a2.73,2.73,0,0,0-.64.07H62A2.73,2.73,0,0,0,61.37,12.88Zm.69.07a.13.13,0,0,1,.11.05v0Zm-.69-.07a2.73,2.73,0,0,0-.64.07H62A2.73,2.73,0,0,0,61.37,12.88Zm.69.07a.13.13,0,0,1,.11.05v0Zm-.69-.07a2.73,2.73,0,0,0-.64.07H62A2.73,2.73,0,0,0,61.37,12.88Zm.69.07a.13.13,0,0,1,.11.05v0Zm-.69-.07a2.73,2.73,0,0,0-.64.07H62A2.73,2.73,0,0,0,61.37,12.88Zm.69.07a.13.13,0,0,1,.11.05v0Zm-.69-.07a2.73,2.73,0,0,0-.64.07H62A2.73,2.73,0,0,0,61.37,12.88Zm.69.07a.13.13,0,0,1,.11.05v0Zm-1.33,0H62a3,3,0,0,0-1.28,0ZM96.9,21.41,94,15.23l-.26-.51L92.42,12l-.14-.28L92,11.2l-2.42-5a5.74,5.74,0,0,0-.89-1.35c-.09-.12-.21-.21-.32-.33l0,0h0v0c-.14-.14-.25-.23-.39-.35A.93.93,0,0,0,87.77,4a1.8,1.8,0,0,0-.45-.33,4.36,4.36,0,0,0-.42-.23,2.57,2.57,0,0,0-.41-.19l-.42-.14A.39.39,0,0,0,85.8,3a5.22,5.22,0,0,0-1.47-.21H38.53A6.35,6.35,0,0,0,36.9,3a5.1,5.1,0,0,0-1.48.68s0,0,0,0a3.49,3.49,0,0,0-.62.47,5.3,5.3,0,0,0-.6.56l0,.05c-.11.16-.22.3-.34.46a.64.64,0,0,0-.11.16,3.47,3.47,0,0,0-.42.73L31,10.87s0,0,0,.05,0,0,0,0l-.5,1.1-1.63,3.43h0l-.25.56L26,21.36a2.85,2.85,0,0,0-.16.44,1.92,1.92,0,0,0-.05.63,1.74,1.74,0,0,0,.1.59,2.38,2.38,0,0,0,.22.53A2.22,2.22,0,0,0,28,24.62H45.49A3.22,3.22,0,0,0,47.44,24l2-1.51v0l.09-.07.34-.25L56,17.52h0l.78-.61,0-.05,1.88-1.42h0l.39-.32.78-.59a2.25,2.25,0,0,1,.9-.42,2.44,2.44,0,0,1,1.14,0,2.37,2.37,0,0,1,.88.42l.25.19,1.31,1,.46.35,0,0,1.19.91v0h0l.46.35L72,21.46l.44.32v0l.46.33.78.58,1.77,1.36a2.83,2.83,0,0,0,1.7.55H94.92a1.68,1.68,0,0,0,.6-.09,2.5,2.5,0,0,0,.53-.23h0a2,2,0,0,0,.71-.72A2.21,2.21,0,0,0,96.9,21.41Zm-.92,1a.67.67,0,0,1,0,.26l-.07.14v0a.15.15,0,0,1,0,.1.65.65,0,0,1-.19.21c0,.07-.13.11-.2.16a1,1,0,0,1-.51.14H77.18a1.63,1.63,0,0,1-1-.35l-.07-.05-1.33-1s0,0,0,0h0l-1.56-1.19-.44-.33-4-3-.3-.21-.62-.47-.28-.21-.27-.21-.44-.32-2.66-2-.69-.51a.71.71,0,0,0-.09-.07A3.38,3.38,0,0,0,62.24,13s0,0,0,0,0,0,0,0v0l-.11,0H62a3,3,0,0,0-1.28,0h0a2.6,2.6,0,0,0-.89.3,2.76,2.76,0,0,0-.49.28,1.05,1.05,0,0,1-.11.07l-.67.51h0L55.1,16.72h0l-.39.31v0h0l-5.35,4.06v0h0l-.41.3L46.75,23a2,2,0,0,1-1.26.42H28a1,1,0,0,1-.92-.54A1.13,1.13,0,0,1,27,21.85l.6-1.26.19-.37,1.44-3h0l.23-.54h0l2-4.31.39-.77.19-.4v0l.21-.42.18-.39,0,0,.26-.56.25-.49,1.22-2.58a1.51,1.51,0,0,1,.23-.35.08.08,0,0,1,0-.07s0-.12.09-.14a1.32,1.32,0,0,1,.18-.26v0a.53.53,0,0,1,.12-.14,4.39,4.39,0,0,1,1.13-1,2.58,2.58,0,0,1,.43-.26l.23-.09c.19-.07.35-.14.53-.19A5,5,0,0,1,38.53,4h45.8a.9.9,0,0,1,.23,0,.67.67,0,0,1,.2,0,1.41,1.41,0,0,1,.35,0,2.49,2.49,0,0,1,.46.09.18.18,0,0,1,.11.05,2.13,2.13,0,0,1,.56.21,2.71,2.71,0,0,1,.45.23,7.07,7.07,0,0,1,.63.44h0v0a1.68,1.68,0,0,1,.37.34h0v0a2.3,2.3,0,0,1,.32.37.81.81,0,0,1,.18.26,2.12,2.12,0,0,1,.35.56v0l1.81,3.82.14.26,0,.09s0,.05,0,.07l.28.61.23.49,0,0,1.63,3.45.28.56,2.8,5.87a1.57,1.57,0,0,1,.1.28v0A.75.75,0,0,1,96,22.43ZM61.37,12.88a2.73,2.73,0,0,0-.64.07H62A2.73,2.73,0,0,0,61.37,12.88Zm.69.07a.13.13,0,0,1,.11.05v0Zm-.69-.07a2.73,2.73,0,0,0-.64.07H62A2.73,2.73,0,0,0,61.37,12.88Zm.69.07a.13.13,0,0,1,.11.05v0Zm-.69-.07a2.73,2.73,0,0,0-.64.07H62A2.73,2.73,0,0,0,61.37,12.88Zm.69.07a.13.13,0,0,1,.11.05v0Zm-.69-.07a2.73,2.73,0,0,0-.64.07H62A2.73,2.73,0,0,0,61.37,12.88Zm.69.07a.13.13,0,0,1,.11.05v0Zm-.69-.07a2.73,2.73,0,0,0-.64.07H62A2.73,2.73,0,0,0,61.37,12.88Zm.69.07a.13.13,0,0,1,.11.05v0Zm-.69-.07a2.73,2.73,0,0,0-.64.07H62A2.73,2.73,0,0,0,61.37,12.88Zm.69.07a.13.13,0,0,1,.11.05v0Zm-.69-.07a2.73,2.73,0,0,0-.64.07H62A2.73,2.73,0,0,0,61.37,12.88Zm.69.07a.13.13,0,0,1,.11.05v0Zm-.69-.07a2.73,2.73,0,0,0-.64.07H62A2.73,2.73,0,0,0,61.37,12.88Zm.69.07a.13.13,0,0,1,.11.05v0Zm-.69-.07a2.73,2.73,0,0,0-.64.07H62A2.73,2.73,0,0,0,61.37,12.88Zm.69.07a.13.13,0,0,1,.11.05v0Zm-.69-.07a2.73,2.73,0,0,0-.64.07H62A2.73,2.73,0,0,0,61.37,12.88Zm.69.07a.13.13,0,0,1,.11.05v0Zm-.69-.07a2.73,2.73,0,0,0-.64.07H62A2.73,2.73,0,0,0,61.37,12.88Zm.69.07a.13.13,0,0,1,.11.05v0Zm-.69-.07a2.73,2.73,0,0,0-.64.07H62A2.73,2.73,0,0,0,61.37,12.88Zm.69.07a.13.13,0,0,1,.11.05v0Zm-.69-.07a2.73,2.73,0,0,0-.64.07H62A2.73,2.73,0,0,0,61.37,12.88Zm.69.07a.13.13,0,0,1,.11.05v0Z"/>
          <g>
            <path class="cls-1" d="M97,21.41,89.68,6.17a5.48,5.48,0,0,0-.9-1.35,3.27,3.27,0,0,0-.32-.33l0,0h0v0c-.14-.14-.26-.23-.4-.35A.67.67,0,0,0,87.84,4a2.05,2.05,0,0,0-.46-.33A4.23,4.23,0,0,0,87,3.42a2.68,2.68,0,0,0-.42-.19l-.41-.14A.41.41,0,0,0,85.86,3a4.48,4.48,0,0,0-1.47-.23H38.59A5.65,5.65,0,0,0,37,3a5,5,0,0,0-1.47.68s0,0-.05,0a4.4,4.4,0,0,0-.62.47,6.21,6.21,0,0,0-.59.56l0,.05c-.11.16-.23.3-.34.46a1.11,1.11,0,0,0-.12.16,3.44,3.44,0,0,0-.41.73L26.05,21.36a2.87,2.87,0,0,0-.17.44,2.23,2.23,0,0,0,0,.63,1.73,1.73,0,0,0,.09.59,3,3,0,0,0,.23.53,2.21,2.21,0,0,0,1.91,1.07H45.56A3.22,3.22,0,0,0,47.51,24l11.68-8.85,0,0,.76-.61a2.21,2.21,0,0,1,.89-.42,2.48,2.48,0,0,1,1.15,0,2.26,2.26,0,0,1,.87.42l.26.19,12.41,9.35a2.81,2.81,0,0,0,1.7.55H95a1.75,1.75,0,0,0,.6-.09,2.42,2.42,0,0,0,.52-.23h0a2.13,2.13,0,0,0,.71-.72A2.21,2.21,0,0,0,97,21.41Zm-1,1.28-.07.14v0a.12.12,0,0,1-.05.1.53.53,0,0,1-.18.21.83.83,0,0,1-.21.16,1,1,0,0,1-.5.14H77.25a1.61,1.61,0,0,1-1-.35l-.07-.05-1.34-1a0,0,0,0,1,0,0h0l-1.56-1.19-.42-.35h0s-9.26-6.95-9.31-7a3.9,3.9,0,0,0-.38-.22,3.09,3.09,0,0,0-.79-.31s0,0-.05,0,0,0,0,0a.14.14,0,0,0-.11-.05h-.06a3.38,3.38,0,0,0-.63-.07,2.88,2.88,0,0,0-.65.07h0c-.08,0-.16.06-.25.08l-.48.16s-.11,0-.17.06l-.12.07a2.9,2.9,0,0,0-.36.21,1.05,1.05,0,0,0-.11.07l-.67.51h0l-3.43,2.61h0l-.39.31h0l-7.91,6a2,2,0,0,1-1.26.42H28.07a1,1,0,0,1-.92-.54,1.1,1.1,0,0,1-.07-1.07l.6-1.21.18-.42,1.45-3v0l.25-.51v0l2.07-4.29.39-.77.18-.4v0l.21-.42.19-.39,0,0,.25-.56.25-.49,1.22-2.58a1.8,1.8,0,0,1,.21-.38l0,0s0-.12.1-.14a.76.76,0,0,1,.16-.26h0v0A.39.39,0,0,1,35,5.68a4.51,4.51,0,0,1,1.12-1,3.18,3.18,0,0,1,.44-.26l.23-.09a4.76,4.76,0,0,1,.53-.19A3.86,3.86,0,0,1,38.59,4h45.8a.42.42,0,0,1,.19,0h0a.9.9,0,0,1,.23,0,1.27,1.27,0,0,1,.34,0,1.45,1.45,0,0,1,.46.09c.05,0,.07,0,.12.05a2.07,2.07,0,0,1,.55.21,3.29,3.29,0,0,1,.46.23,5.73,5.73,0,0,1,.62.44h0v0a1.48,1.48,0,0,1,.37.34l0,0a2.35,2.35,0,0,1,.33.37,1,1,0,0,1,.18.26,2.42,2.42,0,0,1,.35.56v0l1.81,3.82a2,2,0,0,0,.14.26l0,.09s0,.05,0,.07l.28.61.23.49,0,0,1.63,3.45.28.56,2.8,5.87a1,1,0,0,1,.09.28v0a.75.75,0,0,1,0,.21A1,1,0,0,1,96,22.69Z"/>
            <g>
              <path class="cls-1" d="M88.37,4.44a1.93,1.93,0,0,0-.36.48l-.19.34-.1.18C87.41,6,87,6.57,86.31,6.57s-1.17-.69-1.51-1.31-.6-1-1-1-.69.38-1,1S82,6.57,81.2,6.57,80,5.88,79.69,5.26s-.6-1-1-1-.69.38-1,1-.72,1.31-1.51,1.31-1.18-.69-1.51-1.31-.6-1-1-1-.7.38-1,1S71.78,6.57,71,6.57s-1.18-.69-1.51-1.31-.6-1-1-1-.69.38-1,1-.71,1.31-1.51,1.31-1.18-.69-1.51-1.31-.6-1-1.05-1-.69.38-1,1-.71,1.31-1.51,1.31-1.17-.69-1.51-1.31-.59-1-1-1-.69.38-1,1-.71,1.31-1.51,1.31-1.16-.69-1.49-1.31-.6-1-1.05-1-.7.38-1,1-.72,1.31-1.51,1.31-1.18-.69-1.51-1.31-.6-1-1.05-1-.69.38-1,1-.72,1.31-1.51,1.31S44.29,5.88,44,5.26s-.59-1-1-1-.69.38-1.05,1-.71,1.31-1.5,1.31-1.17-.69-1.51-1.31-.6-1-1-1-.69.38-1,1-.72,1.31-1.51,1.31a1.2,1.2,0,0,1-.78-.28,2.21,2.21,0,0,1-.4-.46,6.05,6.05,0,0,1-.32-.55,5.55,5.55,0,0,1,.35-.46c0,.06.06.12.1.18l.22.37a2.05,2.05,0,0,0,.35.47.71.71,0,0,0,.48.19c.45,0,.69-.39,1-1a3.75,3.75,0,0,1,.4-.66,1.29,1.29,0,0,1,1.09-.65,1.12,1.12,0,0,1,.77.28,3.23,3.23,0,0,1,.74,1c.35.64.6,1,1,1s.7-.39,1-1a3.42,3.42,0,0,1,.75-1,1.11,1.11,0,0,1,.76-.28,1.07,1.07,0,0,1,.75.28,3.42,3.42,0,0,1,.75,1c.35.64.6,1,1,1s.7-.39,1-1a3.42,3.42,0,0,1,.75-1A1.05,1.05,0,0,1,48,3.69a1.11,1.11,0,0,1,.76.28,3.42,3.42,0,0,1,.75,1c.36.64.6,1,1,1s.69-.39,1-1a3.23,3.23,0,0,1,.74-1,1.19,1.19,0,0,1,1.53,0,3.42,3.42,0,0,1,.75,1c.34.64.58,1,1,1s.7-.39,1.05-1a3.42,3.42,0,0,1,.75-1A1.16,1.16,0,0,1,59,4a3.11,3.11,0,0,1,.75,1c.36.64.6,1,1.05,1s.69-.39,1-1a3.39,3.39,0,0,1,.74-1,1.17,1.17,0,0,1,1.52,0,3.42,3.42,0,0,1,.75,1c.35.64.6,1,1,1s.69-.39,1-1a3.26,3.26,0,0,1,.75-1,1.17,1.17,0,0,1,1.52,0,3.42,3.42,0,0,1,.75,1c.35.64.6,1,1,1s.69-.39,1-1a3.11,3.11,0,0,1,.75-1,1.09,1.09,0,0,1,.76-.28A1.11,1.11,0,0,1,74.3,4a3.42,3.42,0,0,1,.75,1c.35.64.6,1,1,1s.69-.39,1.05-1a3.21,3.21,0,0,1,.73-1,1.19,1.19,0,0,1,1.53,0,3.42,3.42,0,0,1,.75,1c.34.64.6,1,1,1s.7-.39,1-1A3.42,3.42,0,0,1,83,4a1.11,1.11,0,0,1,.76-.28,1.12,1.12,0,0,1,.78.29,3,3,0,0,1,.73,1c.36.64.6,1,1,1s.67-.37,1-1l0-.07c.08-.14.16-.29.26-.44A2.29,2.29,0,0,1,88,4.1,4.35,4.35,0,0,1,88.37,4.44Z"/>
              <path class="cls-1" d="M92.27,11.73a1.13,1.13,0,0,1-.5.28,1,1,0,0,1-.34.06,1.45,1.45,0,0,1-.29,0c-.61-.14-.93-.74-1.22-1.27s-.6-1-1-1-.7.39-1.05,1-.71,1.31-1.51,1.31-1.17-.69-1.51-1.31-.6-1-1-1-.69.39-1,1S82,12.07,81.2,12.07s-1.17-.69-1.51-1.31-.6-1-1-1-.69.39-1,1-.72,1.31-1.51,1.31-1.18-.69-1.51-1.31-.6-1-1-1-.7.39-1,1-.72,1.31-1.51,1.31-1.18-.69-1.51-1.31-.6-1-1-1-.69.39-1,1-.71,1.31-1.51,1.31-1.18-.69-1.51-1.31-.6-1-1.05-1-.69.39-1,1-.71,1.31-1.51,1.31-1.17-.69-1.51-1.31-.59-1-1-1-.69.39-1,1-.71,1.31-1.51,1.31-1.16-.69-1.49-1.31-.6-1-1.05-1-.7.39-1,1-.72,1.31-1.51,1.31-1.18-.69-1.51-1.31-.6-1-1.05-1-.69.39-1,1-.72,1.31-1.51,1.31-1.17-.69-1.5-1.31-.59-1-1-1-.69.39-1.05,1-.71,1.31-1.5,1.31-1.17-.69-1.51-1.31-.6-1-1-1-.69.39-1,1-.72,1.31-1.51,1.31-1.18-.69-1.51-1.31-.56-1-.95-1h-.09c-.39,0-.64.3-.92.8a0,0,0,0,0,0,0v0l-.1.18c-.29.53-.62,1.13-1.24,1.27L31,10.94h0c.08-.13.14-.27.24-.43.29-.53.61-1.13,1.21-1.27a1,1,0,0,1,.3,0,.75.75,0,0,1,.33.06c.58.15.88.73,1.17,1.25s.6,1,1.05,1,.69-.39,1-1,.7-1.31,1.49-1.31,1.18.7,1.51,1.31.6,1,1,1,.7-.39,1-1,.72-1.31,1.51-1.31,1.17.7,1.5,1.31.6,1,1,1,.7-.39,1-1,.71-1.31,1.5-1.31,1.17.7,1.51,1.31.6,1,1,1,.69-.39,1-1,.71-1.31,1.51-1.31,1.17.7,1.51,1.31.58,1,1,1,.7-.39,1.05-1,.72-1.31,1.5-1.31,1.18.7,1.51,1.31.6,1,1.05,1,.69-.39,1-1,.7-1.31,1.5-1.31,1.18.7,1.51,1.31.6,1,1,1,.69-.39,1-1,.71-1.31,1.51-1.31,1.17.7,1.51,1.31.6,1,1,1,.69-.39,1-1,.71-1.31,1.51-1.31,1.17.7,1.51,1.31.6,1,1,1,.69-.39,1.05-1,.7-1.31,1.49-1.31,1.18.7,1.52,1.31.6,1,1,1,.7-.39,1-1S83,9.19,83.75,9.19s1.18.7,1.51,1.31.6,1,1,1,.69-.39,1-1,.72-1.31,1.51-1.31,1.18.7,1.51,1.31a3.82,3.82,0,0,0,.21.36l0,.07c.24.38.46.6.8.6h.11a.78.78,0,0,0,.49-.31Z"/>
              <g>
                <path class="cls-1" d="M59.14,15.14l-.41.3h0a.6.6,0,0,0-.48-.21.36.36,0,0,0-.23,0h0a.65.65,0,0,0-.32.26h0v0s0,0,0,0a3,3,0,0,0-.42.65,6.08,6.08,0,0,1-.34.6l0,.05-.78.61h0a.7.7,0,0,1-.28,0,1.35,1.35,0,0,1-.55-.11h0a1.55,1.55,0,0,1-.23-.19s-.07-.07-.1-.09-.06-.07-.09-.12v0a6.15,6.15,0,0,1-.53-.77c-.34-.63-.59-1-1-1s-.69.4-1,1-.72,1.3-1.52,1.3-1.17-.7-1.52-1.3-.59-1-1-1-.71.4-1.06,1-.71,1.3-1.49,1.3-1.17-.7-1.52-1.3-.57-1-1-1-.69.4-1,1-.73,1.3-1.51,1.3-1.18-.7-1.5-1.3-.6-1-1.06-1-.68.4-1,1-.71,1.3-1.52,1.3-1.17-.7-1.51-1.3a2.43,2.43,0,0,0-.65-.89.58.58,0,0,0-.39-.14c-.39,0-.62.31-.89.8v0a1.28,1.28,0,0,0-.14.21c-.35.6-.74,1.3-1.52,1.3a1.19,1.19,0,0,1-.89-.39h0v0a2.88,2.88,0,0,1-.36-.51c-.07-.12-.14-.23-.21-.37a2.32,2.32,0,0,1-.14-.23l.28-.56a4.66,4.66,0,0,1,.32.53s0,0,0,.05c.14.23.25.42.35.56v0s0,0,0,0a.76.76,0,0,0,.64.4c.44,0,.69-.4,1-1a3.28,3.28,0,0,1,.85-1.09,1.06,1.06,0,0,1,.66-.21,1,1,0,0,1,.67.21A3,3,0,0,1,34.21,16c.36.63.62,1,1,1s.69-.4,1.06-1,.69-1.3,1.49-1.3,1.18.7,1.52,1.3.6,1,1,1,.69-.4,1.05-1,.72-1.3,1.5-1.3,1.17.7,1.49,1.3.62,1,1.06,1,.69-.4,1-1,.71-1.3,1.52-1.3,1.17.7,1.49,1.3.6,1,1.06,1,.69-.4,1-1,.72-1.3,1.52-1.3,1.17.7,1.52,1.3a3.21,3.21,0,0,0,.46.72.65.65,0,0,0,.55.31h0a.75.75,0,0,0,.6-.35.64.64,0,0,0,.14-.21h0s0,0,0,0a4.54,4.54,0,0,0,.26-.42c.34-.6.71-1.3,1.51-1.3a1.16,1.16,0,0,1,.42.07h0a1.75,1.75,0,0,1,.46.35Z"/>
                <path class="cls-1" d="M94,15.23a.73.73,0,0,0-.53.26,4.52,4.52,0,0,0-.37.56,2.12,2.12,0,0,0-.11.21c-.35.6-.72,1.3-1.52,1.3a1.47,1.47,0,0,1-.32,0c-.55-.14-.88-.7-1.15-1.19,0,0,0,0,0-.07-.34-.63-.6-1-1-1s-.71.4-1.06,1-.71,1.3-1.52,1.3-1.17-.7-1.49-1.3-.6-1-1.06-1-.69.4-1,1-.71,1.3-1.52,1.3-1.17-.7-1.51-1.3-.6-1-1-1-.69.4-1,1-.74,1.3-1.52,1.3-1.17-.7-1.52-1.3-.59-1-1-1-.69.4-1,1-.71,1.3-1.49,1.3-1.2-.7-1.52-1.3-.6-1-1-1-.69.4-1,1a.76.76,0,0,0-.09.18c-.12.17-.21.33-.32.49a1.68,1.68,0,0,1-.42.42L66.1,17a.56.56,0,0,0,.23-.16.91.91,0,0,0,.21-.23,3.78,3.78,0,0,0,.32-.49.22.22,0,0,1,0-.12c.34-.6.73-1.3,1.52-1.3s1.17.7,1.51,1.3.6,1,1.06,1,.69-.4,1-1,.72-1.3,1.5-1.3,1.19.7,1.51,1.3.6,1,1.06,1,.69-.4,1-1,.72-1.3,1.52-1.3,1.17.7,1.5,1.3.62,1,1,1,.69-.4,1-1,.71-1.3,1.51-1.3,1.18.7,1.52,1.3.6,1,1,1,.69-.4,1.06-1,.71-1.3,1.52-1.3a1.36,1.36,0,0,1,.53.11s0,0,.07,0A3,3,0,0,1,90.39,16c.26.47.44.79.72.93a.51.51,0,0,0,.32.1c.46,0,.69-.4,1.06-1a4.21,4.21,0,0,1,.29-.51A1.84,1.84,0,0,1,93.2,15a.91.91,0,0,1,.5-.28h0Z"/>
              </g>
              <g>
                <path class="cls-1" d="M49.9,22.11v0l-.43.33v0a3.58,3.58,0,0,1-.3-.49l-.12-.18c-.07-.12-.11-.23-.18-.33-.25-.44-.48-.7-.85-.7s-.71.4-1.06,1-.71,1.3-1.49,1.3-1.17-.67-1.52-1.3-.57-1-1-1-.69.4-1,1-.73,1.3-1.51,1.3-1.18-.67-1.5-1.3-.6-1-1.06-1-.68.4-1,1a5.57,5.57,0,0,1-.39.67,1.43,1.43,0,0,1-1,.63h-.1c-.8,0-1.17-.67-1.51-1.3l-.12-.19c-.23-.42-.41-.7-.69-.79a.71.71,0,0,0-.23-.05c-.39,0-.64.33-.92.84a1.86,1.86,0,0,1-.11.19c-.35.63-.74,1.3-1.52,1.3h-.07c-.75,0-1.1-.7-1.42-1.3s-.62-1-1.06-1V20.2a.55.55,0,0,1,.19,0c.68.09,1,.72,1.33,1.28s.57,1.05,1,1.05a.13.13,0,0,0,.09,0c.4-.05.62-.45.95-1a5.09,5.09,0,0,1,.39-.63h0c.05-.09.12-.16.18-.25a1.25,1.25,0,0,1,.92-.42.79.79,0,0,1,.23,0,.72.72,0,0,1,.39.16h0a3,3,0,0,1,.85,1.12l.2.35c.23.35.42.61.69.65a.19.19,0,0,0,.16.05c.35,0,.58-.26.83-.65.07-.12.14-.26.23-.4.32-.6.69-1.3,1.49-1.3s1.18.7,1.52,1.3.6,1.05,1,1.05.69-.42,1.05-1.05.72-1.3,1.5-1.3,1.17.7,1.49,1.3.62,1.05,1.06,1.05.69-.42,1-1.05.71-1.3,1.52-1.3c.62,0,1,.42,1.29.91v0c.06.12.13.23.2.37a.75.75,0,0,1,.07.12C49.7,21.83,49.81,22,49.9,22.11Z"/>
                <path class="cls-1" d="M96.55,22.55v.51a.3.3,0,0,1-.13,0,.84.84,0,0,1-.56-.19A3.33,3.33,0,0,1,95,21.76c-.35-.63-.6-1-1-1s-.59.26-.85.68l-.2.35a8.1,8.1,0,0,1-.42.7,1.33,1.33,0,0,1-1.1.6,1.47,1.47,0,0,1-.32,0c-.55-.14-.88-.68-1.15-1.19,0,0,0,0,0-.07s0,0,0,0a2.16,2.16,0,0,0-.71-.93.78.78,0,0,0-.3-.07c-.46,0-.71.4-1.06,1s-.71,1.3-1.52,1.3-1.17-.67-1.49-1.3-.6-1-1.06-1-.69.4-1,1-.71,1.3-1.52,1.3-1.17-.67-1.51-1.3-.6-1-1-1-.69.4-1,1-.74,1.3-1.52,1.3a1.48,1.48,0,0,1-1.33-1s0,0,0,0l-.16-.28c-.34-.63-.59-1-1-1a.68.68,0,0,0-.37.12,1.44,1.44,0,0,0-.39.44c-.09.14-.16.28-.28.47a0,0,0,0,1,0,0v0L72,21.48v0c.1-.17.21-.33.3-.49a1.89,1.89,0,0,1,.39-.45l0,0a1.24,1.24,0,0,1,.78-.3c.8,0,1.19.7,1.51,1.3s.6,1.05,1.06,1.05.69-.42,1-1.05.72-1.3,1.52-1.3,1.17.7,1.5,1.3.62,1.05,1,1.05.69-.42,1-1.05.71-1.3,1.51-1.3,1.18.7,1.52,1.3.6,1.05,1,1.05.69-.42,1.06-1.05.71-1.3,1.52-1.3a1.17,1.17,0,0,1,.85.37h0a1.71,1.71,0,0,1,.21.26,5.87,5.87,0,0,1,.43.67s0,.05,0,.07a2.15,2.15,0,0,0,.67.89.5.5,0,0,0,.32.09c.3,0,.5-.19.71-.49a5.48,5.48,0,0,0,.35-.56c.06-.14.16-.3.25-.46A1.53,1.53,0,0,1,94,20.2c.78,0,1.17.7,1.5,1.3a3.53,3.53,0,0,0,.46.7v0a.71.71,0,0,0,.57.33Z"/>
              </g>
            </g>
            <g>
              <path class="cls-1" d="M37.84,4.75a.87.87,0,1,0,.87.86A.87.87,0,0,0,37.84,4.75Zm0,1.16a.31.31,0,0,1-.3-.3.28.28,0,0,1,.3-.28.26.26,0,0,1,.27.28A.28.28,0,0,1,37.84,5.91Z"/>
              <path class="cls-1" d="M48,4.75a.87.87,0,1,0,.87.86A.87.87,0,0,0,48,4.75Zm0,1.16a.31.31,0,0,1-.3-.3.3.3,0,0,1,.6,0A.31.31,0,0,1,48,5.91Z"/>
              <path class="cls-1" d="M58.24,4.75a.87.87,0,1,0,.88.86A.87.87,0,0,0,58.24,4.75Zm0,1.16a.3.3,0,0,1-.29-.3.28.28,0,0,1,.29-.28.28.28,0,0,1,.3.28A.3.3,0,0,1,58.24,5.91Z"/>
              <path class="cls-1" d="M68.45,4.75a.87.87,0,0,0,0,1.74.87.87,0,1,0,0-1.74Zm0,1.16a.29.29,0,0,1-.28-.3.27.27,0,0,1,.28-.28.28.28,0,0,1,.3.28A.31.31,0,0,1,68.45,5.91Z"/>
              <path class="cls-1" d="M78.65,4.75a.87.87,0,0,0,0,1.74.87.87,0,1,0,0-1.74Zm0,1.16a.28.28,0,0,1-.27-.3.26.26,0,0,1,.27-.28.28.28,0,0,1,.3.28A.31.31,0,0,1,78.65,5.91Z"/>
            </g>
            <g>
              <path class="cls-1" d="M32.71,10.27a.47.47,0,0,0-.16,0l0,0a.84.84,0,0,0-.69.83.64.64,0,0,0,.11.4.82.82,0,0,0,.76.47.88.88,0,1,0,0-1.75Zm0,1.16a.28.28,0,0,1-.3-.28.3.3,0,0,1,.6,0A.28.28,0,0,1,32.71,11.43Z"/>
              <path class="cls-1" d="M42.92,10.27a.88.88,0,1,0,0,1.75.88.88,0,0,0,0-1.75Zm0,1.16a.28.28,0,0,1-.3-.28.3.3,0,0,1,.6,0A.28.28,0,0,1,42.92,11.43Z"/>
              <path class="cls-1" d="M53.12,10.27a.86.86,0,0,0-.85.88.85.85,0,0,0,.85.87.88.88,0,0,0,0-1.75Zm0,1.16a.27.27,0,0,1-.28-.28.29.29,0,0,1,.28-.3.31.31,0,0,1,.3.3A.28.28,0,0,1,53.12,11.43Z"/>
              <path class="cls-1" d="M63.32,10.27a.86.86,0,0,0-.85.88.85.85,0,0,0,.85.87.88.88,0,1,0,0-1.75Zm0,1.16a.26.26,0,0,1-.27-.28.28.28,0,0,1,.27-.3.31.31,0,0,1,.3.3A.28.28,0,0,1,63.32,11.43Z"/>
              <path class="cls-1" d="M73.53,10.27a.87.87,0,0,0-.85.88.86.86,0,1,0,1.72,0A.87.87,0,0,0,73.53,10.27Zm0,1.16a.27.27,0,0,1-.28-.28.29.29,0,0,1,.28-.3.31.31,0,0,1,.3.3A.28.28,0,0,1,73.53,11.43Z"/>
              <path class="cls-1" d="M83.75,10.27a.88.88,0,0,0,0,1.75.86.86,0,0,0,.85-.87A.87.87,0,0,0,83.75,10.27Zm0,1.16a.28.28,0,0,1-.3-.28.31.31,0,0,1,.3-.3.29.29,0,0,1,.28.3A.27.27,0,0,1,83.75,11.43Z"/>
            </g>
            <g>
              <path class="cls-1" d="M37.81,15.89a.86.86,0,0,0-.87.86.87.87,0,1,0,1.73,0A.86.86,0,0,0,37.81,15.89Zm0,1.16a.3.3,0,0,1-.29-.3.28.28,0,0,1,.29-.28.28.28,0,0,1,.28.28A.3.3,0,0,1,37.81,17.05Z"/>
              <path class="cls-1" d="M48,15.89a.86.86,0,0,0-.87.86.86.86,0,1,0,1.72,0A.85.85,0,0,0,48,15.89Zm0,1.16a.31.31,0,0,1-.3-.3.28.28,0,0,1,.3-.28.27.27,0,0,1,.27.28A.3.3,0,0,1,48,17.05Z"/>
              <path class="cls-1" d="M68.43,15.89a.83.83,0,0,0-.86.76.18.18,0,0,0,0,.1.87.87,0,0,0,.88.88.58.58,0,0,0,.34-.09.87.87,0,0,0,.51-.79A.86.86,0,0,0,68.43,15.89Zm0,.58a.26.26,0,0,1,.27.28.28.28,0,0,1-.27.3.3.3,0,0,1-.3-.3A.28.28,0,0,1,68.43,16.47Z"/>
              <path class="cls-1" d="M78.63,15.89a.86.86,0,0,0-.87.86.86.86,0,1,0,1.72,0A.85.85,0,0,0,78.63,15.89Zm0,1.16a.31.31,0,0,1-.3-.3.28.28,0,0,1,.3-.28.26.26,0,0,1,.27.28A.28.28,0,0,1,78.63,17.05Z"/>
              <path class="cls-1" d="M88.81,15.89a.85.85,0,0,0-.85.86.86.86,0,1,0,1.72,0A.86.86,0,0,0,88.81,15.89Zm0,1.16a.3.3,0,0,1-.28-.3.28.28,0,0,1,.28-.28.28.28,0,0,1,.3.28A.31.31,0,0,1,88.81,17.05Z"/>
            </g>
            <g>
              <path class="cls-1" d="M33.26,21.55a.78.78,0,0,0-.32-.19.93.93,0,0,0-.25,0,.87.87,0,1,0,0,1.74.93.93,0,0,0,.25,0,.87.87,0,0,0,.32-1.47Zm-.32.74a.26.26,0,0,1-.25.19.31.31,0,0,1-.3-.3.28.28,0,0,1,.3-.28.23.23,0,0,1,.25.21s0,0,0,.07A.15.15,0,0,1,32.94,22.29Z"/>
              <path class="cls-1" d="M42.89,21.32a.87.87,0,1,0,.85.86A.87.87,0,0,0,42.89,21.32Zm0,1.16a.31.31,0,0,1-.3-.3.28.28,0,0,1,.3-.28.27.27,0,0,1,.28.28A.29.29,0,0,1,42.89,22.48Z"/>
              <path class="cls-1" d="M83.73,21.32a.87.87,0,1,0,.87.86A.87.87,0,0,0,83.73,21.32Zm0,1.16a.31.31,0,0,1-.3-.3.3.3,0,0,1,.6,0A.31.31,0,0,1,83.73,22.48Z"/>
              <path class="cls-1" d="M94,21.32a.81.81,0,0,0-.65.3.86.86,0,0,0-.23.56.87.87,0,0,0,.88.88h0a.89.89,0,0,0,.83-.88A.87.87,0,0,0,94,21.32Zm0,1.16a.24.24,0,0,1-.14-.05.28.28,0,0,1-.16-.25v-.05a.29.29,0,0,1,.3-.23.28.28,0,0,1,.3.28A.31.31,0,0,1,94,22.48Z"/>
            </g>
          </g>
        </g>
      </g>
      <g>
        <g>
          <path class="cls-1" d="M138.13,10.9a.81.81,0,0,1,.69.81.63.63,0,0,1-.6.63,8.84,8.84,0,0,1-1.76.35l-.41,0a4.32,4.32,0,0,1-1.89-.85,16.35,16.35,0,0,1-2.64-2.75c-1.08,1.42-2.19,2.83-3.36,4.17s-3.3,2.34-4.18,3.67a.73.73,0,0,1-.6.36.77.77,0,0,1-.74-.74.8.8,0,0,1,.43-.67,21,21,0,0,0,3.67-2.94c.75-.87,1.49-1.74,2.21-2.64.58-.74,1.15-1.5,1.72-2.24-.89-1.08-2.54-3-3.73-3a1,1,0,0,0-.91.6.48.48,0,0,1-.42.27.54.54,0,0,1-.52-.53.58.58,0,0,1,.07-.28c.5-.93,1.09-1.31,1.74-1.31,1.33,0,2.92,1.59,4.5,3.33.32-.4.64-.79,1-1.17,1.13-1.25,2.65-2.41,4.14-2.41a3,3,0,0,1,2.37,1.24.54.54,0,0,1,.13.35.7.7,0,0,1-.66.66.52.52,0,0,1-.4-.2,2,2,0,0,0-1.58-.85c-1.51,0-3.06,1.92-4.12,3.35,1.63,1.81,3.2,3.52,4.44,3.52a1.28,1.28,0,0,0,1-.46A.64.64,0,0,1,138.13,10.9Z"/>
          <path class="cls-1" d="M148.05,3.71a.64.64,0,0,1,.68.64c0,2.36.17,4.82.17,7.28v.75a33.32,33.32,0,0,1-.59,6.59c-1.2,6.19-3.77,7-5,7a2.4,2.4,0,0,1-.66-.07h0c-1.1-.05-4.47-.87-4.47-4.12a5,5,0,0,1,.3-1.7s.05-.11.05-.12c1.15-2.85,4.22-5.18,6.81-6.73a.86.86,0,0,1,.35-.09.7.7,0,0,1,.63.68.44.44,0,0,1-.21.45l-.11.07a17.24,17.24,0,0,0-5.84,5.27,3.85,3.85,0,0,0-.62,1.88,2.5,2.5,0,0,0,1.46,2.29,5.14,5.14,0,0,0,2.34.66,2.28,2.28,0,0,0,2.16-1.23c1.83-3.62,2.14-7.74,2.14-11.79,0-1.11,0-2.21-.05-3.3,0,0,0-.07-.05-.06s-.06,0-.06,0c-.94,1.86-2.27,3.56-3.89,3.56h-.28l-.23,0c-1.87-.36-2.22-2.42-2.22-4.4,0-1,.08-1.93.1-2.62a.61.61,0,0,1,.65-.63.59.59,0,0,1,.64.61c0,.26-.11,1-.11,1.82,0,1.68.16,4,1.26,4h0a1.31,1.31,0,0,0,.7-.28c1.86-1.25,3-3.79,3.43-5.89A.56.56,0,0,1,148.05,3.71Z"/>
          <path class="cls-1" d="M165.06,3.13a.66.66,0,0,1,.35-.08.75.75,0,0,1,.66.41,1.23,1.23,0,0,1,.07.32.73.73,0,0,1-.46.66,8.26,8.26,0,0,1-.85.4.49.49,0,0,1-.19.31,4.24,4.24,0,0,0-1.11,3.22c0,.17,0,.54,0,1,0,.84.05,1.9.37,2.11a.65.65,0,0,1,.34.52c0,.43-.55.71-.95.71h-.12a.46.46,0,0,1-.4-.49.63.63,0,0,1,0-.19v-.17c0-.54-.35-1.31-.38-1.86a11.4,11.4,0,0,1-.05-1.18,8.67,8.67,0,0,1,.05-1A6.91,6.91,0,0,1,163,5.45a14.26,14.26,0,0,1-4,.69,5.37,5.37,0,0,0-.63,2.05v.47c0,.06,0,.12,0,.18,0,.4-.07.9-.07,1.37a1.63,1.63,0,0,0,.44,1.32.57.57,0,0,1,.19.19.68.68,0,0,1,.11.35.81.81,0,0,1-.38.64.84.84,0,0,1-.4.12.65.65,0,0,1-.59-.36,7.63,7.63,0,0,1-.63-3.84V8.4a6,6,0,0,1,.68-2.28,14,14,0,0,1-3.46-.4,3.79,3.79,0,0,0-.89,2.77c0,.19,0,.4,0,.61a5.83,5.83,0,0,0,.53,2.53.68.68,0,0,1,.09.35.83.83,0,0,1-.85.66h-.05a.55.55,0,0,1-.56-.62v-.23a18.32,18.32,0,0,0-.4-2.12,9.62,9.62,0,0,1-.12-1.43c0-.2,0-.41,0-.62.14-1,.4-1.69.51-2.47a3,3,0,0,1-.23-.52c0-.31.38-.58.7-.58,0,0,1,.18,1,.2a3.69,3.69,0,0,0,.46.08l.17.07a13.54,13.54,0,0,0,3.46.33h.19a.47.47,0,0,1,.31,0,9,9,0,0,0,1.05-.06,14.15,14.15,0,0,0,5.09-1.44Z"/>
          <path class="cls-1" d="M173.69,11.47a4.2,4.2,0,0,1-3.12,1.62,2.9,2.9,0,0,1-2.18-1,3.78,3.78,0,0,1-1.1-2.68,7.68,7.68,0,0,1,1-3.41l.05-.1s0,0,0,0,.07-.14.09-.19a3.5,3.5,0,0,1,2.35-1.36c0-.26,0-.47,0-.53a.37.37,0,0,0,0-.11V3.53A.44.44,0,0,1,171.2,3a1.83,1.83,0,0,1,.27,0,1.26,1.26,0,0,1,.38.06.77.77,0,0,1,.41.76c0,.05,0,.09,0,.14a3.49,3.49,0,0,0-.08.49,3,3,0,0,1,1.7,1.12,4.61,4.61,0,0,1,1,2.85A4.77,4.77,0,0,1,173.69,11.47Zm-.88-5.11a2.07,2.07,0,0,0-.89-.47,10.07,10.07,0,0,1-.5,2.19.64.64,0,0,1-.2,0c-.29,0-.67-.14-.67-.51v0c0-.21.13-1.21.16-1.81a1.3,1.3,0,0,0-1.06.58s0,.1-.06.12a.72.72,0,0,0-.07.11.55.55,0,0,0-.09.15,6.77,6.77,0,0,0-.76,2.79,1.84,1.84,0,0,0,.4,1.38,2.67,2.67,0,0,0,1.7.81,2.53,2.53,0,0,0,2-1.11,3.68,3.68,0,0,0,.81-2.12A3,3,0,0,0,172.81,6.36Z"/>
          <path class="cls-1" d="M183.69,5.08a3.25,3.25,0,0,1,.76,2.3,6.78,6.78,0,0,1-1,3.52,4.4,4.4,0,0,1-.57.73,3.67,3.67,0,0,1-2.66,1.07,6.23,6.23,0,0,1-1.81-.3l-.07.07a34.69,34.69,0,0,0,1.88,11.46,2,2,0,0,1,0,.24.57.57,0,0,1-.12.35.75.75,0,0,1-.51.17.65.65,0,0,1-.43-.14.72.72,0,0,1-.14-.26,41.83,41.83,0,0,1-2.07-12.17c0-2.81.49-5.37,1.83-6.74a3.61,3.61,0,0,1,2.66-1c.22,0,.43,0,.66.05A2.65,2.65,0,0,1,183.69,5.08ZM180,11.37a2.81,2.81,0,0,0,2.09-.81l.07-.06a3.54,3.54,0,0,0,.69-1.06,8.23,8.23,0,0,0,.3-1.89,1.9,1.9,0,0,0-.46-1.43l-.06-.07a1.2,1.2,0,0,0-.84-.33,3.07,3.07,0,0,0-2,1l-.05,0h0a3,3,0,0,0-.85,1.43l-.23.82c-.12.68-.22,1.32-.28,2l.07.07A5.13,5.13,0,0,0,180,11.37Z"/>
        </g>
        <g>
          <path class="cls-1" d="M124.68,61.61a1.83,1.83,0,0,1-.33-1.11l.1-8c.1-3.85.15-6.84.15-8.95q0-11-1.32-16.9a2.27,2.27,0,0,1,1.93-1.09,7.55,7.55,0,0,1,3.43.78,7.4,7.4,0,0,1,2.56,2.1,10.29,10.29,0,0,1,2,6.16A12.29,12.29,0,0,1,131.55,41a11,11,0,0,1-4.71,4.36l.1,4.78.1,2.51c0,.54,0,1.31,0,2.32q.15,3.18.15,5.16a2.26,2.26,0,0,1-.4,1.42,1.52,1.52,0,0,1-1.27.52A1,1,0,0,1,124.68,61.61Zm5-22.2a9.71,9.71,0,0,0,.94-4.34v0a20.14,20.14,0,0,0-.25-2.75,3.61,3.61,0,0,0-.56-1.13c-.27-.38-.43-.6-.46-.67A9,9,0,0,0,127.44,29l-1.32-.89c0,1.61.11,4.1.31,7.48l.3,7.48A12.13,12.13,0,0,0,129.65,39.41Z"/>
          <path class="cls-1" d="M147.31,61.54a1.08,1.08,0,0,1-.38-.94V54.39a7.69,7.69,0,0,0-2.49-.75,26.61,26.61,0,0,0-3.45-.43,7.75,7.75,0,0,0-.81,2.41l-.2,1c0,.22-.14.71-.31,1.47a14.35,14.35,0,0,1-.56,2,6.25,6.25,0,0,1-.61,1.31c-1.28,0-2-.32-2.23-1a14.81,14.81,0,0,0,1.27-4.45l1.67-8.67q1.13-6.15,2.06-10.51a58.07,58.07,0,0,1,2-7.29c.78-2.18,1.53-3.27,2.24-3.27a2.89,2.89,0,0,1,1.62.38c0,1.27.32,4.31,1,9.14a82.82,82.82,0,0,1,1,9.71,63.63,63.63,0,0,0,.56,7.19q.5,4.78.5,7.63c0,1.07-.55,1.61-1.67,1.61A2,2,0,0,1,147.31,61.54Zm-.43-10q-.16-2.07-.51-5.16-1.17-10.7-1.17-13.11v-.38c-.34.32-.8,1.74-1.39,4.28s-1.15,5.27-1.65,8.17a52.17,52.17,0,0,0-.81,5.78,17.36,17.36,0,0,0,4.51.57A4.47,4.47,0,0,0,146.88,51.5Z"/>
          <path class="cls-1" d="M164.1,62.09a1.84,1.84,0,0,1-.33-1.12q0-9.88-.4-16.71a12.57,12.57,0,0,0-1.73-.19,9.63,9.63,0,0,0-3,.33q0,2.66.45,8c.27,3.79.41,6.48.41,8.05a1.39,1.39,0,0,1-.31.88.9.9,0,0,1-.76.4c-.44,0-.84-.72-1.21-2.18q-.82-3.21-1.32-13.49-.36-7-.36-15c0-1-.05-2.37-.05-4.17a.76.76,0,0,1,.86-.85,2.5,2.5,0,0,1,1,.24,2.16,2.16,0,0,1,.79.52,26.32,26.32,0,0,0-.2,3.55c0,1.32.06,2.93.2,4.83q.15,3.27.15,4.92V41a7.85,7.85,0,0,0-.05.9,9.09,9.09,0,0,0,.1,1.23c.21,0,.54,0,1,0s.94-.08,1.42-.15c1.11-.09,1.94-.14,2.48-.14q0-4.11-.1-7.62l-.1-7.91V26a3.05,3.05,0,0,1,1.17.22,1.79,1.79,0,0,1,.76.54,3.2,3.2,0,0,1,.56,1.8v1.09q0,4.08.51,15.58.45,10.41.45,15.62a1.82,1.82,0,0,1-.43,1.19,1.33,1.33,0,0,1-1,.52A1.15,1.15,0,0,1,164.1,62.09Z"/>
          <path class="cls-1" d="M175.57,61.47a3.09,3.09,0,0,1-.43-1.68c0-1,.06-2.32.2-3.84l.1-1.23.1-2.51q0-1.65-.35-7.38t-.36-7.39,0-.54c0-.27,0-.69,0-1.26s.05-1.4.05-2.32a11.53,11.53,0,0,0-.51-4.4c-.2,0-.64,0-1.31.14l-1.43.1a2,2,0,0,1-1.16-.36,1.07,1.07,0,0,1-.51-.92c0-.38.41-.71,1.22-1a27.87,27.87,0,0,1,6-.8c1.15-.06,1.84-.1,2.08-.1a1.84,1.84,0,0,1,1.11.38,1.15,1.15,0,0,1,.51.95,1.11,1.11,0,0,1-.43.92,1.65,1.65,0,0,1-1.09.36l-.92-.05a8.17,8.17,0,0,0-.91-.05h-.51a53,53,0,0,1,.36,5.83l-.05,3c0,.91,0,1.94,0,3.08,0,1.51.06,3.33.2,5.44.17,2.62.25,4.44.25,5.44,0,1.2.07,2.63.21,4.27s.2,3.09.2,4.26c0,1.54-.49,2.32-1.47,2.32A1.32,1.32,0,0,1,175.57,61.47Z"/>
          <path class="cls-1" d="M195.1,61.54a1.1,1.1,0,0,1-.38-.94V54.39a7.69,7.69,0,0,0-2.49-.75,26.19,26.19,0,0,0-3.45-.43,7.75,7.75,0,0,0-.81,2.41l-.2,1c0,.22-.14.71-.31,1.47a16.07,16.07,0,0,1-.55,2,7.46,7.46,0,0,1-.61,1.31c-1.29,0-2-.32-2.24-1a14.51,14.51,0,0,0,1.27-4.45L187,47.24q1.11-6.15,2.05-10.51a57.91,57.91,0,0,1,2-7.29c.77-2.18,1.52-3.27,2.23-3.27a2.89,2.89,0,0,1,1.62.38c0,1.27.32,4.31,1,9.14a84.39,84.39,0,0,1,1,9.71,66.1,66.1,0,0,0,.56,7.19,75.76,75.76,0,0,1,.51,7.63c0,1.07-.56,1.61-1.68,1.61A2,2,0,0,1,195.1,61.54Zm-.43-10q-.15-2.07-.51-5.16Q193,35.64,193,33.23v-.38c-.33.32-.8,1.74-1.39,4.28S190.46,42.4,190,45.3a52.17,52.17,0,0,0-.81,5.78,17.36,17.36,0,0,0,4.51.57A4.47,4.47,0,0,0,194.67,51.5Z"/>
          <path class="cls-1" d="M217.8,62.58a2.55,2.55,0,0,1-.3-1.37l-.05-7c0-.6,0-1.59,0-3q-.1-4.41-.1-9.94V38.86c-.31,1.52-.83,3.65-1.58,6.39s-1.27,5.18-1.57,7v.29l-.15.9a8.66,8.66,0,0,1-.51,2.13,1.66,1.66,0,0,1-1.57,1.13q-1.83,0-1.83-4.45a29,29,0,0,0-.53-5.28c-.36-1.87-.92-4.19-1.7-6.93l-1.52-5.31-.1,5.69q0,2.55.25,9.75l.1,3.22.1,6.48a2.52,2.52,0,0,1-.76,1.8,1.94,1.94,0,0,1-1.75-.73,4,4,0,0,1-.48-2.15l.1-3.89c.1-1.7.15-3,.15-3.83l-.1-9.14-.1-9.18q0-2,.1-6.11l1.37-.76a1.29,1.29,0,0,1,.81.54A8.18,8.18,0,0,1,207,28a82.91,82.91,0,0,1,3.29,11.74,17.39,17.39,0,0,1,.41,2c.41,1.83.69,3.22.86,4.17l.76,3.64.36-1.56,1-3.88q.81-3.42,1.35-6t1-5.54q.56-3.55.71-5.92v-.28a1.38,1.38,0,0,1,.61-1,2,2,0,0,1,1.21-.36,1.11,1.11,0,0,1,.82.38,1.18,1.18,0,0,1,.35.81q0,5.67.46,17c.17,3.7.28,7.31.35,10.85q.1,2.42.1,6.1a3.31,3.31,0,0,1-.6,2,1.74,1.74,0,0,1-1.37.85A.94.94,0,0,1,217.8,62.58Z"/>
          <path class="cls-1" d="M235.61,61a24.25,24.25,0,0,1-.25-3.41q-.15-3.64-.23-7.59c0-2.64-.08-4.56-.08-5.76a4.28,4.28,0,0,0-1.75,1.31,10.13,10.13,0,0,0-1.19,2.1,12.46,12.46,0,0,0-.91,4.59V53.4c0,.19,0,.77,0,1.75a31.32,31.32,0,0,1-.31,3.22,4.5,4.5,0,0,1-2.53,3.55,1.93,1.93,0,0,1-.92.19,1.8,1.8,0,0,1-1.09-.31.73.73,0,0,1-.28-.87.9.9,0,0,1,.31-.48,2.62,2.62,0,0,1,.58-.28,2.58,2.58,0,0,0,.58-.29,2.24,2.24,0,0,0,.76-1.79l.06-4c.06-1.55.15-2.74.25-3.58a13.1,13.1,0,0,1,.76-2.91,14.13,14.13,0,0,1,1-2,10.5,10.5,0,0,1,1.12-1.73,7.8,7.8,0,0,1-3.73-3.08,11.25,11.25,0,0,1-1-5.4A14.85,14.85,0,0,1,227.7,30a5.27,5.27,0,0,1,3.5-3.36l2.23-.71a2.53,2.53,0,0,1,1-.19,4.74,4.74,0,0,1,2.44.85,1.66,1.66,0,0,1,.86,1.57q-.3,4-.3,6V44.64c0,3.34,0,5.87.1,7.57,0,1.3.08,2.45.15,3.46s.12,1.85.15,2.51l.16,2.6v.29a1.08,1.08,0,0,1-.21.8,1.19,1.19,0,0,1-.81.19A1.24,1.24,0,0,1,235.61,61Zm-.76-33.28-1.14.38a8.3,8.3,0,0,0-1.55.66,3.21,3.21,0,0,0-1.39,1.4,9.4,9.4,0,0,0-1,2.25,5.39,5.39,0,0,0-.31,1.8l.1,2.08c0,1,0,1.75.05,2.32a3.43,3.43,0,0,0,.84,2.2A4.17,4.17,0,0,0,232.67,42c.37.09.8.23,1.29.4l1.09.4Z"/>
          <path class="cls-1" d="M251.16,61.68a3.59,3.59,0,0,1-1-2.32,54.75,54.75,0,0,1-.4-6.39L249.61,50a4.12,4.12,0,0,0-.81-2.39,3,3,0,0,0-2.08-1.35q.36,9.84.36,14.58c0,.88-.34,1.33-1,1.33a2,2,0,0,1-.81-.19,1.2,1.2,0,0,1-.81-1.38,38.54,38.54,0,0,0,.4-5.54c0-1.32-.05-2.71-.15-4.16,0-.7-.05-1.76-.05-3.18,0-.44,0-1.13,0-2.08q-.19-7.77-.46-11.69-.15-2.37-.76-6.06a2.65,2.65,0,0,1-.05-.57,1.52,1.52,0,0,1,1.32-1.71,1.26,1.26,0,0,1,1.25.41,2.25,2.25,0,0,1,.53,1.39c0,.41.07.9.1,1.45s0,1,0,1.3l.05,1.56c.07,1.83.1,3.17.1,4v8.42a27,27,0,0,0,1.12-3.07c.44-1.39.78-2.58,1-3.56.1-.5.21-1.12.33-1.84s.21-1.28.28-1.66a28.63,28.63,0,0,1,.92-4.88A5.1,5.1,0,0,1,252.86,26a2.79,2.79,0,0,1,1.27-.42,2.71,2.71,0,0,1,1,.23,1.38,1.38,0,0,1,.82,1.42c0,.54-.36.89-1.07,1a3.15,3.15,0,0,0-2.64,2.5c-.24.89-.45,1.85-.66,2.89a16.13,16.13,0,0,1-.61,2.7,16.28,16.28,0,0,0-1,4,11.88,11.88,0,0,1-.46,2.25,3.93,3.93,0,0,1-1,1.63,3.2,3.2,0,0,1,2.18,1.66,9,9,0,0,1,1.17,3.83q.19,1.66.66,7.2l.1,1a1.36,1.36,0,0,0,1.22,1.33,2.55,2.55,0,0,1,1.16.59,1.31,1.31,0,0,1,.36,1,1.61,1.61,0,0,1-.56,1.25,2.07,2.07,0,0,1-1.42.5A3,3,0,0,1,251.16,61.68Z"/>
          <path class="cls-1" d="M261,61.68a1.72,1.72,0,0,1-.56-1.37q.15-2.41.15-4.92,0-2.18-.1-6.63c0-1.36-.15-3.39-.35-6.11q-.06-.81-.15-2.34c-.07-1-.12-1.94-.16-2.73,0-.53-.05-1.34-.05-2.41l.05-4.83a9,9,0,0,0-.1-1.18l-.05-1.09a1.6,1.6,0,0,1,.43-1.19,1.57,1.57,0,0,1,1.14-.42A1.47,1.47,0,0,1,263,27.74a17.19,17.19,0,0,1,.2,2.13,9.85,9.85,0,0,1-.15,1.7,22.22,22.22,0,0,0-.25,3.17l.05,1.42q.19,4.37.2,8V49.8c0,1,0,2.45.1,4.4l.3,0L264,52.4c1-3.18,2-6.09,2.9-8.71A40.55,40.55,0,0,0,268.44,38c.23-1.13.45-2.05.66-2.74l2.53-8.52a2.61,2.61,0,0,1,.87-.93,1.65,1.65,0,0,1,1-.26,2.33,2.33,0,0,1,1.17.78,1.75,1.75,0,0,1,.51,1.26,33.19,33.19,0,0,1-.31,3.45q-.45,5.93-.51,7.44-.19,6.35-.2,9.51c0,1,.08,2.6.25,4.76s.27,3.59.31,4.29l.2,2.36a1.87,1.87,0,0,1-2,2.13,1.39,1.39,0,0,1-1-.35,1.42,1.42,0,0,1-.46-1v-.43l.05-9.51V48.52q-.09-2.46-.2-7.57V35.88a.42.42,0,0,0-.25-.05c-.21,0-.5.75-.89,2.16s-.75,2.81-1.09,4.21-.56,2.3-.66,2.68c-.31,1.35-.49,2.13-.56,2.32q-1.43,4.5-2.28,7.5a60.88,60.88,0,0,0-1.42,6.08,1.7,1.7,0,0,1-1.83,1.52A1.89,1.89,0,0,1,261,61.68Z"/>
        </g>
      </g>
    </g>
  </g>
</svg>
