<?xml version="1.0" encoding="utf-8"?>
<!-- Generator: Adobe Illustrator 23.1.0, SVG Export Plug-In . SVG Version: 6.00 Build 0)  -->
<svg version="1.1" xmlns="http://www.w3.org/2000/svg" xmlns:xlink="http://www.w3.org/1999/xlink" x="0px" y="0px"
	 viewBox="0 0 234.7 150.3" style="enable-background:new 0 0 234.7 150.3;" xml:space="preserve">
<style type="text/css">
	.st0{fill:#CCDAE7;}
	.st1{stroke:#CCDAE7;stroke-width:1.7946;stroke-miterlimit:10;}
	.st2{stroke:#CCDAE7;stroke-width:2;stroke-miterlimit:10;}
	.st3{stroke:#CCDAE7;stroke-width:2;stroke-linejoin:round;stroke-miterlimit:10;stroke-dasharray:0.5354,2.1418;}
	.st4{fill:none;stroke:#CCDAE7;stroke-width:2;stroke-linejoin:round;stroke-miterlimit:10;stroke-dasharray:0.5354,2.1418;}
	.st5{fill:none;stroke:#CCDAE7;stroke-width:2;stroke-miterlimit:10;}
	.st6{stroke:#CCDAE7;stroke-width:1.0777;stroke-miterlimit:10;}
	.st7{stroke:#CCDAE7;stroke-width:0.2694;stroke-miterlimit:10;}
	.st8{fill:#CCDAE7;stroke:#CCDAE7;stroke-width:2;stroke-miterlimit:10;}
	.st9{fill:none;stroke:#CCDAE7;stroke-width:1.7889;stroke-miterlimit:10;}
</style>
<g id="Слой_1">
</g>
<g id="Слой_2">
	<g>
		<g>
			<path class="st0" d="M31.5,87.7c-0.1-1.1-0.2-2.3-0.1-3.4c0-0.6,0-1.2,0.1-1.7l0.2-1.7c0.3-2.3,0.9-4.6,1.7-6.8
				c1.5-4.5,4.1-8.6,7.1-12.2c6.1-7.3,14.1-12.9,22.5-17c8.5-4.2,17.6-6.9,26.8-8.7c4.6-0.9,9.2-1.5,13.9-2c4.7-0.4,9.3-0.6,14-0.7
				c4.7,0,9.3,0.2,14,0.5c4.7,0.4,9.3,1,13.9,1.9c9.2,1.8,18.3,4.6,26.8,8.7c8.5,4.1,16.4,9.8,22.4,17.2c3,3.7,5.4,7.9,7,12.3
				c1.6,4.4,2.2,9.2,1.8,13.7c-1-9.2-5.4-17.3-11.7-23.4c-6.2-6.2-13.9-10.7-22-14.1c-16.3-6.7-34.3-9-52-8.9
				c-8.9,0.1-17.8,0.7-26.6,2.2c-8.7,1.5-17.4,3.6-25.5,7c-8.1,3.3-15.9,7.7-22.2,13.9C36.9,70.4,32.3,78.5,31.5,87.7z"/>
		</g>
		<g>
			<g>
				<g>
					<path class="st1" d="M66.5,20.9c-0.5-1.6-1.1-3.2-1.8-4.7c-0.2-0.4-0.3-0.8-0.5-1.2c-0.5-1.1-1-2.2-1.5-3.3
						c-1.7-3.5-3.4-6.3-4.1-7.4c-0.2-0.4-0.4-0.6-0.4-0.6s-0.1,0.2-0.3,0.6h0c-1.5,2.5-7.5,12.6-9.1,21.3c-0.2,1.3-0.4,2.7-0.4,3.9
						c0,1,0,2,0.1,2.8c0.2,2.2,0.7,3.9,1.3,5.2c1.5,3,4.1,3.9,7,4.1l0-2.1c-2.3-0.2-4.2-1.1-5.3-3.8c-0.5-1.4-0.9-3.2-0.9-5.6
						c0-0.2,0-0.3,0-0.5c0-2.2,0.5-4.8,1.3-7.3c2.2-7,6.2-13.7,6.2-13.7s1.2,2,2.6,4.9c0.7,1.3,1.4,2.8,2,4.5
						c0.5,1.2,0.9,2.3,1.3,3.6c0.1,0.4,0.3,0.8,0.4,1.2c0.7,2.4,1.2,4.8,1.2,6.9c0,3.6-0.6,5.9-1.6,7.4c-1.1,1.7-2.7,2.3-4.5,2.5
						l0,2.1c1.7-0.1,3.2-0.5,4.5-1.3c2.3-1.5,3.9-4.7,3.9-10.8C68.1,26.8,67.5,23.8,66.5,20.9z"/>
					<path class="st1" d="M65.8,29.6c0,7.5-2.6,9.5-6.1,9.9l-0.2-11.6l-0.1-6.4l-0.1-6.4l-0.1-4.4c0-0.7-0.3-1.3-0.6-1.3h-0.4
						c-0.3,0-0.6,0.6-0.6,1.3L57.4,17l-0.1,6.6l-0.1,6.6L57,39.5c-2.3-0.2-4.2-1.1-5.3-3.8c-0.5-1.4-0.9-3.2-0.9-5.6
						c0-0.2,0-0.3,0-0.5c0-2.2,0.5-4.8,1.3-7.3c2.2-7,6.2-13.7,6.2-13.7s1.2,2,2.6,4.9c0.7,1.3,1.4,2.8,2,4.5
						c0.6,1.5,1.2,3.1,1.7,4.8C65.4,25.1,65.8,27.5,65.8,29.6z"/>
				</g>
				<path class="st1" d="M59.9,50.3c0,0.7-0.5,1.3-1.2,1.3H58c-0.7,0-1.2-0.6-1.2-1.3l0.2-8.7l0-2.1l0.2-9.3l0.1-6.6l0.1-6.6
					l0.1-6.2c0-0.7,0.3-1.3,0.6-1.3h0.4c0.3,0,0.6,0.6,0.6,1.3l0.1,4.4l0.1,6.4l0.1,6.4l0.2,11.6l0,2.1L59.9,50.3z"/>
				<g>
					<line class="st1" x1="59.1" y1="17" x2="64.5" y2="22.4"/>
					<line class="st1" x1="59.3" y1="23.6" x2="65.8" y2="30.1"/>
					<line class="st1" x1="59.4" y1="30.2" x2="64.9" y2="35.7"/>
				</g>
				<g>
					<line class="st1" x1="57.4" y1="17" x2="52" y2="22.4"/>
					<line class="st1" x1="57.3" y1="23.6" x2="50.8" y2="30.1"/>
					<line class="st1" x1="57.2" y1="30.2" x2="51.7" y2="35.7"/>
				</g>
			</g>
			<g>
				<g>
					<path class="st1" d="M184.7,20c-0.5-1.6-1.1-3.2-1.8-4.7c-0.2-0.4-0.3-0.8-0.5-1.2c-0.5-1.1-1-2.2-1.5-3.3
						c-1.7-3.5-3.4-6.3-4.1-7.4c-0.2-0.4-0.4-0.6-0.4-0.6s-0.1,0.2-0.3,0.6h0c-1.5,2.5-7.5,12.6-9.1,21.3c-0.2,1.3-0.4,2.7-0.4,3.9
						c0,1,0,2,0.1,2.8c0.2,2.2,0.7,3.9,1.3,5.2c1.5,3,4.1,3.9,7,4.1l0-2.1c-2.3-0.2-4.2-1.1-5.3-3.8c-0.5-1.4-0.9-3.2-0.9-5.6
						c0-0.2,0-0.3,0-0.5c0-2.2,0.5-4.8,1.3-7.3c2.2-7,6.2-13.7,6.2-13.7s1.2,2,2.6,4.9c0.7,1.3,1.4,2.8,2,4.5
						c0.5,1.2,0.9,2.3,1.3,3.6c0.1,0.4,0.3,0.8,0.4,1.2c0.7,2.4,1.2,4.8,1.2,6.9c0,3.6-0.6,5.9-1.6,7.4c-1.1,1.7-2.7,2.3-4.5,2.5
						l0,2.1c1.7-0.1,3.2-0.5,4.5-1.3c2.3-1.5,3.9-4.7,3.9-10.8C186.3,26,185.6,23,184.7,20z"/>
					<path class="st1" d="M184,28.8c0,7.5-2.6,9.5-6.1,9.9l-0.2-11.6l-0.1-6.4l-0.1-6.4l-0.1-4.4c0-0.7-0.3-1.3-0.6-1.3h-0.4
						c-0.3,0-0.6,0.6-0.6,1.3l-0.1,6.2l-0.1,6.6l-0.1,6.6l-0.2,9.3c-2.3-0.2-4.2-1.1-5.3-3.8c-0.5-1.4-0.9-3.2-0.9-5.6
						c0-0.2,0-0.3,0-0.5c0-2.2,0.5-4.8,1.3-7.3c2.2-7,6.2-13.7,6.2-13.7s1.2,2,2.6,4.9c0.7,1.3,1.4,2.8,2,4.5
						c0.6,1.5,1.2,3.1,1.7,4.8C183.5,24.3,184,26.7,184,28.8z"/>
				</g>
				<path class="st1" d="M178.1,49.5c0,0.7-0.5,1.3-1.2,1.3h-0.8c-0.7,0-1.2-0.6-1.2-1.3l0.2-8.7l0-2.1l0.2-9.3l0.1-6.6l0.1-6.6
					l0.1-6.2c0-0.7,0.3-1.3,0.6-1.3h0.4c0.3,0,0.6,0.6,0.6,1.3l0.1,4.4l0.1,6.4l0.1,6.4l0.2,11.6l0,2.1L178.1,49.5z"/>
				<g>
					<line class="st1" x1="177.3" y1="16.2" x2="182.7" y2="21.5"/>
					<line class="st1" x1="177.4" y1="22.8" x2="184" y2="29.3"/>
					<line class="st1" x1="177.5" y1="29.4" x2="183.1" y2="34.9"/>
				</g>
				<g>
					<line class="st1" x1="175.6" y1="16.2" x2="170.2" y2="21.5"/>
					<line class="st1" x1="175.5" y1="22.8" x2="168.9" y2="29.3"/>
					<line class="st1" x1="175.3" y1="29.4" x2="169.8" y2="34.9"/>
				</g>
			</g>
		</g>
		<g id="House_1_">
			<path class="st2" d="M142.1,51.7H92.6c-1.3,0-2.4-1.1-2.4-2.4v-36c0-1.3,1.1-2.4,2.4-2.4h49.5c1.3,0,2.4,1.1,2.4,2.4v36
				C144.5,50.6,143.5,51.7,142.1,51.7z"/>
			<path class="st2" d="M119.8,25.4h-4.9c-1,0-1.7-0.8-1.7-1.7v-6.5c0-1,0.8-1.7,1.7-1.7h4.9c1,0,1.7,0.8,1.7,1.7v6.5
				C121.6,24.6,120.8,25.4,119.8,25.4z"/>
			<path class="st2" d="M103.2,42.6h-4.9c-1,0-1.7-0.8-1.7-1.7v-6.5c0-1,0.8-1.7,1.7-1.7h4.9c1,0,1.7,0.8,1.7,1.7v6.5
				C105,41.8,104.2,42.6,103.2,42.6z"/>
			<path class="st2" d="M137.2,42.7h-4.9c-1,0-1.7-0.8-1.7-1.7v-6.5c0-1,0.8-1.7,1.7-1.7h4.9c1,0,1.7,0.8,1.7,1.7v6.5
				C139,41.9,138.2,42.7,137.2,42.7z"/>
			<path class="st2" d="M119.2,51.4h-3.6c-1.3,0-2.4-1.1-2.4-2.4V35c0-1.3,1.1-2.4,2.4-2.4h3.6c1.3,0,2.4,1.1,2.4,2.4v14.1
				C121.6,50.4,120.5,51.4,119.2,51.4z"/>
			<g>
				<rect x="90.4" y="23.2" class="st2" width="53.5" height="6.5"/>
				<line class="st3" x1="90.4" y1="24.7" x2="144" y2="24.7"/>
			</g>
			<g>
				<line class="st4" x1="125.7" y1="46.2" x2="144" y2="46.2"/>
				<line class="st4" x1="90.4" y1="46.2" x2="109.5" y2="46.2"/>
				<path class="st5" d="M108.7,51.6H91.5c-0.5,0-1-0.4-1-1v-4.5c0-0.5,0.4-1,1-1h17.2c0.5,0,1,0.4,1,1v4.5
					C109.6,51.2,109.2,51.6,108.7,51.6z"/>
				<path class="st5" d="M143.9,51.6h-17.2c-0.5,0-1-0.4-1-1v-4.5c0-0.5,0.4-1,1-1h17.2c0.5,0,1,0.4,1,1v4.5
					C144.9,51.2,144.4,51.6,143.9,51.6z"/>
			</g>
			<g>
				<circle class="st6" cx="144.8" cy="20.2" r="2.6"/>
				<circle class="st6" cx="144.8" cy="25.8" r="2.6"/>
				<circle class="st6" cx="144.8" cy="31.5" r="2.6"/>
				<circle class="st6" cx="144.8" cy="37.1" r="2.6"/>
				<circle class="st6" cx="144.8" cy="42.8" r="2.6"/>
				<circle class="st6" cx="144.8" cy="48.4" r="2.6"/>
				<circle class="st7" cx="144.8" cy="25.8" r="1.1"/>
				<circle class="st7" cx="144.8" cy="31.5" r="1.1"/>
				<circle class="st7" cx="144.8" cy="37.1" r="1.1"/>
				<circle class="st7" cx="144.8" cy="42.7" r="1.1"/>
				<circle class="st7" cx="144.8" cy="48.4" r="1.1"/>
			</g>
			<g>
				<circle class="st6" cx="91.1" cy="20.2" r="2.6"/>
				<circle class="st6" cx="91.1" cy="25.8" r="2.6"/>
				<circle class="st6" cx="91.1" cy="31.5" r="2.6"/>
				<circle class="st6" cx="91.1" cy="37.1" r="2.6"/>
				<circle class="st6" cx="91.1" cy="42.8" r="2.6"/>
				<circle class="st6" cx="91.1" cy="48.4" r="2.6"/>
				<circle class="st7" cx="91.1" cy="25.8" r="1.1"/>
				<circle class="st7" cx="91.1" cy="31.5" r="1.1"/>
				<circle class="st7" cx="91.1" cy="37.1" r="1.1"/>
				<circle class="st7" cx="91.1" cy="42.8" r="1.1"/>
				<circle class="st7" cx="91.1" cy="48.5" r="1.1"/>
			</g>
			<path class="st6" d="M148.7,20.5h-16.6c-0.4,0-0.9-0.1-1.2-0.4L119,11.3c-1-0.7-2.4-0.7-3.4,0L104,20c-0.4,0.3-1,0.5-1.5,0.5
				H86.1c-1.2,0-1.9-1.2-1.4-2.2l6.8-14c0.8-1.7,2.6-2.8,4.5-2.8h42.8c1.9,0,3.6,1.1,4.5,2.8l6.8,14.1
				C150.5,19.3,149.8,20.5,148.7,20.5z"/>
			<g>
				<g>
					<path d="M148.7,20.5h-16.6c-0.4,0-0.9-0.1-1.2-0.4L119,11.3c-1-0.7-2.4-0.7-3.4,0L104,20c-0.4,0.3-1,0.5-1.5,0.5H86.1
						c-1.2,0-1.9-1.2-1.4-2.2l6.8-14c0.8-1.7,2.6-2.8,4.5-2.8h42.8c1.9,0,3.6,1.1,4.5,2.8l6.8,14.1
						C150.5,19.3,149.8,20.5,148.7,20.5z"/>
					<path class="st0" d="M119.3,10.8C119.3,10.8,119.2,10.8,119.3,10.8c-0.7-0.5-1.3-0.7-2-0.7c-0.7,0-1.3,0.2-1.9,0.6
						c0,0-0.1,0-0.1,0.1l-3.9,2.9L111,14c0.1,0.2,0.2,0.3,0.4,0.4h0L112,14h0c0.3,0,0.5-0.2,0.7-0.5c0,0,0,0,0,0l1.1-0.8l0,0
						c0.1-0.1,0.2-0.2,0.3-0.2c0,0,0,0,0,0l0.6-0.5c0.2,0.1,0.3,0.2,0.5,0.3l0.7-0.5c0.8-0.6,1.9-0.6,2.7,0l0.2,0.2
						c0.1,0,0.2,0,0.2,0c0.7,0,1.1,0.6,1.4,1.2c0,0,0,0.1,0,0.1l1.1,0.8c0.2,0,0.3-0.2,0.4-0.3c0.1-0.1,0.2-0.3,0.3-0.5L119.3,10.8z
						 M119.3,10.8C119.3,10.8,119.2,10.8,119.3,10.8c-0.7-0.5-1.3-0.7-2-0.7c-0.7,0-1.3,0.2-1.9,0.6c0,0-0.1,0-0.1,0.1l-3.9,2.9
						L111,14c0.1,0.2,0.2,0.3,0.4,0.4h0L112,14h0c0.3,0,0.5-0.2,0.7-0.5c0,0,0,0,0,0l1.1-0.8l0,0c0.1-0.1,0.2-0.2,0.3-0.2
						c0,0,0,0,0,0l0.6-0.5l0.9-0.6c0.1-0.1,0.3-0.2,0.4-0.2c0.2-0.1,0.4-0.2,0.7-0.2c0.4-0.1,0.8-0.1,1.2,0c0.2,0,0.5,0.1,0.7,0.2
						c0.1,0.1,0.3,0.2,0.4,0.2l3.2,2.4c0.1-0.1,0.2-0.3,0.3-0.5L119.3,10.8z M119.3,10.8C119.3,10.8,119.2,10.8,119.3,10.8
						c-0.7-0.5-1.3-0.7-2-0.7c-0.7,0-1.3,0.2-1.9,0.6c0,0-0.1,0-0.1,0.1l-3.9,2.9L111,14c0.1,0.2,0.2,0.3,0.4,0.4h0L112,14h0
						c0.3,0,0.5-0.2,0.7-0.5c0,0,0,0,0,0l1.1-0.8l0,0c0.1-0.1,0.2-0.2,0.3-0.2c0,0,0,0,0,0l0.6-0.5l0.9-0.6c0.1-0.1,0.3-0.2,0.4-0.2
						c0.2-0.1,0.4-0.2,0.7-0.2c0.4-0.1,0.8-0.1,1.2,0c0.2,0,0.5,0.1,0.7,0.2c0.1,0.1,0.3,0.2,0.4,0.2l3.2,2.4
						c0.1-0.1,0.2-0.3,0.3-0.5L119.3,10.8z M122.4,13.2l-3.1-2.3c0,0-0.1,0-0.1-0.1c-0.6-0.4-1.2-0.6-1.9-0.6
						c-0.7,0-1.3,0.2-1.9,0.6c0,0-0.1,0-0.1,0.1l-3.9,2.9L111,14l-5,3.8c0.1,0.1,0.1,0.2,0.2,0.3c0,0,0,0.1,0.1,0.1l5.2-3.9h0
						L112,14h0l0.7-0.5c0,0,0,0,0,0l1.1-0.8l0,0c0.1-0.1,0.2-0.2,0.3-0.2c0,0,0,0,0,0l0.6-0.5l0.9-0.6c0.1-0.1,0.3-0.2,0.4-0.2
						c0.2-0.1,0.4-0.2,0.7-0.2c0.4-0.1,0.8-0.1,1.2,0c0.2,0,0.5,0.1,0.7,0.2c0.1,0.1,0.3,0.2,0.4,0.2l3.2,2.4l0.4,0.3
						c0.1-0.1,0.2-0.3,0.3-0.5L122.4,13.2z M150.5,18l-2.8-5.7l-0.2-0.5l-1.2-2.5l-0.1-0.3l-0.2-0.5L143.7,4
						c-0.3-0.6-0.7-1.1-1.2-1.6c-0.1-0.1-0.2-0.2-0.4-0.3c-0.9-0.8-2.1-1.2-3.4-1.2H96c-1.6,0-3.1,0.7-4.1,1.9
						c-0.1,0.1-0.2,0.3-0.3,0.4C91.3,3.4,91.2,3.7,91,4l-2.1,4.4c0,0,0,0,0,0l-0.5,1l-1.5,3.2l-0.2,0.5L84.2,18
						c-0.2,0.3-0.2,0.7-0.2,1c0,0.4,0.1,0.7,0.3,1c0.4,0.6,1.1,1,1.8,1h16.3c0.6,0,1.3-0.2,1.8-0.6l1.9-1.4l0.4-0.3l5.7-4.2l0.7-0.6
						l1.8-1.3l0.4-0.3l0.7-0.5c0.8-0.6,1.9-0.6,2.7,0l0.2,0.2l1.7,1.3l1.1,0.8l0.4,0.3l5.1,3.8l0.4,0.3l0.4,0.3l0.7,0.5c0,0,0,0,0,0
						l1.7,1.2c0.5,0.3,1,0.5,1.6,0.5h16.6c0.4,0,0.7-0.1,1.1-0.3c0,0,0,0,0,0c0.3-0.2,0.5-0.4,0.7-0.7
						C150.8,19.4,150.8,18.7,150.5,18z M149.5,19.4c0,0,0,0.1,0,0.1c-0.2,0.3-0.5,0.5-0.8,0.5h-16.6c-0.3,0-0.7-0.1-0.9-0.3
						l-0.1-0.1l-1.3-0.9l-1.5-1.1l-0.4-0.3l-4-2.9l-0.6-0.4v0l-0.5-0.4l-0.4-0.3l-3.1-2.3c0,0-0.1,0-0.1-0.1
						c-0.6-0.4-1.2-0.6-1.9-0.6c-0.7,0-1.3,0.2-1.9,0.6c0,0-0.1,0-0.1,0.1l-3.9,2.9L111,14l-5,3.8l-0.4,0.3l-2,1.5
						c-0.3,0.2-0.8,0.4-1.2,0.4H86.1c-0.4,0-0.7-0.2-0.9-0.5c-0.2-0.3-0.2-0.7-0.1-1l0.5-1.1l0.2-0.4l1.4-2.8l0.2-0.5L90,8.6
						c0,0,0,0,0,0l0.2-0.4l0.4-0.9l0.2-0.5L92,4.5c0.1-0.1,0.1-0.2,0.2-0.4c0.1-0.1,0.2-0.3,0.3-0.4c0.5-0.6,1.1-1.1,1.8-1.4
						C94.8,2.1,95.4,2,96,2h42.8c0.1,0,0.1,0,0.2,0c1,0,1.9,0.4,2.6,1c0.1,0.1,0.3,0.2,0.4,0.3c0.3,0.3,0.6,0.7,0.8,1.1l1.9,3.9
						c0,0,0,0,0,0.1l0.3,0.5l0.2,0.5l1.5,3.2l0.2,0.5l2.6,5.4c0,0.1,0.1,0.2,0.1,0.3c0,0,0,0,0,0C149.7,19,149.6,19.2,149.5,19.4z
						 M119.3,10.8C119.3,10.8,119.2,10.8,119.3,10.8c-0.7-0.5-1.3-0.7-2-0.7c-0.7,0-1.3,0.2-1.9,0.6c0,0-0.1,0-0.1,0.1l-3.9,2.9
						L111,14c0.1,0.2,0.2,0.3,0.4,0.4h0L112,14h0c0.3,0,0.5-0.2,0.7-0.5c0,0,0,0,0,0l1.1-0.8l0,0c0.1-0.1,0.2-0.2,0.3-0.2
						c0,0,0,0,0,0l0.6-0.5l0.9-0.6c0.1-0.1,0.3-0.2,0.4-0.2c0.2-0.1,0.4-0.2,0.7-0.2c0.4-0.1,0.8-0.1,1.2,0c0.2,0,0.5,0.1,0.7,0.2
						c0.1,0.1,0.3,0.2,0.4,0.2l3.2,2.4c0.1-0.1,0.2-0.3,0.3-0.5L119.3,10.8z M119.3,10.8C119.3,10.8,119.2,10.8,119.3,10.8
						c-0.7-0.5-1.3-0.7-2-0.7c-0.7,0-1.3,0.2-1.9,0.6c0,0-0.1,0-0.1,0.1l-3.9,2.9L111,14c0.1,0.2,0.2,0.3,0.4,0.4h0L112,14h0
						c0.3,0,0.5-0.2,0.7-0.5c0,0,0,0,0,0l1.1-0.8l0,0c0.1-0.1,0.2-0.2,0.3-0.2c0,0,0,0,0,0l0.6-0.5l0.9-0.6c0.1-0.1,0.3-0.2,0.4-0.2
						c0.2-0.1,0.4-0.2,0.7-0.2c0.4-0.1,0.8-0.1,1.2,0c0.2,0,0.5,0.1,0.7,0.2c0.1,0.1,0.3,0.2,0.4,0.2l3.2,2.4
						c0.1-0.1,0.2-0.3,0.3-0.5L119.3,10.8z M119.3,10.8C119.3,10.8,119.2,10.8,119.3,10.8c-0.7-0.5-1.3-0.7-2-0.7
						c-0.7,0-1.3,0.2-1.9,0.6c0,0-0.1,0-0.1,0.1l-3.9,2.9L111,14c0.1,0.2,0.2,0.3,0.4,0.4h0L112,14h0c0.3,0,0.5-0.2,0.7-0.5
						c0,0,0,0,0,0l1.1-0.8l0,0c0.1-0.1,0.2-0.2,0.3-0.2c0,0,0,0,0,0l0.6-0.5c0.2,0.1,0.3,0.2,0.5,0.3l0.7-0.5c0.8-0.6,1.9-0.6,2.7,0
						l0.2,0.2c0.1,0,0.2,0,0.2,0c0.7,0,1.1,0.6,1.4,1.2c0,0,0,0.1,0,0.1l1.1,0.8c0.2,0,0.3-0.2,0.4-0.3c0.1-0.1,0.2-0.3,0.3-0.5
						L119.3,10.8z M119.3,10.8C119.3,10.8,119.2,10.8,119.3,10.8c-0.7-0.5-1.3-0.7-2-0.7c-0.7,0-1.3,0.2-1.9,0.6c0,0-0.1,0-0.1,0.1
						l-3.9,2.9L111,14c0.1,0.2,0.2,0.3,0.4,0.4h0L112,14h0c0.3,0,0.5-0.2,0.7-0.5c0,0,0,0,0,0l1.1-0.8l0,0c0.1-0.1,0.2-0.2,0.3-0.2
						c0,0,0,0,0,0l0.6-0.5c0.2,0.1,0.3,0.2,0.5,0.3l0.7-0.5c0.8-0.6,1.9-0.6,2.7,0l0.2,0.2c0.1,0,0.2,0,0.2,0c0.7,0,1.1,0.6,1.4,1.2
						c0,0,0,0.1,0,0.1l1.1,0.8c0.2,0,0.3-0.2,0.4-0.3c0.1-0.1,0.2-0.3,0.3-0.5L119.3,10.8z"/>
				</g>
				<g>
					<g>
						<path class="st0" d="M142.5,2.4c-0.1,0.1-0.2,0.3-0.3,0.4c-0.1,0.1-0.1,0.2-0.2,0.3c0,0.1-0.1,0.1-0.1,0.2
							c-0.3,0.5-0.6,1-1.3,1c-0.7,0-1.1-0.6-1.4-1.2c-0.3-0.6-0.6-0.9-1-0.9s-0.6,0.4-1,0.9c-0.3,0.6-0.7,1.2-1.4,1.2
							s-1.1-0.6-1.4-1.2c-0.3-0.6-0.6-0.9-1-0.9s-0.6,0.4-1,0.9c-0.3,0.6-0.7,1.2-1.4,1.2c-0.7,0-1.1-0.6-1.4-1.2
							c-0.3-0.6-0.6-0.9-1-0.9c-0.4,0-0.6,0.4-1,0.9c-0.3,0.6-0.7,1.2-1.4,1.2c-0.7,0-1.1-0.6-1.4-1.2c-0.3-0.6-0.6-0.9-1-0.9
							c-0.4,0-0.6,0.4-1,0.9c-0.3,0.6-0.7,1.2-1.4,1.2c-0.7,0-1.1-0.6-1.4-1.2c-0.3-0.6-0.6-0.9-1-0.9c-0.4,0-0.6,0.4-1,0.9
							c-0.3,0.6-0.7,1.2-1.4,1.2c-0.7,0-1.1-0.6-1.4-1.2c-0.3-0.6-0.5-0.9-1-0.9c-0.4,0-0.6,0.4-1,0.9c-0.3,0.6-0.7,1.2-1.4,1.2
							s-1.1-0.6-1.4-1.2c-0.3-0.6-0.6-0.9-1-0.9s-0.6,0.4-1,0.9c-0.3,0.6-0.7,1.2-1.4,1.2c-0.7,0-1.1-0.6-1.4-1.2
							c-0.3-0.6-0.6-0.9-1-0.9c-0.4,0-0.6,0.4-1,0.9c-0.3,0.6-0.7,1.2-1.4,1.2c-0.7,0-1.1-0.6-1.4-1.2c-0.3-0.6-0.5-0.9-1-0.9
							c-0.4,0-0.6,0.4-1,0.9c-0.3,0.6-0.7,1.2-1.4,1.2c-0.7,0-1.1-0.6-1.4-1.2c-0.3-0.6-0.6-0.9-1-0.9c-0.4,0-0.6,0.4-1,0.9
							c-0.3,0.6-0.7,1.2-1.4,1.2c-0.3,0-0.5-0.1-0.7-0.3C92,4,91.9,3.8,91.8,3.7c-0.1-0.2-0.2-0.3-0.3-0.5c0.1-0.2,0.2-0.3,0.3-0.4
							c0,0.1,0.1,0.1,0.1,0.2C92,3,92.1,3.2,92.1,3.3c0.1,0.2,0.2,0.3,0.3,0.4c0.1,0.1,0.3,0.2,0.4,0.2c0.4,0,0.6-0.4,1-0.9
							c0.1-0.2,0.2-0.4,0.4-0.6c0.2-0.3,0.5-0.6,1-0.6c0.3,0,0.5,0.1,0.7,0.3c0.3,0.2,0.5,0.6,0.7,0.9c0.3,0.6,0.6,0.9,1,0.9
							c0.4,0,0.6-0.4,1-0.9c0.2-0.3,0.4-0.7,0.7-0.9c0.2-0.2,0.4-0.3,0.7-0.3c0.3,0,0.5,0.1,0.7,0.3c0.3,0.2,0.5,0.6,0.7,0.9
							c0.3,0.6,0.6,0.9,1,0.9c0.4,0,0.7-0.4,1-0.9c0.2-0.3,0.4-0.7,0.7-0.9c0.2-0.2,0.4-0.3,0.7-0.3s0.5,0.1,0.7,0.3
							c0.3,0.2,0.5,0.6,0.7,0.9c0.3,0.6,0.6,0.9,1,0.9c0.4,0,0.6-0.4,1-0.9c0.2-0.3,0.4-0.7,0.7-0.9c0.2-0.2,0.4-0.3,0.7-0.3
							s0.5,0.1,0.7,0.3c0.3,0.2,0.5,0.6,0.7,0.9c0.3,0.6,0.5,0.9,1,0.9c0.4,0,0.6-0.4,1-0.9c0.2-0.3,0.4-0.7,0.7-0.9
							c0.2-0.2,0.4-0.3,0.7-0.3c0.3,0,0.5,0.1,0.7,0.3c0.3,0.2,0.5,0.6,0.7,0.9c0.3,0.6,0.6,0.9,1,0.9s0.6-0.4,1-0.9
							c0.2-0.3,0.4-0.7,0.7-0.9c0.2-0.2,0.4-0.3,0.7-0.3c0.3,0,0.5,0.1,0.7,0.3c0.3,0.2,0.5,0.6,0.7,0.9c0.3,0.6,0.6,0.9,1,0.9
							c0.4,0,0.6-0.4,1-0.9c0.2-0.3,0.4-0.7,0.7-0.9c0.2-0.2,0.4-0.3,0.7-0.3c0.3,0,0.5,0.1,0.7,0.3c0.3,0.2,0.5,0.6,0.7,0.9
							c0.3,0.6,0.6,0.9,1,0.9s0.6-0.4,1-0.9c0.2-0.3,0.4-0.7,0.7-0.9c0.2-0.2,0.4-0.3,0.7-0.3c0.3,0,0.5,0.1,0.7,0.3
							c0.3,0.2,0.5,0.6,0.7,0.9c0.3,0.6,0.6,0.9,1,0.9s0.6-0.4,1-0.9c0.2-0.3,0.4-0.7,0.7-0.9c0.2-0.2,0.4-0.3,0.7-0.3
							s0.5,0.1,0.7,0.3c0.3,0.2,0.5,0.6,0.7,0.9c0.3,0.6,0.6,0.9,1,0.9c0.4,0,0.6-0.4,1-0.9c0.2-0.3,0.4-0.7,0.7-0.9
							c0.2-0.2,0.4-0.3,0.7-0.3s0.5,0.1,0.7,0.3c0.3,0.2,0.5,0.6,0.7,0.9c0.3,0.6,0.6,0.9,1,0.9c0.4,0,0.6-0.3,0.9-0.9l0-0.1
							c0.1-0.1,0.2-0.3,0.2-0.4c0.1-0.2,0.2-0.3,0.3-0.4C142.3,2.2,142.4,2.3,142.5,2.4z"/>
					</g>
					<g>
						<path class="st0" d="M146.2,9.1c-0.1,0.1-0.3,0.2-0.5,0.3c-0.1,0-0.2,0.1-0.3,0.1c-0.1,0-0.2,0-0.3,0
							c-0.6-0.1-0.9-0.7-1.1-1.2c-0.3-0.6-0.6-0.9-1-0.9c-0.4,0-0.7,0.4-1,0.9c-0.3,0.6-0.7,1.2-1.4,1.2s-1.1-0.6-1.4-1.2
							c-0.3-0.6-0.6-0.9-1-0.9s-0.6,0.4-1,0.9c-0.3,0.6-0.7,1.2-1.4,1.2s-1.1-0.6-1.4-1.2c-0.3-0.6-0.6-0.9-1-0.9s-0.6,0.4-1,0.9
							c-0.3,0.6-0.7,1.2-1.4,1.2c-0.7,0-1.1-0.6-1.4-1.2c-0.3-0.6-0.6-0.9-1-0.9c-0.4,0-0.6,0.4-1,0.9c-0.3,0.6-0.7,1.2-1.4,1.2
							c-0.7,0-1.1-0.6-1.4-1.2c-0.3-0.6-0.6-0.9-1-0.9c-0.4,0-0.6,0.4-1,0.9c-0.3,0.6-0.7,1.2-1.4,1.2c-0.7,0-1.1-0.6-1.4-1.2
							c-0.3-0.6-0.6-0.9-1-0.9c-0.4,0-0.6,0.4-1,0.9c-0.3,0.6-0.7,1.2-1.4,1.2c-0.7,0-1.1-0.6-1.4-1.2c-0.3-0.6-0.5-0.9-1-0.9
							c-0.4,0-0.6,0.4-1,0.9c-0.3,0.6-0.7,1.2-1.4,1.2s-1.1-0.6-1.4-1.2c-0.3-0.6-0.6-0.9-1-0.9s-0.6,0.4-1,0.9
							c-0.3,0.6-0.7,1.2-1.4,1.2c-0.7,0-1.1-0.6-1.4-1.2c-0.3-0.6-0.6-0.9-1-0.9c-0.4,0-0.6,0.4-1,0.9c-0.3,0.6-0.7,1.2-1.4,1.2
							c-0.7,0-1.1-0.6-1.4-1.2c-0.3-0.6-0.5-0.9-1-0.9c-0.4,0-0.6,0.4-1,0.9c-0.3,0.6-0.7,1.2-1.4,1.2c-0.7,0-1.1-0.6-1.4-1.2
							c-0.3-0.6-0.6-0.9-1-0.9c-0.4,0-0.6,0.4-1,0.9c-0.3,0.6-0.7,1.2-1.4,1.2c-0.7,0-1.1-0.6-1.4-1.2c-0.3-0.5-0.5-0.9-0.9-0.9
							c0,0-0.1,0-0.1,0c-0.4,0-0.6,0.3-0.9,0.7c0,0,0,0,0,0c0,0,0,0,0,0c0,0-0.1,0.1-0.1,0.2c-0.3,0.5-0.6,1-1.2,1.2l0.5-1
							c0,0,0,0,0,0C89,8.3,89,8.1,89.1,8c0.3-0.5,0.6-1,1.1-1.2c0.1,0,0.2,0,0.3,0c0.1,0,0.2,0,0.3,0.1C91.4,7,91.7,7.5,91.9,8
							c0.3,0.6,0.6,0.9,1,0.9s0.6-0.4,1-0.9c0.3-0.6,0.7-1.2,1.4-1.2c0.7,0,1.1,0.6,1.4,1.2c0.3,0.6,0.6,0.9,1,0.9
							c0.4,0,0.6-0.4,1-0.9c0.3-0.6,0.7-1.2,1.4-1.2c0.7,0,1.1,0.6,1.4,1.2c0.3,0.6,0.6,0.9,1,0.9c0.4,0,0.7-0.4,1-0.9
							c0.3-0.6,0.7-1.2,1.4-1.2c0.7,0,1.1,0.6,1.4,1.2c0.3,0.6,0.6,0.9,1,0.9c0.4,0,0.6-0.4,1-0.9c0.3-0.6,0.7-1.2,1.4-1.2
							s1.1,0.6,1.4,1.2c0.3,0.6,0.5,0.9,1,0.9c0.4,0,0.6-0.4,1-0.9c0.3-0.6,0.7-1.2,1.4-1.2c0.7,0,1.1,0.6,1.4,1.2
							c0.3,0.6,0.6,0.9,1,0.9s0.6-0.4,1-0.9c0.3-0.6,0.7-1.2,1.4-1.2c0.7,0,1.1,0.6,1.4,1.2c0.3,0.6,0.6,0.9,1,0.9
							c0.4,0,0.6-0.4,1-0.9c0.3-0.6,0.7-1.2,1.4-1.2c0.7,0,1.1,0.6,1.4,1.2c0.3,0.6,0.6,0.9,1,0.9s0.6-0.4,1-0.9
							c0.3-0.6,0.7-1.2,1.4-1.2c0.7,0,1.1,0.6,1.4,1.2c0.3,0.6,0.6,0.9,1,0.9s0.6-0.4,1-0.9c0.3-0.6,0.7-1.2,1.4-1.2
							c0.7,0,1.1,0.6,1.4,1.2c0.3,0.6,0.6,0.9,1,0.9c0.4,0,0.6-0.4,1-0.9c0.3-0.6,0.7-1.2,1.4-1.2c0.7,0,1.1,0.6,1.4,1.2
							c0.3,0.6,0.6,0.9,1,0.9c0.4,0,0.6-0.4,1-0.9c0.3-0.6,0.7-1.2,1.4-1.2c0.7,0,1.1,0.6,1.4,1.2c0.1,0.1,0.1,0.2,0.2,0.3
							c0,0,0,0,0,0.1c0.2,0.3,0.4,0.5,0.8,0.5c0,0,0.1,0,0.1,0c0.2,0,0.3-0.1,0.5-0.3L146.2,9.1z"/>
					</g>
					<g>
						<path d="M108.6,18.4"/>
						<path d="M109.6,17.4"/>
						<path class="st0" d="M115.2,12.3l-0.4,0.3c-0.1-0.1-0.3-0.2-0.5-0.2c-0.1,0-0.1,0-0.2,0c0,0,0,0,0,0c-0.1,0-0.2,0.1-0.3,0.2
							l0,0c-0.2,0.2-0.3,0.4-0.4,0.7c-0.1,0.2-0.2,0.4-0.4,0.6l-0.7,0.6c-0.1,0-0.2,0-0.3,0c-0.2,0-0.4,0-0.5-0.1
							c-0.2-0.1-0.3-0.2-0.4-0.4c-0.2-0.2-0.3-0.5-0.5-0.7c-0.3-0.6-0.6-1-1-1s-0.6,0.4-1,1c-0.3,0.6-0.7,1.2-1.4,1.2
							c-0.7,0-1.1-0.6-1.4-1.2c-0.3-0.6-0.6-1-1-1c-0.4,0-0.6,0.4-1,1c-0.3,0.6-0.7,1.2-1.4,1.2c-0.7,0-1.1-0.6-1.4-1.2
							c-0.3-0.6-0.5-0.9-1-0.9c-0.4,0-0.6,0.4-1,1c-0.3,0.6-0.7,1.2-1.4,1.2c-0.7,0-1.1-0.6-1.4-1.2c-0.3-0.6-0.6-1-1-1
							c-0.4,0-0.6,0.4-1,1c-0.3,0.6-0.7,1.2-1.4,1.2c-0.7,0-1.1-0.6-1.4-1.2c-0.3-0.6-0.5-1-1-1c-0.4,0-0.7,0.4-1,1
							c-0.3,0.6-0.7,1.2-1.4,1.2c-0.4,0-0.6-0.2-0.8-0.4c-0.1-0.1-0.3-0.3-0.4-0.5c-0.1-0.1-0.1-0.2-0.2-0.3c0-0.1-0.1-0.1-0.1-0.2
							l0.2-0.5c0.1,0.2,0.2,0.3,0.3,0.5c0,0,0,0,0,0.1c0.1,0.2,0.2,0.4,0.3,0.5c0.2,0.2,0.4,0.4,0.6,0.4c0.4,0,0.7-0.4,1-0.9
							c0.3-0.6,0.7-1.2,1.4-1.2c0.7,0,1.1,0.6,1.4,1.2c0.3,0.6,0.6,0.9,1,0.9s0.6-0.4,1-0.9c0.3-0.6,0.7-1.2,1.4-1.2
							c0.7,0,1.1,0.6,1.4,1.2c0.3,0.6,0.6,0.9,1,0.9c0.4,0,0.6-0.4,1-0.9c0.3-0.6,0.7-1.2,1.4-1.2c0.7,0,1.1,0.6,1.4,1.2
							c0.3,0.6,0.6,0.9,1,0.9c0.4,0,0.7-0.4,1-0.9c0.3-0.6,0.7-1.2,1.4-1.2c0.7,0,1.1,0.6,1.4,1.2c0.3,0.6,0.6,0.9,1,0.9
							c0.4,0,0.6-0.4,1-0.9c0.3-0.6,0.7-1.2,1.4-1.2s1.1,0.6,1.4,1.2c0.2,0.3,0.3,0.5,0.4,0.7c0.2,0.2,0.3,0.3,0.5,0.3
							c0.3,0,0.5-0.2,0.7-0.5c0.1-0.1,0.2-0.2,0.2-0.4c0.3-0.6,0.7-1.2,1.4-1.2c0.2,0,0.3,0,0.4,0.1C114.9,12,115.1,12.1,115.2,12.3
							z"/>
						<path class="st0" d="M120.5,13C120.5,13.1,120.6,13.1,120.5,13l-1.6-1.2c0.1,0,0.2,0,0.2,0C119.9,11.8,120.2,12.5,120.5,13z"
							/>
						<path class="st0" d="M147.7,12.3c-0.2,0-0.3,0.1-0.5,0.2c-0.1,0.1-0.2,0.3-0.4,0.5c0,0.1-0.1,0.1-0.1,0.2
							c-0.3,0.6-0.7,1.2-1.4,1.2s-1.1-0.6-1.4-1.2c-0.3-0.6-0.6-1-1-1c-0.4,0-0.7,0.4-1,1c-0.3,0.6-0.7,1.2-1.4,1.2
							s-1.1-0.6-1.4-1.2c-0.3-0.6-0.6-1-1-1s-0.6,0.4-1,1c-0.3,0.6-0.7,1.2-1.4,1.2s-1.1-0.6-1.4-1.2c-0.3-0.6-0.6-1-1-1
							s-0.6,0.4-1,1c-0.3,0.6-0.7,1.2-1.4,1.2c-0.7,0-1.1-0.6-1.4-1.2c-0.3-0.6-0.6-1-1-1c-0.4,0-0.6,0.4-1,1
							c-0.3,0.6-0.7,1.2-1.4,1.2c-0.7,0-1.1-0.6-1.4-1.2c-0.3-0.6-0.6-1-1-1c-0.4,0-0.6,0.4-1,1c0,0.1-0.1,0.1-0.1,0.2
							c-0.1,0.2-0.2,0.3-0.3,0.5c-0.1,0.2-0.2,0.3-0.4,0.4l-0.4-0.3c0.2,0,0.3-0.2,0.4-0.3c0.1-0.1,0.2-0.3,0.3-0.5
							c0,0,0-0.1,0.1-0.1c0.3-0.6,0.7-1.2,1.4-1.2c0.7,0,1.1,0.6,1.4,1.2c0.3,0.6,0.6,0.9,1,0.9s0.6-0.4,1-0.9
							c0.3-0.6,0.7-1.2,1.4-1.2c0.7,0,1.1,0.6,1.4,1.2c0.3,0.6,0.6,0.9,1,0.9s0.6-0.4,1-0.9c0.3-0.6,0.7-1.2,1.4-1.2
							c0.7,0,1.1,0.6,1.4,1.2c0.3,0.6,0.6,0.9,1,0.9c0.4,0,0.6-0.4,1-0.9c0.3-0.6,0.7-1.2,1.4-1.2c0.7,0,1.1,0.6,1.4,1.2
							c0.3,0.6,0.6,0.9,1,0.9c0.4,0,0.6-0.4,1-0.9c0.3-0.6,0.7-1.2,1.4-1.2c0.7,0,1.1,0.6,1.4,1.2c0.3,0.6,0.5,0.9,1,0.9
							c0.4,0,0.6-0.4,1-0.9c0.1-0.2,0.2-0.3,0.3-0.5c0.1-0.2,0.2-0.3,0.4-0.5c0.1-0.1,0.3-0.2,0.5-0.2L147.7,12.3z"/>
					</g>
					<g>
						<path class="st0" d="M106.3,18.2c0.1,0.2,0.2,0.3,0.3,0.5l-0.4,0.3c-0.1-0.1-0.2-0.3-0.3-0.5c0-0.1-0.1-0.1-0.1-0.2
							c-0.1-0.1-0.1-0.2-0.2-0.3c-0.2-0.4-0.5-0.7-0.8-0.7c-0.4,0-0.6,0.4-1,1c-0.3,0.6-0.7,1.2-1.4,1.2c-0.7,0-1.1-0.6-1.4-1.2
							c-0.3-0.6-0.5-1-1-1c-0.4,0-0.6,0.4-1,1c-0.3,0.6-0.7,1.2-1.4,1.2c-0.7,0-1.1-0.6-1.4-1.2c-0.3-0.6-0.6-1-1-1
							c-0.4,0-0.6,0.4-1,1c-0.3,0.6-0.7,1.2-1.4,1.2c-0.7,0-1.1-0.6-1.4-1.2c-0.3-0.6-0.5-1-1-1c-0.4,0-0.7,0.4-1,1
							c-0.3,0.6-0.7,1.2-1.4,1.2s-1.1-0.6-1.4-1.2c-0.3-0.6-0.6-1-1-1v-0.5c0.1,0,0.1,0,0.2,0c0.6,0.1,0.9,0.7,1.2,1.2
							c0.3,0.6,0.5,1,1,1c0.4,0,0.7-0.4,1-1c0.3-0.6,0.7-1.2,1.4-1.2c0.7,0,1.1,0.6,1.4,1.2c0.3,0.6,0.6,1,1,1s0.6-0.4,1-1
							c0.3-0.6,0.7-1.2,1.4-1.2c0.7,0,1.1,0.6,1.4,1.2c0.3,0.6,0.6,1,1,1c0.4,0,0.6-0.4,1-1c0.3-0.6,0.7-1.2,1.4-1.2
							c0.7,0,1.1,0.6,1.4,1.2c0.3,0.6,0.6,1,1,1c0.4,0,0.7-0.4,1-1c0.3-0.6,0.7-1.2,1.4-1.2c0.6,0,0.9,0.4,1.2,0.9
							c0.1,0.1,0.1,0.2,0.2,0.3C106.3,18.2,106.3,18.2,106.3,18.2z"/>
						<path class="st0" d="M150.2,19.1v0.5c0,0-0.1,0-0.1,0c-0.2,0-0.4-0.1-0.5-0.2c-0.3-0.2-0.6-0.6-0.8-1c-0.3-0.6-0.6-1-1-1
							s-0.7,0.4-1,1c-0.3,0.6-0.7,1.2-1.4,1.2s-1.1-0.6-1.4-1.2c-0.3-0.6-0.6-1-1-1c-0.4,0-0.7,0.4-1,1c-0.3,0.6-0.7,1.2-1.4,1.2
							s-1.1-0.6-1.4-1.2c-0.3-0.6-0.6-1-1-1s-0.6,0.4-1,1c-0.3,0.6-0.7,1.2-1.4,1.2s-1.1-0.6-1.4-1.2c-0.3-0.6-0.6-1-1-1
							s-0.6,0.4-1,1c-0.3,0.6-0.7,1.2-1.4,1.2c-0.6,0-1-0.5-1.3-0.9c-0.1-0.1-0.1-0.2-0.1-0.2c-0.3-0.6-0.6-1-1-1
							c-0.1,0-0.2,0-0.4,0.1c-0.1,0.1-0.2,0.2-0.4,0.4c-0.1,0.1-0.2,0.3-0.2,0.4c0,0,0,0,0,0l-0.4-0.3c0.1-0.2,0.2-0.3,0.3-0.5
							c0.1-0.2,0.2-0.3,0.4-0.4c0.2-0.2,0.5-0.3,0.8-0.3c0.7,0,1.1,0.6,1.4,1.2c0.3,0.6,0.6,1,1,1s0.6-0.4,1-1
							c0.3-0.6,0.7-1.2,1.4-1.2c0.7,0,1.1,0.6,1.4,1.2c0.3,0.6,0.6,1,1,1c0.4,0,0.6-0.4,1-1c0.3-0.6,0.7-1.2,1.4-1.2
							c0.7,0,1.1,0.6,1.4,1.2c0.3,0.6,0.6,1,1,1c0.4,0,0.6-0.4,1-1c0.3-0.6,0.7-1.2,1.4-1.2c0.7,0,1.1,0.6,1.4,1.2
							c0.3,0.6,0.5,1,1,1c0.4,0,0.6-0.4,1-1c0.3-0.6,0.7-1.2,1.4-1.2c0.7,0,1.1,0.6,1.4,1.2c0.2,0.3,0.3,0.5,0.4,0.7c0,0,0,0,0,0
							C149.8,19,149.9,19.1,150.2,19.1L150.2,19.1z"/>
					</g>
				</g>
				<g>
					<circle class="st5" cx="95.3" cy="3.5" r="0.5"/>
					<circle class="st5" cx="104.9" cy="3.5" r="0.5"/>
					<circle class="st5" cx="114.4" cy="3.5" r="0.5"/>
					<circle class="st5" cx="123.9" cy="3.5" r="0.5"/>
					<circle class="st5" cx="133.5" cy="3.5" r="0.5"/>
				</g>
				<g>
					<circle class="st5" cx="90.5" cy="8.6" r="0.5"/>
					<circle class="st5" cx="100.1" cy="8.6" r="0.5"/>
					<circle class="st5" cx="109.6" cy="8.6" r="0.5"/>
					<circle class="st5" cx="119.1" cy="8.6" r="0.5"/>
					<circle class="st5" cx="128.7" cy="8.6" r="0.5"/>
					<circle class="st5" cx="138.2" cy="8.6" r="0.5"/>
				</g>
				<g>
					<circle class="st5" cx="95.3" cy="13.7" r="0.5"/>
					<circle class="st5" cx="104.8" cy="13.7" r="0.5"/>
					<circle class="st5" cx="123.9" cy="13.7" r="0.5"/>
					<circle class="st5" cx="133.4" cy="13.7" r="0.5"/>
					<circle class="st5" cx="142.9" cy="13.7" r="0.5"/>
				</g>
				<g>
					<circle class="st5" cx="90.5" cy="18.7" r="0.5"/>
					<circle class="st5" cx="100" cy="18.7" r="0.5"/>
					<circle class="st5" cx="138.2" cy="18.7" r="0.5"/>
					<circle class="st5" cx="147.7" cy="18.7" r="0.5"/>
				</g>
			</g>
		</g>
		<g>
			<g>
				<path class="st8" d="M92.1,72c0.6,0,1.1,0.7,1.1,1.3c0,0.4-0.3,0.9-1,1c-1,0.2-1.8,0.6-2.8,0.6c-0.2,0-0.4,0-0.7,0
					c-1.1-0.2-2.2-0.7-3-1.4c-1.6-1.3-2.9-2.8-4.2-4.4c-1.7,2.3-3.5,4.5-5.4,6.7c-1.7,1.9-5.3,3.7-6.7,5.8c-0.3,0.4-0.6,0.6-1,0.6
					c-0.6,0-1.2-0.6-1.2-1.2c0-0.4,0.2-0.7,0.7-1.1c1.7-1.1,4.5-3.2,5.8-4.7c1.2-1.4,2.4-2.8,3.5-4.2c0.9-1.2,1.8-2.4,2.7-3.6
					c-1.4-1.7-4.1-4.8-5.9-4.8c-0.6,0-1.1,0.3-1.5,1c-0.2,0.3-0.4,0.4-0.7,0.4c-0.4,0-0.8-0.4-0.8-0.8c0-0.1,0-0.3,0.1-0.4
					c0.8-1.5,1.7-2.1,2.8-2.1c2.1,0,4.6,2.5,7.2,5.3c0.5-0.6,1-1.3,1.6-1.9c1.8-2,4.2-3.8,6.6-3.8c1.3,0,2.6,0.6,3.8,2
					c0.1,0.2,0.2,0.4,0.2,0.5c0,0.5-0.5,1-1.1,1c-0.2,0-0.4-0.1-0.6-0.3c-0.8-1-1.7-1.4-2.5-1.4c-2.4,0-4.9,3.1-6.6,5.3
					c2.6,2.9,5.1,5.6,7.1,5.6c0.6,0,1.1-0.2,1.5-0.7C91.6,72.1,91.9,72,92.1,72z"/>
				<g>
					<path class="st0" d="M109,60c0.6,0,1.1,0.3,1.1,0.8c0.1,3,0.3,6.1,0.3,9.3c0,0.2,0,0.3,0,0.5c0,0.1,0,0.3,0,0.4
						c0,2.9-0.3,5.7-0.9,8.4c-1.9,7.9-6,8.9-8,8.9c-0.6,0-1-0.1-1.1-0.1h-0.1c-1.7-0.1-7.1-1.1-7.1-5.3c0-0.7,0.1-1.3,0.5-2.2
						c0,0,0.1-0.1,0.1-0.2c1.8-3.6,6.7-6.6,10.9-8.6c0.2-0.1,0.4-0.1,0.6-0.1c0.5,0,1,0.4,1,0.9c0,0.2,0,0.4-0.3,0.6
						c0,0-0.1,0.1-0.2,0.1c-3.4,1.6-7.2,3.9-9.3,6.7c-0.6,0.8-1,1.6-1,2.4c0,1.1,0.7,2.2,2.3,2.9c1.1,0.5,2.4,0.8,3.7,0.8
						c1.4,0,2.7-0.4,3.4-1.6c2.9-4.6,3.4-9.9,3.4-15c0-1.4-0.1-2.8-0.1-4.2c0,0,0-0.1-0.1-0.1c0,0-0.1,0-0.1,0
						c-1.5,2.4-3.6,4.5-6.2,4.5c-0.2,0-0.2,0-0.4,0c0,0-0.3,0-0.4,0c-3-0.5-3.5-3.1-3.5-5.6c0-1.2,0.1-2.5,0.2-3.3
						c0-0.5,0.5-0.8,1-0.8c0.5,0,1,0.2,1,0.8c0,0.3-0.2,1.2-0.2,2.3c0,2.1,0.2,5.1,2,5.1c0,0,0,0,0,0c0.3,0,0.7-0.1,1.1-0.4
						c3-1.6,4.7-4.8,5.5-7.5C108.2,60.2,108.6,60,109,60z"/>
					<path class="st9" d="M109,60c0.6,0,1.1,0.3,1.1,0.8c0.1,3,0.3,6.1,0.3,9.3c0,0.2,0,0.3,0,0.5c0,0.1,0,0.3,0,0.4
						c0,2.9-0.3,5.7-0.9,8.4c-1.9,7.9-6,8.9-8,8.9c-0.6,0-1-0.1-1.1-0.1h-0.1c-1.7-0.1-7.1-1.1-7.1-5.3c0-0.7,0.1-1.3,0.5-2.2
						c0,0,0.1-0.1,0.1-0.2c1.8-3.6,6.7-6.6,10.9-8.6c0.2-0.1,0.4-0.1,0.6-0.1c0.5,0,1,0.4,1,0.9c0,0.2,0,0.4-0.3,0.6
						c0,0-0.1,0.1-0.2,0.1c-3.4,1.6-7.2,3.9-9.3,6.7c-0.6,0.8-1,1.6-1,2.4c0,1.1,0.7,2.2,2.3,2.9c1.1,0.5,2.4,0.8,3.7,0.8
						c1.4,0,2.7-0.4,3.4-1.6c2.9-4.6,3.4-9.9,3.4-15c0-1.4-0.1-2.8-0.1-4.2c0,0,0-0.1-0.1-0.1c0,0-0.1,0-0.1,0
						c-1.5,2.4-3.6,4.5-6.2,4.5c-0.2,0-0.2,0-0.4,0c0,0-0.3,0-0.4,0c-3-0.5-3.5-3.1-3.5-5.6c0-1.2,0.1-2.5,0.2-3.3
						c0-0.5,0.5-0.8,1-0.8c0.5,0,1,0.2,1,0.8c0,0.3-0.2,1.2-0.2,2.3c0,2.1,0.2,5.1,2,5.1c0,0,0,0,0,0c0.3,0,0.7-0.1,1.1-0.4
						c3-1.6,4.7-4.8,5.5-7.5C108.2,60.2,108.6,60,109,60z"/>
				</g>
				<path class="st8" d="M135,59.6c0.2-0.1,0.4-0.1,0.6-0.1c0.5,0,0.9,0.3,1.1,0.7c0.1,0.2,0.1,0.3,0.1,0.5c0,0.4-0.2,0.8-0.7,1.1
					c-0.7,0.4-0.6,0.3-1.4,0.6c0,0.2-0.1,0.4-0.3,0.5c-1.4,1.2-1.7,3.4-1.8,5.1c0,0.3,0,0.9,0,1.5c0,1.3,0.1,3,0.6,3.4
					c0.4,0.3,0.6,0.6,0.6,0.8c0,0.7-0.9,1.1-1.5,1.1H132c-0.4-0.1-0.6-0.3-0.6-0.8c0-0.1,0-0.2,0.1-0.3v-0.3c0-0.9-0.6-2.1-0.6-3
					c-0.1-0.6-0.1-1.2-0.1-1.9c0-0.6,0-1.1,0.1-1.6c0.2-1.2,0.4-2.5,1-3.7c-2.3,0.7-3.9,1-6.3,1.1c-0.4,1-1,2.2-1,3.3v0.7
					c0,0.1,0,0.2,0,0.3c0,0.6-0.1,1.4-0.1,2.2c0,0.9,0.1,1.7,0.7,2.1c0.1,0.1,0.2,0.2,0.3,0.3c0.1,0.2,0.2,0.4,0.2,0.6
					c0,0.4-0.3,0.8-0.6,1c-0.2,0.1-0.4,0.2-0.6,0.2c-0.4,0-0.7-0.2-0.9-0.6c-1-1.6-1-3.9-1-6.1V68c0-1.3,0.6-2.5,1.1-3.6
					c-1.8-0.1-3.9-0.1-5.5-0.6c-1.1,1-1.4,2.9-1.4,4.4c0,0.3,0,0.6,0.1,1c0.1,1.4,0.1,2.8,0.9,4c0.1,0.2,0.1,0.4,0.1,0.6
					c-0.1,0.6-0.7,1.1-1.4,1.1h-0.1c-0.5,0-0.9-0.3-0.9-1v-0.4c0-1.1-0.5-2.3-0.6-3.4c-0.1-0.7-0.2-1.5-0.2-2.3c0-0.3,0-0.7,0.1-1
					c0.2-1.6,0.6-2.7,0.8-3.9c-0.1-0.2-0.4-0.6-0.4-0.8c0-0.5,0.6-0.9,1.1-0.9c0.1,0,1.6,0.3,1.6,0.3c0.2,0.1,0.5,0.1,0.7,0.1
					c0.1,0,0.2,0.1,0.3,0.1c2,0.5,3.5,0.5,5.5,0.5h0.3c0.2-0.1,0.4-0.1,0.5,0c0.6,0,1.1,0,1.7-0.1c3.1-0.3,5.3-1,8.1-2.3
					C134.9,59.7,134.9,59.7,135,59.6z"/>
				<path class="st8" d="M148.8,72.9c-1.3,1.6-3.1,2.6-5,2.6c-1.2,0-2.4-0.4-3.5-1.5c-1.2-1.3-1.8-2.7-1.8-4.3
					c0-1.8,0.7-3.8,1.6-5.4l0.1-0.1c0,0,0-0.1,0-0.1c0-0.1,0.1-0.2,0.1-0.3c0.9-1.3,2.3-2,3.7-2.2c0-0.4,0-0.8,0-0.8
					c0-0.1,0-0.1,0-0.2c0-0.1,0-0.2,0-0.3c0-0.3,0.1-0.7,0.6-0.8c0,0,0.2,0,0.4,0c0.2,0,0.4,0,0.6,0.1c0.4,0.1,0.6,0.6,0.6,1.2
					c0,0.1,0,0.2,0,0.2c0,0.1-0.1,0.4-0.1,0.8c1,0.3,2,0.8,2.7,1.8c1.1,1.4,1.6,3,1.6,4.5C150.7,69.7,150,71.4,148.8,72.9z
					 M147.4,64.8c-0.4-0.4-0.9-0.6-1.4-0.8c-0.2,1.4-0.6,3.4-0.8,3.5c-0.1,0-0.2,0-0.3,0c-0.5,0-1.1-0.2-1.1-0.8c0,0,0-0.1,0-0.1
					c0.1-0.3,0.2-1.9,0.3-2.9c-0.6,0-1.1,0.2-1.7,0.9c0,0-0.1,0.1-0.1,0.2c-0.1,0.1-0.1,0.1-0.1,0.2c-0.1,0.1-0.1,0.2-0.1,0.2
					c-0.6,1.1-1.2,2.9-1.2,4.4c0,0.8,0,1.6,0.6,2.2c0.8,0.8,1.8,1.3,2.7,1.3c1.2,0,2.3-0.6,3.2-1.8c0.7-1,1.3-2.2,1.3-3.4
					C148.6,67.1,148.3,65.6,147.4,64.8z"/>
				<path class="st8" d="M164.7,62.7c0.9,0.9,1.2,2.2,1.2,3.7c0,2-0.7,4.2-1.7,5.6c-0.3,0.4-0.6,0.8-0.9,1.2
					c-1.2,1.2-2.7,1.7-4.2,1.7c-0.9,0-1.9-0.2-2.9-0.5l-0.1,0.1c0.2,6.3,0.8,12.4,3,18.3c0,0.1,0.1,0.3,0.1,0.4
					c0,0.2-0.1,0.4-0.2,0.6c-0.2,0.2-0.5,0.3-0.8,0.3c-0.3,0-0.5-0.1-0.7-0.2c-0.1-0.1-0.2-0.2-0.2-0.4c-1.2-3.2-3.3-11.9-3.3-19.4
					c0-4.5,0.8-8.6,2.9-10.7c1.1-1.1,2.4-1.6,4.2-1.6c0.4,0,0.7,0.1,1.1,0.1C163.3,61.8,164.1,62.2,164.7,62.7z M158.8,72.8
					c1.2,0,2.4-0.4,3.3-1.3l0.1-0.1c0.4-0.4,0.8-1,1.1-1.7c0.3-1.2,0.5-2.2,0.5-3c0-1.1-0.3-1.9-0.7-2.3l-0.1-0.1
					c-0.4-0.4-0.8-0.5-1.3-0.5c-1,0-2.2,0.6-3.2,1.6l-0.1,0.1l0,0c-0.7,0.7-1.2,1.4-1.4,2.3l-0.4,1.3c-0.2,1.1-0.4,2.1-0.4,3.2
					l0.1,0.1C157.1,72.6,157.9,72.8,158.8,72.8z"/>
			</g>
			<g>
				<path class="st0" d="M6.1,145.7c-0.3-0.5-0.5-1.1-0.5-1.8l0.2-12.8c0.2-6.2,0.2-11,0.2-14.4c0-11.9-0.7-21-2-27.3
					c0.8-1.2,1.7-1.8,2.9-1.8c1.9,0,3.6,0.4,5.2,1.3c1.6,0.8,2.8,2,3.9,3.4c2,3,3,6.3,3,9.9c0,3.8-0.8,7.2-2.4,10.2
					c-1.6,3-4,5.3-7.1,7l0.2,7.7l0.2,4c0.1,0.9,0.1,2.1,0.1,3.7c0.2,3.4,0.2,6.2,0.2,8.3c0,1-0.2,1.7-0.6,2.3
					c-0.4,0.6-1,0.8-1.9,0.8C6.9,146.4,6.4,146.2,6.1,145.7z M13.6,109.9c0.9-2.1,1.4-4.4,1.4-7v-0.1c0-1.2-0.1-2.6-0.4-4.4
					c-0.2-0.6-0.4-1.2-0.8-1.8c-0.4-0.6-0.6-1-0.7-1.1c-0.4-0.5-1.3-1.3-2.8-2.4l-2-1.5c0,2.6,0.2,6.6,0.5,12.1l0.5,12.1
					C11.2,113.9,12.6,111.9,13.6,109.9z"/>
				<path class="st0" d="M40.2,145.6c-0.4-0.3-0.6-0.8-0.6-1.5v-10c-0.7-0.5-1.9-0.9-3.7-1.2c-1.8-0.4-3.6-0.6-5.2-0.7
					c-0.6,1.1-1,2.4-1.2,3.9l-0.3,1.5c-0.1,0.4-0.2,1.1-0.5,2.4c-0.3,1.2-0.5,2.3-0.8,3.2c-0.3,0.9-0.6,1.6-0.9,2.1
					c-1.9,0-3.1-0.5-3.4-1.5c0.6-0.8,1.2-3.2,1.9-7.2l2.5-14c1.1-6.6,2.2-12.3,3.1-17c0.9-4.7,1.9-8.6,3-11.8
					c1.2-3.5,2.3-5.3,3.4-5.3c1.1,0,1.9,0.2,2.4,0.6c0,2,0.5,7,1.5,14.7c1,7.6,1.5,12.9,1.5,15.7c0,2.7,0.3,6.6,0.8,11.6
					c0.5,5.1,0.8,9.2,0.8,12.3c0,1.7-0.8,2.6-2.5,2.6C41.2,146.1,40.6,145.9,40.2,145.6z M39.5,129.4c-0.2-2.2-0.4-5-0.8-8.3
					c-1.2-11.5-1.8-18.6-1.8-21.2v-0.6c-0.5,0.5-1.2,2.8-2.1,6.9c-0.9,4.1-1.7,8.5-2.5,13.2c-0.8,4.7-1.2,7.8-1.2,9.3
					c2.1,0.6,4.4,0.9,6.8,0.9C38.4,129.6,38.9,129.6,39.5,129.4z"/>
				<path class="st0" d="M65.5,146.5c-0.3-0.5-0.5-1.1-0.5-1.8c0-10.6-0.2-19.6-0.6-27c-1.2-0.2-2.1-0.3-2.6-0.3
					c-2.1,0-3.6,0.2-4.5,0.5c0,2.9,0.2,7.2,0.7,12.9c0.4,6.1,0.6,10.4,0.6,13c0,0.5-0.2,1-0.5,1.4c-0.3,0.4-0.7,0.6-1.1,0.6
					c-0.7,0-1.3-1.2-1.8-3.5c-0.8-3.5-1.5-10.7-2-21.8c-0.4-7.5-0.5-15.5-0.5-24.1c-0.1-1.6-0.1-3.8-0.1-6.7c0-0.9,0.4-1.4,1.3-1.4
					c0.5,0,1,0.1,1.6,0.4c0.5,0.3,0.9,0.5,1.2,0.8c-0.2,1.6-0.3,3.5-0.3,5.7c0,2.1,0.1,4.7,0.3,7.8c0.2,3.5,0.2,6.2,0.2,7.9v1.4
					c-0.1,0.4-0.1,0.9-0.1,1.5c0,0.5,0,1.2,0.2,2c0.3,0,0.8,0,1.5-0.1c0.7-0.1,1.4-0.1,2.1-0.2c1.7-0.2,2.9-0.2,3.7-0.2
					c0-4.4-0.1-8.5-0.2-12.3L64,90.3v-2.1c0.7,0,1.2,0.1,1.8,0.3c0.5,0.2,0.9,0.5,1.1,0.9c0.5,0.6,0.7,1.5,0.8,2.9v1.8
					c0,4.4,0.3,12.8,0.8,25.1c0.5,11.2,0.7,19.6,0.7,25.2c0,0.7-0.2,1.4-0.6,1.9c-0.4,0.6-1,0.8-1.6,0.8
					C66.3,147.2,65.8,147,65.5,146.5z"/>
				<path class="st0" d="M82.7,145.5c-0.4-0.7-0.7-1.6-0.7-2.7c0-1.7,0.1-3.7,0.3-6.2l0.2-2l0.2-4c0-1.8-0.2-5.8-0.5-11.9
					c-0.4-6.2-0.5-10.1-0.5-11.9c0-0.2,0-0.4,0-0.9c0-0.4,0-1.1,0-2c0-1,0.1-2.3,0.1-3.7c0-3.7-0.3-6.1-0.8-7.1c-0.3,0-1,0.1-2,0.2
					l-2.1,0.2c-0.7,0-1.2-0.2-1.8-0.6c-0.5-0.4-0.8-0.9-0.8-1.5c0-0.6,0.6-1.1,1.8-1.6c1.8-0.6,4.8-1,9.1-1.3
					c1.7-0.1,2.8-0.2,3.1-0.2c0.6,0,1.2,0.2,1.7,0.6c0.5,0.4,0.8,0.9,0.8,1.5c0,0.6-0.2,1.1-0.6,1.5c-0.4,0.4-1,0.6-1.6,0.6
					l-1.4-0.1c-0.4,0-0.9-0.1-1.4-0.1h-0.8c0.4,3.5,0.5,6.6,0.5,9.4l-0.1,4.9c-0.1,1.5-0.1,3.1-0.1,5c0,2.4,0.1,5.4,0.3,8.8
					c0.3,4.2,0.4,7.2,0.4,8.8c0,1.9,0.1,4.2,0.3,6.9c0.2,2.7,0.3,5,0.3,6.9c0,2.5-0.7,3.7-2.2,3.7C83.8,146.6,83.2,146.2,82.7,145.5
					z"/>
				<path class="st0" d="M112.1,145.6c-0.4-0.3-0.6-0.8-0.6-1.5v-10c-0.7-0.5-1.9-0.9-3.7-1.2c-1.8-0.4-3.6-0.6-5.2-0.7
					c-0.6,1.1-1,2.4-1.2,3.9l-0.3,1.5c-0.1,0.4-0.2,1.1-0.5,2.4c-0.3,1.2-0.5,2.3-0.8,3.2c-0.3,0.9-0.6,1.6-0.9,2.1
					c-1.9,0-3.1-0.5-3.4-1.5c0.6-0.8,1.2-3.2,1.9-7.2l2.5-14c1.1-6.6,2.2-12.3,3.1-17c0.9-4.7,1.9-8.6,3-11.8
					c1.2-3.5,2.3-5.3,3.4-5.3c1.1,0,1.9,0.2,2.4,0.6c0,2,0.5,7,1.5,14.7c1,7.6,1.5,12.9,1.5,15.7c0,2.7,0.3,6.6,0.8,11.6
					c0.5,5.1,0.8,9.2,0.8,12.3c0,1.7-0.8,2.6-2.5,2.6C113.1,146.1,112.5,145.9,112.1,145.6z M111.5,129.4c-0.2-2.2-0.4-5-0.8-8.3
					c-1.2-11.5-1.8-18.6-1.8-21.2v-0.6c-0.5,0.5-1.2,2.8-2.1,6.9c-0.9,4.1-1.7,8.5-2.5,13.2c-0.8,4.7-1.2,7.8-1.2,9.3
					c2.1,0.6,4.4,0.9,6.8,0.9C110.4,129.6,110.9,129.6,111.5,129.4z"/>
				<path class="st0" d="M146.3,147.3c-0.3-0.5-0.5-1.2-0.5-2.2l-0.1-11.3c-0.1-1-0.1-2.6-0.1-4.8c-0.1-4.7-0.2-10.1-0.2-16V109
					c-0.5,2.4-1.2,5.9-2.4,10.3c-1.1,4.6-1.9,8.4-2.4,11.3v0.5l-0.2,1.5c-0.1,1.1-0.4,2.3-0.8,3.4c-0.5,1.2-1.3,1.8-2.4,1.8
					c-1.8,0-2.8-2.4-2.8-7.2c0-2.6-0.3-5.5-0.8-8.5c-0.5-3-1.4-6.8-2.6-11.2l-2.3-8.6l-0.2,9.2c0,2.8,0.1,8,0.4,15.7l0.2,5.2
					l0.2,10.5c0,1.1-0.4,2-1.1,2.9c-1.3,0-2.2-0.4-2.6-1.2c-0.5-0.8-0.7-1.9-0.7-3.5l0.2-6.3c0.2-2.8,0.2-4.8,0.2-6.2l-0.2-14.7
					l-0.2-14.8c0-2.2,0.1-5.5,0.2-9.9l2.1-1.2c0.4,0.1,0.8,0.3,1.2,0.9c0.4,0.5,0.9,1.4,1.4,2.6c1.3,3.2,2.9,9.5,5,18.9
					c0.3,1.3,0.5,2.4,0.6,3.3c0.6,3,1,5.2,1.3,6.7l1.1,5.9l0.5-2.5l1.5-6.3c0.8-3.7,1.5-6.9,2-9.6c0.5-2.7,1.1-5.7,1.6-8.9
					c0.6-3.8,0.9-7,1.1-9.5V89c0.1-0.7,0.4-1.2,0.9-1.6c0.5-0.4,1.1-0.6,1.8-0.6c0.5,0,0.9,0.2,1.2,0.6c0.4,0.4,0.5,0.8,0.5,1.3
					c0,6.1,0.2,15.3,0.7,27.4c0.3,6,0.4,11.8,0.5,17.5c0.1,2.6,0.2,5.9,0.2,9.9c0,1.2-0.3,2.2-0.9,3.1c-0.6,0.9-1.3,1.4-2.1,1.4
					C147,148,146.6,147.8,146.3,147.3z"/>
				<path class="st0" d="M173.1,144.7c-0.3-1.9-0.4-3.8-0.4-5.5c-0.2-3.9-0.3-8-0.3-12.3c-0.1-4.3-0.1-7.3-0.1-9.3
					c-1.1,0.5-2,1.2-2.6,2.1c-0.6,0.9-1.2,2-1.8,3.4c-0.9,2.5-1.4,5-1.4,7.4v1.9c0,0.3,0,1.2-0.1,2.8c-0.1,1.6-0.2,3.3-0.5,5.2
					c-0.3,2.5-1.6,4.5-3.8,5.7c-0.4,0.2-0.8,0.3-1.4,0.3c-0.7,0-1.2-0.2-1.6-0.5c-0.4-0.3-0.6-0.8-0.4-1.4c0.1-0.4,0.3-0.6,0.5-0.8
					c0.2-0.2,0.5-0.3,0.9-0.5c0.4-0.2,0.7-0.3,0.9-0.5c0.8-0.7,1.1-1.7,1.1-2.9l0.1-6.4c0.1-2.5,0.2-4.4,0.4-5.8
					c0.2-1.3,0.5-2.9,1.1-4.7c0.2-0.7,0.7-1.7,1.5-3.2c0.8-1.5,1.3-2.4,1.7-2.8c-2.7-1.3-4.6-3-5.6-5c-1-2-1.6-4.9-1.6-8.7
					c0-3,0.5-6,1.6-8.9c1.1-2.9,2.8-4.7,5.3-5.4l3.4-1.1c0.5-0.2,1-0.3,1.5-0.3c1.1,0,2.3,0.5,3.7,1.4c0.9,0.5,1.3,1.4,1.3,2.5
					c-0.3,4.3-0.5,7.5-0.5,9.7v2.8v6.3v7.9c0,5.4,0,9.5,0.2,12.2c0,2.1,0.1,3.9,0.2,5.6s0.2,3,0.2,4l0.2,4.2v0.5
					c0,0.7-0.1,1.1-0.3,1.3c-0.2,0.2-0.6,0.3-1.2,0.3C174,146.4,173.3,145.9,173.1,144.7z M172,91c-0.3,0.1-0.8,0.3-1.7,0.6
					c-0.9,0.3-1.7,0.7-2.3,1.1c-0.8,0.4-1.5,1.1-2.1,2.3c-0.6,1.1-1.1,2.4-1.5,3.6c-0.4,1.3-0.5,2.2-0.5,2.9l0.2,3.4
					c0,1.6,0,2.8,0.1,3.7c0.1,1.4,0.5,2.6,1.3,3.6c0.8,0.9,1.9,1.6,3.3,1.9c0.6,0.2,1.2,0.4,1.9,0.6c0.7,0.3,1.3,0.5,1.6,0.6L172,91
					z"/>
				<path class="st0" d="M196.6,145.8c-0.9-1-1.5-2.3-1.6-3.7c-0.3-2.1-0.5-5.6-0.6-10.3l-0.2-4.7c0-1.3-0.4-2.6-1.2-3.9
					c-0.8-1.2-1.9-2-3.1-2.2c0.4,10.6,0.5,18.4,0.5,23.5c0,1.4-0.5,2.1-1.5,2.1c-0.4,0-0.8-0.1-1.2-0.3c-1-0.5-1.4-1.2-1.2-2.2
					c0.4-3,0.6-6,0.6-8.9c0-2.1-0.1-4.4-0.2-6.7c-0.1-1.1-0.1-2.8-0.1-5.1c-0.1-0.7-0.1-1.8-0.1-3.4c-0.2-8.4-0.4-14.6-0.7-18.9
					c-0.2-2.5-0.5-5.8-1.1-9.8c-0.1-0.2-0.1-0.5-0.1-0.9c0-1.6,0.7-2.5,2-2.8c0.8-0.2,1.4,0.1,1.9,0.6c0.5,0.6,0.8,1.3,0.8,2.3
					c0,0.7,0.1,1.4,0.2,2.3c0,0.9,0.1,1.6,0.1,2.1l0.1,2.5c0.1,3,0.2,5.1,0.2,6.5v13.6c0.5-1.1,1-2.7,1.7-5c0.7-2.2,1.2-4.2,1.5-5.7
					c0.2-0.8,0.3-1.8,0.5-3c0.2-1.2,0.3-2.1,0.4-2.7c0.4-3.3,0.8-5.9,1.4-7.9c0.7-2.3,1.9-4,3.7-5.1c0.8-0.5,1.4-0.7,1.9-0.7
					c0.4,0,0.8,0.1,1.5,0.4c0.8,0.4,1.2,1.1,1.2,2.3c0,0.9-0.5,1.4-1.6,1.7c-2,0.4-3.4,1.7-4,4c-0.4,1.4-0.7,3-1,4.7
					c-0.4,2.2-0.7,3.7-0.9,4.4c-0.9,2.6-1.4,4.8-1.5,6.4c-0.2,1.4-0.4,2.6-0.7,3.6c-0.3,1-0.8,1.9-1.5,2.6c1.3,0.2,2.4,1.1,3.3,2.7
					c0.9,1.6,1.5,3.6,1.8,6.2c0.2,1.8,0.5,5.7,1,11.6l0.2,1.7c0.2,1.3,0.8,2,1.8,2.1c0.8,0.3,1.4,0.6,1.8,1c0.4,0.4,0.5,0.9,0.5,1.6
					c0,0.8-0.3,1.5-0.8,2c-0.6,0.5-1.3,0.8-2.1,0.8C198.6,147.4,197.5,146.8,196.6,145.8z"/>
				<path class="st0" d="M211.4,145.8c-0.6-0.7-0.9-1.4-0.8-2.2c0.2-2.6,0.2-5.2,0.2-7.9c0-2.3-0.1-5.9-0.2-10.7
					c-0.1-2.2-0.2-5.5-0.5-9.9c-0.1-0.9-0.1-2.1-0.2-3.8c-0.1-1.7-0.2-3.1-0.2-4.4c-0.1-0.9-0.1-2.2-0.1-3.9l0.1-7.8
					c0-0.5-0.1-1.1-0.2-1.9l-0.1-1.8c0-0.8,0.2-1.5,0.6-1.9c0.4-0.5,1-0.7,1.7-0.7c1.5,0,2.3,0.7,2.5,2.1c0.2,1.5,0.3,2.7,0.3,3.4
					c0,0.9-0.1,1.8-0.2,2.8c-0.3,1.9-0.4,3.6-0.4,5.1l0.1,2.3c0.2,4.7,0.3,9,0.3,12.9v9.1c0,1.6,0,3.9,0.2,7.1l0.5,0.1l0.9-3
					c1.5-5.1,3-9.8,4.4-14.1c0.7-2,1.5-5.1,2.3-9.2c0.4-1.8,0.7-3.3,1-4.4l3.8-13.8c0.4-0.7,0.8-1.2,1.3-1.5c0.5-0.3,1-0.5,1.5-0.4
					c0.6,0.2,1.2,0.6,1.8,1.3c0.6,0.7,0.8,1.4,0.8,2c-0.1,1.8-0.2,3.6-0.5,5.6c-0.5,6.4-0.7,10.4-0.8,12c-0.2,6.8-0.3,11.9-0.3,15.4
					c0,1.6,0.1,4.2,0.4,7.7c0.3,3.5,0.4,5.8,0.5,6.9l0.3,3.8c0.1,1.1-0.2,1.9-0.8,2.5c-0.6,0.6-1.3,0.9-2.2,0.9
					c-0.6,0-1-0.2-1.5-0.6c-0.4-0.4-0.6-0.9-0.7-1.6v-0.7l0.1-15.4v-2.8c-0.1-2.6-0.2-6.7-0.3-12.2v-3.1v-5c-0.1,0-0.2-0.1-0.4-0.1
					c-0.3,0.1-0.8,1.2-1.3,3.5c-0.6,2.3-1.1,4.5-1.6,6.8c-0.5,2.3-0.8,3.7-1,4.3c-0.5,2.2-0.7,3.4-0.8,3.7
					c-1.4,4.8-2.6,8.9-3.4,12.1c-0.9,3.2-1.6,6.5-2.1,9.8c-0.3,1.6-1.2,2.4-2.7,2.4C212.7,146.8,212,146.5,211.4,145.8z"/>
			</g>
		</g>
	</g>
</g>
</svg>
