<?xml version="1.0" encoding="utf-8"?>
<!-- Generator: Adobe Illustrator 23.1.0, SVG Export Plug-In . SVG Version: 6.00 Build 0)  -->
<svg version="1.1" xmlns="http://www.w3.org/2000/svg" xmlns:xlink="http://www.w3.org/1999/xlink" x="0px" y="0px"
	 viewBox="0 0 240 65.3" style="enable-background:new 0 0 240 65.3;" xml:space="preserve">
<style type="text/css">
	.st0{fill:#CCDAE7;}
	.st1{stroke:#CCDAE7;stroke-width:0.6441;stroke-miterlimit:10;}
	.st2{stroke:#CCDAE7;stroke-width:0.3089;stroke-miterlimit:10;}
	.st3{stroke:#CCDAE7;stroke-width:0.4119;stroke-miterlimit:10;}
	.st4{display:none;}
	.st5{display:inline;}
	.st6{display:inline;stroke:#CCDAE7;stroke-width:0.6441;stroke-miterlimit:10;}
	.st7{stroke:#CCDAE7;stroke-width:0.5019;stroke-miterlimit:10;}
	.st8{stroke:#CCDAE7;stroke-width:0.5284;stroke-miterlimit:10;}
	.st9{stroke:#CCDAE7;stroke-width:0.4988;stroke-miterlimit:10;}
	.st10{stroke:#CCDAE7;stroke-width:1.0039;stroke-linejoin:round;stroke-miterlimit:10;stroke-dasharray:0.2494,0.9975;}
	.st11{fill:none;stroke:#CCDAE7;stroke-width:1.0039;stroke-linejoin:round;stroke-miterlimit:10;stroke-dasharray:0.2494,0.9975;}
	.st12{fill:none;stroke:#CCDAE7;stroke-width:0.4563;stroke-miterlimit:10;}
	.st13{stroke:#CCDAE7;stroke-width:0.1255;stroke-miterlimit:10;}
	.st14{fill:none;stroke:#CCDAE7;stroke-width:0.251;stroke-miterlimit:10;}
</style>
<g id="Слой_1">
</g>
<g id="Слой_2">
	<g>
		<g>
			<g>
				<path class="st0" d="M4.7,53.9C4.3,49.7,6,45.2,8.8,41.8c2.8-3.4,6.5-6,10.5-7.9c3.9-2,8.2-3.2,12.4-4.1c4.3-0.8,8.6-1.1,13-1.3
					c4.3,0,8.7,0.4,13,1.1c4.3,0.9,8.5,2.1,12.5,4.1c3.9,1.9,7.6,4.6,10.4,8c2.8,3.4,4.4,7.9,4.1,12.1c-0.5-4.2-2.5-8.1-5.5-10.9
					c-2.9-2.9-6.5-5-10.3-6.5c-3.8-1.5-7.8-2.6-11.9-3.3c-4.1-0.6-8.2-0.9-12.4-0.9c-4.1,0-8.3,0.3-12.4,1
					c-4.1,0.7-8.1,1.8-11.9,3.3c-3.8,1.6-7.4,3.6-10.3,6.5C7.2,45.9,5.2,49.7,4.7,53.9z"/>
			</g>
			<g>
				<g>
					<g>
						<path class="st1" d="M15.1,25c-0.3-0.8-0.6-1.7-0.9-2.5c-0.1-0.2-0.2-0.4-0.3-0.6c-0.3-0.6-0.5-1.2-0.8-1.7
							c-0.9-1.8-1.7-3.2-2.1-3.8c-0.1-0.2-0.2-0.3-0.2-0.3s-0.1,0.1-0.2,0.3h0c-0.8,1.3-3.9,6.5-4.7,11.1c-0.1,0.7-0.2,1.4-0.2,2
							c0,0.5,0,1,0.1,1.5c0.1,1.1,0.3,2,0.7,2.7c0.8,1.6,2.1,2,3.6,2.1l0-1.1c-1.2-0.1-2.2-0.6-2.8-2c-0.3-0.7-0.4-1.6-0.5-2.9
							c0-0.1,0-0.2,0-0.3c0-1.2,0.3-2.5,0.7-3.8c1.1-3.6,3.2-7.1,3.2-7.1s0.6,1,1.4,2.5c0.3,0.7,0.7,1.5,1.1,2.3
							c0.2,0.6,0.5,1.2,0.7,1.8c0.1,0.2,0.1,0.4,0.2,0.6c0.4,1.2,0.6,2.5,0.6,3.6c0,1.8-0.3,3-0.8,3.8c-0.6,0.9-1.4,1.2-2.4,1.3
							l0,1.1c0.9-0.1,1.7-0.3,2.3-0.7c1.2-0.8,2-2.4,2-5.6C15.9,28.1,15.6,26.5,15.1,25z"/>
						<path class="st2" d="M14.7,29.6c0,3.9-1.4,4.9-3.2,5.1l-0.1-6l-0.1-3.3l-0.1-3.3l0-2.3c0-0.4-0.1-0.7-0.3-0.7h-0.2
							c-0.2,0-0.3,0.3-0.3,0.7L10.3,23l-0.1,3.4l-0.1,3.4l-0.1,4.8c-1.2-0.1-2.2-0.6-2.8-2c-0.3-0.7-0.4-1.6-0.5-2.9
							c0-0.1,0-0.2,0-0.3c0-1.2,0.3-2.5,0.7-3.8c1.1-3.6,3.2-7.1,3.2-7.1s0.6,1,1.4,2.5c0.3,0.7,0.7,1.5,1.1,2.3
							c0.3,0.8,0.6,1.6,0.9,2.5C14.5,27.2,14.7,28.5,14.7,29.6z"/>
					</g>
					<path class="st1" d="M11.6,40.3c0,0.4-0.3,0.7-0.6,0.7h-0.4c-0.3,0-0.6-0.3-0.6-0.7l0.1-4.5l0-1.1l0.1-4.8l0.1-3.4l0.1-3.4
						l0.1-3.2c0-0.4,0.1-0.7,0.3-0.7h0.2c0.2,0,0.3,0.3,0.3,0.7l0,2.3l0.1,3.3l0.1,3.3l0.1,6l0,1.1L11.6,40.3z"/>
					<g>
						<line class="st3" x1="11.2" y1="23" x2="14" y2="25.8"/>
						<line class="st3" x1="11.3" y1="26.4" x2="14.7" y2="29.8"/>
						<line class="st3" x1="11.4" y1="29.9" x2="14.2" y2="32.7"/>
					</g>
					<g>
						<line class="st3" x1="10.3" y1="23" x2="7.5" y2="25.8"/>
						<line class="st3" x1="10.3" y1="26.4" x2="6.9" y2="29.8"/>
						<line class="st3" x1="10.2" y1="29.9" x2="7.3" y2="32.7"/>
					</g>
				</g>
				<g>
					<g>
						<path class="st1" d="M82.9,24.6c-0.3-0.8-0.6-1.7-0.9-2.5c-0.1-0.2-0.2-0.4-0.3-0.6c-0.3-0.6-0.5-1.2-0.8-1.7
							c-0.9-1.8-1.7-3.2-2.1-3.8c-0.1-0.2-0.2-0.3-0.2-0.3s-0.1,0.1-0.2,0.3h0c-0.8,1.3-3.9,6.5-4.7,11.1c-0.1,0.7-0.2,1.4-0.2,2
							c0,0.5,0,1,0.1,1.5c0.1,1.1,0.3,2,0.7,2.7c0.8,1.6,2.1,2,3.6,2.1l0-1.1c-1.2-0.1-2.2-0.6-2.8-2c-0.3-0.7-0.4-1.6-0.5-2.9
							c0-0.1,0-0.2,0-0.3c0-1.2,0.3-2.5,0.7-3.8c1.1-3.6,3.2-7.1,3.2-7.1s0.6,1,1.4,2.5c0.3,0.7,0.7,1.5,1.1,2.3
							c0.2,0.6,0.5,1.2,0.7,1.8c0.1,0.2,0.1,0.4,0.2,0.6c0.4,1.2,0.6,2.5,0.6,3.6c0,1.8-0.3,3-0.8,3.8c-0.6,0.9-1.4,1.2-2.4,1.3
							l0,1.1c0.9-0.1,1.7-0.3,2.3-0.7c1.2-0.8,2-2.4,2-5.6C83.7,27.7,83.4,26.1,82.9,24.6z"/>
						<path class="st2" d="M82.6,29.1c0,3.9-1.4,4.9-3.2,5.1l-0.1-6l-0.1-3.3l-0.1-3.3l0-2.3c0-0.4-0.1-0.7-0.3-0.7h-0.2
							c-0.2,0-0.3,0.3-0.3,0.7l-0.1,3.2L78.1,26l-0.1,3.4L78,34.3c-1.2-0.1-2.2-0.6-2.8-2c-0.3-0.7-0.4-1.6-0.5-2.9
							c0-0.1,0-0.2,0-0.3c0-1.2,0.3-2.5,0.7-3.8c1.1-3.6,3.2-7.1,3.2-7.1s0.6,1,1.4,2.5c0.3,0.7,0.7,1.5,1.1,2.3
							c0.3,0.8,0.6,1.6,0.9,2.5C82.3,26.8,82.6,28,82.6,29.1z"/>
					</g>
					<path class="st1" d="M79.5,39.9c0,0.4-0.3,0.7-0.6,0.7h-0.4c-0.3,0-0.6-0.3-0.6-0.7l0.1-4.5l0-1.1l0.1-4.8l0.1-3.4l0.1-3.4
						l0.1-3.2c0-0.4,0.1-0.7,0.3-0.7h0.2c0.2,0,0.3,0.3,0.3,0.7l0,2.3l0.1,3.3l0.1,3.3l0.1,6l0,1.1L79.5,39.9z"/>
					<g>
						<line class="st3" x1="79.1" y1="22.6" x2="81.9" y2="25.4"/>
						<line class="st3" x1="79.1" y1="26" x2="82.5" y2="29.4"/>
						<line class="st3" x1="79.2" y1="29.4" x2="82.1" y2="32.3"/>
					</g>
					<g>
						<line class="st3" x1="78.2" y1="22.6" x2="75.4" y2="25.4"/>
						<line class="st3" x1="78.1" y1="26" x2="74.7" y2="29.4"/>
						<line class="st3" x1="78.1" y1="29.4" x2="75.2" y2="32.3"/>
					</g>
				</g>
				<g class="st4">
					<g class="st5">
						<path class="st1" d="M79,27.3c-0.3-0.8-0.6-1.7-0.9-2.5c-0.1-0.2-0.2-0.4-0.3-0.6c-0.3-0.6-0.5-1.2-0.8-1.7
							c-0.9-1.8-1.7-3.2-2.1-3.8c-0.1-0.2-0.2-0.3-0.2-0.3s-0.1,0.1-0.2,0.3h0c-0.8,1.3-3.9,6.5-4.7,11.1c-0.1,0.7-0.2,1.4-0.2,2
							c0,0.5,0,1,0.1,1.5c0.1,1.1,0.3,2,0.7,2.7c0.8,1.6,2.1,2,3.6,2.1l0-1.1c-1.2-0.1-2.2-0.6-2.8-2c-0.3-0.7-0.4-1.6-0.5-2.9
							c0-0.1,0-0.2,0-0.3c0-1.2,0.3-2.5,0.7-3.8c1.1-3.6,3.2-7.1,3.2-7.1s0.6,1,1.4,2.5c0.3,0.7,0.7,1.5,1.1,2.3
							c0.2,0.6,0.5,1.2,0.7,1.8c0.1,0.2,0.1,0.4,0.2,0.6c0.4,1.2,0.6,2.5,0.6,3.6c0,1.8-0.3,3-0.8,3.8c-0.6,0.9-1.4,1.2-2.4,1.3
							l0,1.1c0.9-0.1,1.7-0.3,2.3-0.7c1.2-0.8,2-2.4,2-5.6C79.9,30.4,79.5,28.8,79,27.3z"/>
						<path class="st1" d="M78.7,31.8c0,3.9-1.4,4.9-3.2,5.1l-0.1-6l-0.1-3.3l-0.1-3.3l0-2.3c0-0.4-0.1-0.7-0.3-0.7h-0.2
							c-0.2,0-0.3,0.3-0.3,0.7l-0.1,3.2l-0.1,3.4l-0.1,3.4L74.1,37c-1.2-0.1-2.2-0.6-2.8-2c-0.3-0.7-0.4-1.6-0.5-2.9
							c0-0.1,0-0.2,0-0.3c0-1.2,0.3-2.5,0.7-3.8c1.1-3.6,3.2-7.1,3.2-7.1s0.6,1,1.4,2.5c0.3,0.7,0.7,1.5,1.1,2.3
							c0.3,0.8,0.6,1.6,0.9,2.5C78.4,29.5,78.7,30.7,78.7,31.8z"/>
					</g>
					<path class="st6" d="M75.6,42.6c0,0.4-0.3,0.7-0.6,0.7h-0.4c-0.3,0-0.6-0.3-0.6-0.7l0.1-4.5l0-1.1l0.1-4.8l0.1-3.4l0.1-3.4
						l0.1-3.2c0-0.4,0.1-0.7,0.3-0.7h0.2c0.2,0,0.3,0.3,0.3,0.7l0,2.3l0.1,3.3l0.1,3.3l0.1,6l0,1.1L75.6,42.6z"/>
					<g class="st5">
						<line class="st1" x1="75.2" y1="25.3" x2="78" y2="28.1"/>
						<line class="st1" x1="75.2" y1="28.7" x2="78.6" y2="32.1"/>
						<line class="st1" x1="75.3" y1="32.2" x2="78.2" y2="35"/>
					</g>
					<g class="st5">
						<line class="st1" x1="74.3" y1="25.3" x2="71.5" y2="28.1"/>
						<line class="st1" x1="74.2" y1="28.7" x2="70.8" y2="32.1"/>
						<line class="st1" x1="74.2" y1="32.2" x2="71.3" y2="35"/>
					</g>
				</g>
			</g>
			<g id="House_1_">
				<path class="st7" d="M56.1,37.1h-23c-0.6,0-1.1-0.5-1.1-1.1V19.2c0-0.6,0.5-1.1,1.1-1.1h23c0.6,0,1.1,0.5,1.1,1.1V36
					C57.3,36.6,56.8,37.1,56.1,37.1z"/>
				<path class="st7" d="M45.8,24.9h-2.3c-0.4,0-0.8-0.4-0.8-0.8v-3c0-0.4,0.4-0.8,0.8-0.8h2.3c0.4,0,0.8,0.4,0.8,0.8v3
					C46.6,24.5,46.2,24.9,45.8,24.9z"/>
				<path class="st7" d="M38,32.9h-2.3c-0.4,0-0.8-0.4-0.8-0.8v-3c0-0.4,0.4-0.8,0.8-0.8H38c0.4,0,0.8,0.4,0.8,0.8v3
					C38.8,32.5,38.5,32.9,38,32.9z"/>
				<path class="st7" d="M53.9,32.9h-2.3c-0.4,0-0.8-0.4-0.8-0.8v-3c0-0.4,0.4-0.8,0.8-0.8h2.3c0.4,0,0.8,0.4,0.8,0.8v3
					C54.7,32.6,54.3,32.9,53.9,32.9z"/>
				<path class="st8" d="M45.5,37h-1.7c-0.6,0-1.1-0.5-1.1-1.1v-6.5c0-0.6,0.5-1.1,1.1-1.1h1.7c0.6,0,1.1,0.5,1.1,1.1v6.5
					C46.6,36.5,46.1,37,45.5,37z"/>
				<g>
					<rect x="32.1" y="23.9" class="st9" width="24.9" height="3"/>
					<line class="st10" x1="32.1" y1="24.6" x2="57" y2="24.6"/>
				</g>
				<g>
					<line class="st11" x1="48.5" y1="34.6" x2="57" y2="34.6"/>
					<line class="st11" x1="32.1" y1="34.6" x2="40.9" y2="34.6"/>
					<path class="st12" d="M40.5,37.1h-8c-0.3,0-0.5-0.2-0.5-0.5v-2.1c0-0.3,0.2-0.5,0.5-0.5h8c0.3,0,0.5,0.2,0.5,0.5v2.1
						C41,36.9,40.8,37.1,40.5,37.1z"/>
					<path class="st12" d="M57,37.1h-8c-0.3,0-0.5-0.2-0.5-0.5v-2.1c0-0.3,0.2-0.5,0.5-0.5h8c0.3,0,0.5,0.2,0.5,0.5v2.1
						C57.4,36.9,57.2,37.1,57,37.1z"/>
				</g>
				<g>
					<circle class="st7" cx="57.4" cy="22.5" r="1.2"/>
					<circle class="st7" cx="57.4" cy="25.1" r="1.2"/>
					<circle class="st7" cx="57.4" cy="27.7" r="1.2"/>
					<circle class="st7" cx="57.4" cy="30.4" r="1.2"/>
					<circle class="st7" cx="57.4" cy="33" r="1.2"/>
					<circle class="st7" cx="57.4" cy="35.6" r="1.2"/>
					<circle class="st13" cx="57.4" cy="25.1" r="0.5"/>
					<circle class="st13" cx="57.4" cy="27.7" r="0.5"/>
					<circle class="st13" cx="57.4" cy="30.4" r="0.5"/>
					<circle class="st13" cx="57.4" cy="33" r="0.5"/>
					<circle class="st13" cx="57.4" cy="35.6" r="0.5"/>
				</g>
				<g>
					<circle class="st7" cx="32.4" cy="22.5" r="1.2"/>
					<circle class="st7" cx="32.4" cy="25.1" r="1.2"/>
					<circle class="st7" cx="32.4" cy="27.7" r="1.2"/>
					<circle class="st7" cx="32.4" cy="30.4" r="1.2"/>
					<circle class="st7" cx="32.4" cy="33" r="1.2"/>
					<circle class="st7" cx="32.4" cy="35.6" r="1.2"/>
					<circle class="st13" cx="32.4" cy="25.1" r="0.5"/>
					<circle class="st13" cx="32.4" cy="27.7" r="0.5"/>
					<circle class="st13" cx="32.4" cy="30.4" r="0.5"/>
					<circle class="st13" cx="32.4" cy="33" r="0.5"/>
					<circle class="st13" cx="32.4" cy="35.7" r="0.5"/>
				</g>
				<path class="st7" d="M59.2,22.6h-7.7c-0.2,0-0.4-0.1-0.6-0.2l-5.5-4.1c-0.5-0.3-1.1-0.3-1.6,0l-5.4,4c-0.2,0.2-0.4,0.2-0.7,0.2
					h-7.6c-0.5,0-0.9-0.6-0.7-1l3.2-6.5c0.4-0.8,1.2-1.3,2.1-1.3h19.9c0.9,0,1.7,0.5,2.1,1.3l3.2,6.5C60,22.1,59.7,22.6,59.2,22.6z"
					/>
				<g>
					<g>
						<path d="M59.2,22.6h-7.7c-0.2,0-0.4-0.1-0.6-0.2l-5.5-4.1c-0.5-0.3-1.1-0.3-1.6,0l-5.4,4c-0.2,0.2-0.4,0.2-0.7,0.2h-7.6
							c-0.5,0-0.9-0.6-0.7-1l3.2-6.5c0.4-0.8,1.2-1.3,2.1-1.3h19.9c0.9,0,1.7,0.5,2.1,1.3l3.2,6.5C60,22.1,59.7,22.6,59.2,22.6z"/>
						<path class="st0" d="M45.5,18.1C45.5,18.1,45.5,18.1,45.5,18.1c-0.3-0.2-0.6-0.3-0.9-0.3c-0.3,0-0.6,0.1-0.9,0.3c0,0,0,0,0,0
							l-1.8,1.3l-0.2,0.1c0.1,0.1,0.1,0.1,0.2,0.2h0l0.2-0.2h0c0.1,0,0.2-0.1,0.3-0.3c0,0,0,0,0,0l0.5-0.4l0,0
							c0-0.1,0.1-0.1,0.1-0.1c0,0,0,0,0,0l0.3-0.2c0.1,0,0.2,0.1,0.2,0.2l0.3-0.3c0.4-0.3,0.9-0.3,1.3,0l0.1,0.1c0,0,0.1,0,0.1,0
							c0.3,0,0.5,0.3,0.7,0.6c0,0,0,0,0,0l0.5,0.4c0.1,0,0.1-0.1,0.2-0.2c0-0.1,0.1-0.1,0.1-0.2L45.5,18.1z M45.5,18.1
							C45.5,18.1,45.5,18.1,45.5,18.1c-0.3-0.2-0.6-0.3-0.9-0.3c-0.3,0-0.6,0.1-0.9,0.3c0,0,0,0,0,0l-1.8,1.3l-0.2,0.1
							c0.1,0.1,0.1,0.1,0.2,0.2h0l0.2-0.2h0c0.1,0,0.2-0.1,0.3-0.3c0,0,0,0,0,0l0.5-0.4l0,0c0-0.1,0.1-0.1,0.1-0.1c0,0,0,0,0,0
							l0.3-0.2l0.4-0.3c0.1,0,0.1-0.1,0.2-0.1c0.1-0.1,0.2-0.1,0.3-0.1c0.2,0,0.4,0,0.6,0c0.1,0,0.2,0.1,0.3,0.1
							c0.1,0,0.1,0.1,0.2,0.1l1.5,1.1c0-0.1,0.1-0.1,0.1-0.2L45.5,18.1z M45.5,18.1C45.5,18.1,45.5,18.1,45.5,18.1
							c-0.3-0.2-0.6-0.3-0.9-0.3c-0.3,0-0.6,0.1-0.9,0.3c0,0,0,0,0,0l-1.8,1.3l-0.2,0.1c0.1,0.1,0.1,0.1,0.2,0.2h0l0.2-0.2h0
							c0.1,0,0.2-0.1,0.3-0.3c0,0,0,0,0,0l0.5-0.4l0,0c0-0.1,0.1-0.1,0.1-0.1c0,0,0,0,0,0l0.3-0.2l0.4-0.3c0.1,0,0.1-0.1,0.2-0.1
							c0.1-0.1,0.2-0.1,0.3-0.1c0.2,0,0.4,0,0.6,0c0.1,0,0.2,0.1,0.3,0.1c0.1,0,0.1,0.1,0.2,0.1l1.5,1.1c0-0.1,0.1-0.1,0.1-0.2
							L45.5,18.1z M47,19.2l-1.5-1.1c0,0,0,0,0,0c-0.3-0.2-0.6-0.3-0.9-0.3c-0.3,0-0.6,0.1-0.9,0.3c0,0,0,0,0,0l-1.8,1.3l-0.2,0.1
							l-2.3,1.7c0,0.1,0.1,0.1,0.1,0.2c0,0,0,0,0,0.1l2.4-1.8h0l0.2-0.2h0l0.3-0.3c0,0,0,0,0,0l0.5-0.4l0,0c0-0.1,0.1-0.1,0.1-0.1
							c0,0,0,0,0,0l0.3-0.2l0.4-0.3c0.1,0,0.1-0.1,0.2-0.1c0.1-0.1,0.2-0.1,0.3-0.1c0.2,0,0.4,0,0.6,0c0.1,0,0.2,0.1,0.3,0.1
							c0.1,0,0.1,0.1,0.2,0.1l1.5,1.1l0.2,0.1c0.1-0.1,0.1-0.1,0.1-0.2L47,19.2z M60,21.5l-1.3-2.7l-0.1-0.2l-0.6-1.2L58,17.3
							l-0.1-0.2l-1-2.2c-0.1-0.3-0.3-0.5-0.5-0.7c-0.1-0.1-0.1-0.1-0.2-0.1c-0.4-0.4-1-0.6-1.6-0.6H34.6c-0.7,0-1.4,0.3-1.9,0.9
							c-0.1,0.1-0.1,0.1-0.2,0.2c-0.1,0.1-0.2,0.2-0.2,0.4l-1,2c0,0,0,0,0,0l-0.2,0.5l-0.7,1.5l-0.1,0.2l-1.1,2.3
							c-0.1,0.1-0.1,0.3-0.1,0.5c0,0.2,0.1,0.3,0.1,0.5c0.2,0.3,0.5,0.5,0.8,0.5h7.6c0.3,0,0.6-0.1,0.8-0.3l0.9-0.7l0.2-0.1l2.6-2
							l0.3-0.3l0.8-0.6l0.2-0.1l0.3-0.3c0.4-0.3,0.9-0.3,1.3,0l0.1,0.1l0.8,0.6l0.5,0.4l0.2,0.2l2.4,1.8l0.2,0.1l0.2,0.1l0.3,0.3
							c0,0,0,0,0,0l0.8,0.6c0.2,0.2,0.5,0.2,0.7,0.2h7.7c0.2,0,0.3-0.1,0.5-0.1c0,0,0,0,0,0c0.1-0.1,0.2-0.2,0.3-0.3
							C60.2,22.1,60.2,21.8,60,21.5z M59.6,22.1C59.6,22.1,59.6,22.1,59.6,22.1c-0.1,0.2-0.2,0.3-0.4,0.3h-7.7
							c-0.2,0-0.3-0.1-0.4-0.1l0,0l-0.6-0.4l-0.7-0.5l-0.2-0.1l-1.8-1.4l-0.3-0.2v0l-0.2-0.2L47,19.2l-1.5-1.1c0,0,0,0,0,0
							c-0.3-0.2-0.6-0.3-0.9-0.3c-0.3,0-0.6,0.1-0.9,0.3c0,0,0,0,0,0l-1.8,1.3l-0.2,0.1l-2.3,1.7l-0.2,0.1l-0.9,0.7
							c-0.2,0.1-0.4,0.2-0.5,0.2h-7.6c-0.2,0-0.3-0.1-0.4-0.2c-0.1-0.1-0.1-0.3,0-0.5l0.3-0.5L30,21l0.6-1.3l0.1-0.2l1.1-2.4
							c0,0,0,0,0,0l0.1-0.2l0.2-0.4l0.1-0.2l0.5-1.1c0-0.1,0.1-0.1,0.1-0.2c0-0.1,0.1-0.1,0.1-0.2c0.2-0.3,0.5-0.5,0.8-0.6
							c0.2-0.1,0.5-0.2,0.8-0.2h19.9c0,0,0.1,0,0.1,0c0.5,0,0.9,0.2,1.2,0.5c0.1,0,0.1,0.1,0.2,0.2c0.2,0.2,0.3,0.3,0.4,0.5l0.9,1.8
							c0,0,0,0,0,0l0.1,0.3l0.1,0.2l0.7,1.5l0.1,0.2l1.2,2.5c0,0,0,0.1,0,0.1c0,0,0,0,0,0C59.6,21.9,59.6,22,59.6,22.1z M45.5,18.1
							C45.5,18.1,45.5,18.1,45.5,18.1c-0.3-0.2-0.6-0.3-0.9-0.3c-0.3,0-0.6,0.1-0.9,0.3c0,0,0,0,0,0l-1.8,1.3l-0.2,0.1
							c0.1,0.1,0.1,0.1,0.2,0.2h0l0.2-0.2h0c0.1,0,0.2-0.1,0.3-0.3c0,0,0,0,0,0l0.5-0.4l0,0c0-0.1,0.1-0.1,0.1-0.1c0,0,0,0,0,0
							l0.3-0.2l0.4-0.3c0.1,0,0.1-0.1,0.2-0.1c0.1-0.1,0.2-0.1,0.3-0.1c0.2,0,0.4,0,0.6,0c0.1,0,0.2,0.1,0.3,0.1
							c0.1,0,0.1,0.1,0.2,0.1l1.5,1.1c0-0.1,0.1-0.1,0.1-0.2L45.5,18.1z M45.5,18.1C45.5,18.1,45.5,18.1,45.5,18.1
							c-0.3-0.2-0.6-0.3-0.9-0.3c-0.3,0-0.6,0.1-0.9,0.3c0,0,0,0,0,0l-1.8,1.3l-0.2,0.1c0.1,0.1,0.1,0.1,0.2,0.2h0l0.2-0.2h0
							c0.1,0,0.2-0.1,0.3-0.3c0,0,0,0,0,0l0.5-0.4l0,0c0-0.1,0.1-0.1,0.1-0.1c0,0,0,0,0,0l0.3-0.2l0.4-0.3c0.1,0,0.1-0.1,0.2-0.1
							c0.1-0.1,0.2-0.1,0.3-0.1c0.2,0,0.4,0,0.6,0c0.1,0,0.2,0.1,0.3,0.1c0.1,0,0.1,0.1,0.2,0.1l1.5,1.1c0-0.1,0.1-0.1,0.1-0.2
							L45.5,18.1z M45.5,18.1C45.5,18.1,45.5,18.1,45.5,18.1c-0.3-0.2-0.6-0.3-0.9-0.3c-0.3,0-0.6,0.1-0.9,0.3c0,0,0,0,0,0l-1.8,1.3
							l-0.2,0.1c0.1,0.1,0.1,0.1,0.2,0.2h0l0.2-0.2h0c0.1,0,0.2-0.1,0.3-0.3c0,0,0,0,0,0l0.5-0.4l0,0c0-0.1,0.1-0.1,0.1-0.1
							c0,0,0,0,0,0l0.3-0.2c0.1,0,0.2,0.1,0.2,0.2l0.3-0.3c0.4-0.3,0.9-0.3,1.3,0l0.1,0.1c0,0,0.1,0,0.1,0c0.3,0,0.5,0.3,0.7,0.6
							c0,0,0,0,0,0l0.5,0.4c0.1,0,0.1-0.1,0.2-0.2c0-0.1,0.1-0.1,0.1-0.2L45.5,18.1z M45.5,18.1C45.5,18.1,45.5,18.1,45.5,18.1
							c-0.3-0.2-0.6-0.3-0.9-0.3c-0.3,0-0.6,0.1-0.9,0.3c0,0,0,0,0,0l-1.8,1.3l-0.2,0.1c0.1,0.1,0.1,0.1,0.2,0.2h0l0.2-0.2h0
							c0.1,0,0.2-0.1,0.3-0.3c0,0,0,0,0,0l0.5-0.4l0,0c0-0.1,0.1-0.1,0.1-0.1c0,0,0,0,0,0l0.3-0.2c0.1,0,0.2,0.1,0.2,0.2l0.3-0.3
							c0.4-0.3,0.9-0.3,1.3,0l0.1,0.1c0,0,0.1,0,0.1,0c0.3,0,0.5,0.3,0.7,0.6c0,0,0,0,0,0l0.5,0.4c0.1,0,0.1-0.1,0.2-0.2
							c0-0.1,0.1-0.1,0.1-0.2L45.5,18.1z"/>
					</g>
					<g>
						<g>
							<path class="st0" d="M56.3,14.2c-0.1,0.1-0.1,0.1-0.2,0.2c0,0-0.1,0.1-0.1,0.1c0,0,0,0.1,0,0.1c-0.1,0.2-0.3,0.5-0.6,0.5
								c-0.3,0-0.5-0.3-0.7-0.6c-0.2-0.3-0.3-0.4-0.5-0.4c-0.2,0-0.3,0.2-0.5,0.4c-0.2,0.3-0.3,0.6-0.7,0.6c-0.3,0-0.5-0.3-0.7-0.6
								c-0.2-0.3-0.3-0.4-0.5-0.4s-0.3,0.2-0.5,0.4c-0.1,0.3-0.3,0.6-0.7,0.6c-0.3,0-0.5-0.3-0.7-0.6c-0.2-0.3-0.3-0.4-0.5-0.4
								c-0.2,0-0.3,0.2-0.5,0.4c-0.1,0.3-0.3,0.6-0.7,0.6c-0.3,0-0.5-0.3-0.7-0.6c-0.2-0.3-0.3-0.4-0.5-0.4c-0.2,0-0.3,0.2-0.5,0.4
								c-0.1,0.3-0.3,0.6-0.7,0.6c-0.3,0-0.5-0.3-0.7-0.6c-0.2-0.3-0.3-0.4-0.5-0.4c-0.2,0-0.3,0.2-0.5,0.4
								c-0.1,0.3-0.3,0.6-0.7,0.6c-0.3,0-0.5-0.3-0.7-0.6c-0.2-0.3-0.3-0.4-0.5-0.4c-0.2,0-0.3,0.2-0.5,0.4
								c-0.1,0.3-0.3,0.6-0.7,0.6c-0.3,0-0.5-0.3-0.7-0.6c-0.2-0.3-0.3-0.4-0.5-0.4s-0.3,0.2-0.5,0.4c-0.1,0.3-0.3,0.6-0.7,0.6
								c-0.3,0-0.5-0.3-0.7-0.6c-0.2-0.3-0.3-0.4-0.5-0.4c-0.2,0-0.3,0.2-0.5,0.4c-0.1,0.3-0.3,0.6-0.7,0.6c-0.3,0-0.5-0.3-0.7-0.6
								c-0.2-0.3-0.3-0.4-0.5-0.4c-0.2,0-0.3,0.2-0.5,0.4c-0.1,0.3-0.3,0.6-0.7,0.6c-0.3,0-0.5-0.3-0.7-0.6
								c-0.2-0.3-0.3-0.4-0.5-0.4c-0.2,0-0.3,0.2-0.5,0.4c-0.1,0.3-0.3,0.6-0.7,0.6c-0.1,0-0.2,0-0.3-0.1c-0.1-0.1-0.1-0.1-0.2-0.2
								c-0.1-0.1-0.1-0.2-0.1-0.2c0.1-0.1,0.1-0.1,0.2-0.2c0,0,0,0.1,0,0.1c0,0.1,0.1,0.1,0.1,0.2c0.1,0.1,0.1,0.2,0.2,0.2
								c0.1,0.1,0.1,0.1,0.2,0.1c0.2,0,0.3-0.2,0.5-0.4c0.1-0.1,0.1-0.2,0.2-0.3c0.1-0.2,0.3-0.3,0.5-0.3c0.1,0,0.2,0,0.3,0.1
								c0.1,0.1,0.2,0.3,0.3,0.4c0.2,0.3,0.3,0.4,0.5,0.4s0.3-0.2,0.5-0.4c0.1-0.2,0.2-0.3,0.3-0.4c0.1-0.1,0.2-0.1,0.3-0.1
								c0.1,0,0.2,0,0.3,0.1c0.1,0.1,0.2,0.3,0.3,0.4c0.2,0.3,0.3,0.4,0.5,0.4c0.2,0,0.3-0.2,0.5-0.4c0.1-0.2,0.2-0.3,0.3-0.4
								c0.1-0.1,0.2-0.1,0.3-0.1s0.2,0,0.3,0.1c0.1,0.1,0.2,0.3,0.3,0.4c0.2,0.3,0.3,0.4,0.5,0.4c0.2,0,0.3-0.2,0.5-0.4
								c0.1-0.2,0.2-0.3,0.3-0.4c0.1-0.1,0.2-0.1,0.3-0.1c0.1,0,0.2,0,0.3,0.1c0.1,0.1,0.2,0.3,0.3,0.4c0.2,0.3,0.3,0.4,0.5,0.4
								c0.2,0,0.3-0.2,0.5-0.4c0.1-0.2,0.2-0.3,0.3-0.4c0.1-0.1,0.2-0.1,0.3-0.1c0.1,0,0.2,0,0.3,0.1c0.1,0.1,0.2,0.3,0.3,0.4
								c0.2,0.3,0.3,0.4,0.5,0.4s0.3-0.2,0.5-0.4c0.1-0.2,0.2-0.3,0.3-0.4c0.1-0.1,0.2-0.1,0.3-0.1c0.1,0,0.2,0,0.3,0.1
								c0.1,0.1,0.2,0.3,0.3,0.4c0.2,0.3,0.3,0.4,0.5,0.4s0.3-0.2,0.5-0.4c0.1-0.2,0.2-0.3,0.3-0.4c0.1-0.1,0.2-0.1,0.3-0.1
								c0.1,0,0.2,0,0.3,0.1c0.1,0.1,0.2,0.3,0.3,0.4c0.2,0.3,0.3,0.4,0.5,0.4s0.3-0.2,0.5-0.4c0.1-0.2,0.2-0.3,0.3-0.4
								c0.1-0.1,0.2-0.1,0.3-0.1c0.1,0,0.2,0,0.3,0.1c0.1,0.1,0.2,0.3,0.3,0.4c0.2,0.3,0.3,0.4,0.5,0.4s0.3-0.2,0.5-0.4
								c0.1-0.2,0.2-0.3,0.3-0.4c0.1-0.1,0.2-0.1,0.3-0.1c0.1,0,0.2,0,0.3,0.1c0.1,0.1,0.2,0.3,0.3,0.4c0.2,0.3,0.3,0.4,0.5,0.4
								c0.2,0,0.3-0.2,0.5-0.4c0.1-0.2,0.2-0.3,0.3-0.4c0.1-0.1,0.2-0.1,0.3-0.1c0.1,0,0.2,0,0.3,0.1c0.1,0.1,0.2,0.3,0.3,0.4
								c0.2,0.3,0.3,0.4,0.5,0.4c0.2,0,0.3-0.2,0.4-0.4l0,0c0-0.1,0.1-0.1,0.1-0.2c0-0.1,0.1-0.1,0.2-0.2
								C56.2,14.1,56.3,14.1,56.3,14.2z"/>
						</g>
						<g>
							<path class="st0" d="M58,17.3c-0.1,0.1-0.1,0.1-0.2,0.1c0,0-0.1,0-0.1,0c0,0-0.1,0-0.1,0c-0.3-0.1-0.4-0.3-0.5-0.5
								c-0.2-0.3-0.3-0.4-0.5-0.4s-0.3,0.2-0.5,0.4c-0.1,0.3-0.3,0.6-0.7,0.6c-0.3,0-0.5-0.3-0.7-0.6c-0.2-0.3-0.3-0.4-0.5-0.4
								c-0.2,0-0.3,0.2-0.5,0.4c-0.2,0.3-0.3,0.6-0.7,0.6c-0.3,0-0.5-0.3-0.7-0.6c-0.2-0.3-0.3-0.4-0.5-0.4s-0.3,0.2-0.5,0.4
								c-0.1,0.3-0.3,0.6-0.7,0.6c-0.3,0-0.5-0.3-0.7-0.6c-0.2-0.3-0.3-0.4-0.5-0.4c-0.2,0-0.3,0.2-0.5,0.4
								c-0.1,0.3-0.3,0.6-0.7,0.6c-0.3,0-0.5-0.3-0.7-0.6c-0.2-0.3-0.3-0.4-0.5-0.4c-0.2,0-0.3,0.2-0.5,0.4
								c-0.1,0.3-0.3,0.6-0.7,0.6c-0.3,0-0.5-0.3-0.7-0.6c-0.2-0.3-0.3-0.4-0.5-0.4c-0.2,0-0.3,0.2-0.5,0.4
								c-0.1,0.3-0.3,0.6-0.7,0.6c-0.3,0-0.5-0.3-0.7-0.6c-0.2-0.3-0.3-0.4-0.5-0.4c-0.2,0-0.3,0.2-0.5,0.4
								c-0.1,0.3-0.3,0.6-0.7,0.6c-0.3,0-0.5-0.3-0.7-0.6c-0.2-0.3-0.3-0.4-0.5-0.4s-0.3,0.2-0.5,0.4c-0.1,0.3-0.3,0.6-0.7,0.6
								c-0.3,0-0.5-0.3-0.7-0.6c-0.2-0.3-0.3-0.4-0.5-0.4c-0.2,0-0.3,0.2-0.5,0.4c-0.1,0.3-0.3,0.6-0.7,0.6c-0.3,0-0.5-0.3-0.7-0.6
								c-0.2-0.3-0.3-0.4-0.5-0.4c-0.2,0-0.3,0.2-0.5,0.4c-0.1,0.3-0.3,0.6-0.7,0.6c-0.3,0-0.5-0.3-0.7-0.6
								c-0.2-0.3-0.3-0.4-0.5-0.4c-0.2,0-0.3,0.2-0.5,0.4c-0.1,0.3-0.3,0.6-0.7,0.6c-0.3,0-0.5-0.3-0.7-0.6
								c-0.1-0.3-0.2-0.4-0.4-0.4c0,0,0,0,0,0c-0.2,0-0.3,0.1-0.4,0.3c0,0,0,0,0,0c0,0,0,0,0,0c0,0,0,0.1,0,0.1
								c-0.1,0.2-0.3,0.5-0.5,0.5l0.2-0.5c0,0,0,0,0,0c0-0.1,0.1-0.1,0.1-0.2c0.1-0.2,0.3-0.5,0.5-0.5c0,0,0.1,0,0.1,0
								c0.1,0,0.1,0,0.1,0c0.3,0.1,0.4,0.3,0.5,0.5c0.2,0.3,0.3,0.4,0.5,0.4s0.3-0.2,0.5-0.4c0.1-0.3,0.3-0.6,0.7-0.6
								c0.3,0,0.5,0.3,0.7,0.6c0.2,0.3,0.3,0.4,0.5,0.4s0.3-0.2,0.5-0.4c0.1-0.3,0.3-0.6,0.7-0.6c0.3,0,0.5,0.3,0.7,0.6
								c0.2,0.3,0.3,0.4,0.5,0.4c0.2,0,0.3-0.2,0.5-0.4c0.1-0.3,0.3-0.6,0.7-0.6c0.3,0,0.5,0.3,0.7,0.6c0.2,0.3,0.3,0.4,0.5,0.4
								c0.2,0,0.3-0.2,0.5-0.4c0.1-0.3,0.3-0.6,0.7-0.6c0.3,0,0.5,0.3,0.7,0.6c0.2,0.3,0.3,0.4,0.5,0.4c0.2,0,0.3-0.2,0.5-0.4
								c0.1-0.3,0.3-0.6,0.7-0.6c0.3,0,0.5,0.3,0.7,0.6c0.2,0.3,0.3,0.4,0.5,0.4s0.3-0.2,0.5-0.4c0.1-0.3,0.3-0.6,0.7-0.6
								c0.3,0,0.5,0.3,0.7,0.6c0.2,0.3,0.3,0.4,0.5,0.4s0.3-0.2,0.5-0.4c0.1-0.3,0.3-0.6,0.7-0.6c0.3,0,0.5,0.3,0.7,0.6
								c0.2,0.3,0.3,0.4,0.5,0.4s0.3-0.2,0.5-0.4c0.1-0.3,0.3-0.6,0.7-0.6c0.3,0,0.5,0.3,0.7,0.6c0.2,0.3,0.3,0.4,0.5,0.4
								s0.3-0.2,0.5-0.4c0.1-0.3,0.3-0.6,0.7-0.6c0.3,0,0.5,0.3,0.7,0.6c0.2,0.3,0.3,0.4,0.5,0.4c0.2,0,0.3-0.2,0.5-0.4
								c0.1-0.3,0.3-0.6,0.7-0.6c0.3,0,0.5,0.3,0.7,0.6c0.2,0.3,0.3,0.4,0.5,0.4c0.2,0,0.3-0.2,0.5-0.4c0.1-0.3,0.3-0.6,0.7-0.6
								c0.3,0,0.5,0.3,0.7,0.6c0,0.1,0.1,0.1,0.1,0.2c0,0,0,0,0,0c0.1,0.2,0.2,0.3,0.4,0.3c0,0,0,0,0,0c0.1,0,0.2-0.1,0.2-0.1
								L58,17.3z"/>
						</g>
						<g>
							<path d="M40.5,21.6"/>
							<path d="M41,21.2"/>
							<path class="st0" d="M43.6,18.8l-0.2,0.1c-0.1-0.1-0.1-0.1-0.2-0.1c0,0-0.1,0-0.1,0c0,0,0,0,0,0c-0.1,0-0.1,0.1-0.1,0.1l0,0
								c-0.1,0.1-0.1,0.2-0.2,0.3c-0.1,0.1-0.1,0.2-0.2,0.3l-0.3,0.3c0,0-0.1,0-0.1,0c-0.1,0-0.2,0-0.2-0.1c-0.1,0-0.1-0.1-0.2-0.2
								c-0.1-0.1-0.2-0.2-0.2-0.3c-0.2-0.3-0.3-0.4-0.5-0.4s-0.3,0.2-0.5,0.4c-0.1,0.3-0.3,0.6-0.7,0.6c-0.3,0-0.5-0.3-0.7-0.6
								c-0.2-0.3-0.3-0.4-0.5-0.4c-0.2,0-0.3,0.2-0.5,0.4c-0.1,0.3-0.3,0.6-0.7,0.6c-0.3,0-0.5-0.3-0.7-0.6
								c-0.2-0.3-0.3-0.4-0.5-0.4c-0.2,0-0.3,0.2-0.5,0.4c-0.1,0.3-0.3,0.6-0.7,0.6c-0.3,0-0.5-0.3-0.7-0.6
								c-0.2-0.3-0.3-0.4-0.5-0.4c-0.2,0-0.3,0.2-0.5,0.4c-0.1,0.3-0.3,0.6-0.7,0.6c-0.3,0-0.5-0.3-0.7-0.6
								c-0.2-0.3-0.3-0.4-0.5-0.4c-0.2,0-0.3,0.2-0.5,0.4c-0.1,0.3-0.3,0.6-0.7,0.6c-0.2,0-0.3-0.1-0.4-0.2
								c-0.1-0.1-0.1-0.1-0.2-0.2c0-0.1-0.1-0.1-0.1-0.2c0,0,0-0.1-0.1-0.1l0.1-0.2c0.1,0.1,0.1,0.2,0.1,0.2c0,0,0,0,0,0
								c0.1,0.1,0.1,0.2,0.2,0.3c0.1,0.1,0.2,0.2,0.3,0.2c0.2,0,0.3-0.2,0.5-0.4c0.1-0.3,0.3-0.6,0.7-0.6c0.3,0,0.5,0.3,0.7,0.6
								c0.2,0.3,0.3,0.4,0.5,0.4s0.3-0.2,0.5-0.4c0.1-0.3,0.3-0.6,0.7-0.6c0.3,0,0.5,0.3,0.7,0.6c0.2,0.3,0.3,0.4,0.5,0.4
								s0.3-0.2,0.5-0.4c0.1-0.3,0.3-0.6,0.7-0.6c0.3,0,0.5,0.3,0.7,0.6c0.2,0.3,0.3,0.4,0.5,0.4c0.2,0,0.3-0.2,0.5-0.4
								c0.1-0.3,0.3-0.6,0.7-0.6c0.3,0,0.5,0.3,0.7,0.6c0.2,0.3,0.3,0.4,0.5,0.4c0.2,0,0.3-0.2,0.5-0.4c0.1-0.3,0.3-0.6,0.7-0.6
								c0.3,0,0.5,0.3,0.7,0.6c0.1,0.1,0.1,0.2,0.2,0.3c0.1,0.1,0.2,0.1,0.3,0.1c0.1,0,0.2-0.1,0.3-0.3c0-0.1,0.1-0.1,0.1-0.2
								c0.1-0.3,0.3-0.6,0.7-0.6c0.1,0,0.1,0,0.2,0C43.5,18.7,43.6,18.7,43.6,18.8z"/>
							<path class="st0" d="M46.1,19.1C46.1,19.2,46.1,19.2,46.1,19.1l-0.8-0.5c0,0,0.1,0,0.1,0C45.8,18.6,45.9,18.9,46.1,19.1z"/>
							<path class="st0" d="M58.8,18.8c-0.1,0-0.2,0-0.2,0.1c-0.1,0.1-0.1,0.1-0.2,0.2c0,0,0,0.1-0.1,0.1c-0.1,0.3-0.3,0.6-0.7,0.6
								c-0.3,0-0.5-0.3-0.7-0.6c-0.2-0.3-0.3-0.4-0.5-0.4s-0.3,0.2-0.5,0.4c-0.1,0.3-0.3,0.6-0.7,0.6c-0.3,0-0.5-0.3-0.7-0.6
								c-0.2-0.3-0.3-0.4-0.5-0.4c-0.2,0-0.3,0.2-0.5,0.4c-0.2,0.3-0.3,0.6-0.7,0.6c-0.3,0-0.5-0.3-0.7-0.6
								c-0.2-0.3-0.3-0.4-0.5-0.4s-0.3,0.2-0.5,0.4c-0.1,0.3-0.3,0.6-0.7,0.6c-0.3,0-0.5-0.3-0.7-0.6c-0.2-0.3-0.3-0.4-0.5-0.4
								c-0.2,0-0.3,0.2-0.5,0.4c-0.1,0.3-0.3,0.6-0.7,0.6c-0.3,0-0.5-0.3-0.7-0.6c-0.2-0.3-0.3-0.4-0.5-0.4c-0.2,0-0.3,0.2-0.5,0.4
								c0,0,0,0.1,0,0.1c0,0.1-0.1,0.1-0.1,0.2c-0.1,0.1-0.1,0.1-0.2,0.2l-0.2-0.2c0.1,0,0.1-0.1,0.2-0.2c0-0.1,0.1-0.1,0.1-0.2
								c0,0,0,0,0-0.1c0.1-0.3,0.3-0.6,0.7-0.6c0.3,0,0.5,0.3,0.7,0.6c0.2,0.3,0.3,0.4,0.5,0.4s0.3-0.2,0.5-0.4
								c0.1-0.3,0.3-0.6,0.7-0.6c0.3,0,0.5,0.3,0.7,0.6c0.2,0.3,0.3,0.4,0.5,0.4s0.3-0.2,0.5-0.4c0.1-0.3,0.3-0.6,0.7-0.6
								c0.3,0,0.5,0.3,0.7,0.6c0.2,0.3,0.3,0.4,0.5,0.4c0.2,0,0.3-0.2,0.5-0.4c0.1-0.3,0.3-0.6,0.7-0.6c0.3,0,0.5,0.3,0.7,0.6
								c0.2,0.3,0.3,0.4,0.5,0.4c0.2,0,0.3-0.2,0.5-0.4c0.1-0.3,0.3-0.6,0.7-0.6c0.3,0,0.5,0.3,0.7,0.6c0.2,0.3,0.3,0.4,0.5,0.4
								c0.2,0,0.3-0.2,0.5-0.4c0-0.1,0.1-0.2,0.1-0.2c0-0.1,0.1-0.2,0.2-0.2c0.1-0.1,0.1-0.1,0.2-0.1L58.8,18.8z"/>
						</g>
						<g>
							<path class="st0" d="M39.5,21.6c0.1,0.1,0.1,0.2,0.1,0.2l-0.2,0.1c-0.1-0.1-0.1-0.1-0.1-0.2c0,0,0-0.1,0-0.1
								c0-0.1-0.1-0.1-0.1-0.1c-0.1-0.2-0.2-0.3-0.4-0.3c-0.2,0-0.3,0.2-0.5,0.4c-0.1,0.3-0.3,0.6-0.7,0.6c-0.3,0-0.5-0.3-0.7-0.6
								c-0.2-0.3-0.3-0.4-0.5-0.4c-0.2,0-0.3,0.2-0.5,0.4c-0.1,0.3-0.3,0.6-0.7,0.6c-0.3,0-0.5-0.3-0.7-0.6
								c-0.2-0.3-0.3-0.4-0.5-0.4c-0.2,0-0.3,0.2-0.5,0.4c-0.1,0.3-0.3,0.6-0.7,0.6c-0.3,0-0.5-0.3-0.7-0.6
								c-0.2-0.3-0.3-0.4-0.5-0.4c-0.2,0-0.3,0.2-0.5,0.4c-0.1,0.3-0.3,0.6-0.7,0.6s-0.5-0.3-0.7-0.6c-0.2-0.3-0.3-0.4-0.5-0.4v-0.2
								c0,0,0.1,0,0.1,0c0.3,0,0.4,0.3,0.6,0.5c0.2,0.3,0.3,0.4,0.5,0.4c0.2,0,0.3-0.2,0.5-0.4c0.1-0.3,0.3-0.6,0.7-0.6
								c0.3,0,0.5,0.3,0.7,0.6c0.2,0.3,0.3,0.4,0.5,0.4s0.3-0.2,0.5-0.4c0.1-0.3,0.3-0.6,0.7-0.6c0.3,0,0.5,0.3,0.7,0.6
								c0.2,0.3,0.3,0.4,0.5,0.4s0.3-0.2,0.5-0.4c0.1-0.3,0.3-0.6,0.7-0.6c0.3,0,0.5,0.3,0.7,0.6c0.2,0.3,0.3,0.4,0.5,0.4
								c0.2,0,0.3-0.2,0.5-0.4c0.1-0.3,0.3-0.6,0.7-0.6c0.3,0,0.4,0.2,0.6,0.4C39.4,21.4,39.4,21.4,39.5,21.6
								C39.4,21.5,39.4,21.5,39.5,21.6z"/>
							<path class="st0" d="M59.9,22v0.2c0,0,0,0-0.1,0c-0.1,0-0.2,0-0.2-0.1c-0.2-0.1-0.3-0.3-0.4-0.5c-0.2-0.3-0.3-0.4-0.5-0.4
								s-0.3,0.2-0.5,0.4c-0.1,0.3-0.3,0.6-0.7,0.6c-0.3,0-0.5-0.3-0.7-0.6c-0.2-0.3-0.3-0.4-0.5-0.4s-0.3,0.2-0.5,0.4
								c-0.1,0.3-0.3,0.6-0.7,0.6c-0.3,0-0.5-0.3-0.7-0.6c-0.2-0.3-0.3-0.4-0.5-0.4c-0.2,0-0.3,0.2-0.5,0.4
								c-0.2,0.3-0.3,0.6-0.7,0.6c-0.3,0-0.5-0.3-0.7-0.6c-0.2-0.3-0.3-0.4-0.5-0.4s-0.3,0.2-0.5,0.4c-0.1,0.3-0.3,0.6-0.7,0.6
								c-0.3,0-0.5-0.2-0.6-0.4c0,0,0-0.1-0.1-0.1c-0.2-0.3-0.3-0.4-0.5-0.4c-0.1,0-0.1,0-0.2,0.1c-0.1,0-0.1,0.1-0.2,0.2
								c0,0.1-0.1,0.1-0.1,0.2c0,0,0,0,0,0l-0.2-0.1c0-0.1,0.1-0.1,0.1-0.2c0.1-0.1,0.1-0.1,0.2-0.2c0.1-0.1,0.2-0.1,0.4-0.1
								c0.3,0,0.5,0.3,0.7,0.6c0.2,0.3,0.3,0.4,0.5,0.4s0.3-0.2,0.5-0.4c0.1-0.3,0.3-0.6,0.7-0.6c0.3,0,0.5,0.3,0.7,0.6
								c0.2,0.3,0.3,0.4,0.5,0.4c0.2,0,0.3-0.2,0.5-0.4c0.1-0.3,0.3-0.6,0.7-0.6c0.3,0,0.5,0.3,0.7,0.6c0.2,0.3,0.3,0.4,0.5,0.4
								c0.2,0,0.3-0.2,0.5-0.4c0.1-0.3,0.3-0.6,0.7-0.6c0.3,0,0.5,0.3,0.7,0.6c0.2,0.3,0.3,0.4,0.5,0.4c0.2,0,0.3-0.2,0.5-0.4
								c0.1-0.3,0.3-0.6,0.7-0.6c0.3,0,0.5,0.3,0.7,0.6c0.1,0.1,0.1,0.2,0.2,0.3c0,0,0,0,0,0C59.7,21.9,59.8,22,59.9,22L59.9,22z"/>
						</g>
					</g>
					<g>
						<circle class="st14" cx="34.3" cy="14.7" r="0.3"/>
						<circle class="st14" cx="38.8" cy="14.7" r="0.3"/>
						<circle class="st14" cx="43.2" cy="14.7" r="0.3"/>
						<circle class="st14" cx="47.7" cy="14.7" r="0.3"/>
						<circle class="st14" cx="52.1" cy="14.7" r="0.3"/>
					</g>
					<g>
						<circle class="st14" cx="32.1" cy="17.1" r="0.3"/>
						<circle class="st14" cx="36.6" cy="17.1" r="0.3"/>
						<circle class="st14" cx="41" cy="17.1" r="0.3"/>
						<circle class="st14" cx="45.4" cy="17.1" r="0.3"/>
						<circle class="st14" cx="49.9" cy="17.1" r="0.3"/>
						<circle class="st14" cx="54.3" cy="17.1" r="0.3"/>
					</g>
					<g>
						<circle class="st14" cx="34.3" cy="19.5" r="0.3"/>
						<circle class="st14" cx="38.8" cy="19.5" r="0.3"/>
						<circle class="st14" cx="47.6" cy="19.5" r="0.3"/>
						<circle class="st14" cx="52.1" cy="19.5" r="0.3"/>
						<circle class="st14" cx="56.5" cy="19.5" r="0.3"/>
					</g>
					<g>
						<circle class="st14" cx="32.1" cy="21.8" r="0.3"/>
						<circle class="st14" cx="36.5" cy="21.8" r="0.3"/>
						<circle class="st14" cx="54.3" cy="21.8" r="0.3"/>
						<circle class="st14" cx="58.8" cy="21.8" r="0.3"/>
					</g>
				</g>
			</g>
		</g>
		<g>
			<g>
				<path class="st0" d="M29.7,46.5c0.3,0,0.6,0.4,0.6,0.7c0,0.3-0.1,0.5-0.5,0.6c-0.6,0.1-1,0.3-1.6,0.3c-0.1,0-0.2,0-0.4,0
					c-0.6-0.1-1.2-0.4-1.7-0.8c-0.9-0.7-1.6-1.6-2.4-2.5c-1,1.3-2,2.5-3,3.7c-0.9,1.1-2.9,2.1-3.7,3.3c-0.2,0.2-0.3,0.3-0.5,0.3
					c-0.3,0-0.7-0.3-0.7-0.7c0-0.2,0.1-0.4,0.4-0.6c0.9-0.6,2.5-1.8,3.3-2.6c0.7-0.8,1.3-1.6,2-2.4c0.5-0.7,1-1.3,1.5-2
					c-0.8-1-2.3-2.7-3.3-2.7c-0.3,0-0.6,0.2-0.8,0.5c-0.1,0.2-0.2,0.2-0.4,0.2c-0.2,0-0.5-0.2-0.5-0.5c0-0.1,0-0.2,0.1-0.3
					c0.4-0.8,1-1.2,1.6-1.2c1.2,0,2.6,1.4,4,3c0.3-0.4,0.6-0.7,0.9-1c1-1.1,2.4-2.1,3.7-2.1c0.7,0,1.5,0.3,2.1,1.1
					c0.1,0.1,0.1,0.2,0.1,0.3c0,0.3-0.3,0.6-0.6,0.6c-0.1,0-0.3-0.1-0.4-0.2c-0.5-0.5-0.9-0.8-1.4-0.8c-1.3,0-2.7,1.7-3.7,3
					c1.5,1.6,2.9,3.1,4,3.1c0.3,0,0.6-0.1,0.9-0.4C29.5,46.6,29.6,46.5,29.7,46.5z"/>
				<path class="st0" d="M38.6,40.1c0.3,0,0.6,0.2,0.6,0.6c0,2.1,0.2,4.3,0.2,6.5c0,0.1,0,0.2,0,0.4c0,0.1,0,0.2,0,0.3
					c0,2-0.1,4-0.5,5.9c-1.1,5.5-3.4,6.2-4.5,6.2c-0.3,0-0.5,0-0.6-0.1h0c-1,0-4-0.8-4-3.7c0-0.5,0.1-0.9,0.3-1.5c0,0,0-0.1,0-0.1
					c1-2.5,3.8-4.6,6.1-6c0.1,0,0.2-0.1,0.3-0.1c0.3,0,0.6,0.3,0.6,0.6c0,0.2,0,0.3-0.2,0.4c0,0-0.1,0-0.1,0.1
					c-1.9,1.1-4.1,2.7-5.2,4.7c-0.3,0.6-0.6,1.1-0.6,1.7c0,0.8,0.4,1.6,1.3,2c0.6,0.3,1.4,0.6,2.1,0.6c0.8,0,1.5-0.3,1.9-1.1
					c1.6-3.2,1.9-6.9,1.9-10.5c0-1,0-2,0-2.9c0,0,0-0.1,0,0c0,0,0,0,0,0c-0.8,1.7-2,3.2-3.5,3.2c-0.1,0-0.1,0-0.2,0c0,0-0.2,0-0.2,0
					c-1.7-0.3-2-2.2-2-3.9c0-0.9,0.1-1.7,0.1-2.3c0-0.4,0.3-0.6,0.6-0.6c0.3,0,0.6,0.2,0.6,0.5c0,0.2-0.1,0.9-0.1,1.6
					c0,1.5,0.1,3.5,1.1,3.5c0,0,0,0,0,0c0.2,0,0.4-0.1,0.6-0.2c1.7-1.1,2.7-3.4,3.1-5.3C38.1,40.2,38.3,40.1,38.6,40.1z"/>
				<path class="st0" d="M53.8,39.6c0.1-0.1,0.2-0.1,0.3-0.1c0.3,0,0.5,0.2,0.6,0.4c0,0.1,0.1,0.2,0.1,0.3c0,0.2-0.1,0.5-0.4,0.6
					c-0.4,0.2-0.3,0.2-0.8,0.4c0,0.1-0.1,0.2-0.2,0.3c-0.8,0.7-1,1.9-1,2.9c0,0.2,0,0.5,0,0.9c0,0.7,0,1.7,0.3,1.9
					c0.2,0.2,0.3,0.3,0.3,0.5c0,0.4-0.5,0.6-0.9,0.6h-0.1c-0.2,0-0.4-0.2-0.4-0.4c0-0.1,0-0.1,0-0.2v-0.2c0-0.5-0.3-1.2-0.3-1.7
					c0-0.3,0-0.7,0-1.1c0-0.3,0-0.6,0-0.9c0.1-0.7,0.2-1.4,0.6-2c-1.3,0.4-2.2,0.6-3.5,0.6c-0.2,0.5-0.6,1.2-0.6,1.8v0.4
					c0,0.1,0,0.1,0,0.2c0,0.4-0.1,0.8-0.1,1.2c0,0.5,0.1,0.9,0.4,1.2c0.1,0,0.1,0.1,0.2,0.2c0.1,0.1,0.1,0.2,0.1,0.3
					c0,0.2-0.2,0.5-0.3,0.6c-0.1,0.1-0.2,0.1-0.4,0.1c-0.2,0-0.4-0.1-0.5-0.3c-0.5-0.9-0.6-2.2-0.6-3.4v-0.2c0-0.7,0.3-1.4,0.6-2
					c-1,0-2.2-0.1-3.1-0.4c-0.6,0.6-0.8,1.6-0.8,2.5c0,0.2,0,0.4,0,0.5c0.1,0.8,0.1,1.6,0.5,2.3c0.1,0.1,0.1,0.2,0.1,0.3
					c0,0.4-0.4,0.6-0.8,0.6h0c-0.3,0-0.5-0.2-0.5-0.6v-0.2c0-0.6-0.3-1.3-0.4-1.9c-0.1-0.4-0.1-0.8-0.1-1.3c0-0.2,0-0.4,0-0.6
					c0.1-0.9,0.4-1.5,0.5-2.2c0-0.1-0.2-0.4-0.2-0.5c0-0.3,0.3-0.5,0.6-0.5c0,0,0.9,0.2,0.9,0.2c0.1,0,0.3,0.1,0.4,0.1
					c0.1,0,0.1,0,0.2,0.1c1.1,0.3,2,0.3,3.1,0.3h0.2c0.1,0,0.2,0,0.3,0c0.3,0,0.6,0,0.9,0c1.7-0.2,3-0.5,4.5-1.3
					C53.7,39.6,53.7,39.6,53.8,39.6z"/>
				<path class="st0" d="M61.5,47c-0.7,0.9-1.7,1.4-2.8,1.4c-0.7,0-1.4-0.2-1.9-0.9c-0.7-0.7-1-1.5-1-2.4c0-1,0.4-2.1,0.9-3l0-0.1
					c0,0,0,0,0,0c0-0.1,0.1-0.1,0.1-0.2c0.5-0.7,1.3-1.1,2.1-1.2c0-0.2,0-0.4,0-0.5c0,0,0-0.1,0-0.1c0-0.1,0-0.1,0-0.2
					c0-0.2,0-0.4,0.4-0.5c0,0,0.1,0,0.2,0c0.1,0,0.2,0,0.3,0c0.2,0.1,0.4,0.3,0.4,0.7c0,0,0,0.1,0,0.1c0,0.1,0,0.2-0.1,0.4
					c0.6,0.2,1.1,0.5,1.5,1c0.6,0.8,0.9,1.7,0.9,2.5C62.5,45.3,62.2,46.2,61.5,47z M60.7,42.5c-0.2-0.2-0.5-0.3-0.8-0.4
					c-0.1,0.8-0.3,1.9-0.5,2c0,0-0.1,0-0.2,0c-0.3,0-0.6-0.1-0.6-0.4c0,0,0,0,0-0.1c0-0.2,0.1-1.1,0.1-1.6c-0.4,0-0.6,0.1-1,0.5
					c0,0,0,0.1,0,0.1c0,0,0,0.1-0.1,0.1c0,0.1-0.1,0.1-0.1,0.1c-0.3,0.6-0.7,1.6-0.7,2.5c0,0.4,0,0.9,0.4,1.2c0.5,0.4,1,0.7,1.5,0.7
					c0.6,0,1.3-0.3,1.8-1c0.4-0.6,0.7-1.2,0.7-1.9C61.4,43.8,61.2,42.9,60.7,42.5z"/>
				<path class="st0" d="M70.4,41.3c0.5,0.5,0.7,1.3,0.7,2c0,1.1-0.4,2.4-0.9,3.2c-0.2,0.2-0.3,0.5-0.5,0.7
					c-0.7,0.7-1.5,0.9-2.4,0.9c-0.5,0-1.1-0.1-1.6-0.3l-0.1,0.1c0.1,3.5,0.5,7,1.7,10.2c0,0.1,0,0.2,0,0.2c0,0.1,0,0.2-0.1,0.3
					c-0.1,0.1-0.3,0.2-0.5,0.2c-0.2,0-0.3,0-0.4-0.1c-0.1-0.1-0.1-0.1-0.1-0.2c-0.7-1.8-1.8-6.7-1.8-10.9c0-2.5,0.4-4.8,1.6-6
					c0.6-0.6,1.4-0.9,2.4-0.9c0.2,0,0.4,0,0.6,0C69.6,40.8,70.1,41,70.4,41.3z M67.1,47c0.7,0,1.4-0.2,1.9-0.7l0.1,0
					c0.2-0.2,0.5-0.6,0.6-0.9c0.2-0.7,0.3-1.2,0.3-1.7c0-0.6-0.2-1-0.4-1.3l-0.1-0.1c-0.2-0.2-0.5-0.3-0.7-0.3
					c-0.6,0-1.3,0.4-1.8,0.9l0,0l0,0c-0.4,0.4-0.7,0.8-0.8,1.3l-0.2,0.7c-0.1,0.6-0.2,1.2-0.2,1.8l0.1,0.1
					C66.1,46.9,66.6,47,67.1,47z"/>
			</g>
			<g>
				<path class="st0" d="M91.5,54c-0.2-0.3-0.3-0.7-0.3-1.2l0.1-8.3c0.1-4,0.1-7.1,0.1-9.3c0-7.6-0.4-13.5-1.3-17.6
					c0.5-0.8,1.1-1.1,1.9-1.1c1.2,0,2.3,0.3,3.3,0.8c1,0.5,1.8,1.3,2.5,2.2c1.3,1.9,1.9,4,1.9,6.4c0,2.5-0.5,4.7-1.6,6.6
					c-1,1.9-2.6,3.4-4.6,4.5l0.1,5l0.1,2.6c0,0.6,0,1.4,0,2.4c0.1,2.2,0.1,4,0.1,5.4c0,0.6-0.1,1.1-0.4,1.5
					c-0.3,0.4-0.7,0.5-1.2,0.5C92,54.4,91.7,54.3,91.5,54z M96.3,30.9c0.6-1.3,0.9-2.8,0.9-4.5v0c0-0.8-0.1-1.7-0.2-2.9
					c-0.1-0.4-0.3-0.8-0.5-1.2c-0.3-0.4-0.4-0.6-0.4-0.7c-0.2-0.3-0.8-0.8-1.8-1.5l-1.3-0.9c0,1.7,0.1,4.3,0.3,7.8l0.3,7.8
					C94.8,33.5,95.7,32.2,96.3,30.9z"/>
				<path class="st0" d="M113.5,53.9c-0.2-0.2-0.4-0.5-0.4-1v-6.4c-0.4-0.3-1.2-0.6-2.4-0.8c-1.2-0.2-2.3-0.4-3.3-0.4
					c-0.4,0.7-0.6,1.5-0.8,2.5l-0.2,1c0,0.2-0.1,0.7-0.3,1.5c-0.2,0.8-0.3,1.5-0.5,2c-0.2,0.6-0.4,1-0.6,1.4c-1.2,0-2-0.3-2.2-1
					c0.4-0.5,0.8-2.1,1.2-4.6l1.6-9c0.7-4.3,1.4-7.9,2-10.9c0.6-3,1.3-5.5,1.9-7.6c0.8-2.3,1.5-3.4,2.2-3.4c0.7,0,1.2,0.1,1.6,0.4
					c0,1.3,0.3,4.5,0.9,9.5c0.7,4.9,1,8.3,1,10.1c0,1.7,0.2,4.2,0.5,7.5c0.3,3.3,0.5,6,0.5,7.9c0,1.1-0.5,1.7-1.6,1.7
					C114.1,54.2,113.7,54.1,113.5,53.9z M113,43.5c-0.1-1.4-0.3-3.2-0.5-5.4c-0.8-7.4-1.1-12-1.1-13.6v-0.4
					c-0.3,0.3-0.8,1.8-1.4,4.5c-0.6,2.6-1.1,5.5-1.6,8.5c-0.5,3-0.8,5-0.8,6c1.4,0.4,2.8,0.6,4.4,0.6
					C112.3,43.6,112.6,43.6,113,43.5z"/>
				<path class="st0" d="M129.7,54.5c-0.2-0.3-0.3-0.7-0.3-1.2c0-6.9-0.1-12.6-0.4-17.4c-0.8-0.1-1.3-0.2-1.7-0.2
					c-1.3,0-2.3,0.1-2.9,0.3c0,1.8,0.1,4.6,0.4,8.3c0.3,3.9,0.4,6.7,0.4,8.4c0,0.3-0.1,0.6-0.3,0.9c-0.2,0.3-0.4,0.4-0.7,0.4
					c-0.4,0-0.8-0.8-1.2-2.3c-0.5-2.2-1-6.9-1.3-14c-0.2-4.8-0.3-10-0.3-15.5c0-1,0-2.5,0-4.3c0-0.6,0.3-0.9,0.8-0.9
					c0.3,0,0.7,0.1,1,0.2c0.3,0.2,0.6,0.3,0.8,0.5c-0.1,1-0.2,2.3-0.2,3.7c0,1.4,0.1,3,0.2,5c0.1,2.3,0.1,4,0.1,5.1v0.9
					c0,0.3,0,0.6,0,0.9c0,0.3,0,0.8,0.1,1.3c0.2,0,0.5,0,1,0c0.5,0,0.9-0.1,1.4-0.1c1.1-0.1,1.9-0.1,2.4-0.1c0-2.9,0-5.5-0.1-7.9
					l-0.1-8.2V17c0.4,0,0.8,0.1,1.1,0.2c0.3,0.1,0.6,0.3,0.7,0.6c0.3,0.4,0.5,1,0.5,1.9v1.1c0,2.8,0.2,8.2,0.5,16.2
					c0.3,7.2,0.4,12.6,0.4,16.2c0,0.5-0.1,0.9-0.4,1.2c-0.3,0.4-0.6,0.5-1,0.5C130.3,54.9,130,54.8,129.7,54.5z"/>
				<path class="st0" d="M140.9,53.8c-0.3-0.5-0.4-1.1-0.4-1.7c0-1.1,0.1-2.4,0.2-4l0.1-1.3l0.1-2.6c0-1.1-0.1-3.7-0.3-7.7
					c-0.2-4-0.3-6.5-0.3-7.7c0-0.1,0-0.3,0-0.6c0-0.3,0-0.7,0-1.3c0-0.7,0-1.5,0-2.4c0-2.4-0.2-3.9-0.5-4.6c-0.2,0-0.6,0-1.3,0.1
					l-1.4,0.1c-0.4,0-0.8-0.1-1.1-0.4c-0.3-0.2-0.5-0.6-0.5-1c0-0.4,0.4-0.7,1.2-1c1.1-0.4,3.1-0.7,5.9-0.8c1.1-0.1,1.8-0.1,2-0.1
					c0.4,0,0.8,0.1,1.1,0.4c0.3,0.3,0.5,0.6,0.5,1c0,0.4-0.1,0.7-0.4,1c-0.3,0.2-0.6,0.4-1.1,0.4l-0.9,0c-0.3,0-0.6,0-0.9,0h-0.5
					c0.2,2.2,0.3,4.2,0.3,6l0,3.1c0,1,0,2,0,3.2c0,1.6,0.1,3.5,0.2,5.7c0.2,2.7,0.2,4.6,0.2,5.7c0,1.2,0.1,2.7,0.2,4.4
					c0.1,1.7,0.2,3.2,0.2,4.4c0,1.6-0.5,2.4-1.4,2.4C141.5,54.5,141.1,54.3,140.9,53.8z"/>
				<path class="st0" d="M159.8,53.9c-0.2-0.2-0.4-0.5-0.4-1v-6.4c-0.4-0.3-1.2-0.6-2.4-0.8c-1.2-0.2-2.3-0.4-3.3-0.4
					c-0.4,0.7-0.6,1.5-0.8,2.5l-0.2,1c0,0.2-0.1,0.7-0.3,1.5c-0.2,0.8-0.3,1.5-0.5,2c-0.2,0.6-0.4,1-0.6,1.4c-1.2,0-2-0.3-2.2-1
					c0.4-0.5,0.8-2.1,1.2-4.6l1.6-9c0.7-4.3,1.4-7.9,2-10.9c0.6-3,1.3-5.5,1.9-7.6c0.8-2.3,1.5-3.4,2.2-3.4c0.7,0,1.2,0.1,1.6,0.4
					c0,1.3,0.3,4.5,0.9,9.5c0.7,4.9,1,8.3,1,10.1c0,1.7,0.2,4.2,0.5,7.5c0.3,3.3,0.5,6,0.5,7.9c0,1.1-0.5,1.7-1.6,1.7
					C160.4,54.2,160,54.1,159.8,53.9z M159.4,43.5c-0.1-1.4-0.3-3.2-0.5-5.4c-0.8-7.4-1.1-12-1.1-13.6v-0.4
					c-0.3,0.3-0.8,1.8-1.4,4.5c-0.6,2.6-1.1,5.5-1.6,8.5c-0.5,3-0.8,5-0.8,6c1.4,0.4,2.8,0.6,4.4,0.6
					C158.7,43.6,159,43.6,159.4,43.5z"/>
				<path class="st0" d="M181.8,55c-0.2-0.3-0.3-0.8-0.3-1.4l0-7.3c0-0.6,0-1.7,0-3.1c-0.1-3-0.1-6.5-0.1-10.3v-2.5
					c-0.3,1.6-0.8,3.8-1.5,6.6c-0.7,3-1.2,5.4-1.5,7.3v0.3l-0.1,0.9c-0.1,0.7-0.2,1.5-0.5,2.2c-0.3,0.8-0.8,1.2-1.5,1.2
					c-1.2,0-1.8-1.5-1.8-4.6c0-1.7-0.2-3.5-0.5-5.5c-0.3-2-0.9-4.4-1.6-7.2l-1.5-5.5l-0.1,5.9c0,1.8,0.1,5.1,0.2,10.1l0.1,3.3
					l0.1,6.7c0,0.7-0.2,1.3-0.7,1.9c-0.8,0-1.4-0.3-1.7-0.8c-0.3-0.5-0.5-1.3-0.5-2.2l0.1-4c0.1-1.8,0.1-3.1,0.1-4l-0.1-9.5
					l-0.1-9.5c0-1.4,0-3.5,0.1-6.3l1.3-0.8c0.3,0,0.5,0.2,0.8,0.6c0.3,0.3,0.6,0.9,0.9,1.6c0.8,2,1.9,6.1,3.2,12.2
					c0.2,0.9,0.3,1.6,0.4,2.1c0.4,1.9,0.7,3.3,0.8,4.3l0.7,3.8l0.3-1.6l0.9-4c0.5-2.4,1-4.4,1.3-6.2c0.3-1.8,0.7-3.7,1-5.8
					c0.4-2.5,0.6-4.5,0.7-6.1v-0.3c0.1-0.4,0.3-0.8,0.6-1c0.3-0.2,0.7-0.4,1.2-0.4c0.3,0,0.6,0.1,0.8,0.4c0.2,0.3,0.3,0.5,0.3,0.8
					c0,3.9,0.1,9.8,0.4,17.7c0.2,3.8,0.3,7.6,0.3,11.3c0.1,1.7,0.1,3.8,0.1,6.3c0,0.8-0.2,1.4-0.6,2c-0.4,0.6-0.8,0.9-1.3,0.9
					C182.3,55.5,182,55.3,181.8,55z"/>
				<path class="st0" d="M199.1,53.3c-0.2-1.2-0.2-2.4-0.2-3.5c-0.1-2.5-0.2-5.2-0.2-7.9c0-2.7-0.1-4.7-0.1-6
					c-0.7,0.3-1.3,0.8-1.7,1.4c-0.4,0.6-0.8,1.3-1.2,2.2c-0.6,1.6-0.9,3.2-0.9,4.8v1.2c0,0.2,0,0.8,0,1.8c0,1-0.1,2.1-0.3,3.3
					c-0.2,1.6-1,2.9-2.5,3.7c-0.2,0.1-0.5,0.2-0.9,0.2c-0.4,0-0.8-0.1-1.1-0.3c-0.3-0.2-0.4-0.5-0.3-0.9c0.1-0.2,0.2-0.4,0.3-0.5
					c0.1-0.1,0.3-0.2,0.6-0.3c0.2-0.1,0.4-0.2,0.6-0.3c0.5-0.5,0.7-1.1,0.7-1.9l0-4.1c0.1-1.6,0.1-2.8,0.2-3.7
					c0.1-0.9,0.3-1.9,0.7-3c0.1-0.4,0.4-1.1,0.9-2c0.5-0.9,0.9-1.5,1.1-1.8c-1.7-0.9-2.9-1.9-3.6-3.2c-0.7-1.3-1-3.1-1-5.6
					c0-1.9,0.3-3.8,1-5.7c0.7-1.8,1.8-3,3.4-3.5l2.2-0.7c0.3-0.1,0.6-0.2,1-0.2c0.7,0,1.5,0.3,2.4,0.9c0.6,0.3,0.8,0.9,0.8,1.6
					c-0.2,2.8-0.3,4.8-0.3,6.2v1.8v4v5.1c0,3.5,0,6.1,0.1,7.9c0,1.3,0.1,2.5,0.1,3.6c0.1,1,0.1,1.9,0.1,2.6l0.1,2.7v0.3
					c0,0.4-0.1,0.7-0.2,0.8c-0.1,0.1-0.4,0.2-0.8,0.2C199.6,54.4,199.2,54.1,199.1,53.3z M198.3,18.7c-0.2,0.1-0.5,0.2-1.1,0.4
					c-0.6,0.2-1.1,0.4-1.5,0.7c-0.5,0.2-0.9,0.7-1.4,1.5c-0.4,0.7-0.7,1.5-1,2.3c-0.2,0.8-0.3,1.4-0.3,1.9l0.1,2.2c0,1,0,1.8,0,2.4
					c0,0.9,0.3,1.7,0.8,2.3c0.5,0.6,1.2,1,2.1,1.3c0.4,0.1,0.8,0.2,1.3,0.4c0.5,0.2,0.8,0.3,1.1,0.4L198.3,18.7z"/>
				<path class="st0" d="M214.1,54c-0.6-0.7-0.9-1.5-1-2.4c-0.2-1.4-0.3-3.6-0.4-6.6l-0.1-3.1c0-0.9-0.3-1.7-0.8-2.5
					c-0.5-0.8-1.2-1.3-2-1.4c0.2,6.8,0.3,11.9,0.3,15.1c0,0.9-0.3,1.4-1,1.4c-0.3,0-0.5-0.1-0.8-0.2c-0.6-0.3-0.9-0.8-0.8-1.4
					c0.3-1.9,0.4-3.9,0.4-5.8c0-1.4,0-2.8-0.1-4.3c0-0.7,0-1.8,0-3.3c0-0.5,0-1.2,0-2.2c-0.1-5.4-0.3-9.4-0.4-12.1
					c-0.1-1.6-0.3-3.7-0.7-6.3c0-0.1,0-0.3,0-0.6c0-1,0.4-1.6,1.3-1.8c0.5-0.1,0.9,0,1.2,0.4c0.3,0.4,0.5,0.9,0.5,1.5
					c0,0.4,0.1,0.9,0.1,1.5c0,0.6,0,1,0,1.4l0,1.6c0.1,1.9,0.1,3.3,0.1,4.2v8.8c0.3-0.7,0.7-1.8,1.1-3.2c0.4-1.4,0.8-2.7,1-3.7
					c0.1-0.5,0.2-1.2,0.3-1.9c0.1-0.8,0.2-1.3,0.3-1.7c0.2-2.1,0.5-3.8,0.9-5.1c0.4-1.5,1.2-2.6,2.4-3.3c0.5-0.3,0.9-0.4,1.2-0.4
					c0.2,0,0.5,0.1,0.9,0.2c0.5,0.2,0.8,0.7,0.8,1.5c0,0.6-0.3,0.9-1,1.1c-1.3,0.2-2.2,1.1-2.6,2.6c-0.2,0.9-0.4,1.9-0.6,3
					c-0.2,1.4-0.4,2.4-0.6,2.8c-0.6,1.7-0.9,3.1-0.9,4.1c-0.1,0.9-0.2,1.7-0.4,2.3c-0.2,0.7-0.5,1.2-0.9,1.7
					c0.8,0.1,1.5,0.7,2.1,1.7c0.6,1,1,2.3,1.1,4c0.1,1.1,0.3,3.6,0.6,7.5l0.1,1.1c0.1,0.8,0.5,1.3,1.2,1.4c0.5,0.2,0.9,0.4,1.1,0.6
					c0.2,0.2,0.3,0.6,0.3,1c0,0.5-0.2,1-0.5,1.3c-0.4,0.3-0.8,0.5-1.4,0.5C215.5,55,214.7,54.7,214.1,54z"/>
				<path class="st0" d="M223.7,54c-0.4-0.4-0.6-0.9-0.5-1.4c0.1-1.7,0.1-3.4,0.1-5.1c0-1.5,0-3.8-0.1-6.9c0-1.4-0.1-3.5-0.3-6.3
					c0-0.6-0.1-1.4-0.1-2.4c-0.1-1.1-0.1-2-0.1-2.8c0-0.6,0-1.4,0-2.5l0-5c0-0.3,0-0.7-0.1-1.2l0-1.1c0-0.5,0.1-0.9,0.4-1.2
					c0.3-0.3,0.6-0.4,1.1-0.4c1,0,1.5,0.4,1.6,1.3c0.1,1,0.2,1.7,0.2,2.2c0,0.6,0,1.2-0.1,1.8c-0.2,1.2-0.2,2.3-0.2,3.3l0,1.5
					c0.1,3,0.2,5.8,0.2,8.3v5.9c0,1,0,2.5,0.1,4.6l0.3,0l0.6-1.9c1-3.3,1.9-6.3,2.8-9.1c0.5-1.3,1-3.3,1.5-6
					c0.2-1.2,0.4-2.1,0.6-2.9l2.5-8.9c0.2-0.4,0.5-0.7,0.8-1c0.3-0.2,0.7-0.3,1-0.3c0.4,0.1,0.8,0.4,1.1,0.8
					c0.4,0.4,0.5,0.9,0.5,1.3c0,1.1-0.1,2.3-0.3,3.6c-0.3,4.1-0.5,6.7-0.5,7.7c-0.1,4.4-0.2,7.7-0.2,9.9c0,1,0.1,2.7,0.2,4.9
					c0.2,2.2,0.3,3.7,0.3,4.5l0.2,2.5c0,0.7-0.1,1.2-0.5,1.6c-0.4,0.4-0.8,0.6-1.4,0.6c-0.4,0-0.7-0.1-0.9-0.4
					c-0.3-0.2-0.4-0.6-0.4-1V52l0-9.9v-1.8c-0.1-1.7-0.1-4.3-0.2-7.9v-2v-3.2c0,0-0.1,0-0.2,0c-0.2,0-0.5,0.8-0.9,2.2
					c-0.4,1.5-0.7,2.9-1.1,4.4c-0.3,1.5-0.5,2.4-0.6,2.8c-0.3,1.4-0.5,2.2-0.5,2.4c-0.9,3.1-1.7,5.7-2.2,7.8c-0.6,2.1-1,4.2-1.4,6.3
					c-0.2,1.1-0.8,1.6-1.8,1.6C224.5,54.7,224.1,54.5,223.7,54z"/>
			</g>
		</g>
	</g>
</g>
</svg>
