<svg xmlns="http://www.w3.org/2000/svg" viewBox="0 0 240 150.33">
  <defs>
    <style>
      .cls-1, .cls-9 {
        fill: #ccdae7;
      }

      .cls-10, .cls-2, .cls-3, .cls-4, .cls-5, .cls-6, .cls-7, .cls-8, .cls-9 {
        stroke: #ccdae7;
      }

      .cls-10, .cls-2, .cls-3, .cls-6, .cls-7, .cls-8, .cls-9 {
        stroke-miterlimit: 10;
      }

      .cls-2 {
        stroke-width: 1.79px;
      }

      .cls-3, .cls-4, .cls-5, .cls-6, .cls-9 {
        stroke-width: 2px;
      }

      .cls-4, .cls-5 {
        stroke-linejoin: round;
        stroke-dasharray: 0.54 2.14;
      }

      .cls-10, .cls-5, .cls-6 {
        fill: none;
      }

      .cls-7 {
        stroke-width: 1.08px;
      }

      .cls-8 {
        stroke-width: 0.27px;
      }

      .cls-10 {
        stroke-width: 1.79px;
      }
    </style>
  </defs>
  <title>Logo</title>
  <g id="Слой_2" data-name="Слой 2">
    <g>
      <path class="cls-1" d="M34.09,87.73A30.52,30.52,0,0,1,34,84.28c0-.57,0-1.16.06-1.74l.18-1.73A32.33,32.33,0,0,1,35.85,74a40.9,40.9,0,0,1,7.08-12.24C49,54.41,57,48.87,65.45,44.75A110.06,110.06,0,0,1,92.21,36c4.6-.92,9.25-1.53,13.9-2s9.32-.62,14-.71,9.34.16,14,.54,9.31,1,13.93,1.9a107.46,107.46,0,0,1,26.79,8.73A66.23,66.23,0,0,1,197.2,61.68a42,42,0,0,1,7,12.31A33,33,0,0,1,206,87.73a38.48,38.48,0,0,0-11.74-23.4c-6.2-6.22-13.94-10.7-22-14.06-16.35-6.65-34.27-9-52-8.87a172,172,0,0,0-26.57,2.16,119.7,119.7,0,0,0-25.53,7c-8.12,3.35-15.94,7.71-22.2,13.88A36.89,36.89,0,0,0,34.09,87.73Z"/>
      <g>
        <g>
          <g>
            <path class="cls-2" d="M69.16,20.86c-.51-1.61-1.12-3.19-1.76-4.73-.17-.4-.33-.79-.51-1.18-.5-1.13-1-2.24-1.53-3.27C63.64,8.19,62,5.43,61.28,4.27l-.36-.58s-.13.19-.34.55h0c-1.51,2.45-7.51,12.61-9.09,21.33a21.5,21.5,0,0,0-.38,3.89q0,1.56.12,2.85a14.49,14.49,0,0,0,1.32,5.17c1.5,3,4.05,3.93,7,4.13l0-2.09a5.74,5.74,0,0,1-5.32-3.79,15.94,15.94,0,0,1-.9-5.58c0-.17,0-.34,0-.51a25.53,25.53,0,0,1,1.29-7.27A71.77,71.77,0,0,1,60.92,8.63s1.19,2,2.62,4.88c.66,1.32,1.36,2.84,2,4.46.47,1.15.92,2.35,1.32,3.56.14.4.27.81.39,1.21a24.86,24.86,0,0,1,1.18,6.9c0,3.55-.59,5.86-1.57,7.36a5.68,5.68,0,0,1-4.53,2.5l0,2.1a9.17,9.17,0,0,0,4.5-1.33c2.35-1.54,3.86-4.66,3.86-10.81A29,29,0,0,0,69.16,20.86Z"/>
            <path class="cls-2" d="M68.46,29.64c0,7.53-2.63,9.5-6.1,9.86l-.24-11.6L62,21.53l-.13-6.35-.08-4.39c0-.7-.27-1.28-.61-1.28h-.38c-.33,0-.6.58-.6,1.28L60.06,17l-.12,6.62-.14,6.62-.19,9.29a5.72,5.72,0,0,1-5.32-3.78,16,16,0,0,1-.9-5.59c0-.16,0-.33,0-.5a25.88,25.88,0,0,1,1.29-7.27A71.77,71.77,0,0,1,60.92,8.63s1.19,2,2.62,4.88c.66,1.32,1.36,2.84,2,4.45s1.22,3.15,1.71,4.78A24.8,24.8,0,0,1,68.46,29.64Z"/>
          </g>
          <path class="cls-2" d="M62.57,50.32a1.24,1.24,0,0,1-1.21,1.28H60.6a1.24,1.24,0,0,1-1.2-1.28l.17-8.71,0-2.1.19-9.29.14-6.62L60.06,17l.13-6.19c0-.7.27-1.28.6-1.28h.38c.34,0,.61.58.61,1.28l.08,4.39L62,21.53l.13,6.37.24,11.6,0,2.1Z"/>
          <g>
            <line class="cls-2" x1="61.76" y1="16.98" x2="67.15" y2="22.37"/>
            <line class="cls-2" x1="61.89" y1="23.6" x2="68.43" y2="30.14"/>
            <line class="cls-2" x1="62.02" y1="30.22" x2="67.53" y2="35.73"/>
          </g>
          <g>
            <line class="cls-2" x1="60.06" y1="16.98" x2="54.67" y2="22.37"/>
            <line class="cls-2" x1="59.94" y1="23.6" x2="53.39" y2="30.14"/>
            <line class="cls-2" x1="59.8" y1="30.22" x2="54.29" y2="35.73"/>
          </g>
        </g>
        <g>
          <g>
            <path class="cls-2" d="M187.32,20c-.52-1.6-1.12-3.19-1.76-4.73l-.51-1.17c-.5-1.14-1-2.24-1.53-3.27-1.72-3.49-3.37-6.25-4.08-7.41-.23-.38-.37-.59-.37-.59l-.34.56h0c-1.5,2.45-7.51,12.61-9.09,21.33a22.25,22.25,0,0,0-.38,3.89,27.89,27.89,0,0,0,.13,2.85,14.44,14.44,0,0,0,1.31,5.16c1.5,3,4.06,3.94,7,4.14l0-2.1a5.71,5.71,0,0,1-5.31-3.78,16,16,0,0,1-.91-5.59v-.5a25.53,25.53,0,0,1,1.29-7.27,72.06,72.06,0,0,1,6.24-13.74s1.19,2,2.62,4.88c.66,1.32,1.37,2.84,2,4.45.47,1.15.92,2.35,1.33,3.57.13.4.27.81.39,1.21a25.14,25.14,0,0,1,1.17,6.9c0,3.55-.59,5.86-1.56,7.36a5.73,5.73,0,0,1-4.54,2.5l0,2.1a9.34,9.34,0,0,0,4.5-1.33c2.35-1.54,3.85-4.67,3.85-10.81A29.14,29.14,0,0,0,187.32,20Z"/>
            <path class="cls-2" d="M186.61,28.81c0,7.54-2.62,9.51-6.1,9.87l-.24-11.6-.13-6.37L180,14.36,179.93,10c0-.71-.27-1.28-.6-1.28H179c-.34,0-.61.57-.61,1.28l-.12,6.19-.13,6.61L178,29.4l-.2,9.29a5.71,5.71,0,0,1-5.31-3.78,16,16,0,0,1-.91-5.59v-.51a25.47,25.47,0,0,1,1.29-7.26A72,72,0,0,1,179.07,7.8s1.19,2,2.62,4.88c.66,1.33,1.37,2.84,2,4.46s1.23,3.15,1.72,4.78A25.14,25.14,0,0,1,186.61,28.81Z"/>
          </g>
          <path class="cls-2" d="M180.72,49.5a1.25,1.25,0,0,1-1.2,1.28h-.76a1.25,1.25,0,0,1-1.21-1.28l.17-8.71,0-2.1.2-9.29.13-6.63.13-6.61.12-6.19c0-.71.27-1.28.61-1.28h.38c.33,0,.6.57.6,1.28l.09,4.39.12,6.35.13,6.37.24,11.6,0,2.1Z"/>
          <g>
            <line class="cls-2" x1="179.91" y1="16.16" x2="185.3" y2="21.55"/>
            <line class="cls-2" x1="180.04" y1="22.77" x2="186.59" y2="29.32"/>
            <line class="cls-2" x1="180.17" y1="29.4" x2="185.68" y2="34.91"/>
          </g>
          <g>
            <line class="cls-2" x1="178.22" y1="16.16" x2="172.83" y2="21.55"/>
            <line class="cls-2" x1="178.09" y1="22.77" x2="171.54" y2="29.32"/>
            <line class="cls-2" x1="177.96" y1="29.4" x2="172.45" y2="34.91"/>
          </g>
        </g>
      </g>
      <g id="House">
        <rect class="cls-3" x="92.83" y="10.78" width="54.35" height="40.87" rx="2.43"/>
        <rect class="cls-3" x="115.8" y="15.44" width="8.4" height="9.97" rx="1.73"/>
        <rect class="cls-3" x="99.19" y="32.62" width="8.4" height="9.97" rx="1.73"/>
        <rect class="cls-3" x="133.2" y="32.71" width="8.4" height="9.97" rx="1.73"/>
        <rect class="cls-3" x="115.8" y="32.64" width="8.4" height="18.81" rx="2.38"/>
        <g>
          <rect class="cls-3" x="93.07" y="23.2" width="53.51" height="6.47"/>
          <line class="cls-4" x1="93.07" y1="24.66" x2="146.59" y2="24.66"/>
        </g>
        <g>
          <line class="cls-5" x1="128.3" y1="46.17" x2="146.59" y2="46.17"/>
          <line class="cls-5" x1="93.07" y1="46.17" x2="112.12" y2="46.17"/>
          <rect class="cls-6" x="93.09" y="45.13" width="19.17" height="6.49" rx="0.99"/>
          <rect class="cls-6" x="128.33" y="45.12" width="19.17" height="6.49" rx="0.99"/>
        </g>
        <g>
          <circle class="cls-7" cx="147.39" cy="20.18" r="2.55"/>
          <circle class="cls-7" cx="147.39" cy="25.83" r="2.55"/>
          <circle class="cls-7" cx="147.39" cy="31.47" r="2.55"/>
          <circle class="cls-7" cx="147.39" cy="37.12" r="2.55"/>
          <circle class="cls-7" cx="147.39" cy="42.77" r="2.55"/>
          <circle class="cls-7" cx="147.39" cy="48.42" r="2.55"/>
          <circle class="cls-8" cx="147.39" cy="25.83" r="1.08"/>
          <circle class="cls-8" cx="147.39" cy="31.47" r="1.08"/>
          <circle class="cls-8" cx="147.39" cy="37.12" r="1.08"/>
          <circle class="cls-8" cx="147.39" cy="42.72" r="1.08"/>
          <circle class="cls-8" cx="147.39" cy="48.4" r="1.08"/>
        </g>
        <g>
          <circle class="cls-7" cx="93.73" cy="20.18" r="2.55"/>
          <circle class="cls-7" cx="93.73" cy="25.83" r="2.55"/>
          <circle class="cls-7" cx="93.73" cy="31.47" r="2.55"/>
          <circle class="cls-7" cx="93.73" cy="37.12" r="2.55"/>
          <circle class="cls-7" cx="93.73" cy="42.77" r="2.55"/>
          <circle class="cls-7" cx="93.73" cy="48.42" r="2.55"/>
          <circle class="cls-8" cx="93.73" cy="25.83" r="1.08"/>
          <circle class="cls-8" cx="93.73" cy="31.47" r="1.08"/>
          <circle class="cls-8" cx="93.73" cy="37.12" r="1.08"/>
          <circle class="cls-8" cx="93.73" cy="42.77" r="1.08"/>
          <circle class="cls-8" cx="93.73" cy="48.49" r="1.08"/>
        </g>
        <path class="cls-7" d="M151.28,20.46H134.7a2.08,2.08,0,0,1-1.25-.41l-11.84-8.78a2.82,2.82,0,0,0-3.37,0L106.61,20a2.49,2.49,0,0,1-1.51.5H88.76a1.55,1.55,0,0,1-1.4-2.24l6.77-14a5,5,0,0,1,4.46-2.79h42.79a5,5,0,0,1,4.46,2.79l6.81,14.06A1.52,1.52,0,0,1,151.28,20.46Z"/>
        <g>
          <g>
            <path d="M151.28,20.46H134.7a2.08,2.08,0,0,1-1.25-.41l-11.84-8.78a2.82,2.82,0,0,0-3.37,0L106.61,20a2.49,2.49,0,0,1-1.51.5H88.76a1.55,1.55,0,0,1-1.4-2.24l6.77-14a5,5,0,0,1,4.46-2.79h42.79a5,5,0,0,1,4.46,2.79l6.81,14.06A1.52,1.52,0,0,1,151.28,20.46Z"/>
            <path class="cls-1" d="M121.93,10.83l-.08-.05a3.34,3.34,0,0,0-1.92-.61,3.29,3.29,0,0,0-1.92.61l-.1.07-3.85,2.87-.39.29a1.12,1.12,0,0,0,.42.36h0l.5-.38h0c.3,0,.5-.2.72-.54h0l1.09-.81,0,0a.53.53,0,0,1,.3-.22h0l.62-.47a1.41,1.41,0,0,1,.46.34l.71-.54a2.25,2.25,0,0,1,2.73,0l.22.17a.93.93,0,0,1,.24,0c.74,0,1.1.64,1.41,1.2l0,.08,1.13.84a.78.78,0,0,0,.43-.34,4.32,4.32,0,0,0,.3-.47Zm0,0-.08-.05a3.34,3.34,0,0,0-1.92-.61,3.29,3.29,0,0,0-1.92.61l-.1.07-3.85,2.87-.39.29a1.12,1.12,0,0,0,.42.36h0l.5-.38h0c.3,0,.5-.2.72-.54h0l1.09-.81,0,0a.53.53,0,0,1,.3-.22h0l.62-.47.85-.63a2.34,2.34,0,0,1,.39-.25,2.24,2.24,0,0,1,.68-.25,2.56,2.56,0,0,1,1.23,0,2.15,2.15,0,0,1,.68.25,2.74,2.74,0,0,1,.39.24l3.15,2.35a4.32,4.32,0,0,0,.3-.47Zm0,0-.08-.05a3.34,3.34,0,0,0-1.92-.61,3.29,3.29,0,0,0-1.92.61l-.1.07-3.85,2.87-.39.29a1.12,1.12,0,0,0,.42.36h0l.5-.38h0c.3,0,.5-.2.72-.54h0l1.09-.81,0,0a.53.53,0,0,1,.3-.22h0l.62-.47.85-.63a2.34,2.34,0,0,1,.39-.25,2.24,2.24,0,0,1,.68-.25,2.56,2.56,0,0,1,1.23,0,2.15,2.15,0,0,1,.68.25,2.74,2.74,0,0,1,.39.24l3.15,2.35a4.32,4.32,0,0,0,.3-.47Zm3.13,2.32-3.13-2.32-.08-.05a3.34,3.34,0,0,0-1.92-.61,3.29,3.29,0,0,0-1.92.61l-.1.07-3.85,2.87-.39.29-5,3.76a2.77,2.77,0,0,1,.2.34l.07.12,5.17-3.86h0l.5-.38h0l.72-.54h0l1.09-.81,0,0a.53.53,0,0,1,.3-.22h0l.62-.47.85-.63a2.34,2.34,0,0,1,.39-.25,2.24,2.24,0,0,1,.68-.25,2.56,2.56,0,0,1,1.23,0,2.15,2.15,0,0,1,.68.25,2.74,2.74,0,0,1,.39.24l3.15,2.35.41.29a5.21,5.21,0,0,0,.3-.46ZM153.13,18l-2.76-5.71-.22-.46-1.22-2.49-.13-.27-.23-.48L146.32,4a5.46,5.46,0,0,0-1.17-1.6c-.12-.11-.25-.21-.38-.31a5.37,5.37,0,0,0-3.39-1.2H98.59a5.52,5.52,0,0,0-4.12,1.87,4.35,4.35,0,0,0-.33.42,4.28,4.28,0,0,0-.5.82L91.52,8.38h0l-.49,1-1.53,3.16-.24.53L86.87,18a1.93,1.93,0,0,0-.2,1,2.06,2.06,0,0,0,2.09,2H105.1a3.05,3.05,0,0,0,1.82-.6L108.81,19l.4-.29,5.69-4.24.74-.56,1.81-1.35.4-.29.71-.54a2.25,2.25,0,0,1,2.73,0l.22.17,1.69,1.25,1.13.84.45.34,5.11,3.79.41.3.42.31.73.54h0l1.65,1.24a2.65,2.65,0,0,0,1.58.52h16.58a2,2,0,0,0,1.05-.3h0A2,2,0,0,0,153,20,2,2,0,0,0,153.13,18Zm-1,1.31a.21.21,0,0,1,0,.11,1,1,0,0,1-.83.46H134.7a1.58,1.58,0,0,1-.94-.31l-.08-.05-1.27-.95-1.47-1.09-.41-.31-4-2.94-.58-.42h0l-.52-.39-.41-.3-3.13-2.32-.08-.05a3.34,3.34,0,0,0-1.92-.61,3.29,3.29,0,0,0-1.92.61l-.1.07-3.85,2.87-.39.29-5,3.76-.4.29-2,1.47a2,2,0,0,1-1.18.39H88.76a1,1,0,0,1-.87-.48,1,1,0,0,1-.06-1l.55-1.14.19-.37,1.35-2.82.24-.48,2.46-5.06v0l.19-.39.43-.89.23-.46,1.14-2.37a1.41,1.41,0,0,1,.21-.35,2.13,2.13,0,0,1,.28-.41,4.19,4.19,0,0,1,1.79-1.38A4.24,4.24,0,0,1,98.59,2h43a4.36,4.36,0,0,1,2.62,1,2,2,0,0,1,.36.35,3.83,3.83,0,0,1,.81,1.13l1.88,3.86,0,.07.26.55.22.46,1.54,3.18.25.52,2.63,5.42a.79.79,0,0,1,.08.26h0A.77.77,0,0,1,152.15,19.35Zm-30.22-8.52-.08-.05a3.34,3.34,0,0,0-1.92-.61,3.29,3.29,0,0,0-1.92.61l-.1.07-3.85,2.87-.39.29a1.12,1.12,0,0,0,.42.36h0l.5-.38h0c.3,0,.5-.2.72-.54h0l1.09-.81,0,0a.53.53,0,0,1,.3-.22h0l.62-.47.85-.63a2.34,2.34,0,0,1,.39-.25,2.24,2.24,0,0,1,.68-.25,2.56,2.56,0,0,1,1.23,0,2.15,2.15,0,0,1,.68.25,2.74,2.74,0,0,1,.39.24l3.15,2.35a4.32,4.32,0,0,0,.3-.47Zm0,0-.08-.05a3.34,3.34,0,0,0-1.92-.61,3.29,3.29,0,0,0-1.92.61l-.1.07-3.85,2.87-.39.29a1.12,1.12,0,0,0,.42.36h0l.5-.38h0c.3,0,.5-.2.72-.54h0l1.09-.81,0,0a.53.53,0,0,1,.3-.22h0l.62-.47.85-.63a2.34,2.34,0,0,1,.39-.25,2.24,2.24,0,0,1,.68-.25,2.56,2.56,0,0,1,1.23,0,2.15,2.15,0,0,1,.68.25,2.74,2.74,0,0,1,.39.24l3.15,2.35a4.32,4.32,0,0,0,.3-.47Zm0,0-.08-.05a3.34,3.34,0,0,0-1.92-.61,3.29,3.29,0,0,0-1.92.61l-.1.07-3.85,2.87-.39.29a1.12,1.12,0,0,0,.42.36h0l.5-.38h0c.3,0,.5-.2.72-.54h0l1.09-.81,0,0a.53.53,0,0,1,.3-.22h0l.62-.47a1.41,1.41,0,0,1,.46.34l.71-.54a2.25,2.25,0,0,1,2.73,0l.22.17a.93.93,0,0,1,.24,0c.74,0,1.1.64,1.41,1.2l0,.08,1.13.84a.78.78,0,0,0,.43-.34,4.32,4.32,0,0,0,.3-.47Zm0,0-.08-.05a3.34,3.34,0,0,0-1.92-.61,3.29,3.29,0,0,0-1.92.61l-.1.07-3.85,2.87-.39.29a1.12,1.12,0,0,0,.42.36h0l.5-.38h0c.3,0,.5-.2.72-.54h0l1.09-.81,0,0a.53.53,0,0,1,.3-.22h0l.62-.47a1.41,1.41,0,0,1,.46.34l.71-.54a2.25,2.25,0,0,1,2.73,0l.22.17a.93.93,0,0,1,.24,0c.74,0,1.1.64,1.41,1.2l0,.08,1.13.84a.78.78,0,0,0,.43-.34,4.32,4.32,0,0,0,.3-.47Z"/>
          </g>
          <g>
            <path class="cls-1" d="M145.15,2.4a1.86,1.86,0,0,0-.33.44c-.06.1-.11.19-.17.31a1.51,1.51,0,0,0-.1.17c-.29.52-.65,1-1.31,1s-1.1-.64-1.42-1.21-.56-.95-1-.95-.64.36-1,.95-.66,1.21-1.41,1.21-1.1-.64-1.41-1.21-.56-.95-1-.95-.65.36-1,.95-.67,1.21-1.41,1.21-1.1-.64-1.41-1.21-.56-.95-1-.95-.65.36-1,.95-.67,1.21-1.41,1.21-1.1-.64-1.41-1.21-.56-.95-1-.95-.65.36-1,.95-.67,1.21-1.41,1.21-1.1-.64-1.42-1.21-.56-.95-1-.95-.64.36-1,.95-.66,1.21-1.41,1.21-1.1-.64-1.41-1.21-.55-.95-1-.95-.65.36-1,.95-.67,1.21-1.41,1.21-1.09-.64-1.4-1.21-.56-.95-1-.95-.65.36-1,.95-.67,1.21-1.41,1.21-1.1-.64-1.41-1.21-.56-.95-1-.95-.65.36-1,.95-.67,1.21-1.41,1.21-1.09-.64-1.4-1.21-.55-.95-1-.95-.65.36-1,.95-.67,1.21-1.4,1.21-1.1-.64-1.42-1.21-.56-.95-1-.95-.64.36-1,.95-.66,1.21-1.41,1.21a1.09,1.09,0,0,1-.72-.26,1.9,1.9,0,0,1-.38-.42l-.3-.51c.11-.15.22-.28.34-.42,0,.06,0,.11.08.16l.21.35a1.68,1.68,0,0,0,.33.43.66.66,0,0,0,.44.17c.42,0,.65-.35,1-.95a3.79,3.79,0,0,1,.38-.6,1.19,1.19,0,0,1,1-.6,1.06,1.06,0,0,1,.71.25,3,3,0,0,1,.7,1c.33.6.57.95,1,.95s.64-.35,1-.95a3.35,3.35,0,0,1,.7-1,1.1,1.1,0,0,1,.72-.25,1.05,1.05,0,0,1,.7.25,3.35,3.35,0,0,1,.7,1c.32.6.56.95,1,.95s.65-.35,1-.95a3.17,3.17,0,0,1,.7-1,1,1,0,0,1,.7-.25,1.08,1.08,0,0,1,.71.25,3.35,3.35,0,0,1,.7,1c.33.6.56.95,1,.95s.64-.35,1-.95a3.17,3.17,0,0,1,.7-1,1.13,1.13,0,0,1,1.42,0,3.17,3.17,0,0,1,.7,1c.32.6.55.95,1,.95s.65-.35,1-.95a3.17,3.17,0,0,1,.7-1,1,1,0,0,1,.7-.25,1.06,1.06,0,0,1,.71.25,3.17,3.17,0,0,1,.7,1c.34.6.56.95,1,.95s.65-.35,1-.95A3.32,3.32,0,0,1,121,2a1.08,1.08,0,0,1,.71-.25,1.06,1.06,0,0,1,.71.25,3,3,0,0,1,.7,1c.33.6.57.95,1,.95s.64-.35,1-.95a3.2,3.2,0,0,1,.71-1,1.06,1.06,0,0,1,.71-.25,1.08,1.08,0,0,1,.71.25,3.35,3.35,0,0,1,.7,1c.32.6.56.95,1,.95s.64-.35,1-.95a3.17,3.17,0,0,1,.7-1A1.13,1.13,0,0,1,132,2a3.17,3.17,0,0,1,.7,1c.33.6.56.95,1,.95s.65-.35,1-.95a3.14,3.14,0,0,1,.69-1,1.13,1.13,0,0,1,1.42,0,3.17,3.17,0,0,1,.7,1c.33.6.56.95,1,.95s.65-.35,1-.95a3.35,3.35,0,0,1,.7-1,1.08,1.08,0,0,1,.71-.25,1,1,0,0,1,.73.27,2.76,2.76,0,0,1,.68.93c.34.6.56.95,1,.95s.62-.33.94-.88l0-.07.23-.4a2.44,2.44,0,0,1,.33-.43Z"/>
            <path class="cls-1" d="M148.8,9.11a1,1,0,0,1-.47.26.81.81,0,0,1-.31.06,1.17,1.17,0,0,1-.27,0c-.57-.13-.87-.68-1.14-1.17s-.56-1-1-1-.66.37-1,1-.67,1.21-1.41,1.21-1.1-.64-1.42-1.21-.56-1-1-1-.64.37-1,1-.66,1.21-1.41,1.21-1.1-.64-1.41-1.21-.56-1-1-1-.65.37-1,1-.67,1.21-1.41,1.21-1.1-.64-1.41-1.21-.56-1-1-1-.65.37-1,1-.67,1.21-1.41,1.21-1.1-.64-1.41-1.21-.56-1-1-1-.65.37-1,1-.67,1.21-1.41,1.21-1.1-.64-1.42-1.21-.56-1-1-1-.64.37-1,1-.66,1.21-1.41,1.21-1.1-.64-1.41-1.21-.55-1-1-1-.65.37-1,1-.67,1.21-1.41,1.21-1.09-.64-1.4-1.21-.56-1-1-1-.65.37-1,1-.67,1.21-1.41,1.21-1.1-.64-1.41-1.21-.56-1-1-1-.65.37-1,1-.67,1.21-1.41,1.21-1.09-.64-1.4-1.21-.55-1-1-1-.65.37-1,1-.67,1.21-1.4,1.21-1.1-.64-1.42-1.21-.56-1-1-1-.64.37-1,1-.66,1.21-1.41,1.21-1.1-.64-1.41-1.21-.52-.9-.88-.94h-.09c-.36,0-.59.28-.86.74V8s0,0,0,0a1.12,1.12,0,0,0-.1.16c-.27.49-.58,1-1.15,1.17l.48-1h0c.08-.12.14-.25.23-.4.27-.48.57-1,1.13-1.16a.66.66,0,0,1,.28-.05.64.64,0,0,1,.31.06c.54.14.82.68,1.09,1.15s.56.95,1,.95.65-.36,1-.95.66-1.21,1.4-1.21S99,7.42,99.33,8s.57.95,1,.95.64-.36,1-.95.67-1.21,1.42-1.21,1.08.65,1.4,1.21.56.95,1,.95.65-.36,1-.95.66-1.21,1.4-1.21,1.1.65,1.41,1.21.56.95,1,.95.64-.36,1-.95.67-1.21,1.41-1.21,1.1.65,1.41,1.21.55.95,1,.95.65-.36,1-.95.67-1.21,1.4-1.21,1.1.65,1.41,1.21.56.95,1,.95.65-.36,1-.95.66-1.21,1.4-1.21,1.1.65,1.41,1.21.57.95,1,.95.64-.36,1-.95.67-1.21,1.42-1.21,1.09.65,1.41,1.21.56.95,1,.95.64-.36,1-.95.67-1.21,1.41-1.21,1.1.65,1.41,1.21.56.95,1,.95.65-.36,1-.95.66-1.21,1.4-1.21,1.1.65,1.41,1.21.56.95,1,.95.65-.36,1-.95.67-1.21,1.41-1.21,1.1.65,1.41,1.21.56.95,1,.95.64-.36,1-.95.66-1.21,1.41-1.21,1.1.65,1.41,1.21c.06.12.13.24.19.34l0,.06c.23.34.44.55.76.55h.1a.71.71,0,0,0,.46-.28Z"/>
            <g>
              <path class="cls-1" d="M117.85,12.25l-.39.29a.66.66,0,0,0-.48-.2.45.45,0,0,0-.2,0h0a.62.62,0,0,0-.3.23h0a3.24,3.24,0,0,0-.43.67,5.17,5.17,0,0,1-.36.59l-.75.56a1,1,0,0,1-.3,0,1,1,0,0,1-.51-.12,1.1,1.1,0,0,1-.42-.35,4.68,4.68,0,0,1-.47-.72c-.33-.6-.56-1-1-1s-.65.36-1,1-.67,1.19-1.41,1.19-1.1-.63-1.41-1.19-.56-1-1-1-.65.36-1,1-.67,1.19-1.41,1.19-1.09-.63-1.4-1.2-.55-.95-1-.95-.65.36-1,1-.67,1.19-1.4,1.19-1.1-.63-1.42-1.19-.56-1-1-1-.64.36-1,1-.66,1.19-1.41,1.19-1.1-.63-1.41-1.19-.55-1-1-1-.66.36-1,1-.67,1.19-1.41,1.19a1.17,1.17,0,0,1-.84-.36,2.47,2.47,0,0,1-.36-.49l-.2-.34a2.39,2.39,0,0,1-.12-.22l.25-.53a4.41,4.41,0,0,1,.3.5l0,0a4,4,0,0,0,.34.54.73.73,0,0,0,.6.36c.42,0,.66-.36,1-.95s.67-1.21,1.41-1.21,1.09.65,1.4,1.21.56.95,1,.95.65-.36,1-.95.66-1.21,1.4-1.21,1.1.65,1.41,1.21.57.95,1,.95.64-.36,1-.95.67-1.21,1.42-1.21,1.08.65,1.4,1.21.56.95,1,.95.65-.36,1-.95.66-1.21,1.4-1.21,1.1.65,1.41,1.21.56.95,1,.95.64-.36,1-.95.67-1.21,1.41-1.21,1.1.65,1.41,1.21a3.85,3.85,0,0,0,.43.68.7.7,0,0,0,.54.27c.31,0,.52-.21.74-.55.08-.12.15-.25.24-.4.31-.56.67-1.21,1.4-1.21a1.07,1.07,0,0,1,.41.08A1.26,1.26,0,0,1,117.85,12.25Z"/>
              <path class="cls-1" d="M123.16,13.05l0,.07-1.69-1.25a.85.85,0,0,1,.23,0C122.5,11.84,122.85,12.49,123.16,13.05Z"/>
              <path class="cls-1" d="M150.38,12.34a.68.68,0,0,0-.49.24,4,4,0,0,0-.35.51l-.11.21c-.31.56-.67,1.19-1.41,1.19s-1.1-.63-1.41-1.19-.56-1-1-1-.66.36-1,1-.67,1.19-1.41,1.19-1.1-.63-1.42-1.19-.56-1-1-1-.64.36-1,1-.66,1.19-1.41,1.19-1.1-.63-1.41-1.19-.56-1-1-1-.65.36-1,1-.67,1.19-1.41,1.19-1.1-.63-1.41-1.19-.56-1-1-1-.65.36-1,1-.67,1.19-1.41,1.19-1.1-.63-1.41-1.19-.56-1-1-1-.65.36-1,1a.83.83,0,0,0-.09.16c-.1.15-.18.31-.29.45a2.11,2.11,0,0,1-.4.39l-.44-.34a.85.85,0,0,0,.43-.34,5.39,5.39,0,0,0,.29-.46.37.37,0,0,1,0-.11c.32-.56.67-1.21,1.42-1.21s1.09.65,1.41,1.21.56.95,1,.95.64-.36,1-.95.67-1.21,1.41-1.21,1.1.65,1.41,1.21.56.95,1,.95.65-.36,1-.95.66-1.21,1.4-1.21,1.1.65,1.41,1.21.56.95,1,.95.65-.36,1-.95.67-1.21,1.41-1.21,1.1.65,1.41,1.21.56.95,1,.95.64-.36,1-.95.66-1.21,1.41-1.21,1.1.65,1.41,1.21.55.95,1,.95.64-.36,1-.95a3.4,3.4,0,0,1,.29-.48,1.65,1.65,0,0,1,.38-.45,1.16,1.16,0,0,1,.48-.25Z"/>
            </g>
            <g>
              <path class="cls-1" d="M108.92,18.23c.11.19.21.35.29.47l-.39.29a4.4,4.4,0,0,1-.3-.45l-.09-.18c-.07-.1-.12-.21-.18-.3-.24-.41-.46-.66-.8-.66s-.65.37-1,1-.67,1.2-1.41,1.2-1.09-.64-1.4-1.2-.55-1-1-1-.65.37-1,1-.67,1.2-1.4,1.2-1.1-.64-1.42-1.2-.56-1-1-1-.64.37-1,1-.66,1.2-1.41,1.2-1.1-.64-1.41-1.2-.55-1-1-1-.66.37-1,1-.67,1.2-1.41,1.2-1.09-.64-1.4-1.2-.56-1-1-1v-.48a.52.52,0,0,1,.18,0c.63.09.94.66,1.23,1.18s.55.95,1,.95.66-.36,1-.95.67-1.2,1.41-1.2,1.09.63,1.4,1.2.56.95,1,.95.65-.36,1-.95.66-1.2,1.4-1.2,1.1.63,1.41,1.2.57.95,1,.95.64-.36,1-.95.67-1.2,1.42-1.2,1.08.63,1.4,1.2.56.95,1,.95.65-.36,1-.95.66-1.2,1.4-1.2a1.41,1.41,0,0,1,1.2.85,4.05,4.05,0,0,1,.21.35Z"/>
              <path class="cls-1" d="M152.8,19.07v.49a.32.32,0,0,1-.13,0,.88.88,0,0,1-.51-.19,2.53,2.53,0,0,1-.77-1c-.33-.59-.56-1-1-1s-.66.37-1,1-.67,1.2-1.41,1.2-1.1-.64-1.41-1.2-.56-1-1-1-.66.37-1,1-.67,1.2-1.41,1.2-1.1-.64-1.42-1.2-.56-1-1-1-.64.37-1,1-.66,1.2-1.41,1.2-1.1-.64-1.41-1.2-.56-1-1-1-.65.37-1,1-.67,1.2-1.41,1.2a1.49,1.49,0,0,1-1.27-.95c0-.09-.1-.16-.14-.25-.32-.59-.56-1-1-1a.65.65,0,0,0-.36.12,1.44,1.44,0,0,0-.36.4c-.08.13-.15.27-.25.44,0,0,0,0,0,0l-.41-.31c.08-.15.18-.31.28-.46a2.06,2.06,0,0,1,.35-.42,1.2,1.2,0,0,1,.77-.29c.74,0,1.1.63,1.41,1.2s.56.95,1,.95.65-.36,1-.95.66-1.2,1.4-1.2,1.1.63,1.41,1.2.56.95,1,.95.65-.36,1-.95.67-1.2,1.41-1.2,1.1.63,1.41,1.2.56.95,1,.95.64-.36,1-.95.66-1.2,1.41-1.2,1.1.63,1.41,1.2.55.95,1,.95.64-.36,1-.95.67-1.2,1.41-1.2,1.1.63,1.41,1.2a4.33,4.33,0,0,0,.42.65h0a.71.71,0,0,0,.55.29Z"/>
            </g>
          </g>
          <g>
            <circle class="cls-6" cx="97.94" cy="3.48" r="0.54"/>
            <circle class="cls-6" cx="107.48" cy="3.48" r="0.54"/>
            <circle class="cls-6" cx="117.01" cy="3.48" r="0.54"/>
            <circle class="cls-6" cx="126.55" cy="3.48" r="0.54"/>
            <circle class="cls-6" cx="136.08" cy="3.48" r="0.54"/>
          </g>
          <g>
            <circle class="cls-6" cx="93.16" cy="8.58" r="0.54"/>
            <circle class="cls-6" cx="102.69" cy="8.58" r="0.54"/>
            <circle class="cls-6" cx="112.23" cy="8.58" r="0.54"/>
            <circle class="cls-6" cx="121.76" cy="8.58" r="0.54"/>
            <circle class="cls-6" cx="131.29" cy="8.58" r="0.54"/>
            <circle class="cls-6" cx="140.84" cy="8.58" r="0.54"/>
          </g>
          <g>
            <circle class="cls-6" cx="97.91" cy="13.74" r="0.54"/>
            <circle class="cls-6" cx="107.45" cy="13.74" r="0.54"/>
            <circle class="cls-6" cx="126.52" cy="13.74" r="0.54"/>
            <circle class="cls-6" cx="136.05" cy="13.74" r="0.54"/>
            <circle class="cls-6" cx="145.58" cy="13.74" r="0.54"/>
          </g>
          <g>
            <circle class="cls-6" cx="93.13" cy="18.75" r="0.54"/>
            <circle class="cls-6" cx="102.66" cy="18.75" r="0.54"/>
            <circle class="cls-6" cx="140.82" cy="18.75" r="0.54"/>
            <circle class="cls-6" cx="150.38" cy="18.75" r="0.54"/>
          </g>
        </g>
      </g>
      <g>
        <g>
          <path class="cls-9" d="M94.75,72a1.28,1.28,0,0,1,1.1,1.29,1,1,0,0,1-.95,1,14.07,14.07,0,0,1-2.81.55,5.14,5.14,0,0,1-.66-.05,6.87,6.87,0,0,1-3-1.35,26,26,0,0,1-4.21-4.38c-1.73,2.26-3.49,4.5-5.36,6.65-1.67,1.93-5.26,3.73-6.66,5.84a1.14,1.14,0,0,1-1,.57A1.22,1.22,0,0,1,70.07,81a1.27,1.27,0,0,1,.69-1.07,32.75,32.75,0,0,0,5.83-4.69q1.81-2.07,3.53-4.21c.93-1.17,1.83-2.38,2.74-3.57-1.41-1.72-4-4.79-5.94-4.79a1.63,1.63,0,0,0-1.46,1,.73.73,0,0,1-.65.42.86.86,0,0,1-.84-.84,1,1,0,0,1,.12-.45c.8-1.47,1.73-2.08,2.77-2.08C79,60.66,81.5,63.19,84,66c.51-.64,1-1.26,1.57-1.87,1.8-2,4.22-3.83,6.59-3.83a4.83,4.83,0,0,1,3.79,2,.89.89,0,0,1,.2.55,1.11,1.11,0,0,1-1.06,1.05.78.78,0,0,1-.62-.31A3.27,3.27,0,0,0,92,62.18c-2.4,0-4.87,3.05-6.56,5.32,2.59,2.9,5.1,5.62,7.07,5.62A2,2,0,0,0,94,72.39,1,1,0,0,1,94.75,72Z"/>
          <g>
            <path class="cls-1" d="M111.61,60c.55,0,1.08.29,1.08.82,0,3,.28,6.15.28,9.28,0,.17,0,.34,0,.52s0,.29,0,.44a34.09,34.09,0,0,1-1,8.4c-1.91,7.89-6,8.91-8,8.91A5.13,5.13,0,0,1,103,88.3h0c-1.75-.07-7.12-1.11-7.12-5.25a5.39,5.39,0,0,1,.47-2.17s.08-.14.08-.16c1.83-3.63,6.73-6.6,10.86-8.58a1.69,1.69,0,0,1,.56-.11,1,1,0,0,1,1,.87.52.52,0,0,1-.33.57,1.4,1.4,0,0,1-.17.09c-3.35,1.64-7.22,3.9-9.3,6.72a4.2,4.2,0,0,0-1,2.39,3.22,3.22,0,0,0,2.33,2.93,10,10,0,0,0,3.74.84,3.86,3.86,0,0,0,3.43-1.58c2.91-4.6,3.41-9.86,3.41-15,0-1.42-.06-2.82-.08-4.21,0,0,0-.09-.09-.07s-.08,0-.08,0c-1.5,2.38-3.63,4.55-6.21,4.55-.19,0-.16,0-.44,0l-.36,0c-3-.46-3.54-3.08-3.54-5.6,0-1.25.13-2.46.16-3.35,0-.53.5-.8,1-.8s1,.24,1,.78c0,.33-.17,1.24-.17,2.32,0,2.15.25,5.06,2,5.06h0a2.4,2.4,0,0,0,1.11-.36c3-1.59,4.73-4.83,5.45-7.51A.89.89,0,0,1,111.61,60Z"/>
            <path class="cls-10" d="M111.61,60c.55,0,1.08.29,1.08.82,0,3,.28,6.15.28,9.28,0,.17,0,.34,0,.52s0,.29,0,.44a34.09,34.09,0,0,1-1,8.4c-1.91,7.89-6,8.91-8,8.91A5.13,5.13,0,0,1,103,88.3h0c-1.75-.07-7.12-1.11-7.12-5.25a5.39,5.39,0,0,1,.47-2.17s.08-.14.08-.16c1.83-3.63,6.73-6.6,10.86-8.58a1.69,1.69,0,0,1,.56-.11,1,1,0,0,1,1,.87.52.52,0,0,1-.33.57,1.4,1.4,0,0,1-.17.09c-3.35,1.64-7.22,3.9-9.3,6.72a4.2,4.2,0,0,0-1,2.39,3.22,3.22,0,0,0,2.33,2.93,10,10,0,0,0,3.74.84,3.86,3.86,0,0,0,3.43-1.58c2.91-4.6,3.41-9.86,3.41-15,0-1.42-.06-2.82-.08-4.21,0,0,0-.09-.09-.07s-.08,0-.08,0c-1.5,2.38-3.63,4.55-6.21,4.55-.19,0-.16,0-.44,0l-.36,0c-3-.46-3.54-3.08-3.54-5.6,0-1.25.13-2.46.16-3.35,0-.53.5-.8,1-.8s1,.24,1,.78c0,.33-.17,1.24-.17,2.32,0,2.15.25,5.06,2,5.06h0a2.4,2.4,0,0,0,1.11-.36c3-1.59,4.73-4.83,5.45-7.51A.89.89,0,0,1,111.61,60Z"/>
          </g>
          <path class="cls-9" d="M137.65,59.65a1,1,0,0,1,.56-.14,1.16,1.16,0,0,1,1,.66,1.5,1.5,0,0,1,.11.5,1.15,1.15,0,0,1-.72,1,13,13,0,0,1-1.36.64.76.76,0,0,1-.3.5c-1.44,1.19-1.75,3.35-1.77,5.12,0,.28,0,.86,0,1.53,0,1.33.08,3,.58,3.35a1.05,1.05,0,0,1,.55.83c0,.69-.88,1.14-1.52,1.14h-.19a.75.75,0,0,1-.64-.78,1.07,1.07,0,0,1,.06-.3v-.28c0-.86-.56-2.08-.61-3-.06-.6-.09-1.24-.09-1.88a14.44,14.44,0,0,1,.09-1.63,11,11,0,0,1,1-3.66,22.94,22.94,0,0,1-6.32,1.11,8.67,8.67,0,0,0-1,3.27v1c0,.63-.09,1.42-.09,2.17a2.54,2.54,0,0,0,.7,2.1,1.1,1.1,0,0,1,.3.31,1.07,1.07,0,0,1,.17.55,1.31,1.31,0,0,1-.61,1,1.36,1.36,0,0,1-.64.19,1.05,1.05,0,0,1-.94-.58c-1-1.58-1-3.88-1-6.12V68a9.68,9.68,0,0,1,1.08-3.63,22.06,22.06,0,0,1-5.51-.64c-1.14,1-1.42,2.91-1.42,4.41,0,.3,0,.63.06,1a9.48,9.48,0,0,0,.86,4,1,1,0,0,1,.14.56,1.33,1.33,0,0,1-1.36,1h-.08a.89.89,0,0,1-.89-1v-.36a29.91,29.91,0,0,0-.64-3.38,15.45,15.45,0,0,1-.19-2.27c0-.33,0-.66.06-1,.22-1.55.63-2.68.8-3.93a5.35,5.35,0,0,1-.36-.83c0-.5.61-.92,1.11-.92.08,0,1.55.28,1.63.31.25,0,.47.11.72.14a1.09,1.09,0,0,1,.28.11,21.91,21.91,0,0,0,5.51.52h.31a.76.76,0,0,1,.49,0,15.16,15.16,0,0,0,1.67-.09,22.39,22.39,0,0,0,8.11-2.3A2.05,2.05,0,0,1,137.65,59.65Z"/>
          <path class="cls-9" d="M151.41,72.93a6.72,6.72,0,0,1-5,2.58A4.69,4.69,0,0,1,143,74a6.06,6.06,0,0,1-1.75-4.27,12.3,12.3,0,0,1,1.58-5.44l.09-.15a.1.1,0,0,1,0-.06c0-.09.11-.21.14-.3a5.6,5.6,0,0,1,3.74-2.16c0-.42,0-.75,0-.84s0-.12,0-.18,0-.2,0-.3a.72.72,0,0,1,.63-.82s.19,0,.42,0a2,2,0,0,1,.61.08,1.25,1.25,0,0,1,.65,1.22,1.85,1.85,0,0,1,0,.23,5.41,5.41,0,0,0-.12.78,4.76,4.76,0,0,1,2.7,1.77,7.31,7.31,0,0,1,1.64,4.54A7.6,7.6,0,0,1,151.41,72.93ZM150,64.79a3.57,3.57,0,0,0-1.41-.76,15,15,0,0,1-.81,3.49.93.93,0,0,1-.32,0c-.45,0-1.06-.23-1.06-.8v-.09c.06-.33.21-1.92.26-2.89a2.07,2.07,0,0,0-1.69.94s-.06.15-.09.18a.61.61,0,0,0-.11.18.84.84,0,0,0-.15.24,10.79,10.79,0,0,0-1.2,4.44,2.89,2.89,0,0,0,.63,2.2,4.21,4.21,0,0,0,2.7,1.29,4,4,0,0,0,3.16-1.77,5.84,5.84,0,0,0,1.29-3.37A4.72,4.72,0,0,0,150,64.79Z"/>
          <path class="cls-9" d="M167.34,62.75a5.15,5.15,0,0,1,1.22,3.65A10.88,10.88,0,0,1,166.89,72a7.93,7.93,0,0,1-.91,1.16,5.84,5.84,0,0,1-4.24,1.69,10.12,10.12,0,0,1-2.88-.47l-.11.11c.16,6.26.8,12.41,3,18.26a1.67,1.67,0,0,1,.06.39.9.9,0,0,1-.2.55,1.2,1.2,0,0,1-.8.28,1.11,1.11,0,0,1-.69-.22,1.15,1.15,0,0,1-.23-.42A67,67,0,0,1,156.59,74c0-4.49.77-8.56,2.91-10.75a5.76,5.76,0,0,1,4.23-1.64c.36,0,.7.06,1.06.09A4.19,4.19,0,0,1,167.34,62.75Zm-6,10a4.44,4.44,0,0,0,3.32-1.31l.12-.08a6,6,0,0,0,1.1-1.69,12.76,12.76,0,0,0,.47-3,3,3,0,0,0-.72-2.27l-.11-.11a1.84,1.84,0,0,0-1.33-.53,4.93,4.93,0,0,0-3.18,1.58l-.09.08,0,0a4.81,4.81,0,0,0-1.36,2.27L159.22,69c-.19,1.08-.36,2.1-.45,3.18l.12.11A7.8,7.8,0,0,0,161.38,72.78Z"/>
        </g>
        <g>
          <path class="cls-1" d="M8.73,145.71a3.11,3.11,0,0,1-.5-1.8l.15-12.83q.24-9.32.23-14.44,0-17.81-2-27.27a3.38,3.38,0,0,1,2.9-1.76,10.71,10.71,0,0,1,5.16,1.26,11.34,11.34,0,0,1,3.85,3.4,17.35,17.35,0,0,1,3,9.93,21.14,21.14,0,0,1-2.44,10.24,17.15,17.15,0,0,1-7.11,7l.16,7.71.15,4c.05.87.08,2.12.08,3.75q.23,5.11.23,8.32a3.77,3.77,0,0,1-.62,2.29,2.17,2.17,0,0,1-1.91.85A1.54,1.54,0,0,1,8.73,145.71Zm7.48-35.83a16.5,16.5,0,0,0,1.42-7v-.08a31.88,31.88,0,0,0-.39-4.43,6,6,0,0,0-.83-1.83c-.41-.61-.64-1-.69-1.07a13.26,13.26,0,0,0-2.83-2.37l-2-1.45q0,3.9.46,12.07l.46,12.07A19.18,19.18,0,0,0,16.21,109.88Z"/>
          <path class="cls-1" d="M42.8,145.59a1.83,1.83,0,0,1-.57-1.52v-10a10.74,10.74,0,0,0-3.75-1.22,39.49,39.49,0,0,0-5.19-.69,12.88,12.88,0,0,0-1.22,3.9l-.31,1.52c-.05.36-.2,1.15-.46,2.37a25.06,25.06,0,0,1-.84,3.17,10.73,10.73,0,0,1-.92,2.1q-2.89,0-3.36-1.53.84-1.22,1.91-7.18l2.52-14q1.68-9.93,3.1-17a96.83,96.83,0,0,1,3-11.76c1.17-3.52,2.29-5.27,3.36-5.27a4.09,4.09,0,0,1,2.44.61q0,3.06,1.45,14.74a143.34,143.34,0,0,1,1.53,15.66,113.61,113.61,0,0,0,.84,11.62q.76,7.71.77,12.3a2.26,2.26,0,0,1-2.53,2.59A2.82,2.82,0,0,1,42.8,145.59Zm-.65-16.19c-.15-2.24-.41-5-.76-8.33q-1.77-17.26-1.76-21.16V99.3q-.77.77-2.1,6.91t-2.48,13.18a91.64,91.64,0,0,0-1.23,9.32,24.71,24.71,0,0,0,6.8.92A6.67,6.67,0,0,0,42.15,129.4Z"/>
          <path class="cls-1" d="M68.09,146.47a3,3,0,0,1-.5-1.79q0-16-.61-27a19.11,19.11,0,0,0-2.6-.31,13.48,13.48,0,0,0-4.51.54q0,4.28.69,12.91.61,9.17.61,13a2.35,2.35,0,0,1-.46,1.41,1.35,1.35,0,0,1-1.14.65c-.66,0-1.28-1.17-1.84-3.51q-1.21-5.2-2-21.78-.54-11.22-.54-24.14-.08-2.37-.07-6.72c0-.92.43-1.38,1.3-1.38a3.56,3.56,0,0,1,1.56.39,3.37,3.37,0,0,1,1.19.84,45.56,45.56,0,0,0-.31,5.73c0,2.14.1,4.73.31,7.79q.23,5.26.23,7.94v1.38a10.27,10.27,0,0,0-.08,1.45,17.14,17.14,0,0,0,.15,2c.31,0,.82,0,1.53-.08s1.43-.13,2.14-.23c1.68-.15,2.93-.23,3.74-.23q0-6.65-.15-12.3L66.6,90.28V88.22a4.2,4.2,0,0,1,1.75.35,2.76,2.76,0,0,1,1.15.87,5.29,5.29,0,0,1,.84,2.91V94.1q0,6.57.76,25.14.69,16.8.69,25.21a3.06,3.06,0,0,1-.65,1.91,1.91,1.91,0,0,1-1.56.84A1.66,1.66,0,0,1,68.09,146.47Z"/>
          <path class="cls-1" d="M85.35,145.48a5.3,5.3,0,0,1-.65-2.71q0-2.52.31-6.19l.15-2,.15-4q0-2.69-.53-11.92t-.54-11.92c0-.15,0-.45,0-.88s0-1.11,0-2,.08-2.27.08-3.75q0-5.57-.77-7.1a18.3,18.3,0,0,0-2,.23l-2.14.15a2.85,2.85,0,0,1-1.76-.57A1.77,1.77,0,0,1,77,91.28c0-.61.61-1.15,1.83-1.61a38.7,38.7,0,0,1,9.09-1.3c1.73-.1,2.78-.15,3.13-.15a2.67,2.67,0,0,1,1.68.61,2,2,0,0,1,.12,3,2.41,2.41,0,0,1-1.64.57l-1.38-.07a11.37,11.37,0,0,0-1.37-.08h-.77a91.69,91.69,0,0,1,.54,9.4l-.08,4.89c0,1.47-.08,3.13-.08,5q0,3.67.31,8.79c.25,4.23.38,7.15.38,8.78q0,2.91.31,6.88t.3,6.88c0,2.49-.74,3.74-2.21,3.74A2,2,0,0,1,85.35,145.48Z"/>
          <path class="cls-1" d="M114.76,145.59a1.83,1.83,0,0,1-.57-1.52v-10a10.67,10.67,0,0,0-3.74-1.22,39.85,39.85,0,0,0-5.2-.69,12.88,12.88,0,0,0-1.22,3.9l-.31,1.52q-.07.54-.45,2.37a29,29,0,0,1-.84,3.17,12.09,12.09,0,0,1-.92,2.1q-2.91,0-3.36-1.53c.56-.81,1.19-3.2,1.91-7.18l2.52-14q1.68-9.93,3.09-17a96.83,96.83,0,0,1,3-11.76c1.17-3.52,2.29-5.27,3.36-5.27a4.14,4.14,0,0,1,2.45.61q0,3.06,1.45,14.74a143.34,143.34,0,0,1,1.53,15.66,110.78,110.78,0,0,0,.84,11.62q.75,7.71.76,12.3c0,1.73-.84,2.59-2.52,2.59A2.85,2.85,0,0,1,114.76,145.59Zm-.65-16.19q-.23-3.36-.76-8.33-1.75-17.26-1.76-21.16V99.3q-.77.77-2.1,6.91T107,119.39a93.65,93.65,0,0,0-1.22,9.32,24.66,24.66,0,0,0,6.8.92A6.68,6.68,0,0,0,114.11,129.4Z"/>
          <path class="cls-1" d="M149,147.28a4.32,4.32,0,0,1-.46-2.22l-.08-11.31c0-1-.07-2.57-.07-4.81q-.15-7.11-.15-16V109q-.69,3.68-2.37,10.31-1.68,6.89-2.37,11.31v.46l-.23,1.45a14.71,14.71,0,0,1-.76,3.44,2.52,2.52,0,0,1-2.37,1.83c-1.84,0-2.75-2.39-2.75-7.18a48.7,48.7,0,0,0-.81-8.52q-.79-4.55-2.55-11.19l-2.3-8.56-.15,9.17q0,4.13.38,15.74l.16,5.2.15,10.46a4.24,4.24,0,0,1-1.15,2.9,2.82,2.82,0,0,1-2.63-1.18,6.68,6.68,0,0,1-.73-3.48l.15-6.26c.16-2.75.23-4.81.23-6.19L127.94,114l-.15-14.82q0-3.29.15-9.86L130,88.07a2,2,0,0,1,1.23.88,13.4,13.4,0,0,1,1.37,2.56q1.91,4.74,5,18.94c.3,1.33.5,2.42.61,3.29q.91,4.42,1.3,6.72l1.14,5.88.54-2.52,1.45-6.26c.81-3.67,1.49-6.88,2-9.63s1.06-5.73,1.57-8.94q.84-5.73,1.07-9.55V89a2.3,2.3,0,0,1,.92-1.57,2.94,2.94,0,0,1,1.83-.57,1.58,1.58,0,0,1,1.22.61,1.94,1.94,0,0,1,.54,1.3q0,9.17.68,27.42.39,8.94.54,17.5.15,3.9.15,9.85a5.49,5.49,0,0,1-.92,3.14,2.54,2.54,0,0,1-2.06,1.37A1.4,1.4,0,0,1,149,147.28Z"/>
          <path class="cls-1" d="M175.76,144.68a43.13,43.13,0,0,1-.38-5.5q-.23-5.88-.34-12.26c-.08-4.26-.12-7.35-.12-9.29a6.31,6.31,0,0,0-2.63,2.11,16.57,16.57,0,0,0-1.8,3.39,21.58,21.58,0,0,0-1.37,7.42v1.91c0,.3,0,1.24-.08,2.82a49.87,49.87,0,0,1-.46,5.2,7.27,7.27,0,0,1-3.82,5.73,2.75,2.75,0,0,1-1.37.3,2.56,2.56,0,0,1-1.64-.5,1.22,1.22,0,0,1-.42-1.41,1.4,1.4,0,0,1,.45-.76,3.72,3.72,0,0,1,.88-.46,3.9,3.9,0,0,0,.88-.46,3.79,3.79,0,0,0,1.15-2.9l.07-6.42c.1-2.49.23-4.42.38-5.77a23.37,23.37,0,0,1,1.15-4.7,22,22,0,0,1,1.45-3.17,17.92,17.92,0,0,1,1.68-2.78,12,12,0,0,1-5.61-5q-1.58-3-1.57-8.71a25.45,25.45,0,0,1,1.61-8.86,8.23,8.23,0,0,1,5.27-5.42l3.36-1.15a3.8,3.8,0,0,1,1.53-.31,6.81,6.81,0,0,1,3.66,1.38,2.69,2.69,0,0,1,1.3,2.52c-.3,4.28-.46,7.51-.46,9.7v17q0,8.1.16,12.23c.05,2.08.12,3.94.23,5.57s.17,3,.23,4l.22,4.2v.46a2,2,0,0,1-.3,1.3,1.79,1.79,0,0,1-1.22.31A1.9,1.9,0,0,1,175.76,144.68ZM174.62,91c-.26.11-.83.31-1.72.61a12.33,12.33,0,0,0-2.33,1.07,5.06,5.06,0,0,0-2.1,2.26A16.14,16.14,0,0,0,167,98.53a9.17,9.17,0,0,0-.46,2.91l.15,3.36c0,1.58,0,2.83.08,3.74A5.69,5.69,0,0,0,168,112.1a6.1,6.1,0,0,0,3.32,1.94c.56.16,1.21.37,1.95.65s1.29.5,1.64.65Z"/>
          <path class="cls-1" d="M199.18,145.82a5.86,5.86,0,0,1-1.57-3.74,97.38,97.38,0,0,1-.61-10.31l-.15-4.74a7,7,0,0,0-1.22-3.86,4.55,4.55,0,0,0-3.14-2.17q.54,15.88.54,23.53c0,1.42-.51,2.14-1.53,2.14a2.73,2.73,0,0,1-1.22-.31,1.93,1.93,0,0,1-1.22-2.22,67.57,67.57,0,0,0,.61-8.93q0-3.21-.23-6.73c-.05-1.12-.08-2.82-.08-5.12-.05-.71-.08-1.83-.08-3.36q-.3-12.52-.68-18.87-.24-3.81-1.15-9.78a4,4,0,0,1-.08-.91c0-1.58.67-2.5,2-2.75a1.78,1.78,0,0,1,1.87.65,3.75,3.75,0,0,1,.81,2.25c0,.66.1,1.44.15,2.33s.07,1.59.07,2.1l.08,2.52c.1,3,.15,5.12.15,6.5v13.59a47.82,47.82,0,0,0,1.68-5q1-3.36,1.53-5.73c.16-.82.32-1.81.5-3s.32-2.06.42-2.67A50.47,50.47,0,0,1,198,93.42a8.23,8.23,0,0,1,3.75-5.12,3.94,3.94,0,0,1,1.91-.69,4.19,4.19,0,0,1,1.45.38,2.24,2.24,0,0,1,1.22,2.29c0,.87-.53,1.43-1.6,1.69-2,.35-3.36,1.7-4,4-.35,1.43-.68,3-1,4.66a26.75,26.75,0,0,1-.92,4.36,27.56,27.56,0,0,0-1.45,6.42,21.67,21.67,0,0,1-.68,3.62,6.53,6.53,0,0,1-1.46,2.64,4.83,4.83,0,0,1,3.29,2.67,15.44,15.44,0,0,1,1.76,6.19q.3,2.69,1,11.62l.15,1.67a2.11,2.11,0,0,0,1.84,2.14,4.06,4.06,0,0,1,1.75,1,2.19,2.19,0,0,1,.54,1.57,2.69,2.69,0,0,1-.84,2,3,3,0,0,1-2.14.8A4.45,4.45,0,0,1,199.18,145.82Z"/>
          <path class="cls-1" d="M214,145.82a2.9,2.9,0,0,1-.84-2.21q.23-3.9.23-8c0-2.34-.06-5.9-.16-10.69q-.08-3.28-.53-9.86c-.05-.86-.13-2.12-.23-3.78s-.18-3.12-.23-4.39c-.05-.87-.08-2.17-.08-3.9l.08-7.79a16.77,16.77,0,0,0-.15-1.91l-.08-1.76a2.7,2.7,0,0,1,.65-1.91,2.28,2.28,0,0,1,1.72-.68,2.23,2.23,0,0,1,2.52,2.06,29.53,29.53,0,0,1,.31,3.44,17.1,17.1,0,0,1-.23,2.75,37.56,37.56,0,0,0-.38,5.11l.07,2.3q.3,7,.31,12.91v9.09q0,2.37.15,7.1l.46.08.92-3q2.28-7.71,4.35-14.06a68,68,0,0,0,2.29-9.24c.36-1.83.69-3.31,1-4.43L230,89.37a4,4,0,0,1,1.3-1.49,2.35,2.35,0,0,1,1.53-.42,3.4,3.4,0,0,1,1.76,1.26,2.86,2.86,0,0,1,.76,2,52.84,52.84,0,0,1-.46,5.58q-.69,9.56-.76,12-.31,10.25-.31,15.36,0,2.44.39,7.68t.45,6.91l.31,3.82a3.34,3.34,0,0,1-.76,2.52,2.87,2.87,0,0,1-2.22.92,2.06,2.06,0,0,1-1.45-.57,2.32,2.32,0,0,1-.69-1.57v-.69l.08-15.35v-2.75q-.15-4-.31-12.23v-8.17a.6.6,0,0,0-.38-.08c-.31,0-.75,1.21-1.34,3.48s-1.13,4.53-1.64,6.8-.84,3.7-1,4.31q-.69,3.28-.84,3.75-2.15,7.26-3.44,12.11t-2.14,9.81a2.6,2.6,0,0,1-2.75,2.45A2.73,2.73,0,0,1,214,145.82Z"/>
        </g>
      </g>
    </g>
  </g>
</svg>
