<svg xmlns="http://www.w3.org/2000/svg" viewBox="0 0 300 300">
  <defs>
    <style>
      .cls-1 {
        stroke: #006837;
        stroke-width: 0.32px;
        opacity: 0.15;
      }

      .cls-1, .cls-2, .cls-7 {
        stroke-linecap: round;
      }

      .cls-1, .cls-10, .cls-13, .cls-3 {
        stroke-miterlimit: 10;
      }

      .cls-2, .cls-3, .cls-4 {
        fill: #ff931e;
      }

      .cls-2 {
        stroke: #f15a24;
        stroke-width: 3.83px;
      }

      .cls-2, .cls-7 {
        stroke-linejoin: round;
      }

      .cls-3 {
        stroke: #1a1a1a;
      }

      .cls-10, .cls-13, .cls-3 {
        stroke-width: 0.64px;
      }

      .cls-13, .cls-5 {
        fill: #f15a24;
      }

      .cls-6 {
        opacity: 0.13;
      }

      .cls-16, .cls-7 {
        fill: none;
      }

      .cls-7 {
        stroke: #4a2e1d;
        stroke-width: 2.56px;
      }

      .cls-8, .cls-9 {
        fill: #fff;
      }

      .cls-8 {
        opacity: 0.1;
      }

      .cls-9 {
        opacity: 0.25;
      }

      .cls-10 {
        fill: #06594f;
      }

      .cls-10, .cls-13 {
        stroke: #42210b;
      }

      .cls-11 {
        fill: #023831;
      }

      .cls-12 {
        fill: #021e1b;
      }

      .cls-14 {
        fill: #006837;
      }

      .cls-15 {
        fill: #009245;
      }
    </style>
  </defs>
  <title>tent</title>
  <g id="Слой_4" data-name="Слой 4">
    <path class="cls-1" d="M5.47,212.48C1.9,189.92,35.82,165.3,59.39,154.64c31.89-14.42,60.4-10.31,113.33-1.95,64.66,10.2,115.93,20.78,123.69,42.2,9.76,27-38.28,64-72.1,75.81-10.92,3.81-33.09,1.16-77-4.3-31.9-4-47.85-5.94-61-9.37C55.49,249,9.32,236.88,5.47,212.48Z"/>
    <path class="cls-2" d="M237.65,146.7h0q-2.33-4.62-5-9.57c-3.46-6.37-7.37-13.12-11.77-20.12-3.81-6.07-8-12.34-12.57-18.7a358.77,358.77,0,0,0-24.24-30.22c-.86-1-1.76-1.94-2.7-3-8.17-8.82-19.56-19.19-36-21.67a9.24,9.24,0,0,0-.92-.11c-16.16-2.14-29.84,4.37-38.6,9.36l-.23.12c-.79.45-1.53.9-2.23,1.31-.27.15-.54.3-.8.46C91.94,60.91,82,69.51,66.84,93.66c-5.77,9.25-12.32,20.81-20,35.38-21.4,40.9-29.31,71.52-29.31,71.52l148.89,43.38L255.57,190S250.6,172.38,237.65,146.7Z"/>
    <path class="cls-3" d="M223.51,119.39,186.79,231.13c-5-13.92-18.85-46.4-23.61-68.93-2.67-12.67-4.74-36.53-2.08-52.51,1.26-7.61,3.6-13.42,7.46-15.39,3.25-1.65,7.2-1.94,11.5-1.28C196.39,95.54,217.65,111.78,223.51,119.39Z"/>
    <g>
      <path class="cls-4" d="M19.37,199.51a334.1,334.1,0,0,1,13.11-36.3C37.16,152.06,42.4,141,48,130.2c7.54-14.42,14.12-26.09,20.13-35.66C82.64,71.49,92.22,62.9,103,56.51c1.2-.71,2.33-1.37,3.49-2l.18-.11c3.18-1.66,5.59-2.42,7.65-2.42,1.58,0,6.39,0,10.59,11.15.45,1.2,1.76,6,5.38,22,9.93,43.6,29.79,137.76,33.65,156.09Z"/>
      <path class="cls-5" d="M114.32,53.93h0c1.25,0,5.06,0,8.79,9.91.36.94,1.52,5,5.31,21.71,9.46,41.51,27.91,128.88,33,152.94L21.75,198.2A344.39,344.39,0,0,1,34.24,164c4.67-11.1,9.88-22.16,15.49-32.86,7.51-14.38,14.07-26,20.05-35.53C84.06,72.84,93.45,64.41,104,58.17c1.18-.7,2.28-1.35,3.4-1.93l.22-.12,0,0c2.83-1.48,5-2.17,6.7-2.17m0-3.83a18.85,18.85,0,0,0-8.48,2.61l-.23.12c-1.21.63-2.4,1.33-3.59,2C91.44,61.14,81.51,69.69,66.54,93.52c-5.86,9.33-12.48,21-20.21,35.79-6.35,12.13-11.5,23.36-15.62,33.15C20.93,185.68,17,200.82,17,200.82l149.45,43.12S143.27,133.45,132.16,84.7c-2.72-12-4.72-20.25-5.46-22.22-3.53-9.38-7.84-12.39-12.38-12.38Z"/>
    </g>
    <path class="cls-6" d="M255.57,190l-89.1,53.93L17.58,200.56s3.91-15.15,13.69-38.36c2.55,2.27,5.31,4.52,8.3,6.71a115.9,115.9,0,0,0,34.28,17c5.88,1.88,18.67,3.5,44.26,6.73,19,2.41,29.75,3.44,36.68,3.51.44,0,.89,0,1.31,0a31.58,31.58,0,0,0,10.07-1.44c1.6-.51,1.67.54,6.29-1.51,6.26-2.79,10.18-18.64,16.29-17.24,4,.9,12.27,22.71,21.69,20.22,14.21-3.76,26.89-7.11,41.73-16.29C254.54,186.33,255.57,190,255.57,190Z"/>
    <path class="cls-7" d="M258.75,189.79a89.53,89.53,0,0,1-4.2-10c-2.87-7.81-15.2-33.46-15.2-33.46-1.57-3.14-3.5-6.43-5.32-9.8-3.53-6.49-7.14-13.37-11.63-20.51-3.88-6.19-8.54-12.51-13.21-19a362.17,362.17,0,0,0-24.58-30.8c-8.49-9.48-21.47-22-40.17-24.79-.31-.05-.63-.09-.94-.12C127.47,39.52,128,66,128,66"/>
    <path class="cls-8" d="M213.07,142.82c-2.94.92-6.06-2.19-9.67-5.28-1-.81-9.43-6.21-26.37-17-6-3.82-10.15-6.7-15.93-10.85,1.26-7.61,3.6-13.42,7.46-15.39,3.25-1.65,7.2-1.94,11.5-1.28,3.66,2.35,14.91,6.9,19.17,9.69,26.73,17.52,26.51,19.69,18.83,27.8C214.6,134.16,216.51,141.75,213.07,142.82Z"/>
    <path class="cls-9" d="M211.12,132.08c-2.41.74-7.1-5-10.06-7.47-.78-.65-10.34-5.94-24.22-14.58-4.92-3.06-8.9-4.55-13.63-7.88,2.47-5.71,2.33-5.4,5.09-7.3S173.56,93,176.56,93c3,1.88,12.27,6.27,15.76,8.51,21.89,14,30.46,16.93,24.16,23.43C213.65,127.9,213.93,131.22,211.12,132.08Z"/>
    <path class="cls-10" d="M232.27,204.11l-45.5,27.54c-.59-6.77-1.47-18.08-1.31-30.31v0c0-2.57.12-5.17.26-7.78a123.92,123.92,0,0,1,2.8-21.35c2-8.63,4.56-19.3,7.88-28.87.16-.45.32-.9.49-1.34,3.78-10.5,8.55-19.47,14.71-22.6,15.54-7.93,24.36,15.27,24.91,27.39C237.69,172.42,235,199.15,232.27,204.11Z"/>
    <path class="cls-11" d="M224.64,207l-31.27,17.36-2.14.18,0-.05c-.15-.86-2.12-11.6-4.53-25.4-.32-1.8-.64-3.66-1-5.56a123.92,123.92,0,0,1,2.8-21.35c2-8.63,4.56-19.3,7.88-28.87.16-.45.32-.9.49-1.34a20.59,20.59,0,0,1,3.32,2.9,26.66,26.66,0,0,1,3.67,5.38c.21.34.41.71.64,1.11a193.48,193.48,0,0,1,12.12,26.29C221.52,189.38,224.64,207,224.64,207Z"/>
    <path class="cls-12" d="M222.49,207.18l-31.26,17.37-5.12-13.17s-.26-4-.65-10v0c.13-9.72.94-20,3.06-29.13,2-8.63,4.56-19.3,7.88-28.87a15.61,15.61,0,0,1,1.67,1.74c5.27,6.3,11.52,21.06,16.41,32.78S222.49,207.18,222.49,207.18Z"/>
    <path class="cls-7" d="M106,49.15c9.91-6.22,22.59-11.26,39.53-7.51"/>
    <path class="cls-7" d="M12,203.07s6.56-18.47,16.67-42.28c4.25-10,9.89-22.33,16.45-34.78,28.43-54,43.17-66.49,58.38-75.45,8.83-5.2,19.09-5.53,24.17,14.34,8.4,32.83,23.76,112.64,28.34,132.54,6.95,30.15,14,53.92,14,53.92"/>
    <g>
      <path class="cls-13" d="M24.47,189a3.1,3.1,0,0,1-1-.18L18,187A3.19,3.19,0,1,1,20,181l5.46,1.85a3.2,3.2,0,0,1-1,6.23Z"/>
      <path class="cls-13" d="M59.05,113.88a3.17,3.17,0,0,1-1.34-.29l-5.08-2.36a3.2,3.2,0,0,1,2.69-5.8l5.08,2.36a3.19,3.19,0,0,1-1.35,6.09Z"/>
      <path class="cls-13" d="M97.6,63a3.2,3.2,0,0,1-2.54-1.25l-2.49-3.25a3.2,3.2,0,0,1,5.07-3.89l2.49,3.25A3.19,3.19,0,0,1,97.6,63Z"/>
      <path class="cls-13" d="M128.41,78.38a3.2,3.2,0,0,1-1.07-6.21l2.58-.92a3.2,3.2,0,0,1,2.15,6l-2.58.92A3.15,3.15,0,0,1,128.41,78.38Z"/>
      <path class="cls-13" d="M140.24,134.73a3.19,3.19,0,0,1-.92-6.25l2.53-.77a3.2,3.2,0,1,1,1.86,6.12l-2.54.76A3,3,0,0,1,140.24,134.73Z"/>
      <path class="cls-13" d="M161.78,234.85a3.2,3.2,0,0,1-.73-6.31l2.93-.69a3.2,3.2,0,0,1,1.46,6.23l-2.93.68A3,3,0,0,1,161.78,234.85Z"/>
      <path class="cls-13" d="M164.26,53.69a3.26,3.26,0,0,1-1.59-.42,3.2,3.2,0,0,1-1.18-4.37L163,46.24a3.19,3.19,0,1,1,5.54,3.18L167,52.09A3.21,3.21,0,0,1,164.26,53.69Z"/>
      <path class="cls-13" d="M207.58,102.71a3.2,3.2,0,0,1-2.05-5.65l3.35-2.8A3.2,3.2,0,1,1,213,99.17l-3.34,2.8A3.19,3.19,0,0,1,207.58,102.71Z"/>
      <path class="cls-13" d="M252.06,187.71a3.2,3.2,0,0,1-1.52-6l4.32-2.31a3.19,3.19,0,1,1,3,5.63l-4.32,2.32A3.24,3.24,0,0,1,252.06,187.71Z"/>
    </g>
    <path class="cls-8" d="M181.36,65.13a19.34,19.34,0,0,1-4.92,7.49c-6.51,6.1-14-2.2-27.56.88-8.62,2-11.4,6.25-16.72,11.2a48,48,0,0,1-12.73,8.59c-4.23,2-17.79,8.27-35,5.85a57,57,0,0,1-17.57-5.48l-.3-.14c15-23.83,24.9-32.38,35.48-38.65,1.19-.71,2.38-1.41,3.59-2l.23-.12c8.76-5,22.44-11.5,38.6-9.36a9.24,9.24,0,0,1,.92.11C161.8,45.94,173.19,56.31,181.36,65.13Z"/>
    <g>
      <path class="cls-14" d="M138.92,254.58a6.07,6.07,0,0,1-1.52-1.84,5.75,5.75,0,0,1-.66-2.18c-.22-1.35-.48-2.77-.78-4.15-.57-2.77-1.25-5.53-2-8.25a55,55,0,0,0-2.87-7.95,21.83,21.83,0,0,0-2.1-3.63,8.66,8.66,0,0,0-3.14-2.77,8,8,0,0,1,3.76,2.23,19.2,19.2,0,0,1,2.73,3.49,42.24,42.24,0,0,1,3.71,7.95,72.46,72.46,0,0,1,2.41,8.4c.31,1.43.6,2.83.82,4.31a11.26,11.26,0,0,1,.09,2.07A5.83,5.83,0,0,1,138.92,254.58Z"/>
      <g>
        <path class="cls-15" d="M138.92,254.49c-2-2.41-3.08-5.25-4.38-7.67a38.19,38.19,0,0,0-2-3.48,17.22,17.22,0,0,0-1.06-1.47,8.63,8.63,0,0,0-1.09-1,7.34,7.34,0,0,0-2.82-1.2,26,26,0,0,0-3.86-.49,32.5,32.5,0,0,1-4.48-.57,9.33,9.33,0,0,1-2.3-.83,4.33,4.33,0,0,1-1.77-1.64,7.89,7.89,0,0,0,4.13-.11c1.34-.3,2.72-.67,4.2-.94a17.2,17.2,0,0,1,4.82-.27,10.21,10.21,0,0,1,5.16,2,10,10,0,0,1,2,2.05,14,14,0,0,1,1.26,2.21,20.53,20.53,0,0,1,1.5,4.48A45.12,45.12,0,0,1,138.92,254.49Z"/>
        <path class="cls-15" d="M138.92,254.49a7.29,7.29,0,0,1-2.53-3.84,14.92,14.92,0,0,1-.45-4.59,15.3,15.3,0,0,0-.08-3.58,2.49,2.49,0,0,0-.19-.46,9.78,9.78,0,0,1-.44-1.25,12.73,12.73,0,0,1-.48-2.43,22.3,22.3,0,0,1,1.06-9,24.63,24.63,0,0,1,1.7-4.07,17.66,17.66,0,0,1,1.16-1.91,7.84,7.84,0,0,1,1.5-1.71c-.13,1.47-.09,2.9-.15,4.3l-.16,4.13a69.41,69.41,0,0,0,0,7.75,16.72,16.72,0,0,0,.22,1.7c.05.28.12.52.18.77a7.71,7.71,0,0,1,.2.77c.06.28.09.54.12.8a13.21,13.21,0,0,1-.8,4.78C138.92,249.27,138.19,251.53,138.92,254.49Z"/>
        <path class="cls-15" d="M138.92,254.49c-2.39-1.44-4.5-2.82-6.62-4.08s-4.22-2.38-6.37-3.41-4.34-1.95-6.65-2.81-4.7-1.63-7.32-2.6a17,17,0,0,1,8.13-1.34,22.41,22.41,0,0,1,14.76,7.07A17.23,17.23,0,0,1,138.92,254.49Z"/>
        <path class="cls-15" d="M138.92,254.49a12.24,12.24,0,0,1-1.23-3.41,8.49,8.49,0,0,1,.1-3.9,7.53,7.53,0,0,1,2.37-3.7,11.15,11.15,0,0,1,3.48-2,12.14,12.14,0,0,1,7.64-.33,9.76,9.76,0,0,1,5.81,4.28,22.83,22.83,0,0,0-6.3-.5,15.92,15.92,0,0,0-7.52,2.45,5.85,5.85,0,0,0-1.59,1.47C140.69,250.07,140.1,252.32,138.92,254.49Z"/>
        <path class="cls-15" d="M138.9,254.52c-.38-1.3-.61-2.63-.92-4-.14-.65-.27-1.32-.43-1.95,0-.16-.08-.32-.12-.43a3.77,3.77,0,0,1-.29-.61,5.65,5.65,0,0,1-.25-1.25,11.23,11.23,0,0,1,.68-4.53,19.82,19.82,0,0,1,1.89-3.9,24.89,24.89,0,0,1,5.66-6.24,12.73,12.73,0,0,1,8.16-3,32,32,0,0,0-5.26,5.72c-1.35,2.18-2.89,4.33-4.4,6.33s-3.14,4-4.42,6c-.81.85-.36,2.45-.4,3.75S138.83,253.18,138.9,254.52Z"/>
        <path class="cls-15" d="M138.92,254.49a13.64,13.64,0,0,0-2.87-.5c-.92-.1-1.83-.22-2.75-.38a28.24,28.24,0,0,1-5.42-1.46l-.33-.13-.24-.07a4.28,4.28,0,0,0-.46-.17c-.32-.1-.64-.17-1-.25a12.84,12.84,0,0,0-2.24-.17c-.83,0-1.73.06-2.7.12-.49,0-1,.05-1.53,0a4.85,4.85,0,0,1-1.59-.25c.82-.67,1.44-1.37,2.23-2a11.76,11.76,0,0,1,2.67-1.68,9.41,9.41,0,0,1,3.37-.78H127l.92.13a5.57,5.57,0,0,1,.9.2l.44.13.33.11a23.85,23.85,0,0,1,5.22,2.42,13.8,13.8,0,0,1,2.43,1.9A5.31,5.31,0,0,1,138.92,254.49Z"/>
        <path class="cls-15" d="M138.92,254.49a7.46,7.46,0,0,1,2.45-4.71,9.75,9.75,0,0,1,4.84-2.44,9.88,9.88,0,0,1,5.39.48,7.59,7.59,0,0,1,4,3.44l-4.68.53c-1.36.15-2.58.36-3.79.57s-2.41.5-3.73.85S140.71,254,138.92,254.49Z"/>
      </g>
      <path class="cls-14" d="M139,254.36a14.5,14.5,0,0,1,1.85-4.41,9,9,0,0,1,1.65-1.94,5.23,5.23,0,0,1,2.6-1.28,4.5,4.5,0,0,1,1.52,0,5.42,5.42,0,0,0,.94.1,17.43,17.43,0,0,0,2.13-.09l2.28-.2a11.73,11.73,0,0,1,1.19,0,4.29,4.29,0,0,1,.62,0c.19,0,.45.06.57.26-.18-.08-.36,0-.53.08l-.52.24-1,.52a18.16,18.16,0,0,1-2.17.93,11,11,0,0,1-2.42.58,7.78,7.78,0,0,1-1.37,0,5,5,0,0,0-.42,0l-.34,0a7.26,7.26,0,0,0-3.06,2.05A31.25,31.25,0,0,1,139,254.36Z"/>
      <path class="cls-14" d="M138.85,254.49a8.2,8.2,0,0,0-1.73-.73,5.74,5.74,0,0,0-1.56-.07,8.11,8.11,0,0,1-2-.09,6.41,6.41,0,0,1-2.1-.83c-1.15-.68-2.15-1.41-3.18-2.08a12.27,12.27,0,0,0-1.54-.92,2.24,2.24,0,0,0-1.73-.23,2.18,2.18,0,0,1,1.94-.81,7.79,7.79,0,0,1,2.06.34,24.3,24.3,0,0,1,3.61,1.51,6.6,6.6,0,0,0,1.46.54c.49.12,1.06.19,1.76.35a4.05,4.05,0,0,1,2.08,1.05A3.41,3.41,0,0,1,138.85,254.49Z"/>
      <path class="cls-14" d="M138.72,254.5c-.46-1.6-1-3.19-1.54-4.73a15.65,15.65,0,0,0-2-4.23c-.94-1.21-1.92-2.37-2.95-3.59-.51-.61-1.05-1.21-1.6-1.82l-.82-.94-.42-.49-.21-.25-.1-.13,0-.07,0,0,0,0h0a.14.14,0,0,1,0-.13A.11.11,0,0,1,129,238a.13.13,0,1,1,0,.25s.07,0,.11-.09a.12.12,0,0,0,0-.11h0l.07,0,.16,0a2.8,2.8,0,0,1,.31.09,6.45,6.45,0,0,1,.62.21,10.68,10.68,0,0,1,1.21.51,14.2,14.2,0,0,1,2.23,1.37,11,11,0,0,1,3.44,4,14,14,0,0,1,.87,2.61,24.83,24.83,0,0,1,.48,2.52,35.91,35.91,0,0,1,.38,5.06.12.12,0,0,1-.12.13A.14.14,0,0,1,138.72,254.5Z"/>
      <path class="cls-14" d="M138.8,254.45a41.3,41.3,0,0,1-.43-5.07,13.06,13.06,0,0,1,.27-2.54c.15-.86.28-1.71.52-2.66a7.2,7.2,0,0,1,1.36-2.54,8.06,8.06,0,0,1,2.07-1.84,5.41,5.41,0,0,1,5.19-.55.12.12,0,0,1,.06.17.15.15,0,0,1-.15.07,4.89,4.89,0,0,0-4.41,1.26,6.82,6.82,0,0,0-2.24,3.84,13.64,13.64,0,0,0,0,2.4,12.8,12.8,0,0,1,0,2.55,12.52,12.52,0,0,1-.6,2.58,6.78,6.78,0,0,1-1.34,2.41.14.14,0,0,1-.2,0A.12.12,0,0,1,138.8,254.45Z"/>
      <path class="cls-14" d="M138.92,254.58a5.54,5.54,0,0,1,2.19-2.7,5.61,5.61,0,0,1,3.52-.9,6.66,6.66,0,0,1,3.25,1.47,11.51,11.51,0,0,1,2.35,2.48c-1-.61-1.88-1.21-2.84-1.72a8,8,0,0,0-2.87-1,7,7,0,0,0-2.89.63A12.05,12.05,0,0,0,138.92,254.58Z"/>
      <path class="cls-14" d="M118.18,241.38a20.92,20.92,0,0,1,6.6.25,20.1,20.1,0,0,1,6.23,2.43,19.08,19.08,0,0,1,5.13,4.34,15.74,15.74,0,0,1,2.84,6.06.07.07,0,0,1,0,.08s-.05,0-.07,0c-.62-.92-1.15-1.88-1.75-2.78a18.23,18.23,0,0,0-2-2.5,28.81,28.81,0,0,0-4.71-4.31,19.19,19.19,0,0,0-5.81-2.67,20.58,20.58,0,0,0-6.45-.74.07.07,0,1,1,0-.13Z"/>
    </g>
  </g>
  <g id="Слой_3" data-name="Слой 3">
    <line class="cls-16" x1="-195.49" y1="40.96" x2="272.74" y2="-76.45"/>
  </g>
</svg>
