<?xml version="1.0" standalone="no"?>
<!DOCTYPE svg PUBLIC "-//W3C//DTD SVG 1.1//EN" "http://www.w3.org/Graphics/SVG/1.1/DTD/svg11.dtd" >
<svg xmlns="http://www.w3.org/2000/svg" xmlns:xlink="http://www.w3.org/1999/xlink" version="1.1">
<metadata>
Created by FontForge 20170924 at Fri Mar 18 16:44:45 2016
 By www-data
Copyright (c) 2016 by Yelena Madyankina &#38; Jovanny Lemonad. All rights reserved.
</metadata>
<defs>
<font id="Wes" horiz-adv-x="504" >
  <font-face 
    font-family="Wes"
    font-weight="400"
    font-stretch="normal"
    units-per-em="1000"
    panose-1="2 0 5 6 0 0 0 2 0 4"
    ascent="800"
    descent="-200"
    x-height="502"
    cap-height="698"
    bbox="-120 -270.102 1130 905"
    underline-thickness="50"
    underline-position="-100"
    stemh="21"
    stemv="59"
    unicode-range="U+000D-F6D4"
  />
<missing-glyph horiz-adv-x="459" 
d="M234 606c76 -3 119 -50 119 -114c0 -74 -123 -161 -123 -260c0 -16 5 -31 5 -49c0 -5 -1 -8 -9 -9c-15 0 -19 48 -19 75c0 95 102 143 102 232c0 45 -23 95 -91 95c-49 0 -67 -69 -67 -93c0 -7 0 -14 1 -24c-3 -5 -9 -9 -16 -9c-21 0 -19 16 -19 26c0 52 22 130 117 130z
M223 121c15 0 27 -12 27 -26c0 -9 -12 -24 -27 -24c-16 0 -24 11 -24 27c0 12 11 23 24 23zM407 694c1 -27 1 -120 1 -224c0 -257 -2 -363 -2 -438c0 -15 0 -27 1 -29c-3 -2 -53 -2 -116 -2c-103 0 -237 1 -241 2v694c24 1 78 1 138 1c79 0 169 -1 219 -4zM380 27v440v200
c-90 2 -213 1 -307 3c0 -50 7 -183 7 -243c0 -124 -1 -385 -2 -398c99 0 199 -2 302 -2z" />
    <glyph glyph-name=".notdef" horiz-adv-x="459" 
d="M234 606c76 -3 119 -50 119 -114c0 -74 -123 -161 -123 -260c0 -16 5 -31 5 -49c0 -5 -1 -8 -9 -9c-15 0 -19 48 -19 75c0 95 102 143 102 232c0 45 -23 95 -91 95c-49 0 -67 -69 -67 -93c0 -7 0 -14 1 -24c-3 -5 -9 -9 -16 -9c-21 0 -19 16 -19 26c0 52 22 130 117 130z
M223 121c15 0 27 -12 27 -26c0 -9 -12 -24 -27 -24c-16 0 -24 11 -24 27c0 12 11 23 24 23zM407 694c1 -27 1 -120 1 -224c0 -257 -2 -363 -2 -438c0 -15 0 -27 1 -29c-3 -2 -53 -2 -116 -2c-103 0 -237 1 -241 2v694c24 1 78 1 138 1c79 0 169 -1 219 -4zM380 27v440v200
c-90 2 -213 1 -307 3c0 -50 7 -183 7 -243c0 -124 -1 -385 -2 -398c99 0 199 -2 302 -2z" />
    <glyph glyph-name="afii10017" unicode="&#x410;" 
d="M504 18c0 -9 -6 -15 -13 -16h1h-3h-27s0 1 -2 1c-20 0 -52 -1 -80 -1h-16c-7 0 -12 7 -12 16c0 7 5 12 11 13h33c-9 31 -49 174 -59 212c0 1 -1 1 -2 2h-185c-6 0 -58 -190 -63 -214c0 0 4 -1 8 -1c9 0 22 1 22 1c6 -1 10 -6 10 -13c0 -9 -5 -15 -10 -16v0h-2h-24v1
c-18 0 -44 -1 -67 -1h-13c-6 0 -11 7 -11 16c0 16 11 14 60 14c9 0 182 646 189 668c2 5 9 10 12 10c5 0 12 -7 13 -12c11 -39 172 -634 178 -667h3h37c7 -1 12 -6 12 -13zM241 596c-31 -107 -59 -214 -87 -323h178c-30 111 -60 213 -88 323h-3z" />
    <glyph glyph-name="afii10018" unicode="&#x411;" horiz-adv-x="479" 
d="M409 300c0 -59 -2 -87 -2 -153c0 -17 0 -147 -130 -147h-214c-6 0 -13 6 -13 15c0 8 7 14 13 14h37v475v169c-26 0 -50 -5 -50 13c0 8 7 14 13 14c0 0 242 1 285 1c9 1 19 1 30 1c17 0 25 -4 29 -13c-4 -30 -8 -103 -21 -103c-34 0 -29 51 -30 86c-3 0 -133 1 -201 1
c0 -27 -1 -53 -1 -79c0 -52 1 -103 1 -162c9 1 32 13 83 13c151 0 171 -79 171 -145zM350 131v95c0 36 -1 70 -2 90c-3 42 -14 104 -117 104c-18 0 -36 -3 -53 -6c-33 -6 -26 -47 -26 -233c0 -53 2 -104 2 -137c0 -19 4 -23 32 -23c35 0 161 8 164 110z" />
    <glyph glyph-name="afii10019" unicode="&#x412;" horiz-adv-x="496" 
d="M437 334c7 -33 9 -64 9 -95c0 -226 -62 -239 -207 -239c-24 0 -67 1 -105 1h-69c-8 0 -15 5 -15 14c0 8 7 14 15 14c0 0 15 -1 25 -1c15 0 10 37 10 61c0 45 -1 97 -1 129c0 15 1 30 1 45c0 34 -1 68 -1 103v77v103c1 12 1 25 1 39c0 28 -1 58 -1 88c-30 0 -49 -3 -49 13
c0 9 7 14 15 14h28c7 -1 38 1 61 1c19 0 38 -1 56 -1c16 0 32 1 49 1c30 0 60 -3 85 -21c32 -31 39 -85 39 -130c0 -58 -4 -91 -36 -127c49 -27 75 -42 90 -89zM157 674v-249c125 3 176 2 176 124c0 33 -6 77 -27 105c-5 8 -32 30 -84 30c-18 0 -40 -3 -65 -10zM310 34
c52 23 70 111 70 188c0 106 -31 187 -134 187c-32 0 -75 -5 -90 -11c1 -29 1 -55 1 -83c0 -87 -3 -174 -3 -262c0 -19 4 -20 29 -23c23 -3 42 -7 65 -7c21 0 41 2 62 11z" />
    <glyph glyph-name="afii10020" unicode="&#x413;" horiz-adv-x="405" 
d="M375 700c18 0 26 -4 30 -13c-4 -41 -9 -71 -12 -104c-29 0 -31 2 -33 25c-2 17 -2 70 -12 70c-25 1 -129 2 -170 2c-19 0 -21 -7 -21 -28c0 -23 -1 -178 -1 -328s0 -295 1 -298h34c7 0 14 -6 14 -14s-7 -14 -14 -14h-129c-7 0 -12 6 -12 14c0 19 23 14 49 14v476v168
c-27 0 -48 -5 -48 13c0 8 4 14 11 14h30c35 0 226 -3 283 3z" />
    <glyph glyph-name="afii10021" unicode="&#x414;" horiz-adv-x="553" 
d="M492 698c9 -1 11 -6 11 -11c0 -29 -48 -9 -53 -15v-624c0 -33 44 -14 44 -34c0 -18 -12 -92 -35 -92c-10 0 -19 11 -19 20c0 -4 14 31 14 52c0 5 -1 8 -4 8c-61 0 -291 -3 -425 -3c2 -11 11 -37 11 -56c0 -15 -5 -22 -20 -22c-32 0 -29 55 -36 85c0 9 5 18 17 18
c3 0 8 -2 14 -2c151 0 180 583 180 636c0 20 -35 9 -35 29c0 7 4 13 11 13h305c6 -1 12 -1 20 -2zM391 90v562c0 18 -1 20 -4 20h-7h-151c-7 0 -17 -546 -152 -646c53 0 220 -1 312 -1c2 0 2 48 2 65z" />
    <glyph glyph-name="afii10022" unicode="&#x415;" horiz-adv-x="444" 
d="M359 93c2 19 5 23 24 23c13 0 17 -73 21 -103c-3 -8 -12 -14 -27 -14c-2 0 -37 2 -41 2c-54 0 -79 -1 -160 -1c-119 0 -126 -4 -126 15c0 18 23 13 48 13v644c-26 0 -48 -5 -48 13c0 9 6 15 12 15h2c29 1 63 1 97 1c92 0 184 -2 184 -2c9 1 20 1 29 2c17 0 27 -4 30 -12
c-4 -31 -8 -104 -21 -104c-20 0 -21 4 -24 24c-10 76 24 65 -115 65c-35 0 -70 -1 -89 -2v-249c44 0 93 1 138 1c1 13 -2 31 16 31c7 0 16 -2 24 -4c2 -14 2 -30 2 -47c0 -29 -7 -33 -19 -33c-29 0 -15 15 -22 33h-21c-27 0 -55 -1 -83 -1c-12 0 -24 0 -35 1
c0 -19 -1 -174 -1 -279c0 -53 1 -93 1 -97c29 0 71 -1 109 -1c48 0 89 1 89 4c2 21 3 41 6 62z" />
    <glyph glyph-name="afii10024" unicode="&#x416;" horiz-adv-x="723" 
d="M735 14c2 -1 5 -5 8 -10c-11 -8 -15 -7 -24 -7c-56 1 -99 30 -122 83c-16 36 -20 77 -28 116c-25 113 -51 210 -164 210c-3 0 -13 0 -21 -2v-375h36c7 0 13 -6 13 -14c0 -9 -6 -14 -13 -14v0l-3 -1c0 0 0 1 -1 1h-125c-7 0 -14 5 -14 14c0 8 7 14 14 14h37
c1 47 2 155 2 243c0 73 -1 132 -2 132c-62 0 -119 -27 -142 -88c-30 -77 -26 -163 -59 -236c-24 -53 -68 -83 -123 -83c-9 0 -12 -1 -24 7c4 5 5 9 8 10c60 23 85 10 99 63c15 71 14 141 31 210c17 71 91 137 142 141c-65 47 -76 145 -94 193c-13 25 -30 58 -57 58
c-22 0 -45 -26 -45 -58c0 -8 5 -17 5 -24c0 -5 -3 -11 -10 -11c-14 0 -32 18 -32 43c0 32 26 78 65 78c43 0 80 -45 93 -90c21 -72 60 -173 128 -173c5 0 10 0 15 1v228h-37c-7 0 -14 5 -14 13s7 14 14 14h125c2 0 5 0 4 0v0c7 0 13 -6 13 -14s-6 -14 -13 -14l-36 1
c0 -4 -1 -97 -1 -163c0 -72 -2 -67 25 -67c74 0 109 104 129 174c12 43 52 90 94 90c37 0 65 -46 65 -77c0 -15 -12 -44 -33 -44c-6 0 -9 6 -9 11c0 7 4 16 4 24c0 32 -21 58 -43 58c-26 0 -46 -34 -58 -58c-19 -48 -35 -138 -91 -193c43 -4 123 -70 138 -141
c11 -41 12 -82 16 -123c20 -145 30 -117 115 -150z" />
    <glyph glyph-name="afii10023" unicode="&#x401;" horiz-adv-x="446" 
d="M338 765c-15 0 -35 15 -35 33c0 25 29 44 57 44c14 0 33 -23 33 -31c0 -20 -36 -45 -55 -46zM161 780c-11 6 -16 18 -16 29c0 30 26 27 37 31c25 -1 37 -12 37 -30c0 -19 -25 -35 -42 -35c-5 0 -10 1 -16 5zM360 97c3 19 5 23 26 23h8c2 -31 6 -64 12 -103
c-5 -8 -11 -14 -27 -14c-5 0 -40 2 -41 2h-276c-6 0 -12 6 -12 14c0 18 23 13 48 13v644c-27 0 -48 -4 -48 13c0 9 6 15 12 15h3c29 1 63 1 97 1c91 0 184 -2 184 -2c10 1 20 1 30 2c18 0 24 -5 30 -12c-6 -41 -10 -72 -12 -104h-8c-45 0 -21 88 -34 88c0 0 -53 1 -106 1
c-36 0 -71 -1 -91 -2v-249c47 0 94 1 140 1c1 14 -3 31 16 31c7 0 16 -2 23 -4c2 -14 3 -30 3 -47c0 -29 -6 -33 -18 -33c-42 0 2 33 -44 33c-27 0 -55 -1 -83 -1c-13 0 -25 0 -37 1c0 -59 -2 -103 -2 -181c0 -88 1 -186 2 -195c29 0 72 -1 110 -1c48 0 89 1 90 4
c2 21 3 41 5 62z" />
    <glyph glyph-name="afii10025" unicode="&#x417;" horiz-adv-x="393" 
d="M85 185c3 7 10 12 17 12s14 -4 18 -13c-5 -36 -11 -65 -11 -94c0 -73 38 -95 51 -97c3 -1 6 -1 9 -1c35 0 92 37 101 70c11 43 12 87 12 131c0 65 -4 128 -18 190c-7 32 -27 45 -54 45h-18h-31c-17 0 -32 -4 -48 -4c-5 1 -11 5 -11 10c0 30 60 2 86 34
c22 48 31 89 31 121c0 94 -55 103 -61 103c-27 0 -64 -20 -64 -48c0 -18 9 -38 9 -59c0 -16 -10 -30 -23 -30c-12 0 -20 13 -20 32c0 67 42 133 118 133c17 0 33 -3 50 -10c12 -4 43 -43 43 -109c0 -27 -8 -64 -23 -96c-2 -7 -11 -21 -11 -28c0 -8 89 6 91 -147
c3 -39 5 -76 5 -114c0 -87 -14 -239 -150 -239c-81 0 -111 41 -111 124c0 31 4 64 13 84z" />
    <glyph glyph-name="afii10026" unicode="&#x418;" horiz-adv-x="636" 
d="M573 29c7 0 13 -6 13 -14c0 -9 -6 -15 -13 -15h-129c-8 0 -14 6 -14 15c0 8 6 14 14 14h30c1 0 3 -1 5 -1c1 0 2 1 3 1c0 2 -2 550 -2 599c-11 -14 -101 -171 -134 -235c-95 -171 -136 -269 -154 -300c-15 -31 -35 -92 -65 -92c-14 0 -28 10 -28 47v454v158v9
c0 5 -2 4 -7 4h-29c-7 0 -13 6 -13 13c0 9 6 14 13 14h129c7 0 13 -5 13 -14c0 -7 -6 -13 -13 -13h-30h-8v-118c0 -163 -2 -368 -2 -447c0 -21 1 -33 1 -33c4 7 122 227 177 329c41 74 82 148 121 222c29 47 41 90 64 90c19 0 24 2 24 -58c0 -54 -1 -145 -1 -211v-115v-268
c0 -29 -1 -36 2 -36c1 0 3 1 4 1h29z" />
    <glyph glyph-name="afii10027" unicode="&#x419;" horiz-adv-x="638" 
d="M271 768c14 -7 29 -15 46 -15c33 0 66 24 66 60c0 18 -27 40 -44 40c-16 0 -29 -17 -39 -34c-11 6 -16 14 -16 23c0 27 37 43 61 43c57 0 76 -34 76 -62c0 -65 -54 -96 -88 -96c-22 0 -67 16 -67 30c0 3 1 7 5 11zM573 29c8 0 15 -6 15 -14c0 -9 -7 -15 -15 -15h-127
c-7 0 -14 6 -14 15c0 8 7 14 14 14h29s2 -1 3 -1c3 0 2 138 2 306c0 147 0 293 -1 294c-11 -14 -98 -171 -131 -235c-34 -64 -114 -217 -120 -233c-28 -51 -55 -100 -72 -147c-2 -5 -15 -12 -27 -12c-15 0 -30 10 -30 47v545v67v9c0 5 -1 4 -7 4h-28c-8 0 -14 6 -14 13
c0 9 6 14 14 14h128c7 0 13 -5 13 -14c0 -7 -6 -13 -13 -13h-27h-7v-74c0 -182 -2 -445 -2 -509v-15c4 7 122 227 175 329c39 74 83 148 122 222c29 47 37 90 63 90c19 0 24 3 24 -61c0 -56 -1 -150 -1 -215v-27c0 -62 -1 -211 -1 -304c0 -57 0 -81 2 -81s5 1 6 1h27z" />
    <glyph glyph-name="afii10028" unicode="&#x41a;" horiz-adv-x="496" 
d="M99 297v250v126h-7v0h-27c-9 0 -15 6 -15 13c0 8 6 14 15 14h16h82h28h3h-1c6 0 12 -6 12 -14s-6 -13 -12 -13h-30h-1h-6v-94c0 -33 -1 -34 -1 -50c0 -14 1 -29 1 -43c0 -9 -1 -17 -1 -26c0 -20 12 -17 25 -17c73 0 109 102 130 174c11 40 51 90 94 90
c38 0 66 -47 66 -80c0 -19 -19 -41 -33 -41c-6 0 -9 7 -9 11c0 6 5 16 5 24c0 33 -25 58 -45 58c-51 -1 -90 -138 -114 -199c-6 -16 -24 -34 -37 -52c7 -3 10 -4 14 -5c71 -18 111 -65 128 -136c17 -74 -6 -251 92 -263c15 -2 34 -5 45 -19c-9 -9 -15 -8 -24 -8
c-56 0 -99 30 -121 83c-16 37 -20 77 -30 116c-23 116 -51 210 -164 210c-3 0 -13 -1 -21 -1v-225v-151h6h1h30c6 0 12 -6 12 -14c0 -7 -6 -14 -12 -14h1h-3h-28h-82h-16c-9 0 -15 7 -15 14c0 8 6 14 15 14h27v0h7c1 28 1 58 1 88c0 60 -1 123 -1 180z" />
    <glyph glyph-name="afii10029" unicode="&#x41b;" horiz-adv-x="499" 
d="M435 29c8 -1 14 -6 14 -13c0 -9 -6 -16 -15 -16h-19c-26 0 -57 1 -79 1l-1 -1h-27h-3h1c-8 1 -14 7 -14 16c0 7 5 12 13 13h38v645h-105c-22 0 -25 -2 -26 -24c-10 -133 -16 -265 -33 -397c-3 -26 -18 -124 -24 -142c-15 -48 -45 -115 -107 -115c-29 0 -68 13 -68 52
c0 8 5 18 19 18c24 0 41 -24 58 -24c81 0 105 344 112 472c2 42 13 151 13 159c0 2 -35 -6 -35 14c0 7 4 13 15 13h270c11 0 15 -7 15 -13c0 -15 -8 -13 -48 -13c-1 0 -1 -161 -1 -322s0 -322 1 -323h36z" />
    <glyph glyph-name="afii10030" unicode="&#x41c;" horiz-adv-x="708" 
d="M658 12c0 -7 -5 -13 -12 -13h1h-3h-126c-7 0 -13 6 -13 13c0 9 6 14 13 14h30v0h6v173v390c-24 -50 -158 -272 -194 -321c-78 107 -137 221 -218 332c0 -148 1 -507 1 -574l50 1c7 0 13 -6 13 -15c0 -7 -6 -13 -13 -13v0h-2h-127c-8 0 -14 6 -14 13c0 9 6 14 14 14h53
c0 43 -5 626 -5 676c0 1 3 3 6 3c2 0 3 -1 5 -2c35 -51 136 -191 228 -347c6 -11 11 -16 16 -16s11 5 18 15c67 102 130 205 184 315c6 11 19 33 30 33c5 0 9 -6 9 -15c1 -25 2 -655 2 -662h6s0 1 1 1h29c7 0 12 -6 12 -15z" />
    <glyph glyph-name="afii10031" unicode="&#x41d;" horiz-adv-x="613" 
d="M550 30c7 0 13 -6 13 -15c0 -7 -6 -14 -13 -14h1h-3h-26h-84h-15c-9 0 -15 7 -15 14c0 9 6 15 15 15h28v-1h6v314c-3 0 -100 1 -183 1c-61 0 -115 0 -118 -1v-314l36 1c7 0 13 -6 13 -15c0 -7 -6 -14 -13 -14h1h-3h-127c-7 0 -13 7 -13 14c0 9 6 15 13 15l37 -1
c1 28 1 109 1 203c0 190 -1 437 -1 441h-8v0h-29c-7 0 -13 6 -13 13c0 9 6 15 13 15h17c30 0 63 -1 83 -1h27c1 0 1 1 1 1c1 0 2 -1 2 -1h-1c7 0 13 -5 13 -14c0 -7 -6 -13 -13 -13h-29h-1h-6v-301c5 0 288 -3 301 -3v304h-6v0h-28c-9 0 -15 6 -15 13c0 9 6 15 15 15h15
c29 0 60 -1 84 -1h26v1c2 0 3 -1 3 -1h-1c7 0 13 -5 13 -14c0 -7 -6 -13 -13 -13h-28v0h-6v-644h6v1h28z" />
    <glyph glyph-name="afii10032" unicode="&#x41e;" horiz-adv-x="506" 
d="M82 292c4 58 2 117 3 175c3 191 102 251 177 251c72 0 127 -56 139 -95c22 -88 25 -187 25 -265c0 -54 -3 -109 -12 -161c-15 -89 -31 -215 -172 -215c-170 0 -161 171 -161 267c0 14 1 29 1 43zM363 424c0 7 -5 113 -10 167c-6 41 -41 92 -92 92
c-131 0 -112 -210 -119 -320c-2 -30 -4 -106 -4 -156c0 -19 0 -34 1 -41c3 -30 7 -158 103 -158c35 0 93 36 105 84c14 55 16 194 17 275c0 27 -1 48 -1 57z" />
    <glyph glyph-name="afii10033" unicode="&#x41f;" horiz-adv-x="599" 
d="M537 29c6 0 12 -6 12 -14c0 -9 -8 -14 -14 -14h-126c-6 0 -13 7 -13 14c0 8 7 14 13 14h30v0h6v55c0 52 -1 105 -1 157c0 19 0 38 1 56v376h-282v0h-6v-644h6v0h28c8 0 14 -6 14 -14c0 -7 -6 -14 -13 -14v0c1 0 -2 0 -3 0h-126c-7 0 -13 7 -13 14c0 8 6 14 13 14h29v0h7
v55c0 52 -1 105 -1 157c0 19 0 38 1 56v376h-7v0h-29c-7 0 -13 6 -13 13c0 8 6 14 13 14h16h456c6 0 14 -5 14 -14c0 -7 -6 -13 -12 -13h-29h-1h-5v-644h5h1h29z" />
    <glyph glyph-name="afii10034" unicode="&#x420;" horiz-adv-x="510" 
d="M480 511c-5 -181 -206 -197 -290 -197c-16 0 -27 1 -33 1v-286h6v0h29c7 0 13 -6 13 -14c0 -7 -6 -14 -13 -14h1s-1 0 -3 -1v1l-126 -1c-8 0 -14 6 -14 15c0 8 6 14 14 14h28v0h8c1 36 1 155 1 282c0 172 -1 358 -1 362h-8v0h-28c-8 0 -14 5 -14 13s6 14 14 14h16
c18 0 80 1 130 1c25 0 48 0 61 -1c35 -2 209 -17 209 -189zM157 338h11c58 0 244 12 244 206c0 91 -77 135 -190 135c-21 0 -42 -2 -63 -6c-3 0 -2 -158 -2 -335z" />
    <glyph glyph-name="afii10035" unicode="&#x421;" horiz-adv-x="425" 
d="M145 114c3 -15 13 -81 88 -81c71 0 87 42 87 133c2 15 12 26 25 26c16 0 23 -15 23 -38c0 -59 -29 -156 -142 -157c-128 7 -146 57 -146 307c0 88 6 254 14 292c9 70 46 108 143 108c99 0 134 -50 138 -130c0 0 -1 -19 -19 -19c-44 0 18 123 -112 123
c-62 -2 -91 -50 -97 -114c0 0 -5 -217 -5 -350c0 -52 1 -91 3 -100z" />
    <glyph glyph-name="afii10036" unicode="&#x422;" horiz-adv-x="407" 
d="M357 702h6c14 0 21 -5 24 -11c-4 -31 -8 -105 -21 -105c-41 0 -19 79 -30 90c-22 0 -62 -1 -103 -1v-646h37c7 0 13 -6 13 -14s-6 -14 -13 -15h1h-3h-28c-65 0 -112 -8 -112 15c0 8 6 14 13 14h35c1 28 1 95 1 171c0 491 -1 364 -1 474h-105c-3 -33 2 -88 -31 -88
c-13 0 -16 74 -20 105c2 6 10 11 23 11h314z" />
    <glyph glyph-name="afii10037" unicode="&#x423;" horiz-adv-x="510" 
d="M496 696c8 -1 14 -7 14 -15c0 -7 -6 -12 -14 -12h-28h-1h-26c1 -3 -43 -175 -63 -253c-32 -124 -61 -237 -131 -341c-13 -20 -56 -81 -121 -81c-43 0 -93 27 -93 83c0 19 1 48 27 48c15 0 21 -6 21 -20c0 -11 -3 -25 -3 -38c0 -33 15 -52 48 -52c48 0 76 40 83 49
c35 47 58 98 79 154c1 2 1 4 1 7c0 5 -1 10 -4 14c-27 55 -57 111 -88 165c-27 61 -57 116 -86 172c-8 15 -44 90 -44 93h-5h-1h-29c-6 0 -12 5 -12 13c0 7 6 14 12 14h18c26 0 58 0 81 -1c0 0 0 1 1 1h27h3h-1c6 -1 12 -7 12 -15c0 -7 -6 -12 -12 -12h-4h-1h-25
c0 -4 123 -243 180 -358c19 25 103 354 103 358h-16v0h-30c-8 0 -12 5 -12 13c0 7 4 14 12 14h17c28 0 59 0 82 -1c1 0 1 1 1 1h26h3h-1z" />
    <glyph glyph-name="afii10038" unicode="&#x424;" horiz-adv-x="593" 
d="M516 569c12 -48 17 -90 17 -127c0 -129 -60 -193 -74 -207c-37 -37 -126 -40 -133 -42v-165h34c7 0 14 -6 14 -12c0 -7 -7 -13 -14 -13h1h-3h-124c-9 0 -15 6 -15 13c0 6 6 12 15 12h33c0 25 1 51 1 78c0 26 -1 53 -1 79v1c0 8 -49 5 -65 5c-123 8 -142 95 -142 187
c0 57 9 114 36 170c35 81 80 99 171 136v26h-6v0h-27c-9 0 -15 7 -15 14s6 13 15 13c43 -6 140 13 140 -14c0 -6 -7 -13 -14 -13h-27h-1h-6v-20c5 -1 48 -7 65 -9c67 -8 105 -47 125 -112zM141 267c31 -34 74 -49 122 -56c2 49 4 99 4 147v188v112c-14 -5 -27 -7 -36 -13
c-90 -49 -121 -176 -121 -278c0 -32 4 -70 31 -100zM469 323c7 30 10 60 10 90c0 99 -21 245 -125 245c-9 0 -19 -1 -28 -2v-441c76 0 127 35 143 108z" />
    <glyph glyph-name="afii10039" unicode="&#x425;" horiz-adv-x="557" 
d="M494 671h-6c0 -4 -89 -154 -179 -310c89 -161 182 -324 187 -336h27c8 0 13 -6 13 -11c0 -7 -5 -13 -13 -13h1h-3h-30h-83h-16c-9 0 -15 6 -15 13c0 5 6 11 15 11h28v0h5c-16 49 -80 162 -148 283c-67 -121 -132 -234 -150 -283h6h1h29c7 0 13 -6 13 -11
c0 -7 -6 -13 -13 -13h-17h-83h-27h-4h1c-6 0 -13 6 -13 13c0 5 7 11 14 11h62c4 11 86 153 168 303c-96 168 -197 338 -197 343h-7v0h-27c-6 0 -13 7 -13 14s7 12 13 12h15h81h28h2v0c7 0 13 -5 13 -12s-6 -14 -13 -14h-24c0 -4 79 -142 162 -290c81 148 158 286 158 290
h-60c-6 0 -13 7 -13 14c0 9 9 12 16 12h25h83h17c8 0 14 -5 14 -12s-6 -14 -14 -14h-28h-1z" />
    <glyph glyph-name="afii10040" unicode="&#x426;" horiz-adv-x="625" 
d="M604 -23c14 -18 21 -43 21 -66c0 -59 -47 -81 -94 -81c-63 0 -123 39 -138 46c-12 4 -54 29 -101 29c-42 0 -74 -20 -74 -50c0 -9 3 -20 7 -32c-17 8 -27 25 -27 41c0 45 68 65 112 65c100 0 128 -56 195 -56c41 0 86 21 86 62c0 28 -22 55 -55 63c-7 2 -87 2 -166 2
h-155h-54c-22 0 -54 0 -82 -1v1h-17c-7 0 -12 5 -12 13c0 6 5 12 12 12h28v0h8v203v442h-8v0h-28c-7 0 -12 6 -12 14s5 13 12 13h17h82h28h3h-1c7 0 13 -5 13 -13s-6 -15 -13 -15h-30v1h-6v-645c0 -1 74 -6 141 -6c1 0 160 6 160 6c1 33 1 139 1 255c0 179 -1 385 -1 390h-5
v0h-28c-7 0 -13 6 -13 14s6 13 13 13h16h84h26s4 0 3 0h-1c8 0 13 -5 13 -13s-6 -15 -13 -15h-28s0 1 -1 1h-5c0 -7 0 -526 -1 -621c0 -2 1 -10 1 -16c38 -5 62 -26 87 -56z" />
    <glyph glyph-name="afii10041" unicode="&#x427;" horiz-adv-x="569" 
d="M507 25c6 0 12 -6 12 -11c0 -7 -5 -13 -12 -13h1h-3h-26h-85h-14c-8 0 -14 6 -14 13c0 5 6 11 14 11h26v0h7c1 29 1 77 1 129c0 104 -1 220 -1 220c-30 0 -55 -3 -79 -3c-115 1 -169 24 -195 42c-35 24 -55 55 -57 95c-2 23 -3 156 -3 163h-5v0h-30c-7 0 -14 7 -14 14
s7 12 14 12h18h81h28h4h-1c7 0 13 -5 13 -12s-6 -14 -14 -14h-30v0h-5v-149c0 -17 0 -46 17 -65c21 -18 74 -57 178 -57c24 0 51 2 80 7v192v72h-7v0h-26c-8 0 -14 7 -14 14s6 12 14 12h14h85h26h3h-1c7 0 12 -5 12 -12s-6 -14 -12 -14h-28h-1h-6v-419v-227h6h1h28z" />
    <glyph glyph-name="afii10042" unicode="&#x428;" horiz-adv-x="707" 
d="M644 25c7 0 13 -6 13 -12c0 -10 -8 -11 -14 -14c-1 0 -1 1 -1 1h-579c-7 0 -13 5 -13 13c0 6 6 12 13 12h28v0h7c1 28 1 108 1 203c0 189 -1 437 -1 442h-7v0h-28c-7 0 -13 6 -13 14s6 13 13 13h127h2h-1c9 0 13 -5 13 -13s-4 -15 -13 -15h-29s0 1 -1 1h-4v-645
c0 0 66 -4 78 -4c49 0 91 6 91 4v203v442h-5v0h-31c-8 0 -14 6 -14 14s6 13 14 13h17h81h28h3h-1c8 0 14 -5 14 -13s-6 -15 -14 -15h-30c-1 0 -1 1 -1 1h-5v-645c0 0 41 -4 84 -4c38 0 87 4 87 4v203v442h-7v0h-30c-7 0 -12 6 -12 14s5 13 12 13h17h83h26c7 0 15 -3 15 -13
c0 -8 -6 -15 -13 -15h-28s0 1 -1 1h-5v-645h5h1h28z" />
    <glyph glyph-name="afii10043" unicode="&#x429;" horiz-adv-x="717" 
d="M695 -15c14 -18 22 -44 22 -68c0 -55 -48 -81 -91 -81c-48 0 -96 31 -143 48c-11 4 -58 28 -104 28c-42 0 -68 -22 -68 -48c0 -10 5 -16 5 -32c-15 7 -22 23 -22 38c0 53 74 68 112 68c42 0 82 -13 108 -28c10 -6 56 -26 97 -26c44 0 73 30 73 66c0 23 -15 43 -43 50h-25
c-9 0 -509 0 -536 -1v1h-16c-7 0 -14 5 -14 13c0 6 7 12 14 12h28v0h6c1 33 1 139 1 255c0 179 -1 385 -1 390h-6v0h-28c-7 0 -14 6 -14 14s7 13 14 13h16h83h26h2v0c7 0 12 -5 12 -13s-6 -15 -12 -15h-28s0 1 -1 1h-6v-645h6c27 -3 54 -4 78 -4c48 0 84 4 84 4
c1 28 1 108 1 203c0 189 -1 437 -1 442h-6h-1h-28c-7 0 -12 6 -12 14s5 13 12 13h17h84h26c1 0 4 0 3 0v0c7 0 13 -5 13 -13s-6 -15 -13 -15h-29c-1 0 -1 1 -1 1h-7v-645c0 0 34 -5 83 -5c19 0 87 5 87 5c1 33 1 139 1 255c0 179 -1 385 -1 390h-6v0h-29c-7 0 -14 6 -14 14
s7 13 14 13h16h83h27h2h-1c8 0 14 -5 14 -13s-7 -15 -14 -15h-28s0 1 -1 1h-7v-166v-464c40 -4 65 -26 87 -55z" />
    <glyph glyph-name="afii10044" unicode="&#x42a;" horiz-adv-x="567" 
d="M289 433c43 -1 238 -12 238 -197c0 -130 -75 -179 -133 -203c-44 -18 -140 -33 -231 -33c-13 0 -26 1 -39 1h-18c-7 0 -13 6 -13 14c0 5 6 11 13 11h37c0 23 1 46 1 69c0 53 -1 107 -1 158v39v251v129c0 0 -71 -1 -73 -1c-4 -42 3 -88 -30 -88h-8c-3 33 -7 64 -12 106
c3 5 10 11 25 11c67 0 184 4 184 -14c0 -8 -6 -15 -14 -15l-14 1v-240c28 0 59 1 88 1zM201 28c237 11 250 95 253 198c0 82 -47 161 -105 172c-42 8 -75 10 -100 10c-23 0 -39 -2 -48 -4v-376z" />
    <glyph glyph-name="afii10045" unicode="&#x42b;" horiz-adv-x="710" 
d="M648 23c6 0 12 -6 12 -13s-6 -13 -12 -13v0h-2h-26h-82h-17c-8 0 -15 6 -15 13s7 12 15 12h30v0h5c0 22 1 45 1 69c0 52 -1 107 -1 159v39v378h-5v0h-30c-8 0 -15 6 -15 14c0 9 7 14 15 14h17h82h26h2v0c6 0 12 -6 12 -14s-6 -14 -12 -14h-28h-1h-6v-645h6s0 1 1 1h28z
M247 428h10c56 0 228 -23 228 -193c0 -227 -261 -238 -313 -238h-45h-64c-7 0 -13 6 -13 13s6 12 13 12h28v0h7c1 28 1 58 1 88c0 88 -1 315 -1 557h-7v0h-28c-7 0 -13 6 -13 14c0 9 6 14 13 14h16h113h-1c7 0 13 -6 13 -14s-6 -14 -13 -14h-27h-1h-6v-240c29 1 59 0 90 1z
M323 51c40 32 86 92 86 169c0 81 -45 164 -104 175c-37 6 -68 8 -92 8c-27 0 -45 -2 -56 -3v-375c7 -1 15 -2 24 -2c54 0 130 19 142 28z" />
    <glyph glyph-name="afii10046" unicode="&#x42c;" horiz-adv-x="525" 
d="M246 433h7c53 0 232 -21 232 -197c0 -230 -302 -234 -321 -234h-82h-18c-8 0 -14 6 -14 13c0 5 6 11 14 11h29v0h6c1 29 1 104 1 192c0 177 -1 408 -1 431v23h-6v0h-29c-8 0 -14 7 -14 14s6 12 14 12h18h81h25c1 0 4 0 3 0v0c8 0 15 -5 15 -12s-7 -14 -15 -14h-28v0h-6
v-240h44s30 0 45 1zM323 56c42 32 87 92 87 170c0 82 -48 162 -106 172c-41 7 -73 10 -98 10c-23 0 -39 -2 -49 -4v-353c0 -8 -9 -24 21 -24c55 0 131 19 145 29z" />
    <glyph glyph-name="afii10047" unicode="&#x42d;" horiz-adv-x="427" 
d="M334 588c8 -34 13 -203 13 -292c0 -250 -18 -297 -148 -304c-111 1 -142 95 -142 151c0 22 5 42 26 42c28 0 20 -54 22 -87c3 -55 61 -89 109 -89c27 0 66 19 71 49c5 32 12 177 11 218l-2 80c-5 -1 -9 -2 -13 -2c-36 0 -79 47 -94 47c-8 0 -32 -19 -56 -43
c0 0 -1 0 -6 2c3 10 4 21 10 26c22 24 58 52 80 52c25 0 54 -31 78 -51l-4 191c-5 62 -35 101 -98 101c-131 0 -73 -130 -124 -130c-16 0 -17 21 -17 20c3 76 41 129 139 129c95 0 134 -41 145 -110z" />
    <glyph glyph-name="afii10048" unicode="&#x42e;" horiz-adv-x="689" 
d="M597 547c5 -41 12 -166 12 -187c0 -213 -12 -366 -201 -366c-157 0 -145 162 -145 323v41h-70h-35c-1 0 -3 -322 -3 -329h6h1h30c6 0 12 -6 12 -12c0 -8 -6 -13 -12 -14v0h-3h-27l-1 1c-22 -1 -53 -1 -80 -1h-18c-7 0 -13 6 -13 13s6 13 13 13h29v0h6v204v440h-6v0h-29
c-7 0 -13 7 -13 15c0 7 6 13 13 13h18c27 0 58 -1 80 -1l1 1h27c2 0 3 0 3 -1v0c6 0 12 -5 12 -12c0 -8 -6 -15 -12 -15h-30h-1h-6v-294h109c2 60 8 180 16 206c35 110 117 143 166 143c9 0 18 -1 24 -3c103 -16 110 -84 127 -178zM528 102c14 54 18 148 18 209
c0 10 0 131 -15 291c-4 45 -40 93 -93 93c-76 0 -101 -87 -106 -146c-6 -68 -10 -155 -10 -219s4 -189 4 -215c0 -48 48 -92 94 -92c33 0 98 31 108 79z" />
    <glyph glyph-name="afii10049" unicode="&#x42f;" horiz-adv-x="498" 
d="M434 28c7 0 14 -6 14 -12c0 -7 -6 -13 -14 -13h1h-3h-27h-83h-17c-7 0 -13 6 -13 13c0 6 6 12 13 12h30v0h6c1 28 1 58 1 87c0 60 -1 121 -1 178h-15c-38 0 -93 -9 -107 -32c-23 -37 -31 -88 -42 -132c-26 -98 -87 -129 -172 -129c-3 0 -4 -1 -4 3c-1 20 88 21 104 55
c36 80 2 174 81 241c-63 28 -102 63 -102 202c0 176 156 196 221 199h2h98h27h3h-1c8 0 14 -5 14 -12c0 -9 -7 -16 -14 -16h-29s0 1 -1 1h-5v-645h5h1h29zM332 682c-7 1 -16 3 -29 3c-56 0 -158 -27 -158 -191c0 -147 85 -175 151 -175c17 0 32 2 45 4v223v34v71h1
c0 29 -5 31 -10 31z" />
    <glyph glyph-name="A" unicode="A" 
d="M504 16c0 -7 -6 -14 -13 -14h1h-3h-28h-81h-15c-8 0 -16 7 -16 14s8 13 15 13h33c-10 32 -51 173 -60 211c0 0 -1 1 -1 2h-186c-6 -2 -57 -185 -62 -213c19 -2 39 6 39 -13c0 -7 -5 -14 -10 -14v0h-3h-23h-66h-14c-7 0 -11 7 -11 14s4 13 11 13h16c14 0 31 0 32 2
c7 4 183 645 190 669c2 5 9 10 12 10c5 0 12 -7 13 -14c10 -39 172 -634 179 -667h3h36c7 0 12 -6 12 -13zM241 595c-30 -109 -59 -214 -87 -324c58 0 116 1 178 1c-30 110 -59 212 -88 323h-3z" />
    <glyph glyph-name="B" unicode="B" horiz-adv-x="497" 
d="M436 330c9 -30 11 -60 11 -89c0 -230 -56 -241 -208 -241c-105 0 -189 -8 -189 14c0 7 7 13 14 13h29c1 0 3 -1 5 -1c3 0 2 43 2 60v128v37v101v87v102v41c0 17 4 88 -7 88h-7c-3 0 -5 -1 -8 -1c-1 0 -2 1 -4 1h-10c-7 0 -14 6 -14 14s7 14 14 14h29c13 0 41 2 64 2
c18 0 36 -2 53 -2c16 0 33 1 51 1c29 0 59 -3 85 -22c32 -31 39 -86 39 -131c0 -58 -5 -90 -36 -127c44 -17 75 -45 87 -89zM157 671v-249c102 5 178 -14 178 125c0 33 -6 74 -29 105c-6 8 -31 31 -81 31c-19 0 -42 -4 -68 -12zM356 73c16 40 26 89 26 140
c0 101 -30 193 -137 193c-32 0 -74 -5 -90 -11c1 -27 1 -57 1 -83c0 -84 -2 -167 -2 -252c0 -28 1 -28 30 -32c21 -3 41 -7 63 -7c37 0 96 10 109 52z" />
    <glyph glyph-name="C" unicode="C" horiz-adv-x="425" 
d="M137 588l-9 -308c0 -6 -1 -16 -1 -29c0 -73 9 -231 97 -231c41 0 92 33 95 77c2 38 -4 89 24 89c20 0 26 -18 26 -40c0 -59 -30 -159 -143 -159c-102 0 -146 58 -146 309c0 88 5 265 11 303c10 70 51 112 146 112c99 0 136 -54 138 -134c0 0 0 -19 -21 -19
c-41 0 9 133 -120 133c-62 -2 -91 -39 -97 -103z" />
    <glyph glyph-name="D" unicode="D" 
d="M444 359c0 -248 -58 -339 -155 -351c-62 -8 -109 -9 -123 -9h-87h-16c-8 0 -13 6 -13 14c0 7 5 13 13 13h27v0h7c0 22 1 44 1 68c0 52 -1 106 -1 158v40v249v106h1c0 9 0 16 -1 22h-7v0h-27c-8 0 -13 6 -13 14s5 13 13 13h16h103c29 0 82 -2 126 -14
c49 -14 134 -81 136 -323zM359 120c27 67 29 144 29 206c0 17 -7 194 -33 259c-22 48 -57 89 -137 89c-33 0 -63 -5 -63 -5v-93v-30v-331v-167c0 -10 -17 -24 33 -24s140 12 171 96z" />
    <glyph glyph-name="E" unicode="E" horiz-adv-x="446" 
d="M362 91c2 20 5 25 25 25c12 0 15 -78 19 -104c-3 -7 -11 -13 -26 -13c-3 0 -37 4 -39 4c-56 -3 -81 -4 -162 -4c-133 0 -128 -3 -128 16c0 17 23 13 50 13v643c-27 0 -50 -5 -50 14c0 8 6 14 14 14h2c35 1 78 1 120 1c83 0 162 -1 162 -1c12 1 23 1 34 1
c13 0 20 -5 23 -12c-4 -30 -7 -105 -20 -105c-18 0 -23 4 -24 24c-5 85 11 66 -132 66c-29 0 -57 -1 -73 -2v-250h140c0 16 -1 30 16 30c29 0 27 -21 27 -43c0 -35 -6 -38 -20 -38c-30 0 -15 11 -23 32c-16 1 -33 1 -51 1h-57h-32c0 -62 -2 -105 -2 -183
c0 -87 1 -184 3 -193c32 0 82 -1 124 -1s75 1 76 3c1 21 3 41 4 62z" />
    <glyph glyph-name="F" unicode="F" horiz-adv-x="413" 
d="M374 699c16 0 25 -4 29 -13c-4 -30 -8 -104 -21 -104c-33 0 -26 46 -30 85c-2 6 -55 6 -78 6c-63 0 -119 -5 -113 -4h-5v-273h139c1 14 -2 30 15 30c32 0 28 -22 28 -50c0 -29 -8 -33 -21 -33c-9 0 -19 -4 -19 15s-5 18 -22 18c-27 0 -56 -1 -84 -1c-13 0 -25 0 -36 1
c0 -27 -1 -343 -1 -350h6h1h27c7 0 15 -6 15 -13s-8 -13 -15 -13h1h-2h-26h-82h-17c-7 0 -13 6 -13 13s6 13 13 13h29v0h6v202v441h-6v0h-29c-7 0 -13 7 -13 15s7 15 14 15h1c35 1 80 1 125 1c90 0 179 -1 184 -1z" />
    <glyph glyph-name="G" unicode="G" horiz-adv-x="452" 
d="M410 326c7 -1 12 -6 12 -13s-5 -13 -12 -13h-28h-1h-6v-95v-85c0 -7 1 -130 -148 -130c-134 0 -147 58 -147 324c0 92 5 247 13 283c8 66 45 108 133 112c108 0 146 -49 150 -134c0 1 -2 -20 -18 -20c-46 0 8 133 -122 133c-64 0 -88 -38 -94 -102l-10 -308
c0 -10 -1 -21 -1 -32c0 -95 14 -236 94 -236c65 0 98 61 92 110v51v129h-8h-1h-26c-8 0 -14 6 -14 13s6 13 14 13h15c30 0 61 0 84 -1c0 0 0 1 1 1h25c1 0 4 0 3 0v0z" />
    <glyph glyph-name="H" unicode="H" horiz-adv-x="612" 
d="M550 26c7 0 12 -6 12 -13c0 -9 -7 -13 -14 -13h-27h-83h-17c-6 0 -12 5 -12 13c0 7 6 13 12 13l37 1v315h-23c-68 0 -271 -3 -277 -5v-311h5h1h27c8 0 13 -6 13 -13c0 -6 -5 -13 -13 -13h1c1 0 -3 0 -3 0h-25h-85h-15c-8 0 -14 5 -14 13c0 7 6 13 14 13h27v0h8
c1 28 1 109 1 203c0 189 -1 436 -1 440h-8v0h-27c-8 0 -14 6 -14 14s6 14 14 14h15h85h25s4 0 3 0h-1c8 0 13 -6 13 -14s-5 -14 -13 -14h-27h-1h-5c0 -6 1 -214 1 -307c5 0 284 4 297 4c0 0 1 297 1 303h-6h-1h-29c-6 0 -12 6 -12 14s6 14 12 14h17h83h27c7 0 14 -4 14 -14
c0 -8 -5 -14 -12 -14h-29v0h-7v-643h7v0h29z" />
    <glyph glyph-name="I" unicode="I" horiz-adv-x="254" 
d="M191 27c7 0 13 -6 13 -13s-6 -14 -13 -14v0c1 0 -2 0 -3 0h-27h-83h-16c-7 0 -12 7 -12 13c0 8 5 14 12 14h28h1h6c1 28 1 108 1 202c0 189 -1 436 -1 440h-6h-1h-28c-7 0 -12 6 -12 14c0 9 5 15 12 15h16c27 0 62 -1 83 -1v1h27h3v-1c7 0 13 -5 13 -14
c0 -8 -6 -14 -13 -14h-30v0h-6v-642h6v0h30z" />
    <glyph glyph-name="J" unicode="J" horiz-adv-x="287" 
d="M224 700c7 0 13 -7 13 -15s-6 -14 -13 -14h-28h-1h-6v-623c0 -89 -22 -116 -36 -133c-33 -40 -71 -64 -121 -64c-33 0 -92 16 -92 56c0 10 12 26 25 26c7 0 14 -6 21 -17c13 -22 37 -34 60 -34c55 0 85 56 85 108c0 20 -1 674 -1 681h-6v0h-28c-8 0 -13 6 -13 14
c0 9 5 15 13 15h17h83h26h3h-1z" />
    <glyph glyph-name="K" unicode="K" horiz-adv-x="515" 
d="M502 26c7 0 13 -6 13 -13c0 -6 -6 -13 -13 -13v0h-2h-27h-84h-15c-7 0 -13 7 -13 13c0 7 6 13 13 13h27h1h6c-16 40 -136 303 -186 410c-26 -24 -43 -46 -67 -68c1 -121 1 -335 1 -341h5h1h30c6 0 11 -6 11 -13s-4 -14 -11 -14h1h-2h-29h-83h-16c-7 0 -13 7 -13 13
c0 8 6 14 13 14h28v0h7c1 28 1 57 1 87c0 60 -1 122 -1 179v276v100h-7v0h-28c-7 0 -13 6 -13 14c0 9 6 15 13 15h16c28 0 60 -1 82 -1c1 0 1 1 1 1h29h2c0 -1 0 -1 -1 -1c7 0 11 -5 11 -14c0 -8 -5 -14 -11 -14h-30h-1h-5c0 -6 -1 -183 -1 -251c110 107 247 251 247 251h-1
h-27c-7 0 -13 6 -13 14s6 14 13 14h15h84h27h2v0c7 0 13 -6 13 -14s-6 -14 -13 -14h-61c-3 -6 -95 -104 -188 -200c56 -134 202 -435 207 -443h42z" />
    <glyph glyph-name="L" unicode="L" horiz-adv-x="418" 
d="M386 116c4 -33 8 -66 12 -104c-3 -6 -12 -13 -27 -13c-9 1 -278 1 -280 1h-30c-6 0 -11 7 -11 14c0 8 5 13 11 13h30c10 0 6 52 6 168v476h-6h-30c-6 0 -11 7 -11 14c0 8 5 15 11 15h121c7 0 12 -7 12 -15c0 -7 -5 -14 -12 -14h-28c-1 -4 -1 -117 -1 -233
c0 -214 2 -283 2 -293c0 -26 -1 -52 -1 -79c0 -48 -1 -51 71 -51c43 0 97 4 118 7l5 2c3 0 5 47 7 67c2 23 5 25 31 25z" />
    <glyph glyph-name="M" unicode="M" horiz-adv-x="708" 
d="M658 14c0 -8 -6 -14 -13 -14h1h-3h-26h-83h-15c-8 0 -14 6 -14 14c0 7 6 13 14 13h27v0h6c0 22 1 44 1 68c0 52 -1 106 -1 158v40v249v47c-26 -30 -39 -65 -60 -96c-48 -71 -83 -143 -133 -225c-78 106 -139 220 -219 332c-1 -6 -1 -56 -1 -127c0 -128 1 -323 3 -437
c0 -2 -1 -5 -1 -9h51c7 0 13 -6 13 -13c0 -8 -6 -14 -13 -14h1h-3h-26h-84h-16c-8 0 -14 6 -14 14c0 7 6 13 14 13h50c0 82 -6 174 -6 536c0 83 -2 141 13 141c24 -34 45 -64 66 -95c21 -32 133 -200 164 -254c6 -11 10 -16 16 -16c5 0 10 5 18 15c66 101 131 206 184 315
c6 12 19 35 30 35c6 0 8 -10 8 -16c2 -26 3 -655 3 -661h6h1h28c7 0 13 -6 13 -13z" />
    <glyph glyph-name="N" unicode="N" horiz-adv-x="639" 
d="M574 704c9 0 15 -7 15 -15c0 -6 -6 -14 -15 -14h-51c0 -86 5 -160 5 -516c0 -83 3 -159 -12 -159c-21 32 -314 503 -381 594c0 -18 4 -381 6 -557c0 -2 -1 -6 -1 -10h53c7 0 13 -6 13 -13s-6 -14 -13 -14h1h-3h-28h-82h-16c-8 0 -15 7 -15 14s7 13 15 13h50v265
c0 30 -6 183 -6 294c0 64 -1 118 13 118c22 -34 309 -496 377 -588c1 4 1 36 1 82c0 155 -3 475 -3 477h-49c-8 0 -15 8 -15 14c0 8 7 15 14 15h-1h3h27h82h16z" />
    <glyph glyph-name="O" unicode="O" horiz-adv-x="507" 
d="M81 294c5 56 3 116 4 172c2 193 121 247 183 247c58 0 117 -38 133 -92c24 -81 26 -187 26 -262c0 -54 -5 -107 -14 -161c-18 -106 -50 -210 -188 -210c-158 0 -144 185 -144 306zM363 424v3c0 18 -7 111 -12 161c-4 44 -41 91 -91 91c-129 0 -110 -206 -117 -316
c-2 -29 -3 -103 -3 -151c0 -59 2 -85 7 -133c7 -41 59 -62 92 -62c48 0 95 22 109 79c12 49 17 155 17 236c0 44 -1 79 -2 92z" />
    <glyph glyph-name="P" unicode="P" horiz-adv-x="508" 
d="M478 509c-5 -183 -206 -199 -291 -199c-16 0 -27 1 -33 1v-119v-165h6h1h29c7 0 12 -5 12 -13c0 -7 -5 -14 -12 -14h1h-3h-27h-83h-15c-8 0 -13 7 -13 14c0 8 5 13 13 13h27v0h7c1 24 1 48 1 74c0 53 -1 109 -1 162v30v250v107h1c0 7 0 13 -1 20h-7v0h-27
c-8 0 -13 6 -13 14c0 9 5 15 13 15h15c18 0 80 1 130 1c25 0 47 0 59 -1c37 -2 211 -17 211 -190zM154 333c37 0 255 -2 255 206c0 95 -74 139 -189 139c-22 0 -43 -2 -64 -7c0 -1 -1 -1 -2 -1v-93v-244z" />
    <glyph glyph-name="Q" unicode="Q" horiz-adv-x="496" 
d="M446 -51c-7 -12 -15 -24 -22 -37c-85 5 -87 15 -117 96c-24 -11 -48 -17 -71 -17c-41 0 -88 16 -120 43c-31 26 -25 91 -29 128c-2 100 -7 202 -7 303c0 57 6 112 35 163c30 54 90 85 150 85c81 0 141 -77 143 -158c0 -12 1 -23 1 -35c0 -35 -2 -71 -2 -105v-92
c0 -99 3 -225 -56 -279c-7 -8 -10 -17 -10 -27c0 -49 33 -68 57 -68c11 0 31 0 42 4c2 -2 4 -2 6 -4zM333 56c23 38 19 96 19 138c-4 127 -1 253 -3 380c-4 74 -24 117 -89 117c-90 0 -128 -66 -128 -197c0 -91 11 -187 15 -284c1 -39 -1 -79 3 -122c4 -40 49 -80 95 -80
c21 0 54 11 54 30c0 25 -43 33 -64 38c17 13 29 21 41 21c16 0 32 -13 57 -41z" />
    <glyph glyph-name="R" unicode="R" horiz-adv-x="495" 
d="M50 14c0 8 6 14 13 14h28l1 -1h6c0 25 -1 95 -1 190c0 143 1 317 1 330c0 5 -1 16 -1 30c0 52 1 71 1 93h-6h-1h-28c-7 0 -13 6 -13 14c0 7 6 14 13 14h-1h2h27h98h2c70 0 221 -28 221 -204c0 -137 -39 -170 -102 -197c76 -65 46 -160 82 -240c20 -39 103 -32 103 -57v-3
c-88 0 -149 31 -175 129c-27 99 -23 166 -150 166h-13c0 -58 -1 -119 -1 -178c0 -29 1 -59 1 -87h6v0h28c8 0 14 -5 14 -13s-6 -14 -14 -14h-17h-83h-27h-2h1c-7 0 -13 6 -13 14zM351 492c0 163 -102 188 -157 188c-18 0 -38 11 -38 -32h1v-105v-224c12 -2 26 -4 42 -4
c65 0 152 28 152 177z" />
    <glyph glyph-name="S" unicode="S" horiz-adv-x="428" 
d="M280 593c-8 25 4 80 -78 80c-48 0 -101 -59 -101 -123c0 -57 38 -87 75 -108c47 -23 91 -52 127 -90c34 -36 75 -82 75 -188v-21c-1 -38 -32 -156 -177 -156c-77 4 -171 44 -171 124c0 13 13 30 27 30c10 0 25 -10 28 -24c14 -58 82 -105 125 -105c59 0 108 56 108 127
c0 116 -96 179 -182 256c-29 26 -71 67 -71 141c0 82 59 175 153 175c41 0 105 -27 105 -100c0 -12 -13 -25 -26 -25c-5 0 -11 2 -17 7z" />
    <glyph glyph-name="T" unicode="T" horiz-adv-x="408" 
d="M359 699h6c13 0 19 -6 23 -12c-5 -39 -9 -70 -12 -105c-26 0 -29 2 -32 27c-3 19 -4 64 -6 65h-29h-74c0 -89 -1 -74 -1 -270c0 -152 1 -373 1 -378h34c8 0 13 -6 13 -13c0 -8 -5 -13 -12 -13v-1c0 0 0 -1 -2 -1c-1 0 -1 2 -1 2h-26c-23 0 -100 -2 -100 -2
c-7 0 -14 7 -14 15c0 7 7 13 14 13h37c1 28 1 95 1 172c0 492 -1 362 -1 475h-107c-2 -22 -3 -45 -5 -64c-3 -25 -6 -27 -34 -27c-3 35 -6 66 -12 105c3 6 9 12 23 12h6c5 -1 81 -1 156 -1s149 0 154 1z" />
    <glyph glyph-name="U" unicode="U" horiz-adv-x="524" 
d="M461 700c7 0 13 -7 13 -15c0 -9 -6 -14 -13 -14h-29h-1h-22c0 -5 1 -332 1 -480v-69c-1 -34 -14 -130 -140 -130c-121 0 -165 69 -170 139c-7 54 -3 55 -3 188c0 145 1 347 1 352h-7v0h-29c-7 0 -12 6 -12 14s5 15 12 15h18h83h25h3h-1c8 0 12 -7 12 -15
c0 -9 -4 -14 -12 -14h-27h-1h-6v-495c0 4 -12 -158 115 -158c39 0 91 16 103 54c9 39 9 87 11 123v476h-23v0h-29c-8 0 -13 6 -13 14s5 15 13 15h17h82h28h2h-1z" />
    <glyph glyph-name="V" unicode="V" horiz-adv-x="515" 
d="M501 699c8 0 14 -6 14 -14s-6 -14 -15 -14h-27v0h-29c0 -1 -174 -670 -174 -670h-29c0 0 -192 665 -192 670h-7v0h-29c-6 0 -13 6 -13 14s7 14 13 14h-1h3h27h83h16c8 0 14 -6 14 -14s-6 -14 -14 -14h-28v0h-6l156 -586c57 190 149 586 149 586h-10h-1h-28
c-7 0 -13 6 -13 14s6 14 13 14h16h84h26h3h-1z" />
    <glyph glyph-name="W" unicode="W" horiz-adv-x="782" 
d="M770 699c7 0 12 -6 12 -12c0 -8 -5 -14 -12 -14h-31v0h-28c0 -1 -174 -670 -174 -670h-29c0 0 -69 240 -124 433c-50 -193 -112 -433 -112 -433h-30c0 0 -192 665 -192 670h-6h-1h-30c-7 0 -13 6 -13 14c0 6 6 12 13 12h-1h2h29h81h18c8 0 14 -6 14 -12
c0 -7 -6 -14 -14 -14h-29v0h-5l158 -588c30 105 71 272 103 401c-30 104 -54 185 -54 187h-6v0h-28c-7 0 -13 6 -13 14c0 6 6 12 13 12h-1h4h25h84h16c7 0 13 -6 13 -12c0 -7 -6 -14 -13 -14h-29h-1h-6l158 -588c55 191 150 588 150 588h-10h-1h-29c-7 0 -13 7 -13 14
c0 6 6 12 13 12h16h82h28c1 0 4 0 3 0v0z" />
    <glyph glyph-name="X" unicode="X" horiz-adv-x="555" 
d="M494 670h-6c0 -3 -90 -152 -181 -308c90 -161 184 -326 189 -337l25 1c8 0 13 -6 13 -13s-5 -12 -12 -13h1h-3h-29h-84h-16c-8 0 -14 6 -14 13s6 13 14 13h28v-1h5c-16 48 -81 163 -147 283c-69 -120 -133 -235 -149 -283h6v1h29c7 0 13 -6 13 -13s-6 -13 -13 -13h-18
h-82h-27h-3h1c-8 1 -13 6 -13 13s5 13 14 13l60 -1c5 11 87 154 170 302c-97 169 -199 340 -199 343h-6v0h-26c-8 0 -14 7 -14 14c0 8 6 13 14 13h14c28 0 58 -1 81 -1l1 1h27h2c0 -1 0 -1 -1 -1c7 0 13 -4 13 -12c0 -7 -6 -14 -13 -14h-22c0 -2 77 -141 159 -286
c83 145 158 284 158 286h-59c-7 0 -13 7 -13 14c0 8 6 12 13 12c0 0 -1 0 -1 1h4h24c1 0 1 -1 1 -1c24 0 56 1 84 1h16c7 0 13 -5 13 -13c0 -7 -6 -14 -13 -14h-27h-1z" />
    <glyph glyph-name="Y" unicode="Y" horiz-adv-x="513" 
d="M501 699c7 0 12 -6 12 -12c0 -8 -5 -14 -12 -14h-29v0h-5c0 -4 -110 -252 -189 -399v-245h6v0h30c6 0 12 -6 12 -13c0 -9 -8 -12 -14 -12h-28h-83h-16c-5 0 -11 6 -11 12c0 7 6 13 11 13h29h1h7v63c0 52 0 106 -1 158c-68 158 -177 419 -177 423h-6h-1h-24
c-6 0 -13 6 -13 14c0 6 7 12 13 12h12h84h27h3h-1c7 0 13 -6 13 -12c0 -8 -6 -14 -13 -14h-24c0 -3 85 -215 148 -362c73 141 171 359 171 362h-60c-7 0 -13 6 -13 14c0 6 6 12 13 12h-1h3h26h83h17z" />
    <glyph glyph-name="Z" unicode="Z" horiz-adv-x="406" 
d="M375 80c7 -2 11 -7 11 -14c0 -26 -17 -64 -26 -64h-240h-85h-5h-3h1l264 670h-234l-10 -45c-3 -5 -8 -9 -14 -9c-8 0 -14 6 -14 13c0 1 1 2 1 4l4 17c10 41 9 45 22 45h321c0 -17 -250 -624 -269 -671h7h1h241l12 45c2 5 7 9 13 9h2z" />
    <glyph glyph-name="zero" unicode="0" horiz-adv-x="475" 
d="M80 357c0 214 0 355 154 355c161 0 161 -90 161 -355c0 -188 0 -357 -161 -357c-154 0 -154 167 -154 357zM337 357c0 0 2 21 2 53c0 95 -13 280 -105 280c-91 0 -98 -191 -98 -288v-45c0 -8 -1 -24 -1 -45c0 -95 9 -292 99 -292c107 0 103 303 103 337z" />
    <glyph glyph-name="exclam" unicode="!" horiz-adv-x="223" 
d="M89 400c-2 41 -9 166 -9 236c0 52 5 68 30 68c17 0 24 -18 24 -27c-5 -94 -6 -196 -6 -290c0 -78 0 -154 1 -228c0 -11 -6 -21 -20 -21c-22 3 -13 134 -20 262zM112 69c18 -1 31 -15 31 -35c0 -16 -14 -34 -34 -34c-18 0 -28 15 -28 37s11 32 31 32z" />
    <glyph glyph-name="question" unicode="?" horiz-adv-x="390" 
d="M86 511c-4 -8 -12 -13 -21 -13c-23 0 -25 16 -25 37c0 67 32 168 153 168c105 -3 157 -60 157 -149c0 -68 -54 -121 -103 -186c-38 -50 -58 -106 -58 -164c0 -29 6 -57 6 -59c0 -6 -2 -13 -13 -13c-17 0 -17 45 -17 67c0 97 58 177 110 257c16 25 23 52 23 76
c0 56 -34 143 -127 143c-56 0 -88 -37 -88 -92c0 -24 3 -43 3 -72zM157 26c0 20 14 36 32 36c17 0 33 -14 33 -33c0 -16 -18 -32 -35 -32s-30 12 -30 29z" />
    <glyph glyph-name="one" unicode="1" horiz-adv-x="304" 
d="M115 17c13 4 29 0 40 4c0 36 2 201 2 324c0 42 -1 78 -1 104c0 24 1 69 1 105c0 26 -1 48 -2 53c-38 -30 -120 -76 -113 -76c-6 0 -22 5 -22 10c0 4 4 12 7 15c20 18 170 143 190 143v-64v-459v-120c0 -12 -2 -20 -2 -25c0 -8 3 -10 19 -12h12c5 0 8 -1 8 -4
c0 -21 -78 -15 -118 -15c-11 0 -21 -4 -21 17z" />
    <glyph glyph-name="two" unicode="2" horiz-adv-x="434" 
d="M114 43c90 0 172 2 259 2c1 -5 1 -11 1 -18c0 -13 -1 -27 -1 -27h-282c-4 -1 -8 -2 -12 -2c-12 0 -19 5 -19 16c0 14 50 174 162 345c44 60 95 130 95 205c0 53 -19 118 -101 118c-71 0 -95 -51 -97 -61c-3 -43 11 -118 -36 -130c-17 9 -22 24 -22 40c0 37 11 73 30 107
c11 20 44 63 125 63c89 -2 157 -38 157 -154c0 -24 -15 -76 -57 -130c-134 -184 -201 -368 -202 -374z" />
    <glyph glyph-name="three" unicode="3" horiz-adv-x="412" 
d="M253 393c39 -5 99 -42 99 -195c0 -102 -56 -198 -158 -198c-115 0 -149 117 -154 152h10h21s13 0 19 2c2 -22 19 -135 105 -135c45 0 102 72 102 176c0 127 -58 170 -104 170c-12 0 -24 -1 -34 -1l-6 4v25c14 2 28 5 42 7c34 4 102 63 102 149c0 103 -66 133 -104 133
c-90 0 -102 -94 -102 -116c0 -19 -9 -24 -26 -24c-13 0 -25 9 -25 22c0 53 36 139 155 139c53 0 156 -37 156 -154c0 -103 -73 -136 -98 -156z" />
    <glyph glyph-name="four" unicode="4" horiz-adv-x="456" 
d="M262 19v24c0 46 3 92 3 137v23c-14 -2 -42 -2 -73 -2c-49 0 -107 1 -142 1h-20c26 62 232 441 261 497c19 -8 31 -17 31 -30c0 -34 0 -406 1 -418c19 0 33 -1 49 -1c11 0 26 1 38 1c30 0 30 -8 36 -49c-10 -1 -20 -1 -30 -1c-21 0 -42 1 -63 1c-8 0 -18 -1 -23 -1
c-2 0 -4 1 -6 1c-3 0 -4 -1 -4 -2c0 -3 2 -8 2 -19c-1 -24 -1 -61 -1 -94c0 -34 0 -62 2 -68c5 1 11 1 18 1c14 0 28 3 28 -13c0 -11 -124 -8 -132 -8c-2 0 -11 6 -11 11c0 9 14 11 16 11c6 0 10 -2 20 -2zM262 603c-2 0 -121 -234 -185 -352c39 -1 75 -2 110 -2
c17 0 76 -3 76 8c0 18 -1 36 -1 54c0 62 1 126 1 189c0 29 -1 58 -1 86c0 4 1 8 1 11c0 2 -1 4 -1 6z" />
    <glyph glyph-name="five" unicode="5" horiz-adv-x="416" 
d="M155 646h-9h-10c-10 0 -10 -1 -13 -13c-11 -55 -24 -177 -31 -202c10 7 37 37 101 37c33 0 50 -4 78 -15c34 -14 83 -59 83 -228c0 -55 -27 -224 -164 -224c-77 0 -125 53 -125 99c0 7 1 20 10 20c19 0 1 -100 114 -100c85 0 103 135 103 181c-4 115 -10 241 -107 241
c-61 0 -113 -80 -121 -92c-3 11 -4 14 -4 19c13 80 23 158 33 239c7 33 3 80 15 92h246v-12c0 -15 1 -30 1 -45c0 -12 2 -21 -15 -21c-5 0 -8 4 -8 24h-48h-129z" />
    <glyph glyph-name="six" unicode="6" horiz-adv-x="453" 
d="M393 581c0 -8 -7 -12 -15 -12c-10 0 -22 6 -22 15c-2 76 -50 98 -119 98c-100 0 -100 -158 -100 -241c12 28 52 73 100 73c151 0 154 -141 154 -289c0 -131 -14 -225 -154 -225c-157 0 -157 197 -157 349c0 214 0 354 157 354c131 0 156 -49 156 -122zM137 247v-5
c0 -31 8 -223 100 -223c103 0 99 143 99 252c0 62 -4 224 -99 224c-39 0 -101 -37 -101 -212c0 -12 0 -24 1 -36z" />
    <glyph glyph-name="seven" unicode="7" horiz-adv-x="355" 
d="M335 700c0 -16 -230 -665 -233 -680c-3 -13 -12 -20 -24 -20c-17 0 -23 6 -23 15c0 4 1 8 3 13c11 29 220 608 224 618h-241c-7 3 -11 14 -11 26s4 25 11 28c8 -1 40 -1 81 -1c82 0 197 1 213 1z" />
    <glyph glyph-name="eight" unicode="8" horiz-adv-x="451" 
d="M275 379c65 -51 116 -86 116 -222c0 -81 -52 -166 -168 -166c-146 0 -163 99 -163 182c0 50 14 118 110 182c-5 2 -84 63 -84 198c0 63 39 158 133 158c137 0 144 -117 144 -139c0 -6 1 -2 1 -19c0 -33 -9 -112 -89 -174zM136 561c3 -83 53 -121 110 -161
c32 28 59 84 59 148c0 8 0 17 -1 26h1c-8 70 -35 107 -82 107c-66 0 -87 -60 -87 -113v-7zM223 18h7c106 0 116 83 116 144c0 85 -84 129 -146 171c-70 -63 -77 -142 -77 -162c0 -62 18 -150 100 -153z" />
    <glyph glyph-name="nine" unicode="9" horiz-adv-x="452" 
d="M60 119c0 8 7 12 15 12c9 0 20 -6 21 -15c1 -76 50 -97 119 -97c102 0 102 158 102 241c-13 -28 -55 -74 -102 -74c-152 0 -154 142 -154 289c0 133 15 228 154 228c157 0 157 -199 157 -352c0 -213 0 -352 -157 -352c-133 0 -155 47 -155 120zM317 455
c0 0 0 227 -102 227c-104 0 -99 -144 -99 -253c0 -64 4 -225 99 -225c40 0 103 38 103 218c0 11 -1 21 -1 33z" />
    <glyph glyph-name="a" unicode="a" horiz-adv-x="426" 
d="M425 30c0 -3 1 -6 1 -9c0 -19 -29 -24 -51 -24c-41 0 -73 23 -93 64c-40 -29 -66 -67 -137 -67s-115 42 -115 112c0 55 41 101 86 148c42 43 118 61 173 72c1 11 1 22 1 33c0 84 -25 142 -106 142c-47 0 -84 -32 -84 -84c-4 -26 -9 -37 -24 -37c-5 0 -31 0 -31 17
c0 83 93 124 154 124c134 0 141 -105 141 -237c0 -52 -7 -103 -7 -155c0 -48 13 -101 72 -101c6 0 13 0 20 2zM291 298c-8 2 -15 2 -22 2c-25 0 -45 -10 -64 -18c-73 -25 -119 -87 -119 -165c0 -51 52 -91 98 -91c40 0 101 54 101 83c3 65 6 130 6 189z" />
    <glyph glyph-name="b" unicode="b" horiz-adv-x="409" 
d="M70 -2c-1 3 -1 9 -1 16c0 14 1 33 1 41c-1 91 -1 629 -2 640c-12 0 -17 -1 -21 -1c-10 0 -17 10 -17 14c0 10 61 8 95 8c30 0 34 1 34 -6c0 -9 -7 -16 -13 -16c-4 0 -6 1 -11 1h-6v-212c17 5 32 20 77 20c167 0 141 -203 141 -311c0 -84 -11 -191 -141 -194h-18
c-25 0 -54 -2 -82 -2c-13 0 -25 1 -36 2zM129 55c1 -13 19 -38 74 -38c73 0 82 82 82 150c0 135 9 316 -76 316c-66 0 -80 -37 -80 -85c0 -58 -1 -175 -1 -257c0 -41 0 -74 1 -86z" />
    <glyph glyph-name="c" unicode="c" horiz-adv-x="370" 
d="M277 149c3 -1 7 -2 11 -2c7 0 14 2 20 2c3 0 5 0 7 -1c0 -39 -10 -160 -119 -160c-78 0 -136 47 -136 292c0 94 9 229 147 229c21 0 44 -3 72 -10c4 -3 8 -4 12 -4c5 0 9 1 14 1c3 0 6 0 10 -2c2 -33 5 -69 5 -104c-3 -12 -8 -21 -22 -21c-25 0 -20 36 -20 58
c0 7 1 15 1 22c0 20 -24 45 -63 45c-84 0 -97 -97 -97 -172c0 -35 3 -66 3 -84c0 -6 -1 -19 -1 -36c0 -66 7 -189 75 -193c87 10 77 130 81 140z" />
    <glyph glyph-name="d" unicode="d" horiz-adv-x="428" 
d="M381 30c9 0 17 -7 17 -16c0 -8 -8 -16 -17 -16h-38c-1 0 -3 1 -4 1c-11 -3 -24 -3 -37 -3c-28 0 -57 2 -82 2h-18c-127 3 -140 106 -140 189c0 106 -28 316 140 316c44 0 60 -15 79 -20v212h-9c-8 0 -16 -1 -22 -1c-7 0 -13 5 -13 16c0 7 5 6 38 6c40 0 103 3 103 -8
c0 -6 -9 -14 -18 -14c-3 0 -8 1 -18 1c-2 -11 -1 -549 -3 -640c0 0 -1 -25 4 -25h38zM281 55v343c0 48 -18 85 -81 85c-87 0 -78 -175 -78 -309c0 -70 9 -157 84 -157c54 0 74 25 75 38z" />
    <glyph glyph-name="e" unicode="e" horiz-adv-x="391" 
d="M121 246c-1 -33 -3 -69 -3 -103c0 0 -6 -126 76 -126c73 0 84 65 89 76c4 11 10 25 20 25c18 0 23 -9 23 -14c0 -6 -3 -13 -6 -24c-20 -58 -71 -87 -122 -87c-40 0 -76 17 -104 50c-22 26 -34 52 -34 203c0 185 55 261 144 261c83 0 126 -64 126 -198
c0 -32 2 -61 -27 -61h-110c-37 0 -68 0 -72 -2zM274 267c2 11 3 27 3 46c0 71 -19 175 -77 175c-64 -4 -72 -75 -73 -108s-5 -64 -5 -97c0 -6 1 -12 1 -18c52 0 101 1 151 2z" />
    <glyph glyph-name="f" unicode="f" horiz-adv-x="262" 
d="M82 17v466c-9 0 -14 -1 -21 -1c-4 0 -11 1 -17 1h-7c-5 0 -7 0 -7 4c0 3 1 8 3 16h49v24c0 75 7 188 126 188c93 0 114 -69 114 -114c0 -30 -5 -47 -21 -47c-8 0 -14 12 -14 16s1 8 1 12c0 86 -24 113 -81 113c-58 0 -67 -52 -67 -114c0 -31 2 -61 2 -77h85v-7
c0 -9 -4 -15 -19 -15c-9 0 -20 2 -28 2c-11 0 -21 -1 -36 -1c0 -102 -1 -212 -1 -316c0 -52 0 -103 1 -150c5 -1 10 -2 14 -2c5 0 9 1 14 1c6 0 18 0 18 -9c0 -3 -2 -6 -5 -9c-21 0 -147 -3 -147 4c0 13 6 15 15 15c6 0 13 -1 20 -1c3 0 6 0 9 1z" />
    <glyph glyph-name="g" unicode="g" horiz-adv-x="368" 
d="M368 487c-22 -20 -66 -57 -66 -69c0 -27 7 -53 7 -80c0 -18 -3 -34 -7 -52c-8 -30 -19 -108 -107 -161c-16 -6 -65 -32 -65 -60c0 -19 61 -14 104 -25c49 -16 71 -54 71 -116c0 -44 -15 -114 -106 -114c-62 0 -122 34 -122 115c2 18 11 32 32 32c2 0 5 -1 8 -1
c-1 -15 -4 -27 -4 -40c0 -55 61 -76 98 -76c27 0 55 24 55 53c0 112 -88 110 -113 114c-35 6 -62 9 -62 40c0 23 28 52 65 77c-91 25 -116 70 -116 178c0 107 55 203 176 203c30 0 51 -8 68 -30c3 -5 7 -8 11 -8c21 0 47 29 54 29c4 0 9 -3 19 -9zM275 315
c-2 30 -4 159 -95 159c-53 0 -97 -43 -97 -137c0 -29 4 -67 16 -104c20 -33 55 -56 93 -56c51 0 83 64 83 129v9z" />
    <glyph glyph-name="h" unicode="h" horiz-adv-x="436" 
d="M138 18c10 0 38 0 38 -4c0 -3 -1 -15 -3 -15c-12 0 -24 1 -38 1c-30 0 -64 -1 -94 -2c-1 3 -1 5 -1 8c0 10 6 12 13 12c5 0 12 -1 17 -1c2 0 4 0 6 1c2 36 3 110 3 198c0 176 -3 405 -3 480h-15h-29c-2 2 -2 4 -2 6c0 13 34 16 69 16c40 0 74 3 74 -12
c0 -9 -5 -12 -11 -12s-14 2 -20 2h-4v-224c20 14 23 32 97 32c124 0 132 -111 132 -153c0 -56 -1 -129 -1 -209c0 -40 0 -81 1 -124c4 -1 7 -1 10 -1c6 0 9 1 17 1c6 0 12 1 12 -8c0 -10 -10 -11 -21 -11h-121c-1 2 -1 5 -1 7c0 9 6 11 14 11c6 0 13 -1 19 -1c4 0 7 0 9 2
c0 28 1 117 1 198c0 59 0 113 -1 136c-2 41 0 132 -69 132c-78 0 -98 -36 -98 -88c0 -64 -2 -182 -2 -269c0 -57 1 -100 2 -109z" />
    <glyph glyph-name="i" unicode="i" horiz-adv-x="235" 
d="M147 17h11h20c5 0 14 2 14 -8c0 -13 -59 -9 -80 -9c-15 0 -70 -5 -70 8c0 12 27 8 42 9v466h-10h-18c-10 0 -16 1 -16 11c0 7 4 9 11 9c4 0 10 -1 16 -1c37 1 76 2 114 2c10 0 14 -4 14 -9s-3 -9 -8 -12h-40c-1 -50 -1 -103 -1 -155c0 -105 1 -212 1 -311zM110 566
c-21 1 -33 14 -33 34c0 26 18 45 44 45c27 0 36 -8 36 -34c0 -27 -23 -45 -47 -45z" />
    <glyph glyph-name="j" unicode="j" horiz-adv-x="242" 
d="M202 489c0 -6 -12 -7 -24 -7c-13 0 -16 1 -20 1h-8c-2 0 -5 0 -8 1v-33v-314c0 -85 -1 -160 -1 -190c-2 -154 -97 -172 -136 -172c-52 0 -125 40 -125 112c0 18 9 34 22 36c47 0 13 -125 99 -125c85 0 78 110 80 173c1 36 1 94 1 153c0 153 -1 224 -1 227
c0 35 1 82 1 110c0 12 -1 20 -1 22c-9 -2 -27 -2 -45 -2c-9 2 -12 6 -12 11s6 10 15 10h3c5 1 13 1 23 1c19 0 46 -1 68 -1c10 0 20 0 27 1c27 0 42 1 42 -14zM108 567c-26 0 -39 11 -39 34s25 44 50 44c16 0 33 -18 33 -32c0 -24 -19 -46 -44 -46z" />
    <glyph glyph-name="k" unicode="k" horiz-adv-x="444" 
d="M444 9c0 -9 -30 -11 -69 -11c-38 0 -99 1 -99 6c0 20 29 8 49 14c-46 90 -93 180 -147 270c-16 -19 -28 -32 -40 -47v-224h11h20c5 0 13 1 13 -8c0 -13 -57 -9 -79 -9c-14 0 -72 -5 -72 8c0 12 29 8 45 9c0 22 -1 103 -1 201c0 198 1 467 1 476h-29c-10 0 -17 1 -17 8
c0 9 3 11 9 11c5 0 11 -1 18 -1c38 1 76 0 112 3c12 0 17 -4 17 -9c0 -4 -3 -9 -9 -12h-39v-406c0 0 1 -1 3 -2c58 62 115 123 173 186c-1 2 8 10 8 12c-7 0 -20 -2 -30 -2c-9 0 -14 2 -18 10c0 3 8 11 14 11h6c11 1 22 1 33 1h43c9 0 17 1 27 1c8 0 16 -2 16 -8
c0 -11 -10 -15 -18 -15c-7 0 -15 2 -21 2c-30 1 -46 -20 -64 -42c-28 -34 -83 -83 -83 -104c0 -6 2 -11 5 -17c50 -100 101 -198 151 -297c8 -8 13 -8 24 -8c6 0 11 1 16 1c11 0 20 -2 21 -8z" />
    <glyph glyph-name="l" unicode="l" horiz-adv-x="236" 
d="M84 694h-25c-12 0 -19 1 -19 12c0 6 4 7 9 7s11 -1 18 -1c39 1 77 3 115 3c10 0 14 -5 14 -10c0 -14 -32 -11 -49 -11c0 -51 -1 -127 -1 -210c0 -168 1 -368 1 -467h11h20c6 0 14 1 14 -9c0 -12 -60 -8 -80 -8c-14 0 -70 -5 -70 7c0 13 24 9 42 10v677z" />
    <glyph glyph-name="m" unicode="m" horiz-adv-x="766" 
d="M733 17c2 -3 3 -6 3 -8c0 -13 -58 -9 -79 -9c-16 0 -72 -5 -72 8c0 11 21 9 42 9v285c-3 66 -20 155 -99 155c-69 0 -116 -57 -116 -113c0 -16 1 -235 1 -327h11h20c6 0 13 0 13 -9c0 -11 -56 -8 -78 -8c-14 0 -71 -5 -71 8s30 8 44 9v327c-1 30 -7 117 -97 117
c-75 0 -107 -80 -120 -133c0 -105 1 -212 1 -311h11h21c5 0 13 1 13 -9c0 -12 -57 -8 -78 -8c-13 0 -72 -4 -72 6c0 15 27 10 43 11v466h-10h-18c-10 0 -16 1 -16 11c0 7 3 9 10 9c4 0 10 -1 16 -1c28 1 55 1 80 2v-21s-1 -51 -1 -75c14 25 53 75 120 75
c103 0 114 -53 131 -67c29 45 79 67 141 67c141 0 159 -104 162 -172h1v-294h12h21h10z" />
    <glyph glyph-name="n" unicode="n" horiz-adv-x="489" 
d="M456 17c2 -3 3 -6 3 -8c0 -13 -60 -9 -81 -9c-15 0 -70 -5 -70 8c0 11 24 8 43 9c0 38 1 317 1 327c-2 30 -6 117 -99 117c-74 0 -108 -80 -119 -133v-311h12h22c5 0 13 1 13 -8c0 -13 -59 -9 -79 -9c-15 0 -71 -5 -71 8c0 12 28 8 44 9v466h-10h-19c-10 0 -16 1 -16 10
c0 8 3 10 9 10c5 0 10 -1 17 -1c27 1 53 1 79 2c0 0 -1 -72 -1 -96c14 25 53 75 120 75c106 0 154 -47 158 -139c1 -16 1 -235 1 -327h12h21h10z" />
    <glyph glyph-name="o" unicode="o" horiz-adv-x="408" 
d="M206 -14c-130 2 -146 135 -146 211c0 49 2 51 2 74c0 79 7 243 141 243c163 0 144 -227 144 -267c0 -2 1 -17 1 -39c0 -72 -15 -220 -142 -222zM280 228c0 118 -7 263 -76 263c-64 0 -72 -93 -72 -170c0 -29 1 -56 1 -74c0 -16 -1 -39 -1 -64c0 -74 9 -169 78 -169
c62 6 71 91 71 155c0 25 -1 47 -1 59z" />
    <glyph glyph-name="p" unicode="p" horiz-adv-x="443" 
d="M74 470c-14 -1 -23 -2 -30 -2c-8 0 -11 2 -11 10c0 9 -5 26 22 26c11 0 22 -1 34 -1c7 0 14 0 21 1c20 0 25 -2 25 -38v-5c7 4 26 43 99 43c128 0 149 -132 149 -222c0 -14 0 -27 -1 -38c0 -7 1 -19 1 -35c0 -69 -15 -215 -146 -215c-50 0 -82 17 -102 38
c0 -16 -1 -103 -1 -176c0 -31 -2 -88 4 -88c45 0 57 -10 57 -20c0 -22 -31 -17 -50 -17c-27 0 -56 1 -80 1c-7 0 -14 -1 -20 -1c-8 0 -15 3 -15 16c0 11 10 20 22 20c4 0 8 -1 13 -1c3 0 6 0 9 1c0 153 -1 310 -1 467c0 78 0 157 1 236zM329 244c0 11 1 32 1 57
c0 78 -11 184 -100 184c-64 0 -99 -102 -99 -146c0 -59 2 -119 2 -179c0 -31 34 -147 102 -147c88 0 94 133 94 202v29z" />
    <glyph glyph-name="q" unicode="q" horiz-adv-x="444" 
d="M370 -232h5c6 0 12 1 16 1c14 0 23 -8 23 -20c0 -16 -12 -16 -21 -16c-10 1 -20 1 -31 1c-25 0 -53 -2 -79 -2c-12 0 -35 -4 -35 19c0 10 12 20 59 20c1 18 1 51 1 87c0 73 -1 161 -1 178c-16 -23 -51 -39 -100 -39c-138 0 -147 162 -147 226v23v26c0 91 14 233 151 233
c74 0 90 -38 96 -42v11c0 30 2 109 2 116c0 14 6 17 17 17c10 0 20 -1 30 -1h24c9 0 19 0 28 -1c2 -12 3 -20 3 -25c0 -8 -3 -10 -11 -10c-6 0 -16 2 -30 3v-262v-543zM210 16c67 0 99 115 99 146c0 60 1 120 1 179c0 49 -34 146 -102 146c-85 0 -94 -114 -94 -188
c0 -23 1 -42 1 -53c1 -47 -9 -230 95 -230z" />
    <glyph glyph-name="r" unicode="r" horiz-adv-x="358" 
d="M346 441c8 -13 12 -25 12 -37c0 -18 -13 -46 -30 -46c-42 0 -10 95 -77 95c-46 0 -88 -45 -114 -72c0 -123 1 -249 1 -364h11h19c5 0 14 2 14 -9c0 -12 -61 -8 -80 -8c-15 0 -70 -5 -70 7c0 14 30 9 42 10v466h-9h-19c-10 0 -16 1 -16 11c0 7 3 9 10 9c5 0 11 -1 17 -1
c26 1 52 1 81 2c0 0 -1 -68 -1 -90c42 32 82 69 139 69c31 0 53 -14 70 -42z" />
    <glyph glyph-name="s" unicode="s" horiz-adv-x="360" 
d="M64 17c-6 -9 -8 -17 -18 -17c-16 0 -11 62 -11 79c0 8 -1 22 9 22c28 0 40 -39 60 -55c21 -24 46 -34 69 -34c51 0 96 49 96 104c0 58 -49 107 -170 149c-41 14 -69 66 -69 117c0 56 39 122 140 122c11 0 24 -1 36 -1h17h36c6 -12 8 -28 8 -43c0 -16 4 -26 -21 -37
c-1 0 -10 7 -10 12v5c0 37 -30 47 -62 47c-79 0 -93 -69 -93 -94c0 -15 -9 -75 123 -104c10 -4 116 -35 116 -167c0 -96 -79 -127 -153 -127c-41 0 -79 9 -103 22z" />
    <glyph glyph-name="t" unicode="t" horiz-adv-x="348" 
d="M317 142c13 -1 21 -18 21 -37c0 -58 -61 -111 -120 -111c-38 0 -139 15 -141 172c-1 41 -1 184 -1 316h-4h-10c-4 0 -6 -1 -17 -1s-25 1 -25 6c0 14 12 15 32 15c8 0 16 -1 24 -1v214h63c-1 -24 -1 -113 -2 -213c17 0 30 0 36 -1h4c7 0 13 -4 13 -9s-4 -10 -14 -12
c-12 0 -28 0 -39 1v-172c-1 -52 0 -95 1 -118c2 -69 -2 -173 81 -173c87 0 50 124 98 124z" />
    <glyph glyph-name="u" unicode="u" horiz-adv-x="454" 
d="M423 502c1 -4 1 -7 1 -9c0 -7 -4 -7 -13 -8c-3 0 -18 2 -38 2c0 -7 1 -55 1 -115c0 -87 0 -201 -4 -253c-3 -38 -36 -122 -137 -122c-106 0 -149 44 -156 137c-1 14 -2 255 -2 351h-11h-21c-4 0 -13 -2 -13 7c0 15 110 10 150 10c1 -4 2 -7 2 -9c0 -12 -26 -7 -45 -8
c0 -26 -1 -169 -1 -265c0 -48 1 -84 1 -87c1 -28 5 -115 98 -115c70 0 96 39 110 109l4 357c-27 0 -47 -3 -47 8c0 15 91 10 121 10z" />
    <glyph glyph-name="v" unicode="v" horiz-adv-x="426" 
d="M0 503c20 2 39 3 57 3c20 0 85 0 85 -15c-11 -3 -26 -5 -42 -8c36 -132 87 -264 131 -392c44 132 73 264 108 392c-13 1 -47 2 -47 4v7c0 2 0 4 -1 5c4 2 37 4 69 4c36 0 66 -3 66 -11c-19 -15 -42 -4 -65 -17c-32 -121 -70 -250 -102 -375c-9 -33 -17 -59 -36 -102
c-18 1 -26 10 -32 23c-43 150 -94 295 -142 446c-4 13 -11 17 -23 17h-4c-13 0 -22 -4 -22 19z" />
    <glyph glyph-name="w" unicode="w" horiz-adv-x="713" 
d="M0 486c2 14 10 19 18 19c49 -1 95 -3 142 -6c5 0 8 -3 11 -6c-5 -13 -5 -13 -51 -17c35 -129 57 -261 106 -386c30 63 40 134 60 200c21 68 39 134 59 206c9 1 23 2 38 3c30 -131 64 -262 93 -394c2 -1 6 -1 8 -1c52 116 86 241 131 364c-17 -1 -32 -2 -43 -2
c-7 0 -12 2 -12 11c3 27 104 21 131 21c12 0 15 -8 22 -14c-23 -18 -45 -10 -75 -14c-55 -142 -102 -275 -151 -421c-4 -22 -17 -55 -29 -55c-26 0 -78 320 -110 423c-29 -59 -42 -140 -62 -207c-20 -65 -42 -128 -65 -192c-2 -11 -14 -22 -19 -22c-24 0 -75 241 -104 354
c-10 37 -18 72 -28 109c-9 31 -15 27 -70 27z" />
    <glyph glyph-name="x" unicode="x" horiz-adv-x="436" 
d="M426 504c-9 -5 -4 -19 -9 -19h-26c-51 0 -47 -9 -60 -37c-24 -50 -48 -98 -76 -147c-6 -9 -8 -18 -8 -27c0 -10 3 -20 8 -30c35 -63 116 -221 139 -221c6 0 26 -6 25 -11c0 -14 -68 -10 -91 -10c-7 0 -22 -1 -34 -1c-10 0 -16 -1 -16 6c0 15 16 12 34 15
c-28 63 -66 126 -104 185c-29 -54 -75 -155 -92 -187c14 -3 33 -1 51 -5c-6 -6 -1 -13 -5 -13c-9 -1 -19 -1 -29 -1c-24 0 -49 1 -72 1c-9 0 -18 -1 -27 -1c-6 0 -9 2 -9 10c1 1 1 7 1 7c3 0 6 -1 9 -1c32 0 47 15 61 46c27 58 60 114 88 171c2 6 3 11 3 16c0 6 -2 12 -6 19
c-33 64 -69 125 -103 190c-8 15 -5 25 -29 25c-8 0 -15 -1 -23 -1c-5 0 -10 1 -16 2c4 13 2 21 8 21h21c28 0 68 1 98 1c54 0 38 -5 44 -25c-4 -1 -8 -1 -12 -1c-8 0 -18 1 -28 1h-7c23 -61 59 -120 86 -182c38 60 69 123 101 185c-12 0 -43 3 -49 7c1 3 2 12 3 14
c9 1 38 2 69 2c36 0 73 -1 82 -4z" />
    <glyph glyph-name="y" unicode="y" horiz-adv-x="457" 
d="M260 104c28 126 72 247 98 379c-22 2 -73 -1 -73 11c0 21 95 15 142 17c9 0 20 -1 30 -1c-2 -15 -6 -20 -18 -20c-6 0 -18 2 -24 2c-20 0 -22 -11 -29 -38c-19 -68 -40 -136 -61 -205c-101 -432 -185 -472 -210 -472c-9 0 -7 24 -7 33v6c0 19 5 32 26 47
c53 36 84 88 98 151c0 2 1 3 1 5c0 5 -2 10 -4 14c-52 135 -97 268 -149 402c-4 15 -11 28 -16 42c-28 0 -64 -4 -64 19c0 16 121 11 165 11c2 -8 3 -13 3 -17c0 -12 -16 -7 -52 -12c37 -130 89 -252 144 -374z" />
    <glyph glyph-name="z" unicode="z" horiz-adv-x="353" 
d="M313 511c2 -5 3 -9 3 -13c0 -11 -7 -20 -11 -30c-21 -47 -45 -90 -67 -135c-48 -99 -95 -200 -143 -298c-3 -8 -3 -15 -7 -23c6 -1 11 -1 17 -1c49 0 90 15 139 17c37 0 39 49 52 49c6 0 14 -3 27 -9c-5 -25 -12 -52 -28 -69c-76 -2 -148 -9 -223 -9c-19 0 -25 6 -42 11
c65 167 159 318 221 488c-13 1 -25 1 -37 1c-35 0 -69 -2 -104 -2h-15c-3 -21 -9 -41 -13 -64c-10 -2 -19 -4 -30 -5c-1 5 -1 9 -1 14c0 41 7 69 56 69c66 5 132 8 196 11c3 0 6 -1 10 -2z" />
    <glyph glyph-name="afii10065" unicode="&#x430;" horiz-adv-x="428" 
d="M427 34c0 -4 1 -8 1 -12c0 -23 -27 -26 -49 -26c-42 0 -76 21 -97 64c-38 -29 -68 -66 -134 -66c-72 0 -118 37 -118 123c0 64 32 149 197 194c19 5 36 12 56 18c1 20 3 40 3 60c0 80 -40 112 -98 112c-40 0 -80 -28 -85 -65c0 -40 -16 -59 -35 -59c-11 0 -23 4 -23 21
c0 16 6 28 13 42c29 57 88 82 144 82c74 0 137 -38 138 -179c3 -70 -2 -258 7 -280c7 -20 30 -33 56 -33c8 0 16 1 24 4zM280 301c-112 -6 -193 -85 -193 -183c0 -40 35 -84 79 -84c30 0 69 17 103 40c11 7 18 75 18 137c0 34 -2 68 -7 90z" />
    <glyph glyph-name="afii10066" unicode="&#x431;" horiz-adv-x="391" 
d="M96 445c17 24 41 65 108 65c100 0 118 -102 118 -190c0 -68 -6 -148 -6 -167c-1 -55 -6 -152 -134 -152c-119 0 -132 145 -132 217c0 129 12 207 28 312c12 78 73 151 164 154c25 0 54 3 83 6c46 5 44 56 76 70v-10c0 -93 -93 -119 -148 -119c-33 0 -57 7 -71 7
c-67 0 -87 -104 -87 -164c0 -10 0 -19 1 -29zM263 420c-2 33 -23 66 -60 66c-70 0 -86 -67 -93 -115c-7 -41 -11 -81 -11 -122c0 -47 5 -95 16 -142c4 -19 15 -84 75 -86c56 3 66 64 71 79c7 23 9 74 9 128c0 77 -5 162 -7 192z" />
    <glyph glyph-name="afii10067" unicode="&#x432;" horiz-adv-x="379" 
d="M30 9c2 18 4 20 46 27c1 48 1 95 1 143c0 95 -1 191 -1 289h-32c-3 8 -6 16 -10 24c8 4 13 11 19 11c35 4 70 9 106 9c87 0 148 -39 148 -138c0 -30 -15 -66 -50 -102c48 -32 82 -78 82 -139c0 -94 -63 -132 -129 -132h-14c-36 0 -72 -4 -109 -4c-19 0 -39 1 -57 12z
M126 20c9 -1 18 -2 27 -2c25 0 50 4 71 8c11 1 58 11 62 116c-3 66 -36 108 -98 108c-55 0 -57 -6 -57 -37c0 -51 -7 -154 -5 -185v-8zM125 487c2 -71 4 -143 6 -216c45 5 82 5 104 36c21 22 30 46 30 73c0 71 -48 115 -103 115c-13 0 -26 -3 -37 -8z" />
    <glyph glyph-name="afii10068" unicode="&#x433;" horiz-adv-x="363" 
d="M43 23c15 3 31 6 50 10v443c-16 1 -63 3 -63 9c0 16 7 22 18 22c106 0 207 -2 312 -2c2 -26 2 -49 3 -75c-13 2 -24 3 -38 5c-1 13 -4 28 -6 42c-19 5 -39 7 -59 7c-36 0 -74 -5 -103 -7c-15 -1 -16 -6 -16 -22c0 -44 2 -115 2 -186c0 -107 -1 -214 -1 -230
c17 -4 32 -6 47 -10c0 -24 -4 -29 -24 -29c-22 0 -44 3 -63 3c-16 0 -34 -3 -46 -3c-11 0 -13 7 -13 23z" />
    <glyph glyph-name="afii10069" unicode="&#x434;" horiz-adv-x="462" 
d="M374 476c-1 -51 -2 -102 -2 -153s1 -102 1 -152c0 -51 -1 -101 -2 -151c22 -4 41 -8 61 -12c-4 -31 -5 -52 -9 -88c-15 2 -26 4 -37 5c-3 23 -6 54 -8 75h-108s-68 1 -102 1c-46 0 -90 -1 -140 -1c-3 -18 -6 -46 -11 -69c-12 -1 -22 -4 -37 -7c1 30 1 57 1 86
c14 2 33 6 61 8c50 136 75 275 75 415v38c-13 17 -45 1 -45 31c0 2 0 5 1 8h88c32 0 64 -1 97 -1c30 0 61 3 91 3c27 0 54 -3 81 -11c-5 -20 2 -19 -56 -25zM93 17c75 1 148 3 219 4c6 40 4 204 4 263c0 44 -1 87 -2 130v38c0 12 0 25 -2 37c-49 1 -102 2 -152 3
c-4 -56 -18 -298 -67 -475z" />
    <glyph glyph-name="afii10070" unicode="&#x435;" horiz-adv-x="389" 
d="M120 249c-1 -28 -2 -61 -2 -92c0 -8 -8 -132 77 -132c74 0 84 63 87 76c5 11 11 23 21 23c17 0 22 -8 22 -14c0 -71 -78 -109 -128 -109c-39 0 -78 17 -105 49c-19 22 -32 49 -32 172c0 204 48 286 142 286c85 0 126 -62 126 -195c0 -22 7 -62 -26 -62h-109
c-38 0 -69 0 -73 -2zM276 271c1 10 2 23 2 38c0 70 -18 179 -79 179c-61 -3 -73 -68 -73 -106c0 -29 -4 -57 -4 -84c0 -11 0 -19 1 -30c50 2 100 2 153 3z" />
    <glyph glyph-name="afii10071" unicode="&#x451;" horiz-adv-x="390" 
d="M120 249c-1 -31 -3 -68 -3 -102c0 -2 -6 -122 78 -122c73 0 83 63 87 76c5 11 12 23 23 23c16 0 20 -7 20 -13c0 -72 -78 -110 -128 -110c-39 0 -78 17 -105 49c-19 22 -32 49 -32 172c0 204 47 286 143 286c85 0 126 -62 126 -195c0 -23 6 -62 -26 -62h-110
c-38 0 -69 0 -73 -2zM275 271c2 10 3 24 3 40c0 70 -19 177 -79 177c-62 -4 -73 -65 -74 -106c-1 -29 -3 -57 -4 -84c0 -11 1 -19 1 -30c51 2 100 2 153 3zM132 558c-20 0 -33 11 -33 37c0 22 21 37 41 37c17 0 33 -17 33 -33c0 -25 -18 -40 -41 -41zM255 562
c-18 0 -33 10 -33 30c0 21 16 38 38 38c21 0 41 -17 41 -34c0 -19 -22 -34 -46 -34z" />
    <glyph glyph-name="afii10072" unicode="&#x436;" horiz-adv-x="587" 
d="M570 37c4 1 8 2 17 4c-6 -30 -17 -41 -41 -41c-23 0 -51 14 -60 38c-20 43 -37 87 -54 134c-13 36 -42 79 -92 79c-19 0 -32 -13 -32 -35c0 -43 -2 -87 -2 -129c0 -18 2 -35 4 -54c25 0 55 8 55 -16c0 -12 -9 -21 -21 -21c-21 0 -41 6 -61 6c-22 0 -43 -2 -64 -5
c-5 7 -10 14 -18 26c21 4 40 6 60 10c1 69 3 140 5 209c-6 3 -12 5 -20 5c-53 1 -79 -43 -91 -78c-17 -47 -33 -91 -54 -134c-9 -25 -37 -38 -61 -38c-23 0 -35 11 -40 41c24 -6 34 -9 47 -9c22 0 31 14 38 46c18 87 22 161 96 200c1 0 1 2 1 3c-28 55 -35 127 -47 189
c-3 13 -13 17 -25 17c-25 0 -32 -15 -32 -38c0 -13 3 -24 7 -37c-10 -2 -16 -3 -21 -3c-10 0 -21 21 -21 49c0 31 23 50 60 50c48 0 68 -51 80 -92c18 -48 6 -138 83 -146v72c0 48 0 96 -3 144c-19 -1 -38 -2 -59 -4v29c45 0 86 3 132 3c21 0 27 -5 30 -27
c-16 -1 -35 -2 -54 -4c-2 -71 -5 -139 -7 -212c17 4 33 5 47 10c18 6 29 52 38 79c16 63 28 152 95 152c38 0 59 -23 59 -50c0 -39 -10 -50 -22 -50c-5 0 -12 1 -21 2c3 14 7 21 7 35c0 22 -6 41 -29 41c-15 0 -23 -3 -26 -17c-13 -62 -18 -132 -49 -190l2 -2
c114 -62 66 -246 134 -246c8 0 18 1 30 5z" />
    <glyph glyph-name="afii10073" unicode="&#x437;" horiz-adv-x="374" 
d="M90 472c28 29 60 41 98 41c59 0 118 -46 118 -111c0 -36 -13 -59 -63 -100c61 -26 81 -73 81 -132c0 -57 -4 -117 -49 -145c-32 -20 -64 -30 -94 -30c-58 0 -118 40 -137 91c-8 27 -11 54 -14 80c10 10 21 12 32 12c6 0 12 0 19 -1c0 -75 2 -110 55 -138
c13 -7 26 -11 39 -11c77 0 101 73 101 139c0 74 -24 115 -77 115c-22 0 -44 -10 -65 -10c-4 0 -8 1 -14 1c4 10 5 20 9 28c68 4 119 16 119 97c0 40 -26 94 -63 94c-48 0 -100 -33 -100 -80c0 -7 1 -15 1 -22c0 -13 -8 -18 -22 -18c-11 1 -19 6 -19 18v17v31
c0 21 -3 56 24 56c8 0 11 -6 21 -22z" />
    <glyph glyph-name="afii10074" unicode="&#x438;" horiz-adv-x="514" 
d="M97 36c0 17 -1 35 -1 52c0 82 4 164 4 246c0 49 -2 97 -5 145c-16 15 -41 -5 -55 23c37 1 74 8 110 8c21 0 43 -3 64 -9c-2 -13 -8 -15 -14 -15c-4 0 -9 1 -13 1c-11 -1 -21 -2 -37 -3c-1 -135 -2 -267 -4 -407c7 9 11 15 16 22c72 131 148 263 218 392c5 13 13 17 28 17
c22 0 52 4 57 -25c-15 -3 -27 -6 -43 -8v-438c17 -10 43 2 52 -32c-45 -6 -88 0 -130 -6c-1 3 -1 6 -1 8c0 23 20 20 35 27v386c-2 1 -3 2 -5 2c-6 -11 -14 -21 -21 -31c-67 -124 -134 -241 -203 -360c-11 -22 -25 -33 -49 -33h-10c-6 0 -13 -1 -18 -1c-5 1 -15 6 -15 11
c0 16 21 19 40 28z" />
    <glyph glyph-name="afii10075" unicode="&#x439;" horiz-adv-x="515" 
d="M98 35c-1 20 -1 39 -1 59c0 82 4 164 4 245c0 47 -1 93 -5 139c-19 15 -43 -5 -56 23c40 1 76 7 113 7c20 0 40 -2 61 -8c-1 -13 -8 -15 -15 -15c-4 0 -9 1 -13 1c-10 -1 -22 -2 -34 -3c-2 -135 -4 -269 -5 -407c6 9 10 14 13 22c76 130 153 264 219 392
c7 13 15 18 28 18c32 -3 54 0 59 -26c-15 -3 -28 -5 -43 -8v-439c18 -8 43 2 52 -32c-17 -2 -34 -2 -50 -2h-28c-18 0 -35 -1 -52 -3c-1 4 -1 7 -1 10c0 21 18 18 31 25v386c-1 1 -2 2 -4 3c-38 -65 -72 -132 -109 -197s-76 -130 -112 -196c-12 -21 -26 -33 -49 -32h-11h-15
c-6 0 -20 2 -20 11c0 16 22 18 43 27zM179 603c3 1 5 2 8 2c12 0 32 -32 51 -32c32 0 67 36 67 72c0 17 -11 43 -31 43c-14 0 -29 -7 -29 -18c0 -7 5 -14 11 -24c-3 -1 -6 -1 -9 -1c-15 0 -23 11 -23 31c0 22 26 34 48 34c39 0 74 -33 74 -75c0 -39 -29 -92 -79 -92
c-38 0 -82 25 -88 60z" />
    <glyph glyph-name="afii10076" unicode="&#x43a;" horiz-adv-x="424" 
d="M424 41c-5 -30 -15 -41 -39 -41c-26 0 -52 14 -62 38c-18 44 -37 87 -53 134c-12 35 -40 78 -93 79c-18 0 -29 -13 -29 -35c0 -43 -2 -87 -2 -129c0 -17 2 -35 2 -54c25 0 54 6 54 -14c0 -17 -15 -23 -27 -23c-18 4 -36 6 -54 6c-21 0 -43 -2 -64 -5c-6 7 -10 14 -17 27
c21 3 38 5 57 9c4 95 8 189 8 284c0 55 -2 110 -4 166c-22 -1 -39 -2 -58 -3v29c12 0 23 -1 35 -1c35 0 68 3 100 3c18 0 22 -6 25 -27c-18 -1 -34 -2 -52 -3c-3 -72 -5 -140 -7 -213c25 6 51 3 62 28c9 20 15 40 21 61c22 61 28 158 97 158c33 0 58 -24 58 -57
s-14 -49 -23 -49c-5 0 -11 1 -20 2c5 17 7 27 7 41c0 22 -8 36 -29 36c-35 0 -38 -63 -43 -97c-5 -38 -13 -75 -33 -111c0 -1 1 -1 1 -1c79 -41 78 -115 97 -201c7 -32 17 -46 39 -46c13 0 24 6 46 9z" />
    <glyph glyph-name="afii10077" unicode="&#x43b;" horiz-adv-x="384" 
d="M303 29c3 -1 7 -1 11 -1c5 0 11 1 17 1c15 0 12 -11 12 -17c0 -10 -4 -12 -13 -12c-34 -1 -69 -1 -105 -1c0 32 2 25 27 31c-1 40 -2 80 -2 120c0 90 2 180 2 271v70c-13 5 -38 7 -63 7c-28 0 -57 -3 -76 -7v-18c0 -58 2 -240 2 -326c0 -65 2 -150 -69 -150
c-17 0 -46 10 -46 30c0 15 18 31 30 31c18 0 26 -23 39 -23c27 0 20 164 20 197v259c-15 0 -46 -1 -60 -1c-6 0 -6 3 -8 20c16 1 86 2 156 2s141 -1 161 -1c-1 -5 -2 -8 -2 -11c0 -2 1 -3 1 -5c0 -10 -25 -6 -34 -6c-1 -10 -2 -59 -2 -122c0 -125 2 -304 2 -338z" />
    <glyph glyph-name="afii10078" unicode="&#x43c;" horiz-adv-x="626" 
d="M547 508c0 -53 -1 -107 -1 -160c0 -107 1 -215 1 -323c13 -2 39 5 39 -15c0 -15 -36 -10 -62 -10c-36 0 -72 1 -77 2c0 25 19 17 39 22c0 71 1 145 1 220c0 56 -1 111 -2 165c-5 1 -126 -172 -155 -221c-8 -13 -14 -18 -20 -18s-13 5 -23 16c-30 34 -153 219 -165 228
c-1 -133 0 -263 -1 -387c5 -3 11 -4 17 -4c9 0 18 2 26 2c15 0 14 -2 21 -24c-44 0 -88 -5 -129 -5c-5 0 -11 5 -16 8c22 22 31 18 56 23c0 55 -1 424 -1 481c3 -1 7 -2 10 -2c2 0 4 1 7 1c19 0 196 -254 209 -271c14 12 23 24 33 37c53 71 108 143 161 215c7 9 10 21 25 21
c2 0 4 -1 7 -1z" />
    <glyph glyph-name="afii10079" unicode="&#x43d;" horiz-adv-x="478" 
d="M147 253v-226c4 -5 10 -6 15 -6c6 0 13 2 18 2c8 0 13 -3 16 -14c-7 -8 -16 -10 -25 -10s-18 1 -28 1c-17 0 -38 -1 -59 -1c-13 0 -38 -2 -38 7c0 7 0 18 16 18h10c23 0 15 35 15 55c0 91 -1 183 -1 276c0 43 0 87 1 130c-20 0 -30 1 -47 1v21c48 1 92 2 136 2
c20 0 22 2 23 -23c-5 -1 -9 -1 -14 -1h-17c-7 0 -14 0 -21 -1v-202c16 -3 44 -5 73 -5c39 0 82 3 100 9c0 61 1 137 1 202c-4 -1 -7 -1 -11 -1c-9 0 -18 1 -27 1h-7c-4 7 -1 4 -2 20c16 0 47 1 79 1c31 0 62 -1 78 -1c-4 -29 -8 -18 -48 -20c0 -38 1 -78 1 -119
c0 -91 -1 -186 -1 -275v-67c5 -3 10 -3 15 -3h17c11 0 20 -3 23 -23c-13 -1 -26 -1 -40 -1c-22 0 -45 1 -67 1c-14 0 -27 -1 -40 -1c-2 0 -6 5 -6 20c16 3 22 1 36 5c1 25 1 51 1 77c0 52 -1 105 -1 156c-18 3 -36 4 -54 4c-41 0 -81 -6 -120 -9z" />
    <glyph glyph-name="afii10080" unicode="&#x43e;" horiz-adv-x="408" 
d="M205 -11c-129 4 -145 132 -145 209c0 26 2 46 2 54v27c0 80 8 240 141 240c131 0 144 -138 144 -219c0 -21 -1 -38 -1 -48c0 0 2 -18 2 -45c0 -74 -17 -214 -143 -218zM286 233c0 115 -15 264 -81 264c-73 0 -81 -115 -81 -195c0 -21 1 -40 1 -54v-40
c0 -74 6 -189 84 -189c87 7 77 169 77 214z" />
    <glyph glyph-name="afii10081" unicode="&#x43f;" horiz-adv-x="478" 
d="M149 25h37c5 0 9 -2 9 -9c0 -14 -6 -17 -16 -17c-32 0 -87 1 -133 1c0 21 4 22 18 22h8c5 0 11 0 17 1v460c-4 0 -11 -1 -18 -1c-14 0 -30 3 -31 22c8 11 314 7 324 9c42 -5 66 1 66 -22c-6 -6 -14 -8 -23 -8c-7 0 -14 1 -20 1c-8 0 -5 -407 -5 -456c17 0 56 5 56 -9
c0 -27 -43 -16 -150 -21c-1 8 -2 17 -4 26c15 3 24 0 37 3c-1 6 -1 28 -1 58c0 95 2 276 2 363v43h-171c1 -5 1 -27 1 -59c0 -105 -3 -320 -3 -387v-20z" />
    <glyph glyph-name="afii10082" unicode="&#x440;" horiz-adv-x="457" 
d="M87 477c-14 -1 -24 -2 -30 -2c-11 0 -14 2 -14 11c0 6 1 14 3 25c9 1 18 1 27 1h37h22c11 0 17 -10 17 -39v-4c7 4 22 43 98 43c133 0 149 -138 149 -231v-32c0 -5 1 -15 1 -28c0 -68 -15 -221 -147 -221c-51 0 -84 18 -101 42c0 -18 -2 -106 -2 -179c0 -31 -1 -88 6 -88
c43 0 54 -9 54 -17c0 -19 -24 -17 -35 -17c-25 0 -54 2 -80 2c-13 0 -26 -2 -37 -2c-8 0 -15 3 -15 15c0 7 8 17 22 17c5 0 11 -1 17 -1c3 0 5 0 8 1c0 153 -1 310 -1 468c0 79 0 158 1 236zM341 249c0 13 1 35 1 60c0 80 -11 182 -100 182c-65 0 -97 -101 -97 -144
c0 -60 1 -118 1 -178c0 -32 32 -148 101 -148c103 0 94 183 94 228z" />
    <glyph glyph-name="afii10083" unicode="&#x441;" horiz-adv-x="370" 
d="M277 164c3 -1 7 -1 12 -1h20h7c0 -40 -11 -163 -121 -163c-80 0 -135 53 -135 294c0 95 10 229 149 229c21 0 44 -3 71 -9c4 -4 8 -5 12 -5c5 0 9 1 14 1c3 0 6 0 10 -2c0 -34 4 -70 4 -105c-3 -12 -8 -21 -22 -21c-24 0 -19 38 -19 60c0 6 1 12 1 19c0 20 -23 48 -62 48
c-88 0 -101 -107 -101 -182c0 -31 2 -59 2 -76v-28c0 -61 6 -197 76 -201c88 12 78 130 82 142z" />
    <glyph glyph-name="afii10084" unicode="&#x442;" horiz-adv-x="395" 
d="M370 514c15 0 22 -5 25 -12c-3 -26 -6 -90 -17 -90c-38 0 -16 78 -25 78h-51c-28 0 -59 0 -75 -1c-2 -13 -3 -78 -3 -155c0 -124 2 -280 2 -304c4 -2 8 -3 13 -3c8 0 17 2 25 2c13 0 25 -4 29 -25c-23 -3 -46 -4 -69 -4c-38 0 -78 2 -119 2c7 25 19 27 32 27
c3 0 5 -1 7 -1c8 0 15 1 21 6v457h-120c-2 0 -3 -42 -5 -59c-3 -20 -6 -22 -29 -22c-3 29 -6 57 -11 91c3 6 10 12 21 12h42c90 0 301 1 307 1z" />
    <glyph glyph-name="afii10085" unicode="&#x443;" horiz-adv-x="457" 
d="M258 104c30 126 73 247 98 378c-21 1 -72 -2 -72 11c0 21 35 15 55 15c28 0 56 4 88 4c9 0 18 -1 30 -2c-2 -16 -6 -21 -18 -21c-6 0 -17 2 -24 2c-21 0 -22 -11 -30 -38c-20 -69 -40 -136 -61 -206c-98 -422 -181 -471 -208 -471c-13 0 -9 21 -10 33c0 21 5 39 25 53
c55 37 86 89 100 149c0 8 -1 16 -3 23c-53 133 -102 270 -148 401c-5 14 -11 28 -18 42c-8 0 -15 -1 -22 -1c-15 0 -40 1 -40 18c0 18 42 13 64 13h99c2 -9 3 -14 3 -18c0 -11 -21 -12 -52 -12c39 -130 91 -251 144 -373z" />
    <glyph glyph-name="afii10086" unicode="&#x444;" horiz-adv-x="639" 
d="M438 507c109 0 141 -149 141 -259c0 -101 -22 -249 -143 -249c-22 0 -65 5 -84 27v-216c47 0 60 3 60 -13c0 -4 -1 -10 -2 -18c-49 -2 -126 -1 -176 -3c-1 5 -1 10 -1 13c0 14 7 20 57 22c2 37 4 93 4 139c0 45 -2 80 -4 80c-15 -25 -64 -31 -88 -31
c-121 0 -142 148 -142 249c0 110 32 259 141 259c64 0 66 -14 89 -23c3 36 5 71 5 107c0 13 -1 26 -1 39c-12 0 -29 4 -42 4c-3 9 -2 12 -4 24c19 1 56 2 90 2c44 0 66 1 66 -6c0 -19 -14 -21 -28 -21h-10c-5 0 -10 0 -14 -2v-145c22 9 27 21 86 21zM290 107
c0 40 2 144 2 221c0 88 5 160 -84 160c-76 0 -87 -90 -87 -164c0 -29 2 -55 2 -72v-22c0 -54 6 -212 93 -212c45 0 74 49 74 89zM425 18c85 0 91 157 91 212v18c0 17 1 45 1 76c0 72 -10 161 -82 164c-52 0 -74 -28 -83 -61v-348c10 -31 38 -61 73 -61z" />
    <glyph glyph-name="afii10087" unicode="&#x445;" horiz-adv-x="436" 
d="M426 503c-8 -4 -3 -20 -8 -20c-13 0 -23 1 -32 1c-48 0 -42 -10 -54 -36c-26 -54 -87 -142 -86 -175c0 -11 4 -21 10 -31c38 -64 75 -130 114 -196c5 -9 12 -22 23 -23c6 0 27 -7 27 -13c0 -4 0 -9 -4 -10c-41 0 -82 -2 -121 -2c-9 0 -18 -1 -18 6c0 19 18 15 35 19
c-28 62 -68 125 -104 185c-29 -53 -75 -157 -95 -188c17 -3 34 -1 54 -6c-8 -8 -3 -15 -7 -15c-11 -1 -22 -1 -34 -1c-24 0 -50 1 -74 1c-7 0 -15 -1 -21 -1c-5 0 -8 2 -8 10c1 1 1 10 1 10c4 -1 7 -1 11 -1c31 0 47 16 60 45c26 58 57 117 88 174c3 5 4 10 4 16
s-1 12 -5 19c-35 62 -73 125 -105 187c-9 18 -4 25 -33 25c-7 0 -14 -1 -21 -1c-4 0 -8 0 -13 1c4 15 2 24 8 24c7 0 18 -1 29 -1c27 0 61 1 88 1c46 0 38 1 46 -26c-5 -1 -9 -1 -13 -1c-10 0 -19 1 -27 1h-7c21 -59 60 -120 86 -177c39 54 71 121 101 179
c-12 0 -45 4 -50 9c1 1 2 12 3 15c9 0 30 1 55 1c39 0 86 -1 97 -5z" />
    <glyph glyph-name="afii10088" unicode="&#x446;" horiz-adv-x="491" 
d="M384 22c12 -4 87 6 87 -52c0 -37 -38 -46 -65 -46c-37 0 -77 13 -114 13c-26 0 -47 -8 -61 -34c-1 -2 -4 -2 -6 -3c-6 4 -9 9 -9 14c0 34 62 47 81 47c35 0 68 -16 99 -16c18 0 26 11 26 26c0 22 -16 26 -42 26h-18c-67 2 -132 3 -198 3c-35 0 -80 -1 -106 -1
c-7 0 -8 1 -8 6c0 2 1 6 1 10c0 3 -1 6 -1 10c5 3 10 3 16 3h7c7 0 17 -1 17 12v445c-9 -1 -17 -3 -24 -3c-11 0 -19 4 -26 21c37 4 100 4 159 4v-3c0 -24 -40 -22 -47 -24v-455h175v138v319c-10 0 -27 3 -42 3c-1 8 -2 7 -3 18c58 4 96 0 153 4c0 -14 -1 -7 -1 -19
c-26 0 -22 -5 -46 -5c0 -33 -2 -371 -4 -461z" />
    <glyph glyph-name="afii10089" unicode="&#x447;" horiz-adv-x="450" 
d="M369 481v-464c16 -2 20 0 35 -2c-2 -19 -10 -19 -26 -19c-39 0 -104 -8 -107 21h5c7 0 14 -1 21 -1c4 0 7 0 11 1v226c-40 -25 -70 -29 -103 -29c-44 0 -143 16 -143 101c0 29 1 58 1 88c0 21 0 43 -1 64v11c0 13 -32 8 -42 10c3 23 12 15 26 15c22 0 47 -1 70 -1
c9 0 19 1 28 1c8 0 13 -2 13 -10c0 -14 -17 -9 -33 -9c0 -46 -2 -86 -2 -119c0 -89 11 -131 91 -131c60 0 89 29 95 40c-1 17 -1 33 -1 50c0 40 1 79 1 120v37h-15h-22c-1 4 -2 8 -2 11c0 6 3 10 8 11c25 0 58 -1 86 -1c14 0 27 1 37 1c5 0 10 -5 10 -10
c0 -6 -7 -12 -32 -12h-9z" />
    <glyph glyph-name="afii10090" unicode="&#x448;" horiz-adv-x="676" 
d="M48 17c3 1 6 1 9 1c7 0 14 -2 22 -2c4 0 9 1 15 2c0 72 1 152 1 232s-1 160 -1 232h-53c1 2 1 4 1 5c0 5 -2 7 -2 10c0 6 139 6 166 6c2 -3 2 -5 2 -8v-9v-4c-7 -1 -12 -2 -17 -2c-10 0 -17 2 -28 2h-7c0 -22 1 -44 1 -67c0 -89 -3 -183 -3 -276c0 -41 0 -82 2 -121h148
v464h-38c0 7 -1 10 -1 14c0 11 19 8 36 8c71 0 117 -1 117 -12c0 -12 -7 -11 -15 -11c-9 0 -20 1 -29 1h-8c-1 -51 -1 -103 -1 -155c0 -103 1 -208 1 -309h149c-1 28 -1 57 -1 86c0 89 2 180 2 269c0 37 0 73 -1 109c-33 0 -47 -2 -47 7c0 3 1 7 2 12c33 1 65 2 98 2
c26 0 53 3 53 -9c0 -14 -10 -13 -19 -13c-8 0 -17 1 -25 1c0 -24 1 -183 1 -312c0 -65 0 -122 -1 -152c4 -1 9 -1 14 -1c12 0 24 1 35 1c5 0 10 2 10 -4c0 -15 -11 -16 -28 -16h-15c-28 1 -151 1 -273 1c-121 0 -241 -1 -259 -1c-13 0 -17 1 -17 6c0 3 2 7 4 13z" />
    <glyph glyph-name="afii10091" unicode="&#x449;" horiz-adv-x="659" 
d="M295 -140c-8 8 -10 16 -10 24c0 53 60 70 110 70c75 0 145 -26 159 -26c32 0 44 16 44 31c0 18 -11 35 -29 39c-6 2 -98 2 -201 2c-142 0 -308 -1 -314 -2h-6c-6 0 -8 1 -8 4c0 4 1 17 12 17c7 0 14 -2 21 -2c3 0 6 0 10 1c0 58 -1 214 -1 332c0 59 1 109 1 132
c-7 0 -20 -1 -29 -1c-4 0 -8 0 -9 1c4 4 0 21 4 21c10 0 21 1 34 1c29 0 63 -1 89 -1h18c3 0 8 -4 8 -8c0 -6 -10 -13 -54 -13c-1 -14 -1 -62 -1 -122c0 -120 1 -289 1 -342c19 -3 36 -4 52 -4c30 0 58 3 96 4c0 7 1 153 1 280c0 93 0 175 -1 184h-40c-4 4 -6 8 -6 11
c0 11 19 10 81 10c34 0 75 5 75 -8c0 -11 -18 -14 -34 -14c-5 0 -9 0 -13 1c0 -37 -1 -217 -1 -342c0 -62 0 -111 1 -122c13 0 26 1 40 1c29 0 58 -1 88 -1h23c1 23 2 67 2 120c0 123 -2 292 -2 344c-25 0 -37 3 -37 10c0 4 2 11 15 11c41 0 123 2 123 -12
c-4 -12 -21 -9 -40 -9c-1 -50 -1 -101 -1 -153c0 -103 1 -207 1 -311c7 -1 72 2 72 -59c0 -41 -33 -55 -71 -55c-7 0 -15 1 -21 3c-50 12 -90 17 -122 17c-76 0 -108 -26 -110 -43c-3 -7 -12 -13 -20 -21z" />
    <glyph glyph-name="afii10092" unicode="&#x44a;" horiz-adv-x="420" 
d="M237 353c116 0 133 -70 133 -171c0 -64 0 -180 -135 -180c-73 0 -83 -3 -130 -3c-7 0 -14 1 -21 1h-8c-6 0 -7 2 -9 19c16 1 31 1 49 4c0 151 -2 314 -2 467c-6 -1 -50 -1 -50 -1c-9 0 10 -82 -26 -82c-13 0 -16 62 -18 90c3 5 9 10 20 10h148v-17s-3 -1 -11 -2v-143
c12 2 19 7 60 8zM238 19c52 0 80 72 80 161c0 53 4 159 -84 159c-19 0 -49 -12 -57 -25c-2 -9 -3 -33 -3 -65c0 -64 3 -159 3 -230h61z" />
    <glyph glyph-name="afii10093" unicode="&#x44b;" horiz-adv-x="586" 
d="M88 482c-7 -1 -13 -1 -19 -1c-9 0 -24 -2 -24 10c0 15 42 11 59 12h15h79c-2 -23 6 -21 -49 -21v-139c13 2 22 8 69 8c106 0 125 -75 125 -170c0 -65 0 -180 -138 -180c-82 -4 -82 -3 -153 -3c-9 0 -10 1 -12 20h6c9 0 17 -1 27 -1c4 0 9 0 15 1c1 50 1 102 1 153
c0 104 -1 209 -1 311zM149 18h63c45 0 73 48 73 128c0 9 0 18 -1 28v40c0 56 -7 124 -75 124c-20 0 -50 -13 -60 -25c-1 -9 -2 -33 -2 -65c0 -64 2 -159 2 -230zM492 18c4 -1 8 -2 11 -2c6 0 11 1 16 1c7 0 12 -3 13 -19c-12 -1 -24 -1 -36 -1c-23 0 -46 1 -70 1
c-14 0 -28 -1 -43 -2c3 19 10 22 20 22c4 0 9 -1 15 -1c3 0 7 0 11 1c-2 11 -3 44 -3 88c0 101 4 258 4 334c0 35 3 44 -13 44h-11c2 0 -32 0 -32 8c0 15 159 11 172 11c0 -12 -5 -21 -11 -21c-5 2 -18 3 -29 3c-8 0 -14 -1 -14 -3v-464z" />
    <glyph glyph-name="afii10094" unicode="&#x44c;" horiz-adv-x="393" 
d="M88 482c-6 -1 -13 -1 -18 -1c-12 0 -26 -1 -26 10c0 15 45 11 60 12h15h80c-2 -23 6 -21 -48 -21v-139c11 2 20 8 67 8c107 0 125 -75 125 -170c0 -65 0 -180 -137 -180c-83 -4 -83 -3 -155 -3c-9 0 -9 1 -11 20h5c9 0 18 -1 28 -1c5 0 10 0 15 1c1 50 1 102 1 153
c0 104 -1 209 -1 311zM146 17c32 0 23 1 66 1c53 0 78 64 78 160c0 49 4 160 -81 160c-18 0 -49 -13 -58 -25c-4 -28 -5 -189 -5 -296z" />
    <glyph glyph-name="afii10095" unicode="&#x44d;" horiz-adv-x="392" 
d="M270 255c-4 -1 -8 -2 -12 -2c-28 0 -53 53 -81 53c-22 0 -40 -35 -68 -39c-2 3 -3 5 -3 6v1c21 24 57 69 78 69c23 0 53 -43 76 -71c9 1 11 5 11 14c0 6 -1 13 -1 24v37c0 62 -8 156 -99 156c-113 -7 -88 -94 -88 -113c-6 -1 -11 -2 -15 -2c-13 0 -18 6 -18 19
c0 72 48 110 123 111c58 -3 159 -8 159 -258c0 -252 -98 -268 -154 -268c-65 0 -127 46 -127 143c0 13 1 25 17 25c38 0 -18 -154 111 -154c81 0 94 105 94 179c0 34 -3 61 -3 70z" />
    <glyph glyph-name="afii10096" unicode="&#x44e;" horiz-adv-x="619" 
d="M287 247c-25 2 -47 4 -69 4c-20 0 -39 -1 -59 -4v-76v-153c3 -1 6 -2 10 -2c7 0 15 2 22 2c10 0 18 -3 20 -20c-35 0 -70 -1 -107 -1c-18 0 -61 -6 -61 13c0 3 2 9 10 9c11 0 19 -2 31 -2c4 0 8 0 14 1c1 50 2 101 2 153c0 104 -2 210 -2 311h-14h-29c-15 0 -14 7 -14 14
c0 11 88 7 117 7c14 0 55 4 55 -6c0 -4 -1 -10 -3 -15h-51v-204c22 -3 42 -5 62 -5c21 0 42 2 64 7c3 129 31 231 136 231c142 0 137 -230 137 -286c0 -61 -10 -227 -131 -227c-131 0 -140 155 -140 224v25zM501 252c-2 119 8 242 -82 242c-64 0 -75 -65 -75 -138
c0 -38 3 -78 3 -113c0 -7 -1 -22 -1 -42c0 -67 8 -182 78 -183c69 1 78 102 78 173c0 27 -1 49 -1 61z" />
    <glyph glyph-name="afii10097" unicode="&#x44f;" horiz-adv-x="388" 
d="M306 482v-70c0 -91 -1 -183 -1 -274c0 -41 0 -81 1 -120c13 0 42 6 42 -14c0 -10 -94 -6 -126 -6c-16 0 -24 4 -24 9c0 6 11 12 32 12c4 0 8 -1 13 -1c-1 16 -2 33 -2 50c0 39 2 82 2 123v31c-15 0 -28 1 -41 1c-88 0 -90 -140 -98 -166c-12 -53 -40 -63 -61 -63
c-24 0 -27 4 -33 14c37 6 52 12 61 50c8 34 0 131 56 174c-28 11 -67 35 -67 144c0 137 101 128 172 128c23 0 45 -1 68 -1c11 0 26 1 33 1c9 0 10 -3 10 -20c-9 -1 -25 0 -37 -2zM243 244v237c-11 1 -4 11 -49 11c-63 0 -74 -68 -74 -134c0 -103 54 -115 101 -115
c8 0 15 1 22 1z" />
    <glyph glyph-name="afii10059" unicode="&#x40a;" horiz-adv-x="881" 
d="M603 430h11c57 0 227 -23 227 -194c0 -131 -75 -181 -135 -204c-48 -23 -113 -33 -157 -33h1c1 0 -3 0 -4 0h-26h-7v1c-22 0 -49 0 -75 -1v1h-16c-8 0 -14 5 -14 13s6 14 14 14h28v0h6c0 22 1 45 1 68c0 51 -1 105 -1 156v39v59c-5 1 -11 1 -19 1c-55 -1 -108 -7 -162 -7
c-39 0 -88 5 -119 -3v-313h6h1h29c7 0 13 -6 13 -14c0 -7 -6 -13 -13 -13v0l-2 -1v1h-27c-24 0 -54 0 -83 -1v1h-18c-6 0 -12 5 -12 13s6 14 12 14h29h1h6c0 22 1 45 1 68c0 51 -1 105 -1 156v39v254v127h-6h-1h-29c-6 0 -12 5 -12 13s6 14 12 14h18h83h27h2v0
c7 0 13 -6 13 -14s-6 -14 -13 -14h-29c-1 0 -1 1 -1 1h-6v-302c98 0 201 -2 300 6v169v105h1c-1 6 -1 14 -1 22h-6v0h-28c-8 0 -14 5 -14 13s6 14 14 14h16h83h26h4h-1c6 0 12 -6 12 -14c0 -9 -8 -14 -13 -14h-29h-1h-5v-93v-148c29 0 59 0 89 1zM680 54c40 31 86 92 86 169
c0 80 -46 166 -104 175c-42 7 -76 8 -101 8c-22 0 -37 -2 -47 -3v-264v-91c0 -13 -6 -22 24 -22c54 0 129 18 142 28z" />
    <glyph glyph-name="afii10058" unicode="&#x409;" horiz-adv-x="767" 
d="M400 428c20 1 40 2 61 2c134 0 266 -35 266 -195c0 -131 -74 -185 -133 -204c-91 -34 -242 -33 -260 -33h-25h-4h1c-7 0 -14 6 -14 13c0 8 7 14 14 14h36v645c-39 -1 -68 1 -106 1c-20 0 -22 -3 -25 -24c-4 -60 -7 -122 -12 -184c-10 -118 -14 -240 -44 -356
c-16 -50 -45 -115 -106 -115c-29 0 -69 13 -69 52c0 8 5 18 19 18c25 0 38 -24 58 -24c82 0 103 344 112 472c3 42 14 144 14 160c0 5 -36 -7 -36 14c0 6 4 12 14 12h237h9h25c1 0 1 1 1 1l2 -1v0c7 0 13 -7 13 -14s-6 -13 -13 -13h-28h-1h-6v-93v-148zM400 28
c5 -1 11 -1 18 -1c72 0 247 39 247 198s-146 168 -234 168h-31v-365z" />
    <glyph glyph-name="afii10051" unicode="&#x402;" horiz-adv-x="620" 
d="M527 424c31 -41 43 -86 43 -140c0 -23 0 -140 -152 -287c-22 -22 -50 -31 -79 -46c-1 3 -1 5 -1 8c0 18 13 28 24 37c83 67 147 184 147 304c0 102 -70 164 -153 164c-60 0 -106 -29 -141 -90v-350h38c5 0 10 -6 10 -14c0 -10 -7 -13 -13 -13h-127c-7 0 -13 6 -13 13
c0 8 6 14 13 14h35v203v446c-39 -1 -106 1 -107 -2c-3 -35 4 -88 -29 -88c-11 0 -16 73 -22 103c6 8 14 14 31 14c4 -1 79 -2 155 -2s152 1 158 2c15 0 25 -6 29 -14c-4 -30 -10 -103 -22 -103c-35 0 -24 53 -29 87c-1 4 -14 5 -32 5c-22 0 -52 -2 -75 -2v-233
c7 3 64 51 164 51c88 0 133 -49 148 -67z" />
    <glyph glyph-name="afii10106" unicode="&#x459;" horiz-adv-x="542" 
d="M358 354c116 0 134 -72 134 -176c0 -62 0 -181 -136 -181h-132c0 33 7 26 27 31c-1 37 -1 74 -1 110c0 88 1 177 1 267v83c-12 4 -35 6 -59 6c-28 0 -59 -3 -80 -7v-31c0 -68 1 -230 1 -311c0 -60 5 -150 -65 -150c-18 0 -48 12 -48 28c0 7 12 31 29 31
c14 0 29 -23 39 -23c25 0 20 185 20 241v215h-5h1h-7h-15c-6 0 -6 2 -9 20c36 1 248 1 293 1c-2 -24 8 -22 -44 -22c-1 -11 -1 -71 -1 -140c10 3 19 7 57 8zM359 16c51 0 84 63 84 151c0 52 0 174 -84 174c-19 0 -46 -11 -58 -24c0 -44 0 -94 1 -141v-160h57z" />
    <glyph glyph-name="afii10107" unicode="&#x45a;" horiz-adv-x="635" 
d="M585 176c0 -61 0 -178 -136 -178c-19 0 -37 -1 -54 -1h-65h-30c-4 0 -6 6 -6 19c15 3 20 1 36 4c1 75 0 155 1 234c-19 3 -37 4 -55 4c-40 0 -80 -5 -120 -8v-228c4 -4 10 -5 15 -5c7 0 14 2 20 2c7 0 13 -3 16 -13c-8 -8 -17 -10 -26 -10s-18 1 -28 1
c-18 0 -39 -1 -60 -1c-14 0 -37 -2 -37 8c0 15 7 16 16 16c3 0 6 -1 8 -1c5 0 10 1 16 3v65c0 106 -1 216 -1 324v68c-24 0 -45 -9 -45 22c47 0 90 2 135 2c21 0 23 3 23 -23c-5 -1 -9 -1 -14 -1h-16c-7 0 -14 0 -22 -1c0 -64 1 -137 1 -201c16 -3 45 -5 75 -5
c38 0 79 3 97 8c0 63 1 137 1 202c-4 -1 -8 -1 -12 -1c-9 0 -17 1 -26 1h-6c-3 6 -1 8 -3 20c15 0 50 1 84 1s68 -1 84 -1c-2 -8 -4 -20 -4 -20h-54v-139c11 1 19 7 58 7c115 0 134 -71 134 -174zM453 16c49 0 84 61 84 151c0 55 -1 170 -89 170c-19 0 -45 -12 -55 -24v8
c0 -67 -1 -136 -1 -202c0 -33 1 -66 1 -97c14 -7 49 -6 60 -6z" />
    <glyph glyph-name="afii10099" unicode="&#x452;" horiz-adv-x="426" 
d="M203 608c8 0 13 -5 13 -12c0 -8 -5 -14 -13 -14h-76v-126c48 66 93 81 123 81c102 0 116 -144 116 -222c0 -114 -18 -215 -57 -315c-15 -38 -39 -74 -60 -110c-8 -14 -91 -123 -111 -123c-7 0 -9 4 -9 7s1 6 3 9c6 8 98 160 108 182c43 100 58 209 58 315
c0 39 -3 78 -11 117c-7 32 -14 85 -67 85c-30 0 -82 -23 -93 -80v-5c-1 -66 -2 -184 -2 -272c0 -56 1 -100 2 -108h18c11 0 21 0 21 -2c0 -5 0 -18 -3 -18c-13 1 -27 1 -41 1c-30 0 -62 -1 -92 -1c0 2 -1 4 -1 6c0 12 6 15 12 15s13 -2 19 -2c11 0 8 105 8 175
c0 126 -2 285 -2 391h-32c-7 0 -13 6 -13 14c0 7 6 12 13 12h32v64h-10h-24c-6 0 -12 -2 -12 8c0 8 5 16 16 16h125c13 0 19 -6 19 -11c0 -14 -21 -13 -53 -13v-64h76z" />
    <glyph glyph-name="afii10193" unicode="&#x45f;" horiz-adv-x="480" 
d="M415 501c19 0 25 -1 25 -20c0 -9 -41 -5 -55 -5v-151v-303h5h18c9 0 18 -1 23 -9c0 -16 -14 -16 -39 -18c-39 0 -83 -6 -109 -22c-30 -15 -25 -71 -45 -75c-2 0 -8 7 -9 11c-13 98 -127 73 -144 87c-27 1 -43 2 -45 5c1 19 18 23 33 23c7 0 14 -1 18 -1v458
c-7 0 -12 1 -17 1c-4 0 -7 -1 -10 -1c-14 0 -18 2 -18 22c49 0 103 1 137 1c7 0 13 -5 13 -14s-4 -12 -10 -12c-2 0 -4 1 -6 1c-15 0 -31 11 -31 -20c0 -66 3 -281 3 -386c0 -32 0 -54 -1 -59c55 0 115 -1 169 -1c6 6 4 21 4 42c0 84 -2 259 -2 356c0 35 0 59 1 66
c-14 3 -24 0 -37 3c1 9 3 16 5 26c47 -8 84 -3 124 -5z" />
    <glyph glyph-name="afii10145" unicode="&#x40f;" horiz-adv-x="599" 
d="M536 26c7 0 13 -6 13 -15c0 -7 -6 -13 -13 -13h1h-3h-27h-9v0h-2c18 2 -111 -12 -142 -25c-36 -16 -29 -72 -54 -76c-10 1 -19 59 -66 74c-162 49 -184 8 -184 40c0 9 5 15 13 15h29v-1h5c1 8 1 14 1 19h-1v108v251v30c0 52 1 108 1 162c0 25 0 50 -1 74h-5v0h-29
c-8 0 -13 6 -13 13c0 3 3 6 3 11v-1c2 2 6 5 10 5h16c28 0 62 -2 82 -1h28v1c2 -1 3 -1 3 -1h-1c7 0 14 -6 14 -14c0 -7 -7 -13 -14 -13h-30h-1h-5v-644h5l1 1h283c0 7 2 13 2 18h-2v108v251v30c0 52 1 108 1 162c0 25 0 50 -1 74h-6v0h-28c-8 0 -15 6 -15 13
c0 8 7 15 15 15h17c27 0 56 -2 80 -1h27v1c2 -1 3 -1 3 -1h-1c7 0 13 -6 13 -14c0 -7 -6 -13 -13 -13h-29v0h-6v-644h6v1h29z" />
    <glyph glyph-name="afii10050" unicode="&#x490;" horiz-adv-x="420" 
d="M448 782c0 -29 2 -58 2 -86c0 -22 -9 -29 -28 -29c-54 0 -189 -2 -265 -3c-1 -2 -2 -317 -2 -504c0 -77 1 -132 1 -134h40c7 0 13 -6 13 -15c0 -7 -6 -13 -13 -13h-132c-7 0 -14 6 -14 13c0 9 7 15 14 15c0 0 15 -1 26 -1c5 0 9 1 10 1v458v177h-10c-21 0 -39 2 -39 21
c0 4 4 16 18 16c13 0 24 -1 24 -1c20 0 55 -3 248 5c32 1 55 17 65 49c5 18 9 39 19 54c13 0 23 -5 23 -23z" />
    <glyph glyph-name="afii10098" unicode="&#x491;" horiz-adv-x="362" 
d="M380 574c0 -27 2 -52 2 -80c0 -18 -7 -25 -26 -25c-41 0 -137 0 -207 -1c-2 -2 -3 -101 -3 -201c0 -70 1 -138 1 -178v-54c17 -3 33 -7 47 -9c0 -22 -4 -28 -21 -28h-20h-60c-34 0 -45 -3 -45 23c15 2 30 5 50 8v435c-15 3 -68 -6 -68 19c0 4 6 14 16 14
c9 -1 196 1 240 3c30 1 48 18 57 46c4 14 7 38 16 47c14 0 21 -4 21 -19z" />
    <glyph glyph-name="AE" unicode="&#xc6;" horiz-adv-x="653" 
d="M566 90c3 20 6 25 26 25c12 0 17 -79 20 -104c-3 -7 -12 -12 -26 -12c7 0 -302 2 -304 1c-9 0 -14 6 -14 13c0 17 13 14 37 14v307h-152c-42 -141 -91 -306 -91 -306h40c7 0 12 -6 12 -14s-5 -14 -12 -14l-126 1v-1c-2 1 -3 1 -3 1h1c-8 0 -14 5 -14 13s6 14 14 14h56
c0 1 148 469 201 644c-31 0 -38 0 -38 13c0 7 6 14 15 14h1s366 0 376 1c16 0 25 -4 28 -12c-4 -39 -9 -73 -12 -103h-9c-43 0 -17 83 -31 88c0 0 -150 -1 -199 -1v-311h139c2 18 -4 33 20 33c27 0 22 -32 22 -49c0 -32 -9 -35 -23 -35c-34 0 3 26 -38 26
c-27 0 -56 -1 -84 -1c-12 0 -25 0 -36 1c0 -32 -1 -293 -1 -309c63 0 199 1 199 1c4 0 4 41 6 62zM305 361v311h-49c-23 -78 -66 -210 -96 -311h145z" />
    <glyph glyph-name="ae" unicode="&#xe6;" horiz-adv-x="633" 
d="M440 520c89 0 132 -65 132 -202c0 -39 1 -61 -28 -61h-117s-73 0 -77 -2c-1 -33 -3 -70 -3 -104c0 -13 0 -25 1 -36c2 -24 5 -93 83 -93c75 0 86 63 91 78c4 12 12 25 24 25c18 0 24 -11 24 -18s-3 -14 -7 -22c-53 -71 -111 -95 -162 -95c-63 0 -114 37 -128 66
c-36 -30 -70 -65 -136 -65c-62 0 -117 30 -117 125c0 62 33 146 196 190c22 6 41 10 64 16c0 6 1 14 1 23c0 54 -13 148 -92 152c-44 0 -90 -23 -96 -64s-7 -57 -25 -57c-6 0 -31 1 -31 20c0 85 96 123 155 123c68 0 111 -35 126 -81c25 56 65 82 122 82zM281 212v29v53
c-132 -16 -204 -105 -204 -182c0 -40 29 -80 80 -80c44 0 94 30 102 37c25 21 21 97 22 143zM514 275c2 11 3 26 3 44c0 72 -19 181 -81 181c-98 -8 -85 -147 -85 -209c0 -6 1 -11 1 -18c56 1 106 2 162 2z" />
    <glyph glyph-name="dcroat" unicode="&#x111;" horiz-adv-x="424" 
d="M377 33c9 0 17 -8 17 -17c0 -11 -8 -19 -17 -19h-39c-1 0 -2 1 -3 1c-10 -3 -22 -2 -34 -2c-28 0 -58 1 -82 1h-20c-126 4 -139 105 -139 188c0 21 1 41 1 58v40c0 103 7 220 138 220c46 0 59 -15 76 -21v116h-80c-8 0 -13 5 -13 13c0 6 5 13 13 13h80v72h-6
c-7 0 -15 -1 -21 -1c-8 0 -16 6 -16 16c0 6 8 5 39 5c39 0 104 2 104 -7c0 -7 -11 -14 -18 -14c-5 0 -9 1 -20 1c0 -3 0 -30 -1 -72h31c5 0 11 -7 11 -13c0 -15 -2 -13 -42 -13c0 -162 -1 -558 -1 -565h3h39zM275 55v87v258c0 46 -15 82 -80 82c-84 0 -75 -182 -75 -316
c0 -67 9 -148 82 -148c54 0 73 22 73 37z" />
    <glyph glyph-name="Oslash" unicode="&#xd8;" horiz-adv-x="575" 
d="M500 660c-9 -12 -21 -30 -34 -53c24 -55 36 -138 36 -260c0 -350 -113 -357 -217 -357c-59 0 -114 10 -150 68c-30 -48 -36 -59 -50 -59c-4 0 -15 0 -15 6c0 9 17 30 22 36c7 16 16 31 26 49c-21 53 -31 129 -31 242c0 347 113 373 213 376c65 0 115 -16 151 -69
c12 24 33 56 42 56s12 -11 12 -16c0 -9 -3 -17 -5 -19zM152 346c0 -24 -2 -56 -2 -90c0 -32 2 -66 7 -98c79 134 186 309 254 421c-18 62 -52 96 -114 96c-32 0 -145 -20 -145 -329zM430 345c0 75 -3 137 -9 189c-78 -126 -187 -307 -254 -421c16 -55 53 -97 118 -97
c80 0 145 18 145 329z" />
    <glyph glyph-name="OE" unicode="&#x152;" horiz-adv-x="666" 
d="M580 90c3 20 5 25 26 25c14 0 17 -77 20 -105c-3 -6 -9 -12 -22 -12c-2 0 -5 1 -7 1c-85 0 -298 -2 -361 -2c-154 0 -156 140 -156 251c0 14 1 28 1 42c0 13 -1 26 -1 39c0 44 3 86 3 127c3 184 103 241 193 241c-6 0 319 1 321 3c18 0 26 -6 29 -14
c-4 -39 -8 -72 -12 -103h-8c-20 0 -24 4 -26 23c-2 21 -3 43 -4 65c0 0 -57 1 -111 1c-35 0 -69 0 -87 -1v-275h138c3 12 -2 30 18 30c30 0 27 -27 27 -49c0 -30 -9 -34 -22 -34c-39 0 3 34 -36 34c-29 0 -58 -1 -86 -1c-13 0 -26 0 -39 1v-183s0 -164 1 -170
c58 0 197 2 197 3c1 19 3 42 4 63zM322 40v609c-15 9 -34 14 -53 14c-84 0 -107 -80 -113 -138c-8 -75 -12 -138 -12 -219c0 -53 2 -121 3 -137c2 -27 5 -143 122 -143c21 0 36 7 53 14z" />
    <glyph glyph-name="oe" unicode="&#x153;" horiz-adv-x="607" 
d="M417 507c85 0 129 -65 129 -204c0 -22 1 -55 -30 -55h-87c-47 0 -91 0 -96 -2c-1 -33 -3 -69 -3 -103c0 -5 -5 -127 79 -127c73 0 84 64 87 77c3 12 11 25 22 25c17 0 22 -10 22 -16c0 -72 -80 -110 -129 -110s-80 21 -113 62c-20 -33 -53 -60 -102 -60
c-126 0 -135 162 -135 229v26c0 11 -1 26 -1 45c0 80 12 216 134 216c61 0 97 -32 115 -71c24 45 62 68 108 68zM270 104c1 41 2 82 3 127c-3 53 -3 111 -5 166c-2 31 -4 91 -72 95c-75 -5 -84 -70 -84 -152c0 -29 1 -60 1 -91v-38c0 -80 5 -196 83 -196c72 0 73 74 74 89z
M490 266c1 10 2 23 2 39c0 70 -17 181 -78 181c-73 0 -81 -95 -81 -154c0 -37 1 -45 1 -68c55 1 102 2 156 2z" />
    <glyph glyph-name="oslash" unicode="&#xf8;" horiz-adv-x="458" 
d="M444 474c3 -3 4 -6 4 -10c0 -9 -8 -20 -12 -23c-2 -2 -29 -30 -67 -68c4 -29 5 -57 5 -79c0 -19 -1 -35 -1 -43c0 0 2 -18 2 -44c0 -74 -16 -215 -142 -217c-82 1 -120 54 -135 113c-26 -29 -45 -45 -46 -47c-11 -11 -19 -15 -26 -15c-5 0 -16 2 -16 7c0 9 22 26 29 33
c3 5 23 26 52 57c-3 22 -4 43 -4 62c0 24 1 43 2 51v26c0 79 8 241 142 241c78 0 114 -52 131 -110c49 54 60 68 76 68c2 0 4 0 6 -2zM233 494c-66 0 -76 -92 -76 -169c0 -55 2 -73 2 -122c46 48 99 101 143 147c-7 78 -24 144 -69 144zM307 233c0 26 -2 51 -2 77
c-47 -48 -101 -103 -146 -148c2 -69 14 -145 77 -145c64 6 71 93 71 158v49v9z" />
    <glyph glyph-name="Lslash" unicode="&#x141;" horiz-adv-x="436" 
d="M403 103c4 -34 8 -65 13 -104l-174 -1h-133h-28c-8 0 -13 6 -13 14s5 14 13 14h28h6c2 9 2 291 2 315c-21 -18 -48 -38 -64 -50c-9 6 -13 14 -13 21c0 22 49 45 76 83c0 72 -1 260 -1 275h-6h-28c-8 0 -14 6 -14 13c0 9 6 14 14 14h119c7 0 13 -5 13 -14
c0 -7 -6 -13 -13 -13h-25h-1c0 -6 1 -223 1 -225c38 33 46 43 81 75c2 1 5 1 7 1c10 0 17 -8 17 -19c0 -31 -104 -101 -104 -109c-1 -10 -2 -305 -2 -351c0 -26 9 -29 74 -29c50 0 114 4 116 4c4 39 -1 86 31 86h8z" />
    <glyph glyph-name="lslash" unicode="&#x142;" horiz-adv-x="273" 
d="M225 520c2 0 3 1 5 1c8 0 13 -7 13 -16c0 -18 -66 -88 -78 -102v-387h30c4 0 18 3 18 -9c0 -15 -111 -10 -149 -10c-1 4 -2 8 -2 10c0 14 31 7 45 9v322c-31 -34 -37 -42 -63 -62c-8 1 -14 7 -14 15c0 12 60 71 77 95c0 154 -1 285 -1 290h-12h-14c-12 0 -20 1 -20 11
c0 9 4 11 12 11h11c39 0 77 2 118 2c10 0 14 -5 14 -11c0 -17 -28 -13 -50 -13c0 -18 -1 -38 -1 -60c0 -44 1 -96 1 -157c30 29 34 32 60 61z" />
    <glyph glyph-name="afii10060" unicode="&#x40b;" horiz-adv-x="615" 
d="M582 25c7 0 13 -6 13 -13s-6 -12 -13 -12h-18h-82h-26h-2h-3h1c-8 0 -12 5 -12 12c0 8 4 13 13 13h29h1h5v217c0 13 10 146 -145 146c-35 0 -78 -7 -131 -23v-340h37c6 0 12 -6 12 -13s-6 -12 -12 -12c-42 5 -142 -12 -142 12c0 8 6 13 13 13h36v645c-40 0 -105 1 -105 1
c-16 -4 14 -88 -30 -88h-9c-3 31 -7 64 -12 103c3 7 11 13 25 13c-7 0 303 -2 317 -2h5c14 0 20 -6 24 -13c-6 -39 -9 -70 -13 -101h-9c-42 0 -19 87 -30 87h-108v-60c0 -91 1 -214 1 -214c62 17 114 25 155 25c140 0 175 -84 175 -164c0 -24 3 -224 3 -232h8v0h29z" />
    <glyph glyph-name="afii10108" unicode="&#x45b;" horiz-adv-x="436" 
d="M404 18c2 -4 2 -7 2 -9c0 -10 -11 -11 -22 -11h-10h-5c-15 0 -105 -5 -105 7c0 10 7 12 15 12c6 0 13 -1 19 -1c4 0 7 0 9 2c0 27 1 116 1 198c0 59 0 114 -1 137c-2 40 0 131 -72 131c-80 0 -96 -57 -96 -87c0 -70 -1 -206 -1 -295c0 -44 0 -77 1 -84c11 0 40 0 40 -4
c0 -3 -1 -16 -4 -16c-12 0 -24 1 -38 1c-30 0 -64 -1 -95 -2c-1 4 -1 7 -1 9c0 10 5 12 11 12s12 -1 17 -1c3 0 5 0 7 1c2 37 3 111 3 199c0 119 -1 263 -3 365c-41 0 -44 -1 -44 14c0 7 6 12 13 12h31v67h-15h-28c-8 0 -13 5 -13 10c0 6 7 13 21 13h152c1 -5 2 -8 2 -11
c0 -10 -6 -12 -13 -12c-5 0 -20 1 -31 1c-6 0 -10 0 -12 -1v-67h75c8 0 13 -5 13 -12c0 -8 -5 -14 -13 -14c1 0 -31 0 -75 0v-109c21 12 24 31 95 31c127 0 135 -110 135 -153c0 -56 -1 -129 -1 -209c0 -40 0 -81 1 -124c5 -1 8 -1 10 -1c6 0 9 1 18 1h7z" />
    <glyph glyph-name="eth" unicode="&#xf0;" horiz-adv-x="364" 
d="M88 464c43 24 84 40 131 57c-5 26 -35 127 -107 127c-31 0 -58 -10 -64 -51c-2 -8 -7 -13 -13 -13s-15 11 -15 21c10 50 52 70 92 70c32 0 92 -8 156 -124c0 0 1 -1 2 -1c12 0 73 22 101 33h6c8 0 17 -1 17 -11c0 -31 -114 -38 -114 -61c7 -46 13 -101 13 -153
c0 -75 -8 -173 -39 -247c-6 -15 -47 -115 -90 -117c-24 3 -48 2 -73 17c-31 18 -41 57 -41 98c0 38 9 74 17 93c15 38 48 105 110 105c19 0 40 -7 64 -22c3 29 4 53 4 74c0 73 -12 131 -28 131c-11 0 -99 -47 -113 -48c-14 3 -17 11 -17 17c0 2 1 4 1 5zM150 29
c26 3 73 106 73 178c0 39 -14 68 -52 68c-34 -4 -72 -103 -72 -174c0 -41 12 -72 45 -72h6z" />
    <glyph glyph-name="Thorn" unicode="&#xde;" horiz-adv-x="450" 
d="M234 564c43 -1 156 -16 156 -212c0 -180 -105 -191 -199 -201c-28 -3 -32 -1 -32 -33c0 -33 2 -67 2 -95h30c8 0 14 -5 14 -12c0 -24 -97 -7 -142 -12c-7 0 -13 4 -13 12c0 6 6 12 13 12h36c0 48 -1 191 -1 324c0 66 1 130 1 178c0 51 0 100 -1 148c-47 0 -48 -1 -48 11
c0 8 6 13 13 13h128c8 0 14 -5 14 -12c0 -13 -4 -12 -43 -12v-108c9 -1 18 -1 27 -1h29h16zM332 366v10c0 120 -92 165 -152 165c-7 0 -13 -1 -19 -2v-135c0 -45 -1 -72 -1 -107c0 -31 1 -63 1 -92c0 -24 -2 -26 22 -26c153 0 148 161 149 187z" />
    <glyph glyph-name="thorn" unicode="&#xfe;" horiz-adv-x="349" 
d="M30 -259c0 6 6 9 15 9h30v960h-32c-6 0 -11 2 -11 10c0 7 3 10 9 10h127c13 0 18 -3 18 -11s-10 -9 -18 -9h-7h-24v-339c50 0 162 -2 162 -138c0 -146 -95 -149 -162 -149v-334h33c3 0 17 0 17 -9c0 -11 -8 -10 -14 -10c-71 0 -143 -6 -143 10zM246 232
c0 108 -48 124 -109 124v-252s6 -1 15 -1c30 0 94 13 94 129z" />
    <glyph glyph-name="germandbls" unicode="&#xdf;" horiz-adv-x="442" 
d="M142 0c-50 0 -122 -5 -122 9s22 10 61 10v175v330c0 164 73 184 122 184c63 0 91 -64 91 -118c0 -82 -49 -151 -52 -160c12 -4 150 -1 150 -247c0 -203 -129 -190 -135 -190c-60 0 -99 49 -99 111c0 7 2 17 11 17c30 0 11 -105 86 -105c29 0 82 23 82 174
c0 209 -110 207 -125 207c-27 0 -37 -7 -40 -7c-1 0 -2 1 -2 3c0 3 1 8 1 17c66 68 79 154 79 196c0 24 -5 78 -60 78c-39 0 -48 -59 -48 -86v-598z" />
    <glyph glyph-name="Germandbls" horiz-adv-x="507" 
d="M314 400c6 -2 133 -24 133 -216c0 -97 -77 -206 -184 -206c-10 0 -16 5 -20 22c8 2 136 10 136 182c0 155 -72 202 -104 202c-12 0 -24 -13 -37 -17v5c0 15 8 22 15 30c54 61 77 134 77 216c0 39 -12 83 -45 83c-139 0 -152 -201 -152 -300c0 -21 1 -38 1 -48v-47v-152
c0 -40 -1 -48 -1 -98c0 -12 1 -25 1 -35h23c7 0 13 -5 13 -11s-6 -10 -13 -10c-35 0 -117 -6 -117 10c0 6 6 11 12 11h22c0 34 -1 95 -1 145c0 26 0 48 1 63c2 65 2 230 16 317c4 28 44 182 178 182c25 0 110 3 110 -166c0 -60 -24 -114 -64 -162z" />
    <glyph glyph-name="yen" unicode="&#xa5;" horiz-adv-x="515" 
d="M501 697c8 0 14 -5 14 -14c0 -7 -6 -13 -14 -13h-27v0h-7c0 -2 -71 -166 -139 -307h36c9 0 15 -6 15 -13s-6 -14 -14 -14h1h-3h-50c-8 -17 -16 -33 -22 -46h73c9 0 15 -7 15 -13c0 -9 -6 -14 -14 -15h1h-3h-82c0 -90 0 -176 -1 -214c0 -2 1 -17 1 -24h5h1h28
c6 0 13 -6 13 -13c0 -8 -6 -13 -13 -13v0l-2 -1v1h-26h-84h-16c-7 0 -13 5 -13 13c0 7 6 13 13 13h29v0h6v72v149c-3 6 -5 12 -7 17h-78c-8 0 -11 6 -11 15c0 6 5 13 13 13h64c-7 13 -13 30 -19 46h-47c-8 0 -11 7 -11 14s5 13 13 13h34c-63 146 -126 305 -126 307h-8v0h-26
c-6 0 -13 6 -13 13c0 9 7 14 13 14h13v1c29 -1 62 -1 83 -1h28v1l2 -1v0c7 0 13 -7 13 -14s-6 -13 -14 -13h-23c0 -2 86 -214 148 -364c74 144 171 362 171 364h-59c-8 0 -14 6 -14 13s6 14 14 14h-2s1 0 3 1v-1h27c22 0 55 0 81 1v-1h17z" />
    <glyph glyph-name="sterling" unicode="&#xa3;" horiz-adv-x="486" 
d="M488 84c2 1 4 1 6 1c6 0 12 -4 12 -12c0 -13 -16 -35 -71 -65c-19 -10 -40 -15 -61 -15c-53 0 -112 49 -148 76c-27 -74 -72 -102 -113 -102c-49 0 -93 38 -93 81c0 45 43 103 110 103c17 0 36 -3 56 -12c-6 17 -31 98 -48 193h-75c-8 0 -12 7 -12 15s4 13 12 13h71
c-7 41 -11 85 -11 126c0 116 36 223 163 223c75 0 105 -48 105 -86c0 -20 -9 -35 -24 -35c-50 0 6 81 -74 81c-82 0 -104 -108 -104 -226c0 -28 1 -56 3 -83h94c7 0 12 -5 12 -13s-5 -14 -11 -14c0 -1 -43 -1 -93 -1c9 -102 26 -192 29 -204c31 -15 94 -88 165 -88
c26 0 67 10 100 44zM69 2c7 -6 18 -9 30 -9c38 0 89 30 100 96c-23 10 -43 15 -61 15c-53 0 -82 -41 -82 -73c0 -12 4 -23 13 -29z" />
    <glyph glyph-name="florin" unicode="&#x192;" horiz-adv-x="281" 
d="M201 700c50 0 70 -39 70 -75c0 -17 -4 -35 -22 -35c-12 0 -15 7 -15 16c0 7 2 12 2 29c0 20 -5 46 -33 46c-38 0 -37 -37 -40 -66v-244h67c8 0 12 -6 12 -13s-4 -13 -12 -13c1 0 -32 0 -67 0c0 -174 1 -373 1 -391v-13c0 -43 -8 -121 -95 -121c-51 0 -69 41 -69 77
c0 20 5 34 22 34c13 0 15 -9 15 -17c0 -6 -1 -13 -1 -30c0 -20 4 -45 33 -45c38 0 35 41 41 67c0 17 0 254 -1 439c-81 0 -72 -2 -72 12c0 7 5 13 12 13h60c0 174 -1 215 -1 212c0 42 8 118 93 118z" />
    <glyph glyph-name="cent" unicode="&#xa2;" horiz-adv-x="315" 
d="M270 146c1 0 3 1 4 1c7 0 11 -6 11 -14c0 -27 -47 -54 -78 -58c-22 -3 -17 -8 -19 -29v-34c0 -12 4 -25 -14 -25c-8 0 -16 5 -16 22v5v6c0 12 2 35 2 47c0 4 0 7 -1 8c-98 0 -119 103 -119 164c0 71 29 152 123 196c1 1 1 89 1 90c1 21 5 29 10 29c18 0 14 -67 14 -117
c46 0 80 -7 80 -54c0 -32 -30 -35 -36 -35c-20 0 5 64 -40 64h-4v-300c5 -1 9 -1 13 -1c29 0 48 19 69 35zM160 139c0 39 2 75 3 114v144c-40 -30 -70 -102 -70 -166c0 -50 19 -96 65 -111c1 8 2 14 2 19z" />
    <glyph glyph-name="afii61352" unicode="&#x2116;" horiz-adv-x="821" 
d="M770 24c8 0 17 -5 17 -12s-4 -12 -12 -12h-184c-7 0 -9 5 -9 10c0 6 3 13 9 13c58 0 147 1 179 1zM564 671h-51c0 -28 6 -297 6 -486c0 -109 1 -185 -13 -185c-22 31 -315 498 -379 587c0 -104 3 -376 3 -562h51c7 0 13 -6 13 -13s-5 -12 -13 -12h1h-2h-1h-125
c-7 0 -14 5 -14 12s7 13 14 13h50c0 29 -5 299 -5 488c0 111 -1 179 12 186c23 -32 315 -498 382 -590c0 181 -7 432 -7 562h-49c-8 0 -13 6 -13 13c0 9 5 14 12 14c-1 0 -1 0 -1 1h3h29v-1c21 0 53 1 80 1h17c8 0 14 -6 14 -14s-6 -14 -14 -14zM770 295
c14 -31 21 -63 21 -95c0 -47 -14 -134 -97 -134c-142 0 -121 128 -125 150c-1 5 -1 10 -1 16c0 51 23 119 102 119c61 0 81 -18 100 -56zM690 92c52 3 55 68 56 75c-6 78 -1 153 -65 153c-66 0 -65 -63 -65 -81c0 -28 5 -56 6 -82s19 -65 63 -65h5z" />
    <glyph glyph-name="paragraph" unicode="&#xb6;" horiz-adv-x="350" 
d="M269 -111c38 0 51 1 51 -10c0 -5 -3 -10 -12 -10c-59 0 -175 -7 -175 11c0 12 21 9 36 9c0 7 -1 70 -1 152c0 163 1 400 1 409c-39 0 -139 0 -139 126c0 101 103 121 139 121c84 0 151 6 151 -10c0 -15 -37 -10 -51 -10v-576v-212zM169 469v208c-52 0 -88 -45 -88 -101
c0 -59 17 -107 88 -107zM208 677v-788h37v788h-37z" />
    <glyph glyph-name="section" unicode="&#xa7;" horiz-adv-x="404" 
d="M125 24c4 -19 13 -87 71 -87c75 0 94 64 94 115c0 109 -219 181 -219 287c0 100 19 110 52 153c-41 63 -53 100 -53 158c0 111 117 125 131 125c11 0 133 -7 133 -85c0 -19 -11 -26 -23 -26s-24 7 -27 17c0 13 -39 68 -76 68c-63 0 -103 -53 -103 -94
c0 -157 229 -158 229 -289c0 -117 -52 -171 -52 -176c8 -15 52 -64 52 -132c0 -64 -35 -143 -137 -143c-85 0 -120 64 -120 108c0 20 10 38 29 38c10 0 19 -9 19 -37zM262 207c20 57 30 87 30 112c0 19 -7 35 -19 58c-55 86 -99 93 -116 93c-34 0 -55 -51 -55 -80
c0 -92 101 -126 160 -183z" />
    <glyph glyph-name="Euro" unicode="&#x20ac;" horiz-adv-x="472" 
d="M379 187c21 0 25 -17 25 -40c0 -61 -30 -160 -151 -160c-104 0 -156 130 -163 282h-58c-6 0 -12 6 -12 14c0 7 6 12 12 12h57c0 18 0 37 2 55h-59c-6 0 -12 7 -12 13c0 7 6 13 12 13h60c16 172 87 338 201 338c106 0 116 -50 119 -134c0 -1 -2 -19 -20 -19
c-52 0 29 134 -99 134c-64 0 -106 -155 -119 -319h177c8 0 14 -6 14 -13c0 -17 -12 -13 -193 -13c-1 -18 -2 -37 -2 -55h181c8 0 14 -5 14 -12c0 -21 -13 -14 -195 -14c1 -138 28 -254 88 -254c86 0 101 125 101 147c0 14 7 24 20 25z" />
    <glyph glyph-name="dollar" unicode="$" horiz-adv-x="458" 
d="M408 168c-1 -57 -52 -179 -192 -184c0 -61 3 -59 -13 -59c-6 0 -12 0 -12 12v47c-71 3 -104 25 -141 71c-13 16 -20 32 -20 50c0 16 15 31 28 31c11 0 25 -9 28 -22c10 -43 45 -98 105 -103v354c-66 50 -132 105 -132 214c0 60 42 121 132 130v22c0 10 0 19 13 19
c16 0 12 -16 12 -40c62 0 97 -15 115 -92c1 -3 1 -7 1 -11c0 -11 -5 -23 -17 -27c-49 0 -5 106 -99 112v-266c86 -48 192 -83 192 -258zM113 585c0 -75 32 -111 78 -142v246c-53 -8 -78 -51 -78 -104zM216 11c86 11 111 123 114 156c0 86 -52 132 -114 180v-336z" />
    <glyph glyph-name="ampersand" unicode="&#x26;" horiz-adv-x="479" 
d="M338 522c0 23 -3 156 -92 156c-61 0 -80 -92 -80 -141c0 -27 13 -126 133 -126c-17 -13 -34 -21 -50 -21c-112 0 -120 -130 -120 -220c0 -76 44 -148 96 -148s101 51 108 179c-1 3 -2 7 -2 10c0 6 3 12 14 12c34 0 27 -51 27 -57c0 -55 -22 -166 -148 -166
c-132 0 -164 122 -164 176c0 133 39 172 86 217c-10 19 -47 44 -47 142c0 75 58 163 145 163c89 0 129 -74 129 -116c0 -14 -3 -28 -8 -41c-2 -7 -16 -12 -27 -19zM205 208c9 47 40 111 139 111c44 0 122 -37 174 -37c23 0 42 9 61 15c-13 -32 -39 -53 -82 -53
c-45 0 -125 33 -166 33c-48 0 -86 -34 -126 -69z" />
    <glyph glyph-name="percent" unicode="%" horiz-adv-x="684" 
d="M308 506c0 -44 0 -191 -124 -191s-124 158 -124 191c0 39 1 192 124 192c124 0 124 -147 124 -192zM184 334c63 0 63 112 63 172c0 51 0 172 -63 172c-61 0 -61 -142 -61 -172c0 -41 0 -172 61 -172zM500 382c123 0 124 -145 124 -192c0 -45 0 -191 -124 -191
c-122 0 -123 154 -123 191c0 36 0 192 123 192zM500 18c65 0 65 121 65 172c0 62 0 173 -65 173c-63 0 -63 -130 -63 -173c0 -29 0 -172 63 -172zM480 700c9 0 13 -8 13 -14c0 -1 -1 -3 -1 -4c-36 -89 -234 -586 -255 -644c-8 -21 -8 -36 -40 -36c-5 0 -6 3 -6 9
c0 8 3 19 6 26c82 214 165 430 255 631c11 24 11 32 28 32z" />
    <glyph glyph-name="mu" unicode="&#xb5;" horiz-adv-x="462" 
d="M438 36c4 0 4 1 4 -6v-30h-141v31c-4 -7 -23 -37 -90 -37c-81 0 -108 50 -109 52c-4 3 -7 5 -10 5c-5 0 -8 -6 -8 -16c0 -24 26 -77 26 -118c0 -27 -8 -48 -27 -48c-24 0 -31 32 -31 71c0 52 12 117 12 143v401h-23c-8 0 -11 4 -11 9c0 15 67 10 96 10
c0 0 -1 -178 -1 -300c0 -62 0 -109 1 -113c0 -37 18 -71 87 -71c60 0 88 40 88 65v400v0h-26c-1 0 -8 1 -8 8c0 19 83 12 96 12v-468h75z" />
    <glyph glyph-name="uni20B4" unicode="&#x20b4;" horiz-adv-x="509" 
d="M429 158v-161h-49c0 14 -19 18 -20 18c-5 0 -11 -1 -19 -3c-38 -12 -84 -26 -118 -26c-54 0 -143 26 -143 146c0 68 21 115 54 156c-33 0 -36 -1 -36 11c0 7 5 14 11 14h49c28 26 57 48 86 69c-160 0 -146 -5 -146 14c0 7 5 13 11 13h164c43 38 71 81 71 148
c0 53 -18 115 -81 115c-117 0 -128 -141 -132 -169h-37c0 2 -1 185 1 185c6 0 28 -32 40 -32c1 0 2 1 3 1c26 11 28 21 52 31c30 12 55 19 81 19c44 0 81 -21 114 -64c23 -30 25 -66 25 -102c0 -50 -36 -91 -80 -132h64c7 0 12 -6 12 -13c0 -9 -5 -13 -12 -13
c1 0 -42 0 -93 0c-28 -22 -53 -45 -78 -70h171c7 0 12 -7 12 -14c0 -18 -54 -11 -207 -11c-35 -43 -58 -89 -58 -143c0 -80 53 -122 130 -122c26 0 49 7 75 20c36 18 60 107 61 114c7 0 16 1 22 1z" />
    <glyph glyph-name="numbersign" unicode="#" horiz-adv-x="523" 
d="M438 222c8 -2 11 -6 11 -11c0 -27 -93 -18 -126 -18c-28 -4 -53 -194 -84 -194c-11 0 -15 7 -15 12c0 4 2 9 4 14c20 58 33 112 55 168h-19c-26 0 -52 -1 -75 -1c-10 0 -19 0 -27 1c-10 -2 -47 -124 -65 -176c-7 -11 -16 -17 -24 -17c-6 0 -11 4 -11 12c0 4 1 8 3 13
c3 10 41 116 61 168h-11c-18 0 -38 -1 -57 -1c-20 0 -48 -1 -48 11c0 24 45 18 127 20c13 43 37 99 49 144c-52 0 -120 -4 -120 14c0 7 8 15 35 15h19h30h48c32 74 51 163 81 163c5 0 10 -2 12 -9c-26 -71 -35 -94 -55 -154h124c13 39 45 162 75 162c6 0 12 -4 13 -18
c-22 -64 -32 -86 -53 -144h89c22 0 29 -5 29 -11c0 -9 -13 -18 -20 -18c-27 0 -38 1 -54 1c-48 0 -55 4 -62 -21c-11 -37 -31 -87 -45 -125h61h45zM349 367c-18 3 -36 4 -53 4c-25 0 -49 -2 -71 -4c-6 -1 -46 -121 -52 -144h120c17 43 44 91 56 144z" />
    <glyph glyph-name="quotedbl" unicode="&#x22;" horiz-adv-x="252" 
d="M58 691c4 6 12 9 19 9c29 0 28 -33 28 -52c0 -45 -18 -80 -19 -87c-3 -11 -7 -15 -10 -15c-12 0 -26 82 -26 115c0 10 3 22 8 30zM172 699c25 0 30 -19 30 -36c0 -50 -18 -92 -19 -102c-3 -11 -7 -15 -10 -15c-11 0 -26 78 -26 109c0 18 4 44 25 44z" />
    <glyph glyph-name="parenleft" unicode="(" horiz-adv-x="283" 
d="M221 -119c-59 0 -121 190 -121 416c0 208 62 413 121 413c1 0 2 -1 2 -2c0 -14 -61 -103 -61 -411c0 -331 60 -405 60 -415c0 -1 0 -1 -1 -1z" />
    <glyph glyph-name="parenright" unicode=")" horiz-adv-x="283" 
d="M62 -119c-1 0 -2 0 -2 1c0 10 61 86 61 415c0 308 -61 397 -61 411c0 1 0 2 2 2c59 0 121 -205 121 -413c0 -226 -62 -416 -121 -416z" />
    <glyph glyph-name="asterisk" unicode="*" horiz-adv-x="301" 
d="M230 557c7 -4 21 -14 21 -26s-13 -17 -18 -17c-27 0 -59 39 -79 60c6 -18 17 -53 18 -68c0 -9 -1 -34 -20 -34c-21 0 -20 23 -21 27c2 28 3 43 12 71c-9 -11 -25 -25 -31 -31c-8 -6 -26 -25 -44 -25c-6 0 -18 7 -18 18c0 24 51 40 94 50c-26 8 -93 30 -93 55
c0 8 8 19 17 19c19 0 52 -31 76 -61c-9 29 -11 48 -13 77c1 3 0 25 21 25c19 0 20 -23 20 -34c-1 -16 -15 -61 -19 -76c17 33 64 69 80 69c8 0 17 -9 17 -18c0 -21 -57 -46 -93 -56c19 -4 61 -18 73 -25z" />
    <glyph glyph-name="plus" unicode="+" horiz-adv-x="326" 
d="M280 312c8 0 16 -5 16 -10c0 -8 -3 -13 -12 -13h-109v-125c-3 -6 -8 -8 -12 -8s-8 2 -9 6v127c-28 -1 -85 -1 -115 -1c-7 0 -9 4 -9 9c0 6 4 14 11 14h113c0 34 -1 102 -1 119c2 7 4 10 10 10c19 0 12 -94 12 -129c32 0 89 1 105 1z" />
    <glyph glyph-name="at" unicode="@" horiz-adv-x="590" 
d="M558 90c-7 -8 -15 -16 -25 -24c-14 -11 -112 -74 -216 -74c-91 0 -277 59 -277 263c0 66 36 253 293 253c40 0 213 -36 213 -217c0 -119 -107 -197 -158 -197c-42 0 -65 34 -66 38c-24 -22 -43 -37 -75 -37c-54 0 -66 54 -66 78c0 55 41 162 121 162c17 0 35 -6 52 -24
c9 0 18 8 29 8c4 0 8 -1 13 -5c-4 -15 -38 -136 -38 -166c0 -13 9 -34 39 -34c82 0 100 120 100 175c0 45 -20 200 -164 200c-184 0 -247 -152 -247 -234c0 -127 102 -245 231 -245c98 3 180 38 230 81c2 2 3 5 10 5c2 0 3 -1 3 -2s-1 -3 -2 -4zM347 283c0 19 -14 30 -29 30
c-52 0 -96 -82 -96 -135c0 -30 8 -57 39 -57c68 0 86 153 86 162z" />
    <glyph glyph-name="less" unicode="&#x3c;" horiz-adv-x="373" 
d="M332 112c-103 50 -202 101 -302 160c18 8 203 73 280 98c8 2 14 4 18 4c10 0 13 -7 15 -26c-83 -28 -159 -57 -249 -86c37 -19 173 -91 215 -111c12 -6 24 -12 23 -32v-7z" />
    <glyph glyph-name="greater" unicode="&#x3e;" horiz-adv-x="374" 
d="M42 388c139 -52 176 -70 302 -120c-19 -10 -250 -140 -299 -140c-10 0 -12 7 -15 26c85 38 154 70 245 115c-37 17 -169 62 -209 82c-12 6 -25 12 -25 31c0 2 1 4 1 6z" />
    <glyph glyph-name="equal" unicode="=" horiz-adv-x="336" 
d="M277 250c6 -3 9 -4 9 -10c0 -7 -7 -12 -12 -12c-60 -1 -150 -1 -215 -1c-6 3 -9 7 -9 12c0 4 3 8 7 10c56 0 186 0 220 1zM59 340c-7 0 -9 5 -9 10c0 8 4 16 11 16h209c8 0 16 -4 16 -12s-3 -14 -12 -14h-215z" />
    <glyph glyph-name="asciicircum" unicode="^" horiz-adv-x="333" 
d="M152 681c-36 -54 -63 -85 -92 -123c-11 -15 -8 -21 -28 -30c-1 2 -2 5 -2 6c37 50 76 101 111 151c7 7 15 11 23 11c22 0 98 -96 129 -132c4 -5 10 -18 10 -23c0 -8 -11 -10 -15 -10c-6 0 -12 3 -17 8c-39 46 -78 93 -119 142z" />
    <glyph glyph-name="bracketleft" unicode="[" horiz-adv-x="293" 
d="M228 639h-68v-659h62c1 -1 21 2 21 -9c0 -13 -22 -10 -22 -11h-120c0 91 -1 559 -1 698h114c18 0 28 0 28 -10c0 -4 -3 -9 -14 -9z" />
    <glyph glyph-name="bracketright" unicode="]" horiz-adv-x="297" 
d="M134 639h-67c-12 0 -17 5 -17 9c0 10 14 10 31 10h116v-698h-121c0 1 -26 -2 -26 11c0 11 22 8 23 9h61v659z" />
    <glyph glyph-name="braceleft" unicode="{" horiz-adv-x="314" 
d="M226 -50c0 9 7 15 14 15c9 0 14 -7 14 -25c0 -21 -12 -50 -48 -50c-41 0 -85 25 -85 178v189c0 37 -55 45 -61 48c0 0 61 14 61 52v187c0 155 44 177 85 177c35 0 48 -25 48 -49c0 -13 -10 -24 -20 -24c-18 0 0 54 -28 54c-21 0 -21 -17 -21 -99v-107
c0 -131 -14 -151 -70 -191c56 -35 70 -57 70 -189v-108c0 -81 0 -97 21 -97s20 14 20 39z" />
    <glyph glyph-name="bar" unicode="|" horiz-adv-x="239" 
d="M119 743c16 0 20 -22 20 -27c-4 -106 -6 -592 -6 -771v-58c0 -22 -7 -36 -24 -36c-6 0 -7 10 -7 21c0 9 1 19 1 24c-2 53 -3 133 -3 223c0 216 7 487 7 573c0 27 -2 51 12 51z" />
    <glyph glyph-name="braceright" unicode="}" horiz-adv-x="314" 
d="M87 -50c0 -25 -1 -39 23 -39c20 0 20 16 20 97c0 35 -1 71 -1 108c0 132 14 155 68 189c-54 39 -68 61 -68 191c0 37 1 72 1 107c0 82 0 99 -20 99c-32 0 -12 -54 -31 -54c-12 0 -19 12 -19 27c0 22 13 46 49 46c40 0 82 -22 82 -177v-187c0 -38 63 -52 63 -52
c-6 -3 -63 -11 -63 -48v-189c0 -153 -42 -178 -82 -178c-38 0 -49 29 -49 50c0 18 5 25 12 25s15 -6 15 -15z" />
    <glyph glyph-name="asciitilde" unicode="~" horiz-adv-x="325" 
d="M30 285c42 35 58 52 97 52c35 0 69 -28 98 -28c22 0 35 11 65 24c3 -4 5 -8 5 -11c0 -12 -44 -39 -65 -50c-9 -4 -19 -7 -29 -7c-37 0 -70 34 -101 34c-20 0 -40 -19 -56 -19c-4 0 -9 2 -14 5z" />
    <glyph glyph-name="guilsinglleft" unicode="&#x2039;" horiz-adv-x="250" 
d="M193 393c-20 -32 -67 -100 -67 -119c0 -24 74 -100 74 -134c0 -6 -5 -11 -10 -11c-8 0 -62 60 -86 84c-19 19 -37 38 -54 54c42 54 99 130 129 130c4 0 9 -2 14 -4z" />
    <glyph glyph-name="trademark" unicode="&#x2122;" horiz-adv-x="457" 
d="M21 698h145c0 -8 1 -18 1 -27c0 -15 -3 -27 -14 -27c-17 0 -14 12 -16 31h-32v-154h10c9 -2 13 -6 13 -11s-7 -11 -18 -11h-5s-11 -1 -17 -1c-4 0 -6 1 -5 1h-8c-10 0 -18 6 -18 12c0 4 3 7 9 10h16v14c0 35 2 70 2 104c0 12 0 24 -1 36h-21c-30 0 -6 -28 -28 -28
c-11 0 -14 18 -14 37c0 6 1 11 1 14zM405 521c8 0 12 -5 12 -11c0 -5 -4 -11 -12 -11c-37 0 -61 -5 -61 11c0 5 3 11 9 11h14v122c-25 -31 -47 -73 -73 -106c-20 35 -71 107 -73 107c0 -2 -1 -17 -1 -35c0 -37 1 -88 1 -88h14c6 0 10 -6 10 -11c0 -6 -4 -11 -10 -11h-47
c-8 0 -11 5 -11 11c0 5 4 11 12 11c16 0 10 13 10 25c0 34 -1 71 -1 107c0 15 0 30 1 45c31 0 81 -83 95 -103c23 25 61 103 96 103v-177h15z" />
    <glyph glyph-name="copyright" unicode="&#xa9;" horiz-adv-x="449" 
d="M402 558c4 -18 7 -36 7 -55c0 -15 -2 -30 -5 -45c-10 -44 -57 -143 -185 -143c-142 0 -179 129 -179 178c0 95 80 204 186 204c104 0 157 -57 176 -139zM232 346c69 0 139 84 139 133c0 3 -1 5 -1 8c1 6 1 13 1 20c0 74 -61 172 -153 172c-16 0 -28 -4 -42 -12
c-60 -37 -108 -84 -108 -168c0 -17 3 -35 7 -52c5 -21 51 -101 157 -101zM244 453c17 0 24 -5 26 -14c-18 -19 -29 -35 -58 -35c-45 0 -72 33 -72 74c0 53 35 123 94 123c19 0 35 -15 35 -45c0 -10 -4 -15 -17 -15c-21 0 -18 14 -20 54c-44 -24 -49 -68 -49 -100
c0 -27 8 -54 37 -72c8 11 15 19 24 30z" />
    <glyph glyph-name="brokenbar" unicode="&#xa6;" horiz-adv-x="236" 
d="M105 257c0 26 6 39 13 39c24 0 17 -183 17 -261c0 -22 -8 -36 -17 -36c-22 0 -17 87 -17 117c0 39 0 95 4 141zM135 439c0 -21 -8 -33 -17 -33c-22 0 -17 88 -17 116s-3 179 17 179c25 0 16 -184 17 -262z" />
    <glyph glyph-name="guillemotleft" unicode="&#xab;" horiz-adv-x="329" 
d="M231 263c22 -36 41 -69 62 -107c2 -4 3 -8 3 -12c0 -9 -5 -15 -6 -16c-30 24 -122 145 -122 143c0 3 2 6 6 9c36 50 65 87 115 141c7 -4 10 -8 10 -13c0 -2 -1 -5 -3 -8c-12 -19 -70 -118 -70 -123s2 -9 5 -14zM85 275c21 -38 49 -74 72 -117c1 -2 1 -4 1 -6
c0 -9 -4 -21 -6 -21c-1 0 -88 91 -114 118c-6 6 -8 11 -8 16c0 7 5 11 8 14c37 50 72 97 109 143c5 -6 7 -11 7 -16c0 -24 -46 -88 -69 -131z" />
    <glyph glyph-name="registered" unicode="&#xae;" horiz-adv-x="541" 
d="M271 700c78 0 230 -46 230 -230c0 -185 -147 -219 -230 -219c-62 0 -231 43 -231 223c0 201 183 226 231 226zM467 474c0 156 -132 201 -196 201c-90 0 -191 -77 -191 -201c0 -156 125 -199 191 -199c47 3 196 11 196 199zM396 333c-6 -2 -14 -3 -21 -3
c-29 0 -52 10 -57 38c-2 13 -8 82 -59 82v-98h10c9 0 13 -1 14 -9c0 -16 -56 -10 -82 -10c-11 0 -16 5 -16 10s4 9 10 9h22c0 62 1 183 1 228h-21c-8 0 -12 5 -12 10s5 11 12 11h66c22 0 77 -18 77 -64c0 -28 -11 -48 -33 -63c35 -18 48 -47 48 -81c0 -27 11 -39 41 -47v-13
zM259 580v-106c31 0 44 24 44 60c0 37 -31 47 -41 47c-2 0 -3 0 -3 -1z" />
    <glyph glyph-name="logicalnot" unicode="&#xac;" horiz-adv-x="315" 
d="M284 322c0 -13 4 -60 -18 -60c-15 0 -12 23 -12 46h-211c-8 0 -13 6 -13 14c0 7 5 13 13 13h228c7 0 13 -6 13 -13z" />
    <glyph glyph-name="degree" unicode="&#xb0;" horiz-adv-x="267" 
d="M227 604c0 -66 -48 -94 -96 -94c-52 0 -91 43 -91 93c0 47 37 92 93 92c55 0 94 -27 94 -91zM196 603c0 24 -8 70 -60 70c-33 0 -69 -24 -69 -69c0 -53 42 -73 69 -73c35 0 60 27 60 72z" />
    <glyph glyph-name="plusminus" unicode="&#xb1;" horiz-adv-x="342" 
d="M293 157c10 0 19 -5 19 -12c0 -6 -3 -12 -13 -12c-68 0 -190 -1 -261 -1c-6 0 -8 4 -8 9c0 7 4 15 10 15h120c-2 0 -1 116 -1 141c-31 0 -89 -1 -118 -1c-6 0 -9 4 -9 10s4 14 10 14h117c0 35 0 105 -1 124c2 6 4 10 10 10c7 0 14 -8 14 -14c0 -29 1 -93 1 -119
c54 0 122 6 122 -11c0 -7 -4 -13 -13 -13h-109c0 -32 -2 -112 -2 -141c32 1 95 1 112 1z" />
    <glyph glyph-name="guillemotright" unicode="&#xbb;" horiz-adv-x="328" 
d="M97 263c4 4 6 8 6 13c0 6 -73 134 -73 132c0 5 3 9 11 13c48 -54 77 -91 114 -141c3 -3 5 -6 5 -8c0 -5 -4 -9 -6 -12c-9 -17 -106 -124 -114 -132c-2 1 -7 7 -7 16c0 3 1 7 3 12c19 38 41 71 61 107zM243 275c-24 42 -69 114 -69 130c0 5 2 11 8 17
c35 -46 72 -93 108 -143c2 -3 8 -8 8 -15c0 -1 -112 -133 -123 -133c-2 0 -7 12 -7 20c0 3 1 5 2 7c26 43 51 79 73 117z" />
    <glyph glyph-name="periodcentered" unicode="&#xb7;" horiz-adv-x="179" 
d="M45 354c0 23 22 43 44 43c26 0 45 -20 45 -46c0 -25 -17 -42 -39 -42c-40 0 -49 7 -50 45z" />
    <glyph glyph-name="divide" unicode="&#xf7;" horiz-adv-x="320" 
d="M278 308c8 0 12 -4 12 -8c0 -5 -4 -10 -13 -10c-7 0 -225 -1 -232 -1c-9 0 -15 5 -15 8c0 10 146 12 236 12c4 0 8 0 12 -1zM161 390c-16 0 -29 10 -29 25c0 16 12 29 31 29c12 0 23 -8 23 -23c0 -18 -11 -31 -25 -31zM145 212c4 2 8 3 12 3c13 0 31 -11 31 -28
c0 -15 -12 -24 -28 -24c-17 0 -28 8 -28 24c0 10 5 21 13 25z" />
    <glyph glyph-name="exclamdown" unicode="&#xa1;" horiz-adv-x="224" 
d="M88 104c9 132 -4 263 22 263c12 0 17 -10 17 -20c-1 -67 -1 -132 -1 -201c0 -123 3 -249 7 -388c0 -13 -9 -27 -26 -27c-23 0 -27 11 -27 69c0 88 6 262 8 304zM110 436c-18 0 -29 10 -29 32s9 38 27 38c19 0 36 -15 36 -35s-15 -35 -34 -35z" />
    <glyph glyph-name="acute" unicode="&#xb4;" horiz-adv-x="156" 
d="M126 682c-19 -32 -62 -104 -85 -104c-7 0 -11 10 -11 16c0 20 32 74 42 95c4 10 14 15 24 15c12 0 24 -7 30 -22z" />
    <glyph glyph-name="circumflex" unicode="&#x2c6;" horiz-adv-x="202" 
d="M97 642c-19 -19 -32 -61 -50 -61c-4 0 -17 7 -17 16c0 0 59 95 66 103c5 -5 69 -87 74 -95c1 -2 2 -4 2 -7c0 -6 -4 -14 -13 -14c-15 0 -45 43 -62 58z" />
    <glyph glyph-name="multiply" unicode="&#xd7;" horiz-adv-x="339" 
d="M61 394c-4 4 -7 9 -7 14c0 6 6 10 11 10c8 0 79 -78 105 -105c14 16 102 111 111 111c8 0 14 -7 14 -13c0 -7 -88 -92 -108 -115c19 -20 112 -115 112 -120c0 -6 -8 -12 -14 -12s-90 91 -114 116c-34 -39 -118 -119 -121 -119c-5 0 -10 5 -10 12s88 97 116 123
c-25 21 -83 88 -95 98z" />
    <glyph glyph-name="onesuperior" unicode="&#xb9;" horiz-adv-x="181" 
d="M142 352c7 0 9 -4 9 -8s-2 -8 -5 -8c-37 0 -113 -5 -113 8c0 9 9 8 12 8h28v255c-14 -24 -20 -36 -32 -36c-8 0 -11 6 -11 11c0 7 5 14 9 19c35 54 49 92 65 92c5 0 10 -4 10 -15c0 -93 1 -327 1 -327c14 2 19 1 27 1z" />
    <glyph glyph-name="ordmasculine" unicode="&#xba;" horiz-adv-x="184" 
d="M87 568c-52 1 -57 36 -57 50c0 30 15 81 70 81c27 0 51 -20 51 -54c0 -61 -31 -77 -64 -77zM100 679c-26 0 -40 -25 -40 -51c0 -19 9 -36 27 -36c20 0 35 26 35 54c0 17 -7 32 -22 33zM139 515c11 -1 15 -5 15 -10c0 -13 -22 -12 -73 -12c-18 0 -47 -3 -47 14
c0 12 93 8 105 8z" />
    <glyph glyph-name="ordfeminine" unicode="&#xaa;" horiz-adv-x="223" 
d="M60 535c-9 9 -14 20 -14 31c0 56 85 61 85 95c0 11 -10 19 -15 20c-37 0 -27 -33 -39 -33c-4 0 -13 4 -13 14c0 15 19 38 50 38c32 0 37 -17 37 -31c0 -18 -1 -65 -1 -95c0 -10 2 -17 14 -17c7 1 9 1 16 1c0 -16 -16 -30 -29 -30s-18 16 -27 16c-11 0 -26 -19 -41 -19
c-8 0 -15 3 -23 10zM78 571c0 -1 -1 -4 -1 -6c0 -5 2 -10 11 -10c29 0 39 10 39 61c-33 -2 -48 -27 -49 -45zM178 472c10 -2 15 -6 15 -11c0 -15 -25 -12 -106 -12c-31 0 -57 -4 -57 15c0 2 2 5 7 8h141z" />
    <glyph glyph-name="period" unicode="." horiz-adv-x="163" 
d="M81 65c16 -1 32 -15 32 -35c0 -16 -17 -34 -33 -34c-20 0 -30 15 -30 37s11 32 31 32z" />
    <glyph glyph-name="comma" unicode="," horiz-adv-x="178" 
d="M50 -75c21 23 47 35 47 68c-25 5 -42 14 -42 34c0 14 19 42 41 42c19 0 32 -24 32 -42c-4 -40 -23 -89 -78 -102z" />
    <glyph glyph-name="semicolon" unicode=";" horiz-adv-x="179" 
d="M50 -75c22 23 46 34 46 68c-24 5 -41 14 -41 34c0 15 18 42 41 42c18 0 33 -21 33 -38c0 -41 -23 -93 -79 -106zM92 499c21 0 34 -12 34 -28c0 -20 -23 -47 -46 -47c-16 0 -29 15 -29 33c0 22 18 42 41 42z" />
    <glyph glyph-name="quoteright" unicode="&#x2019;" horiz-adv-x="181" 
d="M50 555c22 26 48 38 48 70c-26 5 -43 12 -43 34c0 17 22 42 40 42c21 0 36 -19 36 -38c0 -40 -23 -93 -81 -108z" />
    <glyph glyph-name="onehalf" unicode="&#xbd;" horiz-adv-x="573" 
d="M513 21v-7v-16c-9 -2 -145 -1 -174 -1c-8 0 -9 2 -9 18c0 25 51 70 91 136c33 49 47 92 47 124c0 35 -18 57 -46 57c-56 0 -42 -83 -75 -83c-9 0 -16 9 -16 14c4 36 24 88 90 88c64 0 92 -40 92 -87c0 -88 -121 -201 -141 -231h124c17 0 17 -4 17 -12zM182 352
c7 0 9 -4 9 -8s-2 -8 -5 -8c-37 0 -113 -5 -113 8c0 9 9 8 12 8h28v255c-14 -24 -20 -36 -32 -36c-8 0 -11 6 -11 11c0 7 5 14 9 19c35 54 49 92 65 92c5 0 10 -4 10 -15c0 -93 1 -327 1 -327c14 2 19 1 27 1zM422 702c3 -1 4 -4 4 -7c0 -5 -3 -11 -5 -13
c-19 -47 -270 -669 -275 -689c-3 -7 -8 -10 -14 -10c-8 0 -16 7 -16 18c0 3 1 7 3 11c30 75 255 621 267 645c7 15 17 46 32 46c1 0 3 -1 4 -1z" />
    <glyph glyph-name="onequarter" unicode="&#xbc;" horiz-adv-x="558" 
d="M181 352c7 0 10 -4 10 -8s-3 -8 -5 -8c-37 0 -113 -5 -113 8c0 9 9 8 10 8h30c0 110 1 160 1 255c-17 -24 -24 -36 -34 -36c-8 0 -10 6 -10 11c0 7 5 14 8 19c34 56 51 92 66 92c6 0 10 -4 10 -15v-327c13 2 20 1 27 1zM423 702c2 -1 3 -3 3 -7c0 -5 -2 -11 -3 -13
c-20 -47 -273 -669 -279 -689c-2 -7 -7 -10 -12 -10c-8 0 -16 7 -16 17c0 4 1 8 3 12c29 75 255 621 267 645c8 16 18 46 33 46c1 0 3 -1 4 -1zM511 118c0 0 7 -2 7 -17c0 -8 -7 -12 -7 -12h-48v-76c36 0 38 0 38 -7c0 -3 -3 -6 -6 -6c-34 0 -112 -4 -112 6c0 9 -3 7 38 7
v75c-55 0 -100 1 -142 1c7 16 142 236 151 251c5 8 13 12 19 12c8 0 14 -6 14 -16v-194c0 -10 -1 -16 -1 -20s1 -5 5 -5c3 0 8 1 16 1h28zM321 116c36 2 64 0 100 2v165c-13 -20 -98 -159 -100 -167z" />
    <glyph glyph-name="threequarters" unicode="&#xbe;" horiz-adv-x="558" 
d="M509 118c0 0 9 -2 9 -17c0 -8 -9 -12 -9 -12h-47v-76c39 0 39 0 39 -7c0 -3 -2 -6 -5 -6c-41 0 -113 -4 -113 6s12 7 37 7v75c-53 0 -99 1 -140 1c7 16 140 236 150 251c7 8 14 12 20 12c7 0 12 -6 12 -16v-194c0 -10 -1 -16 -1 -20s1 -5 5 -5c3 0 8 1 16 1h27zM322 116
c35 2 63 0 98 2v165c-11 -20 -96 -159 -98 -167zM234 436c-1 -23 -11 -111 -96 -111c-39 0 -85 24 -87 53c-1 8 -1 18 -1 28c0 4 7 10 14 10c22 0 3 -80 68 -80c56 0 57 69 57 97c0 108 -99 77 -99 86c0 4 3 8 13 12c4 5 67 -5 67 86c0 37 -19 60 -37 60
c-67 0 -39 -81 -64 -81c-7 0 -15 8 -15 15c0 15 16 80 79 80c38 0 73 -27 73 -73c0 -55 -27 -78 -29 -82c5 -4 57 -23 57 -100zM432 702c3 -1 4 -4 4 -7c0 -5 -2 -11 -4 -13c-19 -47 -271 -669 -279 -689c-3 -7 -8 -10 -13 -10c-8 0 -15 6 -15 17c0 3 1 8 3 12
c30 75 257 620 269 645c8 15 16 46 31 46c1 0 3 -1 4 -1z" />
    <glyph glyph-name="space" unicode=" " horiz-adv-x="180" 
 />
    <glyph glyph-name="hyphen" unicode="-" horiz-adv-x="326" 
d="M280 312c8 0 16 -5 16 -10c0 -8 -3 -13 -12 -13h-109h-21c-28 0 -85 -2 -115 -1c-7 0 -9 4 -9 9c0 6 4 14 11 14h113h21c32 0 89 1 105 1z" />
    <glyph glyph-name="colon" unicode=":" horiz-adv-x="175" 
d="M91 499c21 0 34 -12 34 -28c0 -20 -23 -47 -46 -47c-16 0 -29 15 -29 33c0 22 18 42 41 42zM90 65c16 -1 32 -15 32 -35c0 -16 -17 -34 -33 -34c-20 0 -30 15 -30 37s11 32 31 32z" />
    <glyph glyph-name="quotedblright" unicode="&#x201d;" horiz-adv-x="306" 
d="M175 557c23 23 50 36 50 69c-28 5 -45 12 -45 33c0 14 19 42 41 42c18 0 35 -19 35 -41c0 -38 -25 -89 -81 -103zM83 628c-18 4 -32 21 -32 38s17 35 42 35c17 0 38 -15 38 -41c0 -38 -25 -90 -81 -104c21 23 49 36 49 68c0 3 -10 3 -16 4z" />
    <glyph glyph-name="quotedblleft" unicode="&#x201c;" horiz-adv-x="307" 
d="M131 702c-23 -26 -49 -39 -49 -70c27 -5 44 -12 44 -34c0 -17 -23 -42 -40 -42c-20 0 -36 20 -36 40c0 40 25 91 81 106zM223 630c20 -4 33 -22 33 -39c0 -19 -19 -36 -40 -36c-22 0 -42 17 -42 39c0 41 26 93 83 108c-23 -26 -48 -39 -48 -68c0 -4 11 -3 14 -4z" />
    <glyph glyph-name="backslash" unicode="\" horiz-adv-x="370" 
d="M34 702c1 0 2 1 4 1c14 0 25 -31 32 -46c11 -24 236 -570 267 -645c2 -4 3 -8 3 -11c0 -11 -9 -18 -17 -18c-5 0 -10 3 -13 10c-5 20 -256 642 -275 689c-3 2 -5 8 -5 13c0 3 1 6 4 7z" />
    <glyph glyph-name="underscore" unicode="_" horiz-adv-x="266" 
d="M250 -108c8 0 16 -5 16 -10c0 -8 -3 -13 -12 -13h-109h-21c-28 0 -85 -2 -115 -1c-7 0 -9 4 -9 9c0 6 4 14 11 14h113h21c32 0 89 1 105 1z" />
    <glyph glyph-name="grave" unicode="`" horiz-adv-x="156" 
d="M30 682c6 15 18 22 30 22c24 0 52 -66 65 -106c0 -1 1 -3 1 -4c0 -6 -4 -16 -11 -16c-23 0 -66 72 -85 104z" />
    <glyph glyph-name="quotesingle" unicode="'" horiz-adv-x="156" 
d="M58 691c4 6 12 9 19 9c29 0 28 -33 28 -52c0 -45 -18 -80 -19 -87c-3 -11 -7 -15 -10 -15c-12 0 -26 82 -26 115c0 10 3 22 8 30z" />
    <glyph glyph-name="afii10053" unicode="&#x404;" horiz-adv-x="428" 
d="M94 588c10 69 50 110 145 110c98 0 136 -53 139 -129c0 1 -1 -20 -17 -20c-51 0 6 130 -121 130c-65 0 -96 -37 -101 -101l-4 -191c26 21 55 51 78 51s76 -33 90 -78c-5 -2 -6 -2 -6 -2c-25 24 -49 43 -57 43c-15 0 -57 -47 -93 -47c-4 0 -9 1 -13 2l-2 -80
c0 -41 5 -186 11 -218c5 -30 43 -49 71 -49c47 0 106 34 109 89c2 32 -6 85 20 87c22 0 27 -19 27 -42c0 -56 -30 -150 -141 -151c-130 7 -149 54 -149 304c0 89 6 258 14 292z" />
    <glyph glyph-name="afii10101" unicode="&#x454;" horiz-adv-x="392" 
d="M122 255c0 -9 -3 -36 -3 -70c0 -76 13 -179 95 -179c98 0 90 109 95 137c0 4 7 17 15 17c16 0 17 -12 17 -25c0 -97 -62 -143 -127 -143c-56 0 -154 16 -154 268c0 250 101 255 159 258c75 -1 123 -39 123 -111c0 -13 -5 -19 -18 -19c-45 0 35 107 -103 115
c-91 0 -99 -94 -99 -156v-37c0 -11 -1 -18 -1 -24c0 -9 2 -13 11 -14c23 28 53 71 75 71s57 -45 79 -69v-1c0 -1 -1 -3 -3 -6c-28 4 -46 39 -69 39c-25 0 -55 -53 -81 -53c-3 0 -7 1 -11 2z" />
    <glyph glyph-name="uni00AD" unicode="&#xad;" horiz-adv-x="326" 
d="M280 312c8 0 16 -5 16 -10c0 -8 -3 -13 -12 -13h-109h-21c-28 0 -85 -2 -115 -1c-7 0 -9 4 -9 9c0 6 4 14 11 14h113h21c32 0 89 1 105 1z" />
    <glyph glyph-name="guilsinglright" unicode="&#x203a;" horiz-adv-x="250" 
d="M57 393c5 2 10 4 14 4c31 0 88 -78 129 -130c-37 -35 -82 -78 -123 -124c-4 -7 -11 -14 -17 -14s-10 5 -10 12c1 5 4 10 6 15c21 36 67 100 67 118c0 19 -47 87 -66 119z" />
    <glyph glyph-name="endash" unicode="&#x2013;" horiz-adv-x="486" 
d="M440 312c8 0 16 -5 16 -10c0 -8 -3 -13 -12 -13h-189h-101c-28 -1 -85 -1 -115 -1c-7 0 -9 4 -9 9c0 6 4 14 11 14h113h101c32 0 169 1 185 1z" />
    <glyph glyph-name="emdash" unicode="&#x2014;" horiz-adv-x="566" 
d="M520 312c8 0 16 -5 16 -10c0 -8 -3 -13 -12 -13h-269h-21c-28 0 -165 -2 -195 -1c-7 0 -9 4 -9 9c0 6 4 14 11 14h193h21c32 0 249 1 265 1z" />
    <glyph glyph-name="bullet" unicode="&#x2022;" horiz-adv-x="354" 
d="M254 298c0 -44 -33 -74 -74 -74c-54 0 -80 28 -80 80c2 39 32 72 75 72c57 0 77 -43 79 -78z" />
    <glyph glyph-name="Dcroat" unicode="&#x110;" horiz-adv-x="514" 
d="M454 358c0 -248 -59 -339 -154 -351c-63 -8 -111 -9 -125 -9h-87h-15c-9 0 -15 6 -15 13c0 8 6 14 15 14h27v0h8v45c0 51 -1 104 -1 156c0 22 1 43 1 64v42c-69 0 -67 -2 -67 15c0 6 7 11 14 11h53v184v127h-8v0h-27c-9 0 -15 6 -15 13s6 14 15 14h15h83
c5 0 84 1 147 -15c51 -13 133 -82 136 -323zM370 118c25 67 27 142 27 205c0 6 -4 194 -32 261c-25 51 -56 89 -136 89c-34 0 -64 -4 -64 -4c0 -70 -1 -102 -1 -185c0 -33 0 -78 1 -126h43c8 0 14 -5 14 -11c0 -15 2 -14 -57 -14v-287c0 -9 -17 -23 32 -23
c50 0 141 12 173 95z" />
    <glyph glyph-name="questiondown" unicode="&#xbf;" horiz-adv-x="310" 
d="M264 -69c4 8 11 13 21 13c23 0 25 -16 25 -37c0 -67 -32 -168 -153 -168c-108 3 -157 61 -157 155c0 40 11 82 36 114c61 80 124 177 124 291c0 29 -6 56 -6 58c0 6 2 13 13 13c18 0 15 -37 15 -54c0 -126 -57 -234 -107 -310c-17 -25 -23 -56 -23 -84
c0 -69 33 -156 127 -156c56 0 87 38 87 92c0 25 -2 44 -2 73zM193 476c0 -20 -14 -36 -32 -36c-17 0 -33 14 -33 32c0 17 18 33 35 33s30 -13 30 -29z" />
    <glyph glyph-name="breve" unicode="&#x2d8;" horiz-adv-x="215" 
d="M35 588c14 -7 29 -15 46 -15c33 0 66 24 66 60c0 18 -27 40 -44 40c-16 0 -29 -17 -39 -34c-11 6 -16 14 -16 23c0 27 37 43 61 43c57 0 76 -34 76 -62c0 -65 -54 -96 -88 -96c-22 0 -67 16 -67 30c0 3 1 7 5 11z" />
    <glyph glyph-name="caron" unicode="&#x2c7;" horiz-adv-x="202" 
d="M97 638c17 15 47 58 62 58c9 0 13 -8 13 -14c0 -3 -1 -6 -2 -7c-5 -8 -69 -90 -74 -95c-7 8 -66 103 -66 103c0 12 16 16 17 16c18 0 31 -43 50 -61z" />
    <glyph glyph-name="afii57929" unicode="&#x2bc;" horiz-adv-x="138" 
d="M30 556c21 23 47 35 47 68c-25 5 -42 14 -42 34c0 14 19 42 41 42c19 0 32 -24 32 -42c-4 -40 -23 -89 -78 -102z" />
    <glyph glyph-name="dieresis" unicode="&#xa8;" horiz-adv-x="308" 
d="M223 625c-15 0 -35 15 -35 33c0 25 29 44 57 44c14 0 33 -23 33 -31c0 -20 -36 -45 -55 -46zM46 640c-11 6 -16 18 -16 29c0 30 26 27 37 31c25 -1 37 -12 37 -30c0 -19 -25 -35 -42 -35c-5 0 -10 1 -16 5z" />
    <glyph glyph-name="dotaccent" unicode="&#x2d9;" horiz-adv-x="150" 
d="M65 625c-15 0 -35 15 -35 33c0 25 29 44 57 44c14 0 33 -23 33 -31c0 -20 -36 -45 -55 -46z" />
    <glyph glyph-name="ring" unicode="&#x2da;" horiz-adv-x="200" 
d="M30 623c1 47 36 72 73 72c36 0 67 -25 67 -72c0 -45 -37 -70 -73 -70c-37 0 -66 25 -67 70zM143 624c0 20 -12 49 -43 49s-43 -29 -43 -49s12 -49 43 -49s43 29 43 49z" />
    <glyph glyph-name="cyrBreve" unicode="&#xf6d1;" horiz-adv-x="215" 
d="M35 768c14 -7 29 -15 46 -15c33 0 66 24 66 60c0 18 -27 40 -44 40c-16 0 -29 -17 -39 -34c-11 6 -16 14 -16 23c0 27 37 43 61 43c57 0 76 -34 76 -62c0 -65 -54 -96 -88 -96c-22 0 -67 16 -67 30c0 3 1 7 5 11z" />
    <glyph glyph-name="cyrbreve" unicode="&#xf6d4;" horiz-adv-x="227" 
d="M30 603c3 1 5 2 8 2c12 0 32 -32 51 -32c32 0 67 36 67 72c0 17 -11 43 -31 43c-14 0 -29 -7 -29 -18c0 -7 5 -14 11 -24c-3 -1 -6 -1 -9 -1c-15 0 -23 11 -23 31c0 22 26 34 48 34c39 0 74 -33 74 -75c0 -39 -29 -92 -79 -92c-38 0 -82 25 -88 60z" />
    <glyph glyph-name="minus" unicode="&#x2212;" horiz-adv-x="326" 
d="M280 312c8 0 16 -5 16 -10c0 -8 -3 -13 -12 -13h-109h-21c-28 0 -85 -2 -115 -1c-7 0 -9 4 -9 9c0 6 4 14 11 14h113h21c32 0 89 1 105 1z" />
    <glyph glyph-name="macron" unicode="&#xaf;" horiz-adv-x="256" 
d="M210 701c8 0 16 -5 16 -10c0 -21 -65 -13 -91 -13h-21c-28 0 -45 -2 -75 -1c-7 0 -9 4 -9 9c0 21 51 14 84 14h21c32 0 59 1 75 1z" />
    <glyph glyph-name="hungarumlaut" unicode="&#x2dd;" horiz-adv-x="236" 
d="M106 682c-14 -23 -57 -102 -67 -102c-5 0 -9 7 -9 13c0 21 36 78 42 96c3 9 8 12 14 12c9 0 19 -8 20 -19zM206 682c-12 -20 -58 -102 -67 -102c-5 0 -9 7 -9 13c0 20 35 79 42 96c3 8 9 12 15 12c9 0 18 -8 19 -19z" />
    <glyph glyph-name="twosuperior" unicode="&#xb2;" horiz-adv-x="243" 
d="M213 369v-7v-16c-9 -2 -145 -1 -174 -1c-8 0 -9 2 -9 18c0 25 51 70 91 136c33 49 47 92 47 124c0 35 -18 57 -46 57c-56 0 -42 -83 -75 -83c-9 0 -16 9 -16 14c4 36 24 88 90 88c64 0 92 -40 92 -87c0 -88 -121 -201 -141 -231h124c17 0 17 -4 17 -12z" />
    <glyph glyph-name="threesuperior" unicode="&#xb3;" horiz-adv-x="244" 
d="M214 445c-1 -23 -11 -111 -96 -111c-39 0 -85 24 -87 53c-1 8 -1 18 -1 28c0 4 7 10 14 10c22 0 3 -80 68 -80c56 0 57 69 57 97c0 108 -99 77 -99 86c0 4 3 8 13 12c4 5 67 -5 67 86c0 37 -19 60 -37 60c-67 0 -39 -81 -64 -81c-7 0 -15 8 -15 15c0 15 16 80 79 80
c38 0 73 -27 73 -73c0 -55 -27 -78 -29 -82c5 -4 57 -23 57 -100z" />
    <glyph glyph-name="foursuperior" unicode="&#x2074;" horiz-adv-x="278" 
d="M249 478c0 0 9 -2 9 -17c0 -8 -9 -12 -9 -12h-47v-76c39 0 39 0 39 -7c0 -3 -2 -6 -5 -6c-41 0 -113 -4 -113 6s12 7 37 7v75c-53 0 -99 1 -140 1c7 16 140 236 150 251c7 8 14 12 20 12c7 0 12 -6 12 -16v-194c0 -10 -1 -16 -1 -20s1 -5 5 -5c3 0 8 1 16 1h27zM62 476
c35 2 63 0 98 2v165c-11 -20 -96 -159 -98 -167z" />
    <glyph glyph-name="fraction" unicode="&#x2044;" horiz-adv-x="370" 
d="M336 702c3 -1 4 -4 4 -7c0 -5 -3 -11 -5 -13c-19 -47 -270 -669 -275 -689c-3 -7 -8 -10 -14 -10c-8 0 -16 7 -16 18c0 3 1 7 3 11c30 75 255 621 267 645c7 15 17 46 32 46c1 0 3 -1 4 -1z" />
    <glyph glyph-name="slash" unicode="/" horiz-adv-x="370" 
d="M336 702c3 -1 4 -4 4 -7c0 -5 -3 -11 -5 -13c-19 -47 -270 -669 -275 -689c-3 -7 -8 -10 -14 -10c-8 0 -16 7 -16 18c0 3 1 7 3 11c30 75 255 621 267 645c7 15 17 46 32 46c1 0 3 -1 4 -1z" />
    <glyph glyph-name="quotesinglbase" unicode="&#x201a;" horiz-adv-x="178" 
d="M50 -75c21 23 47 35 47 68c-25 5 -42 14 -42 34c0 14 19 42 41 42c19 0 32 -24 32 -42c-4 -40 -23 -89 -78 -102z" />
    <glyph glyph-name="quotedblbase" unicode="&#x201e;" horiz-adv-x="306" 
d="M175 -69c23 23 50 36 50 69c-28 5 -45 12 -45 33c0 14 19 42 41 42c18 0 35 -19 35 -41c0 -38 -25 -89 -81 -103zM83 2c-18 4 -32 21 -32 38s17 35 42 35c17 0 38 -15 38 -41c0 -38 -25 -90 -81 -104c21 23 49 36 49 68c0 3 -10 3 -16 4z" />
    <glyph glyph-name="ellipsis" unicode="&#x2026;" horiz-adv-x="502" 
d="M81 65c16 -1 32 -15 32 -35c0 -16 -17 -34 -33 -34c-20 0 -30 15 -30 37s11 32 31 32zM251 -4c-16 1 -32 15 -32 35c0 16 17 34 33 34c20 0 30 -15 30 -37s-11 -32 -31 -32zM421 -4c-16 1 -32 15 -32 35c0 16 17 34 33 34c20 0 30 -15 30 -37s-11 -32 -31 -32z" />
    <glyph glyph-name="uni20BD" unicode="&#x20bd;" horiz-adv-x="538" 
d="M498 507c-5 -183 -209 -199 -294 -199c-14 0 -25 1 -31 1v-73l157 1c6 0 13 -6 13 -14c0 -20 5 -14 -170 -14v-185h6h1h29c6 0 13 -6 13 -12c0 -8 -7 -13 -13 -13h1s-1 -1 -2 -1v1h-28c-22 0 -54 0 -83 -1v1h-15c-8 0 -14 4 -14 13c0 6 6 12 14 12h28v0h6c1 25 1 51 1 78
c0 35 -1 72 -1 107h-73c-7 0 -13 6 -13 14s6 13 13 13h73v56v15c-84 0 -86 -5 -86 15c0 7 5 13 10 13h76v206v107h1c-1 7 -1 14 -1 21h-6v0h-28c-8 0 -14 5 -14 12s6 14 14 14h15c17 0 80 1 131 1c25 0 48 0 60 -1c34 -1 210 -15 210 -188zM173 646v-71v-243
c36 0 257 -4 257 209c0 93 -83 134 -194 134c-20 0 -41 -2 -61 -6c-3 2 -2 -21 -2 -23z" />
    <glyph glyph-name="commaaccent" unicode="&#xf6c3;" horiz-adv-x="138" 
d="M30 -234c21 23 47 35 47 68c-25 5 -42 14 -42 34c0 14 19 42 41 42c19 0 32 -24 32 -42c-4 -40 -23 -89 -78 -102z" />
    <glyph glyph-name="ogonek" unicode="&#x2db;" horiz-adv-x="172" 
d="M138 -151c-12 -8 -27 -13 -42 -13c-46 0 -66 32 -66 59c0 42 38 93 88 105h24c-30 -3 -80 -61 -80 -94c0 -21 14 -37 38 -37c14 0 28 5 38 16v-36z" />
    <glyph glyph-name="cedilla" unicode="&#xb8;" horiz-adv-x="187" 
d="M68 -68l31 68h23l-27 -58c32 0 62 -24 62 -64c0 -33 -31 -58 -72 -58c-26 0 -55 18 -55 34c0 6 5 11 16 17c9 -17 25 -28 42 -28c21 0 38 18 38 37c0 25 -16 37 -39 37c-5 0 -10 0 -15 -1c-4 4 -6 8 -6 11c0 2 1 3 2 5z" />
    <glyph glyph-name="tilde" unicode="&#x2dc;" horiz-adv-x="267" 
d="M30 637c31 28 45 41 76 41c27 0 54 -22 76 -22c16 0 30 8 51 19c3 -3 4 -6 4 -9c0 -20 -66 -44 -74 -44c-29 0 -54 26 -79 26c-16 0 -31 -14 -44 -14c-3 0 -6 0 -10 3z" />
    <glyph glyph-name=".null" horiz-adv-x="0" 
 />
    <glyph glyph-name=".null" horiz-adv-x="0" 
 />
    <glyph glyph-name="CR" unicode="&#xd;" horiz-adv-x="0" 
 />
    <glyph glyph-name="uni1E9E" unicode="&#x1e9e;" horiz-adv-x="497" 
d="M314 400c6 -2 133 -24 133 -216c0 -97 -77 -206 -184 -206c-10 0 -16 5 -20 22c8 2 136 10 136 182c0 155 -72 202 -104 202c-12 0 -24 -13 -37 -17v5c0 15 8 22 15 30c54 61 77 134 77 216c0 39 -12 83 -45 83c-139 0 -152 -201 -152 -300c0 -21 1 -38 1 -48v-47v-152
c0 -40 -1 -48 -1 -98c0 -12 1 -25 1 -35h23c7 0 13 -5 13 -11s-6 -10 -13 -10c-35 0 -117 -6 -117 10c0 6 6 11 12 11h22c0 34 -1 95 -1 145c0 26 0 48 1 63c2 65 2 230 16 317c4 28 44 182 178 182c25 0 110 3 110 -166c0 -60 -24 -114 -64 -162z" />
    <glyph glyph-name="foundryicon" horiz-adv-x="1230" 
d="M100 -110v920h1030v-920h-1030zM1110 -90v880h-990v-880h990zM635 610h110c50 0 80 -30 80 -65s-30 -65 -80 -65h-55v-80h-55v210zM635 300h110c50 0 80 -30 80 -65s-30 -65 -80 -65h-55v-80h-55v210zM495 170l-75 130h60l40 -75h5l40 75h65l-80 -130v-80h-55v80z
M495 480l-75 130h60l40 -75h5l40 75h65l-80 -130v-80h-55v80zM300 255h-65v45h165l25 -45h-70v-165h-55v165zM300 565h-65v45h165l25 -45h-70v-165h-55v165zM790 400v65c25 5 55 30 60 60h80v-45h-85v-35h120v-45h-175zM790 90v65c25 5 55 30 60 60h80v-45h-85v-35h120v-45
h-175zM810 300h155v-45h-115c-5 20 -20 40 -40 45zM810 610h155v-45h-115c-5 20 -20 40 -40 45zM765 545c0 10 -10 20 -20 20h-55v-40h55c10 0 20 9 20 20zM765 235c0 10 -10 20 -20 20h-55v-40h55c10 0 20 9 20 20z" />
    <glyph glyph-name="quoteleft" unicode="&#x2018;" horiz-adv-x="181" 
d="M131 701c-22 -26 -48 -38 -48 -70c26 -5 43 -12 43 -34c0 -17 -22 -42 -40 -42c-21 0 -36 19 -36 38c0 40 23 93 81 108z" />
    <glyph glyph-name="dagger" unicode="&#x2020;" horiz-adv-x="366" 
d="M300 501c8 0 16 -5 16 -10c0 -8 -3 -13 -12 -13h-104c-2 -185 -2 -420 -2 -533v-58c0 -22 -7 -36 -24 -36c-6 0 -7 10 -7 21c0 9 1 19 1 24c-2 53 -3 133 -3 223c0 116 2 248 4 359c-29 0 -82 -2 -110 -1c-7 0 -9 4 -9 9c0 6 4 14 11 14h108c1 85 3 155 3 192
c0 27 -2 51 12 51c16 0 20 -22 20 -27c-2 -37 -3 -118 -4 -216c33 0 85 1 100 1z" />
    <glyph glyph-name="daggerdbl" unicode="&#x2021;" horiz-adv-x="366" 
d="M66 93c-8 0 -16 5 -16 10c0 8 3 13 12 13h103v3c0 116 2 248 4 359c-29 0 -82 -2 -110 -1c-7 0 -9 4 -9 9c0 6 4 14 11 14h108c1 85 3 155 3 192c0 27 -2 51 12 51c16 0 20 -22 20 -27c-2 -37 -3 -118 -4 -216c33 0 85 1 100 1c8 0 16 -5 16 -10c0 -8 -3 -13 -12 -13
h-104c-2 -118 -2 -248 -2 -362l109 1c7 0 9 -4 9 -9c0 -6 -4 -14 -11 -14l-107 -1v-148v-58c0 -22 -7 -36 -24 -36c-6 0 -7 10 -7 21c0 9 1 19 1 24c-2 48 -3 118 -3 197h-99z" />
    <glyph glyph-name="afii10052" unicode="&#x403;" horiz-adv-x="405" 
d="M375 700c18 0 26 -4 30 -13c-4 -41 -9 -71 -12 -104c-29 0 -31 2 -33 25c-2 17 -2 70 -12 70c-25 1 -129 2 -170 2c-19 0 -21 -7 -21 -28c0 -23 -1 -178 -1 -328s0 -295 1 -298h34c7 0 14 -6 14 -14s-7 -14 -14 -14h-129c-7 0 -12 6 -12 14c0 19 23 14 49 14v476v168
c-27 0 -48 -5 -48 13c0 8 4 14 11 14h30c35 0 226 -3 283 3zM320 852c-19 -32 -62 -104 -85 -104c-7 0 -11 10 -11 16c0 20 32 74 42 95c4 10 14 15 24 15c12 0 24 -7 30 -22z" />
    <glyph glyph-name="afii10061" unicode="&#x40c;" horiz-adv-x="496" 
d="M99 297v250v126h-7v0h-27c-9 0 -15 6 -15 13c0 8 6 14 15 14h16h82h28h3h-1c6 0 12 -6 12 -14s-6 -13 -12 -13h-30h-1h-6v-94c0 -33 -1 -34 -1 -50c0 -14 1 -29 1 -43c0 -9 -1 -17 -1 -26c0 -20 12 -17 25 -17c73 0 109 102 130 174c11 40 51 90 94 90
c38 0 66 -47 66 -80c0 -19 -19 -41 -33 -41c-6 0 -9 7 -9 11c0 6 5 16 5 24c0 33 -25 58 -45 58c-51 -1 -90 -138 -114 -199c-6 -16 -24 -34 -37 -52c7 -3 10 -4 14 -5c71 -18 111 -65 128 -136c17 -74 -6 -251 92 -263c15 -2 34 -5 45 -19c-9 -9 -15 -8 -24 -8
c-56 0 -99 30 -121 83c-16 37 -20 77 -30 116c-23 116 -51 210 -164 210c-3 0 -13 -1 -21 -1v-225v-151h6h1h30c6 0 12 -6 12 -14c0 -7 -6 -14 -12 -14h1h-3h-28h-82h-16c-9 0 -15 7 -15 14c0 8 6 14 15 14h27v0h7c1 28 1 58 1 88c0 60 -1 123 -1 180zM346 852
c-19 -32 -62 -104 -85 -104c-7 0 -11 10 -11 16c0 20 32 74 42 95c4 10 14 15 24 15c12 0 24 -7 30 -22z" />
    <glyph glyph-name="afii10100" unicode="&#x453;" horiz-adv-x="363" 
d="M43 23c15 3 31 6 50 10v443c-16 1 -63 3 -63 9c0 16 7 22 18 22c106 0 207 -2 312 -2c2 -26 2 -49 3 -75c-13 2 -24 3 -38 5c-1 13 -4 28 -6 42c-19 5 -39 7 -59 7c-36 0 -74 -5 -103 -7c-15 -1 -16 -6 -16 -22c0 -44 2 -115 2 -186c0 -107 -1 -214 -1 -230
c17 -4 32 -6 47 -10c0 -24 -4 -29 -24 -29c-22 0 -44 3 -63 3c-16 0 -34 -3 -46 -3c-11 0 -13 7 -13 23zM289 662c-19 -32 -62 -104 -85 -104c-7 0 -11 10 -11 16c0 20 32 74 42 95c4 10 14 15 24 15c12 0 24 -7 30 -22z" />
    <glyph glyph-name="afii10109" unicode="&#x45c;" horiz-adv-x="424" 
d="M424 41c-5 -30 -15 -41 -39 -41c-26 0 -52 14 -62 38c-18 44 -37 87 -53 134c-12 35 -40 78 -93 79c-18 0 -29 -13 -29 -35c0 -43 -2 -87 -2 -129c0 -17 2 -35 2 -54c25 0 54 6 54 -14c0 -17 -15 -23 -27 -23c-18 4 -36 6 -54 6c-21 0 -43 -2 -64 -5c-6 7 -10 14 -17 27
c21 3 38 5 57 9c4 95 8 189 8 284c0 55 -2 110 -4 166c-22 -1 -39 -2 -58 -3v29c12 0 23 -1 35 -1c35 0 68 3 100 3c18 0 22 -6 25 -27c-18 -1 -34 -2 -52 -3c-3 -72 -5 -140 -7 -213c25 6 51 3 62 28c9 20 15 40 21 61c22 61 28 158 97 158c33 0 58 -24 58 -57
s-14 -49 -23 -49c-5 0 -11 1 -20 2c5 17 7 27 7 41c0 22 -8 36 -29 36c-35 0 -38 -63 -43 -97c-5 -38 -13 -75 -33 -111c0 -1 1 -1 1 -1c79 -41 78 -115 97 -201c7 -32 17 -46 39 -46c13 0 24 6 46 9zM310 662c-19 -32 -62 -104 -85 -104c-7 0 -11 10 -11 16
c0 20 32 74 42 95c4 10 14 15 24 15c12 0 24 -7 30 -22z" />
    <glyph glyph-name="afii10062" unicode="&#x40e;" horiz-adv-x="510" 
d="M496 696c8 -1 14 -7 14 -15c0 -7 -6 -12 -14 -12h-28h-1h-26c1 -3 -43 -175 -63 -253c-32 -124 -61 -237 -131 -341c-13 -20 -56 -81 -121 -81c-43 0 -93 27 -93 83c0 19 1 48 27 48c15 0 21 -6 21 -20c0 -11 -3 -25 -3 -38c0 -33 15 -52 48 -52c48 0 76 40 83 49
c35 47 58 98 79 154c1 2 1 4 1 7c0 5 -1 10 -4 14c-27 55 -57 111 -88 165c-27 61 -57 116 -86 172c-8 15 -44 90 -44 93h-5h-1h-29c-6 0 -12 5 -12 13c0 7 6 14 12 14h18c26 0 58 0 81 -1c0 0 0 1 1 1h27h3h-1c6 -1 12 -7 12 -15c0 -7 -6 -12 -12 -12h-4h-1h-25
c0 -4 123 -243 180 -358c19 25 103 354 103 358h-16v0h-30c-8 0 -12 5 -12 13c0 7 4 14 12 14h17c28 0 59 0 82 -1c1 0 1 1 1 1h26h3h-1zM202 788c14 -7 29 -15 46 -15c33 0 66 24 66 60c0 18 -27 40 -44 40c-16 0 -29 -17 -39 -34c-11 6 -16 14 -16 23c0 27 37 43 61 43
c57 0 76 -34 76 -62c0 -65 -54 -96 -88 -96c-22 0 -67 16 -67 30c0 3 1 7 5 11z" />
    <glyph glyph-name="afii10110" unicode="&#x45e;" horiz-adv-x="457" 
d="M258 104c30 126 73 247 98 378c-21 1 -72 -2 -72 11c0 21 35 15 55 15c28 0 56 4 88 4c9 0 18 -1 30 -2c-2 -16 -6 -21 -18 -21c-6 0 -17 2 -24 2c-21 0 -22 -11 -30 -38c-20 -69 -40 -136 -61 -206c-98 -422 -181 -471 -208 -471c-13 0 -9 21 -10 33c0 21 5 39 25 53
c55 37 86 89 100 149c0 8 -1 16 -3 23c-53 133 -102 270 -148 401c-5 14 -11 28 -18 42c-8 0 -15 -1 -22 -1c-15 0 -40 1 -40 18c0 18 42 13 64 13h99c2 -9 3 -14 3 -18c0 -11 -21 -12 -52 -12c39 -130 91 -251 144 -373zM166 598c14 -7 29 -15 46 -15c33 0 66 24 66 60
c0 18 -27 40 -44 40c-16 0 -29 -17 -39 -34c-11 6 -16 14 -16 23c0 27 37 43 61 43c57 0 76 -34 76 -62c0 -65 -54 -96 -88 -96c-22 0 -67 16 -67 30c0 3 1 7 5 11z" />
    <glyph glyph-name="afii10057" unicode="&#x408;" horiz-adv-x="287" 
d="M224 700c7 0 13 -7 13 -15s-6 -14 -13 -14h-28h-1h-6v-623c0 -89 -22 -116 -36 -133c-33 -40 -71 -64 -121 -64c-33 0 -92 16 -92 56c0 10 12 26 25 26c7 0 14 -6 21 -17c13 -22 37 -34 60 -34c55 0 85 56 85 108c0 20 -1 674 -1 681h-6v0h-28c-8 0 -13 6 -13 14
c0 9 5 15 13 15h17h83h26h3h-1z" />
    <glyph glyph-name="afii10055" unicode="&#x406;" horiz-adv-x="254" 
d="M191 27c7 0 13 -6 13 -13s-6 -14 -13 -14v0c1 0 -2 0 -3 0h-27h-83h-16c-7 0 -12 7 -12 13c0 8 5 14 12 14h28h1h6c1 28 1 108 1 202c0 189 -1 436 -1 440h-6h-1h-28c-7 0 -12 6 -12 14c0 9 5 15 12 15h16c27 0 62 -1 83 -1v1h27h3v-1c7 0 13 -5 13 -14
c0 -8 -6 -14 -13 -14h-30v0h-6v-642h6v0h30z" />
    <glyph glyph-name="afii10103" unicode="&#x456;" horiz-adv-x="235" 
d="M147 17h11h20c5 0 14 2 14 -8c0 -13 -59 -9 -80 -9c-15 0 -70 -5 -70 8c0 12 27 8 42 9v466h-10h-18c-10 0 -16 1 -16 11c0 7 4 9 11 9c4 0 10 -1 16 -1c37 1 76 2 114 2c10 0 14 -4 14 -9s-3 -9 -8 -12h-40c-1 -50 -1 -103 -1 -155c0 -105 1 -212 1 -311zM110 566
c-21 1 -33 14 -33 34c0 26 18 45 44 45c27 0 36 -8 36 -34c0 -27 -23 -45 -47 -45z" />
    <glyph glyph-name="afii10056" unicode="&#x407;" horiz-adv-x="248" 
d="M188 27c7 0 13 -6 13 -13s-6 -14 -13 -14v0c1 0 -2 0 -3 0h-27h-83h-16c-7 0 -12 7 -12 13c0 8 5 14 12 14h28h1h6c1 28 1 108 1 202c0 189 -1 436 -1 440h-6h-1h-28c-7 0 -12 6 -12 14c0 9 5 15 12 15h16c27 0 62 -1 83 -1v1h27h3v-1c7 0 13 -5 13 -14
c0 -8 -6 -14 -13 -14h-30v0h-6v-642h6v0h30zM193 765c-15 0 -35 15 -35 33c0 25 29 44 57 44c14 0 33 -23 33 -31c0 -20 -36 -45 -55 -46zM16 780c-11 6 -16 18 -16 29c0 30 26 27 37 31c25 -1 37 -12 37 -30c0 -19 -25 -35 -42 -35c-5 0 -10 1 -16 5z" />
    <glyph glyph-name="afii10105" unicode="&#x458;" horiz-adv-x="242" 
d="M202 489c0 -6 -12 -7 -24 -7c-13 0 -16 1 -20 1h-8c-2 0 -5 0 -8 1v-33v-314c0 -85 -1 -160 -1 -190c-2 -154 -97 -172 -136 -172c-52 0 -125 40 -125 112c0 18 9 34 22 36c47 0 13 -125 99 -125c85 0 78 110 80 173c1 36 1 94 1 153c0 153 -1 224 -1 227
c0 35 1 82 1 110c0 12 -1 20 -1 22c-9 -2 -27 -2 -45 -2c-9 2 -12 6 -12 11s6 10 15 10h3c5 1 13 1 23 1c19 0 46 -1 68 -1c10 0 20 0 27 1c27 0 42 1 42 -14zM108 567c-26 0 -39 11 -39 34s25 44 50 44c16 0 33 -18 33 -32c0 -24 -19 -46 -44 -46z" />
    <glyph glyph-name="afii10054" unicode="&#x405;" horiz-adv-x="428" 
d="M280 593c-8 25 4 80 -78 80c-48 0 -101 -59 -101 -123c0 -57 38 -87 75 -108c47 -23 91 -52 127 -90c34 -36 75 -82 75 -188v-21c-1 -38 -32 -156 -177 -156c-77 4 -171 44 -171 124c0 13 13 30 27 30c10 0 25 -10 28 -24c14 -58 82 -105 125 -105c59 0 108 56 108 127
c0 116 -96 179 -182 256c-29 26 -71 67 -71 141c0 82 59 175 153 175c41 0 105 -27 105 -100c0 -12 -13 -25 -26 -25c-5 0 -11 2 -17 7z" />
    <glyph glyph-name="afii10102" unicode="&#x455;" horiz-adv-x="360" 
d="M64 17c-6 -9 -8 -17 -18 -17c-16 0 -11 62 -11 79c0 8 -1 22 9 22c28 0 40 -39 60 -55c21 -24 46 -34 69 -34c51 0 96 49 96 104c0 58 -49 107 -170 149c-41 14 -69 66 -69 117c0 56 39 122 140 122c11 0 24 -1 36 -1h17h36c6 -12 8 -28 8 -43c0 -16 4 -26 -21 -37
c-1 0 -10 7 -10 12v5c0 37 -30 47 -62 47c-79 0 -93 -69 -93 -94c0 -15 -9 -75 123 -104c10 -4 116 -35 116 -167c0 -96 -79 -127 -153 -127c-41 0 -79 9 -103 22z" />
    <glyph glyph-name="afii10104" unicode="&#x457;" horiz-adv-x="248" 
d="M153 17h11h20c5 0 14 2 14 -8c0 -13 -59 -9 -80 -9c-15 0 -70 -5 -70 8c0 12 27 8 42 9v466h-10h-18c-10 0 -16 1 -16 11c0 7 4 9 11 9c4 0 10 -1 16 -1c37 1 76 2 114 2c10 0 14 -4 14 -9s-3 -9 -8 -12h-40c-1 -50 -1 -103 -1 -155c0 -105 1 -212 1 -311zM193 565
c-15 0 -35 15 -35 33c0 25 29 44 57 44c14 0 33 -23 33 -31c0 -20 -36 -45 -55 -46zM16 580c-11 6 -16 18 -16 29c0 30 26 27 37 31c25 -1 37 -12 37 -30c0 -19 -25 -35 -42 -35c-5 0 -10 1 -16 5z" />
    <glyph glyph-name="Agrave" unicode="&#xc0;" 
d="M504 16c0 -7 -6 -14 -13 -14h1h-3h-28h-81h-15c-8 0 -16 7 -16 14s8 13 15 13h33c-10 32 -51 173 -60 211c0 0 -1 1 -1 2h-186c-6 -2 -57 -185 -62 -213c19 -2 39 6 39 -13c0 -7 -5 -14 -10 -14v0h-3h-23h-66h-14c-7 0 -11 7 -11 14s4 13 11 13h16c14 0 31 0 32 2
c7 4 183 645 190 669c2 5 9 10 12 10c5 0 12 -7 13 -14c10 -39 172 -634 179 -667h3h36c7 0 12 -6 12 -13zM241 595c-30 -109 -59 -214 -87 -324c58 0 116 1 178 1c-30 110 -59 212 -88 323h-3zM174 852c6 15 18 22 30 22c24 0 52 -66 65 -106c0 -1 1 -3 1 -4
c0 -6 -4 -16 -11 -16c-23 0 -66 72 -85 104z" />
    <glyph glyph-name="Aacute" unicode="&#xc1;" 
d="M504 16c0 -7 -6 -14 -13 -14h1h-3h-28h-81h-15c-8 0 -16 7 -16 14s8 13 15 13h33c-10 32 -51 173 -60 211c0 0 -1 1 -1 2h-186c-6 -2 -57 -185 -62 -213c19 -2 39 6 39 -13c0 -7 -5 -14 -10 -14v0h-3h-23h-66h-14c-7 0 -11 7 -11 14s4 13 11 13h16c14 0 31 0 32 2
c7 4 183 645 190 669c2 5 9 10 12 10c5 0 12 -7 13 -14c10 -39 172 -634 179 -667h3h36c7 0 12 -6 12 -13zM241 595c-30 -109 -59 -214 -87 -324c58 0 116 1 178 1c-30 110 -59 212 -88 323h-3zM350 852c-19 -32 -62 -104 -85 -104c-7 0 -11 10 -11 16c0 20 32 74 42 95
c4 10 14 15 24 15c12 0 24 -7 30 -22z" />
    <glyph glyph-name="Abreve" unicode="&#x102;" 
d="M504 16c0 -7 -6 -14 -13 -14h1h-3h-28h-81h-15c-8 0 -16 7 -16 14s8 13 15 13h33c-10 32 -51 173 -60 211c0 0 -1 1 -1 2h-186c-6 -2 -57 -185 -62 -213c19 -2 39 6 39 -13c0 -7 -5 -14 -10 -14v0h-3h-23h-66h-14c-7 0 -11 7 -11 14s4 13 11 13h16c14 0 31 0 32 2
c7 4 183 645 190 669c2 5 9 10 12 10c5 0 12 -7 13 -14c10 -39 172 -634 179 -667h3h36c7 0 12 -6 12 -13zM241 595c-30 -109 -59 -214 -87 -324c58 0 116 1 178 1c-30 110 -59 212 -88 323h-3zM189 788c14 -7 29 -15 46 -15c33 0 66 24 66 60c0 18 -27 40 -44 40
c-16 0 -29 -17 -39 -34c-11 6 -16 14 -16 23c0 27 37 43 61 43c57 0 76 -34 76 -62c0 -65 -54 -96 -88 -96c-22 0 -67 16 -67 30c0 3 1 7 5 11z" />
    <glyph glyph-name="Acircumflex" unicode="&#xc2;" 
d="M504 16c0 -7 -6 -14 -13 -14h1h-3h-28h-81h-15c-8 0 -16 7 -16 14s8 13 15 13h33c-10 32 -51 173 -60 211c0 0 -1 1 -1 2h-186c-6 -2 -57 -185 -62 -213c19 -2 39 6 39 -13c0 -7 -5 -14 -10 -14v0h-3h-23h-66h-14c-7 0 -11 7 -11 14s4 13 11 13h16c14 0 31 0 32 2
c7 4 183 645 190 669c2 5 9 10 12 10c5 0 12 -7 13 -14c10 -39 172 -634 179 -667h3h36c7 0 12 -6 12 -13zM241 595c-30 -109 -59 -214 -87 -324c58 0 116 1 178 1c-30 110 -59 212 -88 323h-3zM258 812c-19 -19 -32 -61 -50 -61c-4 0 -17 7 -17 16c0 0 59 95 66 103
c5 -5 69 -87 74 -95c1 -2 2 -4 2 -7c0 -6 -4 -14 -13 -14c-15 0 -45 43 -62 58z" />
    <glyph glyph-name="Adieresis" unicode="&#xc4;" 
d="M504 16c0 -7 -6 -14 -13 -14h1h-3h-28h-81h-15c-8 0 -16 7 -16 14s8 13 15 13h33c-10 32 -51 173 -60 211c0 0 -1 1 -1 2h-186c-6 -2 -57 -185 -62 -213c19 -2 39 6 39 -13c0 -7 -5 -14 -10 -14v0h-3h-23h-66h-14c-7 0 -11 7 -11 14s4 13 11 13h16c14 0 31 0 32 2
c7 4 183 645 190 669c2 5 9 10 12 10c5 0 12 -7 13 -14c10 -39 172 -634 179 -667h3h36c7 0 12 -6 12 -13zM241 595c-30 -109 -59 -214 -87 -324c58 0 116 1 178 1c-30 110 -59 212 -88 323h-3zM341 765c-15 0 -35 15 -35 33c0 25 29 44 57 44c14 0 33 -23 33 -31
c0 -20 -36 -45 -55 -46zM164 780c-11 6 -16 18 -16 29c0 30 26 27 37 31c25 -1 37 -12 37 -30c0 -19 -25 -35 -42 -35c-5 0 -10 1 -16 5z" />
    <glyph glyph-name="Amacron" unicode="&#x100;" 
d="M504 16c0 -7 -6 -14 -13 -14h1h-3h-28h-81h-15c-8 0 -16 7 -16 14s8 13 15 13h33c-10 32 -51 173 -60 211c0 0 -1 1 -1 2h-186c-6 -2 -57 -185 -62 -213c19 -2 39 6 39 -13c0 -7 -5 -14 -10 -14v0h-3h-23h-66h-14c-7 0 -11 7 -11 14s4 13 11 13h16c14 0 31 0 32 2
c7 4 183 645 190 669c2 5 9 10 12 10c5 0 12 -7 13 -14c10 -39 172 -634 179 -667h3h36c7 0 12 -6 12 -13zM241 595c-30 -109 -59 -214 -87 -324c58 0 116 1 178 1c-30 110 -59 212 -88 323h-3zM344 811c8 0 16 -5 16 -10c0 -21 -65 -13 -91 -13h-21c-28 0 -45 -2 -75 -1
c-7 0 -9 4 -9 9c0 21 51 14 84 14h21c32 0 59 1 75 1z" />
    <glyph glyph-name="Aogonek" unicode="&#x104;" 
d="M460 -145c-12 -8 -27 -13 -42 -13c-46 0 -66 32 -66 59c0 38 31 84 75 101h-62c-8 0 -16 7 -16 14s8 13 15 13h33c-10 32 -51 173 -60 211c0 0 -1 1 -1 2h-186c-6 -2 -57 -185 -62 -213c19 -2 39 6 39 -13c0 -7 -5 -14 -10 -14h-106c-7 0 -11 7 -11 14s4 13 11 13h16
c14 0 31 0 32 2c7 4 183 645 190 669c2 5 9 10 12 10c5 0 12 -7 13 -14c10 -39 172 -634 179 -667h39c7 0 12 -6 12 -13s-6 -14 -12 -14h-41c-30 -14 -67 -61 -67 -90c0 -21 14 -37 38 -37c14 0 28 5 38 16v-36zM241 595c-30 -109 -59 -214 -87 -324c58 0 116 1 178 1
c-30 110 -59 212 -88 323h-3z" />
    <glyph glyph-name="Aring" unicode="&#xc5;" 
d="M504 16c0 -7 -6 -14 -13 -14h1h-3h-28h-81h-15c-8 0 -16 7 -16 14s8 13 15 13h33c-10 32 -51 173 -60 211c0 0 -1 1 -1 2h-186c-6 -2 -57 -185 -62 -213c19 -2 39 6 39 -13c0 -7 -5 -14 -10 -14v0h-3h-23h-66h-14c-7 0 -11 7 -11 14s4 13 11 13h16c14 0 31 0 32 2
c7 4 183 645 190 669c2 5 9 10 12 10c5 0 12 -7 13 -14c10 -39 172 -634 179 -667h3h36c7 0 12 -6 12 -13zM241 595c-30 -109 -59 -214 -87 -324c58 0 116 1 178 1c-30 110 -59 212 -88 323h-3zM192 823c1 47 36 72 73 72c36 0 67 -25 67 -72c0 -45 -37 -70 -73 -70
c-37 0 -66 25 -67 70zM305 824c0 20 -12 49 -43 49s-43 -29 -43 -49s12 -49 43 -49s43 29 43 49z" />
    <glyph glyph-name="Atilde" unicode="&#xc3;" 
d="M504 16c0 -7 -6 -14 -13 -14h1h-3h-28h-81h-15c-8 0 -16 7 -16 14s8 13 15 13h33c-10 32 -51 173 -60 211c0 0 -1 1 -1 2h-186c-6 -2 -57 -185 -62 -213c19 -2 39 6 39 -13c0 -7 -5 -14 -10 -14v0h-3h-23h-66h-14c-7 0 -11 7 -11 14s4 13 11 13h16c14 0 31 0 32 2
c7 4 183 645 190 669c2 5 9 10 12 10c5 0 12 -7 13 -14c10 -39 172 -634 179 -667h3h36c7 0 12 -6 12 -13zM241 595c-30 -109 -59 -214 -87 -324c58 0 116 1 178 1c-30 110 -59 212 -88 323h-3zM158 787c31 28 45 41 76 41c27 0 54 -22 76 -22c16 0 30 8 51 19
c3 -3 4 -6 4 -9c0 -20 -66 -44 -74 -44c-29 0 -54 26 -79 26c-16 0 -31 -14 -44 -14c-3 0 -6 0 -10 3z" />
    <glyph glyph-name="Cacute" unicode="&#x106;" horiz-adv-x="425" 
d="M137 588l-9 -308c0 -6 -1 -16 -1 -29c0 -73 9 -231 97 -231c41 0 92 33 95 77c2 38 -4 89 24 89c20 0 26 -18 26 -40c0 -59 -30 -159 -143 -159c-102 0 -146 58 -146 309c0 88 5 265 11 303c10 70 51 112 146 112c99 0 136 -54 138 -134c0 0 0 -19 -21 -19
c-41 0 9 133 -120 133c-62 -2 -91 -39 -97 -103zM310 862c-19 -32 -62 -104 -85 -104c-7 0 -11 10 -11 16c0 20 32 74 42 95c4 10 14 15 24 15c12 0 24 -7 30 -22z" />
    <glyph glyph-name="Ccaron" unicode="&#x10c;" horiz-adv-x="425" 
d="M137 588l-9 -308c0 -6 -1 -16 -1 -29c0 -73 9 -231 97 -231c41 0 92 33 95 77c2 38 -4 89 24 89c20 0 26 -18 26 -40c0 -59 -30 -159 -143 -159c-102 0 -146 58 -146 309c0 88 5 265 11 303c10 70 51 112 146 112c99 0 136 -54 138 -134c0 0 0 -19 -21 -19
c-41 0 9 133 -120 133c-62 -2 -91 -39 -97 -103zM228 808c17 15 47 58 62 58c9 0 13 -8 13 -14c0 -3 -1 -6 -2 -7c-5 -8 -69 -90 -74 -95c-7 8 -66 103 -66 103c0 12 16 16 17 16c18 0 31 -43 50 -61z" />
    <glyph glyph-name="Ccedilla" unicode="&#xc7;" horiz-adv-x="425" 
d="M197 -68l25 55c-99 2 -142 61 -142 309c0 88 5 265 11 303c10 70 51 112 146 112c99 0 136 -54 138 -134c0 0 0 -19 -21 -19c-41 0 9 133 -120 133c-62 -2 -91 -39 -97 -103l-9 -308c0 -6 -1 -16 -1 -29c0 -73 9 -231 97 -231c41 0 92 33 95 77c2 38 -4 89 24 89
c20 0 26 -18 26 -40c0 -56 -27 -147 -124 -158l-21 -46c32 0 62 -24 62 -64c0 -33 -31 -58 -72 -58c-26 0 -55 18 -55 34c0 6 5 11 16 17c9 -17 25 -28 42 -28c21 0 38 18 38 37c0 25 -16 37 -39 37c-5 0 -10 0 -15 -1c-4 4 -6 8 -6 11c0 2 1 3 2 5z" />
    <glyph glyph-name="Ccircumflex" unicode="&#x108;" horiz-adv-x="425" 
d="M137 588l-9 -308c0 -6 -1 -16 -1 -29c0 -73 9 -231 97 -231c41 0 92 33 95 77c2 38 -4 89 24 89c20 0 26 -18 26 -40c0 -59 -30 -159 -143 -159c-102 0 -146 58 -146 309c0 88 5 265 11 303c10 70 51 112 146 112c99 0 136 -54 138 -134c0 0 0 -19 -21 -19
c-41 0 9 133 -120 133c-62 -2 -91 -39 -97 -103zM228 822c-19 -19 -32 -61 -50 -61c-4 0 -17 7 -17 16c0 0 59 95 66 103c5 -5 69 -87 74 -95c1 -2 2 -4 2 -7c0 -6 -4 -14 -13 -14c-15 0 -45 43 -62 58z" />
    <glyph glyph-name="Dcaron" unicode="&#x10e;" 
d="M444 359c0 -248 -58 -339 -155 -351c-62 -8 -109 -9 -123 -9h-87h-16c-8 0 -13 6 -13 14c0 7 5 13 13 13h27v0h7c0 22 1 44 1 68c0 52 -1 106 -1 158v40v249v106h1c0 9 0 16 -1 22h-7v0h-27c-8 0 -13 6 -13 14s5 13 13 13h16h103c29 0 82 -2 126 -14
c49 -14 134 -81 136 -323zM359 120c27 67 29 144 29 206c0 17 -7 194 -33 259c-22 48 -57 89 -137 89c-33 0 -63 -5 -63 -5v-93v-30v-331v-167c0 -10 -17 -24 33 -24s140 12 171 96zM228 808c17 15 47 58 62 58c9 0 13 -8 13 -14c0 -3 -1 -6 -2 -7c-5 -8 -69 -90 -74 -95
c-7 8 -66 103 -66 103c0 12 16 16 17 16c18 0 31 -43 50 -61z" />
    <glyph glyph-name="Egrave" unicode="&#xc8;" horiz-adv-x="446" 
d="M362 91c2 20 5 25 25 25c12 0 15 -78 19 -104c-3 -7 -11 -13 -26 -13c-3 0 -37 4 -39 4c-56 -3 -81 -4 -162 -4c-133 0 -128 -3 -128 16c0 17 23 13 50 13v643c-27 0 -50 -5 -50 14c0 8 6 14 14 14h2c35 1 78 1 120 1c83 0 162 -1 162 -1c12 1 23 1 34 1
c13 0 20 -5 23 -12c-4 -30 -7 -105 -20 -105c-18 0 -23 4 -24 24c-5 85 11 66 -132 66c-29 0 -57 -1 -73 -2v-250h140c0 16 -1 30 16 30c29 0 27 -21 27 -43c0 -35 -6 -38 -20 -38c-30 0 -15 11 -23 32c-16 1 -33 1 -51 1h-57h-32c0 -62 -2 -105 -2 -183
c0 -87 1 -184 3 -193c32 0 82 -1 124 -1s75 1 76 3c1 21 3 41 4 62zM165 852c6 15 18 22 30 22c24 0 52 -66 65 -106c0 -1 1 -3 1 -4c0 -6 -4 -16 -11 -16c-23 0 -66 72 -85 104z" />
    <glyph glyph-name="Eacute" unicode="&#xc9;" horiz-adv-x="446" 
d="M362 91c2 20 5 25 25 25c12 0 15 -78 19 -104c-3 -7 -11 -13 -26 -13c-3 0 -37 4 -39 4c-56 -3 -81 -4 -162 -4c-133 0 -128 -3 -128 16c0 17 23 13 50 13v643c-27 0 -50 -5 -50 14c0 8 6 14 14 14h2c35 1 78 1 120 1c83 0 162 -1 162 -1c12 1 23 1 34 1
c13 0 20 -5 23 -12c-4 -30 -7 -105 -20 -105c-18 0 -23 4 -24 24c-5 85 11 66 -132 66c-29 0 -57 -1 -73 -2v-250h140c0 16 -1 30 16 30c29 0 27 -21 27 -43c0 -35 -6 -38 -20 -38c-30 0 -15 11 -23 32c-16 1 -33 1 -51 1h-57h-32c0 -62 -2 -105 -2 -183
c0 -87 1 -184 3 -193c32 0 82 -1 124 -1s75 1 76 3c1 21 3 41 4 62zM331 852c-19 -32 -62 -104 -85 -104c-7 0 -11 10 -11 16c0 20 32 74 42 95c4 10 14 15 24 15c12 0 24 -7 30 -22z" />
    <glyph glyph-name="Ecaron" unicode="&#x11a;" horiz-adv-x="446" 
d="M362 91c2 20 5 25 25 25c12 0 15 -78 19 -104c-3 -7 -11 -13 -26 -13c-3 0 -37 4 -39 4c-56 -3 -81 -4 -162 -4c-133 0 -128 -3 -128 16c0 17 23 13 50 13v643c-27 0 -50 -5 -50 14c0 8 6 14 14 14h2c35 1 78 1 120 1c83 0 162 -1 162 -1c12 1 23 1 34 1
c13 0 20 -5 23 -12c-4 -30 -7 -105 -20 -105c-18 0 -23 4 -24 24c-5 85 11 66 -132 66c-29 0 -57 -1 -73 -2v-250h140c0 16 -1 30 16 30c29 0 27 -21 27 -43c0 -35 -6 -38 -20 -38c-30 0 -15 11 -23 32c-16 1 -33 1 -51 1h-57h-32c0 -62 -2 -105 -2 -183
c0 -87 1 -184 3 -193c32 0 82 -1 124 -1s75 1 76 3c1 21 3 41 4 62zM249 808c17 15 47 58 62 58c9 0 13 -8 13 -14c0 -3 -1 -6 -2 -7c-5 -8 -69 -90 -74 -95c-7 8 -66 103 -66 103c0 12 16 16 17 16c18 0 31 -43 50 -61z" />
    <glyph glyph-name="Ecircumflex" unicode="&#xca;" horiz-adv-x="446" 
d="M362 91c2 20 5 25 25 25c12 0 15 -78 19 -104c-3 -7 -11 -13 -26 -13c-3 0 -37 4 -39 4c-56 -3 -81 -4 -162 -4c-133 0 -128 -3 -128 16c0 17 23 13 50 13v643c-27 0 -50 -5 -50 14c0 8 6 14 14 14h2c35 1 78 1 120 1c83 0 162 -1 162 -1c12 1 23 1 34 1
c13 0 20 -5 23 -12c-4 -30 -7 -105 -20 -105c-18 0 -23 4 -24 24c-5 85 11 66 -132 66c-29 0 -57 -1 -73 -2v-250h140c0 16 -1 30 16 30c29 0 27 -21 27 -43c0 -35 -6 -38 -20 -38c-30 0 -15 11 -23 32c-16 1 -33 1 -51 1h-57h-32c0 -62 -2 -105 -2 -183
c0 -87 1 -184 3 -193c32 0 82 -1 124 -1s75 1 76 3c1 21 3 41 4 62zM239 812c-19 -19 -32 -61 -50 -61c-4 0 -17 7 -17 16c0 0 59 95 66 103c5 -5 69 -87 74 -95c1 -2 2 -4 2 -7c0 -6 -4 -14 -13 -14c-15 0 -45 43 -62 58z" />
    <glyph glyph-name="Edieresis" unicode="&#xcb;" horiz-adv-x="446" 
d="M362 91c2 20 5 25 25 25c12 0 15 -78 19 -104c-3 -7 -11 -13 -26 -13c-3 0 -37 4 -39 4c-56 -3 -81 -4 -162 -4c-133 0 -128 -3 -128 16c0 17 23 13 50 13v643c-27 0 -50 -5 -50 14c0 8 6 14 14 14h2c35 1 78 1 120 1c83 0 162 -1 162 -1c12 1 23 1 34 1
c13 0 20 -5 23 -12c-4 -30 -7 -105 -20 -105c-18 0 -23 4 -24 24c-5 85 11 66 -132 66c-29 0 -57 -1 -73 -2v-250h140c0 16 -1 30 16 30c29 0 27 -21 27 -43c0 -35 -6 -38 -20 -38c-30 0 -15 11 -23 32c-16 1 -33 1 -51 1h-57h-32c0 -62 -2 -105 -2 -183
c0 -87 1 -184 3 -193c32 0 82 -1 124 -1s75 1 76 3c1 21 3 41 4 62zM312 755c-15 0 -35 15 -35 33c0 25 29 44 57 44c14 0 33 -23 33 -31c0 -20 -36 -45 -55 -46zM135 770c-11 6 -16 18 -16 29c0 30 26 27 37 31c25 -1 37 -12 37 -30c0 -19 -25 -35 -42 -35
c-5 0 -10 1 -16 5z" />
    <glyph glyph-name="Edotaccent" unicode="&#x116;" horiz-adv-x="446" 
d="M362 91c2 20 5 25 25 25c12 0 15 -78 19 -104c-3 -7 -11 -13 -26 -13c-3 0 -37 4 -39 4c-56 -3 -81 -4 -162 -4c-133 0 -128 -3 -128 16c0 17 23 13 50 13v643c-27 0 -50 -5 -50 14c0 8 6 14 14 14h2c35 1 78 1 120 1c83 0 162 -1 162 -1c12 1 23 1 34 1
c13 0 20 -5 23 -12c-4 -30 -7 -105 -20 -105c-18 0 -23 4 -24 24c-5 85 11 66 -132 66c-29 0 -57 -1 -73 -2v-250h140c0 16 -1 30 16 30c29 0 27 -21 27 -43c0 -35 -6 -38 -20 -38c-30 0 -15 11 -23 32c-16 1 -33 1 -51 1h-57h-32c0 -62 -2 -105 -2 -183
c0 -87 1 -184 3 -193c32 0 82 -1 124 -1s75 1 76 3c1 21 3 41 4 62zM233 765c-15 0 -35 15 -35 33c0 25 29 44 57 44c14 0 33 -23 33 -31c0 -20 -36 -45 -55 -46z" />
    <glyph glyph-name="Emacron" unicode="&#x112;" horiz-adv-x="446" 
d="M362 91c2 20 5 25 25 25c12 0 15 -78 19 -104c-3 -7 -11 -13 -26 -13c-3 0 -37 4 -39 4c-56 -3 -81 -4 -162 -4c-133 0 -128 -3 -128 16c0 17 23 13 50 13v643c-27 0 -50 -5 -50 14c0 8 6 14 14 14h2c35 1 78 1 120 1c83 0 162 -1 162 -1c12 1 23 1 34 1
c13 0 20 -5 23 -12c-4 -30 -7 -105 -20 -105c-18 0 -23 4 -24 24c-5 85 11 66 -132 66c-29 0 -57 -1 -73 -2v-250h140c0 16 -1 30 16 30c29 0 27 -21 27 -43c0 -35 -6 -38 -20 -38c-30 0 -15 11 -23 32c-16 1 -33 1 -51 1h-57h-32c0 -62 -2 -105 -2 -183
c0 -87 1 -184 3 -193c32 0 82 -1 124 -1s75 1 76 3c1 21 3 41 4 62zM325 811c8 0 16 -5 16 -10c0 -21 -65 -13 -91 -13h-21c-28 0 -45 -2 -75 -1c-7 0 -9 4 -9 9c0 21 51 14 84 14h21c32 0 59 1 75 1z" />
    <glyph glyph-name="Eogonek" unicode="&#x118;" horiz-adv-x="446" 
d="M292 -144c-12 -8 -27 -13 -42 -13c-46 0 -66 32 -66 59c0 36 27 79 66 98c-19 -1 -41 -1 -71 -1c-133 0 -128 -3 -128 16c0 17 23 13 50 13v643c-27 0 -50 -5 -50 14c0 8 6 14 14 14h2c35 1 78 1 120 1c83 0 162 -1 162 -1c12 1 23 1 34 1c13 0 20 -5 23 -12
c-4 -30 -7 -105 -20 -105c-18 0 -23 4 -24 24c-5 85 11 66 -132 66c-29 0 -57 -1 -73 -2v-250h140c0 16 -1 30 16 30c29 0 27 -21 27 -43c0 -35 -6 -38 -20 -38c-30 0 -15 11 -23 32c-16 1 -33 1 -51 1h-89c0 -62 -2 -105 -2 -183c0 -87 1 -184 3 -193c32 0 82 -1 124 -1
s75 1 76 3l4 62c2 20 5 25 25 25c12 0 15 -78 19 -104c-3 -7 -11 -13 -26 -13c-3 0 -37 4 -39 4c-25 -2 -44 -3 -64 -3c-28 -17 -61 -60 -61 -87c0 -21 14 -37 38 -37c14 0 28 5 38 16v-36z" />
    <glyph glyph-name="Gbreve" unicode="&#x11e;" horiz-adv-x="452" 
d="M410 326c7 -1 12 -6 12 -13s-5 -13 -12 -13h-28h-1h-6v-95v-85c0 -7 1 -130 -148 -130c-134 0 -147 58 -147 324c0 92 5 247 13 283c8 66 45 108 133 112c108 0 146 -49 150 -134c0 1 -2 -20 -18 -20c-46 0 8 133 -122 133c-64 0 -88 -38 -94 -102l-10 -308
c0 -10 -1 -21 -1 -32c0 -95 14 -236 94 -236c65 0 98 61 92 110v51v129h-8h-1h-26c-8 0 -14 6 -14 13s6 13 14 13h15c30 0 61 0 84 -1c0 0 0 1 1 1h25c1 0 4 0 3 0v0zM163 788c14 -7 29 -15 46 -15c33 0 66 24 66 60c0 18 -27 40 -44 40c-16 0 -29 -17 -39 -34
c-11 6 -16 14 -16 23c0 27 37 43 61 43c57 0 76 -34 76 -62c0 -65 -54 -96 -88 -96c-22 0 -67 16 -67 30c0 3 1 7 5 11z" />
    <glyph glyph-name="Gcommaaccent" unicode="&#x122;" horiz-adv-x="452" 
d="M410 326c7 -1 12 -6 12 -13s-5 -13 -12 -13h-28h-1h-6v-95v-85c0 -7 1 -130 -148 -130c-134 0 -147 58 -147 324c0 92 5 247 13 283c8 66 45 108 133 112c108 0 146 -49 150 -134c0 1 -2 -20 -18 -20c-46 0 8 133 -122 133c-64 0 -88 -38 -94 -102l-10 -308
c0 -10 -1 -21 -1 -32c0 -95 14 -236 94 -236c65 0 98 61 92 110v51v129h-8h-1h-26c-8 0 -14 6 -14 13s6 13 14 13h15c30 0 61 0 84 -1c0 0 0 1 1 1h25c1 0 4 0 3 0v0zM187 -214c21 23 47 35 47 68c-25 5 -42 14 -42 34c0 14 19 42 41 42c19 0 32 -24 32 -42
c-4 -40 -23 -89 -78 -102z" />
    <glyph glyph-name="Kcommaaccent" unicode="&#x136;" horiz-adv-x="515" 
d="M502 26c7 0 13 -6 13 -13c0 -6 -6 -13 -13 -13v0h-2h-27h-84h-15c-7 0 -13 7 -13 13c0 7 6 13 13 13h27h1h6c-16 40 -136 303 -186 410c-26 -24 -43 -46 -67 -68c1 -121 1 -335 1 -341h5h1h30c6 0 11 -6 11 -13s-4 -14 -11 -14h1h-2h-29h-83h-16c-7 0 -13 7 -13 13
c0 8 6 14 13 14h28v0h7c1 28 1 57 1 87c0 60 -1 122 -1 179v276v100h-7v0h-28c-7 0 -13 6 -13 14c0 9 6 15 13 15h16c28 0 60 -1 82 -1c1 0 1 1 1 1h29h2c0 -1 0 -1 -1 -1c7 0 11 -5 11 -14c0 -8 -5 -14 -11 -14h-30h-1h-5c0 -6 -1 -183 -1 -251c110 107 247 251 247 251h-1
h-27c-7 0 -13 6 -13 14s6 14 13 14h15h84h27h2v0c7 0 13 -6 13 -14s-6 -14 -13 -14h-61c-3 -6 -95 -104 -188 -200c56 -134 202 -435 207 -443h42zM228 -214c21 23 47 35 47 68c-25 5 -42 14 -42 34c0 14 19 42 41 42c19 0 32 -24 32 -42c-4 -40 -23 -89 -78 -102z" />
    <glyph glyph-name="Lacute" unicode="&#x139;" horiz-adv-x="418" 
d="M386 116c4 -33 8 -66 12 -104c-3 -6 -12 -13 -27 -13c-9 1 -278 1 -280 1h-30c-6 0 -11 7 -11 14c0 8 5 13 11 13h30c10 0 6 52 6 168v476h-6h-30c-6 0 -11 7 -11 14c0 8 5 15 11 15h121c7 0 12 -7 12 -15c0 -7 -5 -14 -12 -14h-28c-1 -4 -1 -117 -1 -233
c0 -214 2 -283 2 -293c0 -26 -1 -52 -1 -79c0 -48 -1 -51 71 -51c43 0 97 4 118 7l5 2c3 0 5 47 7 67c2 23 5 25 31 25zM207 862c-19 -32 -62 -104 -85 -104c-7 0 -11 10 -11 16c0 20 32 74 42 95c4 10 14 15 24 15c12 0 24 -7 30 -22z" />
    <glyph glyph-name="Lcaron" unicode="&#x13d;" horiz-adv-x="418" 
d="M386 116c4 -33 8 -66 12 -104c-3 -6 -12 -13 -27 -13c-9 1 -278 1 -280 1h-30c-6 0 -11 7 -11 14c0 8 5 13 11 13h30c10 0 6 52 6 168v476h-6h-30c-6 0 -11 7 -11 14c0 8 5 15 11 15h121c7 0 12 -7 12 -15c0 -7 -5 -14 -12 -14h-28c-1 -4 -1 -117 -1 -233
c0 -214 2 -283 2 -293c0 -26 -1 -52 -1 -79c0 -48 -1 -51 71 -51c43 0 97 4 118 7l5 2c3 0 5 47 7 67c2 23 5 25 31 25zM238 555c22 26 48 38 48 70c-26 5 -43 12 -43 34c0 17 22 42 40 42c21 0 36 -19 36 -38c0 -40 -23 -93 -81 -108z" />
    <glyph glyph-name="Lcommaaccent" unicode="&#x13b;" horiz-adv-x="418" 
d="M386 116c4 -33 8 -66 12 -104c-3 -6 -12 -13 -27 -13c-9 1 -278 1 -280 1h-30c-6 0 -11 7 -11 14c0 8 5 13 11 13h30c10 0 6 52 6 168v476h-6h-30c-6 0 -11 7 -11 14c0 8 5 15 11 15h121c7 0 12 -7 12 -15c0 -7 -5 -14 -12 -14h-28c-1 -4 -1 -117 -1 -233
c0 -214 2 -283 2 -293c0 -26 -1 -52 -1 -79c0 -48 -1 -51 71 -51c43 0 97 4 118 7l5 2c3 0 5 47 7 67c2 23 5 25 31 25zM190 -224c21 23 47 35 47 68c-25 5 -42 14 -42 34c0 14 19 42 41 42c19 0 32 -24 32 -42c-4 -40 -23 -89 -78 -102z" />
    <glyph glyph-name="agrave" unicode="&#xe0;" horiz-adv-x="426" 
d="M425 30c0 -3 1 -6 1 -9c0 -19 -29 -24 -51 -24c-41 0 -73 23 -93 64c-40 -29 -66 -67 -137 -67s-115 42 -115 112c0 55 41 101 86 148c42 43 118 61 173 72c1 11 1 22 1 33c0 84 -25 142 -106 142c-47 0 -84 -32 -84 -84c-4 -26 -9 -37 -24 -37c-5 0 -31 0 -31 17
c0 83 93 124 154 124c134 0 141 -105 141 -237c0 -52 -7 -103 -7 -155c0 -48 13 -101 72 -101c6 0 13 0 20 2zM291 298c-8 2 -15 2 -22 2c-25 0 -45 -10 -64 -18c-73 -25 -119 -87 -119 -165c0 -51 52 -91 98 -91c40 0 101 54 101 83c3 65 6 130 6 189zM125 672
c6 15 18 22 30 22c24 0 52 -66 65 -106c0 -1 1 -3 1 -4c0 -6 -4 -16 -11 -16c-23 0 -66 72 -85 104z" />
    <glyph glyph-name="aacute" unicode="&#xe1;" horiz-adv-x="426" 
d="M425 30c0 -3 1 -6 1 -9c0 -19 -29 -24 -51 -24c-41 0 -73 23 -93 64c-40 -29 -66 -67 -137 -67s-115 42 -115 112c0 55 41 101 86 148c42 43 118 61 173 72c1 11 1 22 1 33c0 84 -25 142 -106 142c-47 0 -84 -32 -84 -84c-4 -26 -9 -37 -24 -37c-5 0 -31 0 -31 17
c0 83 93 124 154 124c134 0 141 -105 141 -237c0 -52 -7 -103 -7 -155c0 -48 13 -101 72 -101c6 0 13 0 20 2zM291 298c-8 2 -15 2 -22 2c-25 0 -45 -10 -64 -18c-73 -25 -119 -87 -119 -165c0 -51 52 -91 98 -91c40 0 101 54 101 83c3 65 6 130 6 189zM291 672
c-19 -32 -62 -104 -85 -104c-7 0 -11 10 -11 16c0 20 32 74 42 95c4 10 14 15 24 15c12 0 24 -7 30 -22z" />
    <glyph glyph-name="abreve" unicode="&#x103;" horiz-adv-x="426" 
d="M425 30c0 -3 1 -6 1 -9c0 -19 -29 -24 -51 -24c-41 0 -73 23 -93 64c-40 -29 -66 -67 -137 -67s-115 42 -115 112c0 55 41 101 86 148c42 43 118 61 173 72c1 11 1 22 1 33c0 84 -25 142 -106 142c-47 0 -84 -32 -84 -84c-4 -26 -9 -37 -24 -37c-5 0 -31 0 -31 17
c0 83 93 124 154 124c134 0 141 -105 141 -237c0 -52 -7 -103 -7 -155c0 -48 13 -101 72 -101c6 0 13 0 20 2zM291 298c-8 2 -15 2 -22 2c-25 0 -45 -10 -64 -18c-73 -25 -119 -87 -119 -165c0 -51 52 -91 98 -91c40 0 101 54 101 83c3 65 6 130 6 189zM140 608
c14 -7 29 -15 46 -15c33 0 66 24 66 60c0 18 -27 40 -44 40c-16 0 -29 -17 -39 -34c-11 6 -16 14 -16 23c0 27 37 43 61 43c57 0 76 -34 76 -62c0 -65 -54 -96 -88 -96c-22 0 -67 16 -67 30c0 3 1 7 5 11z" />
    <glyph glyph-name="acircumflex" unicode="&#xe2;" horiz-adv-x="426" 
d="M425 30c0 -3 1 -6 1 -9c0 -19 -29 -24 -51 -24c-41 0 -73 23 -93 64c-40 -29 -66 -67 -137 -67s-115 42 -115 112c0 55 41 101 86 148c42 43 118 61 173 72c1 11 1 22 1 33c0 84 -25 142 -106 142c-47 0 -84 -32 -84 -84c-4 -26 -9 -37 -24 -37c-5 0 -31 0 -31 17
c0 83 93 124 154 124c134 0 141 -105 141 -237c0 -52 -7 -103 -7 -155c0 -48 13 -101 72 -101c6 0 13 0 20 2zM291 298c-8 2 -15 2 -22 2c-25 0 -45 -10 -64 -18c-73 -25 -119 -87 -119 -165c0 -51 52 -91 98 -91c40 0 101 54 101 83c3 65 6 130 6 189zM189 622
c-19 -19 -32 -61 -50 -61c-4 0 -17 7 -17 16c0 0 59 95 66 103c5 -5 69 -87 74 -95c1 -2 2 -4 2 -7c0 -6 -4 -14 -13 -14c-15 0 -45 43 -62 58z" />
    <glyph glyph-name="adieresis" unicode="&#xe4;" horiz-adv-x="426" 
d="M425 30c0 -3 1 -6 1 -9c0 -19 -29 -24 -51 -24c-41 0 -73 23 -93 64c-40 -29 -66 -67 -137 -67s-115 42 -115 112c0 55 41 101 86 148c42 43 118 61 173 72c1 11 1 22 1 33c0 84 -25 142 -106 142c-47 0 -84 -32 -84 -84c-4 -26 -9 -37 -24 -37c-5 0 -31 0 -31 17
c0 83 93 124 154 124c134 0 141 -105 141 -237c0 -52 -7 -103 -7 -155c0 -48 13 -101 72 -101c6 0 13 0 20 2zM291 298c-8 2 -15 2 -22 2c-25 0 -45 -10 -64 -18c-73 -25 -119 -87 -119 -165c0 -51 52 -91 98 -91c40 0 101 54 101 83c3 65 6 130 6 189zM272 575
c-15 0 -35 15 -35 33c0 25 29 44 57 44c14 0 33 -23 33 -31c0 -20 -36 -45 -55 -46zM95 590c-11 6 -16 18 -16 29c0 30 26 27 37 31c25 -1 37 -12 37 -30c0 -19 -25 -35 -42 -35c-5 0 -10 1 -16 5z" />
    <glyph glyph-name="amacron" unicode="&#x101;" horiz-adv-x="426" 
d="M425 30c0 -3 1 -6 1 -9c0 -19 -29 -24 -51 -24c-41 0 -73 23 -93 64c-40 -29 -66 -67 -137 -67s-115 42 -115 112c0 55 41 101 86 148c42 43 118 61 173 72c1 11 1 22 1 33c0 84 -25 142 -106 142c-47 0 -84 -32 -84 -84c-4 -26 -9 -37 -24 -37c-5 0 -31 0 -31 17
c0 83 93 124 154 124c134 0 141 -105 141 -237c0 -52 -7 -103 -7 -155c0 -48 13 -101 72 -101c6 0 13 0 20 2zM291 298c-8 2 -15 2 -22 2c-25 0 -45 -10 -64 -18c-73 -25 -119 -87 -119 -165c0 -51 52 -91 98 -91c40 0 101 54 101 83c3 65 6 130 6 189zM285 621
c8 0 16 -5 16 -10c0 -21 -65 -13 -91 -13h-21c-28 0 -45 -2 -75 -1c-7 0 -9 4 -9 9c0 21 51 14 84 14h21c32 0 59 1 75 1z" />
    <glyph glyph-name="aogonek" unicode="&#x105;" horiz-adv-x="426" 
d="M412 -141c-12 -8 -27 -13 -42 -13c-46 0 -66 32 -66 59c0 33 23 72 58 93c-35 4 -62 26 -80 63c-40 -29 -66 -67 -137 -67s-115 42 -115 112c0 55 41 101 86 148c42 43 118 61 173 72c1 11 1 22 1 33c0 84 -25 142 -106 142c-47 0 -84 -32 -84 -84c-4 -26 -9 -37 -24 -37
c-5 0 -31 0 -31 17c0 83 93 124 154 124c134 0 141 -105 141 -237c0 -52 -7 -103 -7 -155c0 -48 13 -101 72 -101c6 0 13 0 20 2c0 -3 1 -6 1 -9c0 -15 -18 -21 -37 -23c-26 -20 -53 -57 -53 -82c0 -21 14 -37 38 -37c14 0 28 5 38 16v-36zM291 298c-8 2 -15 2 -22 2
c-25 0 -45 -10 -64 -18c-73 -25 -119 -87 -119 -165c0 -51 52 -91 98 -91c40 0 101 54 101 83c3 65 6 130 6 189z" />
    <glyph glyph-name="aring" unicode="&#xe5;" horiz-adv-x="426" 
d="M425 30c0 -3 1 -6 1 -9c0 -19 -29 -24 -51 -24c-41 0 -73 23 -93 64c-40 -29 -66 -67 -137 -67s-115 42 -115 112c0 55 41 101 86 148c42 43 118 61 173 72c1 11 1 22 1 33c0 84 -25 142 -106 142c-47 0 -84 -32 -84 -84c-4 -26 -9 -37 -24 -37c-5 0 -31 0 -31 17
c0 83 93 124 154 124c134 0 141 -105 141 -237c0 -52 -7 -103 -7 -155c0 -48 13 -101 72 -101c6 0 13 0 20 2zM291 298c-8 2 -15 2 -22 2c-25 0 -45 -10 -64 -18c-73 -25 -119 -87 -119 -165c0 -51 52 -91 98 -91c40 0 101 54 101 83c3 65 6 130 6 189zM123 633
c1 47 36 72 73 72c36 0 67 -25 67 -72c0 -45 -37 -70 -73 -70c-37 0 -66 25 -67 70zM236 634c0 20 -12 49 -43 49s-43 -29 -43 -49s12 -49 43 -49s43 29 43 49z" />
    <glyph glyph-name="atilde" unicode="&#xe3;" horiz-adv-x="426" 
d="M425 30c0 -3 1 -6 1 -9c0 -19 -29 -24 -51 -24c-41 0 -73 23 -93 64c-40 -29 -66 -67 -137 -67s-115 42 -115 112c0 55 41 101 86 148c42 43 118 61 173 72c1 11 1 22 1 33c0 84 -25 142 -106 142c-47 0 -84 -32 -84 -84c-4 -26 -9 -37 -24 -37c-5 0 -31 0 -31 17
c0 83 93 124 154 124c134 0 141 -105 141 -237c0 -52 -7 -103 -7 -155c0 -48 13 -101 72 -101c6 0 13 0 20 2zM291 298c-8 2 -15 2 -22 2c-25 0 -45 -10 -64 -18c-73 -25 -119 -87 -119 -165c0 -51 52 -91 98 -91c40 0 101 54 101 83c3 65 6 130 6 189zM99 607
c31 28 45 41 76 41c27 0 54 -22 76 -22c16 0 30 8 51 19c3 -3 4 -6 4 -9c0 -20 -66 -44 -74 -44c-29 0 -54 26 -79 26c-16 0 -31 -14 -44 -14c-3 0 -6 0 -10 3z" />
    <glyph glyph-name="cacute" unicode="&#x107;" horiz-adv-x="370" 
d="M277 149c3 -1 7 -2 11 -2c7 0 14 2 20 2c3 0 5 0 7 -1c0 -39 -10 -160 -119 -160c-78 0 -136 47 -136 292c0 94 9 229 147 229c21 0 44 -3 72 -10c4 -3 8 -4 12 -4c5 0 9 1 14 1c3 0 6 0 10 -2c2 -33 5 -69 5 -104c-3 -12 -8 -21 -22 -21c-25 0 -20 36 -20 58
c0 7 1 15 1 22c0 20 -24 45 -63 45c-84 0 -97 -97 -97 -172c0 -35 3 -66 3 -84c0 -6 -1 -19 -1 -36c0 -66 7 -189 75 -193c87 10 77 130 81 140zM283 662c-19 -32 -62 -104 -85 -104c-7 0 -11 10 -11 16c0 20 32 74 42 95c4 10 14 15 24 15c12 0 24 -7 30 -22z" />
    <glyph glyph-name="ccaron" unicode="&#x10d;" horiz-adv-x="370" 
d="M277 149c3 -1 7 -2 11 -2c7 0 14 2 20 2c3 0 5 0 7 -1c0 -39 -10 -160 -119 -160c-78 0 -136 47 -136 292c0 94 9 229 147 229c21 0 44 -3 72 -10c4 -3 8 -4 12 -4c5 0 9 1 14 1c3 0 6 0 10 -2c2 -33 5 -69 5 -104c-3 -12 -8 -21 -22 -21c-25 0 -20 36 -20 58
c0 7 1 15 1 22c0 20 -24 45 -63 45c-84 0 -97 -97 -97 -172c0 -35 3 -66 3 -84c0 -6 -1 -19 -1 -36c0 -66 7 -189 75 -193c87 10 77 130 81 140zM201 618c17 15 47 58 62 58c9 0 13 -8 13 -14c0 -3 -1 -6 -2 -7c-5 -8 -69 -90 -74 -95c-7 8 -66 103 -66 103
c0 12 16 16 17 16c18 0 31 -43 50 -61z" />
    <glyph glyph-name="ccedilla" unicode="&#xe7;" horiz-adv-x="370" 
d="M169 -68l25 56c-77 1 -134 48 -134 292c0 94 9 229 147 229c21 0 44 -3 72 -10c4 -3 8 -4 12 -4c5 0 9 1 14 1c3 0 6 0 10 -2c2 -33 5 -69 5 -104c-3 -12 -8 -21 -22 -21c-25 0 -20 36 -20 58c0 7 1 15 1 22c0 20 -24 45 -63 45c-84 0 -97 -97 -97 -172
c0 -35 3 -66 3 -84c0 -6 -1 -19 -1 -36c0 -66 7 -189 75 -193c87 10 77 130 81 140c3 -1 7 -2 11 -2c7 0 14 2 20 2c3 0 5 0 7 -1c0 -36 -9 -143 -97 -158l-22 -48c32 0 62 -24 62 -64c0 -33 -31 -58 -72 -58c-26 0 -55 18 -55 34c0 6 5 11 16 17c9 -17 25 -28 42 -28
c21 0 38 18 38 37c0 25 -16 37 -39 37c-5 0 -10 0 -15 -1c-4 4 -6 8 -6 11c0 2 1 3 2 5z" />
    <glyph glyph-name="ccircumflex" unicode="&#x109;" horiz-adv-x="370" 
d="M277 149c3 -1 7 -2 11 -2c7 0 14 2 20 2c3 0 5 0 7 -1c0 -39 -10 -160 -119 -160c-78 0 -136 47 -136 292c0 94 9 229 147 229c21 0 44 -3 72 -10c4 -3 8 -4 12 -4c5 0 9 1 14 1c3 0 6 0 10 -2c2 -33 5 -69 5 -104c-3 -12 -8 -21 -22 -21c-25 0 -20 36 -20 58
c0 7 1 15 1 22c0 20 -24 45 -63 45c-84 0 -97 -97 -97 -172c0 -35 3 -66 3 -84c0 -6 -1 -19 -1 -36c0 -66 7 -189 75 -193c87 10 77 130 81 140zM201 622c-19 -19 -32 -61 -50 -61c-4 0 -17 7 -17 16c0 0 59 95 66 103c5 -5 69 -87 74 -95c1 -2 2 -4 2 -7
c0 -6 -4 -14 -13 -14c-15 0 -45 43 -62 58z" />
    <glyph glyph-name="dcaron" unicode="&#x10f;" horiz-adv-x="449" 
d="M381 30c9 0 17 -7 17 -16c0 -8 -8 -16 -17 -16h-38c-1 0 -3 1 -4 1c-11 -3 -24 -3 -37 -3c-28 0 -57 2 -82 2h-18c-127 3 -140 106 -140 189c0 106 -28 316 140 316c44 0 60 -15 79 -20v212h-9c-8 0 -16 -1 -22 -1c-7 0 -13 5 -13 16c0 7 5 6 38 6c40 0 103 3 103 -8
c0 -6 -9 -14 -18 -14c-3 0 -8 1 -18 1c-2 -11 -1 -549 -3 -640c0 0 -1 -25 4 -25h38zM281 55v343c0 48 -18 85 -81 85c-87 0 -78 -175 -78 -309c0 -70 9 -157 84 -157c54 0 74 25 75 38zM398 555c22 26 48 38 48 70c-26 5 -43 12 -43 34c0 17 22 42 40 42
c21 0 36 -19 36 -38c0 -40 -23 -93 -81 -108z" />
    <glyph glyph-name="egrave" unicode="&#xe8;" horiz-adv-x="391" 
d="M121 246c-1 -33 -3 -69 -3 -103c0 0 -6 -126 76 -126c73 0 84 65 89 76c4 11 10 25 20 25c18 0 23 -9 23 -14c0 -6 -3 -13 -6 -24c-20 -58 -71 -87 -122 -87c-40 0 -76 17 -104 50c-22 26 -34 52 -34 203c0 185 55 261 144 261c83 0 126 -64 126 -198
c0 -32 2 -61 -27 -61h-110c-37 0 -68 0 -72 -2zM274 267c2 11 3 27 3 46c0 71 -19 175 -77 175c-64 -4 -72 -75 -73 -108s-5 -64 -5 -97c0 -6 1 -12 1 -18c52 0 101 1 151 2zM127 662c6 15 18 22 30 22c24 0 52 -66 65 -106c0 -1 1 -3 1 -4c0 -6 -4 -16 -11 -16
c-23 0 -66 72 -85 104z" />
    <glyph glyph-name="eacute" unicode="&#xe9;" horiz-adv-x="391" 
d="M121 246c-1 -33 -3 -69 -3 -103c0 0 -6 -126 76 -126c73 0 84 65 89 76c4 11 10 25 20 25c18 0 23 -9 23 -14c0 -6 -3 -13 -6 -24c-20 -58 -71 -87 -122 -87c-40 0 -76 17 -104 50c-22 26 -34 52 -34 203c0 185 55 261 144 261c83 0 126 -64 126 -198
c0 -32 2 -61 -27 -61h-110c-37 0 -68 0 -72 -2zM274 267c2 11 3 27 3 46c0 71 -19 175 -77 175c-64 -4 -72 -75 -73 -108s-5 -64 -5 -97c0 -6 1 -12 1 -18c52 0 101 1 151 2zM283 662c-19 -32 -62 -104 -85 -104c-7 0 -11 10 -11 16c0 20 32 74 42 95c4 10 14 15 24 15
c12 0 24 -7 30 -22z" />
    <glyph glyph-name="ecaron" unicode="&#x11b;" horiz-adv-x="391" 
d="M121 246c-1 -33 -3 -69 -3 -103c0 0 -6 -126 76 -126c73 0 84 65 89 76c4 11 10 25 20 25c18 0 23 -9 23 -14c0 -6 -3 -13 -6 -24c-20 -58 -71 -87 -122 -87c-40 0 -76 17 -104 50c-22 26 -34 52 -34 203c0 185 55 261 144 261c83 0 126 -64 126 -198
c0 -32 2 -61 -27 -61h-110c-37 0 -68 0 -72 -2zM274 267c2 11 3 27 3 46c0 71 -19 175 -77 175c-64 -4 -72 -75 -73 -108s-5 -64 -5 -97c0 -6 1 -12 1 -18c52 0 101 1 151 2zM201 618c17 15 47 58 62 58c9 0 13 -8 13 -14c0 -3 -1 -6 -2 -7c-5 -8 -69 -90 -74 -95
c-7 8 -66 103 -66 103c0 12 16 16 17 16c18 0 31 -43 50 -61z" />
    <glyph glyph-name="ecircumflex" unicode="&#xea;" horiz-adv-x="391" 
d="M121 246c-1 -33 -3 -69 -3 -103c0 0 -6 -126 76 -126c73 0 84 65 89 76c4 11 10 25 20 25c18 0 23 -9 23 -14c0 -6 -3 -13 -6 -24c-20 -58 -71 -87 -122 -87c-40 0 -76 17 -104 50c-22 26 -34 52 -34 203c0 185 55 261 144 261c83 0 126 -64 126 -198
c0 -32 2 -61 -27 -61h-110c-37 0 -68 0 -72 -2zM274 267c2 11 3 27 3 46c0 71 -19 175 -77 175c-64 -4 -72 -75 -73 -108s-5 -64 -5 -97c0 -6 1 -12 1 -18c52 0 101 1 151 2zM191 622c-19 -19 -32 -61 -50 -61c-4 0 -17 7 -17 16c0 0 59 95 66 103c5 -5 69 -87 74 -95
c1 -2 2 -4 2 -7c0 -6 -4 -14 -13 -14c-15 0 -45 43 -62 58z" />
    <glyph glyph-name="edieresis" unicode="&#xeb;" horiz-adv-x="391" 
d="M121 246c-1 -33 -3 -69 -3 -103c0 0 -6 -126 76 -126c73 0 84 65 89 76c4 11 10 25 20 25c18 0 23 -9 23 -14c0 -6 -3 -13 -6 -24c-20 -58 -71 -87 -122 -87c-40 0 -76 17 -104 50c-22 26 -34 52 -34 203c0 185 55 261 144 261c83 0 126 -64 126 -198
c0 -32 2 -61 -27 -61h-110c-37 0 -68 0 -72 -2zM274 267c2 11 3 27 3 46c0 71 -19 175 -77 175c-64 -4 -72 -75 -73 -108s-5 -64 -5 -97c0 -6 1 -12 1 -18c52 0 101 1 151 2zM274 575c-15 0 -35 15 -35 33c0 25 29 44 57 44c14 0 33 -23 33 -31c0 -20 -36 -45 -55 -46z
M97 590c-11 6 -16 18 -16 29c0 30 26 27 37 31c25 -1 37 -12 37 -30c0 -19 -25 -35 -42 -35c-5 0 -10 1 -16 5z" />
    <glyph glyph-name="edotaccent" unicode="&#x117;" horiz-adv-x="391" 
d="M121 246c-1 -33 -3 -69 -3 -103c0 0 -6 -126 76 -126c73 0 84 65 89 76c4 11 10 25 20 25c18 0 23 -9 23 -14c0 -6 -3 -13 -6 -24c-20 -58 -71 -87 -122 -87c-40 0 -76 17 -104 50c-22 26 -34 52 -34 203c0 185 55 261 144 261c83 0 126 -64 126 -198
c0 -32 2 -61 -27 -61h-110c-37 0 -68 0 -72 -2zM274 267c2 11 3 27 3 46c0 71 -19 175 -77 175c-64 -4 -72 -75 -73 -108s-5 -64 -5 -97c0 -6 1 -12 1 -18c52 0 101 1 151 2zM195 575c-15 0 -35 15 -35 33c0 25 29 44 57 44c14 0 33 -23 33 -31c0 -20 -36 -45 -55 -46z" />
    <glyph glyph-name="emacron" unicode="&#x113;" horiz-adv-x="391" 
d="M121 246c-1 -33 -3 -69 -3 -103c0 0 -6 -126 76 -126c73 0 84 65 89 76c4 11 10 25 20 25c18 0 23 -9 23 -14c0 -6 -3 -13 -6 -24c-20 -58 -71 -87 -122 -87c-40 0 -76 17 -104 50c-22 26 -34 52 -34 203c0 185 55 261 144 261c83 0 126 -64 126 -198
c0 -32 2 -61 -27 -61h-110c-37 0 -68 0 -72 -2zM274 267c2 11 3 27 3 46c0 71 -19 175 -77 175c-64 -4 -72 -75 -73 -108s-5 -64 -5 -97c0 -6 1 -12 1 -18c52 0 101 1 151 2zM287 601c8 0 16 -5 16 -10c0 -21 -65 -13 -91 -13h-21c-28 0 -45 -2 -75 -1c-7 0 -9 4 -9 9
c0 21 51 14 84 14h21c32 0 59 1 75 1z" />
    <glyph glyph-name="eogonek" unicode="&#x119;" horiz-adv-x="391" 
d="M248 -141c-12 -8 -27 -13 -42 -13c-46 0 -66 32 -66 59c0 31 20 67 51 88c-37 2 -71 19 -97 50c-22 26 -34 52 -34 203c0 185 55 261 144 261c83 0 126 -64 126 -198c0 -32 2 -61 -27 -61h-110c-37 0 -68 0 -72 -2c-1 -33 -3 -69 -3 -103c0 0 -6 -126 76 -126
c73 0 84 65 89 76c4 11 10 25 20 25c18 0 23 -9 23 -14c0 -6 -3 -13 -6 -24c-17 -49 -56 -77 -98 -85c-25 -20 -50 -55 -50 -79c0 -21 14 -37 38 -37c14 0 28 5 38 16v-36zM274 267c2 11 3 27 3 46c0 71 -19 175 -77 175c-64 -4 -72 -75 -73 -108s-5 -64 -5 -97
c0 -6 1 -12 1 -18c52 0 101 1 151 2z" />
    <glyph glyph-name="Idotaccent" unicode="&#x130;" horiz-adv-x="254" 
d="M191 27c7 0 13 -6 13 -13s-6 -14 -13 -14v0c1 0 -2 0 -3 0h-27h-83h-16c-7 0 -12 7 -12 13c0 8 5 14 12 14h28h1h6c1 28 1 108 1 202c0 189 -1 436 -1 440h-6h-1h-28c-7 0 -12 6 -12 14c0 9 5 15 12 15h16c27 0 62 -1 83 -1v1h27h3v-1c7 0 13 -5 13 -14
c0 -8 -6 -14 -13 -14h-30v0h-6v-642h6v0h30zM127 765c-15 0 -35 15 -35 33c0 25 29 44 57 44c14 0 33 -23 33 -31c0 -20 -36 -45 -55 -46z" />
    <glyph glyph-name="gbreve" unicode="&#x11f;" horiz-adv-x="368" 
d="M368 487c-22 -20 -66 -57 -66 -69c0 -27 7 -53 7 -80c0 -18 -3 -34 -7 -52c-8 -30 -19 -108 -107 -161c-16 -6 -65 -32 -65 -60c0 -19 61 -14 104 -25c49 -16 71 -54 71 -116c0 -44 -15 -114 -106 -114c-62 0 -122 34 -122 115c2 18 11 32 32 32c2 0 5 -1 8 -1
c-1 -15 -4 -27 -4 -40c0 -55 61 -76 98 -76c27 0 55 24 55 53c0 112 -88 110 -113 114c-35 6 -62 9 -62 40c0 23 28 52 65 77c-91 25 -116 70 -116 178c0 107 55 203 176 203c30 0 51 -8 68 -30c3 -5 7 -8 11 -8c21 0 47 29 54 29c4 0 9 -3 19 -9zM275 315
c-2 30 -4 159 -95 159c-53 0 -97 -43 -97 -137c0 -29 4 -67 16 -104c20 -33 55 -56 93 -56c51 0 83 64 83 129v9zM121 598c14 -7 29 -15 46 -15c33 0 66 24 66 60c0 18 -27 40 -44 40c-16 0 -29 -17 -39 -34c-11 6 -16 14 -16 23c0 27 37 43 61 43c57 0 76 -34 76 -62
c0 -65 -54 -96 -88 -96c-22 0 -67 16 -67 30c0 3 1 7 5 11z" />
    <glyph glyph-name="gcommaaccent" unicode="&#x123;" horiz-adv-x="368" 
d="M234 711c-22 -26 -48 -38 -48 -70c26 -5 43 -12 43 -34c0 -17 -22 -42 -40 -42c-21 0 -36 19 -36 38c0 40 23 93 81 108zM368 487c-22 -20 -66 -57 -66 -69c0 -27 7 -53 7 -80c0 -18 -3 -34 -7 -52c-8 -30 -19 -108 -107 -161c-16 -6 -65 -32 -65 -60
c0 -19 61 -14 104 -25c49 -16 71 -54 71 -116c0 -44 -15 -114 -106 -114c-62 0 -122 34 -122 115c2 18 11 32 32 32c2 0 5 -1 8 -1c-1 -15 -4 -27 -4 -40c0 -55 61 -76 98 -76c27 0 55 24 55 53c0 112 -88 110 -113 114c-35 6 -62 9 -62 40c0 23 28 52 65 77
c-91 25 -116 70 -116 178c0 107 55 203 176 203c30 0 51 -8 68 -30c3 -5 7 -8 11 -8c21 0 47 29 54 29c4 0 9 -3 19 -9zM275 315c-2 30 -4 159 -95 159c-53 0 -97 -43 -97 -137c0 -29 4 -67 16 -104c20 -33 55 -56 93 -56c51 0 83 64 83 129v9z" />
    <glyph glyph-name="kcommaaccent" unicode="&#x137;" horiz-adv-x="444" 
d="M444 9c0 -9 -30 -11 -69 -11c-38 0 -99 1 -99 6c0 20 29 8 49 14c-46 90 -93 180 -147 270c-16 -19 -28 -32 -40 -47v-224h11h20c5 0 13 1 13 -8c0 -13 -57 -9 -79 -9c-14 0 -72 -5 -72 8c0 12 29 8 45 9c0 22 -1 103 -1 201c0 198 1 467 1 476h-29c-10 0 -17 1 -17 8
c0 9 3 11 9 11c5 0 11 -1 18 -1c38 1 76 0 112 3c12 0 17 -4 17 -9c0 -4 -3 -9 -9 -12h-39v-406c0 0 1 -1 3 -2c58 62 115 123 173 186c-1 2 8 10 8 12c-7 0 -20 -2 -30 -2c-9 0 -14 2 -18 10c0 3 8 11 14 11h6c11 1 22 1 33 1h43c9 0 17 1 27 1c8 0 16 -2 16 -8
c0 -11 -10 -15 -18 -15c-7 0 -15 2 -21 2c-30 1 -46 -20 -64 -42c-28 -34 -83 -83 -83 -104c0 -6 2 -11 5 -17c50 -100 101 -198 151 -297c8 -8 13 -8 24 -8c6 0 11 1 16 1c11 0 20 -2 21 -8zM173 -224c21 23 47 35 47 68c-25 5 -42 14 -42 34c0 14 19 42 41 42
c19 0 32 -24 32 -42c-4 -40 -23 -89 -78 -102z" />
    <glyph glyph-name="lacute" unicode="&#x13a;" horiz-adv-x="236" 
d="M84 694h-25c-12 0 -19 1 -19 12c0 6 4 7 9 7s11 -1 18 -1c39 1 77 3 115 3c10 0 14 -5 14 -10c0 -14 -32 -11 -49 -11c0 -51 -1 -127 -1 -210c0 -168 1 -368 1 -467h11h20c6 0 14 1 14 -9c0 -12 -60 -8 -80 -8c-14 0 -70 -5 -70 7c0 13 24 9 42 10v677zM206 862
c-19 -32 -62 -104 -85 -104c-7 0 -11 10 -11 16c0 20 32 74 42 95c4 10 14 15 24 15c12 0 24 -7 30 -22z" />
    <glyph glyph-name="lcaron" unicode="&#x13e;" horiz-adv-x="247" 
d="M84 694h-25c-12 0 -19 1 -19 12c0 6 4 7 9 7s11 -1 18 -1c39 1 77 3 115 3c10 0 14 -5 14 -10c0 -14 -32 -11 -49 -11c0 -51 -1 -127 -1 -210c0 -168 1 -368 1 -467h11h20c6 0 14 1 14 -9c0 -12 -60 -8 -80 -8c-14 0 -70 -5 -70 7c0 13 24 9 42 10v677zM196 555
c22 26 48 38 48 70c-26 5 -43 12 -43 34c0 17 22 42 40 42c21 0 36 -19 36 -38c0 -40 -23 -93 -81 -108z" />
    <glyph glyph-name="lcommaaccent" unicode="&#x13c;" horiz-adv-x="236" 
d="M84 694h-25c-12 0 -19 1 -19 12c0 6 4 7 9 7s11 -1 18 -1c39 1 77 3 115 3c10 0 14 -5 14 -10c0 -14 -32 -11 -49 -11c0 -51 -1 -127 -1 -210c0 -168 1 -368 1 -467h11h20c6 0 14 1 14 -9c0 -12 -60 -8 -80 -8c-14 0 -70 -5 -70 7c0 13 24 9 42 10v677zM79 -224
c21 23 47 35 47 68c-25 5 -42 14 -42 34c0 14 19 42 41 42c19 0 32 -24 32 -42c-4 -40 -23 -89 -78 -102z" />
    <glyph glyph-name="Igrave" unicode="&#xcc;" horiz-adv-x="255" 
d="M192 27c7 0 13 -6 13 -13s-6 -14 -13 -14v0c1 0 -2 0 -3 0h-27h-83h-16c-7 0 -12 7 -12 13c0 8 5 14 12 14h28h1h6c1 28 1 108 1 202c0 189 -1 436 -1 440h-6h-1h-28c-7 0 -12 6 -12 14c0 9 5 15 12 15h16c27 0 62 -1 83 -1v1h27h3v-1c7 0 13 -5 13 -14
c0 -8 -6 -14 -13 -14h-30v0h-6v-642h6v0h30zM50 852c6 15 18 22 30 22c24 0 52 -66 65 -106c0 -1 1 -3 1 -4c0 -6 -4 -16 -11 -16c-23 0 -66 72 -85 104z" />
    <glyph glyph-name="Iacute" unicode="&#xcd;" horiz-adv-x="255" 
d="M191 27c7 0 13 -6 13 -13s-6 -14 -13 -14v0c1 0 -2 0 -3 0h-27h-83h-16c-7 0 -12 7 -12 13c0 8 5 14 12 14h28h1h6c1 28 1 108 1 202c0 189 -1 436 -1 440h-6h-1h-28c-7 0 -12 6 -12 14c0 9 5 15 12 15h16c27 0 62 -1 83 -1v1h27h3v-1c7 0 13 -5 13 -14
c0 -8 -6 -14 -13 -14h-30v0h-6v-642h6v0h30zM215 852c-19 -32 -62 -104 -85 -104c-7 0 -11 10 -11 16c0 20 32 74 42 95c4 10 14 15 24 15c12 0 24 -7 30 -22z" />
    <glyph glyph-name="Icircumflex" unicode="&#xce;" horiz-adv-x="254" 
d="M191 27c7 0 13 -6 13 -13s-6 -14 -13 -14v0c1 0 -2 0 -3 0h-27h-83h-16c-7 0 -12 7 -12 13c0 8 5 14 12 14h28h1h6c1 28 1 108 1 202c0 189 -1 436 -1 440h-6h-1h-28c-7 0 -12 6 -12 14c0 9 5 15 12 15h16c27 0 62 -1 83 -1v1h27h3v-1c7 0 13 -5 13 -14
c0 -8 -6 -14 -13 -14h-30v0h-6v-642h6v0h30zM123 812c-19 -19 -32 -61 -50 -61c-4 0 -17 7 -17 16c0 0 59 95 66 103c5 -5 69 -87 74 -95c1 -2 2 -4 2 -7c0 -6 -4 -14 -13 -14c-15 0 -45 43 -62 58z" />
    <glyph glyph-name="Idieresis" unicode="&#xcf;" horiz-adv-x="248" 
d="M188 27c7 0 13 -6 13 -13s-6 -14 -13 -14v0c1 0 -2 0 -3 0h-27h-83h-16c-7 0 -12 7 -12 13c0 8 5 14 12 14h28h1h6c1 28 1 108 1 202c0 189 -1 436 -1 440h-6h-1h-28c-7 0 -12 6 -12 14c0 9 5 15 12 15h16c27 0 62 -1 83 -1v1h27h3v-1c7 0 13 -5 13 -14
c0 -8 -6 -14 -13 -14h-30v0h-6v-642h6v0h30zM193 755c-15 0 -35 15 -35 33c0 25 29 44 57 44c14 0 33 -23 33 -31c0 -20 -36 -45 -55 -46zM16 770c-11 6 -16 18 -16 29c0 30 26 27 37 31c25 -1 37 -12 37 -30c0 -19 -25 -35 -42 -35c-5 0 -10 1 -16 5z" />
    <glyph glyph-name="Imacron" unicode="&#x12a;" horiz-adv-x="256" 
d="M192 27c7 0 13 -6 13 -13s-6 -14 -13 -14v0c1 0 -2 0 -3 0h-27h-83h-16c-7 0 -12 7 -12 13c0 8 5 14 12 14h28h1h6c1 28 1 108 1 202c0 189 -1 436 -1 440h-6h-1h-28c-7 0 -12 6 -12 14c0 9 5 15 12 15h16c27 0 62 -1 83 -1v1h27h3v-1c7 0 13 -5 13 -14
c0 -8 -6 -14 -13 -14h-30v0h-6v-642h6v0h30zM210 801c8 0 16 -5 16 -10c0 -21 -65 -13 -91 -13h-21c-28 0 -45 -2 -75 -1c-7 0 -9 4 -9 9c0 21 51 14 84 14h21c32 0 59 1 75 1z" />
    <glyph glyph-name="Iogonek" unicode="&#x12e;" horiz-adv-x="254" 
d="M170 -141c-12 -8 -27 -13 -42 -13c-46 0 -66 32 -66 59c0 35 25 75 62 95h-62c-7 0 -12 7 -12 13c0 8 5 14 12 14h35c1 28 1 108 1 202c0 189 -1 436 -1 440h-35c-7 0 -12 6 -12 14c0 9 5 15 12 15h16c27 0 62 -1 83 -1v1h30v-1c7 0 13 -5 13 -14c0 -8 -6 -14 -13 -14
h-36v-642h36c7 0 13 -6 13 -13s-6 -14 -13 -14h-40c-28 -18 -57 -58 -57 -84c0 -21 14 -37 38 -37c14 0 28 5 38 16v-36z" />
    <glyph glyph-name="Nacute" unicode="&#x143;" horiz-adv-x="639" 
d="M574 704c9 0 15 -7 15 -15c0 -6 -6 -14 -15 -14h-51c0 -86 5 -160 5 -516c0 -83 3 -159 -12 -159c-21 32 -314 503 -381 594c0 -18 4 -381 6 -557c0 -2 -1 -6 -1 -10h53c7 0 13 -6 13 -13s-6 -14 -13 -14h1h-3h-28h-82h-16c-8 0 -15 7 -15 14s7 13 15 13h50v265
c0 30 -6 183 -6 294c0 64 -1 118 13 118c22 -34 309 -496 377 -588c1 4 1 36 1 82c0 155 -3 475 -3 477h-49c-8 0 -15 8 -15 14c0 8 7 15 14 15h-1h3h27h82h16zM417 852c-19 -32 -62 -104 -85 -104c-7 0 -11 10 -11 16c0 20 32 74 42 95c4 10 14 15 24 15c12 0 24 -7 30 -22
z" />
    <glyph glyph-name="Ncaron" unicode="&#x147;" horiz-adv-x="639" 
d="M574 704c9 0 15 -7 15 -15c0 -6 -6 -14 -15 -14h-51c0 -86 5 -160 5 -516c0 -83 3 -159 -12 -159c-21 32 -314 503 -381 594c0 -18 4 -381 6 -557c0 -2 -1 -6 -1 -10h53c7 0 13 -6 13 -13s-6 -14 -13 -14h1h-3h-28h-82h-16c-8 0 -15 7 -15 14s7 13 15 13h50v265
c0 30 -6 183 -6 294c0 64 -1 118 13 118c22 -34 309 -496 377 -588c1 4 1 36 1 82c0 155 -3 475 -3 477h-49c-8 0 -15 8 -15 14c0 8 7 15 14 15h-1h3h27h82h16zM325 808c17 15 47 58 62 58c9 0 13 -8 13 -14c0 -3 -1 -6 -2 -7c-5 -8 -69 -90 -74 -95c-7 8 -66 103 -66 103
c0 12 16 16 17 16c18 0 31 -43 50 -61z" />
    <glyph glyph-name="Ncommaaccent" unicode="&#x145;" horiz-adv-x="639" 
d="M574 704c9 0 15 -7 15 -15c0 -6 -6 -14 -15 -14h-51c0 -86 5 -160 5 -516c0 -83 3 -159 -12 -159c-21 32 -314 503 -381 594c0 -18 4 -381 6 -557c0 -2 -1 -6 -1 -10h53c7 0 13 -6 13 -13s-6 -14 -13 -14h1h-3h-28h-82h-16c-8 0 -15 7 -15 14s7 13 15 13h50v265
c0 30 -6 183 -6 294c0 64 -1 118 13 118c22 -34 309 -496 377 -588c1 4 1 36 1 82c0 155 -3 475 -3 477h-49c-8 0 -15 8 -15 14c0 8 7 15 14 15h-1h3h27h82h16zM280 -214c21 23 47 35 47 68c-25 5 -42 14 -42 34c0 14 19 42 41 42c19 0 32 -24 32 -42
c-4 -40 -23 -89 -78 -102z" />
    <glyph glyph-name="Ntilde" unicode="&#xd1;" horiz-adv-x="639" 
d="M574 704c9 0 15 -7 15 -15c0 -6 -6 -14 -15 -14h-51c0 -86 5 -160 5 -516c0 -83 3 -159 -12 -159c-21 32 -314 503 -381 594c0 -18 4 -381 6 -557c0 -2 -1 -6 -1 -10h53c7 0 13 -6 13 -13s-6 -14 -13 -14h1h-3h-28h-82h-16c-8 0 -15 7 -15 14s7 13 15 13h50v265
c0 30 -6 183 -6 294c0 64 -1 118 13 118c22 -34 309 -496 377 -588c1 4 1 36 1 82c0 155 -3 475 -3 477h-49c-8 0 -15 8 -15 14c0 8 7 15 14 15h-1h3h27h82h16zM216 767c31 28 45 41 76 41c27 0 54 -22 76 -22c16 0 30 8 51 19c3 -3 4 -6 4 -9c0 -20 -66 -44 -74 -44
c-29 0 -54 26 -79 26c-16 0 -31 -14 -44 -14c-3 0 -6 0 -10 3z" />
    <glyph glyph-name="Ograve" unicode="&#xd2;" horiz-adv-x="507" 
d="M81 294c5 56 3 116 4 172c2 193 121 247 183 247c58 0 117 -38 133 -92c24 -81 26 -187 26 -262c0 -54 -5 -107 -14 -161c-18 -106 -50 -210 -188 -210c-158 0 -144 185 -144 306zM363 424v3c0 18 -7 111 -12 161c-4 44 -41 91 -91 91c-129 0 -110 -206 -117 -316
c-2 -29 -3 -103 -3 -151c0 -59 2 -85 7 -133c7 -41 59 -62 92 -62c48 0 95 22 109 79c12 49 17 155 17 236c0 44 -1 79 -2 92zM176 862c6 15 18 22 30 22c24 0 52 -66 65 -106c0 -1 1 -3 1 -4c0 -6 -4 -16 -11 -16c-23 0 -66 72 -85 104z" />
    <glyph glyph-name="Oacute" unicode="&#xd3;" horiz-adv-x="507" 
d="M81 294c5 56 3 116 4 172c2 193 121 247 183 247c58 0 117 -38 133 -92c24 -81 26 -187 26 -262c0 -54 -5 -107 -14 -161c-18 -106 -50 -210 -188 -210c-158 0 -144 185 -144 306zM363 424v3c0 18 -7 111 -12 161c-4 44 -41 91 -91 91c-129 0 -110 -206 -117 -316
c-2 -29 -3 -103 -3 -151c0 -59 2 -85 7 -133c7 -41 59 -62 92 -62c48 0 95 22 109 79c12 49 17 155 17 236c0 44 -1 79 -2 92zM342 862c-19 -32 -62 -104 -85 -104c-7 0 -11 10 -11 16c0 20 32 74 42 95c4 10 14 15 24 15c12 0 24 -7 30 -22z" />
    <glyph glyph-name="Ocircumflex" unicode="&#xd4;" horiz-adv-x="507" 
d="M81 294c5 56 3 116 4 172c2 193 121 247 183 247c58 0 117 -38 133 -92c24 -81 26 -187 26 -262c0 -54 -5 -107 -14 -161c-18 -106 -50 -210 -188 -210c-158 0 -144 185 -144 306zM363 424v3c0 18 -7 111 -12 161c-4 44 -41 91 -91 91c-129 0 -110 -206 -117 -316
c-2 -29 -3 -103 -3 -151c0 -59 2 -85 7 -133c7 -41 59 -62 92 -62c48 0 95 22 109 79c12 49 17 155 17 236c0 44 -1 79 -2 92zM250 822c-19 -19 -32 -61 -50 -61c-4 0 -17 7 -17 16c0 0 59 95 66 103c5 -5 69 -87 74 -95c1 -2 2 -4 2 -7c0 -6 -4 -14 -13 -14
c-15 0 -45 43 -62 58z" />
    <glyph glyph-name="Odieresis" unicode="&#xd6;" horiz-adv-x="507" 
d="M81 294c5 56 3 116 4 172c2 193 121 247 183 247c58 0 117 -38 133 -92c24 -81 26 -187 26 -262c0 -54 -5 -107 -14 -161c-18 -106 -50 -210 -188 -210c-158 0 -144 185 -144 306zM363 424v3c0 18 -7 111 -12 161c-4 44 -41 91 -91 91c-129 0 -110 -206 -117 -316
c-2 -29 -3 -103 -3 -151c0 -59 2 -85 7 -133c7 -41 59 -62 92 -62c48 0 95 22 109 79c12 49 17 155 17 236c0 44 -1 79 -2 92zM333 765c-15 0 -35 15 -35 33c0 25 29 44 57 44c14 0 33 -23 33 -31c0 -20 -36 -45 -55 -46zM156 780c-11 6 -16 18 -16 29c0 30 26 27 37 31
c25 -1 37 -12 37 -30c0 -19 -25 -35 -42 -35c-5 0 -10 1 -16 5z" />
    <glyph glyph-name="Ohungarumlaut" unicode="&#x150;" horiz-adv-x="507" 
d="M81 294c5 56 3 116 4 172c2 193 121 247 183 247c58 0 117 -38 133 -92c24 -81 26 -187 26 -262c0 -54 -5 -107 -14 -161c-18 -106 -50 -210 -188 -210c-158 0 -144 185 -144 306zM363 424v3c0 18 -7 111 -12 161c-4 44 -41 91 -91 91c-129 0 -110 -206 -117 -316
c-2 -29 -3 -103 -3 -151c0 -59 2 -85 7 -133c7 -41 59 -62 92 -62c48 0 95 22 109 79c12 49 17 155 17 236c0 44 -1 79 -2 92zM282 862c-14 -23 -57 -102 -67 -102c-5 0 -9 7 -9 13c0 21 36 78 42 96c3 9 8 12 14 12c9 0 19 -8 20 -19zM382 862c-12 -20 -58 -102 -67 -102
c-5 0 -9 7 -9 13c0 20 35 79 42 96c3 8 9 12 15 12c9 0 18 -8 19 -19z" />
    <glyph glyph-name="Omacron" unicode="&#x14c;" horiz-adv-x="507" 
d="M81 294c5 56 3 116 4 172c2 193 121 247 183 247c58 0 117 -38 133 -92c24 -81 26 -187 26 -262c0 -54 -5 -107 -14 -161c-18 -106 -50 -210 -188 -210c-158 0 -144 185 -144 306zM363 424v3c0 18 -7 111 -12 161c-4 44 -41 91 -91 91c-129 0 -110 -206 -117 -316
c-2 -29 -3 -103 -3 -151c0 -59 2 -85 7 -133c7 -41 59 -62 92 -62c48 0 95 22 109 79c12 49 17 155 17 236c0 44 -1 79 -2 92zM346 811c8 0 16 -5 16 -10c0 -21 -65 -13 -91 -13h-21c-28 0 -45 -2 -75 -1c-7 0 -9 4 -9 9c0 21 51 14 84 14h21c32 0 59 1 75 1z" />
    <glyph glyph-name="Otilde" unicode="&#xd5;" horiz-adv-x="507" 
d="M81 294c5 56 3 116 4 172c2 193 121 247 183 247c58 0 117 -38 133 -92c24 -81 26 -187 26 -262c0 -54 -5 -107 -14 -161c-18 -106 -50 -210 -188 -210c-158 0 -144 185 -144 306zM363 424v3c0 18 -7 111 -12 161c-4 44 -41 91 -91 91c-129 0 -110 -206 -117 -316
c-2 -29 -3 -103 -3 -151c0 -59 2 -85 7 -133c7 -41 59 -62 92 -62c48 0 95 22 109 79c12 49 17 155 17 236c0 44 -1 79 -2 92zM161 787c31 28 45 41 76 41c27 0 54 -22 76 -22c16 0 30 8 51 19c3 -3 4 -6 4 -9c0 -20 -66 -44 -74 -44c-29 0 -54 26 -79 26
c-16 0 -31 -14 -44 -14c-3 0 -6 0 -10 3z" />
    <glyph glyph-name="Racute" unicode="&#x154;" horiz-adv-x="495" 
d="M50 14c0 8 6 14 13 14h28l1 -1h6c0 25 -1 95 -1 190c0 143 1 317 1 330c0 5 -1 16 -1 30c0 52 1 71 1 93h-6h-1h-28c-7 0 -13 6 -13 14c0 7 6 14 13 14h-1h2h27h98h2c70 0 221 -28 221 -204c0 -137 -39 -170 -102 -197c76 -65 46 -160 82 -240c20 -39 103 -32 103 -57v-3
c-88 0 -149 31 -175 129c-27 99 -23 166 -150 166h-13c0 -58 -1 -119 -1 -178c0 -29 1 -59 1 -87h6v0h28c8 0 14 -5 14 -13s-6 -14 -14 -14h-17h-83h-27h-2h1c-7 0 -13 6 -13 14zM351 492c0 163 -102 188 -157 188c-18 0 -38 11 -38 -32h1v-105v-224c12 -2 26 -4 42 -4
c65 0 152 28 152 177zM335 852c-19 -32 -62 -104 -85 -104c-7 0 -11 10 -11 16c0 20 32 74 42 95c4 10 14 15 24 15c12 0 24 -7 30 -22z" />
    <glyph glyph-name="Rcaron" unicode="&#x158;" horiz-adv-x="495" 
d="M50 14c0 8 6 14 13 14h28l1 -1h6c0 25 -1 95 -1 190c0 143 1 317 1 330c0 5 -1 16 -1 30c0 52 1 71 1 93h-6h-1h-28c-7 0 -13 6 -13 14c0 7 6 14 13 14h-1h2h27h98h2c70 0 221 -28 221 -204c0 -137 -39 -170 -102 -197c76 -65 46 -160 82 -240c20 -39 103 -32 103 -57v-3
c-88 0 -149 31 -175 129c-27 99 -23 166 -150 166h-13c0 -58 -1 -119 -1 -178c0 -29 1 -59 1 -87h6v0h28c8 0 14 -5 14 -13s-6 -14 -14 -14h-17h-83h-27h-2h1c-7 0 -13 6 -13 14zM351 492c0 163 -102 188 -157 188c-18 0 -38 11 -38 -32h1v-105v-224c12 -2 26 -4 42 -4
c65 0 152 28 152 177zM243 808c17 15 47 58 62 58c9 0 13 -8 13 -14c0 -3 -1 -6 -2 -7c-5 -8 -69 -90 -74 -95c-7 8 -66 103 -66 103c0 12 16 16 17 16c18 0 31 -43 50 -61z" />
    <glyph glyph-name="Rcommaaccent" unicode="&#x156;" horiz-adv-x="495" 
d="M50 14c0 8 6 14 13 14h28l1 -1h6c0 25 -1 95 -1 190c0 143 1 317 1 330c0 5 -1 16 -1 30c0 52 1 71 1 93h-6h-1h-28c-7 0 -13 6 -13 14c0 7 6 14 13 14h-1h2h27h98h2c70 0 221 -28 221 -204c0 -137 -39 -170 -102 -197c76 -65 46 -160 82 -240c20 -39 103 -32 103 -57v-3
c-88 0 -149 31 -175 129c-27 99 -23 166 -150 166h-13c0 -58 -1 -119 -1 -178c0 -29 1 -59 1 -87h6v0h28c8 0 14 -5 14 -13s-6 -14 -14 -14h-17h-83h-27h-2h1c-7 0 -13 6 -13 14zM351 492c0 163 -102 188 -157 188c-18 0 -38 11 -38 -32h1v-105v-224c12 -2 26 -4 42 -4
c65 0 152 28 152 177zM208 -214c21 23 47 35 47 68c-25 5 -42 14 -42 34c0 14 19 42 41 42c19 0 32 -24 32 -42c-4 -40 -23 -89 -78 -102z" />
    <glyph glyph-name="Sacute" unicode="&#x15a;" horiz-adv-x="428" 
d="M280 593c-8 25 4 80 -78 80c-48 0 -101 -59 -101 -123c0 -57 38 -87 75 -108c47 -23 91 -52 127 -90c34 -36 75 -82 75 -188v-21c-1 -38 -32 -156 -177 -156c-77 4 -171 44 -171 124c0 13 13 30 27 30c10 0 25 -10 28 -24c14 -58 82 -105 125 -105c59 0 108 56 108 127
c0 116 -96 179 -182 256c-29 26 -71 67 -71 141c0 82 59 175 153 175c41 0 105 -27 105 -100c0 -12 -13 -25 -26 -25c-5 0 -11 2 -17 7zM302 862c-19 -32 -62 -104 -85 -104c-7 0 -11 10 -11 16c0 20 32 74 42 95c4 10 14 15 24 15c12 0 24 -7 30 -22z" />
    <glyph glyph-name="Scaron" unicode="&#x160;" horiz-adv-x="428" 
d="M280 593c-8 25 4 80 -78 80c-48 0 -101 -59 -101 -123c0 -57 38 -87 75 -108c47 -23 91 -52 127 -90c34 -36 75 -82 75 -188v-21c-1 -38 -32 -156 -177 -156c-77 4 -171 44 -171 124c0 13 13 30 27 30c10 0 25 -10 28 -24c14 -58 82 -105 125 -105c59 0 108 56 108 127
c0 116 -96 179 -182 256c-29 26 -71 67 -71 141c0 82 59 175 153 175c41 0 105 -27 105 -100c0 -12 -13 -25 -26 -25c-5 0 -11 2 -17 7zM220 808c17 15 47 58 62 58c9 0 13 -8 13 -14c0 -3 -1 -6 -2 -7c-5 -8 -69 -90 -74 -95c-7 8 -66 103 -66 103c0 12 16 16 17 16
c18 0 31 -43 50 -61z" />
    <glyph glyph-name="Scedilla" unicode="&#x15e;" horiz-adv-x="428" 
d="M158 -68l25 57c-73 8 -153 48 -153 122c0 13 13 30 27 30c10 0 25 -10 28 -24c14 -58 82 -105 125 -105c59 0 108 56 108 127c0 116 -96 179 -182 256c-29 26 -71 67 -71 141c0 82 59 175 153 175c41 0 105 -27 105 -100c0 -12 -13 -25 -26 -25c-5 0 -11 2 -17 7
c-8 25 4 80 -78 80c-48 0 -101 -59 -101 -123c0 -57 38 -87 75 -108c47 -23 91 -52 127 -90c34 -36 75 -82 75 -188v-21c-1 -38 -32 -153 -172 -156l-21 -45c32 0 62 -24 62 -64c0 -33 -31 -58 -72 -58c-26 0 -55 18 -55 34c0 6 5 11 16 17c9 -17 25 -28 42 -28
c21 0 38 18 38 37c0 25 -16 37 -39 37c-5 0 -10 0 -15 -1c-4 4 -6 8 -6 11c0 2 1 3 2 5z" />
    <glyph glyph-name="Scommaaccent" unicode="&#x218;" horiz-adv-x="428" 
d="M280 593c-8 25 4 80 -78 80c-48 0 -101 -59 -101 -123c0 -57 38 -87 75 -108c47 -23 91 -52 127 -90c34 -36 75 -82 75 -188v-21c-1 -38 -32 -156 -177 -156c-77 4 -171 44 -171 124c0 13 13 30 27 30c10 0 25 -10 28 -24c14 -58 82 -105 125 -105c59 0 108 56 108 127
c0 116 -96 179 -182 256c-29 26 -71 67 -71 141c0 82 59 175 153 175c41 0 105 -27 105 -100c0 -12 -13 -25 -26 -25c-5 0 -11 2 -17 7zM158 -224c21 23 47 35 47 68c-25 5 -42 14 -42 34c0 14 19 42 41 42c19 0 32 -24 32 -42c-4 -40 -23 -89 -78 -102z" />
    <glyph glyph-name="Tcaron" unicode="&#x164;" horiz-adv-x="408" 
d="M359 699h6c13 0 19 -6 23 -12c-5 -39 -9 -70 -12 -105c-26 0 -29 2 -32 27c-3 19 -4 64 -6 65h-29h-74c0 -89 -1 -74 -1 -270c0 -152 1 -373 1 -378h34c8 0 13 -6 13 -13c0 -8 -5 -13 -12 -13v-1c0 0 0 -1 -2 -1c-1 0 -1 2 -1 2h-26c-23 0 -100 -2 -100 -2
c-7 0 -14 7 -14 15c0 7 7 13 14 13h37c1 28 1 95 1 172c0 492 -1 362 -1 475h-107c-2 -22 -3 -45 -5 -64c-3 -25 -6 -27 -34 -27c-3 35 -6 66 -12 105c3 6 9 12 23 12h6c5 -1 81 -1 156 -1s149 0 154 1zM210 808c17 15 47 58 62 58c9 0 13 -8 13 -14c0 -3 -1 -6 -2 -7
c-5 -8 -69 -90 -74 -95c-7 8 -66 103 -66 103c0 12 16 16 17 16c18 0 31 -43 50 -61z" />
    <glyph glyph-name="Tcommaaccent" unicode="&#x162;" horiz-adv-x="408" 
d="M359 699h6c13 0 19 -6 23 -12c-5 -39 -9 -70 -12 -105c-26 0 -29 2 -32 27c-3 19 -4 64 -6 65h-29h-74c0 -89 -1 -74 -1 -270c0 -152 1 -373 1 -378h34c8 0 13 -6 13 -13c0 -8 -5 -13 -12 -13v-1c0 0 0 -1 -2 -1c-1 0 -1 2 -1 2h-26c-23 0 -100 -2 -100 -2
c-7 0 -14 7 -14 15c0 7 7 13 14 13h37c1 28 1 95 1 172c0 492 -1 362 -1 475h-107c-2 -22 -3 -45 -5 -64c-3 -25 -6 -27 -34 -27c-3 35 -6 66 -12 105c3 6 9 12 23 12h6c5 -1 81 -1 156 -1s149 0 154 1zM165 -224c21 23 47 35 47 68c-25 5 -42 14 -42 34c0 14 19 42 41 42
c19 0 32 -24 32 -42c-4 -40 -23 -89 -78 -102z" />
    <glyph glyph-name="Yacute" unicode="&#xdd;" horiz-adv-x="513" 
d="M501 699c7 0 12 -6 12 -12c0 -8 -5 -14 -12 -14h-29v0h-5c0 -4 -110 -252 -189 -399v-245h6v0h30c6 0 12 -6 12 -13c0 -9 -8 -12 -14 -12h-28h-83h-16c-5 0 -11 6 -11 12c0 7 6 13 11 13h29h1h7v63c0 52 0 106 -1 158c-68 158 -177 419 -177 423h-6h-1h-24
c-6 0 -13 6 -13 14c0 6 7 12 13 12h12h84h27h3h-1c7 0 13 -6 13 -12c0 -8 -6 -14 -13 -14h-24c0 -3 85 -215 148 -362c73 141 171 359 171 362h-60c-7 0 -13 6 -13 14c0 6 6 12 13 12h-1h3h26h83h17zM354 852c-19 -32 -62 -104 -85 -104c-7 0 -11 10 -11 16
c0 20 32 74 42 95c4 10 14 15 24 15c12 0 24 -7 30 -22z" />
    <glyph glyph-name="Ydieresis" unicode="&#x178;" horiz-adv-x="513" 
d="M501 699c7 0 12 -6 12 -12c0 -8 -5 -14 -12 -14h-29v0h-5c0 -4 -110 -252 -189 -399v-245h6v0h30c6 0 12 -6 12 -13c0 -9 -8 -12 -14 -12h-28h-83h-16c-5 0 -11 6 -11 12c0 7 6 13 11 13h29h1h7v63c0 52 0 106 -1 158c-68 158 -177 419 -177 423h-6h-1h-24
c-6 0 -13 6 -13 14c0 6 7 12 13 12h12h84h27h3h-1c7 0 13 -6 13 -12c0 -8 -6 -14 -13 -14h-24c0 -3 85 -215 148 -362c73 141 171 359 171 362h-60c-7 0 -13 6 -13 14c0 6 6 12 13 12h-1h3h26h83h17zM335 755c-15 0 -35 15 -35 33c0 25 29 44 57 44c14 0 33 -23 33 -31
c0 -20 -36 -45 -55 -46zM158 770c-11 6 -16 18 -16 29c0 30 26 27 37 31c25 -1 37 -12 37 -30c0 -19 -25 -35 -42 -35c-5 0 -10 1 -16 5z" />
    <glyph glyph-name="dotlessi" unicode="&#x131;" horiz-adv-x="235" 
d="M147 17h11h20c5 0 14 2 14 -8c0 -13 -59 -9 -80 -9c-15 0 -70 -5 -70 8c0 12 27 8 42 9v466h-10h-18c-10 0 -16 1 -16 11c0 7 4 9 11 9c4 0 10 -1 16 -1c37 1 76 2 114 2c10 0 14 -4 14 -9s-3 -9 -8 -12h-40c-1 -50 -1 -103 -1 -155c0 -105 1 -212 1 -311z" />
    <glyph glyph-name="igrave" unicode="&#xec;" horiz-adv-x="236" 
d="M148 17h11h20c5 0 14 2 14 -8c0 -13 -59 -9 -80 -9c-15 0 -70 -5 -70 8c0 12 27 8 42 9v466h-10h-18c-10 0 -16 1 -16 11c0 7 4 9 11 9c4 0 10 -1 16 -1c37 1 76 2 114 2c10 0 14 -4 14 -9s-3 -9 -8 -12h-40c-1 -50 -1 -103 -1 -155c0 -105 1 -212 1 -311zM30 662
c6 15 18 22 30 22c24 0 52 -66 65 -106c0 -1 1 -3 1 -4c0 -6 -4 -16 -11 -16c-23 0 -66 72 -85 104z" />
    <glyph glyph-name="iacute" unicode="&#xed;" horiz-adv-x="235" 
d="M147 17h11h20c5 0 14 2 14 -8c0 -13 -59 -9 -80 -9c-15 0 -70 -5 -70 8c0 12 27 8 42 9v466h-10h-18c-10 0 -16 1 -16 11c0 7 4 9 11 9c4 0 10 -1 16 -1c37 1 76 2 114 2c10 0 14 -4 14 -9s-3 -9 -8 -12h-40c-1 -50 -1 -103 -1 -155c0 -105 1 -212 1 -311zM205 662
c-19 -32 -62 -104 -85 -104c-7 0 -11 10 -11 16c0 20 32 74 42 95c4 10 14 15 24 15c12 0 24 -7 30 -22z" />
    <glyph glyph-name="icircumflex" unicode="&#xee;" horiz-adv-x="235" 
d="M147 17h11h20c5 0 14 2 14 -8c0 -13 -59 -9 -80 -9c-15 0 -70 -5 -70 8c0 12 27 8 42 9v466h-10h-18c-10 0 -16 1 -16 11c0 7 4 9 11 9c4 0 10 -1 16 -1c37 1 76 2 114 2c10 0 14 -4 14 -9s-3 -9 -8 -12h-40c-1 -50 -1 -103 -1 -155c0 -105 1 -212 1 -311zM113 632
c-19 -19 -32 -61 -50 -61c-4 0 -17 7 -17 16c0 0 59 95 66 103c5 -5 69 -87 74 -95c1 -2 2 -4 2 -7c0 -6 -4 -14 -13 -14c-15 0 -45 43 -62 58z" />
    <glyph glyph-name="idieresis" unicode="&#xef;" horiz-adv-x="248" 
d="M153 17h11h20c5 0 14 2 14 -8c0 -13 -59 -9 -80 -9c-15 0 -70 -5 -70 8c0 12 27 8 42 9v466h-10h-18c-10 0 -16 1 -16 11c0 7 4 9 11 9c4 0 10 -1 16 -1c37 1 76 2 114 2c10 0 14 -4 14 -9s-3 -9 -8 -12h-40c-1 -50 -1 -103 -1 -155c0 -105 1 -212 1 -311zM193 565
c-15 0 -35 15 -35 33c0 25 29 44 57 44c14 0 33 -23 33 -31c0 -20 -36 -45 -55 -46zM16 580c-11 6 -16 18 -16 29c0 30 26 27 37 31c25 -1 37 -12 37 -30c0 -19 -25 -35 -42 -35c-5 0 -10 1 -16 5z" />
    <glyph glyph-name="imacron" unicode="&#x12b;" horiz-adv-x="236" 
d="M147 17h11h20c5 0 14 2 14 -8c0 -13 -59 -9 -80 -9c-15 0 -70 -5 -70 8c0 12 27 8 42 9v466h-10h-18c-10 0 -16 1 -16 11c0 7 4 9 11 9c4 0 10 -1 16 -1c37 1 76 2 114 2c10 0 14 -4 14 -9s-3 -9 -8 -12h-40c-1 -50 -1 -103 -1 -155c0 -105 1 -212 1 -311zM200 611
c8 0 16 -5 16 -10c0 -21 -65 -13 -91 -13h-21c-28 0 -45 -2 -75 -1c-7 0 -9 4 -9 9c0 21 51 14 84 14h21c32 0 59 1 75 1z" />
    <glyph glyph-name="iogonek" unicode="&#x12f;" horiz-adv-x="235" 
d="M159 -141c-12 -8 -27 -13 -42 -13c-46 0 -66 32 -66 59c0 35 25 75 62 95h-1c-15 0 -70 -5 -70 8c0 12 27 8 42 9v466h-28c-10 0 -16 1 -16 11c0 7 4 9 11 9c4 0 10 -1 16 -1c37 1 76 2 114 2c10 0 14 -4 14 -9s-3 -9 -8 -12h-40c-1 -50 -1 -103 -1 -155
c0 -105 1 -212 1 -311h31c5 0 14 2 14 -8c0 -9 -29 -10 -53 -9c-27 -19 -56 -59 -56 -84c0 -21 14 -37 38 -37c14 0 28 5 38 16v-36zM110 566c-21 1 -33 14 -33 34c0 26 18 45 44 45c27 0 36 -8 36 -34c0 -27 -23 -45 -47 -45z" />
    <glyph glyph-name="nacute" unicode="&#x144;" horiz-adv-x="489" 
d="M456 17c2 -3 3 -6 3 -8c0 -13 -60 -9 -81 -9c-15 0 -70 -5 -70 8c0 11 24 8 43 9c0 38 1 317 1 327c-2 30 -6 117 -99 117c-74 0 -108 -80 -119 -133v-311h12h22c5 0 13 1 13 -8c0 -13 -59 -9 -79 -9c-15 0 -71 -5 -71 8c0 12 28 8 44 9v466h-10h-19c-10 0 -16 1 -16 10
c0 8 3 10 9 10c5 0 10 -1 17 -1c27 1 53 1 79 2c0 0 -1 -72 -1 -96c14 25 53 75 120 75c106 0 154 -47 158 -139c1 -16 1 -235 1 -327h12h21h10zM332 662c-19 -32 -62 -104 -85 -104c-7 0 -11 10 -11 16c0 20 32 74 42 95c4 10 14 15 24 15c12 0 24 -7 30 -22z" />
    <glyph glyph-name="ncaron" unicode="&#x148;" horiz-adv-x="489" 
d="M456 17c2 -3 3 -6 3 -8c0 -13 -60 -9 -81 -9c-15 0 -70 -5 -70 8c0 11 24 8 43 9c0 38 1 317 1 327c-2 30 -6 117 -99 117c-74 0 -108 -80 -119 -133v-311h12h22c5 0 13 1 13 -8c0 -13 -59 -9 -79 -9c-15 0 -71 -5 -71 8c0 12 28 8 44 9v466h-10h-19c-10 0 -16 1 -16 10
c0 8 3 10 9 10c5 0 10 -1 17 -1c27 1 53 1 79 2c0 0 -1 -72 -1 -96c14 25 53 75 120 75c106 0 154 -47 158 -139c1 -16 1 -235 1 -327h12h21h10zM250 618c17 15 47 58 62 58c9 0 13 -8 13 -14c0 -3 -1 -6 -2 -7c-5 -8 -69 -90 -74 -95c-7 8 -66 103 -66 103
c0 12 16 16 17 16c18 0 31 -43 50 -61z" />
    <glyph glyph-name="ncommaaccent" unicode="&#x146;" horiz-adv-x="489" 
d="M456 17c2 -3 3 -6 3 -8c0 -13 -60 -9 -81 -9c-15 0 -70 -5 -70 8c0 11 24 8 43 9c0 38 1 317 1 327c-2 30 -6 117 -99 117c-74 0 -108 -80 -119 -133v-311h12h22c5 0 13 1 13 -8c0 -13 -59 -9 -79 -9c-15 0 -71 -5 -71 8c0 12 28 8 44 9v466h-10h-19c-10 0 -16 1 -16 10
c0 8 3 10 9 10c5 0 10 -1 17 -1c27 1 53 1 79 2c0 0 -1 -72 -1 -96c14 25 53 75 120 75c106 0 154 -47 158 -139c1 -16 1 -235 1 -327h12h21h10zM205 -224c21 23 47 35 47 68c-25 5 -42 14 -42 34c0 14 19 42 41 42c19 0 32 -24 32 -42c-4 -40 -23 -89 -78 -102z" />
    <glyph glyph-name="ntilde" unicode="&#xf1;" horiz-adv-x="489" 
d="M456 17c2 -3 3 -6 3 -8c0 -13 -60 -9 -81 -9c-15 0 -70 -5 -70 8c0 11 24 8 43 9c0 38 1 317 1 327c-2 30 -6 117 -99 117c-74 0 -108 -80 -119 -133v-311h12h22c5 0 13 1 13 -8c0 -13 -59 -9 -79 -9c-15 0 -71 -5 -71 8c0 12 28 8 44 9v466h-10h-19c-10 0 -16 1 -16 10
c0 8 3 10 9 10c5 0 10 -1 17 -1c27 1 53 1 79 2c0 0 -1 -72 -1 -96c14 25 53 75 120 75c106 0 154 -47 158 -139c1 -16 1 -235 1 -327h12h21h10zM151 587c31 28 45 41 76 41c27 0 54 -22 76 -22c16 0 30 8 51 19c3 -3 4 -6 4 -9c0 -20 -66 -44 -74 -44c-29 0 -54 26 -79 26
c-16 0 -31 -14 -44 -14c-3 0 -6 0 -10 3z" />
    <glyph glyph-name="ograve" unicode="&#xf2;" horiz-adv-x="408" 
d="M206 -14c-130 2 -146 135 -146 211c0 49 2 51 2 74c0 79 7 243 141 243c163 0 144 -227 144 -267c0 -2 1 -17 1 -39c0 -72 -15 -220 -142 -222zM280 228c0 118 -7 263 -76 263c-64 0 -72 -93 -72 -170c0 -29 1 -56 1 -74c0 -16 -1 -39 -1 -64c0 -74 9 -169 78 -169
c62 6 71 91 71 155c0 25 -1 47 -1 59zM126 662c6 15 18 22 30 22c24 0 52 -66 65 -106c0 -1 1 -3 1 -4c0 -6 -4 -16 -11 -16c-23 0 -66 72 -85 104z" />
    <glyph glyph-name="oacute" unicode="&#xf3;" horiz-adv-x="408" 
d="M206 -14c-130 2 -146 135 -146 211c0 49 2 51 2 74c0 79 7 243 141 243c163 0 144 -227 144 -267c0 -2 1 -17 1 -39c0 -72 -15 -220 -142 -222zM280 228c0 118 -7 263 -76 263c-64 0 -72 -93 -72 -170c0 -29 1 -56 1 -74c0 -16 -1 -39 -1 -64c0 -74 9 -169 78 -169
c62 6 71 91 71 155c0 25 -1 47 -1 59zM292 662c-19 -32 -62 -104 -85 -104c-7 0 -11 10 -11 16c0 20 32 74 42 95c4 10 14 15 24 15c12 0 24 -7 30 -22z" />
    <glyph glyph-name="ocircumflex" unicode="&#xf4;" horiz-adv-x="408" 
d="M206 -14c-130 2 -146 135 -146 211c0 49 2 51 2 74c0 79 7 243 141 243c163 0 144 -227 144 -267c0 -2 1 -17 1 -39c0 -72 -15 -220 -142 -222zM280 228c0 118 -7 263 -76 263c-64 0 -72 -93 -72 -170c0 -29 1 -56 1 -74c0 -16 -1 -39 -1 -64c0 -74 9 -169 78 -169
c62 6 71 91 71 155c0 25 -1 47 -1 59zM200 622c-19 -19 -32 -61 -50 -61c-4 0 -17 7 -17 16c0 0 59 95 66 103c5 -5 69 -87 74 -95c1 -2 2 -4 2 -7c0 -6 -4 -14 -13 -14c-15 0 -45 43 -62 58z" />
    <glyph glyph-name="odieresis" unicode="&#xf6;" horiz-adv-x="408" 
d="M206 -14c-130 2 -146 135 -146 211c0 49 2 51 2 74c0 79 7 243 141 243c163 0 144 -227 144 -267c0 -2 1 -17 1 -39c0 -72 -15 -220 -142 -222zM280 228c0 118 -7 263 -76 263c-64 0 -72 -93 -72 -170c0 -29 1 -56 1 -74c0 -16 -1 -39 -1 -64c0 -74 9 -169 78 -169
c62 6 71 91 71 155c0 25 -1 47 -1 59zM283 565c-15 0 -35 15 -35 33c0 25 29 44 57 44c14 0 33 -23 33 -31c0 -20 -36 -45 -55 -46zM106 580c-11 6 -16 18 -16 29c0 30 26 27 37 31c25 -1 37 -12 37 -30c0 -19 -25 -35 -42 -35c-5 0 -10 1 -16 5z" />
    <glyph glyph-name="ohungarumlaut" unicode="&#x151;" horiz-adv-x="408" 
d="M206 -14c-130 2 -146 135 -146 211c0 49 2 51 2 74c0 79 7 243 141 243c163 0 144 -227 144 -267c0 -2 1 -17 1 -39c0 -72 -15 -220 -142 -222zM280 228c0 118 -7 263 -76 263c-64 0 -72 -93 -72 -170c0 -29 1 -56 1 -74c0 -16 -1 -39 -1 -64c0 -74 9 -169 78 -169
c62 6 71 91 71 155c0 25 -1 47 -1 59zM232 662c-14 -23 -57 -102 -67 -102c-5 0 -9 7 -9 13c0 21 36 78 42 96c3 9 8 12 14 12c9 0 19 -8 20 -19zM332 662c-12 -20 -58 -102 -67 -102c-5 0 -9 7 -9 13c0 20 35 79 42 96c3 8 9 12 15 12c9 0 18 -8 19 -19z" />
    <glyph glyph-name="omacron" unicode="&#x14d;" horiz-adv-x="408" 
d="M206 -14c-130 2 -146 135 -146 211c0 49 2 51 2 74c0 79 7 243 141 243c163 0 144 -227 144 -267c0 -2 1 -17 1 -39c0 -72 -15 -220 -142 -222zM280 228c0 118 -7 263 -76 263c-64 0 -72 -93 -72 -170c0 -29 1 -56 1 -74c0 -16 -1 -39 -1 -64c0 -74 9 -169 78 -169
c62 6 71 91 71 155c0 25 -1 47 -1 59zM296 611c8 0 16 -5 16 -10c0 -21 -65 -13 -91 -13h-21c-28 0 -45 -2 -75 -1c-7 0 -9 4 -9 9c0 21 51 14 84 14h21c32 0 59 1 75 1z" />
    <glyph glyph-name="otilde" unicode="&#xf5;" horiz-adv-x="408" 
d="M206 -14c-130 2 -146 135 -146 211c0 49 2 51 2 74c0 79 7 243 141 243c163 0 144 -227 144 -267c0 -2 1 -17 1 -39c0 -72 -15 -220 -142 -222zM280 228c0 118 -7 263 -76 263c-64 0 -72 -93 -72 -170c0 -29 1 -56 1 -74c0 -16 -1 -39 -1 -64c0 -74 9 -169 78 -169
c62 6 71 91 71 155c0 25 -1 47 -1 59zM100 587c31 28 45 41 76 41c27 0 54 -22 76 -22c16 0 30 8 51 19c3 -3 4 -6 4 -9c0 -20 -66 -44 -74 -44c-29 0 -54 26 -79 26c-16 0 -31 -14 -44 -14c-3 0 -6 0 -10 3z" />
    <glyph glyph-name="racute" unicode="&#x155;" horiz-adv-x="358" 
d="M346 441c8 -13 12 -25 12 -37c0 -18 -13 -46 -30 -46c-42 0 -10 95 -77 95c-46 0 -88 -45 -114 -72c0 -123 1 -249 1 -364h11h19c5 0 14 2 14 -9c0 -12 -61 -8 -80 -8c-15 0 -70 -5 -70 7c0 14 30 9 42 10v466h-9h-19c-10 0 -16 1 -16 11c0 7 3 9 10 9c5 0 11 -1 17 -1
c26 1 52 1 81 2c0 0 -1 -68 -1 -90c42 32 82 69 139 69c31 0 53 -14 70 -42zM287 662c-19 -32 -62 -104 -85 -104c-7 0 -11 10 -11 16c0 20 32 74 42 95c4 10 14 15 24 15c12 0 24 -7 30 -22z" />
    <glyph glyph-name="rcaron" unicode="&#x159;" horiz-adv-x="358" 
d="M346 441c8 -13 12 -25 12 -37c0 -18 -13 -46 -30 -46c-42 0 -10 95 -77 95c-46 0 -88 -45 -114 -72c0 -123 1 -249 1 -364h11h19c5 0 14 2 14 -9c0 -12 -61 -8 -80 -8c-15 0 -70 -5 -70 7c0 14 30 9 42 10v466h-9h-19c-10 0 -16 1 -16 11c0 7 3 9 10 9c5 0 11 -1 17 -1
c26 1 52 1 81 2c0 0 -1 -68 -1 -90c42 32 82 69 139 69c31 0 53 -14 70 -42zM215 618c17 15 47 58 62 58c9 0 13 -8 13 -14c0 -3 -1 -6 -2 -7c-5 -8 -69 -90 -74 -95c-7 8 -66 103 -66 103c0 12 16 16 17 16c18 0 31 -43 50 -61z" />
    <glyph glyph-name="rcommaaccent" unicode="&#x157;" horiz-adv-x="358" 
d="M346 441c8 -13 12 -25 12 -37c0 -18 -13 -46 -30 -46c-42 0 -10 95 -77 95c-46 0 -88 -45 -114 -72c0 -123 1 -249 1 -364h11h19c5 0 14 2 14 -9c0 -12 -61 -8 -80 -8c-15 0 -70 -5 -70 7c0 14 30 9 42 10v466h-9h-19c-10 0 -16 1 -16 11c0 7 3 9 10 9c5 0 11 -1 17 -1
c26 1 52 1 81 2c0 0 -1 -68 -1 -90c42 32 82 69 139 69c31 0 53 -14 70 -42zM70 -224c21 23 47 35 47 68c-25 5 -42 14 -42 34c0 14 19 42 41 42c19 0 32 -24 32 -42c-4 -40 -23 -89 -78 -102z" />
    <glyph glyph-name="sacute" unicode="&#x15b;" horiz-adv-x="360" 
d="M64 17c-6 -9 -8 -17 -18 -17c-16 0 -11 62 -11 79c0 8 -1 22 9 22c28 0 40 -39 60 -55c21 -24 46 -34 69 -34c51 0 96 49 96 104c0 58 -49 107 -170 149c-41 14 -69 66 -69 117c0 56 39 122 140 122c11 0 24 -1 36 -1h17h36c6 -12 8 -28 8 -43c0 -16 4 -26 -21 -37
c-1 0 -10 7 -10 12v5c0 37 -30 47 -62 47c-79 0 -93 -69 -93 -94c0 -15 -9 -75 123 -104c10 -4 116 -35 116 -167c0 -96 -79 -127 -153 -127c-41 0 -79 9 -103 22zM258 662c-19 -32 -62 -104 -85 -104c-7 0 -11 10 -11 16c0 20 32 74 42 95c4 10 14 15 24 15
c12 0 24 -7 30 -22z" />
    </font>
</defs>
</svg>
