<?xml version="1.0" encoding="utf-8"?>
<!-- Svg Vector Icons : http://www.onlinewebfonts.com/icon -->
<!DOCTYPE svg PUBLIC "-//W3C//DTD SVG 1.1//EN" "http://www.w3.org/Graphics/SVG/1.1/DTD/svg11.dtd">
<svg version="1.1" xmlns="http://www.w3.org/2000/svg" xmlns:xlink="http://www.w3.org/1999/xlink" x="0px" y="0px" viewBox="0 0 1000 1000" enable-background="new 0 0 1000 1000" xml:space="preserve">
<metadata> Svg Vector Icons : http://www.onlinewebfonts.com/icon </metadata>
<g><g transform="translate(0.000000,511.000000) scale(0.100000,-0.100000)"><path d="M4632.9,4989.9c-641.1-91.2-1177.2-370.3-1655.2-864.9C2320,3445.3,1919.3,2525.1,1720.4,1245.7c-88.4-566.5-88.4-1704.9,2.8-2277c193.4-1260,621.7-2221.6,1287.7-2893.1c469.8-475.3,964.4-732.3,1588.9-826.2c331.6-52.5,500.2-52.5,829,0C6942.9-4521.3,7965.4-3159,8294.2-937.3c74.6,511.2,66.3,1660.7-13.8,2188.5c-273.6,1763-1039,3017.5-2149.8,3520.4C5713.3,4962.3,5083.3,5053.5,4632.9,4989.9z M4663.2,3920.5c135.4-491.9,185.1-914.6,185.1-1555.7c0-754.4-85.7-1356.8-328.8-2296.3C4207.3-1128,4154.8-2263.7,4351-3449.1c30.4-182.4,49.7-334.3,44.2-339.9c-5.5-5.5-88.4,27.6-185.1,71.8c-845.6,403.5-1420.3,1436.9-1616.5,2907c-55.3,414.5-60.8,1348.5-13.8,1751.9c176.8,1450.7,732.3,2520.1,1525.3,2942.9c154.7,82.9,420,187.9,483.6,190.7C4605.2,4078,4638.4,4006.2,4663.2,3920.5z M5848.7,3892.9c804.1-417.2,1370.6-1467.3,1558.5-2884.9c55.3-411.7,60.8-1296,13.8-1696.7C7227.6-2280.3,6594.8-3380,5658-3755.8c-320.5-129.9-295.7-143.7-367.5,196.2c-193.4,925.7-212.8,1812.7-52.5,2697c30.4,171.3,116.1,555.4,190.7,851.1c237.6,942.3,315,1522.6,315,2348.8c0,619-44.2,1047.3-146.4,1472.8l-49.7,215.5l58-19.4C5635.9,3997.9,5746.5,3945.4,5848.7,3892.9z"/></g></g>
</svg>